%TF.GenerationSoftware,KiCad,Pcbnew,7.0.1-0*%
%TF.CreationDate,2023-07-11T12:02:19-05:00*%
%TF.ProjectId,little_switch,6c697474-6c65-45f7-9377-697463682e6b,2*%
%TF.SameCoordinates,PX4221330PY3d0af40*%
%TF.FileFunction,Copper,L2,Inr*%
%TF.FilePolarity,Positive*%
%FSLAX46Y46*%
G04 Gerber Fmt 4.6, Leading zero omitted, Abs format (unit mm)*
G04 Created by KiCad (PCBNEW 7.0.1-0) date 2023-07-11 12:02:19*
%MOMM*%
%LPD*%
G01*
G04 APERTURE LIST*
%TA.AperFunction,ComponentPad*%
%ADD10R,1.700000X1.700000*%
%TD*%
%TA.AperFunction,ComponentPad*%
%ADD11O,1.700000X1.700000*%
%TD*%
%TA.AperFunction,ComponentPad*%
%ADD12R,1.350000X1.350000*%
%TD*%
%TA.AperFunction,ComponentPad*%
%ADD13O,1.350000X1.350000*%
%TD*%
%TA.AperFunction,ComponentPad*%
%ADD14C,5.400000*%
%TD*%
%TA.AperFunction,ComponentPad*%
%ADD15C,2.630000*%
%TD*%
%TA.AperFunction,ComponentPad*%
%ADD16C,2.120000*%
%TD*%
%TA.AperFunction,ComponentPad*%
%ADD17C,1.620000*%
%TD*%
%TA.AperFunction,ComponentPad*%
%ADD18C,1.510000*%
%TD*%
%TA.AperFunction,ViaPad*%
%ADD19C,0.508000*%
%TD*%
%TA.AperFunction,ViaPad*%
%ADD20C,0.762000*%
%TD*%
%TA.AperFunction,ViaPad*%
%ADD21C,0.660400*%
%TD*%
%TA.AperFunction,Conductor*%
%ADD22C,0.609600*%
%TD*%
%TA.AperFunction,Conductor*%
%ADD23C,0.203200*%
%TD*%
%TA.AperFunction,Conductor*%
%ADD24C,0.152400*%
%TD*%
G04 APERTURE END LIST*
D10*
%TO.N,/phy/JRX1_N*%
%TO.C,J6*%
X53129993Y-29210000D03*
D11*
%TO.N,/phy/JRX1_P*%
X53129993Y-26670000D03*
%TO.N,/phy/JTX1_N*%
X53129993Y-24130000D03*
%TO.N,/phy/JTX1_P*%
X53129993Y-21590000D03*
%TD*%
D12*
%TO.N,+3V3*%
%TO.C,J2*%
X-999998Y-5250002D03*
D13*
%TO.N,/phy/TIMEPIX_TX*%
X1000002Y-5250002D03*
%TO.N,unconnected-(J2-Pin_3-Pad3)*%
X-999998Y-7250002D03*
%TO.N,/phy/TIMEPIX_RX*%
X1000002Y-7250002D03*
%TO.N,unconnected-(J2-Pin_5-Pad5)*%
X-999998Y-9250002D03*
%TO.N,/phy/TIMEPIX_RTS*%
X1000002Y-9250002D03*
%TO.N,GND*%
X-999998Y-11250002D03*
%TO.N,/phy/TIMEPIX_CTS*%
X1000002Y-11250002D03*
%TD*%
D12*
%TO.N,GND*%
%TO.C,J9*%
X-2159000Y-23511000D03*
D13*
%TO.N,/phy/CMD_RX_RS232*%
X-2159000Y-25511000D03*
%TD*%
D10*
%TO.N,GND*%
%TO.C,J7*%
X15029993Y-3810000D03*
D11*
%TO.N,Net-(J7-Pin_2)*%
X15029993Y-6350000D03*
%TO.N,GND*%
X17569993Y-3810000D03*
%TO.N,Net-(J7-Pin_4)*%
X17569993Y-6350000D03*
%TO.N,GND*%
X20109993Y-3810000D03*
%TO.N,Net-(J7-Pin_6)*%
X20109993Y-6350000D03*
%TO.N,GND*%
X22649993Y-3810000D03*
%TO.N,Net-(J7-Pin_8)*%
X22649993Y-6350000D03*
%TO.N,GND*%
X25189993Y-3810000D03*
%TO.N,Net-(J7-Pin_10)*%
X25189993Y-6350000D03*
%TO.N,GND*%
X27729993Y-3810000D03*
%TO.N,Net-(J7-Pin_12)*%
X27729993Y-6350000D03*
%TO.N,GND*%
X30269993Y-3810000D03*
%TO.N,Net-(J7-Pin_14)*%
X30269993Y-6350000D03*
%TO.N,GND*%
X32809993Y-3810000D03*
%TO.N,Net-(J7-Pin_16)*%
X32809993Y-6350000D03*
%TO.N,+3V3*%
X35349993Y-3810000D03*
%TO.N,Net-(J7-Pin_18)*%
X35349993Y-6350000D03*
%TO.N,/config/SPI.SDI*%
X37889993Y-3810000D03*
%TO.N,/config/SPI.nCS3*%
X37889993Y-6350000D03*
%TO.N,/config/SPI.SDO*%
X40429993Y-3810000D03*
%TO.N,/config/SPI.SCK*%
X40429993Y-6350000D03*
%TD*%
D10*
%TO.N,/phy/JRX4_N*%
%TO.C,J4*%
X4869993Y-36830000D03*
D11*
%TO.N,/phy/JRX4_P*%
X4869993Y-39370000D03*
%TO.N,/phy/JTX4_N*%
X4869993Y-41910000D03*
%TO.N,/phy/JTX4_P*%
X4869993Y-44450000D03*
%TD*%
D10*
%TO.N,unconnected-(J1-Pin_1-Pad1)*%
%TO.C,J1*%
X4870000Y-1270000D03*
D11*
%TO.N,+5V*%
X4870000Y1270000D03*
%TO.N,unconnected-(J1-Pin_3-Pad3)*%
X7410000Y-1270000D03*
%TO.N,+5V*%
X7410000Y1270000D03*
%TO.N,unconnected-(J1-Pin_5-Pad5)*%
X9950000Y-1270000D03*
%TO.N,GND*%
X9950000Y1270000D03*
%TO.N,/phy/TIMEPIX_TX*%
X12490000Y-1270000D03*
%TO.N,unconnected-(J1-Pin_8-Pad8)*%
X12490000Y1270000D03*
%TO.N,GND*%
X15030000Y-1270000D03*
%TO.N,unconnected-(J1-Pin_10-Pad10)*%
X15030000Y1270000D03*
%TO.N,/phy/RTS0{slash}1*%
X17570000Y-1270000D03*
%TO.N,unconnected-(J1-Pin_12-Pad12)*%
X17570000Y1270000D03*
%TO.N,/phy/nCMD_INVALID*%
X20110000Y-1270000D03*
%TO.N,GND*%
X20110000Y1270000D03*
%TO.N,unconnected-(J1-Pin_15-Pad15)*%
X22650000Y-1270000D03*
%TO.N,unconnected-(J1-Pin_16-Pad16)*%
X22650000Y1270000D03*
%TO.N,unconnected-(J1-Pin_17-Pad17)*%
X25190000Y-1270000D03*
%TO.N,unconnected-(J1-Pin_18-Pad18)*%
X25190000Y1270000D03*
%TO.N,unconnected-(J1-Pin_19-Pad19)*%
X27730000Y-1270000D03*
%TO.N,GND*%
X27730000Y1270000D03*
%TO.N,unconnected-(J1-Pin_21-Pad21)*%
X30270000Y-1270000D03*
%TO.N,unconnected-(J1-Pin_22-Pad22)*%
X30270000Y1270000D03*
%TO.N,unconnected-(J1-Pin_23-Pad23)*%
X32810000Y-1270000D03*
%TO.N,unconnected-(J1-Pin_24-Pad24)*%
X32810000Y1270000D03*
%TO.N,GND*%
X35350000Y-1270000D03*
%TO.N,/phy/TIMEPIX_RTS*%
X35350000Y1270000D03*
%TO.N,unconnected-(J1-Pin_27-Pad27)*%
X37890000Y-1270000D03*
%TO.N,unconnected-(J1-Pin_28-Pad28)*%
X37890000Y1270000D03*
%TO.N,/phy/TIMEPIX_RX*%
X40430000Y-1270000D03*
%TO.N,GND*%
X40430000Y1270000D03*
%TO.N,/phy/TIMEPIX_CTS*%
X42970000Y-1270000D03*
%TO.N,/phy/CMD_TX*%
X42970000Y1270000D03*
%TO.N,/phy/CMD_RX*%
X45510000Y-1270000D03*
%TO.N,GND*%
X45510000Y1270000D03*
%TO.N,unconnected-(J1-Pin_35-Pad35)*%
X48050000Y-1270000D03*
%TO.N,/phy/CTS0{slash}1*%
X48050000Y1270000D03*
%TO.N,unconnected-(J1-Pin_37-Pad37)*%
X50590000Y-1270000D03*
%TO.N,unconnected-(J1-Pin_38-Pad38)*%
X50590000Y1270000D03*
%TO.N,GND*%
X53130000Y-1270000D03*
%TO.N,unconnected-(J1-Pin_40-Pad40)*%
X53130000Y1270000D03*
%TD*%
D10*
%TO.N,/phy/JRX5_N*%
%TO.C,J5*%
X53129993Y-16510000D03*
D11*
%TO.N,/phy/JRX5_P*%
X53129993Y-13970000D03*
%TO.N,/phy/JTX5_N*%
X53129993Y-11430000D03*
%TO.N,/phy/JTX5_P*%
X53129993Y-8890000D03*
%TD*%
D14*
%TO.N,GND*%
%TO.C,H1*%
X0Y0D03*
%TD*%
%TO.N,GND*%
%TO.C,H2*%
X58000000Y0D03*
%TD*%
D15*
%TO.N,GNDPWR*%
%TO.C,J3*%
X52575000Y-47220000D03*
X17925000Y-47220000D03*
D16*
X52575000Y-40460000D03*
X17925000Y-40460000D03*
D17*
%TO.N,Net-(J3-PadL1A)*%
X36265000Y-49450000D03*
%TO.N,Net-(J3-PadL1B)*%
X19195000Y-49450000D03*
%TO.N,+2V5*%
X36265000Y-51230000D03*
X19195000Y-51230000D03*
%TO.N,Net-(J3-PadL3A)*%
X51305000Y-49450000D03*
%TO.N,Net-(J3-PadL3B)*%
X34235000Y-49450000D03*
%TO.N,+2V5*%
X51305000Y-51230000D03*
X34235000Y-51230000D03*
D18*
%TO.N,/phy/TX2_P*%
X50770000Y-33750000D03*
%TO.N,/phy/TX3_P*%
X33700000Y-33750000D03*
%TO.N,/phy/TX2_N*%
X49500000Y-32480000D03*
%TO.N,/phy/TX3_N*%
X32430000Y-32480000D03*
%TO.N,Net-(C1-Pad2)*%
X48230000Y-33750000D03*
%TO.N,Net-(C2-Pad2)*%
X31160000Y-33750000D03*
%TO.N,/phy/RX2_P*%
X46960000Y-32480000D03*
%TO.N,/phy/RX3_P*%
X29890000Y-32480000D03*
%TO.N,/phy/RX2_N*%
X45690000Y-33750000D03*
%TO.N,/phy/RX3_N*%
X28620000Y-33750000D03*
%TO.N,Net-(C1-Pad2)*%
X44420000Y-32480000D03*
%TO.N,Net-(C2-Pad2)*%
X27350000Y-32480000D03*
%TO.N,Net-(J3-PadP7A)*%
X43150000Y-33750000D03*
%TO.N,Net-(J3-PadP7B)*%
X26080000Y-33750000D03*
%TO.N,Net-(J3-PadP7A)*%
X41880000Y-32480000D03*
%TO.N,Net-(J3-PadP7B)*%
X24810000Y-32480000D03*
%TO.N,Net-(C3-Pad2)*%
X40610000Y-33750000D03*
%TO.N,Net-(C4-Pad2)*%
X23540000Y-33750000D03*
%TO.N,Net-(J3-PadP10A)*%
X39340000Y-32480000D03*
%TO.N,Net-(J3-PadP10B)*%
X22270000Y-32480000D03*
%TO.N,Net-(J3-PadP10A)*%
X38070000Y-33750000D03*
%TO.N,Net-(J3-PadP10B)*%
X21000000Y-33750000D03*
%TO.N,Net-(C3-Pad2)*%
X36800000Y-32480000D03*
%TO.N,Net-(C4-Pad2)*%
X19730000Y-32480000D03*
%TD*%
D14*
%TO.N,GNDPWR*%
%TO.C,H3*%
X0Y-49000000D03*
%TD*%
%TO.N,GNDPWR*%
%TO.C,H4*%
X58000000Y-49000000D03*
%TD*%
D10*
%TO.N,/config/SYNC+*%
%TO.C,J8*%
X53061006Y-3829990D03*
D11*
%TO.N,/config/SYNC-*%
X53061006Y-6369990D03*
%TD*%
D19*
%TO.N,GND*%
X9652000Y-28448000D03*
X-2286000Y-14224000D03*
X1270000Y-32766000D03*
X508000Y-34290000D03*
X6604000Y-34290000D03*
X38354000Y-13462000D03*
X16002000Y-19558000D03*
X42926000Y-17526000D03*
X-1016000Y-34290000D03*
X40640000Y-19050000D03*
X8890000Y-22352000D03*
X43180000Y-27940000D03*
X9652000Y-29210000D03*
X48260000Y-31877000D03*
X40640000Y-17526000D03*
X-1524000Y-14224000D03*
D20*
X23114000Y-16510000D03*
D19*
X3810000Y-28702000D03*
X16002000Y-18796000D03*
X3810000Y-21844000D03*
X39116000Y-9271000D03*
D20*
X25146000Y-18542000D03*
X28194000Y-18542000D03*
X28194000Y-16510000D03*
D19*
X3048000Y-21844000D03*
X-2667000Y-22098000D03*
X8128000Y-24638000D03*
X16764000Y-19558000D03*
X16764000Y-20320000D03*
X15240000Y-18796000D03*
X6096000Y-26670000D03*
D20*
X25146000Y-16510000D03*
D19*
X5080000Y-9144000D03*
D20*
X26162000Y-19558000D03*
X23114000Y-20574000D03*
D19*
X-1905001Y-22098000D03*
X11430000Y-13335000D03*
X-2540000Y-33528000D03*
D20*
X26162000Y-16510000D03*
D19*
X12954000Y-11811000D03*
D20*
X25146000Y-20574000D03*
D19*
X42164000Y-7112000D03*
X35179000Y-20701000D03*
X-1524000Y-14986000D03*
D20*
X24130000Y-15494000D03*
X24130000Y-19558000D03*
D19*
X2794000Y-35052000D03*
D20*
X24130000Y-20574000D03*
D19*
X8890000Y-21590000D03*
X39116000Y-13462000D03*
X12192000Y-11049000D03*
X-2286000Y-13462000D03*
D20*
X27178000Y-15494000D03*
D19*
X10668000Y-11811000D03*
X35179000Y-22987000D03*
X10668000Y-11049000D03*
X508000Y-33528000D03*
X12954000Y-12573000D03*
X42164000Y-7874000D03*
X5080000Y-7620000D03*
D20*
X29210000Y-19558000D03*
X27178000Y-20574000D03*
D19*
X3810000Y-29464000D03*
X12192000Y-13335000D03*
D20*
X27178000Y-19558000D03*
D19*
X12192000Y-35052000D03*
X508000Y-32766000D03*
D20*
X29210000Y-15494000D03*
D19*
X25273000Y-9525000D03*
X5080000Y-6858000D03*
X508000Y-35052000D03*
X38481000Y-24257000D03*
X2286000Y-21844000D03*
X12192000Y-14097000D03*
X40640000Y-18288000D03*
X6604000Y-35052000D03*
X9652000Y-35052000D03*
X13716000Y-11811000D03*
X11430000Y-14097000D03*
D20*
X27178000Y-17526000D03*
D19*
X-1016000Y-33528000D03*
X11430000Y-12573000D03*
X39116000Y-11811000D03*
X-1016000Y-35052000D03*
D21*
X49784000Y-5080000D03*
D19*
X37592000Y-13462000D03*
D20*
X27178000Y-16510000D03*
D19*
X-1778000Y-34290000D03*
X39878000Y-18288000D03*
X42164000Y-18288000D03*
X9652000Y-35814000D03*
X12954000Y-35814000D03*
D20*
X26162000Y-15494000D03*
D19*
X38481000Y-26543000D03*
X39116000Y-12700000D03*
X11430000Y-11049000D03*
X14478000Y-20320000D03*
D20*
X28194000Y-17526000D03*
D19*
X35052000Y-26670000D03*
D20*
X25146000Y-15494000D03*
X28194000Y-15494000D03*
D19*
X7620000Y-15748000D03*
D20*
X27178000Y-21590000D03*
X29210000Y-18542000D03*
D19*
X41402000Y-17526000D03*
X-2540000Y-34290000D03*
X11430000Y-19431000D03*
X-1778000Y-33528000D03*
X15240000Y-19558000D03*
X12954000Y-14097000D03*
D20*
X25146000Y-19558000D03*
D19*
X4318000Y-35052000D03*
X2032000Y-33528000D03*
X12192000Y-12573000D03*
X13970000Y-41275000D03*
D20*
X26162000Y-21590000D03*
X23114000Y-21590000D03*
D19*
X2032000Y-35052000D03*
D20*
X28194000Y-20574000D03*
D19*
X8128000Y-35814000D03*
X21336000Y-9398000D03*
X13970000Y-42037000D03*
X1270000Y-33528000D03*
D20*
X28194000Y-21590000D03*
X26162000Y-18542000D03*
D19*
X7366000Y-35814000D03*
X-2286000Y-14986000D03*
X38481000Y-25781000D03*
X8890000Y-29210000D03*
D20*
X27178000Y-18542000D03*
D19*
X8890000Y-35814000D03*
X35179000Y-21463000D03*
X-2540000Y-35052000D03*
D20*
X24130000Y-18542000D03*
D19*
X2032000Y-32766000D03*
X40640000Y-16764000D03*
X3556000Y-34290000D03*
X16764000Y-18796000D03*
D20*
X23114000Y-18542000D03*
D19*
X-254000Y-34290000D03*
D20*
X29210000Y-21590000D03*
D19*
X8128000Y-26670000D03*
X8890000Y-28448000D03*
X35052000Y-8509000D03*
D20*
X29210000Y-20574000D03*
D19*
X14478000Y-18796000D03*
X43180000Y-31496000D03*
D21*
X50673000Y-5080000D03*
D19*
X42164000Y-26670000D03*
X12954000Y-35052000D03*
X3810000Y-27940000D03*
X9144000Y-19431000D03*
D20*
X23114000Y-19558000D03*
X23114000Y-17526000D03*
D19*
X9906000Y-19431000D03*
X8382000Y-15748000D03*
X16002000Y-20320000D03*
X5842000Y-35052000D03*
X35179000Y-22225000D03*
X-762000Y-14224000D03*
X5842000Y-34290000D03*
X23622000Y-31496000D03*
D20*
X24130000Y-17526000D03*
D19*
X5080000Y-35052000D03*
X13716000Y-12573000D03*
X7112000Y-24638000D03*
X7112000Y-25654000D03*
X-1778000Y-35052000D03*
X8128000Y-25654000D03*
X1270000Y-35052000D03*
X41402000Y-16764000D03*
X38354000Y-12700000D03*
X18288000Y-31496000D03*
X2032000Y-34290000D03*
X24511000Y-9525000D03*
X3810000Y-22606000D03*
X2286000Y-29464000D03*
X40640000Y-31496000D03*
X12192000Y-11811000D03*
D20*
X26162000Y-17526000D03*
D19*
X37211000Y-9271000D03*
X3810000Y-23368000D03*
D20*
X24130000Y-16510000D03*
X23114000Y-15494000D03*
D19*
X42926000Y-7112000D03*
X15240000Y-20320000D03*
X7620000Y-16510000D03*
X38481000Y-9906000D03*
X12954000Y-13335000D03*
D20*
X29210000Y-17526000D03*
D19*
X14478000Y-19558000D03*
X11430000Y-11811000D03*
X-254000Y-33528000D03*
X5080000Y-8382000D03*
X13716000Y-13335000D03*
X7112000Y-26670000D03*
X7366000Y-35052000D03*
X42926000Y-26670000D03*
X1270000Y-34290000D03*
X38354000Y-14224000D03*
X10668000Y-19431000D03*
X5080000Y-34290000D03*
X37592000Y-14986000D03*
X41402000Y-18288000D03*
X6096000Y-24638000D03*
X8890000Y-35052000D03*
X8128000Y-35052000D03*
D20*
X25146000Y-21590000D03*
D19*
X40640000Y-27940000D03*
X38481000Y-25019000D03*
X6096000Y-25654000D03*
X3556000Y-35052000D03*
X42164000Y-17526000D03*
D20*
X24130000Y-21590000D03*
X25146000Y-17526000D03*
D19*
X9652000Y-21590000D03*
X4318000Y-34290000D03*
X7366000Y-34290000D03*
X39878000Y-17526000D03*
X9652000Y-22352000D03*
D20*
X26162000Y-20574000D03*
D19*
X37592000Y-14224000D03*
X-254000Y-35052000D03*
X12954000Y-11049000D03*
X2540000Y-10922000D03*
X3048000Y-29464000D03*
X2794000Y-34290000D03*
D20*
X29210000Y-16510000D03*
X28194000Y-19558000D03*
D19*
%TO.N,+5V*%
X508000Y-25654000D03*
X1270000Y-25654000D03*
X7620000Y-13462000D03*
X8382000Y-13462000D03*
X1270000Y-26416000D03*
X9906000Y-13462000D03*
X9906000Y-12700000D03*
X-254000Y-24892000D03*
X1270000Y-24892000D03*
X9144000Y-13462000D03*
X7620000Y-14224000D03*
X9144000Y-14224000D03*
X-254000Y-25654000D03*
X8382000Y-14224000D03*
X-254000Y-26416000D03*
%TO.N,+1V2*%
X19685000Y-15494000D03*
X27178000Y-25019000D03*
X27575490Y-12074886D03*
X22148800Y-12059564D03*
X32639000Y-19939000D03*
X25146000Y-25019000D03*
X20447000Y-12065000D03*
X20955000Y-25019000D03*
X23622000Y-12065000D03*
X19685000Y-19558000D03*
X32512000Y-18669000D03*
X28194000Y-25019000D03*
X30226000Y-25019000D03*
X32639000Y-15494000D03*
X32639000Y-16764000D03*
X19685000Y-22606000D03*
X32639000Y-23114000D03*
X23241000Y-25019000D03*
X19685000Y-21590000D03*
X28321000Y-12065000D03*
%TO.N,+2V5*%
X19685000Y-17526000D03*
X24130000Y-25019000D03*
X32512000Y-17907000D03*
X26162000Y-12065000D03*
X22098000Y-9398000D03*
X32004000Y-24765000D03*
X19685000Y-24765000D03*
X19685000Y-16510000D03*
X32639000Y-22225000D03*
X29210000Y-25019000D03*
X34671000Y-35433000D03*
X19685000Y-20574000D03*
%TO.N,GNDPWR*%
X46990000Y-13335000D03*
X46482000Y-21844000D03*
X46482000Y-24384000D03*
X45593000Y-13970000D03*
X46990000Y-12573000D03*
X45593000Y-11430000D03*
X46482000Y-11430000D03*
X46990000Y-23749000D03*
X46482000Y-13970000D03*
X12700000Y-40386000D03*
X11303000Y-41021000D03*
X12700000Y-42926000D03*
X11938000Y-42926000D03*
X46990000Y-22987000D03*
X11303000Y-41783000D03*
X45593000Y-21844000D03*
X11938000Y-40386000D03*
X45593000Y-24384000D03*
%TO.N,+3V3*%
X11430000Y-9271000D03*
X9906000Y-9271000D03*
X762000Y-15748000D03*
X12192000Y-8509000D03*
X0Y-16510000D03*
D21*
X47879000Y-4064000D03*
D19*
X32639000Y-13462000D03*
D21*
X47879000Y-5842000D03*
D19*
X12192000Y-9271000D03*
X19685000Y-14478000D03*
X11430000Y-8509000D03*
X11430000Y-7747000D03*
X10668000Y-6985000D03*
X1524000Y-15748000D03*
X10668000Y-7747000D03*
X10668000Y-8509000D03*
X21209000Y-12065000D03*
X12192000Y-6985000D03*
X11430000Y-6223000D03*
D21*
X47879000Y-4953000D03*
D19*
X10668000Y-10033000D03*
X9906000Y-6985000D03*
X11430000Y-6985000D03*
X10668000Y-9271000D03*
X12192000Y-7747000D03*
X11430000Y-10033000D03*
X762000Y-16510000D03*
%TO.N,/config/nRST_SWITCH*%
X35814000Y-8255000D03*
X8382000Y-7366000D03*
D21*
%TO.N,/power/1V2_EN*%
X762000Y-30226000D03*
X7366000Y-28702000D03*
%TO.N,/power/2V5_EN*%
X7366000Y-22352000D03*
X2286000Y-20828000D03*
D19*
%TO.N,/config/LED3_0*%
X29083000Y-12065000D03*
X18796000Y-42164000D03*
%TO.N,/config/LED3_1*%
X28956000Y-8890000D03*
X34290000Y-44704000D03*
%TO.N,/config/SYNC*%
X43942000Y-5842000D03*
X35814000Y-9906000D03*
%TO.N,/config/LED2_0*%
X29972000Y-8890000D03*
X36068000Y-44704000D03*
%TO.N,/config/LED2_1*%
X52578000Y-42926000D03*
X30988000Y-8890000D03*
%TO.N,/config/SPI.nCS3*%
X37084000Y-11176000D03*
%TO.N,/config/LED5_1*%
X33147000Y-10795000D03*
X35306000Y-14224000D03*
%TO.N,/config/LED1_0*%
X33528000Y-10160000D03*
X35814000Y-14859000D03*
%TO.N,/config/LED1_1*%
X34544000Y-9271000D03*
X36322000Y-15494000D03*
%TO.N,Net-(J7-Pin_4)*%
X26924000Y-8890000D03*
%TO.N,Net-(J7-Pin_6)*%
X27940000Y-8890000D03*
%TO.N,Net-(J7-Pin_18)*%
X18796000Y-9398000D03*
%TO.N,Net-(U1C-ISET)*%
X34798000Y-25781000D03*
D21*
%TO.N,Net-(R9-Pad1)*%
X13970000Y-38862000D03*
%TO.N,Net-(R10-Pad1)*%
X43180000Y-16256000D03*
D19*
%TO.N,/phy/TIMEPIX_RTS*%
X4572000Y-4064000D03*
%TO.N,/phy/TIMEPIX_CTS*%
X5334000Y-4064000D03*
D21*
%TO.N,Net-(R14-Pad1)*%
X42926000Y-20828000D03*
%TO.N,Net-(R11-Pad1)*%
X42926000Y-25654000D03*
D19*
%TO.N,/phy/nCMD_INVALID*%
X-1786989Y-19814247D03*
D21*
%TO.N,Net-(R12-Pad1)*%
X14224000Y-43942000D03*
%TO.N,Net-(R13-Pad1)*%
X43180000Y-10668000D03*
D19*
%TO.N,/phy/CMD_RX*%
X8890000Y-5334000D03*
X-1016000Y-19939000D03*
%TO.N,/phy/CMD_RX_RS232*%
X127000Y-17653000D03*
%TD*%
D22*
%TO.N,+5V*%
X3302000Y-9144000D02*
X7620000Y-13462000D01*
X4870000Y1270000D02*
X3302000Y-298000D01*
X3302000Y-298000D02*
X3302000Y-9144000D01*
D23*
%TO.N,+2V5*%
X23368000Y-10668000D02*
X22098000Y-9398000D01*
X24765000Y-10668000D02*
X23368000Y-10668000D01*
X26162000Y-12065000D02*
X24765000Y-10668000D01*
D24*
%TO.N,/config/nRST_SWITCH*%
X36576000Y-5842000D02*
X35814000Y-5080000D01*
X35814000Y-5080000D02*
X10922000Y-5080000D01*
X36576000Y-7493000D02*
X36576000Y-5842000D01*
X35814000Y-8255000D02*
X36576000Y-7493000D01*
X10922000Y-5080000D02*
X8636000Y-7366000D01*
X8636000Y-7366000D02*
X8382000Y-7366000D01*
D23*
%TO.N,/config/LED3_0*%
X33274000Y-13335000D02*
X33274000Y-15494000D01*
X34798000Y-31242000D02*
X34798000Y-34290000D01*
X32639000Y-12700000D02*
X33274000Y-13335000D01*
X34798000Y-34290000D02*
X34036000Y-35052000D01*
X29083000Y-12065000D02*
X29718000Y-12700000D01*
X20574000Y-35052000D02*
X19685000Y-35941000D01*
X29718000Y-12700000D02*
X32639000Y-12700000D01*
X34036000Y-35052000D02*
X20574000Y-35052000D01*
X39624000Y-26416000D02*
X34798000Y-31242000D01*
X33274000Y-15494000D02*
X39624000Y-21844000D01*
X19685000Y-41275000D02*
X18796000Y-42164000D01*
X39624000Y-21844000D02*
X39624000Y-26416000D01*
X19685000Y-35941000D02*
X19685000Y-41275000D01*
%TO.N,/config/LED3_1*%
X40132000Y-21590000D02*
X33782000Y-15240000D01*
X34290000Y-43942000D02*
X35306000Y-42926000D01*
X40132000Y-26670000D02*
X40132000Y-21590000D01*
X34290000Y-44704000D02*
X34290000Y-43942000D01*
X33782000Y-15240000D02*
X33782000Y-12954000D01*
X32258000Y-12192000D02*
X28956000Y-8890000D01*
X35306000Y-31496000D02*
X40132000Y-26670000D01*
X33782000Y-12954000D02*
X33020000Y-12192000D01*
X35306000Y-42926000D02*
X35306000Y-31496000D01*
X33020000Y-12192000D02*
X32258000Y-12192000D01*
%TO.N,/config/SYNC*%
X37846000Y-7874000D02*
X40640000Y-7874000D01*
X42672000Y-5842000D02*
X43942000Y-5842000D01*
X35814000Y-9906000D02*
X37846000Y-7874000D01*
X40640000Y-7874000D02*
X42672000Y-5842000D01*
%TO.N,/config/LED2_0*%
X32766000Y-11684000D02*
X29972000Y-8890000D01*
X35814000Y-31750000D02*
X40640000Y-26924000D01*
X34290000Y-14986000D02*
X34290000Y-12446000D01*
X40640000Y-21336000D02*
X34290000Y-14986000D01*
X36068000Y-43942000D02*
X35814000Y-43688000D01*
X33528000Y-11684000D02*
X32766000Y-11684000D01*
X36068000Y-44704000D02*
X36068000Y-43942000D01*
X34290000Y-12446000D02*
X33528000Y-11684000D01*
X40640000Y-26924000D02*
X40640000Y-21336000D01*
X35814000Y-43688000D02*
X35814000Y-31750000D01*
%TO.N,/config/LED2_1*%
X52578000Y-42926000D02*
X54356000Y-41148000D01*
X34798000Y-10414000D02*
X33274000Y-8890000D01*
X52387500Y-31686500D02*
X51308000Y-30607000D01*
X41148000Y-26860500D02*
X41148000Y-21082000D01*
X33274000Y-8890000D02*
X30988000Y-8890000D01*
X54356000Y-39624000D02*
X52387500Y-37655500D01*
X54356000Y-41148000D02*
X54356000Y-39624000D01*
X41148000Y-21082000D02*
X34798000Y-14732000D01*
X44894500Y-30607000D02*
X41148000Y-26860500D01*
X51308000Y-30607000D02*
X44894500Y-30607000D01*
X34798000Y-14732000D02*
X34798000Y-10414000D01*
X52387500Y-37655500D02*
X52387500Y-31686500D01*
%TO.N,/phy/TIMEPIX_RTS*%
X13716000Y-1016000D02*
X14732000Y0D01*
X14732000Y0D02*
X34080000Y0D01*
X5588000Y-3048000D02*
X12700000Y-3048000D01*
X34080000Y0D02*
X35350000Y1270000D01*
X4572000Y-4064000D02*
X5588000Y-3048000D01*
X13716000Y-2032000D02*
X13716000Y-1016000D01*
X12700000Y-3048000D02*
X13716000Y-2032000D01*
%TD*%
%TA.AperFunction,Conductor*%
%TO.N,GND*%
G36*
X57222359Y3078580D02*
G01*
X57267547Y3038367D01*
X57288786Y2981728D01*
X57281181Y2921718D01*
X57246486Y2872167D01*
X57192696Y2844496D01*
X57151344Y2834696D01*
X56828001Y2717009D01*
X56520490Y2562571D01*
X56233008Y2373491D01*
X56098545Y2260665D01*
X57999999Y359210D01*
X58000001Y359210D01*
X59901453Y2260664D01*
X59901453Y2260665D01*
X59766997Y2373486D01*
X59479503Y2562574D01*
X59171998Y2717009D01*
X58958610Y2794676D01*
X58907667Y2829215D01*
X58879162Y2883765D01*
X58879897Y2945309D01*
X58909698Y2999162D01*
X58961452Y3032474D01*
X59022807Y3037297D01*
X59070051Y3029270D01*
X59083809Y3026130D01*
X59349651Y2949542D01*
X59362982Y2944877D01*
X59618577Y2839006D01*
X59631287Y2832885D01*
X59873417Y2699065D01*
X59885376Y2691550D01*
X60111006Y2531456D01*
X60122052Y2522647D01*
X60328322Y2338315D01*
X60338314Y2328323D01*
X60522646Y2122053D01*
X60531455Y2111007D01*
X60691549Y1885377D01*
X60699067Y1873413D01*
X60811100Y1670703D01*
X60832877Y1631302D01*
X60839008Y1618571D01*
X60944875Y1362986D01*
X60949542Y1349649D01*
X61026127Y1083818D01*
X61029271Y1070043D01*
X61034541Y1039027D01*
X61029322Y976512D01*
X60994606Y924262D01*
X60938997Y895227D01*
X60876279Y896607D01*
X60822000Y928057D01*
X60789614Y981784D01*
X60780554Y1012045D01*
X60644263Y1327999D01*
X60472215Y1625996D01*
X60266724Y1902019D01*
X60264057Y1904847D01*
X60264054Y1904847D01*
X58359210Y1D01*
X58359210Y-1D01*
X60264054Y-1904845D01*
X60264056Y-1904845D01*
X60266728Y-1902013D01*
X60472215Y-1625995D01*
X60644263Y-1327998D01*
X60780554Y-1012044D01*
X60846393Y-792129D01*
X60884991Y-732693D01*
X60949564Y-703492D01*
X61019685Y-713763D01*
X61073170Y-760257D01*
X61093100Y-828266D01*
X61093100Y-7494000D01*
X61076219Y-7557000D01*
X61030100Y-7603119D01*
X60967100Y-7620000D01*
X53565910Y-7620000D01*
X53499579Y-7601127D01*
X53453119Y-7550163D01*
X53440448Y-7482374D01*
X53465360Y-7418068D01*
X53520393Y-7376508D01*
X53555433Y-7362934D01*
X53729468Y-7255176D01*
X53880738Y-7117275D01*
X54004094Y-6953925D01*
X54095334Y-6770691D01*
X54151351Y-6573811D01*
X54170238Y-6369990D01*
X54151351Y-6166169D01*
X54095334Y-5969289D01*
X54085379Y-5949297D01*
X54004095Y-5786056D01*
X53937045Y-5697268D01*
X53880738Y-5622705D01*
X53729468Y-5484804D01*
X53679314Y-5453750D01*
X53555434Y-5377046D01*
X53410235Y-5320796D01*
X53364562Y-5303102D01*
X53163353Y-5265490D01*
X52958659Y-5265490D01*
X52757450Y-5303101D01*
X52757450Y-5303102D01*
X52566577Y-5377046D01*
X52392545Y-5484803D01*
X52241273Y-5622706D01*
X52117916Y-5786056D01*
X52026678Y-5969287D01*
X51970660Y-6166170D01*
X51951773Y-6369990D01*
X51970660Y-6573809D01*
X52026678Y-6770692D01*
X52117916Y-6953923D01*
X52178320Y-7033911D01*
X52241274Y-7117275D01*
X52392544Y-7255176D01*
X52566579Y-7362934D01*
X52601618Y-7376508D01*
X52656652Y-7418068D01*
X52681564Y-7482374D01*
X52668893Y-7550163D01*
X52622433Y-7601127D01*
X52556102Y-7620000D01*
X45719998Y-7620000D01*
X44704000Y-8635998D01*
X44704000Y-27178001D01*
X47497998Y-29971999D01*
X47498000Y-29972000D01*
X50747810Y-29972000D01*
X50796028Y-29981591D01*
X50836905Y-30008905D01*
X50863805Y-30035805D01*
X50894543Y-30085964D01*
X50899159Y-30144611D01*
X50876646Y-30198961D01*
X50831913Y-30237167D01*
X50774710Y-30250900D01*
X45094191Y-30250900D01*
X45045973Y-30241309D01*
X45005096Y-30213995D01*
X41541005Y-26749904D01*
X41513691Y-26709027D01*
X41504100Y-26660809D01*
X41504100Y-25654000D01*
X42336255Y-25654000D01*
X42356349Y-25806636D01*
X42415266Y-25948874D01*
X42508986Y-26071013D01*
X42631125Y-26164733D01*
X42631126Y-26164733D01*
X42631127Y-26164734D01*
X42773363Y-26223650D01*
X42926000Y-26243745D01*
X43078637Y-26223650D01*
X43220873Y-26164734D01*
X43343013Y-26071013D01*
X43436734Y-25948873D01*
X43495650Y-25806637D01*
X43515745Y-25654000D01*
X43495650Y-25501363D01*
X43436734Y-25359128D01*
X43343013Y-25236987D01*
X43343011Y-25236985D01*
X43343010Y-25236984D01*
X43220874Y-25143266D01*
X43078636Y-25084349D01*
X42926000Y-25064255D01*
X42773364Y-25084349D01*
X42631128Y-25143266D01*
X42508987Y-25236987D01*
X42415266Y-25359128D01*
X42356349Y-25501364D01*
X42336255Y-25654000D01*
X41504100Y-25654000D01*
X41504100Y-21132000D01*
X41506782Y-21106143D01*
X41508716Y-21096918D01*
X41505068Y-21067654D01*
X41504142Y-21052744D01*
X41500881Y-21033201D01*
X41500131Y-21028049D01*
X41493076Y-20971453D01*
X41465926Y-20921285D01*
X41463542Y-20916652D01*
X41438484Y-20865395D01*
X41397861Y-20828000D01*
X42336255Y-20828000D01*
X42356349Y-20980636D01*
X42415266Y-21122874D01*
X42508986Y-21245013D01*
X42631125Y-21338733D01*
X42631126Y-21338733D01*
X42631127Y-21338734D01*
X42773363Y-21397650D01*
X42926000Y-21417745D01*
X43078637Y-21397650D01*
X43220873Y-21338734D01*
X43343013Y-21245013D01*
X43436734Y-21122873D01*
X43495650Y-20980637D01*
X43515745Y-20828000D01*
X43495650Y-20675363D01*
X43436734Y-20533128D01*
X43343013Y-20410987D01*
X43343011Y-20410985D01*
X43343010Y-20410984D01*
X43220874Y-20317266D01*
X43078636Y-20258349D01*
X42926000Y-20238255D01*
X42773364Y-20258349D01*
X42631128Y-20317266D01*
X42508987Y-20410987D01*
X42415266Y-20533128D01*
X42356349Y-20675364D01*
X42336255Y-20828000D01*
X41397861Y-20828000D01*
X41396485Y-20826733D01*
X41392727Y-20823126D01*
X36825600Y-16255999D01*
X42590255Y-16255999D01*
X42610349Y-16408636D01*
X42669266Y-16550874D01*
X42762986Y-16673013D01*
X42885125Y-16766733D01*
X42885126Y-16766733D01*
X42885127Y-16766734D01*
X43027363Y-16825650D01*
X43180000Y-16845745D01*
X43332637Y-16825650D01*
X43474873Y-16766734D01*
X43597013Y-16673013D01*
X43690734Y-16550873D01*
X43749650Y-16408637D01*
X43769745Y-16256000D01*
X43749650Y-16103363D01*
X43690734Y-15961128D01*
X43597013Y-15838987D01*
X43597011Y-15838985D01*
X43597010Y-15838984D01*
X43474874Y-15745266D01*
X43332636Y-15686349D01*
X43180000Y-15666255D01*
X43027364Y-15686349D01*
X42885128Y-15745266D01*
X42762987Y-15838987D01*
X42669266Y-15961128D01*
X42610349Y-16103364D01*
X42590255Y-16255999D01*
X36825600Y-16255999D01*
X36643228Y-16073627D01*
X36613499Y-16026448D01*
X36607045Y-15971059D01*
X36625130Y-15918308D01*
X36646851Y-15896197D01*
X36646557Y-15895942D01*
X36667036Y-15872308D01*
X36754176Y-15771743D01*
X36814919Y-15638734D01*
X36835729Y-15494000D01*
X36814919Y-15349266D01*
X36754176Y-15216257D01*
X36732938Y-15191747D01*
X36658421Y-15105749D01*
X36583535Y-15057624D01*
X36535411Y-15026696D01*
X36473024Y-15008377D01*
X36417763Y-14992151D01*
X36366309Y-14962443D01*
X36334190Y-14912459D01*
X36330793Y-14876862D01*
X36330308Y-14876932D01*
X36309395Y-14731486D01*
X36306919Y-14714266D01*
X36246176Y-14581257D01*
X36169534Y-14492807D01*
X36150421Y-14470749D01*
X36075535Y-14422624D01*
X36027411Y-14391696D01*
X35955126Y-14370471D01*
X35909763Y-14357151D01*
X35858309Y-14327443D01*
X35826190Y-14277459D01*
X35822793Y-14241862D01*
X35822308Y-14241932D01*
X35798919Y-14079268D01*
X35798919Y-14079266D01*
X35738176Y-13946257D01*
X35723486Y-13929304D01*
X35642421Y-13835749D01*
X35519410Y-13756695D01*
X35379112Y-13715500D01*
X35379111Y-13715500D01*
X35280100Y-13715500D01*
X35217100Y-13698619D01*
X35170981Y-13652500D01*
X35154100Y-13589500D01*
X35154100Y-11176000D01*
X36570270Y-11176000D01*
X36591080Y-11320731D01*
X36591080Y-11320732D01*
X36591081Y-11320734D01*
X36634845Y-11416564D01*
X36651824Y-11453743D01*
X36747578Y-11564250D01*
X36870589Y-11643304D01*
X37010888Y-11684500D01*
X37010889Y-11684500D01*
X37157111Y-11684500D01*
X37157112Y-11684500D01*
X37227260Y-11663902D01*
X37297411Y-11643304D01*
X37420421Y-11564250D01*
X37516176Y-11453743D01*
X37576919Y-11320734D01*
X37597729Y-11176000D01*
X37576919Y-11031266D01*
X37516176Y-10898257D01*
X37491744Y-10870061D01*
X37420421Y-10787749D01*
X37297410Y-10708695D01*
X37158811Y-10667999D01*
X42590255Y-10667999D01*
X42610349Y-10820636D01*
X42669266Y-10962874D01*
X42762986Y-11085013D01*
X42885125Y-11178733D01*
X42885126Y-11178733D01*
X42885127Y-11178734D01*
X43027363Y-11237650D01*
X43180000Y-11257745D01*
X43332637Y-11237650D01*
X43474873Y-11178734D01*
X43597013Y-11085013D01*
X43690734Y-10962873D01*
X43749650Y-10820637D01*
X43769745Y-10668000D01*
X43749650Y-10515363D01*
X43690734Y-10373128D01*
X43597013Y-10250987D01*
X43597011Y-10250985D01*
X43597010Y-10250984D01*
X43474874Y-10157266D01*
X43332636Y-10098349D01*
X43180000Y-10078255D01*
X43027364Y-10098349D01*
X42885128Y-10157266D01*
X42762987Y-10250987D01*
X42669266Y-10373128D01*
X42610349Y-10515364D01*
X42590255Y-10667999D01*
X37158811Y-10667999D01*
X37157112Y-10667500D01*
X37157111Y-10667500D01*
X37010889Y-10667500D01*
X37010888Y-10667500D01*
X36870589Y-10708695D01*
X36747578Y-10787749D01*
X36651824Y-10898256D01*
X36591080Y-11031268D01*
X36570270Y-11176000D01*
X35154100Y-11176000D01*
X35154100Y-10463999D01*
X35156781Y-10438144D01*
X35158715Y-10428918D01*
X35155068Y-10399661D01*
X35154141Y-10384745D01*
X35154100Y-10384499D01*
X35154100Y-10384492D01*
X35150874Y-10365163D01*
X35150137Y-10360106D01*
X35144015Y-10310986D01*
X35144014Y-10310984D01*
X35143075Y-10303450D01*
X35115919Y-10253270D01*
X35113535Y-10248639D01*
X35088483Y-10197394D01*
X35046511Y-10158757D01*
X35042753Y-10155151D01*
X34920601Y-10032999D01*
X34787914Y-9900313D01*
X34758187Y-9853136D01*
X34751732Y-9797749D01*
X34769813Y-9744999D01*
X34808889Y-9705220D01*
X34844355Y-9682428D01*
X34880420Y-9659251D01*
X34887136Y-9651500D01*
X34976176Y-9548743D01*
X35036919Y-9415734D01*
X35057729Y-9271000D01*
X35036919Y-9126266D01*
X34976176Y-8993257D01*
X34958201Y-8972513D01*
X34880421Y-8882749D01*
X34757410Y-8803695D01*
X34617112Y-8762500D01*
X34617111Y-8762500D01*
X34470889Y-8762500D01*
X34470888Y-8762500D01*
X34330589Y-8803695D01*
X34207578Y-8882749D01*
X34099961Y-9006948D01*
X34099278Y-9006356D01*
X34077482Y-9033902D01*
X34022557Y-9058394D01*
X33962535Y-9054639D01*
X33911092Y-9023491D01*
X33561158Y-8673557D01*
X33544770Y-8653377D01*
X33539614Y-8645485D01*
X33516331Y-8627363D01*
X33505149Y-8617487D01*
X33489023Y-8605973D01*
X33484890Y-8602892D01*
X33445828Y-8572489D01*
X33445825Y-8572488D01*
X33439833Y-8567824D01*
X33385137Y-8551539D01*
X33380181Y-8549951D01*
X33326242Y-8531434D01*
X33269244Y-8533792D01*
X33264036Y-8533900D01*
X31409822Y-8533900D01*
X31357483Y-8522515D01*
X31340689Y-8509944D01*
X31339661Y-8511544D01*
X31201410Y-8422695D01*
X31061112Y-8381500D01*
X31061111Y-8381500D01*
X30914889Y-8381500D01*
X30914888Y-8381500D01*
X30774589Y-8422695D01*
X30651576Y-8501751D01*
X30575224Y-8589867D01*
X30532342Y-8621969D01*
X30480000Y-8633355D01*
X30427658Y-8621969D01*
X30384776Y-8589867D01*
X30308423Y-8501751D01*
X30185410Y-8422695D01*
X30045112Y-8381500D01*
X30045111Y-8381500D01*
X29898889Y-8381500D01*
X29898888Y-8381500D01*
X29758589Y-8422695D01*
X29635576Y-8501751D01*
X29559224Y-8589867D01*
X29516342Y-8621969D01*
X29464000Y-8633355D01*
X29411658Y-8621969D01*
X29368776Y-8589867D01*
X29292423Y-8501751D01*
X29169410Y-8422695D01*
X29029112Y-8381500D01*
X29029111Y-8381500D01*
X28882889Y-8381500D01*
X28882888Y-8381500D01*
X28742589Y-8422695D01*
X28619576Y-8501751D01*
X28543224Y-8589867D01*
X28500342Y-8621969D01*
X28448000Y-8633355D01*
X28395658Y-8621969D01*
X28352776Y-8589867D01*
X28276423Y-8501751D01*
X28153410Y-8422695D01*
X28013112Y-8381500D01*
X28013111Y-8381500D01*
X27866889Y-8381500D01*
X27866888Y-8381500D01*
X27726589Y-8422695D01*
X27603576Y-8501751D01*
X27527224Y-8589867D01*
X27484342Y-8621969D01*
X27432000Y-8633355D01*
X27379658Y-8621969D01*
X27336776Y-8589867D01*
X27260423Y-8501751D01*
X27137410Y-8422695D01*
X26997112Y-8381500D01*
X26997111Y-8381500D01*
X26850889Y-8381500D01*
X26850888Y-8381500D01*
X26710589Y-8422695D01*
X26587578Y-8501749D01*
X26491824Y-8612256D01*
X26431080Y-8745268D01*
X26410270Y-8889999D01*
X26431080Y-9034731D01*
X26431080Y-9034732D01*
X26431081Y-9034734D01*
X26470138Y-9120257D01*
X26491824Y-9167743D01*
X26587578Y-9278250D01*
X26710589Y-9357304D01*
X26850888Y-9398500D01*
X26850889Y-9398500D01*
X26997111Y-9398500D01*
X26997112Y-9398500D01*
X27099894Y-9368320D01*
X27137411Y-9357304D01*
X27260421Y-9278250D01*
X27336777Y-9190130D01*
X27379657Y-9158030D01*
X27432000Y-9146644D01*
X27484343Y-9158030D01*
X27527222Y-9190130D01*
X27596478Y-9270055D01*
X27603579Y-9278250D01*
X27726589Y-9357304D01*
X27866888Y-9398500D01*
X27866889Y-9398500D01*
X28013111Y-9398500D01*
X28013112Y-9398500D01*
X28115894Y-9368320D01*
X28153411Y-9357304D01*
X28276421Y-9278250D01*
X28352777Y-9190130D01*
X28395657Y-9158030D01*
X28448000Y-9146644D01*
X28500343Y-9158030D01*
X28543222Y-9190130D01*
X28612478Y-9270055D01*
X28619579Y-9278250D01*
X28742589Y-9357304D01*
X28882888Y-9398500D01*
X28882889Y-9398500D01*
X28908709Y-9398500D01*
X28956927Y-9408091D01*
X28997804Y-9435405D01*
X31691203Y-12128805D01*
X31721941Y-12178964D01*
X31726557Y-12237611D01*
X31704044Y-12291961D01*
X31659311Y-12330167D01*
X31602108Y-12343900D01*
X29917691Y-12343900D01*
X29869473Y-12334309D01*
X29828596Y-12306995D01*
X29628084Y-12106483D01*
X29604507Y-12073788D01*
X29592462Y-12035320D01*
X29575919Y-11920268D01*
X29575919Y-11920266D01*
X29515176Y-11787257D01*
X29502392Y-11772504D01*
X29419421Y-11676749D01*
X29296410Y-11597695D01*
X29156112Y-11556500D01*
X29156111Y-11556500D01*
X29009889Y-11556500D01*
X29009887Y-11556500D01*
X29004802Y-11557993D01*
X28933835Y-11558000D01*
X28888847Y-11529109D01*
X28886430Y-11531900D01*
X28879620Y-11525999D01*
X28879619Y-11525998D01*
X28823800Y-11477632D01*
X28815764Y-11473962D01*
X28756619Y-11446951D01*
X28747669Y-11444323D01*
X28715960Y-11435012D01*
X28715959Y-11435011D01*
X28715953Y-11435010D01*
X28642852Y-11424500D01*
X28642849Y-11424500D01*
X26602151Y-11424500D01*
X26602148Y-11424500D01*
X26529046Y-11435010D01*
X26488380Y-11446951D01*
X26421201Y-11477631D01*
X26421199Y-11477632D01*
X26421200Y-11477632D01*
X26390767Y-11504002D01*
X26358570Y-11531900D01*
X26356171Y-11529132D01*
X26311082Y-11558024D01*
X26240195Y-11557993D01*
X26235111Y-11556500D01*
X26235110Y-11556500D01*
X26209292Y-11556500D01*
X26161074Y-11546909D01*
X26120197Y-11519595D01*
X25052158Y-10451557D01*
X25035770Y-10431377D01*
X25030614Y-10423485D01*
X25007331Y-10405363D01*
X24996149Y-10395487D01*
X24991117Y-10391894D01*
X24980013Y-10383965D01*
X24975890Y-10380892D01*
X24936828Y-10350489D01*
X24936825Y-10350488D01*
X24930833Y-10345824D01*
X24876137Y-10329539D01*
X24871181Y-10327951D01*
X24817242Y-10309434D01*
X24760244Y-10311792D01*
X24755036Y-10311900D01*
X23567691Y-10311900D01*
X23519473Y-10302309D01*
X23478596Y-10274995D01*
X22643084Y-9439483D01*
X22619507Y-9406788D01*
X22607462Y-9368320D01*
X22593103Y-9268456D01*
X22590919Y-9253266D01*
X22530176Y-9120257D01*
X22517392Y-9105503D01*
X22434421Y-9009749D01*
X22311410Y-8930695D01*
X22171112Y-8889500D01*
X22171111Y-8889500D01*
X22024889Y-8889500D01*
X22024888Y-8889500D01*
X21884589Y-8930695D01*
X21761578Y-9009749D01*
X21665824Y-9120256D01*
X21605080Y-9253268D01*
X21584270Y-9398000D01*
X21605080Y-9542731D01*
X21605080Y-9542732D01*
X21605081Y-9542734D01*
X21644138Y-9628257D01*
X21665824Y-9675743D01*
X21761578Y-9786250D01*
X21884589Y-9865304D01*
X22024888Y-9906500D01*
X22024889Y-9906500D01*
X22050709Y-9906500D01*
X22098927Y-9916091D01*
X22139801Y-9943402D01*
X23080846Y-10884448D01*
X23097228Y-10904622D01*
X23102383Y-10912513D01*
X23102386Y-10912515D01*
X23125661Y-10930631D01*
X23136859Y-10940520D01*
X23152977Y-10952028D01*
X23157146Y-10955136D01*
X23196172Y-10985511D01*
X23196175Y-10985512D01*
X23202165Y-10990174D01*
X23209435Y-10992338D01*
X23209439Y-10992341D01*
X23256908Y-11006472D01*
X23261773Y-11008031D01*
X23308577Y-11024100D01*
X23308579Y-11024100D01*
X23315759Y-11026565D01*
X23323342Y-11026251D01*
X23323344Y-11026252D01*
X23372756Y-11024207D01*
X23377964Y-11024100D01*
X24565309Y-11024100D01*
X24613527Y-11033691D01*
X24654404Y-11061005D01*
X24802804Y-11209405D01*
X24833542Y-11259564D01*
X24838158Y-11318211D01*
X24815645Y-11372561D01*
X24770912Y-11410767D01*
X24713709Y-11424500D01*
X21649148Y-11424500D01*
X21576046Y-11435010D01*
X21535380Y-11446951D01*
X21468201Y-11477631D01*
X21468199Y-11477632D01*
X21468200Y-11477632D01*
X21437767Y-11504002D01*
X21405570Y-11531900D01*
X21403171Y-11529132D01*
X21358082Y-11558024D01*
X21287195Y-11557993D01*
X21282111Y-11556500D01*
X21135889Y-11556500D01*
X21135887Y-11556500D01*
X21130802Y-11557993D01*
X21059835Y-11558000D01*
X21014847Y-11529109D01*
X21012430Y-11531900D01*
X21005620Y-11525999D01*
X21005619Y-11525998D01*
X20949800Y-11477632D01*
X20941764Y-11473962D01*
X20882619Y-11446951D01*
X20873669Y-11444323D01*
X20841960Y-11435012D01*
X20841959Y-11435011D01*
X20841953Y-11435010D01*
X20768852Y-11424500D01*
X20768849Y-11424500D01*
X20351148Y-11424500D01*
X20351144Y-11424500D01*
X20300528Y-11429484D01*
X20271750Y-11435209D01*
X20223058Y-11449978D01*
X20178196Y-11473960D01*
X20153796Y-11490264D01*
X20114475Y-11522535D01*
X19142535Y-12494475D01*
X19110264Y-12533796D01*
X19093960Y-12558196D01*
X19069978Y-12603058D01*
X19055209Y-12651750D01*
X19049484Y-12680528D01*
X19044500Y-12731144D01*
X19044500Y-14041069D01*
X19053746Y-14109721D01*
X19064272Y-14148088D01*
X19064273Y-14148092D01*
X19064274Y-14148093D01*
X19091353Y-14211853D01*
X19115097Y-14241862D01*
X19134335Y-14266176D01*
X19147113Y-14278506D01*
X19178813Y-14328321D01*
X19184339Y-14387108D01*
X19171271Y-14477999D01*
X19184339Y-14568891D01*
X19178814Y-14627676D01*
X19147115Y-14677490D01*
X19134340Y-14689817D01*
X19091353Y-14744147D01*
X19064272Y-14807911D01*
X19053746Y-14846278D01*
X19044500Y-14914931D01*
X19044500Y-16073069D01*
X19053746Y-16141721D01*
X19064272Y-16180088D01*
X19064273Y-16180092D01*
X19064274Y-16180093D01*
X19091353Y-16243853D01*
X19125361Y-16286835D01*
X19134335Y-16298176D01*
X19147113Y-16310506D01*
X19178813Y-16360321D01*
X19184339Y-16419108D01*
X19171271Y-16509999D01*
X19184339Y-16600891D01*
X19178814Y-16659676D01*
X19147115Y-16709490D01*
X19134340Y-16721817D01*
X19091353Y-16776147D01*
X19064272Y-16839911D01*
X19053746Y-16878278D01*
X19044500Y-16946931D01*
X19044500Y-17089069D01*
X19053746Y-17157721D01*
X19064272Y-17196088D01*
X19064273Y-17196092D01*
X19064274Y-17196093D01*
X19091353Y-17259853D01*
X19095228Y-17264750D01*
X19134335Y-17314176D01*
X19147113Y-17326506D01*
X19178813Y-17376321D01*
X19184339Y-17435108D01*
X19171271Y-17525999D01*
X19184339Y-17616891D01*
X19178814Y-17675676D01*
X19147115Y-17725490D01*
X19134340Y-17737817D01*
X19091353Y-17792147D01*
X19064272Y-17855911D01*
X19053746Y-17894278D01*
X19044500Y-17962931D01*
X19044500Y-20137069D01*
X19053746Y-20205721D01*
X19064272Y-20244088D01*
X19064273Y-20244092D01*
X19064274Y-20244093D01*
X19091353Y-20307853D01*
X19103138Y-20322747D01*
X19134335Y-20362176D01*
X19147113Y-20374506D01*
X19178813Y-20424321D01*
X19184339Y-20483108D01*
X19171271Y-20573999D01*
X19184339Y-20664891D01*
X19178814Y-20723676D01*
X19147115Y-20773490D01*
X19134340Y-20785817D01*
X19091353Y-20840147D01*
X19064272Y-20903911D01*
X19053746Y-20942278D01*
X19044500Y-21010931D01*
X19044500Y-24328069D01*
X19053746Y-24396721D01*
X19064272Y-24435088D01*
X19064273Y-24435092D01*
X19064274Y-24435093D01*
X19091353Y-24498853D01*
X19112677Y-24525803D01*
X19134335Y-24553176D01*
X19147113Y-24565506D01*
X19178813Y-24615321D01*
X19184339Y-24674108D01*
X19171270Y-24765002D01*
X19192080Y-24909731D01*
X19192080Y-24909732D01*
X19192081Y-24909734D01*
X19230181Y-24993161D01*
X19252824Y-25042743D01*
X19348578Y-25153250D01*
X19471589Y-25232304D01*
X19611888Y-25273500D01*
X19775771Y-25273500D01*
X19831162Y-25286329D01*
X19869391Y-25317417D01*
X19869911Y-25316898D01*
X19874953Y-25321940D01*
X19875272Y-25322199D01*
X19875483Y-25322471D01*
X20114480Y-25561468D01*
X20153797Y-25593736D01*
X20178193Y-25610038D01*
X20200626Y-25622029D01*
X20223058Y-25634021D01*
X20223060Y-25634021D01*
X20223061Y-25634022D01*
X20271747Y-25648790D01*
X20288922Y-25652206D01*
X20300528Y-25654515D01*
X20351144Y-25659500D01*
X20351148Y-25659500D01*
X23689849Y-25659500D01*
X23689852Y-25659500D01*
X23762953Y-25648989D01*
X23762952Y-25648989D01*
X23762960Y-25648988D01*
X23803616Y-25637050D01*
X23870800Y-25606368D01*
X23926619Y-25558002D01*
X23926620Y-25557999D01*
X23933430Y-25552100D01*
X23934764Y-25553639D01*
X23958517Y-25534937D01*
X24004301Y-25521476D01*
X24051803Y-25526006D01*
X24056889Y-25527500D01*
X24203109Y-25527500D01*
X24203111Y-25527500D01*
X24208192Y-25526007D01*
X24279150Y-25525995D01*
X24324154Y-25554887D01*
X24326570Y-25552100D01*
X24333379Y-25558000D01*
X24333381Y-25558002D01*
X24389200Y-25606368D01*
X24456384Y-25637050D01*
X24497040Y-25648988D01*
X24497045Y-25648988D01*
X24497046Y-25648989D01*
X24570148Y-25659500D01*
X24570151Y-25659500D01*
X28769849Y-25659500D01*
X28769852Y-25659500D01*
X28842953Y-25648989D01*
X28842952Y-25648989D01*
X28842960Y-25648988D01*
X28883616Y-25637050D01*
X28950800Y-25606368D01*
X29006619Y-25558002D01*
X29006620Y-25557999D01*
X29013430Y-25552100D01*
X29014764Y-25553639D01*
X29038517Y-25534937D01*
X29084301Y-25521476D01*
X29131803Y-25526006D01*
X29136889Y-25527500D01*
X29283109Y-25527500D01*
X29283111Y-25527500D01*
X29288192Y-25526007D01*
X29359150Y-25525995D01*
X29404154Y-25554887D01*
X29406570Y-25552100D01*
X29413379Y-25558000D01*
X29413381Y-25558002D01*
X29469200Y-25606368D01*
X29536384Y-25637050D01*
X29577040Y-25648988D01*
X29577045Y-25648988D01*
X29577046Y-25648989D01*
X29650148Y-25659500D01*
X29650151Y-25659500D01*
X31972851Y-25659500D01*
X31972855Y-25659500D01*
X32023470Y-25654515D01*
X32029351Y-25653344D01*
X32052252Y-25648790D01*
X32100938Y-25634022D01*
X32145806Y-25610038D01*
X32170202Y-25593736D01*
X32209519Y-25561468D01*
X32236419Y-25534568D01*
X32261046Y-25501363D01*
X32281784Y-25473403D01*
X32302362Y-25434903D01*
X32302363Y-25434902D01*
X32328019Y-25363200D01*
X32331757Y-25287138D01*
X32327478Y-25243689D01*
X32327477Y-25243688D01*
X32326567Y-25234438D01*
X32328654Y-25234232D01*
X32328400Y-25188842D01*
X32355734Y-25135577D01*
X32365459Y-25124354D01*
X32419029Y-25087954D01*
X32483603Y-25082974D01*
X32505837Y-25087088D01*
X32546879Y-25088920D01*
X32618132Y-25082222D01*
X32684845Y-25056316D01*
X32720725Y-25036306D01*
X32777825Y-24993162D01*
X33181468Y-24589520D01*
X33213736Y-24550203D01*
X33230038Y-24525807D01*
X33254022Y-24480939D01*
X33268790Y-24432253D01*
X33274514Y-24403475D01*
X33274515Y-24403471D01*
X33279500Y-24352856D01*
X33279500Y-22661931D01*
X33270253Y-22593278D01*
X33259727Y-22554911D01*
X33259726Y-22554907D01*
X33232647Y-22491147D01*
X33189664Y-22436823D01*
X33176886Y-22424493D01*
X33145185Y-22374677D01*
X33139661Y-22315889D01*
X33152729Y-22224999D01*
X33139661Y-22134109D01*
X33145186Y-22075320D01*
X33176886Y-22025506D01*
X33189664Y-22013177D01*
X33232647Y-21958853D01*
X33259726Y-21895093D01*
X33270253Y-21856721D01*
X33279500Y-21788066D01*
X33279500Y-18221284D01*
X33267644Y-18143742D01*
X33254215Y-18100854D01*
X33254214Y-18100850D01*
X33219731Y-18030399D01*
X33184925Y-17993677D01*
X33154382Y-17938523D01*
X33154382Y-17875477D01*
X33184925Y-17820323D01*
X33219731Y-17783601D01*
X33242140Y-17737817D01*
X33254214Y-17713149D01*
X33255139Y-17710194D01*
X33267644Y-17670258D01*
X33279500Y-17592716D01*
X33279500Y-16307291D01*
X33293233Y-16250088D01*
X33331439Y-16205355D01*
X33385789Y-16182842D01*
X33444436Y-16187458D01*
X33494595Y-16218196D01*
X39230995Y-21954597D01*
X39258309Y-21995474D01*
X39267900Y-22043692D01*
X39267900Y-26216309D01*
X39258309Y-26264527D01*
X39230995Y-26305404D01*
X34581555Y-30954842D01*
X34561380Y-30971227D01*
X34553484Y-30976385D01*
X34535364Y-30999666D01*
X34525478Y-31010861D01*
X34513971Y-31026977D01*
X34510863Y-31031145D01*
X34475825Y-31076162D01*
X34459537Y-31130869D01*
X34457950Y-31135823D01*
X34439434Y-31189760D01*
X34441792Y-31246756D01*
X34441900Y-31251964D01*
X34441900Y-32791676D01*
X34425531Y-32853781D01*
X34380677Y-32899750D01*
X34318992Y-32917638D01*
X34256506Y-32902798D01*
X34088188Y-32812830D01*
X33897897Y-32755106D01*
X33897894Y-32755105D01*
X33897892Y-32755105D01*
X33699999Y-32735614D01*
X33569250Y-32748492D01*
X33514452Y-32741733D01*
X33467804Y-32712194D01*
X33438265Y-32665546D01*
X33431507Y-32610749D01*
X33444385Y-32480000D01*
X33424894Y-32282103D01*
X33367170Y-32091812D01*
X33273430Y-31916438D01*
X33175490Y-31797096D01*
X33147279Y-31762720D01*
X33070420Y-31699645D01*
X32993562Y-31636570D01*
X32818188Y-31542830D01*
X32627897Y-31485106D01*
X32627894Y-31485105D01*
X32627892Y-31485105D01*
X32430000Y-31465614D01*
X32232107Y-31485105D01*
X32232104Y-31485105D01*
X32232103Y-31485106D01*
X32153524Y-31508942D01*
X32041811Y-31542830D01*
X31948070Y-31592935D01*
X31866438Y-31636570D01*
X31866436Y-31636571D01*
X31866437Y-31636571D01*
X31712720Y-31762720D01*
X31586571Y-31916437D01*
X31492830Y-32091811D01*
X31435105Y-32282107D01*
X31415614Y-32480000D01*
X31428492Y-32610749D01*
X31421734Y-32665547D01*
X31392194Y-32712194D01*
X31345547Y-32741734D01*
X31290749Y-32748492D01*
X31159999Y-32735614D01*
X31029250Y-32748492D01*
X30974452Y-32741733D01*
X30927804Y-32712194D01*
X30898265Y-32665546D01*
X30891507Y-32610749D01*
X30904385Y-32480000D01*
X30884894Y-32282103D01*
X30827170Y-32091812D01*
X30733430Y-31916438D01*
X30635490Y-31797096D01*
X30607279Y-31762720D01*
X30530420Y-31699645D01*
X30453562Y-31636570D01*
X30278188Y-31542830D01*
X30087897Y-31485106D01*
X30087894Y-31485105D01*
X30087892Y-31485105D01*
X29890000Y-31465614D01*
X29692107Y-31485105D01*
X29692104Y-31485105D01*
X29692103Y-31485106D01*
X29613524Y-31508942D01*
X29501811Y-31542830D01*
X29408070Y-31592935D01*
X29326438Y-31636570D01*
X29326436Y-31636571D01*
X29326437Y-31636571D01*
X29172720Y-31762720D01*
X29046571Y-31916437D01*
X28952830Y-32091811D01*
X28895105Y-32282107D01*
X28875614Y-32480000D01*
X28888492Y-32610749D01*
X28881734Y-32665547D01*
X28852194Y-32712194D01*
X28805547Y-32741734D01*
X28750749Y-32748492D01*
X28619999Y-32735614D01*
X28489250Y-32748492D01*
X28434452Y-32741733D01*
X28387804Y-32712194D01*
X28358265Y-32665546D01*
X28351507Y-32610749D01*
X28364385Y-32480000D01*
X28344894Y-32282103D01*
X28287170Y-32091812D01*
X28193430Y-31916438D01*
X28095490Y-31797096D01*
X28067279Y-31762720D01*
X27990420Y-31699645D01*
X27913562Y-31636570D01*
X27738188Y-31542830D01*
X27547897Y-31485106D01*
X27547894Y-31485105D01*
X27547892Y-31485105D01*
X27350000Y-31465614D01*
X27152107Y-31485105D01*
X27152104Y-31485105D01*
X27152103Y-31485106D01*
X27073524Y-31508942D01*
X26961811Y-31542830D01*
X26868070Y-31592935D01*
X26786438Y-31636570D01*
X26786436Y-31636571D01*
X26786437Y-31636571D01*
X26632720Y-31762720D01*
X26506571Y-31916437D01*
X26412830Y-32091811D01*
X26355105Y-32282107D01*
X26335614Y-32480000D01*
X26348492Y-32610749D01*
X26341734Y-32665547D01*
X26312194Y-32712194D01*
X26265547Y-32741734D01*
X26210749Y-32748492D01*
X26079999Y-32735614D01*
X25949250Y-32748492D01*
X25894452Y-32741733D01*
X25847804Y-32712194D01*
X25818265Y-32665546D01*
X25811507Y-32610749D01*
X25824385Y-32480000D01*
X25804894Y-32282103D01*
X25747170Y-32091812D01*
X25653430Y-31916438D01*
X25555490Y-31797096D01*
X25527279Y-31762720D01*
X25450420Y-31699645D01*
X25373562Y-31636570D01*
X25198188Y-31542830D01*
X25007897Y-31485106D01*
X25007894Y-31485105D01*
X25007892Y-31485105D01*
X24810000Y-31465614D01*
X24612107Y-31485105D01*
X24612104Y-31485105D01*
X24612103Y-31485106D01*
X24533524Y-31508942D01*
X24421811Y-31542830D01*
X24328070Y-31592935D01*
X24246438Y-31636570D01*
X24246436Y-31636571D01*
X24246437Y-31636571D01*
X24092720Y-31762720D01*
X23966571Y-31916437D01*
X23872830Y-32091811D01*
X23815105Y-32282107D01*
X23795614Y-32480000D01*
X23808492Y-32610749D01*
X23801734Y-32665547D01*
X23772194Y-32712194D01*
X23725547Y-32741734D01*
X23670749Y-32748492D01*
X23539999Y-32735614D01*
X23409250Y-32748492D01*
X23354452Y-32741733D01*
X23307804Y-32712194D01*
X23278265Y-32665546D01*
X23271507Y-32610749D01*
X23284385Y-32480000D01*
X23264894Y-32282103D01*
X23207170Y-32091812D01*
X23113430Y-31916438D01*
X23015490Y-31797096D01*
X22987279Y-31762720D01*
X22910420Y-31699645D01*
X22833562Y-31636570D01*
X22658188Y-31542830D01*
X22467897Y-31485106D01*
X22467894Y-31485105D01*
X22467892Y-31485105D01*
X22270000Y-31465614D01*
X22072107Y-31485105D01*
X22072104Y-31485105D01*
X22072103Y-31485106D01*
X21993524Y-31508942D01*
X21881811Y-31542830D01*
X21788070Y-31592935D01*
X21706438Y-31636570D01*
X21706436Y-31636571D01*
X21706437Y-31636571D01*
X21552720Y-31762720D01*
X21426571Y-31916437D01*
X21332830Y-32091811D01*
X21275105Y-32282107D01*
X21255614Y-32480000D01*
X21268492Y-32610749D01*
X21261734Y-32665547D01*
X21232194Y-32712194D01*
X21185547Y-32741734D01*
X21130749Y-32748492D01*
X20999999Y-32735614D01*
X20869250Y-32748492D01*
X20814452Y-32741733D01*
X20767804Y-32712194D01*
X20738265Y-32665546D01*
X20731507Y-32610749D01*
X20744385Y-32480000D01*
X20724894Y-32282103D01*
X20667170Y-32091812D01*
X20573430Y-31916438D01*
X20475490Y-31797096D01*
X20447279Y-31762720D01*
X20370420Y-31699645D01*
X20293562Y-31636570D01*
X20118188Y-31542830D01*
X19927897Y-31485106D01*
X19927894Y-31485105D01*
X19927892Y-31485105D01*
X19730000Y-31465614D01*
X19532107Y-31485105D01*
X19532104Y-31485105D01*
X19532103Y-31485106D01*
X19453524Y-31508942D01*
X19341811Y-31542830D01*
X19248071Y-31592935D01*
X19166438Y-31636570D01*
X19166436Y-31636571D01*
X19166437Y-31636571D01*
X19012720Y-31762720D01*
X18886571Y-31916437D01*
X18792830Y-32091811D01*
X18735105Y-32282107D01*
X18715614Y-32480000D01*
X18735105Y-32677892D01*
X18735105Y-32677894D01*
X18735106Y-32677897D01*
X18792830Y-32868188D01*
X18886570Y-33043562D01*
X18949645Y-33120420D01*
X19012720Y-33197279D01*
X19075795Y-33249042D01*
X19166438Y-33323430D01*
X19341812Y-33417170D01*
X19532103Y-33474894D01*
X19690420Y-33490486D01*
X19729999Y-33494385D01*
X19729999Y-33494384D01*
X19730000Y-33494385D01*
X19860750Y-33481507D01*
X19915546Y-33488265D01*
X19962194Y-33517804D01*
X19991733Y-33564452D01*
X19998492Y-33619250D01*
X19985614Y-33749999D01*
X20005105Y-33947892D01*
X20005105Y-33947894D01*
X20005106Y-33947897D01*
X20062830Y-34138188D01*
X20156570Y-34313562D01*
X20233429Y-34407216D01*
X20282722Y-34467281D01*
X20383648Y-34550107D01*
X20420555Y-34600340D01*
X20428866Y-34662118D01*
X20406548Y-34720319D01*
X20376698Y-34745702D01*
X20371858Y-34750542D01*
X20364958Y-34755686D01*
X20359063Y-34760700D01*
X20356656Y-34761876D01*
X20342758Y-34772240D01*
X20333771Y-34777105D01*
X20333710Y-34776993D01*
X20319154Y-34787387D01*
X20268540Y-34798000D01*
X18795998Y-34798000D01*
X17018000Y-36575998D01*
X17018000Y-39455826D01*
X17008409Y-39504045D01*
X16981097Y-39544918D01*
X16947641Y-39578374D01*
X16914188Y-39611827D01*
X16782261Y-39800238D01*
X16685057Y-40008695D01*
X16625525Y-40230869D01*
X16605479Y-40459999D01*
X16625525Y-40689132D01*
X16685055Y-40911303D01*
X16782261Y-41119762D01*
X16914187Y-41308171D01*
X16914188Y-41308172D01*
X16981097Y-41375081D01*
X17008409Y-41415955D01*
X17018000Y-41464174D01*
X17018000Y-45159810D01*
X17008409Y-45208028D01*
X16981095Y-45248905D01*
X15784905Y-46445095D01*
X15744028Y-46472409D01*
X15695810Y-46482000D01*
X14657190Y-46482000D01*
X14608972Y-46472409D01*
X14568095Y-46445095D01*
X13498905Y-45375905D01*
X13471591Y-45335028D01*
X13462000Y-45286810D01*
X13462000Y-44263709D01*
X13480567Y-44197874D01*
X13530797Y-44151442D01*
X13597886Y-44138097D01*
X13662061Y-44161773D01*
X13704409Y-44215491D01*
X13713266Y-44236874D01*
X13806986Y-44359013D01*
X13929125Y-44452733D01*
X13929126Y-44452733D01*
X13929127Y-44452734D01*
X14071363Y-44511650D01*
X14224000Y-44531745D01*
X14376637Y-44511650D01*
X14518873Y-44452734D01*
X14641013Y-44359013D01*
X14734734Y-44236873D01*
X14793650Y-44094637D01*
X14813745Y-43942000D01*
X14793650Y-43789363D01*
X14734734Y-43647128D01*
X14641013Y-43524987D01*
X14641011Y-43524985D01*
X14641010Y-43524984D01*
X14518874Y-43431266D01*
X14376636Y-43372349D01*
X14224000Y-43352255D01*
X14071364Y-43372349D01*
X13929128Y-43431266D01*
X13806987Y-43524987D01*
X13713265Y-43647129D01*
X13704409Y-43668511D01*
X13662061Y-43722229D01*
X13597886Y-43745905D01*
X13530797Y-43732560D01*
X13480567Y-43686128D01*
X13462000Y-43620293D01*
X13462000Y-39464699D01*
X13481001Y-39398162D01*
X13532272Y-39351693D01*
X13600350Y-39339306D01*
X13664704Y-39364737D01*
X13675125Y-39372733D01*
X13675126Y-39372733D01*
X13675127Y-39372734D01*
X13817363Y-39431650D01*
X13970000Y-39451745D01*
X14122637Y-39431650D01*
X14264873Y-39372734D01*
X14387013Y-39279013D01*
X14480734Y-39156873D01*
X14539650Y-39014637D01*
X14559745Y-38862000D01*
X14539650Y-38709363D01*
X14480734Y-38567128D01*
X14387013Y-38444987D01*
X14387011Y-38444985D01*
X14387010Y-38444984D01*
X14264874Y-38351266D01*
X14122636Y-38292349D01*
X13970000Y-38272255D01*
X13817364Y-38292349D01*
X13675125Y-38351267D01*
X13664703Y-38359265D01*
X13600349Y-38384695D01*
X13532271Y-38372308D01*
X13481000Y-38325838D01*
X13462000Y-38259302D01*
X13462000Y-37084000D01*
X13461999Y-37083998D01*
X12954001Y-36576000D01*
X12954000Y-36576000D01*
X7164190Y-36576000D01*
X7115972Y-36566409D01*
X7075095Y-36539095D01*
X6096001Y-35560000D01*
X6096000Y-35560000D01*
X-2967100Y-35560000D01*
X-3030100Y-35543119D01*
X-3076219Y-35497000D01*
X-3093100Y-35434000D01*
X-3093100Y-30226000D01*
X172255Y-30226000D01*
X192349Y-30378636D01*
X251266Y-30520874D01*
X344986Y-30643013D01*
X467125Y-30736733D01*
X467126Y-30736733D01*
X467127Y-30736734D01*
X609363Y-30795650D01*
X762000Y-30815745D01*
X914637Y-30795650D01*
X1056873Y-30736734D01*
X1179013Y-30643013D01*
X1272734Y-30520873D01*
X1331650Y-30378637D01*
X1351745Y-30226000D01*
X1331650Y-30073363D01*
X1272734Y-29931128D01*
X1179013Y-29808987D01*
X1179011Y-29808985D01*
X1179010Y-29808984D01*
X1056874Y-29715266D01*
X914636Y-29656349D01*
X762000Y-29636255D01*
X609364Y-29656349D01*
X467128Y-29715266D01*
X344987Y-29808987D01*
X251266Y-29931128D01*
X192349Y-30073364D01*
X172255Y-30226000D01*
X-3093100Y-30226000D01*
X-3093100Y-28701999D01*
X6776255Y-28701999D01*
X6796349Y-28854636D01*
X6855266Y-28996874D01*
X6948986Y-29119013D01*
X7071125Y-29212733D01*
X7071126Y-29212733D01*
X7071127Y-29212734D01*
X7213363Y-29271650D01*
X7366000Y-29291745D01*
X7518637Y-29271650D01*
X7660873Y-29212734D01*
X7783013Y-29119013D01*
X7876734Y-28996873D01*
X7935650Y-28854637D01*
X7955745Y-28702000D01*
X7935650Y-28549363D01*
X7876734Y-28407128D01*
X7783013Y-28284987D01*
X7783011Y-28284985D01*
X7783010Y-28284984D01*
X7660874Y-28191266D01*
X7518636Y-28132349D01*
X7366000Y-28112255D01*
X7213364Y-28132349D01*
X7071128Y-28191266D01*
X6948987Y-28284987D01*
X6855266Y-28407128D01*
X6796349Y-28549364D01*
X6776255Y-28701999D01*
X-3093100Y-28701999D01*
X-3093100Y-26190934D01*
X-3078762Y-26132559D01*
X-3039010Y-26087469D01*
X-2982892Y-26065928D01*
X-2923180Y-26072837D01*
X-2873464Y-26106624D01*
X-2784385Y-26205556D01*
X-2784383Y-26205558D01*
X-2626310Y-26320405D01*
X-2447813Y-26399876D01*
X-2256694Y-26440500D01*
X-2061308Y-26440500D01*
X-2061306Y-26440500D01*
X-1946039Y-26415999D01*
X-767730Y-26415999D01*
X-746920Y-26560731D01*
X-686176Y-26693743D01*
X-590422Y-26804250D01*
X-467411Y-26883304D01*
X-327112Y-26924500D01*
X-327111Y-26924500D01*
X-180889Y-26924500D01*
X-180888Y-26924500D01*
X-110740Y-26903902D01*
X-40589Y-26883304D01*
X82421Y-26804250D01*
X178176Y-26693743D01*
X238919Y-26560734D01*
X259729Y-26416000D01*
X257411Y-26399876D01*
X241856Y-26291691D01*
X248517Y-26229727D01*
X284061Y-26178534D01*
X339791Y-26150638D01*
X402071Y-26152863D01*
X418806Y-26157777D01*
X434888Y-26162500D01*
X434889Y-26162500D01*
X581111Y-26162500D01*
X613928Y-26152863D01*
X676207Y-26150638D01*
X731937Y-26178534D01*
X767481Y-26229726D01*
X774144Y-26291691D01*
X756270Y-26416003D01*
X777080Y-26560731D01*
X837824Y-26693743D01*
X933578Y-26804250D01*
X1056589Y-26883304D01*
X1196888Y-26924500D01*
X1196889Y-26924500D01*
X1343111Y-26924500D01*
X1343112Y-26924500D01*
X1413260Y-26903902D01*
X1483411Y-26883304D01*
X1606421Y-26804250D01*
X1702176Y-26693743D01*
X1762919Y-26560734D01*
X1783729Y-26416000D01*
X1762919Y-26271266D01*
X1702176Y-26138257D01*
X1684200Y-26117512D01*
X1656977Y-26064706D01*
X1656977Y-26005294D01*
X1684201Y-25952487D01*
X1687332Y-25948874D01*
X1702176Y-25931743D01*
X1762919Y-25798734D01*
X1765469Y-25781000D01*
X34284270Y-25781000D01*
X34305080Y-25925731D01*
X34305080Y-25925732D01*
X34305081Y-25925734D01*
X34315649Y-25948874D01*
X34365824Y-26058743D01*
X34461578Y-26169250D01*
X34584589Y-26248304D01*
X34724888Y-26289500D01*
X34724889Y-26289500D01*
X34871111Y-26289500D01*
X34871112Y-26289500D01*
X34956161Y-26264527D01*
X35011411Y-26248304D01*
X35134421Y-26169250D01*
X35230176Y-26058743D01*
X35290919Y-25925734D01*
X35311729Y-25781000D01*
X35290919Y-25636266D01*
X35230176Y-25503257D01*
X35170946Y-25434902D01*
X35134421Y-25392749D01*
X35011410Y-25313695D01*
X34871112Y-25272500D01*
X34871111Y-25272500D01*
X34724889Y-25272500D01*
X34724888Y-25272500D01*
X34584589Y-25313695D01*
X34461578Y-25392749D01*
X34365824Y-25503256D01*
X34305080Y-25636268D01*
X34284270Y-25781000D01*
X1765469Y-25781000D01*
X1783729Y-25654000D01*
X1762919Y-25509266D01*
X1702176Y-25376257D01*
X1684200Y-25355512D01*
X1656977Y-25302706D01*
X1656977Y-25243294D01*
X1684201Y-25190487D01*
X1702176Y-25169743D01*
X1762919Y-25036734D01*
X1783729Y-24892000D01*
X1783728Y-24891996D01*
X1762919Y-24747268D01*
X1762919Y-24747266D01*
X1702176Y-24614257D01*
X1646673Y-24550203D01*
X1606421Y-24503749D01*
X1483410Y-24424695D01*
X1343112Y-24383500D01*
X1343111Y-24383500D01*
X1196889Y-24383500D01*
X1196888Y-24383500D01*
X1056589Y-24424695D01*
X933578Y-24503749D01*
X837824Y-24614256D01*
X777080Y-24747268D01*
X756270Y-24891996D01*
X774144Y-25016308D01*
X767482Y-25078273D01*
X731938Y-25129465D01*
X676209Y-25157361D01*
X613928Y-25155136D01*
X581111Y-25145500D01*
X434889Y-25145500D01*
X434888Y-25145500D01*
X402071Y-25155136D01*
X339789Y-25157360D01*
X284060Y-25129464D01*
X248517Y-25078272D01*
X241856Y-25016307D01*
X245184Y-24993161D01*
X259729Y-24892000D01*
X259728Y-24891996D01*
X238919Y-24747268D01*
X238919Y-24747266D01*
X178176Y-24614257D01*
X122673Y-24550203D01*
X82421Y-24503749D01*
X-40590Y-24424695D01*
X-180888Y-24383500D01*
X-180889Y-24383500D01*
X-327111Y-24383500D01*
X-327112Y-24383500D01*
X-467411Y-24424695D01*
X-590422Y-24503749D01*
X-686176Y-24614256D01*
X-746920Y-24747268D01*
X-767730Y-24891999D01*
X-746920Y-25036731D01*
X-746920Y-25036732D01*
X-746919Y-25036734D01*
X-701780Y-25135574D01*
X-686176Y-25169743D01*
X-668200Y-25190489D01*
X-640978Y-25243295D01*
X-640978Y-25302705D01*
X-668200Y-25355511D01*
X-686176Y-25376256D01*
X-746920Y-25509268D01*
X-767730Y-25654000D01*
X-746920Y-25798731D01*
X-746920Y-25798732D01*
X-746919Y-25798734D01*
X-704718Y-25891142D01*
X-686176Y-25931743D01*
X-668201Y-25952487D01*
X-640978Y-26005292D01*
X-640977Y-26064702D01*
X-668199Y-26117509D01*
X-686176Y-26138255D01*
X-746920Y-26271268D01*
X-767730Y-26415999D01*
X-1946039Y-26415999D01*
X-1870187Y-26399876D01*
X-1691690Y-26320405D01*
X-1533617Y-26205558D01*
X-1402877Y-26060356D01*
X-1305182Y-25891144D01*
X-1244804Y-25705318D01*
X-1224380Y-25511000D01*
X-1244804Y-25316682D01*
X-1305182Y-25130856D01*
X-1402877Y-24961644D01*
X-1402878Y-24961642D01*
X-1533616Y-24816443D01*
X-1628830Y-24747266D01*
X-1691690Y-24701595D01*
X-1737711Y-24681105D01*
X-1789927Y-24637909D01*
X-1812213Y-24573911D01*
X-1798124Y-24507624D01*
X-1751733Y-24458223D01*
X-1686462Y-24439999D01*
X-1458982Y-24439999D01*
X-1384895Y-24425263D01*
X-1300876Y-24369123D01*
X-1244737Y-24285106D01*
X-1230000Y-24211019D01*
X-1230000Y-23765000D01*
X-2287000Y-23765000D01*
X-2350000Y-23748119D01*
X-2396119Y-23702000D01*
X-2413000Y-23639000D01*
X-2413000Y-22582001D01*
X-2859018Y-22582001D01*
X-2942521Y-22598609D01*
X-2997717Y-22597253D01*
X-3028020Y-22582000D01*
X-1905000Y-22582000D01*
X-1905000Y-23257000D01*
X-1230001Y-23257000D01*
X-1230001Y-22810982D01*
X-1244737Y-22736894D01*
X-1300877Y-22652875D01*
X-1384894Y-22596736D01*
X-1458981Y-22582000D01*
X-1905000Y-22582000D01*
X-3028020Y-22582000D01*
X-3047035Y-22572429D01*
X-3081003Y-22528901D01*
X-3093100Y-22475030D01*
X-3093100Y-22352000D01*
X6776255Y-22352000D01*
X6796349Y-22504636D01*
X6855266Y-22646874D01*
X6948986Y-22769013D01*
X7071125Y-22862733D01*
X7071126Y-22862733D01*
X7071127Y-22862734D01*
X7213363Y-22921650D01*
X7366000Y-22941745D01*
X7518637Y-22921650D01*
X7660873Y-22862734D01*
X7783013Y-22769013D01*
X7876734Y-22646873D01*
X7935650Y-22504637D01*
X7955745Y-22352000D01*
X7935650Y-22199363D01*
X7876734Y-22057128D01*
X7783013Y-21934987D01*
X7783011Y-21934985D01*
X7783010Y-21934984D01*
X7660874Y-21841266D01*
X7518636Y-21782349D01*
X7366000Y-21762255D01*
X7213364Y-21782349D01*
X7071128Y-21841266D01*
X6948987Y-21934987D01*
X6855266Y-22057128D01*
X6796349Y-22199364D01*
X6776255Y-22352000D01*
X-3093100Y-22352000D01*
X-3093100Y-20828000D01*
X1696255Y-20828000D01*
X1716349Y-20980636D01*
X1775266Y-21122874D01*
X1868986Y-21245013D01*
X1991125Y-21338733D01*
X1991126Y-21338733D01*
X1991127Y-21338734D01*
X2133363Y-21397650D01*
X2286000Y-21417745D01*
X2438637Y-21397650D01*
X2580873Y-21338734D01*
X2703013Y-21245013D01*
X2796734Y-21122873D01*
X2855650Y-20980637D01*
X2875745Y-20828000D01*
X2855650Y-20675363D01*
X2796734Y-20533128D01*
X2703013Y-20410987D01*
X2703011Y-20410985D01*
X2703010Y-20410984D01*
X2580874Y-20317266D01*
X2438636Y-20258349D01*
X2286000Y-20238255D01*
X2133364Y-20258349D01*
X1991128Y-20317266D01*
X1868987Y-20410987D01*
X1775266Y-20533128D01*
X1716349Y-20675364D01*
X1696255Y-20828000D01*
X-3093100Y-20828000D01*
X-3093100Y-19814247D01*
X-2300719Y-19814247D01*
X-2279909Y-19958978D01*
X-2219165Y-20091990D01*
X-2123411Y-20202497D01*
X-2000400Y-20281551D01*
X-1860101Y-20322747D01*
X-1860100Y-20322747D01*
X-1713878Y-20322747D01*
X-1713877Y-20322747D01*
X-1643728Y-20302148D01*
X-1573578Y-20281551D01*
X-1548810Y-20265632D01*
X-1492666Y-20246201D01*
X-1433859Y-20254655D01*
X-1385464Y-20289117D01*
X-1369229Y-20307853D01*
X-1352421Y-20327250D01*
X-1278889Y-20374506D01*
X-1229411Y-20406304D01*
X-1089112Y-20447500D01*
X-1089111Y-20447500D01*
X-942889Y-20447500D01*
X-942888Y-20447500D01*
X-863949Y-20424321D01*
X-802589Y-20406304D01*
X-679579Y-20327250D01*
X-583824Y-20216743D01*
X-523081Y-20083734D01*
X-502271Y-19939000D01*
X-523081Y-19794266D01*
X-583824Y-19661257D01*
X-596608Y-19646504D01*
X-679579Y-19550749D01*
X-802590Y-19471695D01*
X-942888Y-19430500D01*
X-942889Y-19430500D01*
X-1089111Y-19430500D01*
X-1089112Y-19430500D01*
X-1229412Y-19471696D01*
X-1254183Y-19487615D01*
X-1310326Y-19507046D01*
X-1369132Y-19498590D01*
X-1417526Y-19464129D01*
X-1450568Y-19425997D01*
X-1573579Y-19346942D01*
X-1713877Y-19305747D01*
X-1713878Y-19305747D01*
X-1860100Y-19305747D01*
X-1860101Y-19305747D01*
X-2000400Y-19346942D01*
X-2123411Y-19425996D01*
X-2219165Y-19536503D01*
X-2279909Y-19669515D01*
X-2300719Y-19814247D01*
X-3093100Y-19814247D01*
X-3093100Y-16510000D01*
X-513730Y-16510000D01*
X-492920Y-16654731D01*
X-492920Y-16654732D01*
X-492919Y-16654734D01*
X-441771Y-16766733D01*
X-432176Y-16787743D01*
X-336422Y-16898250D01*
X-274916Y-16937777D01*
X-213411Y-16977304D01*
X-168394Y-16990522D01*
X-108667Y-17028905D01*
X-79174Y-17093485D01*
X-89277Y-17163759D01*
X-135769Y-17217415D01*
X-209420Y-17264748D01*
X-305176Y-17375256D01*
X-365920Y-17508268D01*
X-386730Y-17652999D01*
X-365920Y-17797731D01*
X-365920Y-17797732D01*
X-365919Y-17797734D01*
X-316333Y-17906313D01*
X-305176Y-17930743D01*
X-209422Y-18041250D01*
X-86411Y-18120304D01*
X53888Y-18161500D01*
X53889Y-18161500D01*
X200111Y-18161500D01*
X200112Y-18161500D01*
X270261Y-18140901D01*
X340411Y-18120304D01*
X463421Y-18041250D01*
X559176Y-17930743D01*
X619919Y-17797734D01*
X640729Y-17653000D01*
X619919Y-17508266D01*
X559176Y-17375257D01*
X506249Y-17314176D01*
X463421Y-17264749D01*
X340411Y-17185696D01*
X295391Y-17172477D01*
X235666Y-17134093D01*
X206173Y-17069513D01*
X216276Y-16999239D01*
X262768Y-16945583D01*
X312881Y-16913378D01*
X357154Y-16895654D01*
X404846Y-16895654D01*
X449118Y-16913378D01*
X548589Y-16977304D01*
X618739Y-16997902D01*
X688888Y-17018500D01*
X688889Y-17018500D01*
X835111Y-17018500D01*
X835112Y-17018500D01*
X905260Y-16997902D01*
X975411Y-16977304D01*
X1098421Y-16898250D01*
X1194176Y-16787743D01*
X1254919Y-16654734D01*
X1275729Y-16510000D01*
X1275729Y-16509999D01*
X1257856Y-16385691D01*
X1264517Y-16323727D01*
X1300061Y-16272534D01*
X1355791Y-16244638D01*
X1418071Y-16246863D01*
X1429052Y-16250088D01*
X1450888Y-16256500D01*
X1450889Y-16256500D01*
X1597111Y-16256500D01*
X1597112Y-16256500D01*
X1667261Y-16235901D01*
X1737411Y-16215304D01*
X1860421Y-16136250D01*
X1956176Y-16025743D01*
X2016919Y-15892734D01*
X2037729Y-15748000D01*
X2037728Y-15747996D01*
X2025976Y-15666255D01*
X2016919Y-15603266D01*
X1956176Y-15470257D01*
X1943392Y-15455503D01*
X1860421Y-15359749D01*
X1737410Y-15280695D01*
X1597112Y-15239500D01*
X1597111Y-15239500D01*
X1450889Y-15239500D01*
X1450888Y-15239500D01*
X1310589Y-15280695D01*
X1211121Y-15344620D01*
X1143000Y-15364622D01*
X1074879Y-15344620D01*
X975410Y-15280695D01*
X835112Y-15239500D01*
X835111Y-15239500D01*
X688889Y-15239500D01*
X688888Y-15239500D01*
X548589Y-15280695D01*
X425578Y-15359749D01*
X329824Y-15470256D01*
X269080Y-15603268D01*
X248270Y-15747996D01*
X266144Y-15872308D01*
X259482Y-15934273D01*
X223938Y-15985465D01*
X168209Y-16013361D01*
X105928Y-16011136D01*
X73111Y-16001500D01*
X-73111Y-16001500D01*
X-73112Y-16001500D01*
X-213411Y-16042695D01*
X-336422Y-16121749D01*
X-432176Y-16232256D01*
X-492920Y-16365268D01*
X-513730Y-16510000D01*
X-3093100Y-16510000D01*
X-3093100Y-11504002D01*
X-1894276Y-11504002D01*
X-1853357Y-11629942D01*
X-1755717Y-11799060D01*
X-1625044Y-11944186D01*
X-1467059Y-12058969D01*
X-1288654Y-12138400D01*
X-1253999Y-12145767D01*
X-1253998Y-12145767D01*
X-1253998Y-11504002D01*
X-1894276Y-11504002D01*
X-3093100Y-11504002D01*
X-3093100Y-9250002D01*
X-1934618Y-9250002D01*
X-1914194Y-9444320D01*
X-1914193Y-9444323D01*
X-1862276Y-9604111D01*
X-1853816Y-9630146D01*
X-1837013Y-9659250D01*
X-1756121Y-9799359D01*
X-1626421Y-9943405D01*
X-1625381Y-9944560D01*
X-1467308Y-10059407D01*
X-1297142Y-10135168D01*
X-1251307Y-10169959D01*
X-1225720Y-10221502D01*
X-1225720Y-10279047D01*
X-1251306Y-10330590D01*
X-1297142Y-10365381D01*
X-1467054Y-10441031D01*
X-1625044Y-10555817D01*
X-1755717Y-10700943D01*
X-1853357Y-10870061D01*
X-1894277Y-10996001D01*
X-1894276Y-10996002D01*
X-871998Y-10996002D01*
X-808998Y-11012883D01*
X-762879Y-11059002D01*
X-745998Y-11122002D01*
X-745998Y-12145767D01*
X-711343Y-12138400D01*
X-532938Y-12058969D01*
X-374953Y-11944186D01*
X-244280Y-11799060D01*
X-146641Y-11629944D01*
X-120096Y-11548243D01*
X-86516Y-11495328D01*
X-31598Y-11465136D01*
X31072Y-11465135D01*
X85991Y-11495327D01*
X119571Y-11548241D01*
X146183Y-11630145D01*
X243879Y-11799359D01*
X352746Y-11920268D01*
X374619Y-11944560D01*
X532692Y-12059407D01*
X711189Y-12138878D01*
X902308Y-12179502D01*
X1097694Y-12179502D01*
X1097696Y-12179502D01*
X1288815Y-12138878D01*
X1467312Y-12059407D01*
X1625385Y-11944560D01*
X1756125Y-11799358D01*
X1853820Y-11630146D01*
X1914198Y-11444320D01*
X1934622Y-11250002D01*
X1914198Y-11055684D01*
X1853820Y-10869858D01*
X1760772Y-10708695D01*
X1756124Y-10700644D01*
X1625386Y-10555445D01*
X1615484Y-10548251D01*
X1467312Y-10440597D01*
X1297758Y-10365107D01*
X1251924Y-10330318D01*
X1226337Y-10278774D01*
X1226337Y-10221230D01*
X1251924Y-10169686D01*
X1297758Y-10134896D01*
X1467312Y-10059407D01*
X1625385Y-9944560D01*
X1756125Y-9799358D01*
X1853820Y-9630146D01*
X1914198Y-9444320D01*
X1934622Y-9250002D01*
X1914198Y-9055684D01*
X1853820Y-8869858D01*
X1756125Y-8700646D01*
X1756124Y-8700644D01*
X1625386Y-8555445D01*
X1617824Y-8549951D01*
X1467312Y-8440597D01*
X1297758Y-8365107D01*
X1251924Y-8330318D01*
X1226337Y-8278774D01*
X1226337Y-8221230D01*
X1251924Y-8169686D01*
X1297758Y-8134896D01*
X1467312Y-8059407D01*
X1625385Y-7944560D01*
X1756125Y-7799358D01*
X1853820Y-7630146D01*
X1914198Y-7444320D01*
X1934622Y-7250002D01*
X1914198Y-7055684D01*
X1853820Y-6869858D01*
X1756125Y-6700646D01*
X1756124Y-6700644D01*
X1625386Y-6555445D01*
X1599620Y-6536725D01*
X1467312Y-6440597D01*
X1297758Y-6365107D01*
X1251924Y-6330318D01*
X1226337Y-6278774D01*
X1226337Y-6221230D01*
X1251924Y-6169686D01*
X1297758Y-6134896D01*
X1467312Y-6059407D01*
X1625385Y-5944560D01*
X1756125Y-5799358D01*
X1853820Y-5630146D01*
X1914198Y-5444320D01*
X1934622Y-5250002D01*
X1914198Y-5055684D01*
X1853820Y-4869858D01*
X1756125Y-4700646D01*
X1756124Y-4700644D01*
X1625386Y-4555445D01*
X1617802Y-4549935D01*
X1467312Y-4440597D01*
X1288815Y-4361126D01*
X1097696Y-4320502D01*
X902308Y-4320502D01*
X711189Y-4361126D01*
X711186Y-4361127D01*
X711187Y-4361127D01*
X532691Y-4440597D01*
X374617Y-4555445D01*
X243879Y-4700644D01*
X164620Y-4837925D01*
X118501Y-4884044D01*
X55501Y-4900925D01*
X-7499Y-4884044D01*
X-53618Y-4837925D01*
X-70499Y-4774925D01*
X-70499Y-4549934D01*
X-85264Y-4475701D01*
X-141514Y-4391517D01*
X-225697Y-4335268D01*
X-225698Y-4335267D01*
X-299932Y-4320502D01*
X-1700067Y-4320502D01*
X-1774299Y-4335267D01*
X-1858483Y-4391517D01*
X-1914732Y-4475700D01*
X-1929498Y-4549935D01*
X-1929498Y-5950070D01*
X-1914733Y-6024302D01*
X-1858483Y-6108486D01*
X-1815997Y-6136874D01*
X-1774299Y-6164736D01*
X-1700065Y-6179502D01*
X-1473659Y-6179501D01*
X-1408390Y-6197725D01*
X-1362000Y-6247125D01*
X-1347910Y-6313412D01*
X-1370196Y-6377410D01*
X-1422411Y-6420607D01*
X-1467308Y-6440596D01*
X-1625383Y-6555445D01*
X-1756121Y-6700644D01*
X-1853817Y-6869859D01*
X-1907167Y-7034057D01*
X-1914194Y-7055684D01*
X-1934618Y-7250002D01*
X-1914194Y-7444320D01*
X-1914193Y-7444323D01*
X-1853817Y-7630144D01*
X-1756121Y-7799359D01*
X-1672946Y-7891734D01*
X-1625381Y-7944560D01*
X-1467308Y-8059407D01*
X-1334051Y-8118736D01*
X-1297757Y-8134895D01*
X-1251921Y-8169686D01*
X-1226334Y-8221230D01*
X-1226334Y-8278774D01*
X-1251921Y-8330318D01*
X-1297757Y-8365109D01*
X-1467309Y-8440597D01*
X-1625383Y-8555445D01*
X-1756121Y-8700644D01*
X-1853817Y-8869859D01*
X-1914193Y-9055680D01*
X-1914194Y-9055684D01*
X-1934618Y-9250002D01*
X-3093100Y-9250002D01*
X-3093100Y-2260662D01*
X-1901455Y-2260662D01*
X-1766999Y-2373485D01*
X-1479504Y-2562573D01*
X-1171999Y-2717008D01*
X-848656Y-2834695D01*
X-513823Y-2914052D01*
X-172051Y-2954000D01*
X172051Y-2954000D01*
X513822Y-2914052D01*
X848655Y-2834695D01*
X1171998Y-2717008D01*
X1479503Y-2562573D01*
X1766998Y-2373485D01*
X1901453Y-2260663D01*
X1901453Y-2260662D01*
X1Y-359210D01*
X-1Y-359210D01*
X-1901455Y-2260662D01*
X-3093100Y-2260662D01*
X-3093100Y-828266D01*
X-3073170Y-760257D01*
X-3019685Y-713763D01*
X-2949564Y-703492D01*
X-2884991Y-732693D01*
X-2846393Y-792129D01*
X-2780555Y-1012044D01*
X-2644264Y-1327998D01*
X-2472213Y-1626001D01*
X-2266730Y-1902013D01*
X-2264058Y-1904845D01*
X-2264056Y-1904845D01*
X-359210Y-1D01*
X359210Y-1D01*
X2264054Y-1904845D01*
X2264056Y-1904845D01*
X2266728Y-1902013D01*
X2472215Y-1625995D01*
X2507581Y-1564741D01*
X2553700Y-1518622D01*
X2616700Y-1501741D01*
X2679700Y-1518622D01*
X2725819Y-1564741D01*
X2742700Y-1627741D01*
X2742700Y-9132297D01*
X2742627Y-9136598D01*
X2740402Y-9201736D01*
X2750285Y-9242294D01*
X2752693Y-9254966D01*
X2758376Y-9296314D01*
X2765640Y-9313036D01*
X2772489Y-9333404D01*
X2776803Y-9351109D01*
X2797261Y-9387494D01*
X2802995Y-9399037D01*
X2819631Y-9437335D01*
X2831134Y-9451475D01*
X2843218Y-9469229D01*
X2852157Y-9485127D01*
X2852159Y-9485130D01*
X2881671Y-9514642D01*
X2890314Y-9524218D01*
X2916658Y-9556598D01*
X2931550Y-9567110D01*
X2947983Y-9580953D01*
X6942595Y-13575565D01*
X6969909Y-13616442D01*
X6979500Y-13664660D01*
X6979500Y-14319856D01*
X6984484Y-14370471D01*
X6990209Y-14399249D01*
X7004978Y-14447941D01*
X7021046Y-14477999D01*
X7028962Y-14492807D01*
X7045263Y-14517202D01*
X7045264Y-14517203D01*
X7077535Y-14556524D01*
X7414475Y-14893464D01*
X7414480Y-14893468D01*
X7453797Y-14925736D01*
X7478193Y-14942038D01*
X7500627Y-14954030D01*
X7523058Y-14966021D01*
X7523060Y-14966021D01*
X7523061Y-14966022D01*
X7571747Y-14980790D01*
X7588921Y-14984206D01*
X7600528Y-14986515D01*
X7651144Y-14991500D01*
X7651148Y-14991500D01*
X9620852Y-14991500D01*
X9620856Y-14991500D01*
X9671471Y-14986515D01*
X9677353Y-14985344D01*
X9700253Y-14980790D01*
X9748939Y-14966022D01*
X9793807Y-14942038D01*
X9818203Y-14925736D01*
X9857520Y-14893468D01*
X10575468Y-14175520D01*
X10607736Y-14136203D01*
X10624038Y-14111807D01*
X10648022Y-14066939D01*
X10662790Y-14018253D01*
X10668514Y-13989475D01*
X10668515Y-13989471D01*
X10673500Y-13938856D01*
X10673500Y-12731144D01*
X10668515Y-12680528D01*
X10666206Y-12668922D01*
X10662790Y-12651747D01*
X10648022Y-12603061D01*
X10648021Y-12603060D01*
X10648021Y-12603058D01*
X10636030Y-12580627D01*
X10624038Y-12558193D01*
X10607736Y-12533797D01*
X10575468Y-12494480D01*
X10575464Y-12494475D01*
X10238524Y-12157535D01*
X10199203Y-12125264D01*
X10199199Y-12125261D01*
X10174807Y-12108962D01*
X10169668Y-12106215D01*
X10129941Y-12084978D01*
X10093049Y-12073788D01*
X10081253Y-12070210D01*
X10081250Y-12070209D01*
X10081249Y-12070209D01*
X10052471Y-12064484D01*
X10001856Y-12059500D01*
X10001852Y-12059500D01*
X9429148Y-12059500D01*
X9429144Y-12059500D01*
X9378528Y-12064484D01*
X9349743Y-12070210D01*
X9301067Y-12084974D01*
X9283623Y-12094299D01*
X9256197Y-12108959D01*
X9256193Y-12108962D01*
X9231799Y-12125261D01*
X9192480Y-12157530D01*
X8565417Y-12784595D01*
X8524539Y-12811909D01*
X8476321Y-12821500D01*
X7822660Y-12821500D01*
X7774442Y-12811909D01*
X7733565Y-12784595D01*
X3898205Y-8949236D01*
X3870891Y-8908359D01*
X3861300Y-8860141D01*
X3861300Y-7366000D01*
X7868270Y-7366000D01*
X7889080Y-7510731D01*
X7889080Y-7510732D01*
X7889081Y-7510734D01*
X7945381Y-7634014D01*
X7949824Y-7643743D01*
X8045578Y-7754250D01*
X8168589Y-7833304D01*
X8308888Y-7874500D01*
X8308889Y-7874500D01*
X8455111Y-7874500D01*
X8455112Y-7874500D01*
X8501877Y-7860767D01*
X8595411Y-7833304D01*
X8718421Y-7754250D01*
X8798136Y-7662251D01*
X8830360Y-7635645D01*
X8851849Y-7623239D01*
X8876534Y-7593819D01*
X8883939Y-7585739D01*
X9261832Y-7207846D01*
X9313274Y-7176700D01*
X9373297Y-7172945D01*
X9428222Y-7197438D01*
X9465538Y-7244600D01*
X9473824Y-7262743D01*
X9514324Y-7309483D01*
X9569578Y-7373250D01*
X9692589Y-7452304D01*
X9832888Y-7493500D01*
X9832889Y-7493500D01*
X9979111Y-7493500D01*
X10011928Y-7483863D01*
X10074207Y-7481638D01*
X10129937Y-7509534D01*
X10165481Y-7560726D01*
X10172144Y-7622691D01*
X10154270Y-7747003D01*
X10175080Y-7891731D01*
X10175080Y-7891732D01*
X10175081Y-7891734D01*
X10214138Y-7977257D01*
X10235824Y-8024743D01*
X10253800Y-8045489D01*
X10281022Y-8098295D01*
X10281022Y-8157705D01*
X10253800Y-8210511D01*
X10235824Y-8231256D01*
X10175080Y-8364268D01*
X10154270Y-8508996D01*
X10172144Y-8633308D01*
X10165482Y-8695273D01*
X10129938Y-8746465D01*
X10074209Y-8774361D01*
X10011928Y-8772136D01*
X9979111Y-8762500D01*
X9832889Y-8762500D01*
X9832888Y-8762500D01*
X9692589Y-8803695D01*
X9569578Y-8882749D01*
X9473824Y-8993256D01*
X9413080Y-9126268D01*
X9392270Y-9271000D01*
X9413080Y-9415731D01*
X9413080Y-9415732D01*
X9413081Y-9415734D01*
X9433221Y-9459835D01*
X9473824Y-9548743D01*
X9569578Y-9659250D01*
X9692589Y-9738304D01*
X9832888Y-9779500D01*
X9832889Y-9779500D01*
X9979111Y-9779500D01*
X10011928Y-9769863D01*
X10074207Y-9767638D01*
X10129937Y-9795534D01*
X10165481Y-9846726D01*
X10172144Y-9908691D01*
X10154270Y-10033003D01*
X10175080Y-10177731D01*
X10175080Y-10177732D01*
X10175081Y-10177734D01*
X10221224Y-10278774D01*
X10235824Y-10310743D01*
X10331578Y-10421250D01*
X10454589Y-10500304D01*
X10594888Y-10541500D01*
X10594889Y-10541500D01*
X10741111Y-10541500D01*
X10741112Y-10541500D01*
X10798677Y-10524597D01*
X10881411Y-10500304D01*
X10980881Y-10436378D01*
X11025154Y-10418654D01*
X11072846Y-10418654D01*
X11117118Y-10436378D01*
X11216589Y-10500304D01*
X11286739Y-10520902D01*
X11356888Y-10541500D01*
X11356889Y-10541500D01*
X11503111Y-10541500D01*
X11503112Y-10541500D01*
X11573260Y-10520902D01*
X11643411Y-10500304D01*
X11766421Y-10421250D01*
X11862176Y-10310743D01*
X11922919Y-10177734D01*
X11943729Y-10033000D01*
X11943729Y-10032999D01*
X11925856Y-9908691D01*
X11932517Y-9846727D01*
X11968061Y-9795534D01*
X12023791Y-9767638D01*
X12086071Y-9769863D01*
X12102806Y-9774777D01*
X12118888Y-9779500D01*
X12118889Y-9779500D01*
X12265111Y-9779500D01*
X12265112Y-9779500D01*
X12335261Y-9758901D01*
X12405411Y-9738304D01*
X12528421Y-9659250D01*
X12624176Y-9548743D01*
X12684919Y-9415734D01*
X12687469Y-9398000D01*
X18282270Y-9398000D01*
X18303080Y-9542731D01*
X18303080Y-9542732D01*
X18303081Y-9542734D01*
X18342138Y-9628257D01*
X18363824Y-9675743D01*
X18459578Y-9786250D01*
X18582589Y-9865304D01*
X18722888Y-9906500D01*
X18722889Y-9906500D01*
X18869111Y-9906500D01*
X18869112Y-9906500D01*
X18939261Y-9885901D01*
X19009411Y-9865304D01*
X19132421Y-9786250D01*
X19228176Y-9675743D01*
X19288919Y-9542734D01*
X19309729Y-9398000D01*
X19288919Y-9253266D01*
X19228176Y-9120257D01*
X19215392Y-9105503D01*
X19132421Y-9009749D01*
X19009410Y-8930695D01*
X18869112Y-8889500D01*
X18869111Y-8889500D01*
X18722889Y-8889500D01*
X18722888Y-8889500D01*
X18582589Y-8930695D01*
X18459578Y-9009749D01*
X18363824Y-9120256D01*
X18303080Y-9253268D01*
X18282270Y-9398000D01*
X12687469Y-9398000D01*
X12705729Y-9271000D01*
X12684919Y-9126266D01*
X12624176Y-8993257D01*
X12606200Y-8972512D01*
X12578977Y-8919706D01*
X12578977Y-8860294D01*
X12606201Y-8807487D01*
X12609487Y-8803695D01*
X12624176Y-8786743D01*
X12684919Y-8653734D01*
X12705729Y-8509000D01*
X12705728Y-8508996D01*
X12693320Y-8422695D01*
X12684919Y-8364266D01*
X12624176Y-8231257D01*
X12606200Y-8210512D01*
X12578977Y-8157706D01*
X12578977Y-8098294D01*
X12606201Y-8045487D01*
X12624176Y-8024743D01*
X12684919Y-7891734D01*
X12705729Y-7747000D01*
X12684919Y-7602266D01*
X12624176Y-7469257D01*
X12606200Y-7448512D01*
X12578977Y-7395706D01*
X12578977Y-7336294D01*
X12606201Y-7283487D01*
X12624176Y-7262743D01*
X12684919Y-7129734D01*
X12705729Y-6985000D01*
X12684919Y-6840266D01*
X12624176Y-6707257D01*
X12611392Y-6692503D01*
X12528421Y-6596749D01*
X12405410Y-6517695D01*
X12265112Y-6476500D01*
X12265111Y-6476500D01*
X12118889Y-6476500D01*
X12118888Y-6476500D01*
X12086071Y-6486136D01*
X12023789Y-6488360D01*
X11968060Y-6460464D01*
X11932517Y-6409272D01*
X11925856Y-6347307D01*
X11942003Y-6235004D01*
X11943729Y-6223000D01*
X11943728Y-6222996D01*
X11931346Y-6136874D01*
X11922919Y-6078266D01*
X11862176Y-5945257D01*
X11775089Y-5844753D01*
X11766421Y-5834749D01*
X11643410Y-5755695D01*
X11503112Y-5714500D01*
X11503111Y-5714500D01*
X11356889Y-5714500D01*
X11356888Y-5714500D01*
X11216589Y-5755695D01*
X11093578Y-5834749D01*
X10997824Y-5945256D01*
X10937080Y-6078268D01*
X10916270Y-6222996D01*
X10934144Y-6347308D01*
X10927482Y-6409273D01*
X10891938Y-6460465D01*
X10836209Y-6488361D01*
X10773928Y-6486136D01*
X10741111Y-6476500D01*
X10594889Y-6476500D01*
X10594888Y-6476500D01*
X10454589Y-6517695D01*
X10355121Y-6581620D01*
X10287000Y-6601622D01*
X10218880Y-6581620D01*
X10149021Y-6536725D01*
X10109944Y-6496945D01*
X10091863Y-6444196D01*
X10098318Y-6388809D01*
X10128042Y-6341636D01*
X11022077Y-5447602D01*
X11062952Y-5420291D01*
X11111170Y-5410700D01*
X14102222Y-5410700D01*
X14168552Y-5429573D01*
X14215013Y-5480537D01*
X14227685Y-5548326D01*
X14202772Y-5612632D01*
X14086903Y-5766066D01*
X13995665Y-5949297D01*
X13939647Y-6146180D01*
X13920760Y-6349999D01*
X13939647Y-6553819D01*
X13995665Y-6750702D01*
X14086903Y-6933933D01*
X14125467Y-6985000D01*
X14210261Y-7097285D01*
X14361531Y-7235186D01*
X14535566Y-7342944D01*
X14726437Y-7416888D01*
X14927646Y-7454500D01*
X15132338Y-7454500D01*
X15132340Y-7454500D01*
X15333549Y-7416888D01*
X15524420Y-7342944D01*
X15698455Y-7235186D01*
X15849725Y-7097285D01*
X15973081Y-6933935D01*
X16064321Y-6750701D01*
X16120338Y-6553821D01*
X16139225Y-6350000D01*
X16138975Y-6347307D01*
X16120338Y-6146180D01*
X16120337Y-6146175D01*
X16064321Y-5949299D01*
X16012263Y-5844753D01*
X15973082Y-5766066D01*
X15857214Y-5612632D01*
X15832301Y-5548326D01*
X15844973Y-5480537D01*
X15891434Y-5429573D01*
X15957764Y-5410700D01*
X16642222Y-5410700D01*
X16708552Y-5429573D01*
X16755013Y-5480537D01*
X16767685Y-5548326D01*
X16742772Y-5612632D01*
X16626903Y-5766066D01*
X16535665Y-5949297D01*
X16479647Y-6146180D01*
X16460760Y-6349999D01*
X16479647Y-6553819D01*
X16535665Y-6750702D01*
X16626903Y-6933933D01*
X16665467Y-6985000D01*
X16750261Y-7097285D01*
X16901531Y-7235186D01*
X17075566Y-7342944D01*
X17266437Y-7416888D01*
X17467646Y-7454500D01*
X17672338Y-7454500D01*
X17672340Y-7454500D01*
X17873549Y-7416888D01*
X18064420Y-7342944D01*
X18238455Y-7235186D01*
X18389725Y-7097285D01*
X18513081Y-6933935D01*
X18604321Y-6750701D01*
X18660338Y-6553821D01*
X18679225Y-6350000D01*
X18678975Y-6347307D01*
X18660338Y-6146180D01*
X18660337Y-6146175D01*
X18604321Y-5949299D01*
X18552263Y-5844753D01*
X18513082Y-5766066D01*
X18397214Y-5612632D01*
X18372301Y-5548326D01*
X18384973Y-5480537D01*
X18431434Y-5429573D01*
X18497764Y-5410700D01*
X19182222Y-5410700D01*
X19248552Y-5429573D01*
X19295013Y-5480537D01*
X19307685Y-5548326D01*
X19282772Y-5612632D01*
X19166903Y-5766066D01*
X19075665Y-5949297D01*
X19019647Y-6146180D01*
X19000760Y-6349999D01*
X19019647Y-6553819D01*
X19075665Y-6750702D01*
X19166903Y-6933933D01*
X19205467Y-6985000D01*
X19290261Y-7097285D01*
X19441531Y-7235186D01*
X19615566Y-7342944D01*
X19806437Y-7416888D01*
X20007646Y-7454500D01*
X20212338Y-7454500D01*
X20212340Y-7454500D01*
X20413549Y-7416888D01*
X20604420Y-7342944D01*
X20778455Y-7235186D01*
X20929725Y-7097285D01*
X21053081Y-6933935D01*
X21144321Y-6750701D01*
X21200338Y-6553821D01*
X21219225Y-6350000D01*
X21218975Y-6347307D01*
X21200338Y-6146180D01*
X21200337Y-6146175D01*
X21144321Y-5949299D01*
X21092263Y-5844753D01*
X21053082Y-5766066D01*
X20937214Y-5612632D01*
X20912301Y-5548326D01*
X20924973Y-5480537D01*
X20971434Y-5429573D01*
X21037764Y-5410700D01*
X21722222Y-5410700D01*
X21788552Y-5429573D01*
X21835013Y-5480537D01*
X21847685Y-5548326D01*
X21822772Y-5612632D01*
X21706903Y-5766066D01*
X21615665Y-5949297D01*
X21559647Y-6146180D01*
X21540760Y-6349999D01*
X21559647Y-6553819D01*
X21615665Y-6750702D01*
X21706903Y-6933933D01*
X21745467Y-6985000D01*
X21830261Y-7097285D01*
X21981531Y-7235186D01*
X22155566Y-7342944D01*
X22346437Y-7416888D01*
X22547646Y-7454500D01*
X22752338Y-7454500D01*
X22752340Y-7454500D01*
X22953549Y-7416888D01*
X23144420Y-7342944D01*
X23318455Y-7235186D01*
X23469725Y-7097285D01*
X23593081Y-6933935D01*
X23684321Y-6750701D01*
X23740338Y-6553821D01*
X23759225Y-6350000D01*
X23758975Y-6347307D01*
X23740338Y-6146180D01*
X23740337Y-6146175D01*
X23684321Y-5949299D01*
X23632263Y-5844753D01*
X23593082Y-5766066D01*
X23477214Y-5612632D01*
X23452301Y-5548326D01*
X23464973Y-5480537D01*
X23511434Y-5429573D01*
X23577764Y-5410700D01*
X24262222Y-5410700D01*
X24328552Y-5429573D01*
X24375013Y-5480537D01*
X24387685Y-5548326D01*
X24362772Y-5612632D01*
X24246903Y-5766066D01*
X24155665Y-5949297D01*
X24099647Y-6146180D01*
X24080760Y-6349999D01*
X24099647Y-6553819D01*
X24155665Y-6750702D01*
X24246903Y-6933933D01*
X24285467Y-6985000D01*
X24370261Y-7097285D01*
X24521531Y-7235186D01*
X24695566Y-7342944D01*
X24886437Y-7416888D01*
X25087646Y-7454500D01*
X25292338Y-7454500D01*
X25292340Y-7454500D01*
X25493549Y-7416888D01*
X25684420Y-7342944D01*
X25858455Y-7235186D01*
X26009725Y-7097285D01*
X26133081Y-6933935D01*
X26224321Y-6750701D01*
X26280338Y-6553821D01*
X26299225Y-6350000D01*
X26298975Y-6347307D01*
X26280338Y-6146180D01*
X26280337Y-6146175D01*
X26224321Y-5949299D01*
X26172263Y-5844753D01*
X26133082Y-5766066D01*
X26017214Y-5612632D01*
X25992301Y-5548326D01*
X26004973Y-5480537D01*
X26051434Y-5429573D01*
X26117764Y-5410700D01*
X26802222Y-5410700D01*
X26868552Y-5429573D01*
X26915013Y-5480537D01*
X26927685Y-5548326D01*
X26902772Y-5612632D01*
X26786903Y-5766066D01*
X26695665Y-5949297D01*
X26639647Y-6146180D01*
X26620760Y-6349999D01*
X26639647Y-6553819D01*
X26695665Y-6750702D01*
X26786903Y-6933933D01*
X26825467Y-6985000D01*
X26910261Y-7097285D01*
X27061531Y-7235186D01*
X27235566Y-7342944D01*
X27426437Y-7416888D01*
X27627646Y-7454500D01*
X27832338Y-7454500D01*
X27832340Y-7454500D01*
X28033549Y-7416888D01*
X28224420Y-7342944D01*
X28398455Y-7235186D01*
X28549725Y-7097285D01*
X28673081Y-6933935D01*
X28764321Y-6750701D01*
X28820338Y-6553821D01*
X28839225Y-6350000D01*
X28838975Y-6347307D01*
X28820338Y-6146180D01*
X28820337Y-6146175D01*
X28764321Y-5949299D01*
X28712263Y-5844753D01*
X28673082Y-5766066D01*
X28557214Y-5612632D01*
X28532301Y-5548326D01*
X28544973Y-5480537D01*
X28591434Y-5429573D01*
X28657764Y-5410700D01*
X29342222Y-5410700D01*
X29408552Y-5429573D01*
X29455013Y-5480537D01*
X29467685Y-5548326D01*
X29442772Y-5612632D01*
X29326903Y-5766066D01*
X29235665Y-5949297D01*
X29179647Y-6146180D01*
X29160760Y-6349999D01*
X29179647Y-6553819D01*
X29235665Y-6750702D01*
X29326903Y-6933933D01*
X29365467Y-6985000D01*
X29450261Y-7097285D01*
X29601531Y-7235186D01*
X29775566Y-7342944D01*
X29966437Y-7416888D01*
X30167646Y-7454500D01*
X30372338Y-7454500D01*
X30372340Y-7454500D01*
X30573549Y-7416888D01*
X30764420Y-7342944D01*
X30938455Y-7235186D01*
X31089725Y-7097285D01*
X31213081Y-6933935D01*
X31304321Y-6750701D01*
X31360338Y-6553821D01*
X31379225Y-6350000D01*
X31378975Y-6347307D01*
X31360338Y-6146180D01*
X31360337Y-6146175D01*
X31304321Y-5949299D01*
X31252263Y-5844753D01*
X31213082Y-5766066D01*
X31097214Y-5612632D01*
X31072301Y-5548326D01*
X31084973Y-5480537D01*
X31131434Y-5429573D01*
X31197764Y-5410700D01*
X31882222Y-5410700D01*
X31948552Y-5429573D01*
X31995013Y-5480537D01*
X32007685Y-5548326D01*
X31982772Y-5612632D01*
X31866903Y-5766066D01*
X31775665Y-5949297D01*
X31719647Y-6146180D01*
X31700760Y-6349999D01*
X31719647Y-6553819D01*
X31775665Y-6750702D01*
X31866903Y-6933933D01*
X31905467Y-6985000D01*
X31990261Y-7097285D01*
X32141531Y-7235186D01*
X32315566Y-7342944D01*
X32506437Y-7416888D01*
X32707646Y-7454500D01*
X32912338Y-7454500D01*
X32912340Y-7454500D01*
X33113549Y-7416888D01*
X33304420Y-7342944D01*
X33478455Y-7235186D01*
X33629725Y-7097285D01*
X33753081Y-6933935D01*
X33844321Y-6750701D01*
X33900338Y-6553821D01*
X33919225Y-6350000D01*
X33918975Y-6347307D01*
X33900338Y-6146180D01*
X33900337Y-6146175D01*
X33844321Y-5949299D01*
X33792263Y-5844753D01*
X33753082Y-5766066D01*
X33637214Y-5612632D01*
X33612301Y-5548326D01*
X33624973Y-5480537D01*
X33671434Y-5429573D01*
X33737764Y-5410700D01*
X34422222Y-5410700D01*
X34488552Y-5429573D01*
X34535013Y-5480537D01*
X34547685Y-5548326D01*
X34522772Y-5612632D01*
X34406903Y-5766066D01*
X34315665Y-5949297D01*
X34259647Y-6146180D01*
X34240760Y-6349999D01*
X34259647Y-6553819D01*
X34315665Y-6750702D01*
X34406903Y-6933933D01*
X34445467Y-6985000D01*
X34530261Y-7097285D01*
X34681531Y-7235186D01*
X34855566Y-7342944D01*
X35046437Y-7416888D01*
X35247646Y-7454500D01*
X35452338Y-7454500D01*
X35452340Y-7454500D01*
X35653549Y-7416888D01*
X35844420Y-7342944D01*
X36008031Y-7241639D01*
X36065633Y-7223070D01*
X36125252Y-7233504D01*
X36173128Y-7270533D01*
X36198213Y-7325615D01*
X36194720Y-7386039D01*
X36163455Y-7437863D01*
X35891725Y-7709595D01*
X35850847Y-7736909D01*
X35802629Y-7746500D01*
X35740888Y-7746500D01*
X35600589Y-7787695D01*
X35477578Y-7866749D01*
X35381824Y-7977256D01*
X35321080Y-8110268D01*
X35300270Y-8254999D01*
X35321080Y-8399731D01*
X35321080Y-8399732D01*
X35321081Y-8399734D01*
X35370979Y-8508996D01*
X35381824Y-8532743D01*
X35477578Y-8643250D01*
X35600589Y-8722304D01*
X35740888Y-8763500D01*
X35740889Y-8763500D01*
X35887111Y-8763500D01*
X35887112Y-8763500D01*
X35957261Y-8742901D01*
X36027411Y-8722304D01*
X36150421Y-8643250D01*
X36246176Y-8532743D01*
X36306919Y-8399734D01*
X36327729Y-8255000D01*
X36327729Y-8254999D01*
X36329494Y-8242726D01*
X36341539Y-8204258D01*
X36365113Y-8171565D01*
X36795757Y-7740922D01*
X36803825Y-7733529D01*
X36833239Y-7708849D01*
X36852431Y-7675605D01*
X36858308Y-7666380D01*
X36880340Y-7634916D01*
X36880340Y-7634912D01*
X36880970Y-7634014D01*
X36891359Y-7608932D01*
X36891548Y-7607854D01*
X36891551Y-7607851D01*
X36898217Y-7570036D01*
X36900590Y-7559336D01*
X36910524Y-7522267D01*
X36907178Y-7484031D01*
X36906700Y-7473052D01*
X36906700Y-7233542D01*
X36919909Y-7177379D01*
X36956768Y-7132992D01*
X37009548Y-7109687D01*
X37067182Y-7112352D01*
X37117584Y-7140426D01*
X37221531Y-7235186D01*
X37294502Y-7280368D01*
X37395563Y-7342943D01*
X37395566Y-7342944D01*
X37558760Y-7406165D01*
X37608391Y-7441058D01*
X37635963Y-7495106D01*
X37635078Y-7555773D01*
X37605941Y-7608993D01*
X37590734Y-7625512D01*
X37587128Y-7629269D01*
X35855801Y-9360597D01*
X35814927Y-9387909D01*
X35766709Y-9397500D01*
X35740888Y-9397500D01*
X35600589Y-9438695D01*
X35477578Y-9517749D01*
X35381824Y-9628256D01*
X35321080Y-9761268D01*
X35300270Y-9906000D01*
X35321080Y-10050731D01*
X35321080Y-10050732D01*
X35321081Y-10050734D01*
X35359516Y-10134895D01*
X35381824Y-10183743D01*
X35477578Y-10294250D01*
X35600589Y-10373304D01*
X35740888Y-10414500D01*
X35740889Y-10414500D01*
X35887111Y-10414500D01*
X35887112Y-10414500D01*
X35957260Y-10393902D01*
X36027411Y-10373304D01*
X36150421Y-10294250D01*
X36246176Y-10183743D01*
X36306919Y-10050734D01*
X36323461Y-9935678D01*
X36335507Y-9897210D01*
X36359078Y-9864521D01*
X37956598Y-8267002D01*
X37997473Y-8239691D01*
X38045691Y-8230100D01*
X40590000Y-8230100D01*
X40615857Y-8232782D01*
X40625081Y-8234716D01*
X40654346Y-8231068D01*
X40669253Y-8230142D01*
X40669505Y-8230100D01*
X40669508Y-8230100D01*
X40688801Y-8226879D01*
X40693919Y-8226134D01*
X40743013Y-8220015D01*
X40743015Y-8220013D01*
X40750547Y-8219075D01*
X40757220Y-8215463D01*
X40757224Y-8215463D01*
X40800762Y-8191900D01*
X40805344Y-8189541D01*
X40849782Y-8167819D01*
X40849784Y-8167816D01*
X40856606Y-8164482D01*
X40861744Y-8158899D01*
X40861746Y-8158899D01*
X40895279Y-8122470D01*
X40898814Y-8118785D01*
X42782598Y-6235002D01*
X42823473Y-6207691D01*
X42871691Y-6198100D01*
X43520178Y-6198100D01*
X43572517Y-6209485D01*
X43589310Y-6222055D01*
X43590339Y-6220456D01*
X43728589Y-6309304D01*
X43868888Y-6350500D01*
X43868889Y-6350500D01*
X44015111Y-6350500D01*
X44015112Y-6350500D01*
X44117274Y-6320502D01*
X44155411Y-6309304D01*
X44278421Y-6230250D01*
X44374176Y-6119743D01*
X44434919Y-5986734D01*
X44455729Y-5842000D01*
X47289255Y-5842000D01*
X47309349Y-5994636D01*
X47368266Y-6136874D01*
X47461986Y-6259013D01*
X47584125Y-6352733D01*
X47584126Y-6352733D01*
X47584127Y-6352734D01*
X47726363Y-6411650D01*
X47879000Y-6431745D01*
X48031637Y-6411650D01*
X48173873Y-6352734D01*
X48296013Y-6259013D01*
X48389734Y-6136873D01*
X48448650Y-5994637D01*
X48468745Y-5842000D01*
X48448650Y-5689363D01*
X48389734Y-5547128D01*
X48333775Y-5474200D01*
X48310727Y-5424771D01*
X48310727Y-5370228D01*
X48333778Y-5320796D01*
X48389734Y-5247873D01*
X48448650Y-5105637D01*
X48468745Y-4953000D01*
X48448650Y-4800363D01*
X48409173Y-4705058D01*
X51956506Y-4705058D01*
X51971271Y-4779290D01*
X52027521Y-4863474D01*
X52083571Y-4900925D01*
X52111705Y-4919724D01*
X52185939Y-4934490D01*
X53936072Y-4934489D01*
X53936074Y-4934489D01*
X53985562Y-4924645D01*
X54010307Y-4919724D01*
X54094490Y-4863474D01*
X54150740Y-4779291D01*
X54165506Y-4705057D01*
X54165505Y-2954924D01*
X54165505Y-2954923D01*
X54165505Y-2954921D01*
X54150740Y-2880689D01*
X54094490Y-2796505D01*
X54010307Y-2740256D01*
X54010306Y-2740255D01*
X53936072Y-2725490D01*
X52185937Y-2725490D01*
X52111705Y-2740255D01*
X52027521Y-2796505D01*
X51971272Y-2880688D01*
X51956506Y-2954923D01*
X51956506Y-4705058D01*
X48409173Y-4705058D01*
X48389734Y-4658128D01*
X48333775Y-4585200D01*
X48310727Y-4535771D01*
X48310727Y-4481228D01*
X48333778Y-4431796D01*
X48389734Y-4358873D01*
X48448650Y-4216637D01*
X48468745Y-4064000D01*
X48448650Y-3911363D01*
X48389734Y-3769128D01*
X48296013Y-3646987D01*
X48296011Y-3646985D01*
X48296010Y-3646984D01*
X48173874Y-3553266D01*
X48031636Y-3494349D01*
X47879000Y-3474255D01*
X47726364Y-3494349D01*
X47584128Y-3553266D01*
X47461987Y-3646987D01*
X47368266Y-3769128D01*
X47309349Y-3911364D01*
X47289255Y-4063999D01*
X47309349Y-4216636D01*
X47368266Y-4358875D01*
X47424221Y-4431796D01*
X47447272Y-4481228D01*
X47447272Y-4535771D01*
X47424222Y-4585203D01*
X47368267Y-4658125D01*
X47309349Y-4800364D01*
X47289255Y-4952999D01*
X47309349Y-5105636D01*
X47368266Y-5247875D01*
X47424221Y-5320796D01*
X47447272Y-5370228D01*
X47447272Y-5424771D01*
X47424222Y-5474203D01*
X47368267Y-5547125D01*
X47309349Y-5689364D01*
X47289255Y-5842000D01*
X44455729Y-5842000D01*
X44454686Y-5834749D01*
X44443320Y-5755695D01*
X44434919Y-5697266D01*
X44374176Y-5564257D01*
X44339358Y-5524075D01*
X44278421Y-5453749D01*
X44155410Y-5374695D01*
X44015112Y-5333500D01*
X44015111Y-5333500D01*
X43868889Y-5333500D01*
X43868888Y-5333500D01*
X43728589Y-5374695D01*
X43590339Y-5463544D01*
X43589310Y-5461944D01*
X43572517Y-5474515D01*
X43520178Y-5485900D01*
X42722000Y-5485900D01*
X42696143Y-5483218D01*
X42686918Y-5481283D01*
X42657654Y-5484932D01*
X42642738Y-5485858D01*
X42623206Y-5489117D01*
X42618060Y-5489867D01*
X42561449Y-5496924D01*
X42511279Y-5524075D01*
X42506652Y-5526457D01*
X42455394Y-5551516D01*
X42416733Y-5593513D01*
X42413128Y-5597269D01*
X41739292Y-6271105D01*
X41677626Y-6304988D01*
X41607406Y-6300521D01*
X41550530Y-6259097D01*
X41524735Y-6193638D01*
X41520338Y-6146179D01*
X41464321Y-5949299D01*
X41412263Y-5844753D01*
X41373082Y-5766066D01*
X41334030Y-5714353D01*
X41249725Y-5602715D01*
X41098455Y-5464814D01*
X41034132Y-5424987D01*
X40924421Y-5357056D01*
X40785149Y-5303102D01*
X40733549Y-5283112D01*
X40532340Y-5245500D01*
X40327646Y-5245500D01*
X40126437Y-5283111D01*
X40126437Y-5283112D01*
X39935564Y-5357056D01*
X39761532Y-5464813D01*
X39744284Y-5480537D01*
X39652449Y-5564256D01*
X39610260Y-5602716D01*
X39486903Y-5766066D01*
X39395665Y-5949297D01*
X39339647Y-6146180D01*
X39320760Y-6349999D01*
X39339647Y-6553819D01*
X39395665Y-6750702D01*
X39486903Y-6933933D01*
X39525467Y-6985000D01*
X39610261Y-7097285D01*
X39761531Y-7235186D01*
X39785460Y-7250002D01*
X39841616Y-7284773D01*
X39885923Y-7331608D01*
X39901263Y-7394229D01*
X39883620Y-7456240D01*
X39837612Y-7501405D01*
X39775285Y-7517900D01*
X38544701Y-7517900D01*
X38482374Y-7501405D01*
X38436366Y-7456240D01*
X38418723Y-7394229D01*
X38434063Y-7331608D01*
X38478370Y-7284773D01*
X38501368Y-7270533D01*
X38558455Y-7235186D01*
X38709725Y-7097285D01*
X38833081Y-6933935D01*
X38924321Y-6750701D01*
X38980338Y-6553821D01*
X38999225Y-6350000D01*
X38998975Y-6347307D01*
X38980338Y-6146180D01*
X38980337Y-6146175D01*
X38924321Y-5949299D01*
X38872263Y-5844753D01*
X38833082Y-5766066D01*
X38794030Y-5714353D01*
X38709725Y-5602715D01*
X38558455Y-5464814D01*
X38494132Y-5424987D01*
X38384421Y-5357056D01*
X38245149Y-5303102D01*
X38193549Y-5283112D01*
X37992340Y-5245500D01*
X37787646Y-5245500D01*
X37586437Y-5283111D01*
X37586437Y-5283112D01*
X37395564Y-5357056D01*
X37221532Y-5464813D01*
X37070258Y-5602717D01*
X37042859Y-5639000D01*
X36994973Y-5677534D01*
X36934554Y-5688828D01*
X36875981Y-5670196D01*
X36833413Y-5626297D01*
X36803846Y-5601487D01*
X36795743Y-5594062D01*
X36061942Y-4860262D01*
X36054515Y-4852157D01*
X36041989Y-4837229D01*
X36014736Y-4779814D01*
X36018975Y-4716400D01*
X36053626Y-4663123D01*
X36169725Y-4557285D01*
X36293081Y-4393935D01*
X36384321Y-4210701D01*
X36440338Y-4013821D01*
X36459225Y-3810000D01*
X36459225Y-3809999D01*
X36780760Y-3809999D01*
X36799647Y-4013819D01*
X36855665Y-4210702D01*
X36946903Y-4393933D01*
X36946905Y-4393935D01*
X37070261Y-4557285D01*
X37221531Y-4695186D01*
X37333698Y-4764637D01*
X37391397Y-4800363D01*
X37395566Y-4802944D01*
X37586437Y-4876888D01*
X37787646Y-4914500D01*
X37992338Y-4914500D01*
X37992340Y-4914500D01*
X38193549Y-4876888D01*
X38384420Y-4802944D01*
X38558455Y-4695186D01*
X38709725Y-4557285D01*
X38833081Y-4393935D01*
X38924321Y-4210701D01*
X38980338Y-4013821D01*
X38999225Y-3810000D01*
X38999225Y-3809999D01*
X39320760Y-3809999D01*
X39339647Y-4013819D01*
X39395665Y-4210702D01*
X39486903Y-4393933D01*
X39486905Y-4393935D01*
X39610261Y-4557285D01*
X39761531Y-4695186D01*
X39873698Y-4764637D01*
X39931397Y-4800363D01*
X39935566Y-4802944D01*
X40126437Y-4876888D01*
X40327646Y-4914500D01*
X40532338Y-4914500D01*
X40532340Y-4914500D01*
X40733549Y-4876888D01*
X40924420Y-4802944D01*
X41098455Y-4695186D01*
X41249725Y-4557285D01*
X41373081Y-4393935D01*
X41464321Y-4210701D01*
X41520338Y-4013821D01*
X41539225Y-3810000D01*
X41520338Y-3606179D01*
X41464321Y-3409299D01*
X41373213Y-3226330D01*
X41373082Y-3226066D01*
X41342879Y-3186072D01*
X41249725Y-3062715D01*
X41098455Y-2924814D01*
X40995221Y-2860894D01*
X40924421Y-2817056D01*
X40785146Y-2763101D01*
X40733549Y-2743112D01*
X40532340Y-2705500D01*
X40327646Y-2705500D01*
X40126437Y-2743111D01*
X40126437Y-2743112D01*
X39935564Y-2817056D01*
X39761532Y-2924813D01*
X39610260Y-3062716D01*
X39486903Y-3226066D01*
X39395665Y-3409297D01*
X39339647Y-3606180D01*
X39320760Y-3809999D01*
X38999225Y-3809999D01*
X38980338Y-3606179D01*
X38924321Y-3409299D01*
X38833213Y-3226330D01*
X38833082Y-3226066D01*
X38802879Y-3186072D01*
X38709725Y-3062715D01*
X38558455Y-2924814D01*
X38455221Y-2860894D01*
X38384421Y-2817056D01*
X38245146Y-2763101D01*
X38193549Y-2743112D01*
X37992340Y-2705500D01*
X37787646Y-2705500D01*
X37586437Y-2743111D01*
X37586437Y-2743112D01*
X37395564Y-2817056D01*
X37221532Y-2924813D01*
X37070260Y-3062716D01*
X36946903Y-3226066D01*
X36855665Y-3409297D01*
X36799647Y-3606180D01*
X36780760Y-3809999D01*
X36459225Y-3809999D01*
X36440338Y-3606179D01*
X36384321Y-3409299D01*
X36293213Y-3226330D01*
X36293082Y-3226066D01*
X36262879Y-3186072D01*
X36169725Y-3062715D01*
X36018455Y-2924814D01*
X35915221Y-2860894D01*
X35844421Y-2817056D01*
X35705146Y-2763101D01*
X35653549Y-2743112D01*
X35452340Y-2705500D01*
X35247646Y-2705500D01*
X35046437Y-2743111D01*
X35046437Y-2743112D01*
X34855564Y-2817056D01*
X34681532Y-2924813D01*
X34530260Y-3062716D01*
X34406903Y-3226066D01*
X34315665Y-3409297D01*
X34259647Y-3606180D01*
X34240760Y-3809999D01*
X34259647Y-4013819D01*
X34315665Y-4210702D01*
X34406903Y-4393933D01*
X34522772Y-4547368D01*
X34547685Y-4611674D01*
X34535013Y-4679463D01*
X34488552Y-4730427D01*
X34422222Y-4749300D01*
X33737138Y-4749300D01*
X33670808Y-4730427D01*
X33624347Y-4679463D01*
X33611675Y-4611674D01*
X33636588Y-4547368D01*
X33752655Y-4393669D01*
X33843852Y-4210522D01*
X33885542Y-4064000D01*
X31734444Y-4064000D01*
X31776133Y-4210522D01*
X31867330Y-4393669D01*
X31983398Y-4547368D01*
X32008311Y-4611674D01*
X31995639Y-4679463D01*
X31949178Y-4730427D01*
X31882848Y-4749300D01*
X31197138Y-4749300D01*
X31130808Y-4730427D01*
X31084347Y-4679463D01*
X31071675Y-4611674D01*
X31096588Y-4547368D01*
X31212655Y-4393669D01*
X31303852Y-4210522D01*
X31345542Y-4064000D01*
X29194444Y-4064000D01*
X29236133Y-4210522D01*
X29327330Y-4393669D01*
X29443398Y-4547368D01*
X29468311Y-4611674D01*
X29455639Y-4679463D01*
X29409178Y-4730427D01*
X29342848Y-4749300D01*
X28657138Y-4749300D01*
X28590808Y-4730427D01*
X28544347Y-4679463D01*
X28531675Y-4611674D01*
X28556588Y-4547368D01*
X28672655Y-4393669D01*
X28763852Y-4210522D01*
X28805542Y-4064000D01*
X26654444Y-4064000D01*
X26696133Y-4210522D01*
X26787330Y-4393669D01*
X26903398Y-4547368D01*
X26928311Y-4611674D01*
X26915639Y-4679463D01*
X26869178Y-4730427D01*
X26802848Y-4749300D01*
X26117138Y-4749300D01*
X26050808Y-4730427D01*
X26004347Y-4679463D01*
X25991675Y-4611674D01*
X26016588Y-4547368D01*
X26132655Y-4393669D01*
X26223852Y-4210522D01*
X26265542Y-4064000D01*
X24114444Y-4064000D01*
X24156133Y-4210522D01*
X24247330Y-4393669D01*
X24363398Y-4547368D01*
X24388311Y-4611674D01*
X24375639Y-4679463D01*
X24329178Y-4730427D01*
X24262848Y-4749300D01*
X23577138Y-4749300D01*
X23510808Y-4730427D01*
X23464347Y-4679463D01*
X23451675Y-4611674D01*
X23476588Y-4547368D01*
X23592655Y-4393669D01*
X23683852Y-4210522D01*
X23725542Y-4064000D01*
X21574444Y-4064000D01*
X21616133Y-4210522D01*
X21707330Y-4393669D01*
X21823398Y-4547368D01*
X21848311Y-4611674D01*
X21835639Y-4679463D01*
X21789178Y-4730427D01*
X21722848Y-4749300D01*
X21037138Y-4749300D01*
X20970808Y-4730427D01*
X20924347Y-4679463D01*
X20911675Y-4611674D01*
X20936588Y-4547368D01*
X21052655Y-4393669D01*
X21143852Y-4210522D01*
X21185542Y-4064000D01*
X19034444Y-4064000D01*
X19076133Y-4210522D01*
X19167330Y-4393669D01*
X19283398Y-4547368D01*
X19308311Y-4611674D01*
X19295639Y-4679463D01*
X19249178Y-4730427D01*
X19182848Y-4749300D01*
X18497138Y-4749300D01*
X18430808Y-4730427D01*
X18384347Y-4679463D01*
X18371675Y-4611674D01*
X18396588Y-4547368D01*
X18512655Y-4393669D01*
X18603852Y-4210522D01*
X18645542Y-4064000D01*
X16494444Y-4064000D01*
X16536133Y-4210522D01*
X16627330Y-4393669D01*
X16743398Y-4547368D01*
X16768311Y-4611674D01*
X16755639Y-4679463D01*
X16709178Y-4730427D01*
X16642848Y-4749300D01*
X16259993Y-4749300D01*
X16196993Y-4732419D01*
X16150874Y-4686300D01*
X16133993Y-4623300D01*
X16133993Y-4064000D01*
X13925994Y-4064000D01*
X13925994Y-4623300D01*
X13909113Y-4686300D01*
X13862994Y-4732419D01*
X13799994Y-4749300D01*
X10941949Y-4749300D01*
X10930968Y-4748821D01*
X10892730Y-4745475D01*
X10855672Y-4755405D01*
X10844945Y-4757783D01*
X10806078Y-4764637D01*
X10780975Y-4775034D01*
X10748648Y-4797669D01*
X10739386Y-4803570D01*
X10706153Y-4822759D01*
X10681476Y-4852166D01*
X10674052Y-4860266D01*
X8679358Y-6854960D01*
X8621424Y-6887951D01*
X8554765Y-6886761D01*
X8455112Y-6857500D01*
X8455111Y-6857500D01*
X8308889Y-6857500D01*
X8308888Y-6857500D01*
X8168589Y-6898695D01*
X8045578Y-6977749D01*
X7949824Y-7088256D01*
X7889080Y-7221268D01*
X7868270Y-7366000D01*
X3861300Y-7366000D01*
X3861300Y-5334000D01*
X8376270Y-5334000D01*
X8397080Y-5478731D01*
X8397080Y-5478732D01*
X8397081Y-5478734D01*
X8436138Y-5564257D01*
X8457824Y-5611743D01*
X8553578Y-5722250D01*
X8676589Y-5801304D01*
X8816888Y-5842500D01*
X8816889Y-5842500D01*
X8963111Y-5842500D01*
X8963112Y-5842500D01*
X9033260Y-5821902D01*
X9103411Y-5801304D01*
X9226421Y-5722250D01*
X9322176Y-5611743D01*
X9382919Y-5478734D01*
X9403729Y-5334000D01*
X9382919Y-5189266D01*
X9322176Y-5056257D01*
X9309392Y-5041504D01*
X9226421Y-4945749D01*
X9103410Y-4866695D01*
X8963112Y-4825500D01*
X8963111Y-4825500D01*
X8816889Y-4825500D01*
X8816888Y-4825500D01*
X8676589Y-4866695D01*
X8553578Y-4945749D01*
X8457824Y-5056256D01*
X8397080Y-5189268D01*
X8376270Y-5334000D01*
X3861300Y-5334000D01*
X3861300Y-4311072D01*
X3879400Y-4246006D01*
X3928500Y-4199633D01*
X3994493Y-4185278D01*
X4058420Y-4207063D01*
X4101912Y-4258728D01*
X4125817Y-4311072D01*
X4139824Y-4341743D01*
X4235578Y-4452250D01*
X4358589Y-4531304D01*
X4498888Y-4572500D01*
X4498889Y-4572500D01*
X4645111Y-4572500D01*
X4645112Y-4572500D01*
X4715260Y-4551902D01*
X4785411Y-4531304D01*
X4884880Y-4467378D01*
X4929153Y-4449654D01*
X4976844Y-4449654D01*
X5021120Y-4467379D01*
X5120589Y-4531304D01*
X5260888Y-4572500D01*
X5260889Y-4572500D01*
X5407111Y-4572500D01*
X5407112Y-4572500D01*
X5477260Y-4551902D01*
X5547411Y-4531304D01*
X5670421Y-4452250D01*
X5766176Y-4341743D01*
X5826919Y-4208734D01*
X5847729Y-4064000D01*
X5826919Y-3919266D01*
X5766176Y-3786257D01*
X5670421Y-3675750D01*
X5658557Y-3662058D01*
X5658851Y-3661802D01*
X5637125Y-3639684D01*
X5619045Y-3586934D01*
X5622651Y-3556000D01*
X13925993Y-3556000D01*
X14775993Y-3556000D01*
X14775993Y-2706001D01*
X14154975Y-2706001D01*
X14080887Y-2720736D01*
X13996868Y-2776876D01*
X13940729Y-2860893D01*
X13925993Y-2934981D01*
X13925993Y-3556000D01*
X5622651Y-3556000D01*
X5625501Y-3531546D01*
X5655227Y-3484373D01*
X5698598Y-3441002D01*
X5739475Y-3413691D01*
X5787692Y-3404100D01*
X12650000Y-3404100D01*
X12675857Y-3406782D01*
X12685081Y-3408716D01*
X12714346Y-3405068D01*
X12729253Y-3404142D01*
X12729505Y-3404100D01*
X12729508Y-3404100D01*
X12748801Y-3400879D01*
X12753919Y-3400134D01*
X12803013Y-3394015D01*
X12803015Y-3394013D01*
X12810547Y-3393075D01*
X12817220Y-3389463D01*
X12817224Y-3389463D01*
X12860762Y-3365900D01*
X12865344Y-3363541D01*
X12909782Y-3341819D01*
X12909784Y-3341816D01*
X12916606Y-3338482D01*
X12921744Y-3332899D01*
X12921746Y-3332899D01*
X12955279Y-3296470D01*
X12958838Y-3292761D01*
X13545599Y-2706000D01*
X15283993Y-2706000D01*
X15283993Y-3556000D01*
X16133992Y-3556000D01*
X16133992Y-3555999D01*
X16494443Y-3555999D01*
X16494444Y-3556000D01*
X17315993Y-3556000D01*
X17315993Y-2734358D01*
X17823993Y-2734358D01*
X17823993Y-3556000D01*
X18645542Y-3556000D01*
X18645542Y-3555999D01*
X19034443Y-3555999D01*
X19034444Y-3556000D01*
X19855993Y-3556000D01*
X19855993Y-2734358D01*
X20363993Y-2734358D01*
X20363993Y-3556000D01*
X21185542Y-3556000D01*
X21185542Y-3555999D01*
X21574443Y-3555999D01*
X21574444Y-3556000D01*
X22395993Y-3556000D01*
X22395993Y-2734358D01*
X22903993Y-2734358D01*
X22903993Y-3556000D01*
X23725542Y-3556000D01*
X23725542Y-3555999D01*
X24114443Y-3555999D01*
X24114444Y-3556000D01*
X24935993Y-3556000D01*
X24935993Y-2734358D01*
X25443993Y-2734358D01*
X25443993Y-3556000D01*
X26265542Y-3556000D01*
X26265542Y-3555999D01*
X26654443Y-3555999D01*
X26654444Y-3556000D01*
X27475993Y-3556000D01*
X27475993Y-2734358D01*
X27983993Y-2734358D01*
X27983993Y-3556000D01*
X28805542Y-3556000D01*
X28805542Y-3555999D01*
X29194443Y-3555999D01*
X29194444Y-3556000D01*
X30015993Y-3556000D01*
X30015993Y-2734358D01*
X30523993Y-2734358D01*
X30523993Y-3556000D01*
X31345542Y-3556000D01*
X31345542Y-3555999D01*
X31734443Y-3555999D01*
X31734444Y-3556000D01*
X32555993Y-3556000D01*
X32555993Y-2734358D01*
X33063993Y-2734358D01*
X33063993Y-3556000D01*
X33885542Y-3556000D01*
X33885542Y-3555999D01*
X33843852Y-3409477D01*
X33752655Y-3226330D01*
X33629354Y-3063054D01*
X33478148Y-2925211D01*
X33304197Y-2817506D01*
X33113415Y-2743596D01*
X33063993Y-2734358D01*
X32555993Y-2734358D01*
X32506570Y-2743596D01*
X32315788Y-2817506D01*
X32141837Y-2925211D01*
X31990631Y-3063054D01*
X31867330Y-3226330D01*
X31776133Y-3409477D01*
X31734443Y-3555999D01*
X31345542Y-3555999D01*
X31303852Y-3409477D01*
X31212655Y-3226330D01*
X31089354Y-3063054D01*
X30938148Y-2925211D01*
X30764197Y-2817506D01*
X30573415Y-2743596D01*
X30523993Y-2734358D01*
X30015993Y-2734358D01*
X29966570Y-2743596D01*
X29775788Y-2817506D01*
X29601837Y-2925211D01*
X29450631Y-3063054D01*
X29327330Y-3226330D01*
X29236133Y-3409477D01*
X29194443Y-3555999D01*
X28805542Y-3555999D01*
X28763852Y-3409477D01*
X28672655Y-3226330D01*
X28549354Y-3063054D01*
X28398148Y-2925211D01*
X28224197Y-2817506D01*
X28033415Y-2743596D01*
X27983993Y-2734358D01*
X27475993Y-2734358D01*
X27426570Y-2743596D01*
X27235788Y-2817506D01*
X27061837Y-2925211D01*
X26910631Y-3063054D01*
X26787330Y-3226330D01*
X26696133Y-3409477D01*
X26654443Y-3555999D01*
X26265542Y-3555999D01*
X26223852Y-3409477D01*
X26132655Y-3226330D01*
X26009354Y-3063054D01*
X25858148Y-2925211D01*
X25684197Y-2817506D01*
X25493415Y-2743596D01*
X25443993Y-2734358D01*
X24935993Y-2734358D01*
X24886570Y-2743596D01*
X24695788Y-2817506D01*
X24521837Y-2925211D01*
X24370631Y-3063054D01*
X24247330Y-3226330D01*
X24156133Y-3409477D01*
X24114443Y-3555999D01*
X23725542Y-3555999D01*
X23683852Y-3409477D01*
X23592655Y-3226330D01*
X23469354Y-3063054D01*
X23318148Y-2925211D01*
X23144197Y-2817506D01*
X22953415Y-2743596D01*
X22903993Y-2734358D01*
X22395993Y-2734358D01*
X22346570Y-2743596D01*
X22155788Y-2817506D01*
X21981837Y-2925211D01*
X21830631Y-3063054D01*
X21707330Y-3226330D01*
X21616133Y-3409477D01*
X21574443Y-3555999D01*
X21185542Y-3555999D01*
X21143852Y-3409477D01*
X21052655Y-3226330D01*
X20929354Y-3063054D01*
X20778148Y-2925211D01*
X20604197Y-2817506D01*
X20413415Y-2743596D01*
X20363993Y-2734358D01*
X19855993Y-2734358D01*
X19806570Y-2743596D01*
X19615788Y-2817506D01*
X19441837Y-2925211D01*
X19290631Y-3063054D01*
X19167330Y-3226330D01*
X19076133Y-3409477D01*
X19034443Y-3555999D01*
X18645542Y-3555999D01*
X18603852Y-3409477D01*
X18512655Y-3226330D01*
X18389354Y-3063054D01*
X18238148Y-2925211D01*
X18064197Y-2817506D01*
X17873415Y-2743596D01*
X17823993Y-2734358D01*
X17315993Y-2734358D01*
X17266570Y-2743596D01*
X17075788Y-2817506D01*
X16901837Y-2925211D01*
X16750631Y-3063054D01*
X16627330Y-3226330D01*
X16536133Y-3409477D01*
X16494443Y-3555999D01*
X16133992Y-3555999D01*
X16133992Y-2934982D01*
X16119256Y-2860894D01*
X16063116Y-2776875D01*
X15979099Y-2720736D01*
X15905012Y-2706000D01*
X15283993Y-2706000D01*
X13545599Y-2706000D01*
X13932445Y-2319154D01*
X13952616Y-2302774D01*
X13960515Y-2297614D01*
X13978635Y-2274331D01*
X13988519Y-2263141D01*
X14000017Y-2247036D01*
X14003117Y-2242877D01*
X14033511Y-2203828D01*
X14033511Y-2203826D01*
X14038175Y-2197835D01*
X14040339Y-2190562D01*
X14040341Y-2190561D01*
X14054470Y-2143099D01*
X14056025Y-2138243D01*
X14062308Y-2119943D01*
X14096030Y-2068263D01*
X14150251Y-2038793D01*
X14211964Y-2038606D01*
X14266364Y-2067747D01*
X14361843Y-2154788D01*
X14535795Y-2262493D01*
X14726577Y-2336403D01*
X14776000Y-2345642D01*
X14776000Y-1524000D01*
X15284000Y-1524000D01*
X15284000Y-2345642D01*
X15333422Y-2336403D01*
X15524204Y-2262493D01*
X15698155Y-2154788D01*
X15849361Y-2016945D01*
X15972662Y-1853669D01*
X16063859Y-1670522D01*
X16105549Y-1524000D01*
X15284000Y-1524000D01*
X14776000Y-1524000D01*
X14776000Y-1142000D01*
X14792881Y-1079000D01*
X14839000Y-1032881D01*
X14902000Y-1016000D01*
X16105549Y-1016000D01*
X16105549Y-1015999D01*
X16063859Y-869477D01*
X15972662Y-686330D01*
X15875776Y-558032D01*
X15850863Y-493726D01*
X15863535Y-425937D01*
X15909996Y-374973D01*
X15976326Y-356100D01*
X16623048Y-356100D01*
X16689378Y-374973D01*
X16735839Y-425937D01*
X16748511Y-493726D01*
X16723598Y-558032D01*
X16626910Y-686066D01*
X16535672Y-869297D01*
X16479654Y-1066180D01*
X16460767Y-1270000D01*
X16479654Y-1473819D01*
X16535672Y-1670702D01*
X16626910Y-1853933D01*
X16626912Y-1853935D01*
X16750268Y-2017285D01*
X16901538Y-2155186D01*
X17005087Y-2219301D01*
X17074844Y-2262493D01*
X17075573Y-2262944D01*
X17266444Y-2336888D01*
X17467653Y-2374500D01*
X17672345Y-2374500D01*
X17672347Y-2374500D01*
X17873556Y-2336888D01*
X18064427Y-2262944D01*
X18238462Y-2155186D01*
X18389732Y-2017285D01*
X18513088Y-1853935D01*
X18604328Y-1670701D01*
X18660345Y-1473821D01*
X18679232Y-1270000D01*
X18660345Y-1066179D01*
X18604328Y-869299D01*
X18565902Y-792129D01*
X18513089Y-686066D01*
X18416402Y-558032D01*
X18391489Y-493726D01*
X18404161Y-425937D01*
X18450622Y-374973D01*
X18516952Y-356100D01*
X19163048Y-356100D01*
X19229378Y-374973D01*
X19275839Y-425937D01*
X19288511Y-493726D01*
X19263598Y-558032D01*
X19166910Y-686066D01*
X19075672Y-869297D01*
X19019654Y-1066180D01*
X19000767Y-1270000D01*
X19019654Y-1473819D01*
X19075672Y-1670702D01*
X19166910Y-1853933D01*
X19166912Y-1853935D01*
X19290268Y-2017285D01*
X19441538Y-2155186D01*
X19545087Y-2219301D01*
X19614844Y-2262493D01*
X19615573Y-2262944D01*
X19806444Y-2336888D01*
X20007653Y-2374500D01*
X20212345Y-2374500D01*
X20212347Y-2374500D01*
X20413556Y-2336888D01*
X20604427Y-2262944D01*
X20778462Y-2155186D01*
X20929732Y-2017285D01*
X21053088Y-1853935D01*
X21144328Y-1670701D01*
X21200345Y-1473821D01*
X21219232Y-1270000D01*
X21200345Y-1066179D01*
X21144328Y-869299D01*
X21105902Y-792129D01*
X21053089Y-686066D01*
X20956402Y-558032D01*
X20931489Y-493726D01*
X20944161Y-425937D01*
X20990622Y-374973D01*
X21056952Y-356100D01*
X21703048Y-356100D01*
X21769378Y-374973D01*
X21815839Y-425937D01*
X21828511Y-493726D01*
X21803598Y-558032D01*
X21706910Y-686066D01*
X21615672Y-869297D01*
X21559654Y-1066180D01*
X21540767Y-1270000D01*
X21559654Y-1473819D01*
X21615672Y-1670702D01*
X21706910Y-1853933D01*
X21706912Y-1853935D01*
X21830268Y-2017285D01*
X21981538Y-2155186D01*
X22085087Y-2219301D01*
X22154844Y-2262493D01*
X22155573Y-2262944D01*
X22346444Y-2336888D01*
X22547653Y-2374500D01*
X22752345Y-2374500D01*
X22752347Y-2374500D01*
X22953556Y-2336888D01*
X23144427Y-2262944D01*
X23318462Y-2155186D01*
X23469732Y-2017285D01*
X23593088Y-1853935D01*
X23684328Y-1670701D01*
X23740345Y-1473821D01*
X23759232Y-1270000D01*
X23740345Y-1066179D01*
X23684328Y-869299D01*
X23645902Y-792129D01*
X23593089Y-686066D01*
X23496402Y-558032D01*
X23471489Y-493726D01*
X23484161Y-425937D01*
X23530622Y-374973D01*
X23596952Y-356100D01*
X24243048Y-356100D01*
X24309378Y-374973D01*
X24355839Y-425937D01*
X24368511Y-493726D01*
X24343598Y-558032D01*
X24246910Y-686066D01*
X24155672Y-869297D01*
X24099654Y-1066180D01*
X24080767Y-1270000D01*
X24099654Y-1473819D01*
X24155672Y-1670702D01*
X24246910Y-1853933D01*
X24246912Y-1853935D01*
X24370268Y-2017285D01*
X24521538Y-2155186D01*
X24625087Y-2219301D01*
X24694844Y-2262493D01*
X24695573Y-2262944D01*
X24886444Y-2336888D01*
X25087653Y-2374500D01*
X25292345Y-2374500D01*
X25292347Y-2374500D01*
X25493556Y-2336888D01*
X25684427Y-2262944D01*
X25858462Y-2155186D01*
X26009732Y-2017285D01*
X26133088Y-1853935D01*
X26224328Y-1670701D01*
X26280345Y-1473821D01*
X26299232Y-1270000D01*
X26280345Y-1066179D01*
X26224328Y-869299D01*
X26185902Y-792129D01*
X26133089Y-686066D01*
X26036402Y-558032D01*
X26011489Y-493726D01*
X26024161Y-425937D01*
X26070622Y-374973D01*
X26136952Y-356100D01*
X26783048Y-356100D01*
X26849378Y-374973D01*
X26895839Y-425937D01*
X26908511Y-493726D01*
X26883598Y-558032D01*
X26786910Y-686066D01*
X26695672Y-869297D01*
X26639654Y-1066180D01*
X26620767Y-1270000D01*
X26639654Y-1473819D01*
X26695672Y-1670702D01*
X26786910Y-1853933D01*
X26786912Y-1853935D01*
X26910268Y-2017285D01*
X27061538Y-2155186D01*
X27165087Y-2219301D01*
X27234844Y-2262493D01*
X27235573Y-2262944D01*
X27426444Y-2336888D01*
X27627653Y-2374500D01*
X27832345Y-2374500D01*
X27832347Y-2374500D01*
X28033556Y-2336888D01*
X28224427Y-2262944D01*
X28398462Y-2155186D01*
X28549732Y-2017285D01*
X28673088Y-1853935D01*
X28764328Y-1670701D01*
X28820345Y-1473821D01*
X28839232Y-1270000D01*
X28820345Y-1066179D01*
X28764328Y-869299D01*
X28725902Y-792129D01*
X28673089Y-686066D01*
X28576402Y-558032D01*
X28551489Y-493726D01*
X28564161Y-425937D01*
X28610622Y-374973D01*
X28676952Y-356100D01*
X29323048Y-356100D01*
X29389378Y-374973D01*
X29435839Y-425937D01*
X29448511Y-493726D01*
X29423598Y-558032D01*
X29326910Y-686066D01*
X29235672Y-869297D01*
X29179654Y-1066180D01*
X29160767Y-1270000D01*
X29179654Y-1473819D01*
X29235672Y-1670702D01*
X29326910Y-1853933D01*
X29326912Y-1853935D01*
X29450268Y-2017285D01*
X29601538Y-2155186D01*
X29705087Y-2219301D01*
X29774844Y-2262493D01*
X29775573Y-2262944D01*
X29966444Y-2336888D01*
X30167653Y-2374500D01*
X30372345Y-2374500D01*
X30372347Y-2374500D01*
X30573556Y-2336888D01*
X30764427Y-2262944D01*
X30938462Y-2155186D01*
X31089732Y-2017285D01*
X31213088Y-1853935D01*
X31304328Y-1670701D01*
X31360345Y-1473821D01*
X31379232Y-1270000D01*
X31360345Y-1066179D01*
X31304328Y-869299D01*
X31265902Y-792129D01*
X31213089Y-686066D01*
X31116402Y-558032D01*
X31091489Y-493726D01*
X31104161Y-425937D01*
X31150622Y-374973D01*
X31216952Y-356100D01*
X31863048Y-356100D01*
X31929378Y-374973D01*
X31975839Y-425937D01*
X31988511Y-493726D01*
X31963598Y-558032D01*
X31866910Y-686066D01*
X31775672Y-869297D01*
X31719654Y-1066180D01*
X31700767Y-1270000D01*
X31719654Y-1473819D01*
X31775672Y-1670702D01*
X31866910Y-1853933D01*
X31866912Y-1853935D01*
X31990268Y-2017285D01*
X32141538Y-2155186D01*
X32245087Y-2219301D01*
X32314844Y-2262493D01*
X32315573Y-2262944D01*
X32506444Y-2336888D01*
X32707653Y-2374500D01*
X32912345Y-2374500D01*
X32912347Y-2374500D01*
X33113556Y-2336888D01*
X33304427Y-2262944D01*
X33478462Y-2155186D01*
X33629732Y-2017285D01*
X33753088Y-1853935D01*
X33844328Y-1670701D01*
X33886068Y-1524000D01*
X34274451Y-1524000D01*
X34316140Y-1670522D01*
X34407337Y-1853669D01*
X34530638Y-2016945D01*
X34681844Y-2154788D01*
X34855795Y-2262493D01*
X35046577Y-2336403D01*
X35096000Y-2345642D01*
X35096000Y-1524000D01*
X35604000Y-1524000D01*
X35604000Y-2345642D01*
X35653422Y-2336403D01*
X35844204Y-2262493D01*
X36018155Y-2154788D01*
X36169361Y-2016945D01*
X36292662Y-1853669D01*
X36383859Y-1670522D01*
X36425549Y-1524000D01*
X35604000Y-1524000D01*
X35096000Y-1524000D01*
X34274451Y-1524000D01*
X33886068Y-1524000D01*
X33900345Y-1473821D01*
X33919232Y-1270000D01*
X36780767Y-1270000D01*
X36799654Y-1473819D01*
X36855672Y-1670702D01*
X36946910Y-1853933D01*
X36946912Y-1853935D01*
X37070268Y-2017285D01*
X37221538Y-2155186D01*
X37325087Y-2219301D01*
X37394844Y-2262493D01*
X37395573Y-2262944D01*
X37586444Y-2336888D01*
X37787653Y-2374500D01*
X37992345Y-2374500D01*
X37992347Y-2374500D01*
X38193556Y-2336888D01*
X38384427Y-2262944D01*
X38558462Y-2155186D01*
X38709732Y-2017285D01*
X38833088Y-1853935D01*
X38924328Y-1670701D01*
X38980345Y-1473821D01*
X38999232Y-1270000D01*
X39320767Y-1270000D01*
X39339654Y-1473819D01*
X39395672Y-1670702D01*
X39486910Y-1853933D01*
X39486912Y-1853935D01*
X39610268Y-2017285D01*
X39761538Y-2155186D01*
X39865087Y-2219301D01*
X39934844Y-2262493D01*
X39935573Y-2262944D01*
X40126444Y-2336888D01*
X40327653Y-2374500D01*
X40532345Y-2374500D01*
X40532347Y-2374500D01*
X40733556Y-2336888D01*
X40924427Y-2262944D01*
X41098462Y-2155186D01*
X41249732Y-2017285D01*
X41373088Y-1853935D01*
X41464328Y-1670701D01*
X41520345Y-1473821D01*
X41539232Y-1270000D01*
X41860767Y-1270000D01*
X41879654Y-1473819D01*
X41935672Y-1670702D01*
X42026910Y-1853933D01*
X42026912Y-1853935D01*
X42150268Y-2017285D01*
X42301538Y-2155186D01*
X42405087Y-2219301D01*
X42474844Y-2262493D01*
X42475573Y-2262944D01*
X42666444Y-2336888D01*
X42867653Y-2374500D01*
X43072345Y-2374500D01*
X43072347Y-2374500D01*
X43273556Y-2336888D01*
X43464427Y-2262944D01*
X43638462Y-2155186D01*
X43789732Y-2017285D01*
X43913088Y-1853935D01*
X44004328Y-1670701D01*
X44060345Y-1473821D01*
X44079232Y-1270000D01*
X44400767Y-1270000D01*
X44419654Y-1473819D01*
X44475672Y-1670702D01*
X44566910Y-1853933D01*
X44566912Y-1853935D01*
X44690268Y-2017285D01*
X44841538Y-2155186D01*
X44945087Y-2219301D01*
X45014844Y-2262493D01*
X45015573Y-2262944D01*
X45206444Y-2336888D01*
X45407653Y-2374500D01*
X45612345Y-2374500D01*
X45612347Y-2374500D01*
X45813556Y-2336888D01*
X46004427Y-2262944D01*
X46178462Y-2155186D01*
X46329732Y-2017285D01*
X46453088Y-1853935D01*
X46544328Y-1670701D01*
X46600345Y-1473821D01*
X46619232Y-1270000D01*
X46940767Y-1270000D01*
X46959654Y-1473819D01*
X47015672Y-1670702D01*
X47106910Y-1853933D01*
X47106912Y-1853935D01*
X47230268Y-2017285D01*
X47381538Y-2155186D01*
X47485087Y-2219301D01*
X47554844Y-2262493D01*
X47555573Y-2262944D01*
X47746444Y-2336888D01*
X47947653Y-2374500D01*
X48152345Y-2374500D01*
X48152347Y-2374500D01*
X48353556Y-2336888D01*
X48544427Y-2262944D01*
X48718462Y-2155186D01*
X48869732Y-2017285D01*
X48993088Y-1853935D01*
X49084328Y-1670701D01*
X49140345Y-1473821D01*
X49159232Y-1270000D01*
X49480767Y-1270000D01*
X49499654Y-1473819D01*
X49555672Y-1670702D01*
X49646910Y-1853933D01*
X49646912Y-1853935D01*
X49770268Y-2017285D01*
X49921538Y-2155186D01*
X50025087Y-2219301D01*
X50094844Y-2262493D01*
X50095573Y-2262944D01*
X50286444Y-2336888D01*
X50487653Y-2374500D01*
X50692345Y-2374500D01*
X50692347Y-2374500D01*
X50893556Y-2336888D01*
X51084427Y-2262944D01*
X51258462Y-2155186D01*
X51409732Y-2017285D01*
X51533088Y-1853935D01*
X51624328Y-1670701D01*
X51666068Y-1524000D01*
X52054451Y-1524000D01*
X52096140Y-1670522D01*
X52187337Y-1853669D01*
X52310638Y-2016945D01*
X52461844Y-2154788D01*
X52635795Y-2262493D01*
X52826577Y-2336403D01*
X52876000Y-2345642D01*
X52876000Y-1524000D01*
X53384000Y-1524000D01*
X53384000Y-2345642D01*
X53433422Y-2336403D01*
X53624204Y-2262493D01*
X53627161Y-2260662D01*
X56098545Y-2260662D01*
X56233001Y-2373485D01*
X56520496Y-2562573D01*
X56828001Y-2717008D01*
X57151344Y-2834695D01*
X57486177Y-2914052D01*
X57827949Y-2954000D01*
X58172051Y-2954000D01*
X58513822Y-2914052D01*
X58848655Y-2834695D01*
X59171998Y-2717008D01*
X59479503Y-2562573D01*
X59766998Y-2373485D01*
X59901453Y-2260663D01*
X59901453Y-2260662D01*
X58000001Y-359210D01*
X57999999Y-359210D01*
X56098545Y-2260662D01*
X53627161Y-2260662D01*
X53798155Y-2154788D01*
X53949361Y-2016945D01*
X54072662Y-1853669D01*
X54163859Y-1670522D01*
X54205549Y-1524000D01*
X53384000Y-1524000D01*
X52876000Y-1524000D01*
X52054451Y-1524000D01*
X51666068Y-1524000D01*
X51680345Y-1473821D01*
X51699232Y-1270000D01*
X51680345Y-1066179D01*
X51666068Y-1015999D01*
X52054450Y-1015999D01*
X52054451Y-1016000D01*
X52876000Y-1016000D01*
X52876000Y-194358D01*
X53384000Y-194358D01*
X53384000Y-1016000D01*
X54205549Y-1016000D01*
X54205549Y-1015999D01*
X54163859Y-869477D01*
X54072662Y-686330D01*
X53949361Y-523054D01*
X53798155Y-385211D01*
X53624204Y-277506D01*
X53433422Y-203596D01*
X53384000Y-194358D01*
X52876000Y-194358D01*
X52826577Y-203596D01*
X52635795Y-277506D01*
X52461844Y-385211D01*
X52310638Y-523054D01*
X52187337Y-686330D01*
X52096140Y-869477D01*
X52054450Y-1015999D01*
X51666068Y-1015999D01*
X51624328Y-869299D01*
X51585902Y-792129D01*
X51533089Y-686066D01*
X51436402Y-558032D01*
X51409732Y-522715D01*
X51258462Y-384814D01*
X51150415Y-317914D01*
X51084428Y-277056D01*
X50940055Y-221126D01*
X50893556Y-203112D01*
X50692347Y-165500D01*
X50487653Y-165500D01*
X50286444Y-203111D01*
X50286444Y-203112D01*
X50095571Y-277056D01*
X49921539Y-384813D01*
X49770267Y-522716D01*
X49646910Y-686066D01*
X49555672Y-869297D01*
X49499654Y-1066180D01*
X49480767Y-1270000D01*
X49159232Y-1270000D01*
X49140345Y-1066179D01*
X49084328Y-869299D01*
X49045902Y-792129D01*
X48993089Y-686066D01*
X48896402Y-558032D01*
X48869732Y-522715D01*
X48718462Y-384814D01*
X48610415Y-317914D01*
X48544428Y-277056D01*
X48400055Y-221126D01*
X48353556Y-203112D01*
X48152347Y-165500D01*
X47947653Y-165500D01*
X47746444Y-203111D01*
X47746444Y-203112D01*
X47555571Y-277056D01*
X47381539Y-384813D01*
X47230267Y-522716D01*
X47106910Y-686066D01*
X47015672Y-869297D01*
X46959654Y-1066180D01*
X46940767Y-1270000D01*
X46619232Y-1270000D01*
X46600345Y-1066179D01*
X46544328Y-869299D01*
X46505902Y-792129D01*
X46453089Y-686066D01*
X46356402Y-558032D01*
X46329732Y-522715D01*
X46178462Y-384814D01*
X46070415Y-317914D01*
X46004428Y-277056D01*
X45860055Y-221126D01*
X45813556Y-203112D01*
X45612347Y-165500D01*
X45407653Y-165500D01*
X45206444Y-203111D01*
X45206444Y-203112D01*
X45015571Y-277056D01*
X44841539Y-384813D01*
X44690267Y-522716D01*
X44566910Y-686066D01*
X44475672Y-869297D01*
X44419654Y-1066180D01*
X44400767Y-1270000D01*
X44079232Y-1270000D01*
X44060345Y-1066179D01*
X44004328Y-869299D01*
X43965902Y-792129D01*
X43913089Y-686066D01*
X43816402Y-558032D01*
X43789732Y-522715D01*
X43638462Y-384814D01*
X43530415Y-317914D01*
X43464428Y-277056D01*
X43320055Y-221126D01*
X43273556Y-203112D01*
X43072347Y-165500D01*
X42867653Y-165500D01*
X42666444Y-203111D01*
X42666444Y-203112D01*
X42475571Y-277056D01*
X42301539Y-384813D01*
X42150267Y-522716D01*
X42026910Y-686066D01*
X41935672Y-869297D01*
X41879654Y-1066180D01*
X41860767Y-1270000D01*
X41539232Y-1270000D01*
X41520345Y-1066179D01*
X41464328Y-869299D01*
X41425902Y-792129D01*
X41373089Y-686066D01*
X41276402Y-558032D01*
X41249732Y-522715D01*
X41098462Y-384814D01*
X40990415Y-317914D01*
X40924428Y-277056D01*
X40780055Y-221126D01*
X40733556Y-203112D01*
X40532347Y-165500D01*
X40327653Y-165500D01*
X40126444Y-203111D01*
X40126444Y-203112D01*
X39935571Y-277056D01*
X39761539Y-384813D01*
X39610267Y-522716D01*
X39486910Y-686066D01*
X39395672Y-869297D01*
X39339654Y-1066180D01*
X39320767Y-1270000D01*
X38999232Y-1270000D01*
X38980345Y-1066179D01*
X38924328Y-869299D01*
X38885902Y-792129D01*
X38833089Y-686066D01*
X38736402Y-558032D01*
X38709732Y-522715D01*
X38558462Y-384814D01*
X38450415Y-317914D01*
X38384428Y-277056D01*
X38240055Y-221126D01*
X38193556Y-203112D01*
X37992347Y-165500D01*
X37787653Y-165500D01*
X37586444Y-203111D01*
X37586444Y-203112D01*
X37395571Y-277056D01*
X37221539Y-384813D01*
X37070267Y-522716D01*
X36946910Y-686066D01*
X36855672Y-869297D01*
X36799654Y-1066180D01*
X36780767Y-1270000D01*
X33919232Y-1270000D01*
X33900345Y-1066179D01*
X33886068Y-1015999D01*
X34274450Y-1015999D01*
X34274451Y-1016000D01*
X35096000Y-1016000D01*
X35096000Y-194358D01*
X35604000Y-194358D01*
X35604000Y-1016000D01*
X36425549Y-1016000D01*
X36425549Y-1015999D01*
X36383859Y-869477D01*
X36292662Y-686330D01*
X36169361Y-523054D01*
X36018155Y-385211D01*
X35844204Y-277506D01*
X35653422Y-203596D01*
X35604000Y-194358D01*
X35096000Y-194358D01*
X35046577Y-203596D01*
X34855795Y-277506D01*
X34681844Y-385211D01*
X34530638Y-523054D01*
X34407337Y-686330D01*
X34316140Y-869477D01*
X34274450Y-1015999D01*
X33886068Y-1015999D01*
X33844328Y-869299D01*
X33805902Y-792129D01*
X33753089Y-686066D01*
X33656402Y-558032D01*
X33631489Y-493726D01*
X33644161Y-425937D01*
X33690622Y-374973D01*
X33756952Y-356100D01*
X34030000Y-356100D01*
X34055857Y-358782D01*
X34065081Y-360716D01*
X34094346Y-357068D01*
X34109253Y-356142D01*
X34109505Y-356100D01*
X34109508Y-356100D01*
X34128801Y-352879D01*
X34133919Y-352134D01*
X34183013Y-346015D01*
X34183015Y-346013D01*
X34190547Y-345075D01*
X34197220Y-341463D01*
X34197224Y-341463D01*
X34240762Y-317900D01*
X34245344Y-315541D01*
X34289782Y-293819D01*
X34289784Y-293816D01*
X34296606Y-290482D01*
X34301744Y-284899D01*
X34301746Y-284899D01*
X34335278Y-248471D01*
X34338837Y-244762D01*
X34583600Y1D01*
X55040993Y1D01*
X55061002Y-343518D01*
X55120754Y-682394D01*
X55219445Y-1012044D01*
X55355736Y-1327998D01*
X55527787Y-1626001D01*
X55733270Y-1902013D01*
X55735942Y-1904845D01*
X55735944Y-1904845D01*
X57640790Y-1D01*
X57640790Y1D01*
X55735943Y1904848D01*
X55733271Y1902015D01*
X55527784Y1625996D01*
X55355736Y1327999D01*
X55219445Y1012045D01*
X55120754Y682395D01*
X55061002Y343519D01*
X55040993Y1D01*
X34583600Y1D01*
X34801185Y217586D01*
X34841164Y244522D01*
X34888337Y254473D01*
X34935791Y245980D01*
X35046444Y203112D01*
X35247653Y165500D01*
X35452345Y165500D01*
X35452347Y165500D01*
X35653556Y203112D01*
X35844427Y277056D01*
X36018462Y384814D01*
X36169732Y522715D01*
X36293088Y686065D01*
X36384328Y869299D01*
X36440345Y1066179D01*
X36459232Y1270000D01*
X36780767Y1270000D01*
X36799654Y1066181D01*
X36855672Y869298D01*
X36946910Y686067D01*
X37007314Y606079D01*
X37070268Y522715D01*
X37221538Y384814D01*
X37347198Y307009D01*
X37394844Y277507D01*
X37395573Y277056D01*
X37586444Y203112D01*
X37787653Y165500D01*
X37992345Y165500D01*
X37992347Y165500D01*
X38193556Y203112D01*
X38384427Y277056D01*
X38558462Y384814D01*
X38709732Y522715D01*
X38833088Y686065D01*
X38924328Y869299D01*
X38966068Y1016000D01*
X39354451Y1016000D01*
X39396140Y869478D01*
X39487337Y686331D01*
X39610638Y523055D01*
X39761844Y385212D01*
X39935795Y277507D01*
X40126577Y203597D01*
X40176000Y194358D01*
X40176000Y1016000D01*
X40684000Y1016000D01*
X40684000Y194358D01*
X40733422Y203597D01*
X40924204Y277507D01*
X41098155Y385212D01*
X41249361Y523055D01*
X41372662Y686331D01*
X41463859Y869478D01*
X41505549Y1016000D01*
X40684000Y1016000D01*
X40176000Y1016000D01*
X39354451Y1016000D01*
X38966068Y1016000D01*
X38980345Y1066179D01*
X38999232Y1270000D01*
X41860767Y1270000D01*
X41879654Y1066181D01*
X41935672Y869298D01*
X42026910Y686067D01*
X42087314Y606079D01*
X42150268Y522715D01*
X42301538Y384814D01*
X42427198Y307009D01*
X42474844Y277507D01*
X42475573Y277056D01*
X42666444Y203112D01*
X42867653Y165500D01*
X43072345Y165500D01*
X43072347Y165500D01*
X43273556Y203112D01*
X43464427Y277056D01*
X43638462Y384814D01*
X43789732Y522715D01*
X43913088Y686065D01*
X44004328Y869299D01*
X44046068Y1016000D01*
X44434451Y1016000D01*
X44476140Y869478D01*
X44567337Y686331D01*
X44690638Y523055D01*
X44841844Y385212D01*
X45015795Y277507D01*
X45206577Y203597D01*
X45256000Y194358D01*
X45256000Y1016000D01*
X45764000Y1016000D01*
X45764000Y194358D01*
X45813422Y203597D01*
X46004204Y277507D01*
X46178155Y385212D01*
X46329361Y523055D01*
X46452662Y686331D01*
X46543859Y869478D01*
X46585549Y1016000D01*
X45764000Y1016000D01*
X45256000Y1016000D01*
X44434451Y1016000D01*
X44046068Y1016000D01*
X44060345Y1066179D01*
X44079232Y1270000D01*
X46940767Y1270000D01*
X46959654Y1066181D01*
X47015672Y869298D01*
X47106910Y686067D01*
X47167314Y606080D01*
X47230268Y522715D01*
X47381538Y384814D01*
X47507198Y307009D01*
X47554844Y277507D01*
X47555573Y277056D01*
X47746444Y203112D01*
X47947653Y165500D01*
X48152345Y165500D01*
X48152347Y165500D01*
X48353556Y203112D01*
X48544427Y277056D01*
X48718462Y384814D01*
X48869732Y522715D01*
X48993088Y686065D01*
X49084328Y869299D01*
X49140345Y1066179D01*
X49159232Y1270000D01*
X49480767Y1270000D01*
X49499654Y1066181D01*
X49555672Y869298D01*
X49646910Y686067D01*
X49707314Y606080D01*
X49770268Y522715D01*
X49921538Y384814D01*
X50047198Y307009D01*
X50094844Y277507D01*
X50095573Y277056D01*
X50286444Y203112D01*
X50487653Y165500D01*
X50692345Y165500D01*
X50692347Y165500D01*
X50893556Y203112D01*
X51084427Y277056D01*
X51258462Y384814D01*
X51409732Y522715D01*
X51533088Y686065D01*
X51624328Y869299D01*
X51680345Y1066179D01*
X51699232Y1270000D01*
X52020767Y1270000D01*
X52039654Y1066181D01*
X52095672Y869298D01*
X52186910Y686067D01*
X52247314Y606080D01*
X52310268Y522715D01*
X52461538Y384814D01*
X52587198Y307009D01*
X52634844Y277507D01*
X52635573Y277056D01*
X52826444Y203112D01*
X53027653Y165500D01*
X53232345Y165500D01*
X53232347Y165500D01*
X53433556Y203112D01*
X53624427Y277056D01*
X53798462Y384814D01*
X53949732Y522715D01*
X54073088Y686065D01*
X54164328Y869299D01*
X54220345Y1066179D01*
X54239232Y1270000D01*
X54220345Y1473821D01*
X54164328Y1670701D01*
X54073220Y1853670D01*
X54073089Y1853934D01*
X54034640Y1904848D01*
X53949732Y2017285D01*
X53798462Y2155186D01*
X53750087Y2185139D01*
X53624428Y2262944D01*
X53528991Y2299916D01*
X53433556Y2336888D01*
X53232347Y2374500D01*
X53027653Y2374500D01*
X52834078Y2338315D01*
X52826444Y2336888D01*
X52635571Y2262944D01*
X52461539Y2155187D01*
X52425193Y2122053D01*
X52344864Y2048823D01*
X52310267Y2017284D01*
X52186910Y1853934D01*
X52095672Y1670703D01*
X52039654Y1473820D01*
X52020767Y1270000D01*
X51699232Y1270000D01*
X51680345Y1473821D01*
X51624328Y1670701D01*
X51533220Y1853670D01*
X51533089Y1853934D01*
X51494640Y1904848D01*
X51409732Y2017285D01*
X51258462Y2155186D01*
X51210087Y2185139D01*
X51084428Y2262944D01*
X50988991Y2299916D01*
X50893556Y2336888D01*
X50692347Y2374500D01*
X50487653Y2374500D01*
X50294078Y2338315D01*
X50286444Y2336888D01*
X50095571Y2262944D01*
X49921539Y2155187D01*
X49885193Y2122053D01*
X49804864Y2048823D01*
X49770267Y2017284D01*
X49646910Y1853934D01*
X49555672Y1670703D01*
X49499654Y1473820D01*
X49480767Y1270000D01*
X49159232Y1270000D01*
X49140345Y1473821D01*
X49084328Y1670701D01*
X48993220Y1853670D01*
X48993089Y1853934D01*
X48954640Y1904848D01*
X48869732Y2017285D01*
X48718462Y2155186D01*
X48670087Y2185139D01*
X48544428Y2262944D01*
X48448991Y2299916D01*
X48353556Y2336888D01*
X48152347Y2374500D01*
X47947653Y2374500D01*
X47754078Y2338315D01*
X47746444Y2336888D01*
X47555571Y2262944D01*
X47381539Y2155187D01*
X47345193Y2122053D01*
X47264864Y2048823D01*
X47230267Y2017284D01*
X47106910Y1853934D01*
X47015672Y1670703D01*
X46959654Y1473820D01*
X46940767Y1270000D01*
X44079232Y1270000D01*
X44060345Y1473821D01*
X44046068Y1524001D01*
X44434450Y1524001D01*
X44434451Y1524000D01*
X45256000Y1524000D01*
X45256000Y2345642D01*
X45764000Y2345642D01*
X45764000Y1524000D01*
X46585549Y1524000D01*
X46585549Y1524001D01*
X46543859Y1670523D01*
X46452662Y1853670D01*
X46329361Y2016946D01*
X46178155Y2154789D01*
X46004204Y2262494D01*
X45813422Y2336404D01*
X45764000Y2345642D01*
X45256000Y2345642D01*
X45206577Y2336404D01*
X45015795Y2262494D01*
X44841844Y2154789D01*
X44690638Y2016946D01*
X44567337Y1853670D01*
X44476140Y1670523D01*
X44434450Y1524001D01*
X44046068Y1524001D01*
X44004328Y1670701D01*
X43913220Y1853670D01*
X43913089Y1853934D01*
X43874640Y1904848D01*
X43789732Y2017285D01*
X43638462Y2155186D01*
X43590087Y2185139D01*
X43464428Y2262944D01*
X43368991Y2299916D01*
X43273556Y2336888D01*
X43072347Y2374500D01*
X42867653Y2374500D01*
X42674078Y2338315D01*
X42666444Y2336888D01*
X42475571Y2262944D01*
X42301539Y2155187D01*
X42265193Y2122053D01*
X42184864Y2048823D01*
X42150267Y2017284D01*
X42026910Y1853934D01*
X41935672Y1670703D01*
X41879654Y1473820D01*
X41860767Y1270000D01*
X38999232Y1270000D01*
X38980345Y1473821D01*
X38966068Y1524001D01*
X39354450Y1524001D01*
X39354451Y1524000D01*
X40176000Y1524000D01*
X40176000Y2345642D01*
X40684000Y2345642D01*
X40684000Y1524000D01*
X41505549Y1524000D01*
X41505549Y1524001D01*
X41463859Y1670523D01*
X41372662Y1853670D01*
X41249361Y2016946D01*
X41098155Y2154789D01*
X40924204Y2262494D01*
X40733422Y2336404D01*
X40684000Y2345642D01*
X40176000Y2345642D01*
X40126577Y2336404D01*
X39935795Y2262494D01*
X39761844Y2154789D01*
X39610638Y2016946D01*
X39487337Y1853670D01*
X39396140Y1670523D01*
X39354450Y1524001D01*
X38966068Y1524001D01*
X38924328Y1670701D01*
X38833220Y1853670D01*
X38833089Y1853934D01*
X38794640Y1904848D01*
X38709732Y2017285D01*
X38558462Y2155186D01*
X38510087Y2185139D01*
X38384428Y2262944D01*
X38288991Y2299916D01*
X38193556Y2336888D01*
X37992347Y2374500D01*
X37787653Y2374500D01*
X37594078Y2338315D01*
X37586444Y2336888D01*
X37395571Y2262944D01*
X37221539Y2155187D01*
X37185193Y2122053D01*
X37104864Y2048823D01*
X37070267Y2017284D01*
X36946910Y1853934D01*
X36855672Y1670703D01*
X36799654Y1473820D01*
X36780767Y1270000D01*
X36459232Y1270000D01*
X36440345Y1473821D01*
X36384328Y1670701D01*
X36293220Y1853670D01*
X36293089Y1853934D01*
X36254640Y1904848D01*
X36169732Y2017285D01*
X36018462Y2155186D01*
X35970087Y2185139D01*
X35844428Y2262944D01*
X35748991Y2299916D01*
X35653556Y2336888D01*
X35452347Y2374500D01*
X35247653Y2374500D01*
X35054078Y2338315D01*
X35046444Y2336888D01*
X34855571Y2262944D01*
X34681539Y2155187D01*
X34645193Y2122053D01*
X34564864Y2048823D01*
X34530267Y2017284D01*
X34406910Y1853934D01*
X34315672Y1670703D01*
X34259654Y1473820D01*
X34240767Y1270000D01*
X34259654Y1066181D01*
X34315671Y869301D01*
X34318484Y863652D01*
X34331560Y813308D01*
X34323186Y761972D01*
X34294790Y718393D01*
X33969404Y393005D01*
X33928526Y365691D01*
X33880308Y356100D01*
X33756952Y356100D01*
X33690622Y374973D01*
X33644161Y425937D01*
X33631489Y493726D01*
X33656402Y558032D01*
X33747411Y678548D01*
X33753088Y686065D01*
X33844328Y869299D01*
X33900345Y1066179D01*
X33919232Y1270000D01*
X33900345Y1473821D01*
X33844328Y1670701D01*
X33753220Y1853670D01*
X33753089Y1853934D01*
X33714640Y1904848D01*
X33629732Y2017285D01*
X33478462Y2155186D01*
X33430087Y2185139D01*
X33304428Y2262944D01*
X33208991Y2299916D01*
X33113556Y2336888D01*
X32912347Y2374500D01*
X32707653Y2374500D01*
X32514078Y2338315D01*
X32506444Y2336888D01*
X32315571Y2262944D01*
X32141539Y2155187D01*
X32105193Y2122053D01*
X32024864Y2048823D01*
X31990267Y2017284D01*
X31866910Y1853934D01*
X31775672Y1670703D01*
X31719654Y1473820D01*
X31700767Y1270000D01*
X31719654Y1066181D01*
X31775672Y869298D01*
X31866910Y686067D01*
X31963598Y558032D01*
X31988511Y493726D01*
X31975839Y425937D01*
X31929378Y374973D01*
X31863048Y356100D01*
X31216952Y356100D01*
X31150622Y374973D01*
X31104161Y425937D01*
X31091489Y493726D01*
X31116402Y558032D01*
X31207411Y678548D01*
X31213088Y686065D01*
X31304328Y869299D01*
X31360345Y1066179D01*
X31379232Y1270000D01*
X31360345Y1473821D01*
X31304328Y1670701D01*
X31213220Y1853670D01*
X31213089Y1853934D01*
X31174640Y1904848D01*
X31089732Y2017285D01*
X30938462Y2155186D01*
X30890087Y2185139D01*
X30764428Y2262944D01*
X30668991Y2299916D01*
X30573556Y2336888D01*
X30372347Y2374500D01*
X30167653Y2374500D01*
X29974078Y2338315D01*
X29966444Y2336888D01*
X29775571Y2262944D01*
X29601539Y2155187D01*
X29565193Y2122053D01*
X29484864Y2048823D01*
X29450267Y2017284D01*
X29326910Y1853934D01*
X29235672Y1670703D01*
X29179654Y1473820D01*
X29160767Y1270000D01*
X29179654Y1066181D01*
X29235672Y869298D01*
X29326910Y686067D01*
X29423598Y558032D01*
X29448511Y493726D01*
X29435839Y425937D01*
X29389378Y374973D01*
X29323048Y356100D01*
X28676326Y356100D01*
X28609996Y374973D01*
X28563535Y425937D01*
X28550863Y493726D01*
X28575776Y558032D01*
X28672662Y686331D01*
X28763859Y869478D01*
X28805549Y1016000D01*
X26654451Y1016000D01*
X26696140Y869478D01*
X26787337Y686331D01*
X26884224Y558032D01*
X26909137Y493726D01*
X26896465Y425937D01*
X26850004Y374973D01*
X26783674Y356100D01*
X26136952Y356100D01*
X26070622Y374973D01*
X26024161Y425937D01*
X26011489Y493726D01*
X26036402Y558032D01*
X26127411Y678548D01*
X26133088Y686065D01*
X26224328Y869299D01*
X26280345Y1066179D01*
X26299232Y1270000D01*
X26280345Y1473821D01*
X26266068Y1524001D01*
X26654450Y1524001D01*
X26654451Y1524000D01*
X27476000Y1524000D01*
X27476000Y2345642D01*
X27984000Y2345642D01*
X27984000Y1524000D01*
X28805549Y1524000D01*
X28805549Y1524001D01*
X28763859Y1670523D01*
X28672662Y1853670D01*
X28549361Y2016946D01*
X28398155Y2154789D01*
X28224204Y2262494D01*
X28033422Y2336404D01*
X27984000Y2345642D01*
X27476000Y2345642D01*
X27426577Y2336404D01*
X27235795Y2262494D01*
X27061844Y2154789D01*
X26910638Y2016946D01*
X26787337Y1853670D01*
X26696140Y1670523D01*
X26654450Y1524001D01*
X26266068Y1524001D01*
X26224328Y1670701D01*
X26133220Y1853670D01*
X26133089Y1853934D01*
X26094640Y1904848D01*
X26009732Y2017285D01*
X25858462Y2155186D01*
X25810087Y2185139D01*
X25684428Y2262944D01*
X25588991Y2299916D01*
X25493556Y2336888D01*
X25292347Y2374500D01*
X25087653Y2374500D01*
X24894078Y2338315D01*
X24886444Y2336888D01*
X24695571Y2262944D01*
X24521539Y2155187D01*
X24485193Y2122053D01*
X24404864Y2048823D01*
X24370267Y2017284D01*
X24246910Y1853934D01*
X24155672Y1670703D01*
X24099654Y1473820D01*
X24080767Y1270000D01*
X24099654Y1066181D01*
X24155672Y869298D01*
X24246910Y686067D01*
X24343598Y558032D01*
X24368511Y493726D01*
X24355839Y425937D01*
X24309378Y374973D01*
X24243048Y356100D01*
X23596952Y356100D01*
X23530622Y374973D01*
X23484161Y425937D01*
X23471489Y493726D01*
X23496402Y558032D01*
X23587411Y678548D01*
X23593088Y686065D01*
X23684328Y869299D01*
X23740345Y1066179D01*
X23759232Y1270000D01*
X23740345Y1473821D01*
X23684328Y1670701D01*
X23593220Y1853670D01*
X23593089Y1853934D01*
X23554640Y1904848D01*
X23469732Y2017285D01*
X23318462Y2155186D01*
X23270087Y2185139D01*
X23144428Y2262944D01*
X23048991Y2299916D01*
X22953556Y2336888D01*
X22752347Y2374500D01*
X22547653Y2374500D01*
X22354078Y2338315D01*
X22346444Y2336888D01*
X22155571Y2262944D01*
X21981539Y2155187D01*
X21945193Y2122053D01*
X21864864Y2048823D01*
X21830267Y2017284D01*
X21706910Y1853934D01*
X21615672Y1670703D01*
X21559654Y1473820D01*
X21540767Y1270000D01*
X21559654Y1066181D01*
X21615672Y869298D01*
X21706910Y686067D01*
X21803598Y558032D01*
X21828511Y493726D01*
X21815839Y425937D01*
X21769378Y374973D01*
X21703048Y356100D01*
X21056326Y356100D01*
X20989996Y374973D01*
X20943535Y425937D01*
X20930863Y493726D01*
X20955776Y558032D01*
X21052662Y686331D01*
X21143859Y869478D01*
X21185549Y1016000D01*
X19034451Y1016000D01*
X19076140Y869478D01*
X19167337Y686331D01*
X19264224Y558032D01*
X19289137Y493726D01*
X19276465Y425937D01*
X19230004Y374973D01*
X19163674Y356100D01*
X18516952Y356100D01*
X18450622Y374973D01*
X18404161Y425937D01*
X18391489Y493726D01*
X18416402Y558032D01*
X18507411Y678548D01*
X18513088Y686065D01*
X18604328Y869299D01*
X18660345Y1066179D01*
X18679232Y1270000D01*
X18660345Y1473821D01*
X18646068Y1524001D01*
X19034450Y1524001D01*
X19034451Y1524000D01*
X19856000Y1524000D01*
X19856000Y2345642D01*
X20364000Y2345642D01*
X20364000Y1524000D01*
X21185549Y1524000D01*
X21185549Y1524001D01*
X21143859Y1670523D01*
X21052662Y1853670D01*
X20929361Y2016946D01*
X20778155Y2154789D01*
X20604204Y2262494D01*
X20413422Y2336404D01*
X20364000Y2345642D01*
X19856000Y2345642D01*
X19806577Y2336404D01*
X19615795Y2262494D01*
X19441844Y2154789D01*
X19290638Y2016946D01*
X19167337Y1853670D01*
X19076140Y1670523D01*
X19034450Y1524001D01*
X18646068Y1524001D01*
X18604328Y1670701D01*
X18513220Y1853670D01*
X18513089Y1853934D01*
X18474640Y1904848D01*
X18389732Y2017285D01*
X18238462Y2155186D01*
X18190087Y2185139D01*
X18064428Y2262944D01*
X17968991Y2299916D01*
X17873556Y2336888D01*
X17672347Y2374500D01*
X17467653Y2374500D01*
X17274078Y2338315D01*
X17266444Y2336888D01*
X17075571Y2262944D01*
X16901539Y2155187D01*
X16865193Y2122053D01*
X16784864Y2048823D01*
X16750267Y2017284D01*
X16626910Y1853934D01*
X16535672Y1670703D01*
X16479654Y1473820D01*
X16460767Y1270000D01*
X16479654Y1066181D01*
X16535672Y869298D01*
X16626910Y686067D01*
X16723598Y558032D01*
X16748511Y493726D01*
X16735839Y425937D01*
X16689378Y374973D01*
X16623048Y356100D01*
X15976952Y356100D01*
X15910622Y374973D01*
X15864161Y425937D01*
X15851489Y493726D01*
X15876402Y558032D01*
X15967411Y678548D01*
X15973088Y686065D01*
X16064328Y869299D01*
X16120345Y1066179D01*
X16139232Y1270000D01*
X16120345Y1473821D01*
X16064328Y1670701D01*
X15973220Y1853670D01*
X15973089Y1853934D01*
X15934640Y1904848D01*
X15849732Y2017285D01*
X15698462Y2155186D01*
X15650087Y2185139D01*
X15524428Y2262944D01*
X15428991Y2299916D01*
X15333556Y2336888D01*
X15132347Y2374500D01*
X14927653Y2374500D01*
X14734078Y2338315D01*
X14726444Y2336888D01*
X14535571Y2262944D01*
X14361539Y2155187D01*
X14325193Y2122053D01*
X14244864Y2048823D01*
X14210267Y2017284D01*
X14086910Y1853934D01*
X13995672Y1670703D01*
X13939654Y1473820D01*
X13920767Y1270000D01*
X13939654Y1066181D01*
X13995672Y869298D01*
X14086910Y686067D01*
X14147314Y606079D01*
X14210268Y522715D01*
X14361538Y384814D01*
X14381725Y372315D01*
X14421748Y332753D01*
X14440555Y279710D01*
X14434393Y223770D01*
X14404490Y176093D01*
X13582477Y-645920D01*
X13520338Y-679908D01*
X13449680Y-675004D01*
X13392832Y-632757D01*
X13336402Y-558032D01*
X13309732Y-522715D01*
X13158462Y-384814D01*
X13050415Y-317914D01*
X12984428Y-277056D01*
X12840055Y-221126D01*
X12793556Y-203112D01*
X12592347Y-165500D01*
X12387653Y-165500D01*
X12186444Y-203111D01*
X12186444Y-203112D01*
X11995571Y-277056D01*
X11821539Y-384813D01*
X11670267Y-522716D01*
X11546910Y-686066D01*
X11455672Y-869297D01*
X11399654Y-1066180D01*
X11380767Y-1270000D01*
X11399654Y-1473819D01*
X11455672Y-1670702D01*
X11546910Y-1853933D01*
X11546912Y-1853935D01*
X11670268Y-2017285D01*
X11821538Y-2155186D01*
X11925087Y-2219301D01*
X11994844Y-2262493D01*
X11995573Y-2262944D01*
X12186444Y-2336888D01*
X12387653Y-2374500D01*
X12387655Y-2374500D01*
X12565708Y-2374500D01*
X12622911Y-2388233D01*
X12667644Y-2426439D01*
X12690157Y-2480789D01*
X12685541Y-2539436D01*
X12654803Y-2589595D01*
X12589403Y-2654995D01*
X12548526Y-2682309D01*
X12500308Y-2691900D01*
X5638000Y-2691900D01*
X5612143Y-2689218D01*
X5602918Y-2687283D01*
X5573654Y-2690932D01*
X5558738Y-2691858D01*
X5539206Y-2695117D01*
X5534060Y-2695867D01*
X5477449Y-2702924D01*
X5427279Y-2730075D01*
X5422652Y-2732457D01*
X5371394Y-2757516D01*
X5332744Y-2799501D01*
X5329140Y-2803257D01*
X4613804Y-3518595D01*
X4572926Y-3545909D01*
X4524708Y-3555500D01*
X4498888Y-3555500D01*
X4358589Y-3596695D01*
X4235578Y-3675749D01*
X4139824Y-3786256D01*
X4139824Y-3786257D01*
X4101912Y-3869271D01*
X4058420Y-3920937D01*
X3994493Y-3942722D01*
X3928500Y-3928367D01*
X3879400Y-3881994D01*
X3861300Y-3816928D01*
X3861300Y-2500500D01*
X3878181Y-2437500D01*
X3924300Y-2391381D01*
X3987300Y-2374500D01*
X3994932Y-2374499D01*
X3994933Y-2374500D01*
X5744607Y-2374499D01*
X5745068Y-2374499D01*
X5794556Y-2364655D01*
X5819301Y-2359734D01*
X5903484Y-2303484D01*
X5959734Y-2219301D01*
X5974500Y-2145067D01*
X5974499Y-1270000D01*
X6300767Y-1270000D01*
X6319654Y-1473819D01*
X6375672Y-1670702D01*
X6466910Y-1853933D01*
X6466912Y-1853935D01*
X6590268Y-2017285D01*
X6741538Y-2155186D01*
X6845087Y-2219301D01*
X6914844Y-2262493D01*
X6915573Y-2262944D01*
X7106444Y-2336888D01*
X7307653Y-2374500D01*
X7512345Y-2374500D01*
X7512347Y-2374500D01*
X7713556Y-2336888D01*
X7904427Y-2262944D01*
X8078462Y-2155186D01*
X8229732Y-2017285D01*
X8353088Y-1853935D01*
X8444328Y-1670701D01*
X8500345Y-1473821D01*
X8519232Y-1270000D01*
X8840767Y-1270000D01*
X8859654Y-1473819D01*
X8915672Y-1670702D01*
X9006910Y-1853933D01*
X9006912Y-1853935D01*
X9130268Y-2017285D01*
X9281538Y-2155186D01*
X9385087Y-2219301D01*
X9454844Y-2262493D01*
X9455573Y-2262944D01*
X9646444Y-2336888D01*
X9847653Y-2374500D01*
X10052345Y-2374500D01*
X10052347Y-2374500D01*
X10253556Y-2336888D01*
X10444427Y-2262944D01*
X10618462Y-2155186D01*
X10769732Y-2017285D01*
X10893088Y-1853935D01*
X10984328Y-1670701D01*
X11040345Y-1473821D01*
X11059232Y-1270000D01*
X11040345Y-1066179D01*
X10984328Y-869299D01*
X10945902Y-792129D01*
X10893089Y-686066D01*
X10796402Y-558032D01*
X10769732Y-522715D01*
X10618462Y-384814D01*
X10510415Y-317914D01*
X10444428Y-277056D01*
X10300055Y-221126D01*
X10253556Y-203112D01*
X10052347Y-165500D01*
X9847653Y-165500D01*
X9646444Y-203111D01*
X9646444Y-203112D01*
X9455571Y-277056D01*
X9281539Y-384813D01*
X9130267Y-522716D01*
X9006910Y-686066D01*
X8915672Y-869297D01*
X8859654Y-1066180D01*
X8840767Y-1270000D01*
X8519232Y-1270000D01*
X8500345Y-1066179D01*
X8444328Y-869299D01*
X8405902Y-792129D01*
X8353089Y-686066D01*
X8256402Y-558032D01*
X8229732Y-522715D01*
X8078462Y-384814D01*
X7970415Y-317914D01*
X7904428Y-277056D01*
X7760055Y-221126D01*
X7713556Y-203112D01*
X7512347Y-165500D01*
X7307653Y-165500D01*
X7106444Y-203111D01*
X7106444Y-203112D01*
X6915571Y-277056D01*
X6741539Y-384813D01*
X6590267Y-522716D01*
X6466910Y-686066D01*
X6375672Y-869297D01*
X6319654Y-1066180D01*
X6300767Y-1270000D01*
X5974499Y-1270000D01*
X5974499Y-394934D01*
X5974499Y-394931D01*
X5959734Y-320699D01*
X5903484Y-236515D01*
X5819301Y-180266D01*
X5819300Y-180265D01*
X5745067Y-165500D01*
X5745066Y-165500D01*
X4529658Y-165500D01*
X4472455Y-151767D01*
X4427722Y-113561D01*
X4405209Y-59211D01*
X4409825Y-564D01*
X4440560Y49593D01*
X4542768Y151801D01*
X4594587Y183063D01*
X4655009Y186557D01*
X4767653Y165500D01*
X4972345Y165500D01*
X4972347Y165500D01*
X5173556Y203112D01*
X5364427Y277056D01*
X5538462Y384814D01*
X5689732Y522715D01*
X5813088Y686065D01*
X5904328Y869299D01*
X5960345Y1066179D01*
X5979232Y1270000D01*
X6300767Y1270000D01*
X6319654Y1066181D01*
X6375672Y869298D01*
X6466910Y686067D01*
X6527314Y606079D01*
X6590268Y522715D01*
X6741538Y384814D01*
X6867198Y307009D01*
X6914844Y277507D01*
X6915573Y277056D01*
X7106444Y203112D01*
X7307653Y165500D01*
X7512345Y165500D01*
X7512347Y165500D01*
X7713556Y203112D01*
X7904427Y277056D01*
X8078462Y384814D01*
X8229732Y522715D01*
X8353088Y686065D01*
X8444328Y869299D01*
X8486068Y1016000D01*
X8874451Y1016000D01*
X8916140Y869478D01*
X9007337Y686331D01*
X9130638Y523055D01*
X9281844Y385212D01*
X9455795Y277507D01*
X9646577Y203597D01*
X9696000Y194358D01*
X9696000Y1016000D01*
X10204000Y1016000D01*
X10204000Y194358D01*
X10253422Y203597D01*
X10444204Y277507D01*
X10618155Y385212D01*
X10769361Y523055D01*
X10892662Y686331D01*
X10983859Y869478D01*
X11025549Y1016000D01*
X10204000Y1016000D01*
X9696000Y1016000D01*
X8874451Y1016000D01*
X8486068Y1016000D01*
X8500345Y1066179D01*
X8519232Y1270000D01*
X11380767Y1270000D01*
X11399654Y1066181D01*
X11455672Y869298D01*
X11546910Y686067D01*
X11607314Y606079D01*
X11670268Y522715D01*
X11821538Y384814D01*
X11947198Y307009D01*
X11994844Y277507D01*
X11995573Y277056D01*
X12186444Y203112D01*
X12387653Y165500D01*
X12592345Y165500D01*
X12592347Y165500D01*
X12793556Y203112D01*
X12984427Y277056D01*
X13158462Y384814D01*
X13309732Y522715D01*
X13433088Y686065D01*
X13524328Y869299D01*
X13580345Y1066179D01*
X13599232Y1270000D01*
X13580345Y1473821D01*
X13524328Y1670701D01*
X13433220Y1853670D01*
X13433089Y1853934D01*
X13394640Y1904848D01*
X13309732Y2017285D01*
X13158462Y2155186D01*
X13110087Y2185139D01*
X12984428Y2262944D01*
X12888991Y2299916D01*
X12793556Y2336888D01*
X12592347Y2374500D01*
X12387653Y2374500D01*
X12194078Y2338315D01*
X12186444Y2336888D01*
X11995571Y2262944D01*
X11821539Y2155187D01*
X11785193Y2122053D01*
X11704864Y2048823D01*
X11670267Y2017284D01*
X11546910Y1853934D01*
X11455672Y1670703D01*
X11399654Y1473820D01*
X11380767Y1270000D01*
X8519232Y1270000D01*
X8500345Y1473821D01*
X8486068Y1524001D01*
X8874450Y1524001D01*
X8874451Y1524000D01*
X9696000Y1524000D01*
X9696000Y2345642D01*
X10204000Y2345642D01*
X10204000Y1524000D01*
X11025549Y1524000D01*
X11025549Y1524001D01*
X10983859Y1670523D01*
X10892662Y1853670D01*
X10769361Y2016946D01*
X10618155Y2154789D01*
X10444204Y2262494D01*
X10253422Y2336404D01*
X10204000Y2345642D01*
X9696000Y2345642D01*
X9646577Y2336404D01*
X9455795Y2262494D01*
X9281844Y2154789D01*
X9130638Y2016946D01*
X9007337Y1853670D01*
X8916140Y1670523D01*
X8874450Y1524001D01*
X8486068Y1524001D01*
X8444328Y1670701D01*
X8353220Y1853670D01*
X8353089Y1853934D01*
X8314640Y1904848D01*
X8229732Y2017285D01*
X8078462Y2155186D01*
X8030087Y2185139D01*
X7904428Y2262944D01*
X7808991Y2299916D01*
X7713556Y2336888D01*
X7512347Y2374500D01*
X7307653Y2374500D01*
X7114078Y2338315D01*
X7106444Y2336888D01*
X6915571Y2262944D01*
X6741539Y2155187D01*
X6705193Y2122053D01*
X6624864Y2048823D01*
X6590267Y2017284D01*
X6466910Y1853934D01*
X6375672Y1670703D01*
X6319654Y1473820D01*
X6300767Y1270000D01*
X5979232Y1270000D01*
X5960345Y1473821D01*
X5904328Y1670701D01*
X5813220Y1853670D01*
X5813089Y1853934D01*
X5774640Y1904848D01*
X5689732Y2017285D01*
X5538462Y2155186D01*
X5490087Y2185139D01*
X5364428Y2262944D01*
X5268991Y2299916D01*
X5173556Y2336888D01*
X4972347Y2374500D01*
X4767653Y2374500D01*
X4574078Y2338315D01*
X4566444Y2336888D01*
X4375571Y2262944D01*
X4201539Y2155187D01*
X4165193Y2122053D01*
X4084864Y2048823D01*
X4050267Y2017284D01*
X3926910Y1853934D01*
X3835672Y1670703D01*
X3779654Y1473820D01*
X3760767Y1270001D01*
X3779654Y1066185D01*
X3779655Y1066179D01*
X3780557Y1063009D01*
X3780643Y1055508D01*
X3780732Y1054554D01*
X3780654Y1054547D01*
X3781321Y996856D01*
X3748462Y939433D01*
X3142158Y333130D01*
X3083011Y299837D01*
X3015174Y302058D01*
X2958331Y339149D01*
X2928977Y400347D01*
X2879245Y682394D01*
X2780554Y1012045D01*
X2644263Y1327999D01*
X2472215Y1625996D01*
X2266724Y1902019D01*
X2264057Y1904847D01*
X2264054Y1904847D01*
X359210Y1D01*
X359210Y-1D01*
X-359210Y-1D01*
X-359210Y1D01*
X-2264057Y1904848D01*
X-2266729Y1902015D01*
X-2472216Y1625996D01*
X-2644264Y1327999D01*
X-2780556Y1012042D01*
X-2789616Y981781D01*
X-2822003Y928056D01*
X-2876282Y896606D01*
X-2938999Y895228D01*
X-2994608Y924262D01*
X-3029324Y976513D01*
X-3034542Y1039024D01*
X-3029270Y1070056D01*
X-3026131Y1083806D01*
X-2949541Y1349658D01*
X-2944880Y1362978D01*
X-2839003Y1618585D01*
X-2832889Y1631281D01*
X-2699061Y1873426D01*
X-2691550Y1885377D01*
X-2531456Y2111007D01*
X-2522647Y2122053D01*
X-2338305Y2328334D01*
X-2328334Y2338305D01*
X-2122051Y2522650D01*
X-2111007Y2531456D01*
X-1885377Y2691550D01*
X-1873426Y2699061D01*
X-1631281Y2832889D01*
X-1618585Y2839003D01*
X-1362978Y2944880D01*
X-1349658Y2949541D01*
X-1083806Y3026131D01*
X-1070056Y3029270D01*
X-1022809Y3037297D01*
X-961453Y3032474D01*
X-909699Y2999162D01*
X-879898Y2945309D01*
X-879163Y2883765D01*
X-907668Y2829215D01*
X-958611Y2794676D01*
X-1171999Y2717009D01*
X-1479510Y2562571D01*
X-1766992Y2373491D01*
X-1901455Y2260665D01*
X-1Y359210D01*
X1Y359210D01*
X1901453Y2260664D01*
X1901453Y2260665D01*
X1766997Y2373486D01*
X1479503Y2562574D01*
X1171998Y2717009D01*
X848655Y2834696D01*
X807304Y2844496D01*
X753514Y2872167D01*
X718819Y2921718D01*
X711214Y2981728D01*
X732453Y3038367D01*
X777641Y3078580D01*
X836362Y3093100D01*
X57163638Y3093100D01*
X57222359Y3078580D01*
G37*
%TD.AperFunction*%
%TA.AperFunction,Conductor*%
G36*
X41014844Y-27230945D02*
G01*
X44607339Y-30823440D01*
X44623726Y-30843619D01*
X44628883Y-30851512D01*
X44628885Y-30851513D01*
X44628886Y-30851515D01*
X44652167Y-30869635D01*
X44663359Y-30879519D01*
X44679468Y-30891021D01*
X44683637Y-30894129D01*
X44722672Y-30924511D01*
X44722675Y-30924512D01*
X44728665Y-30929174D01*
X44735935Y-30931338D01*
X44735939Y-30931341D01*
X44783408Y-30945472D01*
X44788273Y-30947031D01*
X44835077Y-30963100D01*
X44835079Y-30963100D01*
X44842259Y-30965565D01*
X44849842Y-30965251D01*
X44849844Y-30965252D01*
X44899256Y-30963207D01*
X44904464Y-30963100D01*
X51108309Y-30963100D01*
X51156527Y-30972691D01*
X51197404Y-31000005D01*
X51994495Y-31797096D01*
X52021809Y-31837973D01*
X52031400Y-31886191D01*
X52031400Y-33693193D01*
X52016675Y-33750000D01*
X52031400Y-33806807D01*
X52031400Y-34276410D01*
X52021809Y-34324628D01*
X51994495Y-34365505D01*
X51598905Y-34761095D01*
X51558028Y-34788409D01*
X51509810Y-34798000D01*
X51436439Y-34798000D01*
X51377043Y-34783122D01*
X51331674Y-34742001D01*
X51311046Y-34684349D01*
X51320031Y-34623781D01*
X51356504Y-34574601D01*
X51487279Y-34467279D01*
X51613430Y-34313562D01*
X51707170Y-34138188D01*
X51764894Y-33947897D01*
X51771719Y-33878593D01*
X51780007Y-33794457D01*
X51796324Y-33749999D01*
X51780007Y-33705543D01*
X51764894Y-33552107D01*
X51764894Y-33552103D01*
X51707170Y-33361812D01*
X51613430Y-33186438D01*
X51511900Y-33062722D01*
X51487279Y-33032720D01*
X51410420Y-32969645D01*
X51333562Y-32906570D01*
X51158188Y-32812830D01*
X50967897Y-32755106D01*
X50967894Y-32755105D01*
X50967892Y-32755105D01*
X50769999Y-32735614D01*
X50639250Y-32748492D01*
X50584452Y-32741733D01*
X50537804Y-32712194D01*
X50508265Y-32665546D01*
X50501507Y-32610749D01*
X50514385Y-32480000D01*
X50494894Y-32282103D01*
X50437170Y-32091812D01*
X50343430Y-31916438D01*
X50245490Y-31797096D01*
X50217279Y-31762720D01*
X50140420Y-31699645D01*
X50063562Y-31636570D01*
X49888188Y-31542830D01*
X49697897Y-31485106D01*
X49697894Y-31485105D01*
X49697892Y-31485105D01*
X49500000Y-31465614D01*
X49302107Y-31485105D01*
X49302104Y-31485105D01*
X49302103Y-31485106D01*
X49223524Y-31508942D01*
X49111811Y-31542830D01*
X49018070Y-31592935D01*
X48936438Y-31636570D01*
X48936436Y-31636571D01*
X48936437Y-31636571D01*
X48782720Y-31762720D01*
X48656571Y-31916437D01*
X48562830Y-32091811D01*
X48505105Y-32282107D01*
X48485614Y-32480000D01*
X48498492Y-32610749D01*
X48491734Y-32665547D01*
X48462194Y-32712194D01*
X48415547Y-32741734D01*
X48360749Y-32748492D01*
X48229999Y-32735614D01*
X48099250Y-32748492D01*
X48044452Y-32741733D01*
X47997804Y-32712194D01*
X47968265Y-32665546D01*
X47961507Y-32610749D01*
X47974385Y-32480000D01*
X47954894Y-32282103D01*
X47897170Y-32091812D01*
X47803430Y-31916438D01*
X47705490Y-31797096D01*
X47677279Y-31762720D01*
X47600420Y-31699645D01*
X47523562Y-31636570D01*
X47348188Y-31542830D01*
X47157897Y-31485106D01*
X47157894Y-31485105D01*
X47157892Y-31485105D01*
X46960000Y-31465614D01*
X46762107Y-31485105D01*
X46762104Y-31485105D01*
X46762103Y-31485106D01*
X46683524Y-31508942D01*
X46571811Y-31542830D01*
X46478070Y-31592935D01*
X46396438Y-31636570D01*
X46396436Y-31636571D01*
X46396437Y-31636571D01*
X46242720Y-31762720D01*
X46116571Y-31916437D01*
X46022830Y-32091811D01*
X45965105Y-32282107D01*
X45945614Y-32480000D01*
X45958492Y-32610749D01*
X45951734Y-32665547D01*
X45922194Y-32712194D01*
X45875547Y-32741734D01*
X45820749Y-32748492D01*
X45689999Y-32735614D01*
X45559250Y-32748492D01*
X45504452Y-32741733D01*
X45457804Y-32712194D01*
X45428265Y-32665546D01*
X45421507Y-32610749D01*
X45434385Y-32480000D01*
X45414894Y-32282103D01*
X45357170Y-32091812D01*
X45263430Y-31916438D01*
X45165490Y-31797096D01*
X45137279Y-31762720D01*
X45060420Y-31699645D01*
X44983562Y-31636570D01*
X44808188Y-31542830D01*
X44617897Y-31485106D01*
X44617894Y-31485105D01*
X44617892Y-31485105D01*
X44420000Y-31465614D01*
X44222107Y-31485105D01*
X44222104Y-31485105D01*
X44222103Y-31485106D01*
X44143524Y-31508942D01*
X44031811Y-31542830D01*
X43938070Y-31592935D01*
X43856438Y-31636570D01*
X43856436Y-31636571D01*
X43856437Y-31636571D01*
X43702720Y-31762720D01*
X43576571Y-31916437D01*
X43482830Y-32091811D01*
X43425105Y-32282107D01*
X43405614Y-32480000D01*
X43418492Y-32610749D01*
X43411734Y-32665547D01*
X43382194Y-32712194D01*
X43335547Y-32741734D01*
X43280749Y-32748492D01*
X43149999Y-32735614D01*
X43019250Y-32748492D01*
X42964452Y-32741733D01*
X42917804Y-32712194D01*
X42888265Y-32665546D01*
X42881507Y-32610749D01*
X42894385Y-32480000D01*
X42874894Y-32282103D01*
X42817170Y-32091812D01*
X42723430Y-31916438D01*
X42625490Y-31797096D01*
X42597279Y-31762720D01*
X42520420Y-31699645D01*
X42443562Y-31636570D01*
X42268188Y-31542830D01*
X42077897Y-31485106D01*
X42077894Y-31485105D01*
X42077892Y-31485105D01*
X41880000Y-31465614D01*
X41682107Y-31485105D01*
X41682104Y-31485105D01*
X41682103Y-31485106D01*
X41603524Y-31508942D01*
X41491811Y-31542830D01*
X41398070Y-31592935D01*
X41316438Y-31636570D01*
X41316436Y-31636571D01*
X41316437Y-31636571D01*
X41162720Y-31762720D01*
X41036571Y-31916437D01*
X40942830Y-32091811D01*
X40885105Y-32282107D01*
X40865614Y-32480000D01*
X40878492Y-32610749D01*
X40871734Y-32665547D01*
X40842194Y-32712194D01*
X40795547Y-32741734D01*
X40740749Y-32748492D01*
X40609999Y-32735614D01*
X40479250Y-32748492D01*
X40424452Y-32741733D01*
X40377804Y-32712194D01*
X40348265Y-32665546D01*
X40341507Y-32610749D01*
X40354385Y-32480000D01*
X40334894Y-32282103D01*
X40277170Y-32091812D01*
X40183430Y-31916438D01*
X40085490Y-31797096D01*
X40057279Y-31762720D01*
X39980420Y-31699645D01*
X39903562Y-31636570D01*
X39728188Y-31542830D01*
X39537897Y-31485106D01*
X39537894Y-31485105D01*
X39537892Y-31485105D01*
X39340000Y-31465614D01*
X39142107Y-31485105D01*
X39142104Y-31485105D01*
X39142103Y-31485106D01*
X39063524Y-31508942D01*
X38951811Y-31542830D01*
X38858070Y-31592935D01*
X38776438Y-31636570D01*
X38776436Y-31636571D01*
X38776437Y-31636571D01*
X38622720Y-31762720D01*
X38496571Y-31916437D01*
X38402830Y-32091811D01*
X38345105Y-32282107D01*
X38325614Y-32480000D01*
X38338492Y-32610749D01*
X38331734Y-32665547D01*
X38302194Y-32712194D01*
X38255547Y-32741734D01*
X38200749Y-32748492D01*
X38069999Y-32735614D01*
X37939250Y-32748492D01*
X37884452Y-32741733D01*
X37837804Y-32712194D01*
X37808265Y-32665546D01*
X37801507Y-32610749D01*
X37814385Y-32480000D01*
X37794894Y-32282103D01*
X37737170Y-32091812D01*
X37643430Y-31916438D01*
X37545490Y-31797096D01*
X37517279Y-31762720D01*
X37440420Y-31699645D01*
X37363562Y-31636570D01*
X37188188Y-31542830D01*
X36997897Y-31485106D01*
X36997894Y-31485105D01*
X36997892Y-31485105D01*
X36884859Y-31473972D01*
X36819691Y-31447910D01*
X36778575Y-31391027D01*
X36774272Y-31320972D01*
X36808113Y-31259486D01*
X40836656Y-27230943D01*
X40893138Y-27198333D01*
X40958360Y-27198333D01*
X41014844Y-27230945D01*
G37*
%TD.AperFunction*%
%TA.AperFunction,Conductor*%
G36*
X29423216Y-12908817D02*
G01*
X29430839Y-12916440D01*
X29447226Y-12936619D01*
X29452383Y-12944512D01*
X29452385Y-12944513D01*
X29452386Y-12944515D01*
X29475667Y-12962635D01*
X29486859Y-12972519D01*
X29502968Y-12984021D01*
X29507137Y-12987129D01*
X29546172Y-13017511D01*
X29546175Y-13017512D01*
X29552165Y-13022174D01*
X29559435Y-13024338D01*
X29559439Y-13024341D01*
X29606908Y-13038472D01*
X29611773Y-13040031D01*
X29658577Y-13056100D01*
X29658579Y-13056100D01*
X29665759Y-13058565D01*
X29673342Y-13058251D01*
X29673344Y-13058252D01*
X29722756Y-13056207D01*
X29727964Y-13056100D01*
X32069292Y-13056100D01*
X32129677Y-13071512D01*
X32175290Y-13113979D01*
X32194971Y-13173111D01*
X32183906Y-13234439D01*
X32150495Y-13307599D01*
X32146080Y-13317268D01*
X32125270Y-13462000D01*
X32146080Y-13606731D01*
X32146080Y-13606732D01*
X32146081Y-13606734D01*
X32152906Y-13621678D01*
X32206824Y-13739743D01*
X32302578Y-13850250D01*
X32425589Y-13929304D01*
X32565888Y-13970500D01*
X32565889Y-13970500D01*
X32712110Y-13970500D01*
X32712111Y-13970500D01*
X32756401Y-13957494D01*
X32814271Y-13954393D01*
X32867409Y-13977523D01*
X32904572Y-14021991D01*
X32917900Y-14078391D01*
X32917900Y-14605509D01*
X32898900Y-14672045D01*
X32847628Y-14718515D01*
X32779550Y-14730902D01*
X32734855Y-14726500D01*
X32734852Y-14726500D01*
X31781148Y-14726500D01*
X31781144Y-14726500D01*
X31730528Y-14731484D01*
X31701750Y-14737209D01*
X31653058Y-14751978D01*
X31608196Y-14775960D01*
X31583796Y-14792264D01*
X31544475Y-14824535D01*
X31334535Y-15034475D01*
X31302264Y-15073796D01*
X31285960Y-15098196D01*
X31261978Y-15143058D01*
X31247209Y-15191750D01*
X31241484Y-15220528D01*
X31236500Y-15271144D01*
X31236500Y-23462322D01*
X31226909Y-23510540D01*
X31199595Y-23551417D01*
X31171417Y-23579595D01*
X31130540Y-23606909D01*
X31082322Y-23616500D01*
X21241678Y-23616500D01*
X21193460Y-23606909D01*
X21152583Y-23579595D01*
X21124405Y-23551417D01*
X21097091Y-23510540D01*
X21087500Y-23462322D01*
X21087500Y-13621678D01*
X21097091Y-13573460D01*
X21124405Y-13532583D01*
X21152583Y-13504405D01*
X21193460Y-13477091D01*
X21241678Y-13467500D01*
X28670856Y-13467500D01*
X28721471Y-13462515D01*
X28727353Y-13461344D01*
X28750253Y-13456790D01*
X28798939Y-13442022D01*
X28843807Y-13418038D01*
X28868203Y-13401736D01*
X28907520Y-13369468D01*
X29117468Y-13159520D01*
X29149736Y-13120203D01*
X29166038Y-13095807D01*
X29190022Y-13050939D01*
X29204790Y-13002253D01*
X29210514Y-12973475D01*
X29210514Y-12973466D01*
X29210541Y-12973335D01*
X29240759Y-12913298D01*
X29297543Y-12877338D01*
X29364735Y-12875688D01*
X29423216Y-12908817D01*
G37*
%TD.AperFunction*%
%TD*%
%TA.AperFunction,Conductor*%
%TO.N,+5V*%
G36*
X10030630Y-12324724D02*
G01*
X10055026Y-12341026D01*
X10391974Y-12677974D01*
X10408276Y-12702370D01*
X10414000Y-12731148D01*
X10414000Y-13938852D01*
X10408276Y-13967630D01*
X10391974Y-13992026D01*
X9674026Y-14709974D01*
X9649630Y-14726276D01*
X9620852Y-14732000D01*
X7651148Y-14732000D01*
X7622370Y-14726276D01*
X7597974Y-14709974D01*
X7261026Y-14373026D01*
X7244724Y-14348630D01*
X7239000Y-14319852D01*
X7239000Y-13366148D01*
X7244724Y-13337370D01*
X7261026Y-13312974D01*
X7470974Y-13103026D01*
X7495370Y-13086724D01*
X7524148Y-13081000D01*
X8636000Y-13081000D01*
X9375973Y-12341026D01*
X9400370Y-12324724D01*
X9429148Y-12319000D01*
X10001852Y-12319000D01*
X10030630Y-12324724D01*
G37*
%TD.AperFunction*%
%TD*%
%TA.AperFunction,Conductor*%
%TO.N,+1V2*%
G36*
X20809505Y-11695938D02*
G01*
X20837254Y-11727961D01*
X20843283Y-11769903D01*
X20825681Y-11808446D01*
X20819996Y-11815005D01*
X20765324Y-11934722D01*
X20746593Y-12064999D01*
X20765324Y-12195277D01*
X20819996Y-12314994D01*
X20906188Y-12414465D01*
X20987759Y-12466886D01*
X21016909Y-12485620D01*
X21143193Y-12522700D01*
X21274807Y-12522700D01*
X21401091Y-12485620D01*
X21482662Y-12433197D01*
X21511811Y-12414465D01*
X21511812Y-12414464D01*
X21598002Y-12314996D01*
X21652676Y-12195275D01*
X21671407Y-12065000D01*
X21652676Y-11934725D01*
X21630744Y-11886700D01*
X21598003Y-11815005D01*
X21592319Y-11808446D01*
X21574717Y-11769903D01*
X21580746Y-11727961D01*
X21608495Y-11695938D01*
X21649151Y-11684000D01*
X25318092Y-11684000D01*
X25346870Y-11689724D01*
X25371266Y-11706026D01*
X25676828Y-12011588D01*
X25694988Y-12040961D01*
X25696220Y-12054562D01*
X25698055Y-12054299D01*
X25699593Y-12064998D01*
X25699593Y-12065000D01*
X25703446Y-12091795D01*
X25718324Y-12195277D01*
X25772996Y-12314994D01*
X25859188Y-12414465D01*
X25940759Y-12466886D01*
X25969909Y-12485620D01*
X26096193Y-12522700D01*
X26227807Y-12522700D01*
X26354091Y-12485620D01*
X26435662Y-12433197D01*
X26464811Y-12414465D01*
X26464812Y-12414464D01*
X26551002Y-12314996D01*
X26605676Y-12195275D01*
X26624407Y-12065000D01*
X26605676Y-11934725D01*
X26583744Y-11886700D01*
X26551003Y-11815005D01*
X26545319Y-11808446D01*
X26527717Y-11769903D01*
X26533746Y-11727961D01*
X26561495Y-11695938D01*
X26602151Y-11684000D01*
X28642849Y-11684000D01*
X28683505Y-11695938D01*
X28711254Y-11727961D01*
X28717283Y-11769903D01*
X28699681Y-11808446D01*
X28693996Y-11815005D01*
X28639324Y-11934722D01*
X28620593Y-12064999D01*
X28639324Y-12195277D01*
X28693996Y-12314994D01*
X28780188Y-12414465D01*
X28890909Y-12485620D01*
X28901984Y-12488872D01*
X28941000Y-12515960D01*
X28956000Y-12561026D01*
X28956000Y-12922852D01*
X28950276Y-12951630D01*
X28933974Y-12976026D01*
X28724026Y-13185974D01*
X28699630Y-13202276D01*
X28670852Y-13208000D01*
X21082000Y-13208000D01*
X20828000Y-13461999D01*
X20828000Y-13462000D01*
X20828000Y-23622000D01*
X21082000Y-23876000D01*
X31242000Y-23876000D01*
X31496000Y-23622000D01*
X31496000Y-15271148D01*
X31501724Y-15242370D01*
X31518026Y-15217974D01*
X31727974Y-15008026D01*
X31752370Y-14991724D01*
X31781148Y-14986000D01*
X32734852Y-14986000D01*
X32763630Y-14991724D01*
X32788026Y-15008026D01*
X32946674Y-15166674D01*
X32962976Y-15191070D01*
X32968700Y-15219848D01*
X32968700Y-15431931D01*
X32966210Y-15447195D01*
X32968620Y-15499319D01*
X32968700Y-15502792D01*
X32968700Y-15522293D01*
X32969046Y-15524146D01*
X32970244Y-15534473D01*
X32971662Y-15565110D01*
X32976883Y-15576935D01*
X32982009Y-15593489D01*
X32984385Y-15606197D01*
X33000529Y-15632270D01*
X33005382Y-15641477D01*
X33013593Y-15660074D01*
X33020000Y-15690448D01*
X33020000Y-17592716D01*
X33006571Y-17635604D01*
X32971080Y-17663175D01*
X32926203Y-17665580D01*
X32887968Y-17641962D01*
X32814811Y-17557534D01*
X32704091Y-17486380D01*
X32577807Y-17449300D01*
X32446193Y-17449300D01*
X32319908Y-17486380D01*
X32209188Y-17557534D01*
X32122996Y-17657005D01*
X32068324Y-17776722D01*
X32049593Y-17907000D01*
X32068324Y-18037277D01*
X32122996Y-18156994D01*
X32209188Y-18256465D01*
X32290759Y-18308886D01*
X32319909Y-18327620D01*
X32446193Y-18364700D01*
X32577807Y-18364700D01*
X32704091Y-18327620D01*
X32785662Y-18275197D01*
X32814811Y-18256465D01*
X32887968Y-18172038D01*
X32926203Y-18148420D01*
X32971080Y-18150825D01*
X33006571Y-18178396D01*
X33020000Y-18221284D01*
X33020000Y-21788066D01*
X33009473Y-21826438D01*
X32980840Y-21854067D01*
X32942116Y-21863218D01*
X32904144Y-21851328D01*
X32831091Y-21804380D01*
X32704807Y-21767300D01*
X32573193Y-21767300D01*
X32446908Y-21804380D01*
X32336188Y-21875534D01*
X32249996Y-21975005D01*
X32195324Y-22094722D01*
X32176593Y-22225000D01*
X32195324Y-22355277D01*
X32249996Y-22474994D01*
X32336188Y-22574465D01*
X32369594Y-22595933D01*
X32446909Y-22645620D01*
X32573193Y-22682700D01*
X32704807Y-22682700D01*
X32831091Y-22645620D01*
X32904143Y-22598672D01*
X32942116Y-22586782D01*
X32980840Y-22595933D01*
X33009473Y-22623562D01*
X33020000Y-22661934D01*
X33020000Y-24352852D01*
X33014276Y-24381630D01*
X32997974Y-24406026D01*
X32594331Y-24809668D01*
X32558451Y-24829678D01*
X32517409Y-24827846D01*
X32483455Y-24804717D01*
X32466722Y-24767196D01*
X32466406Y-24765002D01*
X32466407Y-24765000D01*
X32447676Y-24634725D01*
X32431078Y-24598380D01*
X32393003Y-24515005D01*
X32306811Y-24415534D01*
X32196091Y-24344380D01*
X32069807Y-24307300D01*
X31938193Y-24307300D01*
X31811908Y-24344380D01*
X31701188Y-24415534D01*
X31614996Y-24515005D01*
X31560324Y-24634722D01*
X31541593Y-24765000D01*
X31560324Y-24895277D01*
X31614996Y-25014994D01*
X31701188Y-25114465D01*
X31755355Y-25149275D01*
X31811909Y-25185620D01*
X31938193Y-25222700D01*
X31999751Y-25222700D01*
X32041530Y-25235373D01*
X32069227Y-25269122D01*
X32073506Y-25312571D01*
X32052925Y-25351074D01*
X32026025Y-25377974D01*
X32001629Y-25394276D01*
X31972851Y-25400000D01*
X29650151Y-25400000D01*
X29609495Y-25388062D01*
X29581746Y-25356039D01*
X29575717Y-25314097D01*
X29593319Y-25275554D01*
X29599002Y-25268996D01*
X29653676Y-25149275D01*
X29672407Y-25019000D01*
X29653676Y-24888725D01*
X29625874Y-24827846D01*
X29599003Y-24769005D01*
X29512811Y-24669534D01*
X29402091Y-24598380D01*
X29275807Y-24561300D01*
X29144193Y-24561300D01*
X29017908Y-24598380D01*
X28907188Y-24669534D01*
X28820996Y-24769005D01*
X28766324Y-24888722D01*
X28747593Y-25019000D01*
X28766324Y-25149277D01*
X28820996Y-25268994D01*
X28826681Y-25275554D01*
X28844283Y-25314097D01*
X28838254Y-25356039D01*
X28810505Y-25388062D01*
X28769849Y-25400000D01*
X24570151Y-25400000D01*
X24529495Y-25388062D01*
X24501746Y-25356039D01*
X24495717Y-25314097D01*
X24513319Y-25275554D01*
X24519002Y-25268996D01*
X24573676Y-25149275D01*
X24592407Y-25019000D01*
X24573676Y-24888725D01*
X24545874Y-24827846D01*
X24519003Y-24769005D01*
X24432811Y-24669534D01*
X24322091Y-24598380D01*
X24195807Y-24561300D01*
X24064193Y-24561300D01*
X23937908Y-24598380D01*
X23827188Y-24669534D01*
X23740996Y-24769005D01*
X23686324Y-24888722D01*
X23667593Y-25019000D01*
X23686324Y-25149277D01*
X23740996Y-25268994D01*
X23746681Y-25275554D01*
X23764283Y-25314097D01*
X23758254Y-25356039D01*
X23730505Y-25388062D01*
X23689849Y-25400000D01*
X20351148Y-25400000D01*
X20322370Y-25394276D01*
X20297974Y-25377974D01*
X20058977Y-25138977D01*
X20039997Y-25106989D01*
X20038670Y-25069817D01*
X20055320Y-25036556D01*
X20074001Y-25014997D01*
X20074000Y-25014997D01*
X20074002Y-25014996D01*
X20128676Y-24895275D01*
X20147407Y-24765000D01*
X20128676Y-24634725D01*
X20112078Y-24598380D01*
X20074003Y-24515005D01*
X19987811Y-24415534D01*
X19877091Y-24344380D01*
X19750807Y-24307300D01*
X19619193Y-24307300D01*
X19492908Y-24344380D01*
X19419856Y-24391328D01*
X19381884Y-24403218D01*
X19343160Y-24394067D01*
X19314527Y-24366438D01*
X19304000Y-24328066D01*
X19304000Y-21010934D01*
X19314527Y-20972562D01*
X19343160Y-20944933D01*
X19381884Y-20935782D01*
X19419856Y-20947672D01*
X19492909Y-20994620D01*
X19619193Y-21031700D01*
X19750807Y-21031700D01*
X19877091Y-20994620D01*
X19968645Y-20935782D01*
X19987811Y-20923465D01*
X20032028Y-20872436D01*
X20074002Y-20823996D01*
X20128676Y-20704275D01*
X20147407Y-20574000D01*
X20128676Y-20443725D01*
X20118464Y-20421363D01*
X20074003Y-20324005D01*
X19987811Y-20224534D01*
X19877091Y-20153380D01*
X19750807Y-20116300D01*
X19619193Y-20116300D01*
X19492908Y-20153380D01*
X19419856Y-20200328D01*
X19381884Y-20212218D01*
X19343160Y-20203067D01*
X19314527Y-20175438D01*
X19304000Y-20137066D01*
X19304000Y-17962934D01*
X19314527Y-17924562D01*
X19343160Y-17896933D01*
X19381884Y-17887782D01*
X19419856Y-17899672D01*
X19492909Y-17946620D01*
X19619193Y-17983700D01*
X19750807Y-17983700D01*
X19877091Y-17946620D01*
X19968645Y-17887782D01*
X19987811Y-17875465D01*
X20032028Y-17824436D01*
X20074002Y-17775996D01*
X20128676Y-17656275D01*
X20147407Y-17526000D01*
X20128676Y-17395725D01*
X20118464Y-17373363D01*
X20074003Y-17276005D01*
X19987811Y-17176534D01*
X19877092Y-17105380D01*
X19843578Y-17095539D01*
X19825234Y-17090153D01*
X19786220Y-17063066D01*
X19771221Y-17018000D01*
X19786220Y-16972934D01*
X19825234Y-16945846D01*
X19877091Y-16930620D01*
X19968645Y-16871782D01*
X19987811Y-16859465D01*
X20032028Y-16808436D01*
X20074002Y-16759996D01*
X20128676Y-16640275D01*
X20147407Y-16510000D01*
X20128676Y-16379725D01*
X20118464Y-16357363D01*
X20074003Y-16260005D01*
X19987811Y-16160534D01*
X19877091Y-16089380D01*
X19750807Y-16052300D01*
X19619193Y-16052300D01*
X19492908Y-16089380D01*
X19419856Y-16136328D01*
X19381884Y-16148218D01*
X19343160Y-16139067D01*
X19314527Y-16111438D01*
X19304000Y-16073066D01*
X19304000Y-14914934D01*
X19314527Y-14876562D01*
X19343160Y-14848933D01*
X19381884Y-14839782D01*
X19419856Y-14851672D01*
X19492909Y-14898620D01*
X19619193Y-14935700D01*
X19750807Y-14935700D01*
X19877091Y-14898620D01*
X19968645Y-14839782D01*
X19987811Y-14827465D01*
X19987812Y-14827464D01*
X20074002Y-14727996D01*
X20128676Y-14608275D01*
X20147407Y-14478000D01*
X20128676Y-14347725D01*
X20128675Y-14347722D01*
X20074003Y-14228005D01*
X19987811Y-14128534D01*
X19877091Y-14057380D01*
X19750807Y-14020300D01*
X19619193Y-14020300D01*
X19492908Y-14057380D01*
X19419856Y-14104328D01*
X19381884Y-14116218D01*
X19343160Y-14107067D01*
X19314527Y-14079438D01*
X19304000Y-14041066D01*
X19304000Y-12731148D01*
X19309724Y-12702370D01*
X19326026Y-12677974D01*
X20297974Y-11706026D01*
X20322370Y-11689724D01*
X20351148Y-11684000D01*
X20768849Y-11684000D01*
X20809505Y-11695938D01*
G37*
%TD.AperFunction*%
%TD*%
M02*
