M48
; DRILL file {KiCad 7.0.1-0} date 2023 July 11, Tuesday 12:02:23
; FORMAT={-:-/ absolute / metric / decimal}
; #@! TF.CreationDate,2023-07-11T12:02:23-05:00
; #@! TF.GenerationSoftware,Kicad,Pcbnew,7.0.1-0
; #@! TF.FileFunction,Plated,1,4,PTH
FMAT,2
METRIC
; #@! TA.AperFunction,Plated,PTH,ViaDrill
T1C0.152
; #@! TA.AperFunction,Plated,PTH,ViaDrill
T2C0.305
; #@! TA.AperFunction,Plated,PTH,ViaDrill
T3C0.406
; #@! TA.AperFunction,Plated,PTH,ComponentDrill
T4C0.800
; #@! TA.AperFunction,Plated,PTH,ComponentDrill
T5C0.910
; #@! TA.AperFunction,Plated,PTH,ComponentDrill
T6C1.000
; #@! TA.AperFunction,Plated,PTH,ComponentDrill
T7C1.020
; #@! TA.AperFunction,Plated,PTH,ComponentDrill
T8C1.520
; #@! TA.AperFunction,Plated,PTH,ComponentDrill
T9C2.030
; #@! TA.AperFunction,Plated,PTH,ComponentDrill
T10C2.700
%
G90
G05
T1
X-2.667Y-22.098
X-2.54Y-33.528
X-2.54Y-34.29
X-2.54Y-35.052
X-2.286Y-13.462
X-2.286Y-14.224
X-2.286Y-14.986
X-1.905Y-22.098
X-1.787Y-19.814
X-1.778Y-33.528
X-1.778Y-34.29
X-1.778Y-35.052
X-1.524Y-14.224
X-1.524Y-14.986
X-1.016Y-19.939
X-1.016Y-33.528
X-1.016Y-34.29
X-1.016Y-35.052
X-0.762Y-14.224
X-0.254Y-24.892
X-0.254Y-25.654
X-0.254Y-26.416
X-0.254Y-33.528
X-0.254Y-34.29
X-0.254Y-35.052
X0.0Y-16.51
X0.127Y-17.653
X0.508Y-25.654
X0.508Y-32.766
X0.508Y-33.528
X0.508Y-34.29
X0.508Y-35.052
X0.762Y-15.748
X0.762Y-16.51
X1.27Y-24.892
X1.27Y-25.654
X1.27Y-26.416
X1.27Y-32.766
X1.27Y-33.528
X1.27Y-34.29
X1.27Y-35.052
X1.524Y-15.748
X2.032Y-32.766
X2.032Y-33.528
X2.032Y-34.29
X2.032Y-35.052
X2.286Y-21.844
X2.286Y-29.464
X2.54Y-10.922
X2.794Y-34.29
X2.794Y-35.052
X3.048Y-21.844
X3.048Y-29.464
X3.556Y-34.29
X3.556Y-35.052
X3.81Y-21.844
X3.81Y-22.606
X3.81Y-23.368
X3.81Y-27.94
X3.81Y-28.702
X3.81Y-29.464
X4.318Y-34.29
X4.318Y-35.052
X4.572Y-4.064
X5.08Y-6.858
X5.08Y-7.62
X5.08Y-8.382
X5.08Y-9.144
X5.08Y-34.29
X5.08Y-35.052
X5.334Y-4.064
X5.842Y-34.29
X5.842Y-35.052
X6.096Y-24.638
X6.096Y-25.654
X6.096Y-26.67
X6.604Y-34.29
X6.604Y-35.052
X7.112Y-24.638
X7.112Y-25.654
X7.112Y-26.67
X7.366Y-34.29
X7.366Y-35.052
X7.366Y-35.814
X7.62Y-13.462
X7.62Y-14.224
X7.62Y-15.748
X7.62Y-16.51
X8.128Y-24.638
X8.128Y-25.654
X8.128Y-26.67
X8.128Y-35.052
X8.128Y-35.814
X8.382Y-7.366
X8.382Y-13.462
X8.382Y-14.224
X8.382Y-15.748
X8.89Y-5.334
X8.89Y-21.59
X8.89Y-22.352
X8.89Y-28.448
X8.89Y-29.21
X8.89Y-35.052
X8.89Y-35.814
X9.144Y-13.462
X9.144Y-14.224
X9.144Y-19.431
X9.652Y-21.59
X9.652Y-22.352
X9.652Y-28.448
X9.652Y-29.21
X9.652Y-35.052
X9.652Y-35.814
X9.906Y-6.985
X9.906Y-9.271
X9.906Y-12.7
X9.906Y-13.462
X9.906Y-19.431
X10.668Y-6.985
X10.668Y-7.747
X10.668Y-8.509
X10.668Y-9.271
X10.668Y-10.033
X10.668Y-11.049
X10.668Y-11.811
X10.668Y-19.431
X11.303Y-41.021
X11.303Y-41.783
X11.43Y-6.223
X11.43Y-6.985
X11.43Y-7.747
X11.43Y-8.509
X11.43Y-9.271
X11.43Y-10.033
X11.43Y-11.049
X11.43Y-11.811
X11.43Y-12.573
X11.43Y-13.335
X11.43Y-14.097
X11.43Y-19.431
X11.938Y-40.386
X11.938Y-42.926
X12.192Y-6.985
X12.192Y-7.747
X12.192Y-8.509
X12.192Y-9.271
X12.192Y-11.049
X12.192Y-11.811
X12.192Y-12.573
X12.192Y-13.335
X12.192Y-14.097
X12.192Y-35.052
X12.7Y-40.386
X12.7Y-42.926
X12.954Y-11.049
X12.954Y-11.811
X12.954Y-12.573
X12.954Y-13.335
X12.954Y-14.097
X12.954Y-35.052
X12.954Y-35.814
X13.716Y-11.811
X13.716Y-12.573
X13.716Y-13.335
X13.97Y-41.275
X13.97Y-42.037
X14.478Y-18.796
X14.478Y-19.558
X14.478Y-20.32
X15.24Y-18.796
X15.24Y-19.558
X15.24Y-20.32
X16.002Y-18.796
X16.002Y-19.558
X16.002Y-20.32
X16.764Y-18.796
X16.764Y-19.558
X16.764Y-20.32
X18.288Y-31.496
X18.796Y-9.398
X18.796Y-42.164
X19.685Y-14.478
X19.685Y-15.494
X19.685Y-16.51
X19.685Y-17.526
X19.685Y-19.558
X19.685Y-20.574
X19.685Y-21.59
X19.685Y-22.606
X19.685Y-24.765
X20.447Y-12.065
X20.955Y-25.019
X21.209Y-12.065
X21.336Y-9.398
X22.098Y-9.398
X22.149Y-12.06
X23.241Y-25.019
X23.622Y-12.065
X23.622Y-31.496
X24.13Y-25.019
X24.511Y-9.525
X25.146Y-25.019
X25.273Y-9.525
X26.162Y-12.065
X26.924Y-8.89
X27.178Y-25.019
X27.575Y-12.075
X27.94Y-8.89
X28.194Y-25.019
X28.321Y-12.065
X28.956Y-8.89
X29.083Y-12.065
X29.21Y-25.019
X29.972Y-8.89
X30.226Y-25.019
X30.988Y-8.89
X32.004Y-24.765
X32.512Y-17.907
X32.512Y-18.669
X32.639Y-13.462
X32.639Y-15.494
X32.639Y-16.764
X32.639Y-19.939
X32.639Y-22.225
X32.639Y-23.114
X33.147Y-10.795
X33.528Y-10.16
X34.29Y-44.704
X34.544Y-9.271
X34.671Y-35.433
X34.798Y-25.781
X35.052Y-8.509
X35.052Y-26.67
X35.179Y-20.701
X35.179Y-21.463
X35.179Y-22.225
X35.179Y-22.987
X35.306Y-14.224
X35.814Y-8.255
X35.814Y-9.906
X35.814Y-14.859
X36.068Y-44.704
X36.322Y-15.494
X37.084Y-11.176
X37.211Y-9.271
X37.592Y-13.462
X37.592Y-14.224
X37.592Y-14.986
X38.354Y-12.7
X38.354Y-13.462
X38.354Y-14.224
X38.481Y-9.906
X38.481Y-24.257
X38.481Y-25.019
X38.481Y-25.781
X38.481Y-26.543
X39.116Y-9.271
X39.116Y-11.811
X39.116Y-12.7
X39.116Y-13.462
X39.878Y-17.526
X39.878Y-18.288
X40.64Y-16.764
X40.64Y-17.526
X40.64Y-18.288
X40.64Y-19.05
X40.64Y-27.94
X40.64Y-31.496
X41.402Y-16.764
X41.402Y-17.526
X41.402Y-18.288
X42.164Y-7.112
X42.164Y-7.874
X42.164Y-17.526
X42.164Y-18.288
X42.164Y-26.67
X42.926Y-7.112
X42.926Y-17.526
X42.926Y-26.67
X43.18Y-27.94
X43.18Y-31.496
X43.942Y-5.842
X45.593Y-11.43
X45.593Y-13.97
X45.593Y-21.844
X45.593Y-24.384
X46.482Y-11.43
X46.482Y-13.97
X46.482Y-21.844
X46.482Y-24.384
X46.99Y-12.573
X46.99Y-13.335
X46.99Y-22.987
X46.99Y-23.749
X48.26Y-31.877
X52.578Y-42.926
T2
X0.762Y-30.226
X2.286Y-20.828
X7.366Y-22.352
X7.366Y-28.702
X13.97Y-38.862
X14.224Y-43.942
X42.926Y-20.828
X42.926Y-25.654
X43.18Y-10.668
X43.18Y-16.256
X47.879Y-4.064
X47.879Y-4.953
X47.879Y-5.842
X49.784Y-5.08
X50.673Y-5.08
T3
X23.114Y-15.494
X23.114Y-16.51
X23.114Y-17.526
X23.114Y-18.542
X23.114Y-19.558
X23.114Y-20.574
X23.114Y-21.59
X24.13Y-15.494
X24.13Y-16.51
X24.13Y-17.526
X24.13Y-18.542
X24.13Y-19.558
X24.13Y-20.574
X24.13Y-21.59
X25.146Y-15.494
X25.146Y-16.51
X25.146Y-17.526
X25.146Y-18.542
X25.146Y-19.558
X25.146Y-20.574
X25.146Y-21.59
X26.162Y-15.494
X26.162Y-16.51
X26.162Y-17.526
X26.162Y-18.542
X26.162Y-19.558
X26.162Y-20.574
X26.162Y-21.59
X27.178Y-15.494
X27.178Y-16.51
X27.178Y-17.526
X27.178Y-18.542
X27.178Y-19.558
X27.178Y-20.574
X27.178Y-21.59
X28.194Y-15.494
X28.194Y-16.51
X28.194Y-17.526
X28.194Y-18.542
X28.194Y-19.558
X28.194Y-20.574
X28.194Y-21.59
X29.21Y-15.494
X29.21Y-16.51
X29.21Y-17.526
X29.21Y-18.542
X29.21Y-19.558
X29.21Y-20.574
X29.21Y-21.59
T4
X-2.159Y-23.511
X-2.159Y-25.511
X-1.0Y-5.25
X-1.0Y-7.25
X-1.0Y-9.25
X-1.0Y-11.25
X1.0Y-5.25
X1.0Y-7.25
X1.0Y-9.25
X1.0Y-11.25
T5
X19.73Y-32.48
X21.0Y-33.75
X22.27Y-32.48
X23.54Y-33.75
X24.81Y-32.48
X26.08Y-33.75
X27.35Y-32.48
X28.62Y-33.75
X29.89Y-32.48
X31.16Y-33.75
X32.43Y-32.48
X33.7Y-33.75
X36.8Y-32.48
X38.07Y-33.75
X39.34Y-32.48
X40.61Y-33.75
X41.88Y-32.48
X43.15Y-33.75
X44.42Y-32.48
X45.69Y-33.75
X46.96Y-32.48
X48.23Y-33.75
X49.5Y-32.48
X50.77Y-33.75
T6
X4.87Y-36.83
X4.87Y-39.37
X4.87Y-41.91
X4.87Y-44.45
X4.87Y1.27
X4.87Y-1.27
X7.41Y1.27
X7.41Y-1.27
X9.95Y1.27
X9.95Y-1.27
X12.49Y1.27
X12.49Y-1.27
X15.03Y-3.81
X15.03Y-6.35
X15.03Y1.27
X15.03Y-1.27
X17.57Y-3.81
X17.57Y-6.35
X17.57Y1.27
X17.57Y-1.27
X20.11Y-3.81
X20.11Y-6.35
X20.11Y1.27
X20.11Y-1.27
X22.65Y-3.81
X22.65Y-6.35
X22.65Y1.27
X22.65Y-1.27
X25.19Y-3.81
X25.19Y-6.35
X25.19Y1.27
X25.19Y-1.27
X27.73Y-3.81
X27.73Y-6.35
X27.73Y1.27
X27.73Y-1.27
X30.27Y-3.81
X30.27Y-6.35
X30.27Y1.27
X30.27Y-1.27
X32.81Y-3.81
X32.81Y-6.35
X32.81Y1.27
X32.81Y-1.27
X35.35Y-3.81
X35.35Y-6.35
X35.35Y1.27
X35.35Y-1.27
X37.89Y-3.81
X37.89Y-6.35
X37.89Y1.27
X37.89Y-1.27
X40.43Y-3.81
X40.43Y-6.35
X40.43Y1.27
X40.43Y-1.27
X42.97Y1.27
X42.97Y-1.27
X45.51Y1.27
X45.51Y-1.27
X48.05Y1.27
X48.05Y-1.27
X50.59Y1.27
X50.59Y-1.27
X53.061Y-3.83
X53.061Y-6.37
X53.13Y-8.89
X53.13Y-11.43
X53.13Y-13.97
X53.13Y-16.51
X53.13Y-21.59
X53.13Y-24.13
X53.13Y-26.67
X53.13Y-29.21
X53.13Y1.27
X53.13Y-1.27
T7
X19.195Y-49.45
X19.195Y-51.23
X34.235Y-49.45
X34.235Y-51.23
X36.265Y-49.45
X36.265Y-51.23
X51.305Y-49.45
X51.305Y-51.23
T8
X17.925Y-40.46
X52.575Y-40.46
T9
X17.925Y-47.22
X52.575Y-47.22
T10
X0.0Y0.0
X0.0Y-49.0
X58.0Y0.0
X58.0Y-49.0
T0
M30
