%TF.GenerationSoftware,KiCad,Pcbnew,7.0.1-0*%
%TF.CreationDate,2023-07-11T12:02:19-05:00*%
%TF.ProjectId,little_switch,6c697474-6c65-45f7-9377-697463682e6b,2*%
%TF.SameCoordinates,PX4221330PY3d0af40*%
%TF.FileFunction,Legend,Top*%
%TF.FilePolarity,Positive*%
%FSLAX46Y46*%
G04 Gerber Fmt 4.6, Leading zero omitted, Abs format (unit mm)*
G04 Created by KiCad (PCBNEW 7.0.1-0) date 2023-07-11 12:02:19*
%MOMM*%
%LPD*%
G01*
G04 APERTURE LIST*
%ADD10C,0.150000*%
%ADD11C,0.152400*%
%ADD12C,0.120000*%
G04 APERTURE END LIST*
D10*
X22098000Y-14478000D02*
X22098000Y-16510000D01*
X9906000Y-24638000D02*
X9398000Y-24130000D01*
X30226000Y-22606000D02*
X30226000Y-14478000D01*
X2286000Y-12700000D02*
X-381000Y-12700000D01*
X12954000Y-24638000D02*
X9906000Y-24638000D01*
X22098000Y-16510000D02*
X22352000Y-16256000D01*
X12954000Y-23622000D02*
X12954000Y-24638000D01*
X8890000Y-14986000D02*
X7112000Y-14986000D01*
X22098000Y-22606000D02*
X30226000Y-22606000D01*
X22098000Y-16510000D02*
X21844000Y-16256000D01*
X7112000Y-14986000D02*
X7112000Y-13208000D01*
X30226000Y-14478000D02*
X22098000Y-14478000D01*
X2286000Y-12700000D02*
X3048000Y-11938000D01*
X22098000Y-18542000D02*
X22098000Y-22606000D01*
X17018000Y-18542000D02*
X22098000Y-18542000D01*
D11*
X48405142Y-21679020D02*
X48985714Y-21679020D01*
X48695428Y-22695020D02*
X48695428Y-21679020D01*
X49227618Y-21679020D02*
X49904952Y-22695020D01*
X49904952Y-21679020D02*
X49227618Y-22695020D01*
X50291999Y-22307973D02*
X51066095Y-22307973D01*
X50679047Y-22695020D02*
X50679047Y-21920925D01*
X54803523Y-4739640D02*
X54948666Y-4788020D01*
X54948666Y-4788020D02*
X55190571Y-4788020D01*
X55190571Y-4788020D02*
X55287333Y-4739640D01*
X55287333Y-4739640D02*
X55335714Y-4691259D01*
X55335714Y-4691259D02*
X55384095Y-4594497D01*
X55384095Y-4594497D02*
X55384095Y-4497735D01*
X55384095Y-4497735D02*
X55335714Y-4400973D01*
X55335714Y-4400973D02*
X55287333Y-4352592D01*
X55287333Y-4352592D02*
X55190571Y-4304211D01*
X55190571Y-4304211D02*
X54997047Y-4255830D01*
X54997047Y-4255830D02*
X54900285Y-4207449D01*
X54900285Y-4207449D02*
X54851904Y-4159068D01*
X54851904Y-4159068D02*
X54803523Y-4062306D01*
X54803523Y-4062306D02*
X54803523Y-3965544D01*
X54803523Y-3965544D02*
X54851904Y-3868782D01*
X54851904Y-3868782D02*
X54900285Y-3820401D01*
X54900285Y-3820401D02*
X54997047Y-3772020D01*
X54997047Y-3772020D02*
X55238952Y-3772020D01*
X55238952Y-3772020D02*
X55384095Y-3820401D01*
X56013047Y-4304211D02*
X56013047Y-4788020D01*
X55674380Y-3772020D02*
X56013047Y-4304211D01*
X56013047Y-4304211D02*
X56351714Y-3772020D01*
X56690380Y-4788020D02*
X56690380Y-3772020D01*
X56690380Y-3772020D02*
X57270952Y-4788020D01*
X57270952Y-4788020D02*
X57270952Y-3772020D01*
X58335333Y-4691259D02*
X58286952Y-4739640D01*
X58286952Y-4739640D02*
X58141809Y-4788020D01*
X58141809Y-4788020D02*
X58045047Y-4788020D01*
X58045047Y-4788020D02*
X57899904Y-4739640D01*
X57899904Y-4739640D02*
X57803142Y-4642878D01*
X57803142Y-4642878D02*
X57754761Y-4546116D01*
X57754761Y-4546116D02*
X57706380Y-4352592D01*
X57706380Y-4352592D02*
X57706380Y-4207449D01*
X57706380Y-4207449D02*
X57754761Y-4013925D01*
X57754761Y-4013925D02*
X57803142Y-3917163D01*
X57803142Y-3917163D02*
X57899904Y-3820401D01*
X57899904Y-3820401D02*
X58045047Y-3772020D01*
X58045047Y-3772020D02*
X58141809Y-3772020D01*
X58141809Y-3772020D02*
X58286952Y-3820401D01*
X58286952Y-3820401D02*
X58335333Y-3868782D01*
X58770761Y-4400973D02*
X59544857Y-4400973D01*
X59157809Y-4788020D02*
X59157809Y-4013925D01*
X48888952Y-16345020D02*
X48550285Y-15861211D01*
X48308380Y-16345020D02*
X48308380Y-15329020D01*
X48308380Y-15329020D02*
X48695428Y-15329020D01*
X48695428Y-15329020D02*
X48792190Y-15377401D01*
X48792190Y-15377401D02*
X48840571Y-15425782D01*
X48840571Y-15425782D02*
X48888952Y-15522544D01*
X48888952Y-15522544D02*
X48888952Y-15667687D01*
X48888952Y-15667687D02*
X48840571Y-15764449D01*
X48840571Y-15764449D02*
X48792190Y-15812830D01*
X48792190Y-15812830D02*
X48695428Y-15861211D01*
X48695428Y-15861211D02*
X48308380Y-15861211D01*
X49227618Y-15329020D02*
X49904952Y-16345020D01*
X49904952Y-15329020D02*
X49227618Y-16345020D01*
X50291999Y-15957973D02*
X51066095Y-15957973D01*
X7081761Y-43396020D02*
X7662333Y-43396020D01*
X7372047Y-44412020D02*
X7372047Y-43396020D01*
X7904237Y-43396020D02*
X8581571Y-44412020D01*
X8581571Y-43396020D02*
X7904237Y-44412020D01*
X8968618Y-44024973D02*
X9742714Y-44024973D01*
X9355666Y-44412020D02*
X9355666Y-43637925D01*
X7553476Y-37935020D02*
X7214809Y-37451211D01*
X6972904Y-37935020D02*
X6972904Y-36919020D01*
X6972904Y-36919020D02*
X7359952Y-36919020D01*
X7359952Y-36919020D02*
X7456714Y-36967401D01*
X7456714Y-36967401D02*
X7505095Y-37015782D01*
X7505095Y-37015782D02*
X7553476Y-37112544D01*
X7553476Y-37112544D02*
X7553476Y-37257687D01*
X7553476Y-37257687D02*
X7505095Y-37354449D01*
X7505095Y-37354449D02*
X7456714Y-37402830D01*
X7456714Y-37402830D02*
X7359952Y-37451211D01*
X7359952Y-37451211D02*
X6972904Y-37451211D01*
X7892142Y-36919020D02*
X8569476Y-37935020D01*
X8569476Y-36919020D02*
X7892142Y-37935020D01*
X8956523Y-37547973D02*
X9730619Y-37547973D01*
X54803523Y-6009640D02*
X54948666Y-6058020D01*
X54948666Y-6058020D02*
X55190571Y-6058020D01*
X55190571Y-6058020D02*
X55287333Y-6009640D01*
X55287333Y-6009640D02*
X55335714Y-5961259D01*
X55335714Y-5961259D02*
X55384095Y-5864497D01*
X55384095Y-5864497D02*
X55384095Y-5767735D01*
X55384095Y-5767735D02*
X55335714Y-5670973D01*
X55335714Y-5670973D02*
X55287333Y-5622592D01*
X55287333Y-5622592D02*
X55190571Y-5574211D01*
X55190571Y-5574211D02*
X54997047Y-5525830D01*
X54997047Y-5525830D02*
X54900285Y-5477449D01*
X54900285Y-5477449D02*
X54851904Y-5429068D01*
X54851904Y-5429068D02*
X54803523Y-5332306D01*
X54803523Y-5332306D02*
X54803523Y-5235544D01*
X54803523Y-5235544D02*
X54851904Y-5138782D01*
X54851904Y-5138782D02*
X54900285Y-5090401D01*
X54900285Y-5090401D02*
X54997047Y-5042020D01*
X54997047Y-5042020D02*
X55238952Y-5042020D01*
X55238952Y-5042020D02*
X55384095Y-5090401D01*
X56013047Y-5574211D02*
X56013047Y-6058020D01*
X55674380Y-5042020D02*
X56013047Y-5574211D01*
X56013047Y-5574211D02*
X56351714Y-5042020D01*
X56690380Y-6058020D02*
X56690380Y-5042020D01*
X56690380Y-5042020D02*
X57270952Y-6058020D01*
X57270952Y-6058020D02*
X57270952Y-5042020D01*
X58335333Y-5961259D02*
X58286952Y-6009640D01*
X58286952Y-6009640D02*
X58141809Y-6058020D01*
X58141809Y-6058020D02*
X58045047Y-6058020D01*
X58045047Y-6058020D02*
X57899904Y-6009640D01*
X57899904Y-6009640D02*
X57803142Y-5912878D01*
X57803142Y-5912878D02*
X57754761Y-5816116D01*
X57754761Y-5816116D02*
X57706380Y-5622592D01*
X57706380Y-5622592D02*
X57706380Y-5477449D01*
X57706380Y-5477449D02*
X57754761Y-5283925D01*
X57754761Y-5283925D02*
X57803142Y-5187163D01*
X57803142Y-5187163D02*
X57899904Y-5090401D01*
X57899904Y-5090401D02*
X58045047Y-5042020D01*
X58045047Y-5042020D02*
X58141809Y-5042020D01*
X58141809Y-5042020D02*
X58286952Y-5090401D01*
X58286952Y-5090401D02*
X58335333Y-5138782D01*
X58770761Y-5670973D02*
X59544857Y-5670973D01*
X48888952Y-29299020D02*
X48550285Y-28815211D01*
X48308380Y-29299020D02*
X48308380Y-28283020D01*
X48308380Y-28283020D02*
X48695428Y-28283020D01*
X48695428Y-28283020D02*
X48792190Y-28331401D01*
X48792190Y-28331401D02*
X48840571Y-28379782D01*
X48840571Y-28379782D02*
X48888952Y-28476544D01*
X48888952Y-28476544D02*
X48888952Y-28621687D01*
X48888952Y-28621687D02*
X48840571Y-28718449D01*
X48840571Y-28718449D02*
X48792190Y-28766830D01*
X48792190Y-28766830D02*
X48695428Y-28815211D01*
X48695428Y-28815211D02*
X48308380Y-28815211D01*
X49227618Y-28283020D02*
X49904952Y-29299020D01*
X49904952Y-28283020D02*
X49227618Y-29299020D01*
X50291999Y-28911973D02*
X51066095Y-28911973D01*
X7553476Y-39205020D02*
X7214809Y-38721211D01*
X6972904Y-39205020D02*
X6972904Y-38189020D01*
X6972904Y-38189020D02*
X7359952Y-38189020D01*
X7359952Y-38189020D02*
X7456714Y-38237401D01*
X7456714Y-38237401D02*
X7505095Y-38285782D01*
X7505095Y-38285782D02*
X7553476Y-38382544D01*
X7553476Y-38382544D02*
X7553476Y-38527687D01*
X7553476Y-38527687D02*
X7505095Y-38624449D01*
X7505095Y-38624449D02*
X7456714Y-38672830D01*
X7456714Y-38672830D02*
X7359952Y-38721211D01*
X7359952Y-38721211D02*
X6972904Y-38721211D01*
X7892142Y-38189020D02*
X8569476Y-39205020D01*
X8569476Y-38189020D02*
X7892142Y-39205020D01*
X8956523Y-38817973D02*
X9730619Y-38817973D01*
X9343571Y-39205020D02*
X9343571Y-38430925D01*
X48405142Y-22949020D02*
X48985714Y-22949020D01*
X48695428Y-23965020D02*
X48695428Y-22949020D01*
X49227618Y-22949020D02*
X49904952Y-23965020D01*
X49904952Y-22949020D02*
X49227618Y-23965020D01*
X50291999Y-23577973D02*
X51066095Y-23577973D01*
X48405142Y-8725020D02*
X48985714Y-8725020D01*
X48695428Y-9741020D02*
X48695428Y-8725020D01*
X49227618Y-8725020D02*
X49904952Y-9741020D01*
X49904952Y-8725020D02*
X49227618Y-9741020D01*
X50291999Y-9353973D02*
X51066095Y-9353973D01*
X50679047Y-9741020D02*
X50679047Y-8966925D01*
X7081761Y-42126020D02*
X7662333Y-42126020D01*
X7372047Y-43142020D02*
X7372047Y-42126020D01*
X7904237Y-42126020D02*
X8581571Y-43142020D01*
X8581571Y-42126020D02*
X7904237Y-43142020D01*
X8968618Y-42754973D02*
X9742714Y-42754973D01*
X48888952Y-28029020D02*
X48550285Y-27545211D01*
X48308380Y-28029020D02*
X48308380Y-27013020D01*
X48308380Y-27013020D02*
X48695428Y-27013020D01*
X48695428Y-27013020D02*
X48792190Y-27061401D01*
X48792190Y-27061401D02*
X48840571Y-27109782D01*
X48840571Y-27109782D02*
X48888952Y-27206544D01*
X48888952Y-27206544D02*
X48888952Y-27351687D01*
X48888952Y-27351687D02*
X48840571Y-27448449D01*
X48840571Y-27448449D02*
X48792190Y-27496830D01*
X48792190Y-27496830D02*
X48695428Y-27545211D01*
X48695428Y-27545211D02*
X48308380Y-27545211D01*
X49227618Y-27013020D02*
X49904952Y-28029020D01*
X49904952Y-27013020D02*
X49227618Y-28029020D01*
X50291999Y-27641973D02*
X51066095Y-27641973D01*
X50679047Y-28029020D02*
X50679047Y-27254925D01*
X48405142Y-9995020D02*
X48985714Y-9995020D01*
X48695428Y-11011020D02*
X48695428Y-9995020D01*
X49227618Y-9995020D02*
X49904952Y-11011020D01*
X49904952Y-9995020D02*
X49227618Y-11011020D01*
X50291999Y-10623973D02*
X51066095Y-10623973D01*
X48888952Y-15075020D02*
X48550285Y-14591211D01*
X48308380Y-15075020D02*
X48308380Y-14059020D01*
X48308380Y-14059020D02*
X48695428Y-14059020D01*
X48695428Y-14059020D02*
X48792190Y-14107401D01*
X48792190Y-14107401D02*
X48840571Y-14155782D01*
X48840571Y-14155782D02*
X48888952Y-14252544D01*
X48888952Y-14252544D02*
X48888952Y-14397687D01*
X48888952Y-14397687D02*
X48840571Y-14494449D01*
X48840571Y-14494449D02*
X48792190Y-14542830D01*
X48792190Y-14542830D02*
X48695428Y-14591211D01*
X48695428Y-14591211D02*
X48308380Y-14591211D01*
X49227618Y-14059020D02*
X49904952Y-15075020D01*
X49904952Y-14059020D02*
X49227618Y-15075020D01*
X50291999Y-14687973D02*
X51066095Y-14687973D01*
X50679047Y-15075020D02*
X50679047Y-14300925D01*
%TO.C,C24*%
X26027259Y-27069142D02*
X26075640Y-27117523D01*
X26075640Y-27117523D02*
X26124020Y-27262666D01*
X26124020Y-27262666D02*
X26124020Y-27359428D01*
X26124020Y-27359428D02*
X26075640Y-27504571D01*
X26075640Y-27504571D02*
X25978878Y-27601333D01*
X25978878Y-27601333D02*
X25882116Y-27649714D01*
X25882116Y-27649714D02*
X25688592Y-27698095D01*
X25688592Y-27698095D02*
X25543449Y-27698095D01*
X25543449Y-27698095D02*
X25349925Y-27649714D01*
X25349925Y-27649714D02*
X25253163Y-27601333D01*
X25253163Y-27601333D02*
X25156401Y-27504571D01*
X25156401Y-27504571D02*
X25108020Y-27359428D01*
X25108020Y-27359428D02*
X25108020Y-27262666D01*
X25108020Y-27262666D02*
X25156401Y-27117523D01*
X25156401Y-27117523D02*
X25204782Y-27069142D01*
X25204782Y-26682095D02*
X25156401Y-26633714D01*
X25156401Y-26633714D02*
X25108020Y-26536952D01*
X25108020Y-26536952D02*
X25108020Y-26295047D01*
X25108020Y-26295047D02*
X25156401Y-26198285D01*
X25156401Y-26198285D02*
X25204782Y-26149904D01*
X25204782Y-26149904D02*
X25301544Y-26101523D01*
X25301544Y-26101523D02*
X25398306Y-26101523D01*
X25398306Y-26101523D02*
X25543449Y-26149904D01*
X25543449Y-26149904D02*
X26124020Y-26730476D01*
X26124020Y-26730476D02*
X26124020Y-26101523D01*
X25446687Y-25230666D02*
X26124020Y-25230666D01*
X25059640Y-25472571D02*
X25785354Y-25714476D01*
X25785354Y-25714476D02*
X25785354Y-25085523D01*
%TO.C,C62*%
X7728857Y-16883259D02*
X7680476Y-16931640D01*
X7680476Y-16931640D02*
X7535333Y-16980020D01*
X7535333Y-16980020D02*
X7438571Y-16980020D01*
X7438571Y-16980020D02*
X7293428Y-16931640D01*
X7293428Y-16931640D02*
X7196666Y-16834878D01*
X7196666Y-16834878D02*
X7148285Y-16738116D01*
X7148285Y-16738116D02*
X7099904Y-16544592D01*
X7099904Y-16544592D02*
X7099904Y-16399449D01*
X7099904Y-16399449D02*
X7148285Y-16205925D01*
X7148285Y-16205925D02*
X7196666Y-16109163D01*
X7196666Y-16109163D02*
X7293428Y-16012401D01*
X7293428Y-16012401D02*
X7438571Y-15964020D01*
X7438571Y-15964020D02*
X7535333Y-15964020D01*
X7535333Y-15964020D02*
X7680476Y-16012401D01*
X7680476Y-16012401D02*
X7728857Y-16060782D01*
X8599714Y-15964020D02*
X8406190Y-15964020D01*
X8406190Y-15964020D02*
X8309428Y-16012401D01*
X8309428Y-16012401D02*
X8261047Y-16060782D01*
X8261047Y-16060782D02*
X8164285Y-16205925D01*
X8164285Y-16205925D02*
X8115904Y-16399449D01*
X8115904Y-16399449D02*
X8115904Y-16786497D01*
X8115904Y-16786497D02*
X8164285Y-16883259D01*
X8164285Y-16883259D02*
X8212666Y-16931640D01*
X8212666Y-16931640D02*
X8309428Y-16980020D01*
X8309428Y-16980020D02*
X8502952Y-16980020D01*
X8502952Y-16980020D02*
X8599714Y-16931640D01*
X8599714Y-16931640D02*
X8648095Y-16883259D01*
X8648095Y-16883259D02*
X8696476Y-16786497D01*
X8696476Y-16786497D02*
X8696476Y-16544592D01*
X8696476Y-16544592D02*
X8648095Y-16447830D01*
X8648095Y-16447830D02*
X8599714Y-16399449D01*
X8599714Y-16399449D02*
X8502952Y-16351068D01*
X8502952Y-16351068D02*
X8309428Y-16351068D01*
X8309428Y-16351068D02*
X8212666Y-16399449D01*
X8212666Y-16399449D02*
X8164285Y-16447830D01*
X8164285Y-16447830D02*
X8115904Y-16544592D01*
X9083523Y-16060782D02*
X9131904Y-16012401D01*
X9131904Y-16012401D02*
X9228666Y-15964020D01*
X9228666Y-15964020D02*
X9470571Y-15964020D01*
X9470571Y-15964020D02*
X9567333Y-16012401D01*
X9567333Y-16012401D02*
X9615714Y-16060782D01*
X9615714Y-16060782D02*
X9664095Y-16157544D01*
X9664095Y-16157544D02*
X9664095Y-16254306D01*
X9664095Y-16254306D02*
X9615714Y-16399449D01*
X9615714Y-16399449D02*
X9035142Y-16980020D01*
X9035142Y-16980020D02*
X9664095Y-16980020D01*
%TO.C,C64*%
X11538857Y-16883259D02*
X11490476Y-16931640D01*
X11490476Y-16931640D02*
X11345333Y-16980020D01*
X11345333Y-16980020D02*
X11248571Y-16980020D01*
X11248571Y-16980020D02*
X11103428Y-16931640D01*
X11103428Y-16931640D02*
X11006666Y-16834878D01*
X11006666Y-16834878D02*
X10958285Y-16738116D01*
X10958285Y-16738116D02*
X10909904Y-16544592D01*
X10909904Y-16544592D02*
X10909904Y-16399449D01*
X10909904Y-16399449D02*
X10958285Y-16205925D01*
X10958285Y-16205925D02*
X11006666Y-16109163D01*
X11006666Y-16109163D02*
X11103428Y-16012401D01*
X11103428Y-16012401D02*
X11248571Y-15964020D01*
X11248571Y-15964020D02*
X11345333Y-15964020D01*
X11345333Y-15964020D02*
X11490476Y-16012401D01*
X11490476Y-16012401D02*
X11538857Y-16060782D01*
X12409714Y-15964020D02*
X12216190Y-15964020D01*
X12216190Y-15964020D02*
X12119428Y-16012401D01*
X12119428Y-16012401D02*
X12071047Y-16060782D01*
X12071047Y-16060782D02*
X11974285Y-16205925D01*
X11974285Y-16205925D02*
X11925904Y-16399449D01*
X11925904Y-16399449D02*
X11925904Y-16786497D01*
X11925904Y-16786497D02*
X11974285Y-16883259D01*
X11974285Y-16883259D02*
X12022666Y-16931640D01*
X12022666Y-16931640D02*
X12119428Y-16980020D01*
X12119428Y-16980020D02*
X12312952Y-16980020D01*
X12312952Y-16980020D02*
X12409714Y-16931640D01*
X12409714Y-16931640D02*
X12458095Y-16883259D01*
X12458095Y-16883259D02*
X12506476Y-16786497D01*
X12506476Y-16786497D02*
X12506476Y-16544592D01*
X12506476Y-16544592D02*
X12458095Y-16447830D01*
X12458095Y-16447830D02*
X12409714Y-16399449D01*
X12409714Y-16399449D02*
X12312952Y-16351068D01*
X12312952Y-16351068D02*
X12119428Y-16351068D01*
X12119428Y-16351068D02*
X12022666Y-16399449D01*
X12022666Y-16399449D02*
X11974285Y-16447830D01*
X11974285Y-16447830D02*
X11925904Y-16544592D01*
X13377333Y-16302687D02*
X13377333Y-16980020D01*
X13135428Y-15915640D02*
X12893523Y-16641354D01*
X12893523Y-16641354D02*
X13522476Y-16641354D01*
%TO.C,SW1*%
X3215640Y-9736666D02*
X3264020Y-9591523D01*
X3264020Y-9591523D02*
X3264020Y-9349618D01*
X3264020Y-9349618D02*
X3215640Y-9252856D01*
X3215640Y-9252856D02*
X3167259Y-9204475D01*
X3167259Y-9204475D02*
X3070497Y-9156094D01*
X3070497Y-9156094D02*
X2973735Y-9156094D01*
X2973735Y-9156094D02*
X2876973Y-9204475D01*
X2876973Y-9204475D02*
X2828592Y-9252856D01*
X2828592Y-9252856D02*
X2780211Y-9349618D01*
X2780211Y-9349618D02*
X2731830Y-9543142D01*
X2731830Y-9543142D02*
X2683449Y-9639904D01*
X2683449Y-9639904D02*
X2635068Y-9688285D01*
X2635068Y-9688285D02*
X2538306Y-9736666D01*
X2538306Y-9736666D02*
X2441544Y-9736666D01*
X2441544Y-9736666D02*
X2344782Y-9688285D01*
X2344782Y-9688285D02*
X2296401Y-9639904D01*
X2296401Y-9639904D02*
X2248020Y-9543142D01*
X2248020Y-9543142D02*
X2248020Y-9301237D01*
X2248020Y-9301237D02*
X2296401Y-9156094D01*
X2248020Y-8817428D02*
X3264020Y-8575523D01*
X3264020Y-8575523D02*
X2538306Y-8381999D01*
X2538306Y-8381999D02*
X3264020Y-8188475D01*
X3264020Y-8188475D02*
X2248020Y-7946571D01*
X3264020Y-7027332D02*
X3264020Y-7607904D01*
X3264020Y-7317618D02*
X2248020Y-7317618D01*
X2248020Y-7317618D02*
X2393163Y-7414380D01*
X2393163Y-7414380D02*
X2489925Y-7511142D01*
X2489925Y-7511142D02*
X2538306Y-7607904D01*
%TO.C,R12*%
X14534020Y-45294142D02*
X14050211Y-45632809D01*
X14534020Y-45874714D02*
X13518020Y-45874714D01*
X13518020Y-45874714D02*
X13518020Y-45487666D01*
X13518020Y-45487666D02*
X13566401Y-45390904D01*
X13566401Y-45390904D02*
X13614782Y-45342523D01*
X13614782Y-45342523D02*
X13711544Y-45294142D01*
X13711544Y-45294142D02*
X13856687Y-45294142D01*
X13856687Y-45294142D02*
X13953449Y-45342523D01*
X13953449Y-45342523D02*
X14001830Y-45390904D01*
X14001830Y-45390904D02*
X14050211Y-45487666D01*
X14050211Y-45487666D02*
X14050211Y-45874714D01*
X14534020Y-44326523D02*
X14534020Y-44907095D01*
X14534020Y-44616809D02*
X13518020Y-44616809D01*
X13518020Y-44616809D02*
X13663163Y-44713571D01*
X13663163Y-44713571D02*
X13759925Y-44810333D01*
X13759925Y-44810333D02*
X13808306Y-44907095D01*
X13614782Y-43939476D02*
X13566401Y-43891095D01*
X13566401Y-43891095D02*
X13518020Y-43794333D01*
X13518020Y-43794333D02*
X13518020Y-43552428D01*
X13518020Y-43552428D02*
X13566401Y-43455666D01*
X13566401Y-43455666D02*
X13614782Y-43407285D01*
X13614782Y-43407285D02*
X13711544Y-43358904D01*
X13711544Y-43358904D02*
X13808306Y-43358904D01*
X13808306Y-43358904D02*
X13953449Y-43407285D01*
X13953449Y-43407285D02*
X14534020Y-43987857D01*
X14534020Y-43987857D02*
X14534020Y-43358904D01*
%TO.C,R10*%
X40602020Y-14877142D02*
X40118211Y-15215809D01*
X40602020Y-15457714D02*
X39586020Y-15457714D01*
X39586020Y-15457714D02*
X39586020Y-15070666D01*
X39586020Y-15070666D02*
X39634401Y-14973904D01*
X39634401Y-14973904D02*
X39682782Y-14925523D01*
X39682782Y-14925523D02*
X39779544Y-14877142D01*
X39779544Y-14877142D02*
X39924687Y-14877142D01*
X39924687Y-14877142D02*
X40021449Y-14925523D01*
X40021449Y-14925523D02*
X40069830Y-14973904D01*
X40069830Y-14973904D02*
X40118211Y-15070666D01*
X40118211Y-15070666D02*
X40118211Y-15457714D01*
X40602020Y-13909523D02*
X40602020Y-14490095D01*
X40602020Y-14199809D02*
X39586020Y-14199809D01*
X39586020Y-14199809D02*
X39731163Y-14296571D01*
X39731163Y-14296571D02*
X39827925Y-14393333D01*
X39827925Y-14393333D02*
X39876306Y-14490095D01*
X39586020Y-13280571D02*
X39586020Y-13183809D01*
X39586020Y-13183809D02*
X39634401Y-13087047D01*
X39634401Y-13087047D02*
X39682782Y-13038666D01*
X39682782Y-13038666D02*
X39779544Y-12990285D01*
X39779544Y-12990285D02*
X39973068Y-12941904D01*
X39973068Y-12941904D02*
X40214973Y-12941904D01*
X40214973Y-12941904D02*
X40408497Y-12990285D01*
X40408497Y-12990285D02*
X40505259Y-13038666D01*
X40505259Y-13038666D02*
X40553640Y-13087047D01*
X40553640Y-13087047D02*
X40602020Y-13183809D01*
X40602020Y-13183809D02*
X40602020Y-13280571D01*
X40602020Y-13280571D02*
X40553640Y-13377333D01*
X40553640Y-13377333D02*
X40505259Y-13425714D01*
X40505259Y-13425714D02*
X40408497Y-13474095D01*
X40408497Y-13474095D02*
X40214973Y-13522476D01*
X40214973Y-13522476D02*
X39973068Y-13522476D01*
X39973068Y-13522476D02*
X39779544Y-13474095D01*
X39779544Y-13474095D02*
X39682782Y-13425714D01*
X39682782Y-13425714D02*
X39634401Y-13377333D01*
X39634401Y-13377333D02*
X39586020Y-13280571D01*
%TO.C,C46*%
X17634857Y-15994259D02*
X17586476Y-16042640D01*
X17586476Y-16042640D02*
X17441333Y-16091020D01*
X17441333Y-16091020D02*
X17344571Y-16091020D01*
X17344571Y-16091020D02*
X17199428Y-16042640D01*
X17199428Y-16042640D02*
X17102666Y-15945878D01*
X17102666Y-15945878D02*
X17054285Y-15849116D01*
X17054285Y-15849116D02*
X17005904Y-15655592D01*
X17005904Y-15655592D02*
X17005904Y-15510449D01*
X17005904Y-15510449D02*
X17054285Y-15316925D01*
X17054285Y-15316925D02*
X17102666Y-15220163D01*
X17102666Y-15220163D02*
X17199428Y-15123401D01*
X17199428Y-15123401D02*
X17344571Y-15075020D01*
X17344571Y-15075020D02*
X17441333Y-15075020D01*
X17441333Y-15075020D02*
X17586476Y-15123401D01*
X17586476Y-15123401D02*
X17634857Y-15171782D01*
X18505714Y-15413687D02*
X18505714Y-16091020D01*
X18263809Y-15026640D02*
X18021904Y-15752354D01*
X18021904Y-15752354D02*
X18650857Y-15752354D01*
X19473333Y-15075020D02*
X19279809Y-15075020D01*
X19279809Y-15075020D02*
X19183047Y-15123401D01*
X19183047Y-15123401D02*
X19134666Y-15171782D01*
X19134666Y-15171782D02*
X19037904Y-15316925D01*
X19037904Y-15316925D02*
X18989523Y-15510449D01*
X18989523Y-15510449D02*
X18989523Y-15897497D01*
X18989523Y-15897497D02*
X19037904Y-15994259D01*
X19037904Y-15994259D02*
X19086285Y-16042640D01*
X19086285Y-16042640D02*
X19183047Y-16091020D01*
X19183047Y-16091020D02*
X19376571Y-16091020D01*
X19376571Y-16091020D02*
X19473333Y-16042640D01*
X19473333Y-16042640D02*
X19521714Y-15994259D01*
X19521714Y-15994259D02*
X19570095Y-15897497D01*
X19570095Y-15897497D02*
X19570095Y-15655592D01*
X19570095Y-15655592D02*
X19521714Y-15558830D01*
X19521714Y-15558830D02*
X19473333Y-15510449D01*
X19473333Y-15510449D02*
X19376571Y-15462068D01*
X19376571Y-15462068D02*
X19183047Y-15462068D01*
X19183047Y-15462068D02*
X19086285Y-15510449D01*
X19086285Y-15510449D02*
X19037904Y-15558830D01*
X19037904Y-15558830D02*
X18989523Y-15655592D01*
%TO.C,U3*%
X13449904Y-23584020D02*
X13449904Y-24406497D01*
X13449904Y-24406497D02*
X13498285Y-24503259D01*
X13498285Y-24503259D02*
X13546666Y-24551640D01*
X13546666Y-24551640D02*
X13643428Y-24600020D01*
X13643428Y-24600020D02*
X13836952Y-24600020D01*
X13836952Y-24600020D02*
X13933714Y-24551640D01*
X13933714Y-24551640D02*
X13982095Y-24503259D01*
X13982095Y-24503259D02*
X14030476Y-24406497D01*
X14030476Y-24406497D02*
X14030476Y-23584020D01*
X14417523Y-23584020D02*
X15046476Y-23584020D01*
X15046476Y-23584020D02*
X14707809Y-23971068D01*
X14707809Y-23971068D02*
X14852952Y-23971068D01*
X14852952Y-23971068D02*
X14949714Y-24019449D01*
X14949714Y-24019449D02*
X14998095Y-24067830D01*
X14998095Y-24067830D02*
X15046476Y-24164592D01*
X15046476Y-24164592D02*
X15046476Y-24406497D01*
X15046476Y-24406497D02*
X14998095Y-24503259D01*
X14998095Y-24503259D02*
X14949714Y-24551640D01*
X14949714Y-24551640D02*
X14852952Y-24600020D01*
X14852952Y-24600020D02*
X14562666Y-24600020D01*
X14562666Y-24600020D02*
X14465904Y-24551640D01*
X14465904Y-24551640D02*
X14417523Y-24503259D01*
%TO.C,C14*%
X14840857Y-11012259D02*
X14792476Y-11060640D01*
X14792476Y-11060640D02*
X14647333Y-11109020D01*
X14647333Y-11109020D02*
X14550571Y-11109020D01*
X14550571Y-11109020D02*
X14405428Y-11060640D01*
X14405428Y-11060640D02*
X14308666Y-10963878D01*
X14308666Y-10963878D02*
X14260285Y-10867116D01*
X14260285Y-10867116D02*
X14211904Y-10673592D01*
X14211904Y-10673592D02*
X14211904Y-10528449D01*
X14211904Y-10528449D02*
X14260285Y-10334925D01*
X14260285Y-10334925D02*
X14308666Y-10238163D01*
X14308666Y-10238163D02*
X14405428Y-10141401D01*
X14405428Y-10141401D02*
X14550571Y-10093020D01*
X14550571Y-10093020D02*
X14647333Y-10093020D01*
X14647333Y-10093020D02*
X14792476Y-10141401D01*
X14792476Y-10141401D02*
X14840857Y-10189782D01*
X15808476Y-11109020D02*
X15227904Y-11109020D01*
X15518190Y-11109020D02*
X15518190Y-10093020D01*
X15518190Y-10093020D02*
X15421428Y-10238163D01*
X15421428Y-10238163D02*
X15324666Y-10334925D01*
X15324666Y-10334925D02*
X15227904Y-10383306D01*
X16679333Y-10431687D02*
X16679333Y-11109020D01*
X16437428Y-10044640D02*
X16195523Y-10770354D01*
X16195523Y-10770354D02*
X16824476Y-10770354D01*
%TO.C,U4*%
X9131904Y-14694020D02*
X9131904Y-15516497D01*
X9131904Y-15516497D02*
X9180285Y-15613259D01*
X9180285Y-15613259D02*
X9228666Y-15661640D01*
X9228666Y-15661640D02*
X9325428Y-15710020D01*
X9325428Y-15710020D02*
X9518952Y-15710020D01*
X9518952Y-15710020D02*
X9615714Y-15661640D01*
X9615714Y-15661640D02*
X9664095Y-15613259D01*
X9664095Y-15613259D02*
X9712476Y-15516497D01*
X9712476Y-15516497D02*
X9712476Y-14694020D01*
X10631714Y-15032687D02*
X10631714Y-15710020D01*
X10389809Y-14645640D02*
X10147904Y-15371354D01*
X10147904Y-15371354D02*
X10776857Y-15371354D01*
%TO.C,C63*%
X-896741Y-14877142D02*
X-848360Y-14925523D01*
X-848360Y-14925523D02*
X-799980Y-15070666D01*
X-799980Y-15070666D02*
X-799980Y-15167428D01*
X-799980Y-15167428D02*
X-848360Y-15312571D01*
X-848360Y-15312571D02*
X-945122Y-15409333D01*
X-945122Y-15409333D02*
X-1041884Y-15457714D01*
X-1041884Y-15457714D02*
X-1235408Y-15506095D01*
X-1235408Y-15506095D02*
X-1380551Y-15506095D01*
X-1380551Y-15506095D02*
X-1574075Y-15457714D01*
X-1574075Y-15457714D02*
X-1670837Y-15409333D01*
X-1670837Y-15409333D02*
X-1767599Y-15312571D01*
X-1767599Y-15312571D02*
X-1815980Y-15167428D01*
X-1815980Y-15167428D02*
X-1815980Y-15070666D01*
X-1815980Y-15070666D02*
X-1767599Y-14925523D01*
X-1767599Y-14925523D02*
X-1719218Y-14877142D01*
X-1815980Y-14006285D02*
X-1815980Y-14199809D01*
X-1815980Y-14199809D02*
X-1767599Y-14296571D01*
X-1767599Y-14296571D02*
X-1719218Y-14344952D01*
X-1719218Y-14344952D02*
X-1574075Y-14441714D01*
X-1574075Y-14441714D02*
X-1380551Y-14490095D01*
X-1380551Y-14490095D02*
X-993503Y-14490095D01*
X-993503Y-14490095D02*
X-896741Y-14441714D01*
X-896741Y-14441714D02*
X-848360Y-14393333D01*
X-848360Y-14393333D02*
X-799980Y-14296571D01*
X-799980Y-14296571D02*
X-799980Y-14103047D01*
X-799980Y-14103047D02*
X-848360Y-14006285D01*
X-848360Y-14006285D02*
X-896741Y-13957904D01*
X-896741Y-13957904D02*
X-993503Y-13909523D01*
X-993503Y-13909523D02*
X-1235408Y-13909523D01*
X-1235408Y-13909523D02*
X-1332170Y-13957904D01*
X-1332170Y-13957904D02*
X-1380551Y-14006285D01*
X-1380551Y-14006285D02*
X-1428932Y-14103047D01*
X-1428932Y-14103047D02*
X-1428932Y-14296571D01*
X-1428932Y-14296571D02*
X-1380551Y-14393333D01*
X-1380551Y-14393333D02*
X-1332170Y-14441714D01*
X-1332170Y-14441714D02*
X-1235408Y-14490095D01*
X-1815980Y-13570857D02*
X-1815980Y-12941904D01*
X-1815980Y-12941904D02*
X-1428932Y-13280571D01*
X-1428932Y-13280571D02*
X-1428932Y-13135428D01*
X-1428932Y-13135428D02*
X-1380551Y-13038666D01*
X-1380551Y-13038666D02*
X-1332170Y-12990285D01*
X-1332170Y-12990285D02*
X-1235408Y-12941904D01*
X-1235408Y-12941904D02*
X-993503Y-12941904D01*
X-993503Y-12941904D02*
X-896741Y-12990285D01*
X-896741Y-12990285D02*
X-848360Y-13038666D01*
X-848360Y-13038666D02*
X-799980Y-13135428D01*
X-799980Y-13135428D02*
X-799980Y-13425714D01*
X-799980Y-13425714D02*
X-848360Y-13522476D01*
X-848360Y-13522476D02*
X-896741Y-13570857D01*
%TO.C,R4*%
X23838020Y-29633332D02*
X23354211Y-29971999D01*
X23838020Y-30213904D02*
X22822020Y-30213904D01*
X22822020Y-30213904D02*
X22822020Y-29826856D01*
X22822020Y-29826856D02*
X22870401Y-29730094D01*
X22870401Y-29730094D02*
X22918782Y-29681713D01*
X22918782Y-29681713D02*
X23015544Y-29633332D01*
X23015544Y-29633332D02*
X23160687Y-29633332D01*
X23160687Y-29633332D02*
X23257449Y-29681713D01*
X23257449Y-29681713D02*
X23305830Y-29730094D01*
X23305830Y-29730094D02*
X23354211Y-29826856D01*
X23354211Y-29826856D02*
X23354211Y-30213904D01*
X23160687Y-28762475D02*
X23838020Y-28762475D01*
X22773640Y-29004380D02*
X23499354Y-29246285D01*
X23499354Y-29246285D02*
X23499354Y-28617332D01*
%TO.C,C1*%
X44823259Y-27347332D02*
X44871640Y-27395713D01*
X44871640Y-27395713D02*
X44920020Y-27540856D01*
X44920020Y-27540856D02*
X44920020Y-27637618D01*
X44920020Y-27637618D02*
X44871640Y-27782761D01*
X44871640Y-27782761D02*
X44774878Y-27879523D01*
X44774878Y-27879523D02*
X44678116Y-27927904D01*
X44678116Y-27927904D02*
X44484592Y-27976285D01*
X44484592Y-27976285D02*
X44339449Y-27976285D01*
X44339449Y-27976285D02*
X44145925Y-27927904D01*
X44145925Y-27927904D02*
X44049163Y-27879523D01*
X44049163Y-27879523D02*
X43952401Y-27782761D01*
X43952401Y-27782761D02*
X43904020Y-27637618D01*
X43904020Y-27637618D02*
X43904020Y-27540856D01*
X43904020Y-27540856D02*
X43952401Y-27395713D01*
X43952401Y-27395713D02*
X44000782Y-27347332D01*
X44920020Y-26379713D02*
X44920020Y-26960285D01*
X44920020Y-26669999D02*
X43904020Y-26669999D01*
X43904020Y-26669999D02*
X44049163Y-26766761D01*
X44049163Y-26766761D02*
X44145925Y-26863523D01*
X44145925Y-26863523D02*
X44194306Y-26960285D01*
%TO.C,C29*%
X32377259Y-27069142D02*
X32425640Y-27117523D01*
X32425640Y-27117523D02*
X32474020Y-27262666D01*
X32474020Y-27262666D02*
X32474020Y-27359428D01*
X32474020Y-27359428D02*
X32425640Y-27504571D01*
X32425640Y-27504571D02*
X32328878Y-27601333D01*
X32328878Y-27601333D02*
X32232116Y-27649714D01*
X32232116Y-27649714D02*
X32038592Y-27698095D01*
X32038592Y-27698095D02*
X31893449Y-27698095D01*
X31893449Y-27698095D02*
X31699925Y-27649714D01*
X31699925Y-27649714D02*
X31603163Y-27601333D01*
X31603163Y-27601333D02*
X31506401Y-27504571D01*
X31506401Y-27504571D02*
X31458020Y-27359428D01*
X31458020Y-27359428D02*
X31458020Y-27262666D01*
X31458020Y-27262666D02*
X31506401Y-27117523D01*
X31506401Y-27117523D02*
X31554782Y-27069142D01*
X31554782Y-26682095D02*
X31506401Y-26633714D01*
X31506401Y-26633714D02*
X31458020Y-26536952D01*
X31458020Y-26536952D02*
X31458020Y-26295047D01*
X31458020Y-26295047D02*
X31506401Y-26198285D01*
X31506401Y-26198285D02*
X31554782Y-26149904D01*
X31554782Y-26149904D02*
X31651544Y-26101523D01*
X31651544Y-26101523D02*
X31748306Y-26101523D01*
X31748306Y-26101523D02*
X31893449Y-26149904D01*
X31893449Y-26149904D02*
X32474020Y-26730476D01*
X32474020Y-26730476D02*
X32474020Y-26101523D01*
X32474020Y-25617714D02*
X32474020Y-25424190D01*
X32474020Y-25424190D02*
X32425640Y-25327428D01*
X32425640Y-25327428D02*
X32377259Y-25279047D01*
X32377259Y-25279047D02*
X32232116Y-25182285D01*
X32232116Y-25182285D02*
X32038592Y-25133904D01*
X32038592Y-25133904D02*
X31651544Y-25133904D01*
X31651544Y-25133904D02*
X31554782Y-25182285D01*
X31554782Y-25182285D02*
X31506401Y-25230666D01*
X31506401Y-25230666D02*
X31458020Y-25327428D01*
X31458020Y-25327428D02*
X31458020Y-25520952D01*
X31458020Y-25520952D02*
X31506401Y-25617714D01*
X31506401Y-25617714D02*
X31554782Y-25666095D01*
X31554782Y-25666095D02*
X31651544Y-25714476D01*
X31651544Y-25714476D02*
X31893449Y-25714476D01*
X31893449Y-25714476D02*
X31990211Y-25666095D01*
X31990211Y-25666095D02*
X32038592Y-25617714D01*
X32038592Y-25617714D02*
X32086973Y-25520952D01*
X32086973Y-25520952D02*
X32086973Y-25327428D01*
X32086973Y-25327428D02*
X32038592Y-25230666D01*
X32038592Y-25230666D02*
X31990211Y-25182285D01*
X31990211Y-25182285D02*
X31893449Y-25133904D01*
%TO.C,C42*%
X23741259Y-11067142D02*
X23789640Y-11115523D01*
X23789640Y-11115523D02*
X23838020Y-11260666D01*
X23838020Y-11260666D02*
X23838020Y-11357428D01*
X23838020Y-11357428D02*
X23789640Y-11502571D01*
X23789640Y-11502571D02*
X23692878Y-11599333D01*
X23692878Y-11599333D02*
X23596116Y-11647714D01*
X23596116Y-11647714D02*
X23402592Y-11696095D01*
X23402592Y-11696095D02*
X23257449Y-11696095D01*
X23257449Y-11696095D02*
X23063925Y-11647714D01*
X23063925Y-11647714D02*
X22967163Y-11599333D01*
X22967163Y-11599333D02*
X22870401Y-11502571D01*
X22870401Y-11502571D02*
X22822020Y-11357428D01*
X22822020Y-11357428D02*
X22822020Y-11260666D01*
X22822020Y-11260666D02*
X22870401Y-11115523D01*
X22870401Y-11115523D02*
X22918782Y-11067142D01*
X23160687Y-10196285D02*
X23838020Y-10196285D01*
X22773640Y-10438190D02*
X23499354Y-10680095D01*
X23499354Y-10680095D02*
X23499354Y-10051142D01*
X22918782Y-9712476D02*
X22870401Y-9664095D01*
X22870401Y-9664095D02*
X22822020Y-9567333D01*
X22822020Y-9567333D02*
X22822020Y-9325428D01*
X22822020Y-9325428D02*
X22870401Y-9228666D01*
X22870401Y-9228666D02*
X22918782Y-9180285D01*
X22918782Y-9180285D02*
X23015544Y-9131904D01*
X23015544Y-9131904D02*
X23112306Y-9131904D01*
X23112306Y-9131904D02*
X23257449Y-9180285D01*
X23257449Y-9180285D02*
X23838020Y-9760857D01*
X23838020Y-9760857D02*
X23838020Y-9131904D01*
%TO.C,J6*%
X50080333Y-29934020D02*
X50080333Y-30659735D01*
X50080333Y-30659735D02*
X50031952Y-30804878D01*
X50031952Y-30804878D02*
X49935190Y-30901640D01*
X49935190Y-30901640D02*
X49790047Y-30950020D01*
X49790047Y-30950020D02*
X49693285Y-30950020D01*
X50999571Y-29934020D02*
X50806047Y-29934020D01*
X50806047Y-29934020D02*
X50709285Y-29982401D01*
X50709285Y-29982401D02*
X50660904Y-30030782D01*
X50660904Y-30030782D02*
X50564142Y-30175925D01*
X50564142Y-30175925D02*
X50515761Y-30369449D01*
X50515761Y-30369449D02*
X50515761Y-30756497D01*
X50515761Y-30756497D02*
X50564142Y-30853259D01*
X50564142Y-30853259D02*
X50612523Y-30901640D01*
X50612523Y-30901640D02*
X50709285Y-30950020D01*
X50709285Y-30950020D02*
X50902809Y-30950020D01*
X50902809Y-30950020D02*
X50999571Y-30901640D01*
X50999571Y-30901640D02*
X51047952Y-30853259D01*
X51047952Y-30853259D02*
X51096333Y-30756497D01*
X51096333Y-30756497D02*
X51096333Y-30514592D01*
X51096333Y-30514592D02*
X51047952Y-30417830D01*
X51047952Y-30417830D02*
X50999571Y-30369449D01*
X50999571Y-30369449D02*
X50902809Y-30321068D01*
X50902809Y-30321068D02*
X50709285Y-30321068D01*
X50709285Y-30321068D02*
X50612523Y-30369449D01*
X50612523Y-30369449D02*
X50564142Y-30417830D01*
X50564142Y-30417830D02*
X50515761Y-30514592D01*
%TO.C,C11*%
X43034857Y-14923259D02*
X42986476Y-14971640D01*
X42986476Y-14971640D02*
X42841333Y-15020020D01*
X42841333Y-15020020D02*
X42744571Y-15020020D01*
X42744571Y-15020020D02*
X42599428Y-14971640D01*
X42599428Y-14971640D02*
X42502666Y-14874878D01*
X42502666Y-14874878D02*
X42454285Y-14778116D01*
X42454285Y-14778116D02*
X42405904Y-14584592D01*
X42405904Y-14584592D02*
X42405904Y-14439449D01*
X42405904Y-14439449D02*
X42454285Y-14245925D01*
X42454285Y-14245925D02*
X42502666Y-14149163D01*
X42502666Y-14149163D02*
X42599428Y-14052401D01*
X42599428Y-14052401D02*
X42744571Y-14004020D01*
X42744571Y-14004020D02*
X42841333Y-14004020D01*
X42841333Y-14004020D02*
X42986476Y-14052401D01*
X42986476Y-14052401D02*
X43034857Y-14100782D01*
X44002476Y-15020020D02*
X43421904Y-15020020D01*
X43712190Y-15020020D02*
X43712190Y-14004020D01*
X43712190Y-14004020D02*
X43615428Y-14149163D01*
X43615428Y-14149163D02*
X43518666Y-14245925D01*
X43518666Y-14245925D02*
X43421904Y-14294306D01*
X44970095Y-15020020D02*
X44389523Y-15020020D01*
X44679809Y-15020020D02*
X44679809Y-14004020D01*
X44679809Y-14004020D02*
X44583047Y-14149163D01*
X44583047Y-14149163D02*
X44486285Y-14245925D01*
X44486285Y-14245925D02*
X44389523Y-14294306D01*
%TO.C,C12*%
X43796857Y-25337259D02*
X43748476Y-25385640D01*
X43748476Y-25385640D02*
X43603333Y-25434020D01*
X43603333Y-25434020D02*
X43506571Y-25434020D01*
X43506571Y-25434020D02*
X43361428Y-25385640D01*
X43361428Y-25385640D02*
X43264666Y-25288878D01*
X43264666Y-25288878D02*
X43216285Y-25192116D01*
X43216285Y-25192116D02*
X43167904Y-24998592D01*
X43167904Y-24998592D02*
X43167904Y-24853449D01*
X43167904Y-24853449D02*
X43216285Y-24659925D01*
X43216285Y-24659925D02*
X43264666Y-24563163D01*
X43264666Y-24563163D02*
X43361428Y-24466401D01*
X43361428Y-24466401D02*
X43506571Y-24418020D01*
X43506571Y-24418020D02*
X43603333Y-24418020D01*
X43603333Y-24418020D02*
X43748476Y-24466401D01*
X43748476Y-24466401D02*
X43796857Y-24514782D01*
X44764476Y-25434020D02*
X44183904Y-25434020D01*
X44474190Y-25434020D02*
X44474190Y-24418020D01*
X44474190Y-24418020D02*
X44377428Y-24563163D01*
X44377428Y-24563163D02*
X44280666Y-24659925D01*
X44280666Y-24659925D02*
X44183904Y-24708306D01*
X45151523Y-24514782D02*
X45199904Y-24466401D01*
X45199904Y-24466401D02*
X45296666Y-24418020D01*
X45296666Y-24418020D02*
X45538571Y-24418020D01*
X45538571Y-24418020D02*
X45635333Y-24466401D01*
X45635333Y-24466401D02*
X45683714Y-24514782D01*
X45683714Y-24514782D02*
X45732095Y-24611544D01*
X45732095Y-24611544D02*
X45732095Y-24708306D01*
X45732095Y-24708306D02*
X45683714Y-24853449D01*
X45683714Y-24853449D02*
X45103142Y-25434020D01*
X45103142Y-25434020D02*
X45732095Y-25434020D01*
%TO.C,R24*%
X35776020Y-27085884D02*
X35292211Y-27424551D01*
X35776020Y-27666456D02*
X34760020Y-27666456D01*
X34760020Y-27666456D02*
X34760020Y-27279408D01*
X34760020Y-27279408D02*
X34808401Y-27182646D01*
X34808401Y-27182646D02*
X34856782Y-27134265D01*
X34856782Y-27134265D02*
X34953544Y-27085884D01*
X34953544Y-27085884D02*
X35098687Y-27085884D01*
X35098687Y-27085884D02*
X35195449Y-27134265D01*
X35195449Y-27134265D02*
X35243830Y-27182646D01*
X35243830Y-27182646D02*
X35292211Y-27279408D01*
X35292211Y-27279408D02*
X35292211Y-27666456D01*
X34856782Y-26698837D02*
X34808401Y-26650456D01*
X34808401Y-26650456D02*
X34760020Y-26553694D01*
X34760020Y-26553694D02*
X34760020Y-26311789D01*
X34760020Y-26311789D02*
X34808401Y-26215027D01*
X34808401Y-26215027D02*
X34856782Y-26166646D01*
X34856782Y-26166646D02*
X34953544Y-26118265D01*
X34953544Y-26118265D02*
X35050306Y-26118265D01*
X35050306Y-26118265D02*
X35195449Y-26166646D01*
X35195449Y-26166646D02*
X35776020Y-26747218D01*
X35776020Y-26747218D02*
X35776020Y-26118265D01*
X35098687Y-25247408D02*
X35776020Y-25247408D01*
X34711640Y-25489313D02*
X35437354Y-25731218D01*
X35437354Y-25731218D02*
X35437354Y-25102265D01*
%TO.C,J2*%
X-2116667Y-3010020D02*
X-2116667Y-3735735D01*
X-2116667Y-3735735D02*
X-2165048Y-3880878D01*
X-2165048Y-3880878D02*
X-2261810Y-3977640D01*
X-2261810Y-3977640D02*
X-2406953Y-4026020D01*
X-2406953Y-4026020D02*
X-2503715Y-4026020D01*
X-1681239Y-3106782D02*
X-1632858Y-3058401D01*
X-1632858Y-3058401D02*
X-1536096Y-3010020D01*
X-1536096Y-3010020D02*
X-1294191Y-3010020D01*
X-1294191Y-3010020D02*
X-1197429Y-3058401D01*
X-1197429Y-3058401D02*
X-1149048Y-3106782D01*
X-1149048Y-3106782D02*
X-1100667Y-3203544D01*
X-1100667Y-3203544D02*
X-1100667Y-3300306D01*
X-1100667Y-3300306D02*
X-1149048Y-3445449D01*
X-1149048Y-3445449D02*
X-1729620Y-4026020D01*
X-1729620Y-4026020D02*
X-1100667Y-4026020D01*
%TO.C,R30*%
X13932020Y-22497142D02*
X13448211Y-22835809D01*
X13932020Y-23077714D02*
X12916020Y-23077714D01*
X12916020Y-23077714D02*
X12916020Y-22690666D01*
X12916020Y-22690666D02*
X12964401Y-22593904D01*
X12964401Y-22593904D02*
X13012782Y-22545523D01*
X13012782Y-22545523D02*
X13109544Y-22497142D01*
X13109544Y-22497142D02*
X13254687Y-22497142D01*
X13254687Y-22497142D02*
X13351449Y-22545523D01*
X13351449Y-22545523D02*
X13399830Y-22593904D01*
X13399830Y-22593904D02*
X13448211Y-22690666D01*
X13448211Y-22690666D02*
X13448211Y-23077714D01*
X12916020Y-22158476D02*
X12916020Y-21529523D01*
X12916020Y-21529523D02*
X13303068Y-21868190D01*
X13303068Y-21868190D02*
X13303068Y-21723047D01*
X13303068Y-21723047D02*
X13351449Y-21626285D01*
X13351449Y-21626285D02*
X13399830Y-21577904D01*
X13399830Y-21577904D02*
X13496592Y-21529523D01*
X13496592Y-21529523D02*
X13738497Y-21529523D01*
X13738497Y-21529523D02*
X13835259Y-21577904D01*
X13835259Y-21577904D02*
X13883640Y-21626285D01*
X13883640Y-21626285D02*
X13932020Y-21723047D01*
X13932020Y-21723047D02*
X13932020Y-22013333D01*
X13932020Y-22013333D02*
X13883640Y-22110095D01*
X13883640Y-22110095D02*
X13835259Y-22158476D01*
X12916020Y-20900571D02*
X12916020Y-20803809D01*
X12916020Y-20803809D02*
X12964401Y-20707047D01*
X12964401Y-20707047D02*
X13012782Y-20658666D01*
X13012782Y-20658666D02*
X13109544Y-20610285D01*
X13109544Y-20610285D02*
X13303068Y-20561904D01*
X13303068Y-20561904D02*
X13544973Y-20561904D01*
X13544973Y-20561904D02*
X13738497Y-20610285D01*
X13738497Y-20610285D02*
X13835259Y-20658666D01*
X13835259Y-20658666D02*
X13883640Y-20707047D01*
X13883640Y-20707047D02*
X13932020Y-20803809D01*
X13932020Y-20803809D02*
X13932020Y-20900571D01*
X13932020Y-20900571D02*
X13883640Y-20997333D01*
X13883640Y-20997333D02*
X13835259Y-21045714D01*
X13835259Y-21045714D02*
X13738497Y-21094095D01*
X13738497Y-21094095D02*
X13544973Y-21142476D01*
X13544973Y-21142476D02*
X13303068Y-21142476D01*
X13303068Y-21142476D02*
X13109544Y-21094095D01*
X13109544Y-21094095D02*
X13012782Y-21045714D01*
X13012782Y-21045714D02*
X12964401Y-20997333D01*
X12964401Y-20997333D02*
X12916020Y-20900571D01*
%TO.C,C32*%
X33890857Y-20185259D02*
X33842476Y-20233640D01*
X33842476Y-20233640D02*
X33697333Y-20282020D01*
X33697333Y-20282020D02*
X33600571Y-20282020D01*
X33600571Y-20282020D02*
X33455428Y-20233640D01*
X33455428Y-20233640D02*
X33358666Y-20136878D01*
X33358666Y-20136878D02*
X33310285Y-20040116D01*
X33310285Y-20040116D02*
X33261904Y-19846592D01*
X33261904Y-19846592D02*
X33261904Y-19701449D01*
X33261904Y-19701449D02*
X33310285Y-19507925D01*
X33310285Y-19507925D02*
X33358666Y-19411163D01*
X33358666Y-19411163D02*
X33455428Y-19314401D01*
X33455428Y-19314401D02*
X33600571Y-19266020D01*
X33600571Y-19266020D02*
X33697333Y-19266020D01*
X33697333Y-19266020D02*
X33842476Y-19314401D01*
X33842476Y-19314401D02*
X33890857Y-19362782D01*
X34229523Y-19266020D02*
X34858476Y-19266020D01*
X34858476Y-19266020D02*
X34519809Y-19653068D01*
X34519809Y-19653068D02*
X34664952Y-19653068D01*
X34664952Y-19653068D02*
X34761714Y-19701449D01*
X34761714Y-19701449D02*
X34810095Y-19749830D01*
X34810095Y-19749830D02*
X34858476Y-19846592D01*
X34858476Y-19846592D02*
X34858476Y-20088497D01*
X34858476Y-20088497D02*
X34810095Y-20185259D01*
X34810095Y-20185259D02*
X34761714Y-20233640D01*
X34761714Y-20233640D02*
X34664952Y-20282020D01*
X34664952Y-20282020D02*
X34374666Y-20282020D01*
X34374666Y-20282020D02*
X34277904Y-20233640D01*
X34277904Y-20233640D02*
X34229523Y-20185259D01*
X35245523Y-19362782D02*
X35293904Y-19314401D01*
X35293904Y-19314401D02*
X35390666Y-19266020D01*
X35390666Y-19266020D02*
X35632571Y-19266020D01*
X35632571Y-19266020D02*
X35729333Y-19314401D01*
X35729333Y-19314401D02*
X35777714Y-19362782D01*
X35777714Y-19362782D02*
X35826095Y-19459544D01*
X35826095Y-19459544D02*
X35826095Y-19556306D01*
X35826095Y-19556306D02*
X35777714Y-19701449D01*
X35777714Y-19701449D02*
X35197142Y-20282020D01*
X35197142Y-20282020D02*
X35826095Y-20282020D01*
%TO.C,C22*%
X23487259Y-27069142D02*
X23535640Y-27117523D01*
X23535640Y-27117523D02*
X23584020Y-27262666D01*
X23584020Y-27262666D02*
X23584020Y-27359428D01*
X23584020Y-27359428D02*
X23535640Y-27504571D01*
X23535640Y-27504571D02*
X23438878Y-27601333D01*
X23438878Y-27601333D02*
X23342116Y-27649714D01*
X23342116Y-27649714D02*
X23148592Y-27698095D01*
X23148592Y-27698095D02*
X23003449Y-27698095D01*
X23003449Y-27698095D02*
X22809925Y-27649714D01*
X22809925Y-27649714D02*
X22713163Y-27601333D01*
X22713163Y-27601333D02*
X22616401Y-27504571D01*
X22616401Y-27504571D02*
X22568020Y-27359428D01*
X22568020Y-27359428D02*
X22568020Y-27262666D01*
X22568020Y-27262666D02*
X22616401Y-27117523D01*
X22616401Y-27117523D02*
X22664782Y-27069142D01*
X22664782Y-26682095D02*
X22616401Y-26633714D01*
X22616401Y-26633714D02*
X22568020Y-26536952D01*
X22568020Y-26536952D02*
X22568020Y-26295047D01*
X22568020Y-26295047D02*
X22616401Y-26198285D01*
X22616401Y-26198285D02*
X22664782Y-26149904D01*
X22664782Y-26149904D02*
X22761544Y-26101523D01*
X22761544Y-26101523D02*
X22858306Y-26101523D01*
X22858306Y-26101523D02*
X23003449Y-26149904D01*
X23003449Y-26149904D02*
X23584020Y-26730476D01*
X23584020Y-26730476D02*
X23584020Y-26101523D01*
X22664782Y-25714476D02*
X22616401Y-25666095D01*
X22616401Y-25666095D02*
X22568020Y-25569333D01*
X22568020Y-25569333D02*
X22568020Y-25327428D01*
X22568020Y-25327428D02*
X22616401Y-25230666D01*
X22616401Y-25230666D02*
X22664782Y-25182285D01*
X22664782Y-25182285D02*
X22761544Y-25133904D01*
X22761544Y-25133904D02*
X22858306Y-25133904D01*
X22858306Y-25133904D02*
X23003449Y-25182285D01*
X23003449Y-25182285D02*
X23584020Y-25762857D01*
X23584020Y-25762857D02*
X23584020Y-25133904D01*
%TO.C,C49*%
X5442857Y-4437259D02*
X5394476Y-4485640D01*
X5394476Y-4485640D02*
X5249333Y-4534020D01*
X5249333Y-4534020D02*
X5152571Y-4534020D01*
X5152571Y-4534020D02*
X5007428Y-4485640D01*
X5007428Y-4485640D02*
X4910666Y-4388878D01*
X4910666Y-4388878D02*
X4862285Y-4292116D01*
X4862285Y-4292116D02*
X4813904Y-4098592D01*
X4813904Y-4098592D02*
X4813904Y-3953449D01*
X4813904Y-3953449D02*
X4862285Y-3759925D01*
X4862285Y-3759925D02*
X4910666Y-3663163D01*
X4910666Y-3663163D02*
X5007428Y-3566401D01*
X5007428Y-3566401D02*
X5152571Y-3518020D01*
X5152571Y-3518020D02*
X5249333Y-3518020D01*
X5249333Y-3518020D02*
X5394476Y-3566401D01*
X5394476Y-3566401D02*
X5442857Y-3614782D01*
X6313714Y-3856687D02*
X6313714Y-4534020D01*
X6071809Y-3469640D02*
X5829904Y-4195354D01*
X5829904Y-4195354D02*
X6458857Y-4195354D01*
X6894285Y-4534020D02*
X7087809Y-4534020D01*
X7087809Y-4534020D02*
X7184571Y-4485640D01*
X7184571Y-4485640D02*
X7232952Y-4437259D01*
X7232952Y-4437259D02*
X7329714Y-4292116D01*
X7329714Y-4292116D02*
X7378095Y-4098592D01*
X7378095Y-4098592D02*
X7378095Y-3711544D01*
X7378095Y-3711544D02*
X7329714Y-3614782D01*
X7329714Y-3614782D02*
X7281333Y-3566401D01*
X7281333Y-3566401D02*
X7184571Y-3518020D01*
X7184571Y-3518020D02*
X6991047Y-3518020D01*
X6991047Y-3518020D02*
X6894285Y-3566401D01*
X6894285Y-3566401D02*
X6845904Y-3614782D01*
X6845904Y-3614782D02*
X6797523Y-3711544D01*
X6797523Y-3711544D02*
X6797523Y-3953449D01*
X6797523Y-3953449D02*
X6845904Y-4050211D01*
X6845904Y-4050211D02*
X6894285Y-4098592D01*
X6894285Y-4098592D02*
X6991047Y-4146973D01*
X6991047Y-4146973D02*
X7184571Y-4146973D01*
X7184571Y-4146973D02*
X7281333Y-4098592D01*
X7281333Y-4098592D02*
X7329714Y-4050211D01*
X7329714Y-4050211D02*
X7378095Y-3953449D01*
%TO.C,C53*%
X11538857Y-35171259D02*
X11490476Y-35219640D01*
X11490476Y-35219640D02*
X11345333Y-35268020D01*
X11345333Y-35268020D02*
X11248571Y-35268020D01*
X11248571Y-35268020D02*
X11103428Y-35219640D01*
X11103428Y-35219640D02*
X11006666Y-35122878D01*
X11006666Y-35122878D02*
X10958285Y-35026116D01*
X10958285Y-35026116D02*
X10909904Y-34832592D01*
X10909904Y-34832592D02*
X10909904Y-34687449D01*
X10909904Y-34687449D02*
X10958285Y-34493925D01*
X10958285Y-34493925D02*
X11006666Y-34397163D01*
X11006666Y-34397163D02*
X11103428Y-34300401D01*
X11103428Y-34300401D02*
X11248571Y-34252020D01*
X11248571Y-34252020D02*
X11345333Y-34252020D01*
X11345333Y-34252020D02*
X11490476Y-34300401D01*
X11490476Y-34300401D02*
X11538857Y-34348782D01*
X12458095Y-34252020D02*
X11974285Y-34252020D01*
X11974285Y-34252020D02*
X11925904Y-34735830D01*
X11925904Y-34735830D02*
X11974285Y-34687449D01*
X11974285Y-34687449D02*
X12071047Y-34639068D01*
X12071047Y-34639068D02*
X12312952Y-34639068D01*
X12312952Y-34639068D02*
X12409714Y-34687449D01*
X12409714Y-34687449D02*
X12458095Y-34735830D01*
X12458095Y-34735830D02*
X12506476Y-34832592D01*
X12506476Y-34832592D02*
X12506476Y-35074497D01*
X12506476Y-35074497D02*
X12458095Y-35171259D01*
X12458095Y-35171259D02*
X12409714Y-35219640D01*
X12409714Y-35219640D02*
X12312952Y-35268020D01*
X12312952Y-35268020D02*
X12071047Y-35268020D01*
X12071047Y-35268020D02*
X11974285Y-35219640D01*
X11974285Y-35219640D02*
X11925904Y-35171259D01*
X12845142Y-34252020D02*
X13474095Y-34252020D01*
X13474095Y-34252020D02*
X13135428Y-34639068D01*
X13135428Y-34639068D02*
X13280571Y-34639068D01*
X13280571Y-34639068D02*
X13377333Y-34687449D01*
X13377333Y-34687449D02*
X13425714Y-34735830D01*
X13425714Y-34735830D02*
X13474095Y-34832592D01*
X13474095Y-34832592D02*
X13474095Y-35074497D01*
X13474095Y-35074497D02*
X13425714Y-35171259D01*
X13425714Y-35171259D02*
X13377333Y-35219640D01*
X13377333Y-35219640D02*
X13280571Y-35268020D01*
X13280571Y-35268020D02*
X12990285Y-35268020D01*
X12990285Y-35268020D02*
X12893523Y-35219640D01*
X12893523Y-35219640D02*
X12845142Y-35171259D01*
%TO.C,C16*%
X17634857Y-19931259D02*
X17586476Y-19979640D01*
X17586476Y-19979640D02*
X17441333Y-20028020D01*
X17441333Y-20028020D02*
X17344571Y-20028020D01*
X17344571Y-20028020D02*
X17199428Y-19979640D01*
X17199428Y-19979640D02*
X17102666Y-19882878D01*
X17102666Y-19882878D02*
X17054285Y-19786116D01*
X17054285Y-19786116D02*
X17005904Y-19592592D01*
X17005904Y-19592592D02*
X17005904Y-19447449D01*
X17005904Y-19447449D02*
X17054285Y-19253925D01*
X17054285Y-19253925D02*
X17102666Y-19157163D01*
X17102666Y-19157163D02*
X17199428Y-19060401D01*
X17199428Y-19060401D02*
X17344571Y-19012020D01*
X17344571Y-19012020D02*
X17441333Y-19012020D01*
X17441333Y-19012020D02*
X17586476Y-19060401D01*
X17586476Y-19060401D02*
X17634857Y-19108782D01*
X18602476Y-20028020D02*
X18021904Y-20028020D01*
X18312190Y-20028020D02*
X18312190Y-19012020D01*
X18312190Y-19012020D02*
X18215428Y-19157163D01*
X18215428Y-19157163D02*
X18118666Y-19253925D01*
X18118666Y-19253925D02*
X18021904Y-19302306D01*
X19473333Y-19012020D02*
X19279809Y-19012020D01*
X19279809Y-19012020D02*
X19183047Y-19060401D01*
X19183047Y-19060401D02*
X19134666Y-19108782D01*
X19134666Y-19108782D02*
X19037904Y-19253925D01*
X19037904Y-19253925D02*
X18989523Y-19447449D01*
X18989523Y-19447449D02*
X18989523Y-19834497D01*
X18989523Y-19834497D02*
X19037904Y-19931259D01*
X19037904Y-19931259D02*
X19086285Y-19979640D01*
X19086285Y-19979640D02*
X19183047Y-20028020D01*
X19183047Y-20028020D02*
X19376571Y-20028020D01*
X19376571Y-20028020D02*
X19473333Y-19979640D01*
X19473333Y-19979640D02*
X19521714Y-19931259D01*
X19521714Y-19931259D02*
X19570095Y-19834497D01*
X19570095Y-19834497D02*
X19570095Y-19592592D01*
X19570095Y-19592592D02*
X19521714Y-19495830D01*
X19521714Y-19495830D02*
X19473333Y-19447449D01*
X19473333Y-19447449D02*
X19376571Y-19399068D01*
X19376571Y-19399068D02*
X19183047Y-19399068D01*
X19183047Y-19399068D02*
X19086285Y-19447449D01*
X19086285Y-19447449D02*
X19037904Y-19495830D01*
X19037904Y-19495830D02*
X18989523Y-19592592D01*
%TO.C,C61*%
X4183259Y-29355142D02*
X4231640Y-29403523D01*
X4231640Y-29403523D02*
X4280020Y-29548666D01*
X4280020Y-29548666D02*
X4280020Y-29645428D01*
X4280020Y-29645428D02*
X4231640Y-29790571D01*
X4231640Y-29790571D02*
X4134878Y-29887333D01*
X4134878Y-29887333D02*
X4038116Y-29935714D01*
X4038116Y-29935714D02*
X3844592Y-29984095D01*
X3844592Y-29984095D02*
X3699449Y-29984095D01*
X3699449Y-29984095D02*
X3505925Y-29935714D01*
X3505925Y-29935714D02*
X3409163Y-29887333D01*
X3409163Y-29887333D02*
X3312401Y-29790571D01*
X3312401Y-29790571D02*
X3264020Y-29645428D01*
X3264020Y-29645428D02*
X3264020Y-29548666D01*
X3264020Y-29548666D02*
X3312401Y-29403523D01*
X3312401Y-29403523D02*
X3360782Y-29355142D01*
X3264020Y-28484285D02*
X3264020Y-28677809D01*
X3264020Y-28677809D02*
X3312401Y-28774571D01*
X3312401Y-28774571D02*
X3360782Y-28822952D01*
X3360782Y-28822952D02*
X3505925Y-28919714D01*
X3505925Y-28919714D02*
X3699449Y-28968095D01*
X3699449Y-28968095D02*
X4086497Y-28968095D01*
X4086497Y-28968095D02*
X4183259Y-28919714D01*
X4183259Y-28919714D02*
X4231640Y-28871333D01*
X4231640Y-28871333D02*
X4280020Y-28774571D01*
X4280020Y-28774571D02*
X4280020Y-28581047D01*
X4280020Y-28581047D02*
X4231640Y-28484285D01*
X4231640Y-28484285D02*
X4183259Y-28435904D01*
X4183259Y-28435904D02*
X4086497Y-28387523D01*
X4086497Y-28387523D02*
X3844592Y-28387523D01*
X3844592Y-28387523D02*
X3747830Y-28435904D01*
X3747830Y-28435904D02*
X3699449Y-28484285D01*
X3699449Y-28484285D02*
X3651068Y-28581047D01*
X3651068Y-28581047D02*
X3651068Y-28774571D01*
X3651068Y-28774571D02*
X3699449Y-28871333D01*
X3699449Y-28871333D02*
X3747830Y-28919714D01*
X3747830Y-28919714D02*
X3844592Y-28968095D01*
X4280020Y-27419904D02*
X4280020Y-28000476D01*
X4280020Y-27710190D02*
X3264020Y-27710190D01*
X3264020Y-27710190D02*
X3409163Y-27806952D01*
X3409163Y-27806952D02*
X3505925Y-27903714D01*
X3505925Y-27903714D02*
X3554306Y-28000476D01*
%TO.C,C20*%
X17634857Y-25011259D02*
X17586476Y-25059640D01*
X17586476Y-25059640D02*
X17441333Y-25108020D01*
X17441333Y-25108020D02*
X17344571Y-25108020D01*
X17344571Y-25108020D02*
X17199428Y-25059640D01*
X17199428Y-25059640D02*
X17102666Y-24962878D01*
X17102666Y-24962878D02*
X17054285Y-24866116D01*
X17054285Y-24866116D02*
X17005904Y-24672592D01*
X17005904Y-24672592D02*
X17005904Y-24527449D01*
X17005904Y-24527449D02*
X17054285Y-24333925D01*
X17054285Y-24333925D02*
X17102666Y-24237163D01*
X17102666Y-24237163D02*
X17199428Y-24140401D01*
X17199428Y-24140401D02*
X17344571Y-24092020D01*
X17344571Y-24092020D02*
X17441333Y-24092020D01*
X17441333Y-24092020D02*
X17586476Y-24140401D01*
X17586476Y-24140401D02*
X17634857Y-24188782D01*
X18021904Y-24188782D02*
X18070285Y-24140401D01*
X18070285Y-24140401D02*
X18167047Y-24092020D01*
X18167047Y-24092020D02*
X18408952Y-24092020D01*
X18408952Y-24092020D02*
X18505714Y-24140401D01*
X18505714Y-24140401D02*
X18554095Y-24188782D01*
X18554095Y-24188782D02*
X18602476Y-24285544D01*
X18602476Y-24285544D02*
X18602476Y-24382306D01*
X18602476Y-24382306D02*
X18554095Y-24527449D01*
X18554095Y-24527449D02*
X17973523Y-25108020D01*
X17973523Y-25108020D02*
X18602476Y-25108020D01*
X19231428Y-24092020D02*
X19328190Y-24092020D01*
X19328190Y-24092020D02*
X19424952Y-24140401D01*
X19424952Y-24140401D02*
X19473333Y-24188782D01*
X19473333Y-24188782D02*
X19521714Y-24285544D01*
X19521714Y-24285544D02*
X19570095Y-24479068D01*
X19570095Y-24479068D02*
X19570095Y-24720973D01*
X19570095Y-24720973D02*
X19521714Y-24914497D01*
X19521714Y-24914497D02*
X19473333Y-25011259D01*
X19473333Y-25011259D02*
X19424952Y-25059640D01*
X19424952Y-25059640D02*
X19328190Y-25108020D01*
X19328190Y-25108020D02*
X19231428Y-25108020D01*
X19231428Y-25108020D02*
X19134666Y-25059640D01*
X19134666Y-25059640D02*
X19086285Y-25011259D01*
X19086285Y-25011259D02*
X19037904Y-24914497D01*
X19037904Y-24914497D02*
X18989523Y-24720973D01*
X18989523Y-24720973D02*
X18989523Y-24479068D01*
X18989523Y-24479068D02*
X19037904Y-24285544D01*
X19037904Y-24285544D02*
X19086285Y-24188782D01*
X19086285Y-24188782D02*
X19134666Y-24140401D01*
X19134666Y-24140401D02*
X19231428Y-24092020D01*
%TO.C,L3*%
X1608667Y-16853020D02*
X1124857Y-16853020D01*
X1124857Y-16853020D02*
X1124857Y-15837020D01*
X1850571Y-15837020D02*
X2479524Y-15837020D01*
X2479524Y-15837020D02*
X2140857Y-16224068D01*
X2140857Y-16224068D02*
X2286000Y-16224068D01*
X2286000Y-16224068D02*
X2382762Y-16272449D01*
X2382762Y-16272449D02*
X2431143Y-16320830D01*
X2431143Y-16320830D02*
X2479524Y-16417592D01*
X2479524Y-16417592D02*
X2479524Y-16659497D01*
X2479524Y-16659497D02*
X2431143Y-16756259D01*
X2431143Y-16756259D02*
X2382762Y-16804640D01*
X2382762Y-16804640D02*
X2286000Y-16853020D01*
X2286000Y-16853020D02*
X1995714Y-16853020D01*
X1995714Y-16853020D02*
X1898952Y-16804640D01*
X1898952Y-16804640D02*
X1850571Y-16756259D01*
%TO.C,C27*%
X29837259Y-27069142D02*
X29885640Y-27117523D01*
X29885640Y-27117523D02*
X29934020Y-27262666D01*
X29934020Y-27262666D02*
X29934020Y-27359428D01*
X29934020Y-27359428D02*
X29885640Y-27504571D01*
X29885640Y-27504571D02*
X29788878Y-27601333D01*
X29788878Y-27601333D02*
X29692116Y-27649714D01*
X29692116Y-27649714D02*
X29498592Y-27698095D01*
X29498592Y-27698095D02*
X29353449Y-27698095D01*
X29353449Y-27698095D02*
X29159925Y-27649714D01*
X29159925Y-27649714D02*
X29063163Y-27601333D01*
X29063163Y-27601333D02*
X28966401Y-27504571D01*
X28966401Y-27504571D02*
X28918020Y-27359428D01*
X28918020Y-27359428D02*
X28918020Y-27262666D01*
X28918020Y-27262666D02*
X28966401Y-27117523D01*
X28966401Y-27117523D02*
X29014782Y-27069142D01*
X29014782Y-26682095D02*
X28966401Y-26633714D01*
X28966401Y-26633714D02*
X28918020Y-26536952D01*
X28918020Y-26536952D02*
X28918020Y-26295047D01*
X28918020Y-26295047D02*
X28966401Y-26198285D01*
X28966401Y-26198285D02*
X29014782Y-26149904D01*
X29014782Y-26149904D02*
X29111544Y-26101523D01*
X29111544Y-26101523D02*
X29208306Y-26101523D01*
X29208306Y-26101523D02*
X29353449Y-26149904D01*
X29353449Y-26149904D02*
X29934020Y-26730476D01*
X29934020Y-26730476D02*
X29934020Y-26101523D01*
X28918020Y-25762857D02*
X28918020Y-25085523D01*
X28918020Y-25085523D02*
X29934020Y-25520952D01*
%TO.C,R13*%
X40602020Y-11829142D02*
X40118211Y-12167809D01*
X40602020Y-12409714D02*
X39586020Y-12409714D01*
X39586020Y-12409714D02*
X39586020Y-12022666D01*
X39586020Y-12022666D02*
X39634401Y-11925904D01*
X39634401Y-11925904D02*
X39682782Y-11877523D01*
X39682782Y-11877523D02*
X39779544Y-11829142D01*
X39779544Y-11829142D02*
X39924687Y-11829142D01*
X39924687Y-11829142D02*
X40021449Y-11877523D01*
X40021449Y-11877523D02*
X40069830Y-11925904D01*
X40069830Y-11925904D02*
X40118211Y-12022666D01*
X40118211Y-12022666D02*
X40118211Y-12409714D01*
X40602020Y-10861523D02*
X40602020Y-11442095D01*
X40602020Y-11151809D02*
X39586020Y-11151809D01*
X39586020Y-11151809D02*
X39731163Y-11248571D01*
X39731163Y-11248571D02*
X39827925Y-11345333D01*
X39827925Y-11345333D02*
X39876306Y-11442095D01*
X39586020Y-10522857D02*
X39586020Y-9893904D01*
X39586020Y-9893904D02*
X39973068Y-10232571D01*
X39973068Y-10232571D02*
X39973068Y-10087428D01*
X39973068Y-10087428D02*
X40021449Y-9990666D01*
X40021449Y-9990666D02*
X40069830Y-9942285D01*
X40069830Y-9942285D02*
X40166592Y-9893904D01*
X40166592Y-9893904D02*
X40408497Y-9893904D01*
X40408497Y-9893904D02*
X40505259Y-9942285D01*
X40505259Y-9942285D02*
X40553640Y-9990666D01*
X40553640Y-9990666D02*
X40602020Y-10087428D01*
X40602020Y-10087428D02*
X40602020Y-10377714D01*
X40602020Y-10377714D02*
X40553640Y-10474476D01*
X40553640Y-10474476D02*
X40505259Y-10522857D01*
%TO.C,R27*%
X7982857Y-29172020D02*
X7644190Y-28688211D01*
X7402285Y-29172020D02*
X7402285Y-28156020D01*
X7402285Y-28156020D02*
X7789333Y-28156020D01*
X7789333Y-28156020D02*
X7886095Y-28204401D01*
X7886095Y-28204401D02*
X7934476Y-28252782D01*
X7934476Y-28252782D02*
X7982857Y-28349544D01*
X7982857Y-28349544D02*
X7982857Y-28494687D01*
X7982857Y-28494687D02*
X7934476Y-28591449D01*
X7934476Y-28591449D02*
X7886095Y-28639830D01*
X7886095Y-28639830D02*
X7789333Y-28688211D01*
X7789333Y-28688211D02*
X7402285Y-28688211D01*
X8369904Y-28252782D02*
X8418285Y-28204401D01*
X8418285Y-28204401D02*
X8515047Y-28156020D01*
X8515047Y-28156020D02*
X8756952Y-28156020D01*
X8756952Y-28156020D02*
X8853714Y-28204401D01*
X8853714Y-28204401D02*
X8902095Y-28252782D01*
X8902095Y-28252782D02*
X8950476Y-28349544D01*
X8950476Y-28349544D02*
X8950476Y-28446306D01*
X8950476Y-28446306D02*
X8902095Y-28591449D01*
X8902095Y-28591449D02*
X8321523Y-29172020D01*
X8321523Y-29172020D02*
X8950476Y-29172020D01*
X9289142Y-28156020D02*
X9966476Y-28156020D01*
X9966476Y-28156020D02*
X9531047Y-29172020D01*
%TO.C,C17*%
X17634857Y-21201259D02*
X17586476Y-21249640D01*
X17586476Y-21249640D02*
X17441333Y-21298020D01*
X17441333Y-21298020D02*
X17344571Y-21298020D01*
X17344571Y-21298020D02*
X17199428Y-21249640D01*
X17199428Y-21249640D02*
X17102666Y-21152878D01*
X17102666Y-21152878D02*
X17054285Y-21056116D01*
X17054285Y-21056116D02*
X17005904Y-20862592D01*
X17005904Y-20862592D02*
X17005904Y-20717449D01*
X17005904Y-20717449D02*
X17054285Y-20523925D01*
X17054285Y-20523925D02*
X17102666Y-20427163D01*
X17102666Y-20427163D02*
X17199428Y-20330401D01*
X17199428Y-20330401D02*
X17344571Y-20282020D01*
X17344571Y-20282020D02*
X17441333Y-20282020D01*
X17441333Y-20282020D02*
X17586476Y-20330401D01*
X17586476Y-20330401D02*
X17634857Y-20378782D01*
X18602476Y-21298020D02*
X18021904Y-21298020D01*
X18312190Y-21298020D02*
X18312190Y-20282020D01*
X18312190Y-20282020D02*
X18215428Y-20427163D01*
X18215428Y-20427163D02*
X18118666Y-20523925D01*
X18118666Y-20523925D02*
X18021904Y-20572306D01*
X18941142Y-20282020D02*
X19618476Y-20282020D01*
X19618476Y-20282020D02*
X19183047Y-21298020D01*
%TO.C,C50*%
X48622857Y-7485259D02*
X48574476Y-7533640D01*
X48574476Y-7533640D02*
X48429333Y-7582020D01*
X48429333Y-7582020D02*
X48332571Y-7582020D01*
X48332571Y-7582020D02*
X48187428Y-7533640D01*
X48187428Y-7533640D02*
X48090666Y-7436878D01*
X48090666Y-7436878D02*
X48042285Y-7340116D01*
X48042285Y-7340116D02*
X47993904Y-7146592D01*
X47993904Y-7146592D02*
X47993904Y-7001449D01*
X47993904Y-7001449D02*
X48042285Y-6807925D01*
X48042285Y-6807925D02*
X48090666Y-6711163D01*
X48090666Y-6711163D02*
X48187428Y-6614401D01*
X48187428Y-6614401D02*
X48332571Y-6566020D01*
X48332571Y-6566020D02*
X48429333Y-6566020D01*
X48429333Y-6566020D02*
X48574476Y-6614401D01*
X48574476Y-6614401D02*
X48622857Y-6662782D01*
X49542095Y-6566020D02*
X49058285Y-6566020D01*
X49058285Y-6566020D02*
X49009904Y-7049830D01*
X49009904Y-7049830D02*
X49058285Y-7001449D01*
X49058285Y-7001449D02*
X49155047Y-6953068D01*
X49155047Y-6953068D02*
X49396952Y-6953068D01*
X49396952Y-6953068D02*
X49493714Y-7001449D01*
X49493714Y-7001449D02*
X49542095Y-7049830D01*
X49542095Y-7049830D02*
X49590476Y-7146592D01*
X49590476Y-7146592D02*
X49590476Y-7388497D01*
X49590476Y-7388497D02*
X49542095Y-7485259D01*
X49542095Y-7485259D02*
X49493714Y-7533640D01*
X49493714Y-7533640D02*
X49396952Y-7582020D01*
X49396952Y-7582020D02*
X49155047Y-7582020D01*
X49155047Y-7582020D02*
X49058285Y-7533640D01*
X49058285Y-7533640D02*
X49009904Y-7485259D01*
X50219428Y-6566020D02*
X50316190Y-6566020D01*
X50316190Y-6566020D02*
X50412952Y-6614401D01*
X50412952Y-6614401D02*
X50461333Y-6662782D01*
X50461333Y-6662782D02*
X50509714Y-6759544D01*
X50509714Y-6759544D02*
X50558095Y-6953068D01*
X50558095Y-6953068D02*
X50558095Y-7194973D01*
X50558095Y-7194973D02*
X50509714Y-7388497D01*
X50509714Y-7388497D02*
X50461333Y-7485259D01*
X50461333Y-7485259D02*
X50412952Y-7533640D01*
X50412952Y-7533640D02*
X50316190Y-7582020D01*
X50316190Y-7582020D02*
X50219428Y-7582020D01*
X50219428Y-7582020D02*
X50122666Y-7533640D01*
X50122666Y-7533640D02*
X50074285Y-7485259D01*
X50074285Y-7485259D02*
X50025904Y-7388497D01*
X50025904Y-7388497D02*
X49977523Y-7194973D01*
X49977523Y-7194973D02*
X49977523Y-6953068D01*
X49977523Y-6953068D02*
X50025904Y-6759544D01*
X50025904Y-6759544D02*
X50074285Y-6662782D01*
X50074285Y-6662782D02*
X50122666Y-6614401D01*
X50122666Y-6614401D02*
X50219428Y-6566020D01*
%TO.C,C30*%
X33890857Y-22725259D02*
X33842476Y-22773640D01*
X33842476Y-22773640D02*
X33697333Y-22822020D01*
X33697333Y-22822020D02*
X33600571Y-22822020D01*
X33600571Y-22822020D02*
X33455428Y-22773640D01*
X33455428Y-22773640D02*
X33358666Y-22676878D01*
X33358666Y-22676878D02*
X33310285Y-22580116D01*
X33310285Y-22580116D02*
X33261904Y-22386592D01*
X33261904Y-22386592D02*
X33261904Y-22241449D01*
X33261904Y-22241449D02*
X33310285Y-22047925D01*
X33310285Y-22047925D02*
X33358666Y-21951163D01*
X33358666Y-21951163D02*
X33455428Y-21854401D01*
X33455428Y-21854401D02*
X33600571Y-21806020D01*
X33600571Y-21806020D02*
X33697333Y-21806020D01*
X33697333Y-21806020D02*
X33842476Y-21854401D01*
X33842476Y-21854401D02*
X33890857Y-21902782D01*
X34229523Y-21806020D02*
X34858476Y-21806020D01*
X34858476Y-21806020D02*
X34519809Y-22193068D01*
X34519809Y-22193068D02*
X34664952Y-22193068D01*
X34664952Y-22193068D02*
X34761714Y-22241449D01*
X34761714Y-22241449D02*
X34810095Y-22289830D01*
X34810095Y-22289830D02*
X34858476Y-22386592D01*
X34858476Y-22386592D02*
X34858476Y-22628497D01*
X34858476Y-22628497D02*
X34810095Y-22725259D01*
X34810095Y-22725259D02*
X34761714Y-22773640D01*
X34761714Y-22773640D02*
X34664952Y-22822020D01*
X34664952Y-22822020D02*
X34374666Y-22822020D01*
X34374666Y-22822020D02*
X34277904Y-22773640D01*
X34277904Y-22773640D02*
X34229523Y-22725259D01*
X35487428Y-21806020D02*
X35584190Y-21806020D01*
X35584190Y-21806020D02*
X35680952Y-21854401D01*
X35680952Y-21854401D02*
X35729333Y-21902782D01*
X35729333Y-21902782D02*
X35777714Y-21999544D01*
X35777714Y-21999544D02*
X35826095Y-22193068D01*
X35826095Y-22193068D02*
X35826095Y-22434973D01*
X35826095Y-22434973D02*
X35777714Y-22628497D01*
X35777714Y-22628497D02*
X35729333Y-22725259D01*
X35729333Y-22725259D02*
X35680952Y-22773640D01*
X35680952Y-22773640D02*
X35584190Y-22822020D01*
X35584190Y-22822020D02*
X35487428Y-22822020D01*
X35487428Y-22822020D02*
X35390666Y-22773640D01*
X35390666Y-22773640D02*
X35342285Y-22725259D01*
X35342285Y-22725259D02*
X35293904Y-22628497D01*
X35293904Y-22628497D02*
X35245523Y-22434973D01*
X35245523Y-22434973D02*
X35245523Y-22193068D01*
X35245523Y-22193068D02*
X35293904Y-21999544D01*
X35293904Y-21999544D02*
X35342285Y-21902782D01*
X35342285Y-21902782D02*
X35390666Y-21854401D01*
X35390666Y-21854401D02*
X35487428Y-21806020D01*
D10*
%TO.C,J9*%
X-2492334Y-27275619D02*
X-2492334Y-27989904D01*
X-2492334Y-27989904D02*
X-2539953Y-28132761D01*
X-2539953Y-28132761D02*
X-2635191Y-28228000D01*
X-2635191Y-28228000D02*
X-2778048Y-28275619D01*
X-2778048Y-28275619D02*
X-2873286Y-28275619D01*
X-1968524Y-28275619D02*
X-1778048Y-28275619D01*
X-1778048Y-28275619D02*
X-1682810Y-28228000D01*
X-1682810Y-28228000D02*
X-1635191Y-28180380D01*
X-1635191Y-28180380D02*
X-1539953Y-28037523D01*
X-1539953Y-28037523D02*
X-1492334Y-27847047D01*
X-1492334Y-27847047D02*
X-1492334Y-27466095D01*
X-1492334Y-27466095D02*
X-1539953Y-27370857D01*
X-1539953Y-27370857D02*
X-1587572Y-27323238D01*
X-1587572Y-27323238D02*
X-1682810Y-27275619D01*
X-1682810Y-27275619D02*
X-1873286Y-27275619D01*
X-1873286Y-27275619D02*
X-1968524Y-27323238D01*
X-1968524Y-27323238D02*
X-2016143Y-27370857D01*
X-2016143Y-27370857D02*
X-2063762Y-27466095D01*
X-2063762Y-27466095D02*
X-2063762Y-27704190D01*
X-2063762Y-27704190D02*
X-2016143Y-27799428D01*
X-2016143Y-27799428D02*
X-1968524Y-27847047D01*
X-1968524Y-27847047D02*
X-1873286Y-27894666D01*
X-1873286Y-27894666D02*
X-1682810Y-27894666D01*
X-1682810Y-27894666D02*
X-1587572Y-27847047D01*
X-1587572Y-27847047D02*
X-1539953Y-27799428D01*
X-1539953Y-27799428D02*
X-1492334Y-27704190D01*
D11*
%TO.C,R31*%
X10376020Y-22751142D02*
X9892211Y-23089809D01*
X10376020Y-23331714D02*
X9360020Y-23331714D01*
X9360020Y-23331714D02*
X9360020Y-22944666D01*
X9360020Y-22944666D02*
X9408401Y-22847904D01*
X9408401Y-22847904D02*
X9456782Y-22799523D01*
X9456782Y-22799523D02*
X9553544Y-22751142D01*
X9553544Y-22751142D02*
X9698687Y-22751142D01*
X9698687Y-22751142D02*
X9795449Y-22799523D01*
X9795449Y-22799523D02*
X9843830Y-22847904D01*
X9843830Y-22847904D02*
X9892211Y-22944666D01*
X9892211Y-22944666D02*
X9892211Y-23331714D01*
X9360020Y-22412476D02*
X9360020Y-21783523D01*
X9360020Y-21783523D02*
X9747068Y-22122190D01*
X9747068Y-22122190D02*
X9747068Y-21977047D01*
X9747068Y-21977047D02*
X9795449Y-21880285D01*
X9795449Y-21880285D02*
X9843830Y-21831904D01*
X9843830Y-21831904D02*
X9940592Y-21783523D01*
X9940592Y-21783523D02*
X10182497Y-21783523D01*
X10182497Y-21783523D02*
X10279259Y-21831904D01*
X10279259Y-21831904D02*
X10327640Y-21880285D01*
X10327640Y-21880285D02*
X10376020Y-21977047D01*
X10376020Y-21977047D02*
X10376020Y-22267333D01*
X10376020Y-22267333D02*
X10327640Y-22364095D01*
X10327640Y-22364095D02*
X10279259Y-22412476D01*
X10376020Y-20815904D02*
X10376020Y-21396476D01*
X10376020Y-21106190D02*
X9360020Y-21106190D01*
X9360020Y-21106190D02*
X9505163Y-21202952D01*
X9505163Y-21202952D02*
X9601925Y-21299714D01*
X9601925Y-21299714D02*
X9650306Y-21396476D01*
%TO.C,C43*%
X22471259Y-11067142D02*
X22519640Y-11115523D01*
X22519640Y-11115523D02*
X22568020Y-11260666D01*
X22568020Y-11260666D02*
X22568020Y-11357428D01*
X22568020Y-11357428D02*
X22519640Y-11502571D01*
X22519640Y-11502571D02*
X22422878Y-11599333D01*
X22422878Y-11599333D02*
X22326116Y-11647714D01*
X22326116Y-11647714D02*
X22132592Y-11696095D01*
X22132592Y-11696095D02*
X21987449Y-11696095D01*
X21987449Y-11696095D02*
X21793925Y-11647714D01*
X21793925Y-11647714D02*
X21697163Y-11599333D01*
X21697163Y-11599333D02*
X21600401Y-11502571D01*
X21600401Y-11502571D02*
X21552020Y-11357428D01*
X21552020Y-11357428D02*
X21552020Y-11260666D01*
X21552020Y-11260666D02*
X21600401Y-11115523D01*
X21600401Y-11115523D02*
X21648782Y-11067142D01*
X21890687Y-10196285D02*
X22568020Y-10196285D01*
X21503640Y-10438190D02*
X22229354Y-10680095D01*
X22229354Y-10680095D02*
X22229354Y-10051142D01*
X21552020Y-9760857D02*
X21552020Y-9131904D01*
X21552020Y-9131904D02*
X21939068Y-9470571D01*
X21939068Y-9470571D02*
X21939068Y-9325428D01*
X21939068Y-9325428D02*
X21987449Y-9228666D01*
X21987449Y-9228666D02*
X22035830Y-9180285D01*
X22035830Y-9180285D02*
X22132592Y-9131904D01*
X22132592Y-9131904D02*
X22374497Y-9131904D01*
X22374497Y-9131904D02*
X22471259Y-9180285D01*
X22471259Y-9180285D02*
X22519640Y-9228666D01*
X22519640Y-9228666D02*
X22568020Y-9325428D01*
X22568020Y-9325428D02*
X22568020Y-9615714D01*
X22568020Y-9615714D02*
X22519640Y-9712476D01*
X22519640Y-9712476D02*
X22471259Y-9760857D01*
%TO.C,C52*%
X8236857Y-35171259D02*
X8188476Y-35219640D01*
X8188476Y-35219640D02*
X8043333Y-35268020D01*
X8043333Y-35268020D02*
X7946571Y-35268020D01*
X7946571Y-35268020D02*
X7801428Y-35219640D01*
X7801428Y-35219640D02*
X7704666Y-35122878D01*
X7704666Y-35122878D02*
X7656285Y-35026116D01*
X7656285Y-35026116D02*
X7607904Y-34832592D01*
X7607904Y-34832592D02*
X7607904Y-34687449D01*
X7607904Y-34687449D02*
X7656285Y-34493925D01*
X7656285Y-34493925D02*
X7704666Y-34397163D01*
X7704666Y-34397163D02*
X7801428Y-34300401D01*
X7801428Y-34300401D02*
X7946571Y-34252020D01*
X7946571Y-34252020D02*
X8043333Y-34252020D01*
X8043333Y-34252020D02*
X8188476Y-34300401D01*
X8188476Y-34300401D02*
X8236857Y-34348782D01*
X9156095Y-34252020D02*
X8672285Y-34252020D01*
X8672285Y-34252020D02*
X8623904Y-34735830D01*
X8623904Y-34735830D02*
X8672285Y-34687449D01*
X8672285Y-34687449D02*
X8769047Y-34639068D01*
X8769047Y-34639068D02*
X9010952Y-34639068D01*
X9010952Y-34639068D02*
X9107714Y-34687449D01*
X9107714Y-34687449D02*
X9156095Y-34735830D01*
X9156095Y-34735830D02*
X9204476Y-34832592D01*
X9204476Y-34832592D02*
X9204476Y-35074497D01*
X9204476Y-35074497D02*
X9156095Y-35171259D01*
X9156095Y-35171259D02*
X9107714Y-35219640D01*
X9107714Y-35219640D02*
X9010952Y-35268020D01*
X9010952Y-35268020D02*
X8769047Y-35268020D01*
X8769047Y-35268020D02*
X8672285Y-35219640D01*
X8672285Y-35219640D02*
X8623904Y-35171259D01*
X9591523Y-34348782D02*
X9639904Y-34300401D01*
X9639904Y-34300401D02*
X9736666Y-34252020D01*
X9736666Y-34252020D02*
X9978571Y-34252020D01*
X9978571Y-34252020D02*
X10075333Y-34300401D01*
X10075333Y-34300401D02*
X10123714Y-34348782D01*
X10123714Y-34348782D02*
X10172095Y-34445544D01*
X10172095Y-34445544D02*
X10172095Y-34542306D01*
X10172095Y-34542306D02*
X10123714Y-34687449D01*
X10123714Y-34687449D02*
X9543142Y-35268020D01*
X9543142Y-35268020D02*
X10172095Y-35268020D01*
%TO.C,C23*%
X24757259Y-27069142D02*
X24805640Y-27117523D01*
X24805640Y-27117523D02*
X24854020Y-27262666D01*
X24854020Y-27262666D02*
X24854020Y-27359428D01*
X24854020Y-27359428D02*
X24805640Y-27504571D01*
X24805640Y-27504571D02*
X24708878Y-27601333D01*
X24708878Y-27601333D02*
X24612116Y-27649714D01*
X24612116Y-27649714D02*
X24418592Y-27698095D01*
X24418592Y-27698095D02*
X24273449Y-27698095D01*
X24273449Y-27698095D02*
X24079925Y-27649714D01*
X24079925Y-27649714D02*
X23983163Y-27601333D01*
X23983163Y-27601333D02*
X23886401Y-27504571D01*
X23886401Y-27504571D02*
X23838020Y-27359428D01*
X23838020Y-27359428D02*
X23838020Y-27262666D01*
X23838020Y-27262666D02*
X23886401Y-27117523D01*
X23886401Y-27117523D02*
X23934782Y-27069142D01*
X23934782Y-26682095D02*
X23886401Y-26633714D01*
X23886401Y-26633714D02*
X23838020Y-26536952D01*
X23838020Y-26536952D02*
X23838020Y-26295047D01*
X23838020Y-26295047D02*
X23886401Y-26198285D01*
X23886401Y-26198285D02*
X23934782Y-26149904D01*
X23934782Y-26149904D02*
X24031544Y-26101523D01*
X24031544Y-26101523D02*
X24128306Y-26101523D01*
X24128306Y-26101523D02*
X24273449Y-26149904D01*
X24273449Y-26149904D02*
X24854020Y-26730476D01*
X24854020Y-26730476D02*
X24854020Y-26101523D01*
X23838020Y-25762857D02*
X23838020Y-25133904D01*
X23838020Y-25133904D02*
X24225068Y-25472571D01*
X24225068Y-25472571D02*
X24225068Y-25327428D01*
X24225068Y-25327428D02*
X24273449Y-25230666D01*
X24273449Y-25230666D02*
X24321830Y-25182285D01*
X24321830Y-25182285D02*
X24418592Y-25133904D01*
X24418592Y-25133904D02*
X24660497Y-25133904D01*
X24660497Y-25133904D02*
X24757259Y-25182285D01*
X24757259Y-25182285D02*
X24805640Y-25230666D01*
X24805640Y-25230666D02*
X24854020Y-25327428D01*
X24854020Y-25327428D02*
X24854020Y-25617714D01*
X24854020Y-25617714D02*
X24805640Y-25714476D01*
X24805640Y-25714476D02*
X24757259Y-25762857D01*
%TO.C,C36*%
X33890857Y-15105259D02*
X33842476Y-15153640D01*
X33842476Y-15153640D02*
X33697333Y-15202020D01*
X33697333Y-15202020D02*
X33600571Y-15202020D01*
X33600571Y-15202020D02*
X33455428Y-15153640D01*
X33455428Y-15153640D02*
X33358666Y-15056878D01*
X33358666Y-15056878D02*
X33310285Y-14960116D01*
X33310285Y-14960116D02*
X33261904Y-14766592D01*
X33261904Y-14766592D02*
X33261904Y-14621449D01*
X33261904Y-14621449D02*
X33310285Y-14427925D01*
X33310285Y-14427925D02*
X33358666Y-14331163D01*
X33358666Y-14331163D02*
X33455428Y-14234401D01*
X33455428Y-14234401D02*
X33600571Y-14186020D01*
X33600571Y-14186020D02*
X33697333Y-14186020D01*
X33697333Y-14186020D02*
X33842476Y-14234401D01*
X33842476Y-14234401D02*
X33890857Y-14282782D01*
X34229523Y-14186020D02*
X34858476Y-14186020D01*
X34858476Y-14186020D02*
X34519809Y-14573068D01*
X34519809Y-14573068D02*
X34664952Y-14573068D01*
X34664952Y-14573068D02*
X34761714Y-14621449D01*
X34761714Y-14621449D02*
X34810095Y-14669830D01*
X34810095Y-14669830D02*
X34858476Y-14766592D01*
X34858476Y-14766592D02*
X34858476Y-15008497D01*
X34858476Y-15008497D02*
X34810095Y-15105259D01*
X34810095Y-15105259D02*
X34761714Y-15153640D01*
X34761714Y-15153640D02*
X34664952Y-15202020D01*
X34664952Y-15202020D02*
X34374666Y-15202020D01*
X34374666Y-15202020D02*
X34277904Y-15153640D01*
X34277904Y-15153640D02*
X34229523Y-15105259D01*
X35729333Y-14186020D02*
X35535809Y-14186020D01*
X35535809Y-14186020D02*
X35439047Y-14234401D01*
X35439047Y-14234401D02*
X35390666Y-14282782D01*
X35390666Y-14282782D02*
X35293904Y-14427925D01*
X35293904Y-14427925D02*
X35245523Y-14621449D01*
X35245523Y-14621449D02*
X35245523Y-15008497D01*
X35245523Y-15008497D02*
X35293904Y-15105259D01*
X35293904Y-15105259D02*
X35342285Y-15153640D01*
X35342285Y-15153640D02*
X35439047Y-15202020D01*
X35439047Y-15202020D02*
X35632571Y-15202020D01*
X35632571Y-15202020D02*
X35729333Y-15153640D01*
X35729333Y-15153640D02*
X35777714Y-15105259D01*
X35777714Y-15105259D02*
X35826095Y-15008497D01*
X35826095Y-15008497D02*
X35826095Y-14766592D01*
X35826095Y-14766592D02*
X35777714Y-14669830D01*
X35777714Y-14669830D02*
X35729333Y-14621449D01*
X35729333Y-14621449D02*
X35632571Y-14573068D01*
X35632571Y-14573068D02*
X35439047Y-14573068D01*
X35439047Y-14573068D02*
X35342285Y-14621449D01*
X35342285Y-14621449D02*
X35293904Y-14669830D01*
X35293904Y-14669830D02*
X35245523Y-14766592D01*
%TO.C,L2*%
X1735667Y-18504020D02*
X1251857Y-18504020D01*
X1251857Y-18504020D02*
X1251857Y-17488020D01*
X2025952Y-17584782D02*
X2074333Y-17536401D01*
X2074333Y-17536401D02*
X2171095Y-17488020D01*
X2171095Y-17488020D02*
X2413000Y-17488020D01*
X2413000Y-17488020D02*
X2509762Y-17536401D01*
X2509762Y-17536401D02*
X2558143Y-17584782D01*
X2558143Y-17584782D02*
X2606524Y-17681544D01*
X2606524Y-17681544D02*
X2606524Y-17778306D01*
X2606524Y-17778306D02*
X2558143Y-17923449D01*
X2558143Y-17923449D02*
X1977571Y-18504020D01*
X1977571Y-18504020D02*
X2606524Y-18504020D01*
%TO.C,C34*%
X33890857Y-17645259D02*
X33842476Y-17693640D01*
X33842476Y-17693640D02*
X33697333Y-17742020D01*
X33697333Y-17742020D02*
X33600571Y-17742020D01*
X33600571Y-17742020D02*
X33455428Y-17693640D01*
X33455428Y-17693640D02*
X33358666Y-17596878D01*
X33358666Y-17596878D02*
X33310285Y-17500116D01*
X33310285Y-17500116D02*
X33261904Y-17306592D01*
X33261904Y-17306592D02*
X33261904Y-17161449D01*
X33261904Y-17161449D02*
X33310285Y-16967925D01*
X33310285Y-16967925D02*
X33358666Y-16871163D01*
X33358666Y-16871163D02*
X33455428Y-16774401D01*
X33455428Y-16774401D02*
X33600571Y-16726020D01*
X33600571Y-16726020D02*
X33697333Y-16726020D01*
X33697333Y-16726020D02*
X33842476Y-16774401D01*
X33842476Y-16774401D02*
X33890857Y-16822782D01*
X34229523Y-16726020D02*
X34858476Y-16726020D01*
X34858476Y-16726020D02*
X34519809Y-17113068D01*
X34519809Y-17113068D02*
X34664952Y-17113068D01*
X34664952Y-17113068D02*
X34761714Y-17161449D01*
X34761714Y-17161449D02*
X34810095Y-17209830D01*
X34810095Y-17209830D02*
X34858476Y-17306592D01*
X34858476Y-17306592D02*
X34858476Y-17548497D01*
X34858476Y-17548497D02*
X34810095Y-17645259D01*
X34810095Y-17645259D02*
X34761714Y-17693640D01*
X34761714Y-17693640D02*
X34664952Y-17742020D01*
X34664952Y-17742020D02*
X34374666Y-17742020D01*
X34374666Y-17742020D02*
X34277904Y-17693640D01*
X34277904Y-17693640D02*
X34229523Y-17645259D01*
X35729333Y-17064687D02*
X35729333Y-17742020D01*
X35487428Y-16677640D02*
X35245523Y-17403354D01*
X35245523Y-17403354D02*
X35874476Y-17403354D01*
%TO.C,C15*%
X14586857Y-19169259D02*
X14538476Y-19217640D01*
X14538476Y-19217640D02*
X14393333Y-19266020D01*
X14393333Y-19266020D02*
X14296571Y-19266020D01*
X14296571Y-19266020D02*
X14151428Y-19217640D01*
X14151428Y-19217640D02*
X14054666Y-19120878D01*
X14054666Y-19120878D02*
X14006285Y-19024116D01*
X14006285Y-19024116D02*
X13957904Y-18830592D01*
X13957904Y-18830592D02*
X13957904Y-18685449D01*
X13957904Y-18685449D02*
X14006285Y-18491925D01*
X14006285Y-18491925D02*
X14054666Y-18395163D01*
X14054666Y-18395163D02*
X14151428Y-18298401D01*
X14151428Y-18298401D02*
X14296571Y-18250020D01*
X14296571Y-18250020D02*
X14393333Y-18250020D01*
X14393333Y-18250020D02*
X14538476Y-18298401D01*
X14538476Y-18298401D02*
X14586857Y-18346782D01*
X15554476Y-19266020D02*
X14973904Y-19266020D01*
X15264190Y-19266020D02*
X15264190Y-18250020D01*
X15264190Y-18250020D02*
X15167428Y-18395163D01*
X15167428Y-18395163D02*
X15070666Y-18491925D01*
X15070666Y-18491925D02*
X14973904Y-18540306D01*
X16473714Y-18250020D02*
X15989904Y-18250020D01*
X15989904Y-18250020D02*
X15941523Y-18733830D01*
X15941523Y-18733830D02*
X15989904Y-18685449D01*
X15989904Y-18685449D02*
X16086666Y-18637068D01*
X16086666Y-18637068D02*
X16328571Y-18637068D01*
X16328571Y-18637068D02*
X16425333Y-18685449D01*
X16425333Y-18685449D02*
X16473714Y-18733830D01*
X16473714Y-18733830D02*
X16522095Y-18830592D01*
X16522095Y-18830592D02*
X16522095Y-19072497D01*
X16522095Y-19072497D02*
X16473714Y-19169259D01*
X16473714Y-19169259D02*
X16425333Y-19217640D01*
X16425333Y-19217640D02*
X16328571Y-19266020D01*
X16328571Y-19266020D02*
X16086666Y-19266020D01*
X16086666Y-19266020D02*
X15989904Y-19217640D01*
X15989904Y-19217640D02*
X15941523Y-19169259D01*
%TO.C,C55*%
X7993259Y-31387142D02*
X8041640Y-31435523D01*
X8041640Y-31435523D02*
X8090020Y-31580666D01*
X8090020Y-31580666D02*
X8090020Y-31677428D01*
X8090020Y-31677428D02*
X8041640Y-31822571D01*
X8041640Y-31822571D02*
X7944878Y-31919333D01*
X7944878Y-31919333D02*
X7848116Y-31967714D01*
X7848116Y-31967714D02*
X7654592Y-32016095D01*
X7654592Y-32016095D02*
X7509449Y-32016095D01*
X7509449Y-32016095D02*
X7315925Y-31967714D01*
X7315925Y-31967714D02*
X7219163Y-31919333D01*
X7219163Y-31919333D02*
X7122401Y-31822571D01*
X7122401Y-31822571D02*
X7074020Y-31677428D01*
X7074020Y-31677428D02*
X7074020Y-31580666D01*
X7074020Y-31580666D02*
X7122401Y-31435523D01*
X7122401Y-31435523D02*
X7170782Y-31387142D01*
X7074020Y-30467904D02*
X7074020Y-30951714D01*
X7074020Y-30951714D02*
X7557830Y-31000095D01*
X7557830Y-31000095D02*
X7509449Y-30951714D01*
X7509449Y-30951714D02*
X7461068Y-30854952D01*
X7461068Y-30854952D02*
X7461068Y-30613047D01*
X7461068Y-30613047D02*
X7509449Y-30516285D01*
X7509449Y-30516285D02*
X7557830Y-30467904D01*
X7557830Y-30467904D02*
X7654592Y-30419523D01*
X7654592Y-30419523D02*
X7896497Y-30419523D01*
X7896497Y-30419523D02*
X7993259Y-30467904D01*
X7993259Y-30467904D02*
X8041640Y-30516285D01*
X8041640Y-30516285D02*
X8090020Y-30613047D01*
X8090020Y-30613047D02*
X8090020Y-30854952D01*
X8090020Y-30854952D02*
X8041640Y-30951714D01*
X8041640Y-30951714D02*
X7993259Y-31000095D01*
X7074020Y-29500285D02*
X7074020Y-29984095D01*
X7074020Y-29984095D02*
X7557830Y-30032476D01*
X7557830Y-30032476D02*
X7509449Y-29984095D01*
X7509449Y-29984095D02*
X7461068Y-29887333D01*
X7461068Y-29887333D02*
X7461068Y-29645428D01*
X7461068Y-29645428D02*
X7509449Y-29548666D01*
X7509449Y-29548666D02*
X7557830Y-29500285D01*
X7557830Y-29500285D02*
X7654592Y-29451904D01*
X7654592Y-29451904D02*
X7896497Y-29451904D01*
X7896497Y-29451904D02*
X7993259Y-29500285D01*
X7993259Y-29500285D02*
X8041640Y-29548666D01*
X8041640Y-29548666D02*
X8090020Y-29645428D01*
X8090020Y-29645428D02*
X8090020Y-29887333D01*
X8090020Y-29887333D02*
X8041640Y-29984095D01*
X8041640Y-29984095D02*
X7993259Y-30032476D01*
%TO.C,R26*%
X14092020Y-31260142D02*
X13608211Y-31598809D01*
X14092020Y-31840714D02*
X13076020Y-31840714D01*
X13076020Y-31840714D02*
X13076020Y-31453666D01*
X13076020Y-31453666D02*
X13124401Y-31356904D01*
X13124401Y-31356904D02*
X13172782Y-31308523D01*
X13172782Y-31308523D02*
X13269544Y-31260142D01*
X13269544Y-31260142D02*
X13414687Y-31260142D01*
X13414687Y-31260142D02*
X13511449Y-31308523D01*
X13511449Y-31308523D02*
X13559830Y-31356904D01*
X13559830Y-31356904D02*
X13608211Y-31453666D01*
X13608211Y-31453666D02*
X13608211Y-31840714D01*
X13172782Y-30873095D02*
X13124401Y-30824714D01*
X13124401Y-30824714D02*
X13076020Y-30727952D01*
X13076020Y-30727952D02*
X13076020Y-30486047D01*
X13076020Y-30486047D02*
X13124401Y-30389285D01*
X13124401Y-30389285D02*
X13172782Y-30340904D01*
X13172782Y-30340904D02*
X13269544Y-30292523D01*
X13269544Y-30292523D02*
X13366306Y-30292523D01*
X13366306Y-30292523D02*
X13511449Y-30340904D01*
X13511449Y-30340904D02*
X14092020Y-30921476D01*
X14092020Y-30921476D02*
X14092020Y-30292523D01*
X13076020Y-29421666D02*
X13076020Y-29615190D01*
X13076020Y-29615190D02*
X13124401Y-29711952D01*
X13124401Y-29711952D02*
X13172782Y-29760333D01*
X13172782Y-29760333D02*
X13317925Y-29857095D01*
X13317925Y-29857095D02*
X13511449Y-29905476D01*
X13511449Y-29905476D02*
X13898497Y-29905476D01*
X13898497Y-29905476D02*
X13995259Y-29857095D01*
X13995259Y-29857095D02*
X14043640Y-29808714D01*
X14043640Y-29808714D02*
X14092020Y-29711952D01*
X14092020Y-29711952D02*
X14092020Y-29518428D01*
X14092020Y-29518428D02*
X14043640Y-29421666D01*
X14043640Y-29421666D02*
X13995259Y-29373285D01*
X13995259Y-29373285D02*
X13898497Y-29324904D01*
X13898497Y-29324904D02*
X13656592Y-29324904D01*
X13656592Y-29324904D02*
X13559830Y-29373285D01*
X13559830Y-29373285D02*
X13511449Y-29421666D01*
X13511449Y-29421666D02*
X13463068Y-29518428D01*
X13463068Y-29518428D02*
X13463068Y-29711952D01*
X13463068Y-29711952D02*
X13511449Y-29808714D01*
X13511449Y-29808714D02*
X13559830Y-29857095D01*
X13559830Y-29857095D02*
X13656592Y-29905476D01*
D10*
%TO.C,JP3*%
X-1341334Y-15845619D02*
X-1341334Y-16559904D01*
X-1341334Y-16559904D02*
X-1388953Y-16702761D01*
X-1388953Y-16702761D02*
X-1484191Y-16798000D01*
X-1484191Y-16798000D02*
X-1627048Y-16845619D01*
X-1627048Y-16845619D02*
X-1722286Y-16845619D01*
X-865143Y-16845619D02*
X-865143Y-15845619D01*
X-865143Y-15845619D02*
X-484191Y-15845619D01*
X-484191Y-15845619D02*
X-388953Y-15893238D01*
X-388953Y-15893238D02*
X-341334Y-15940857D01*
X-341334Y-15940857D02*
X-293715Y-16036095D01*
X-293715Y-16036095D02*
X-293715Y-16178952D01*
X-293715Y-16178952D02*
X-341334Y-16274190D01*
X-341334Y-16274190D02*
X-388953Y-16321809D01*
X-388953Y-16321809D02*
X-484191Y-16369428D01*
X-484191Y-16369428D02*
X-865143Y-16369428D01*
X39619Y-15845619D02*
X658666Y-15845619D01*
X658666Y-15845619D02*
X325333Y-16226571D01*
X325333Y-16226571D02*
X468190Y-16226571D01*
X468190Y-16226571D02*
X563428Y-16274190D01*
X563428Y-16274190D02*
X611047Y-16321809D01*
X611047Y-16321809D02*
X658666Y-16417047D01*
X658666Y-16417047D02*
X658666Y-16655142D01*
X658666Y-16655142D02*
X611047Y-16750380D01*
X611047Y-16750380D02*
X563428Y-16798000D01*
X563428Y-16798000D02*
X468190Y-16845619D01*
X468190Y-16845619D02*
X182476Y-16845619D01*
X182476Y-16845619D02*
X87238Y-16798000D01*
X87238Y-16798000D02*
X39619Y-16750380D01*
D11*
%TO.C,J7*%
X12408020Y-4148666D02*
X13133735Y-4148666D01*
X13133735Y-4148666D02*
X13278878Y-4197047D01*
X13278878Y-4197047D02*
X13375640Y-4293809D01*
X13375640Y-4293809D02*
X13424020Y-4438952D01*
X13424020Y-4438952D02*
X13424020Y-4535714D01*
X12408020Y-3761619D02*
X12408020Y-3084285D01*
X12408020Y-3084285D02*
X13424020Y-3519714D01*
%TO.C,R3*%
X39840020Y-27347332D02*
X39356211Y-27685999D01*
X39840020Y-27927904D02*
X38824020Y-27927904D01*
X38824020Y-27927904D02*
X38824020Y-27540856D01*
X38824020Y-27540856D02*
X38872401Y-27444094D01*
X38872401Y-27444094D02*
X38920782Y-27395713D01*
X38920782Y-27395713D02*
X39017544Y-27347332D01*
X39017544Y-27347332D02*
X39162687Y-27347332D01*
X39162687Y-27347332D02*
X39259449Y-27395713D01*
X39259449Y-27395713D02*
X39307830Y-27444094D01*
X39307830Y-27444094D02*
X39356211Y-27540856D01*
X39356211Y-27540856D02*
X39356211Y-27927904D01*
X38824020Y-27008666D02*
X38824020Y-26379713D01*
X38824020Y-26379713D02*
X39211068Y-26718380D01*
X39211068Y-26718380D02*
X39211068Y-26573237D01*
X39211068Y-26573237D02*
X39259449Y-26476475D01*
X39259449Y-26476475D02*
X39307830Y-26428094D01*
X39307830Y-26428094D02*
X39404592Y-26379713D01*
X39404592Y-26379713D02*
X39646497Y-26379713D01*
X39646497Y-26379713D02*
X39743259Y-26428094D01*
X39743259Y-26428094D02*
X39791640Y-26476475D01*
X39791640Y-26476475D02*
X39840020Y-26573237D01*
X39840020Y-26573237D02*
X39840020Y-26863523D01*
X39840020Y-26863523D02*
X39791640Y-26960285D01*
X39791640Y-26960285D02*
X39743259Y-27008666D01*
%TO.C,C56*%
X4183259Y-23259142D02*
X4231640Y-23307523D01*
X4231640Y-23307523D02*
X4280020Y-23452666D01*
X4280020Y-23452666D02*
X4280020Y-23549428D01*
X4280020Y-23549428D02*
X4231640Y-23694571D01*
X4231640Y-23694571D02*
X4134878Y-23791333D01*
X4134878Y-23791333D02*
X4038116Y-23839714D01*
X4038116Y-23839714D02*
X3844592Y-23888095D01*
X3844592Y-23888095D02*
X3699449Y-23888095D01*
X3699449Y-23888095D02*
X3505925Y-23839714D01*
X3505925Y-23839714D02*
X3409163Y-23791333D01*
X3409163Y-23791333D02*
X3312401Y-23694571D01*
X3312401Y-23694571D02*
X3264020Y-23549428D01*
X3264020Y-23549428D02*
X3264020Y-23452666D01*
X3264020Y-23452666D02*
X3312401Y-23307523D01*
X3312401Y-23307523D02*
X3360782Y-23259142D01*
X3264020Y-22339904D02*
X3264020Y-22823714D01*
X3264020Y-22823714D02*
X3747830Y-22872095D01*
X3747830Y-22872095D02*
X3699449Y-22823714D01*
X3699449Y-22823714D02*
X3651068Y-22726952D01*
X3651068Y-22726952D02*
X3651068Y-22485047D01*
X3651068Y-22485047D02*
X3699449Y-22388285D01*
X3699449Y-22388285D02*
X3747830Y-22339904D01*
X3747830Y-22339904D02*
X3844592Y-22291523D01*
X3844592Y-22291523D02*
X4086497Y-22291523D01*
X4086497Y-22291523D02*
X4183259Y-22339904D01*
X4183259Y-22339904D02*
X4231640Y-22388285D01*
X4231640Y-22388285D02*
X4280020Y-22485047D01*
X4280020Y-22485047D02*
X4280020Y-22726952D01*
X4280020Y-22726952D02*
X4231640Y-22823714D01*
X4231640Y-22823714D02*
X4183259Y-22872095D01*
X3264020Y-21420666D02*
X3264020Y-21614190D01*
X3264020Y-21614190D02*
X3312401Y-21710952D01*
X3312401Y-21710952D02*
X3360782Y-21759333D01*
X3360782Y-21759333D02*
X3505925Y-21856095D01*
X3505925Y-21856095D02*
X3699449Y-21904476D01*
X3699449Y-21904476D02*
X4086497Y-21904476D01*
X4086497Y-21904476D02*
X4183259Y-21856095D01*
X4183259Y-21856095D02*
X4231640Y-21807714D01*
X4231640Y-21807714D02*
X4280020Y-21710952D01*
X4280020Y-21710952D02*
X4280020Y-21517428D01*
X4280020Y-21517428D02*
X4231640Y-21420666D01*
X4231640Y-21420666D02*
X4183259Y-21372285D01*
X4183259Y-21372285D02*
X4086497Y-21323904D01*
X4086497Y-21323904D02*
X3844592Y-21323904D01*
X3844592Y-21323904D02*
X3747830Y-21372285D01*
X3747830Y-21372285D02*
X3699449Y-21420666D01*
X3699449Y-21420666D02*
X3651068Y-21517428D01*
X3651068Y-21517428D02*
X3651068Y-21710952D01*
X3651068Y-21710952D02*
X3699449Y-21807714D01*
X3699449Y-21807714D02*
X3747830Y-21856095D01*
X3747830Y-21856095D02*
X3844592Y-21904476D01*
%TO.C,C39*%
X27551259Y-11067142D02*
X27599640Y-11115523D01*
X27599640Y-11115523D02*
X27648020Y-11260666D01*
X27648020Y-11260666D02*
X27648020Y-11357428D01*
X27648020Y-11357428D02*
X27599640Y-11502571D01*
X27599640Y-11502571D02*
X27502878Y-11599333D01*
X27502878Y-11599333D02*
X27406116Y-11647714D01*
X27406116Y-11647714D02*
X27212592Y-11696095D01*
X27212592Y-11696095D02*
X27067449Y-11696095D01*
X27067449Y-11696095D02*
X26873925Y-11647714D01*
X26873925Y-11647714D02*
X26777163Y-11599333D01*
X26777163Y-11599333D02*
X26680401Y-11502571D01*
X26680401Y-11502571D02*
X26632020Y-11357428D01*
X26632020Y-11357428D02*
X26632020Y-11260666D01*
X26632020Y-11260666D02*
X26680401Y-11115523D01*
X26680401Y-11115523D02*
X26728782Y-11067142D01*
X26632020Y-10728476D02*
X26632020Y-10099523D01*
X26632020Y-10099523D02*
X27019068Y-10438190D01*
X27019068Y-10438190D02*
X27019068Y-10293047D01*
X27019068Y-10293047D02*
X27067449Y-10196285D01*
X27067449Y-10196285D02*
X27115830Y-10147904D01*
X27115830Y-10147904D02*
X27212592Y-10099523D01*
X27212592Y-10099523D02*
X27454497Y-10099523D01*
X27454497Y-10099523D02*
X27551259Y-10147904D01*
X27551259Y-10147904D02*
X27599640Y-10196285D01*
X27599640Y-10196285D02*
X27648020Y-10293047D01*
X27648020Y-10293047D02*
X27648020Y-10583333D01*
X27648020Y-10583333D02*
X27599640Y-10680095D01*
X27599640Y-10680095D02*
X27551259Y-10728476D01*
X27648020Y-9615714D02*
X27648020Y-9422190D01*
X27648020Y-9422190D02*
X27599640Y-9325428D01*
X27599640Y-9325428D02*
X27551259Y-9277047D01*
X27551259Y-9277047D02*
X27406116Y-9180285D01*
X27406116Y-9180285D02*
X27212592Y-9131904D01*
X27212592Y-9131904D02*
X26825544Y-9131904D01*
X26825544Y-9131904D02*
X26728782Y-9180285D01*
X26728782Y-9180285D02*
X26680401Y-9228666D01*
X26680401Y-9228666D02*
X26632020Y-9325428D01*
X26632020Y-9325428D02*
X26632020Y-9518952D01*
X26632020Y-9518952D02*
X26680401Y-9615714D01*
X26680401Y-9615714D02*
X26728782Y-9664095D01*
X26728782Y-9664095D02*
X26825544Y-9712476D01*
X26825544Y-9712476D02*
X27067449Y-9712476D01*
X27067449Y-9712476D02*
X27164211Y-9664095D01*
X27164211Y-9664095D02*
X27212592Y-9615714D01*
X27212592Y-9615714D02*
X27260973Y-9518952D01*
X27260973Y-9518952D02*
X27260973Y-9325428D01*
X27260973Y-9325428D02*
X27212592Y-9228666D01*
X27212592Y-9228666D02*
X27164211Y-9180285D01*
X27164211Y-9180285D02*
X27067449Y-9131904D01*
D10*
%TO.C,JP1*%
X14660666Y-12648619D02*
X14660666Y-13362904D01*
X14660666Y-13362904D02*
X14613047Y-13505761D01*
X14613047Y-13505761D02*
X14517809Y-13601000D01*
X14517809Y-13601000D02*
X14374952Y-13648619D01*
X14374952Y-13648619D02*
X14279714Y-13648619D01*
X15136857Y-13648619D02*
X15136857Y-12648619D01*
X15136857Y-12648619D02*
X15517809Y-12648619D01*
X15517809Y-12648619D02*
X15613047Y-12696238D01*
X15613047Y-12696238D02*
X15660666Y-12743857D01*
X15660666Y-12743857D02*
X15708285Y-12839095D01*
X15708285Y-12839095D02*
X15708285Y-12981952D01*
X15708285Y-12981952D02*
X15660666Y-13077190D01*
X15660666Y-13077190D02*
X15613047Y-13124809D01*
X15613047Y-13124809D02*
X15517809Y-13172428D01*
X15517809Y-13172428D02*
X15136857Y-13172428D01*
X16660666Y-13648619D02*
X16089238Y-13648619D01*
X16374952Y-13648619D02*
X16374952Y-12648619D01*
X16374952Y-12648619D02*
X16279714Y-12791476D01*
X16279714Y-12791476D02*
X16184476Y-12886714D01*
X16184476Y-12886714D02*
X16089238Y-12934333D01*
D11*
%TO.C,R14*%
X40602020Y-22243142D02*
X40118211Y-22581809D01*
X40602020Y-22823714D02*
X39586020Y-22823714D01*
X39586020Y-22823714D02*
X39586020Y-22436666D01*
X39586020Y-22436666D02*
X39634401Y-22339904D01*
X39634401Y-22339904D02*
X39682782Y-22291523D01*
X39682782Y-22291523D02*
X39779544Y-22243142D01*
X39779544Y-22243142D02*
X39924687Y-22243142D01*
X39924687Y-22243142D02*
X40021449Y-22291523D01*
X40021449Y-22291523D02*
X40069830Y-22339904D01*
X40069830Y-22339904D02*
X40118211Y-22436666D01*
X40118211Y-22436666D02*
X40118211Y-22823714D01*
X40602020Y-21275523D02*
X40602020Y-21856095D01*
X40602020Y-21565809D02*
X39586020Y-21565809D01*
X39586020Y-21565809D02*
X39731163Y-21662571D01*
X39731163Y-21662571D02*
X39827925Y-21759333D01*
X39827925Y-21759333D02*
X39876306Y-21856095D01*
X39924687Y-20404666D02*
X40602020Y-20404666D01*
X39537640Y-20646571D02*
X40263354Y-20888476D01*
X40263354Y-20888476D02*
X40263354Y-20259523D01*
%TO.C,C13*%
X14586857Y-20693259D02*
X14538476Y-20741640D01*
X14538476Y-20741640D02*
X14393333Y-20790020D01*
X14393333Y-20790020D02*
X14296571Y-20790020D01*
X14296571Y-20790020D02*
X14151428Y-20741640D01*
X14151428Y-20741640D02*
X14054666Y-20644878D01*
X14054666Y-20644878D02*
X14006285Y-20548116D01*
X14006285Y-20548116D02*
X13957904Y-20354592D01*
X13957904Y-20354592D02*
X13957904Y-20209449D01*
X13957904Y-20209449D02*
X14006285Y-20015925D01*
X14006285Y-20015925D02*
X14054666Y-19919163D01*
X14054666Y-19919163D02*
X14151428Y-19822401D01*
X14151428Y-19822401D02*
X14296571Y-19774020D01*
X14296571Y-19774020D02*
X14393333Y-19774020D01*
X14393333Y-19774020D02*
X14538476Y-19822401D01*
X14538476Y-19822401D02*
X14586857Y-19870782D01*
X15554476Y-20790020D02*
X14973904Y-20790020D01*
X15264190Y-20790020D02*
X15264190Y-19774020D01*
X15264190Y-19774020D02*
X15167428Y-19919163D01*
X15167428Y-19919163D02*
X15070666Y-20015925D01*
X15070666Y-20015925D02*
X14973904Y-20064306D01*
X15893142Y-19774020D02*
X16522095Y-19774020D01*
X16522095Y-19774020D02*
X16183428Y-20161068D01*
X16183428Y-20161068D02*
X16328571Y-20161068D01*
X16328571Y-20161068D02*
X16425333Y-20209449D01*
X16425333Y-20209449D02*
X16473714Y-20257830D01*
X16473714Y-20257830D02*
X16522095Y-20354592D01*
X16522095Y-20354592D02*
X16522095Y-20596497D01*
X16522095Y-20596497D02*
X16473714Y-20693259D01*
X16473714Y-20693259D02*
X16425333Y-20741640D01*
X16425333Y-20741640D02*
X16328571Y-20790020D01*
X16328571Y-20790020D02*
X16038285Y-20790020D01*
X16038285Y-20790020D02*
X15941523Y-20741640D01*
X15941523Y-20741640D02*
X15893142Y-20693259D01*
%TO.C,D1*%
X11900020Y-6083904D02*
X10884020Y-6083904D01*
X10884020Y-6083904D02*
X10884020Y-5841999D01*
X10884020Y-5841999D02*
X10932401Y-5696856D01*
X10932401Y-5696856D02*
X11029163Y-5600094D01*
X11029163Y-5600094D02*
X11125925Y-5551713D01*
X11125925Y-5551713D02*
X11319449Y-5503332D01*
X11319449Y-5503332D02*
X11464592Y-5503332D01*
X11464592Y-5503332D02*
X11658116Y-5551713D01*
X11658116Y-5551713D02*
X11754878Y-5600094D01*
X11754878Y-5600094D02*
X11851640Y-5696856D01*
X11851640Y-5696856D02*
X11900020Y-5841999D01*
X11900020Y-5841999D02*
X11900020Y-6083904D01*
X11900020Y-4535713D02*
X11900020Y-5116285D01*
X11900020Y-4825999D02*
X10884020Y-4825999D01*
X10884020Y-4825999D02*
X11029163Y-4922761D01*
X11029163Y-4922761D02*
X11125925Y-5019523D01*
X11125925Y-5019523D02*
X11174306Y-5116285D01*
%TO.C,C10*%
X12808857Y-40179259D02*
X12760476Y-40227640D01*
X12760476Y-40227640D02*
X12615333Y-40276020D01*
X12615333Y-40276020D02*
X12518571Y-40276020D01*
X12518571Y-40276020D02*
X12373428Y-40227640D01*
X12373428Y-40227640D02*
X12276666Y-40130878D01*
X12276666Y-40130878D02*
X12228285Y-40034116D01*
X12228285Y-40034116D02*
X12179904Y-39840592D01*
X12179904Y-39840592D02*
X12179904Y-39695449D01*
X12179904Y-39695449D02*
X12228285Y-39501925D01*
X12228285Y-39501925D02*
X12276666Y-39405163D01*
X12276666Y-39405163D02*
X12373428Y-39308401D01*
X12373428Y-39308401D02*
X12518571Y-39260020D01*
X12518571Y-39260020D02*
X12615333Y-39260020D01*
X12615333Y-39260020D02*
X12760476Y-39308401D01*
X12760476Y-39308401D02*
X12808857Y-39356782D01*
X13776476Y-40276020D02*
X13195904Y-40276020D01*
X13486190Y-40276020D02*
X13486190Y-39260020D01*
X13486190Y-39260020D02*
X13389428Y-39405163D01*
X13389428Y-39405163D02*
X13292666Y-39501925D01*
X13292666Y-39501925D02*
X13195904Y-39550306D01*
X14405428Y-39260020D02*
X14502190Y-39260020D01*
X14502190Y-39260020D02*
X14598952Y-39308401D01*
X14598952Y-39308401D02*
X14647333Y-39356782D01*
X14647333Y-39356782D02*
X14695714Y-39453544D01*
X14695714Y-39453544D02*
X14744095Y-39647068D01*
X14744095Y-39647068D02*
X14744095Y-39888973D01*
X14744095Y-39888973D02*
X14695714Y-40082497D01*
X14695714Y-40082497D02*
X14647333Y-40179259D01*
X14647333Y-40179259D02*
X14598952Y-40227640D01*
X14598952Y-40227640D02*
X14502190Y-40276020D01*
X14502190Y-40276020D02*
X14405428Y-40276020D01*
X14405428Y-40276020D02*
X14308666Y-40227640D01*
X14308666Y-40227640D02*
X14260285Y-40179259D01*
X14260285Y-40179259D02*
X14211904Y-40082497D01*
X14211904Y-40082497D02*
X14163523Y-39888973D01*
X14163523Y-39888973D02*
X14163523Y-39647068D01*
X14163523Y-39647068D02*
X14211904Y-39453544D01*
X14211904Y-39453544D02*
X14260285Y-39356782D01*
X14260285Y-39356782D02*
X14308666Y-39308401D01*
X14308666Y-39308401D02*
X14405428Y-39260020D01*
%TO.C,C54*%
X2405259Y-21735142D02*
X2453640Y-21783523D01*
X2453640Y-21783523D02*
X2502020Y-21928666D01*
X2502020Y-21928666D02*
X2502020Y-22025428D01*
X2502020Y-22025428D02*
X2453640Y-22170571D01*
X2453640Y-22170571D02*
X2356878Y-22267333D01*
X2356878Y-22267333D02*
X2260116Y-22315714D01*
X2260116Y-22315714D02*
X2066592Y-22364095D01*
X2066592Y-22364095D02*
X1921449Y-22364095D01*
X1921449Y-22364095D02*
X1727925Y-22315714D01*
X1727925Y-22315714D02*
X1631163Y-22267333D01*
X1631163Y-22267333D02*
X1534401Y-22170571D01*
X1534401Y-22170571D02*
X1486020Y-22025428D01*
X1486020Y-22025428D02*
X1486020Y-21928666D01*
X1486020Y-21928666D02*
X1534401Y-21783523D01*
X1534401Y-21783523D02*
X1582782Y-21735142D01*
X1486020Y-20815904D02*
X1486020Y-21299714D01*
X1486020Y-21299714D02*
X1969830Y-21348095D01*
X1969830Y-21348095D02*
X1921449Y-21299714D01*
X1921449Y-21299714D02*
X1873068Y-21202952D01*
X1873068Y-21202952D02*
X1873068Y-20961047D01*
X1873068Y-20961047D02*
X1921449Y-20864285D01*
X1921449Y-20864285D02*
X1969830Y-20815904D01*
X1969830Y-20815904D02*
X2066592Y-20767523D01*
X2066592Y-20767523D02*
X2308497Y-20767523D01*
X2308497Y-20767523D02*
X2405259Y-20815904D01*
X2405259Y-20815904D02*
X2453640Y-20864285D01*
X2453640Y-20864285D02*
X2502020Y-20961047D01*
X2502020Y-20961047D02*
X2502020Y-21202952D01*
X2502020Y-21202952D02*
X2453640Y-21299714D01*
X2453640Y-21299714D02*
X2405259Y-21348095D01*
X1824687Y-19896666D02*
X2502020Y-19896666D01*
X1437640Y-20138571D02*
X2163354Y-20380476D01*
X2163354Y-20380476D02*
X2163354Y-19751523D01*
%TO.C,C28*%
X31107259Y-27069142D02*
X31155640Y-27117523D01*
X31155640Y-27117523D02*
X31204020Y-27262666D01*
X31204020Y-27262666D02*
X31204020Y-27359428D01*
X31204020Y-27359428D02*
X31155640Y-27504571D01*
X31155640Y-27504571D02*
X31058878Y-27601333D01*
X31058878Y-27601333D02*
X30962116Y-27649714D01*
X30962116Y-27649714D02*
X30768592Y-27698095D01*
X30768592Y-27698095D02*
X30623449Y-27698095D01*
X30623449Y-27698095D02*
X30429925Y-27649714D01*
X30429925Y-27649714D02*
X30333163Y-27601333D01*
X30333163Y-27601333D02*
X30236401Y-27504571D01*
X30236401Y-27504571D02*
X30188020Y-27359428D01*
X30188020Y-27359428D02*
X30188020Y-27262666D01*
X30188020Y-27262666D02*
X30236401Y-27117523D01*
X30236401Y-27117523D02*
X30284782Y-27069142D01*
X30284782Y-26682095D02*
X30236401Y-26633714D01*
X30236401Y-26633714D02*
X30188020Y-26536952D01*
X30188020Y-26536952D02*
X30188020Y-26295047D01*
X30188020Y-26295047D02*
X30236401Y-26198285D01*
X30236401Y-26198285D02*
X30284782Y-26149904D01*
X30284782Y-26149904D02*
X30381544Y-26101523D01*
X30381544Y-26101523D02*
X30478306Y-26101523D01*
X30478306Y-26101523D02*
X30623449Y-26149904D01*
X30623449Y-26149904D02*
X31204020Y-26730476D01*
X31204020Y-26730476D02*
X31204020Y-26101523D01*
X30623449Y-25520952D02*
X30575068Y-25617714D01*
X30575068Y-25617714D02*
X30526687Y-25666095D01*
X30526687Y-25666095D02*
X30429925Y-25714476D01*
X30429925Y-25714476D02*
X30381544Y-25714476D01*
X30381544Y-25714476D02*
X30284782Y-25666095D01*
X30284782Y-25666095D02*
X30236401Y-25617714D01*
X30236401Y-25617714D02*
X30188020Y-25520952D01*
X30188020Y-25520952D02*
X30188020Y-25327428D01*
X30188020Y-25327428D02*
X30236401Y-25230666D01*
X30236401Y-25230666D02*
X30284782Y-25182285D01*
X30284782Y-25182285D02*
X30381544Y-25133904D01*
X30381544Y-25133904D02*
X30429925Y-25133904D01*
X30429925Y-25133904D02*
X30526687Y-25182285D01*
X30526687Y-25182285D02*
X30575068Y-25230666D01*
X30575068Y-25230666D02*
X30623449Y-25327428D01*
X30623449Y-25327428D02*
X30623449Y-25520952D01*
X30623449Y-25520952D02*
X30671830Y-25617714D01*
X30671830Y-25617714D02*
X30720211Y-25666095D01*
X30720211Y-25666095D02*
X30816973Y-25714476D01*
X30816973Y-25714476D02*
X31010497Y-25714476D01*
X31010497Y-25714476D02*
X31107259Y-25666095D01*
X31107259Y-25666095D02*
X31155640Y-25617714D01*
X31155640Y-25617714D02*
X31204020Y-25520952D01*
X31204020Y-25520952D02*
X31204020Y-25327428D01*
X31204020Y-25327428D02*
X31155640Y-25230666D01*
X31155640Y-25230666D02*
X31107259Y-25182285D01*
X31107259Y-25182285D02*
X31010497Y-25133904D01*
X31010497Y-25133904D02*
X30816973Y-25133904D01*
X30816973Y-25133904D02*
X30720211Y-25182285D01*
X30720211Y-25182285D02*
X30671830Y-25230666D01*
X30671830Y-25230666D02*
X30623449Y-25327428D01*
%TO.C,C44*%
X21201259Y-11067142D02*
X21249640Y-11115523D01*
X21249640Y-11115523D02*
X21298020Y-11260666D01*
X21298020Y-11260666D02*
X21298020Y-11357428D01*
X21298020Y-11357428D02*
X21249640Y-11502571D01*
X21249640Y-11502571D02*
X21152878Y-11599333D01*
X21152878Y-11599333D02*
X21056116Y-11647714D01*
X21056116Y-11647714D02*
X20862592Y-11696095D01*
X20862592Y-11696095D02*
X20717449Y-11696095D01*
X20717449Y-11696095D02*
X20523925Y-11647714D01*
X20523925Y-11647714D02*
X20427163Y-11599333D01*
X20427163Y-11599333D02*
X20330401Y-11502571D01*
X20330401Y-11502571D02*
X20282020Y-11357428D01*
X20282020Y-11357428D02*
X20282020Y-11260666D01*
X20282020Y-11260666D02*
X20330401Y-11115523D01*
X20330401Y-11115523D02*
X20378782Y-11067142D01*
X20620687Y-10196285D02*
X21298020Y-10196285D01*
X20233640Y-10438190D02*
X20959354Y-10680095D01*
X20959354Y-10680095D02*
X20959354Y-10051142D01*
X20620687Y-9228666D02*
X21298020Y-9228666D01*
X20233640Y-9470571D02*
X20959354Y-9712476D01*
X20959354Y-9712476D02*
X20959354Y-9083523D01*
%TO.C,J4*%
X6646333Y-35395020D02*
X6646333Y-36120735D01*
X6646333Y-36120735D02*
X6597952Y-36265878D01*
X6597952Y-36265878D02*
X6501190Y-36362640D01*
X6501190Y-36362640D02*
X6356047Y-36411020D01*
X6356047Y-36411020D02*
X6259285Y-36411020D01*
X7565571Y-35733687D02*
X7565571Y-36411020D01*
X7323666Y-35346640D02*
X7081761Y-36072354D01*
X7081761Y-36072354D02*
X7710714Y-36072354D01*
%TO.C,C38*%
X28821259Y-11067142D02*
X28869640Y-11115523D01*
X28869640Y-11115523D02*
X28918020Y-11260666D01*
X28918020Y-11260666D02*
X28918020Y-11357428D01*
X28918020Y-11357428D02*
X28869640Y-11502571D01*
X28869640Y-11502571D02*
X28772878Y-11599333D01*
X28772878Y-11599333D02*
X28676116Y-11647714D01*
X28676116Y-11647714D02*
X28482592Y-11696095D01*
X28482592Y-11696095D02*
X28337449Y-11696095D01*
X28337449Y-11696095D02*
X28143925Y-11647714D01*
X28143925Y-11647714D02*
X28047163Y-11599333D01*
X28047163Y-11599333D02*
X27950401Y-11502571D01*
X27950401Y-11502571D02*
X27902020Y-11357428D01*
X27902020Y-11357428D02*
X27902020Y-11260666D01*
X27902020Y-11260666D02*
X27950401Y-11115523D01*
X27950401Y-11115523D02*
X27998782Y-11067142D01*
X27902020Y-10728476D02*
X27902020Y-10099523D01*
X27902020Y-10099523D02*
X28289068Y-10438190D01*
X28289068Y-10438190D02*
X28289068Y-10293047D01*
X28289068Y-10293047D02*
X28337449Y-10196285D01*
X28337449Y-10196285D02*
X28385830Y-10147904D01*
X28385830Y-10147904D02*
X28482592Y-10099523D01*
X28482592Y-10099523D02*
X28724497Y-10099523D01*
X28724497Y-10099523D02*
X28821259Y-10147904D01*
X28821259Y-10147904D02*
X28869640Y-10196285D01*
X28869640Y-10196285D02*
X28918020Y-10293047D01*
X28918020Y-10293047D02*
X28918020Y-10583333D01*
X28918020Y-10583333D02*
X28869640Y-10680095D01*
X28869640Y-10680095D02*
X28821259Y-10728476D01*
X28337449Y-9518952D02*
X28289068Y-9615714D01*
X28289068Y-9615714D02*
X28240687Y-9664095D01*
X28240687Y-9664095D02*
X28143925Y-9712476D01*
X28143925Y-9712476D02*
X28095544Y-9712476D01*
X28095544Y-9712476D02*
X27998782Y-9664095D01*
X27998782Y-9664095D02*
X27950401Y-9615714D01*
X27950401Y-9615714D02*
X27902020Y-9518952D01*
X27902020Y-9518952D02*
X27902020Y-9325428D01*
X27902020Y-9325428D02*
X27950401Y-9228666D01*
X27950401Y-9228666D02*
X27998782Y-9180285D01*
X27998782Y-9180285D02*
X28095544Y-9131904D01*
X28095544Y-9131904D02*
X28143925Y-9131904D01*
X28143925Y-9131904D02*
X28240687Y-9180285D01*
X28240687Y-9180285D02*
X28289068Y-9228666D01*
X28289068Y-9228666D02*
X28337449Y-9325428D01*
X28337449Y-9325428D02*
X28337449Y-9518952D01*
X28337449Y-9518952D02*
X28385830Y-9615714D01*
X28385830Y-9615714D02*
X28434211Y-9664095D01*
X28434211Y-9664095D02*
X28530973Y-9712476D01*
X28530973Y-9712476D02*
X28724497Y-9712476D01*
X28724497Y-9712476D02*
X28821259Y-9664095D01*
X28821259Y-9664095D02*
X28869640Y-9615714D01*
X28869640Y-9615714D02*
X28918020Y-9518952D01*
X28918020Y-9518952D02*
X28918020Y-9325428D01*
X28918020Y-9325428D02*
X28869640Y-9228666D01*
X28869640Y-9228666D02*
X28821259Y-9180285D01*
X28821259Y-9180285D02*
X28724497Y-9131904D01*
X28724497Y-9131904D02*
X28530973Y-9131904D01*
X28530973Y-9131904D02*
X28434211Y-9180285D01*
X28434211Y-9180285D02*
X28385830Y-9228666D01*
X28385830Y-9228666D02*
X28337449Y-9325428D01*
%TO.C,C45*%
X17634857Y-14851259D02*
X17586476Y-14899640D01*
X17586476Y-14899640D02*
X17441333Y-14948020D01*
X17441333Y-14948020D02*
X17344571Y-14948020D01*
X17344571Y-14948020D02*
X17199428Y-14899640D01*
X17199428Y-14899640D02*
X17102666Y-14802878D01*
X17102666Y-14802878D02*
X17054285Y-14706116D01*
X17054285Y-14706116D02*
X17005904Y-14512592D01*
X17005904Y-14512592D02*
X17005904Y-14367449D01*
X17005904Y-14367449D02*
X17054285Y-14173925D01*
X17054285Y-14173925D02*
X17102666Y-14077163D01*
X17102666Y-14077163D02*
X17199428Y-13980401D01*
X17199428Y-13980401D02*
X17344571Y-13932020D01*
X17344571Y-13932020D02*
X17441333Y-13932020D01*
X17441333Y-13932020D02*
X17586476Y-13980401D01*
X17586476Y-13980401D02*
X17634857Y-14028782D01*
X18505714Y-14270687D02*
X18505714Y-14948020D01*
X18263809Y-13883640D02*
X18021904Y-14609354D01*
X18021904Y-14609354D02*
X18650857Y-14609354D01*
X19521714Y-13932020D02*
X19037904Y-13932020D01*
X19037904Y-13932020D02*
X18989523Y-14415830D01*
X18989523Y-14415830D02*
X19037904Y-14367449D01*
X19037904Y-14367449D02*
X19134666Y-14319068D01*
X19134666Y-14319068D02*
X19376571Y-14319068D01*
X19376571Y-14319068D02*
X19473333Y-14367449D01*
X19473333Y-14367449D02*
X19521714Y-14415830D01*
X19521714Y-14415830D02*
X19570095Y-14512592D01*
X19570095Y-14512592D02*
X19570095Y-14754497D01*
X19570095Y-14754497D02*
X19521714Y-14851259D01*
X19521714Y-14851259D02*
X19473333Y-14899640D01*
X19473333Y-14899640D02*
X19376571Y-14948020D01*
X19376571Y-14948020D02*
X19134666Y-14948020D01*
X19134666Y-14948020D02*
X19037904Y-14899640D01*
X19037904Y-14899640D02*
X18989523Y-14851259D01*
%TO.C,C18*%
X17634857Y-22471259D02*
X17586476Y-22519640D01*
X17586476Y-22519640D02*
X17441333Y-22568020D01*
X17441333Y-22568020D02*
X17344571Y-22568020D01*
X17344571Y-22568020D02*
X17199428Y-22519640D01*
X17199428Y-22519640D02*
X17102666Y-22422878D01*
X17102666Y-22422878D02*
X17054285Y-22326116D01*
X17054285Y-22326116D02*
X17005904Y-22132592D01*
X17005904Y-22132592D02*
X17005904Y-21987449D01*
X17005904Y-21987449D02*
X17054285Y-21793925D01*
X17054285Y-21793925D02*
X17102666Y-21697163D01*
X17102666Y-21697163D02*
X17199428Y-21600401D01*
X17199428Y-21600401D02*
X17344571Y-21552020D01*
X17344571Y-21552020D02*
X17441333Y-21552020D01*
X17441333Y-21552020D02*
X17586476Y-21600401D01*
X17586476Y-21600401D02*
X17634857Y-21648782D01*
X18602476Y-22568020D02*
X18021904Y-22568020D01*
X18312190Y-22568020D02*
X18312190Y-21552020D01*
X18312190Y-21552020D02*
X18215428Y-21697163D01*
X18215428Y-21697163D02*
X18118666Y-21793925D01*
X18118666Y-21793925D02*
X18021904Y-21842306D01*
X19183047Y-21987449D02*
X19086285Y-21939068D01*
X19086285Y-21939068D02*
X19037904Y-21890687D01*
X19037904Y-21890687D02*
X18989523Y-21793925D01*
X18989523Y-21793925D02*
X18989523Y-21745544D01*
X18989523Y-21745544D02*
X19037904Y-21648782D01*
X19037904Y-21648782D02*
X19086285Y-21600401D01*
X19086285Y-21600401D02*
X19183047Y-21552020D01*
X19183047Y-21552020D02*
X19376571Y-21552020D01*
X19376571Y-21552020D02*
X19473333Y-21600401D01*
X19473333Y-21600401D02*
X19521714Y-21648782D01*
X19521714Y-21648782D02*
X19570095Y-21745544D01*
X19570095Y-21745544D02*
X19570095Y-21793925D01*
X19570095Y-21793925D02*
X19521714Y-21890687D01*
X19521714Y-21890687D02*
X19473333Y-21939068D01*
X19473333Y-21939068D02*
X19376571Y-21987449D01*
X19376571Y-21987449D02*
X19183047Y-21987449D01*
X19183047Y-21987449D02*
X19086285Y-22035830D01*
X19086285Y-22035830D02*
X19037904Y-22084211D01*
X19037904Y-22084211D02*
X18989523Y-22180973D01*
X18989523Y-22180973D02*
X18989523Y-22374497D01*
X18989523Y-22374497D02*
X19037904Y-22471259D01*
X19037904Y-22471259D02*
X19086285Y-22519640D01*
X19086285Y-22519640D02*
X19183047Y-22568020D01*
X19183047Y-22568020D02*
X19376571Y-22568020D01*
X19376571Y-22568020D02*
X19473333Y-22519640D01*
X19473333Y-22519640D02*
X19521714Y-22471259D01*
X19521714Y-22471259D02*
X19570095Y-22374497D01*
X19570095Y-22374497D02*
X19570095Y-22180973D01*
X19570095Y-22180973D02*
X19521714Y-22084211D01*
X19521714Y-22084211D02*
X19473333Y-22035830D01*
X19473333Y-22035830D02*
X19376571Y-21987449D01*
%TO.C,C57*%
X10435259Y-12083142D02*
X10483640Y-12131523D01*
X10483640Y-12131523D02*
X10532020Y-12276666D01*
X10532020Y-12276666D02*
X10532020Y-12373428D01*
X10532020Y-12373428D02*
X10483640Y-12518571D01*
X10483640Y-12518571D02*
X10386878Y-12615333D01*
X10386878Y-12615333D02*
X10290116Y-12663714D01*
X10290116Y-12663714D02*
X10096592Y-12712095D01*
X10096592Y-12712095D02*
X9951449Y-12712095D01*
X9951449Y-12712095D02*
X9757925Y-12663714D01*
X9757925Y-12663714D02*
X9661163Y-12615333D01*
X9661163Y-12615333D02*
X9564401Y-12518571D01*
X9564401Y-12518571D02*
X9516020Y-12373428D01*
X9516020Y-12373428D02*
X9516020Y-12276666D01*
X9516020Y-12276666D02*
X9564401Y-12131523D01*
X9564401Y-12131523D02*
X9612782Y-12083142D01*
X9516020Y-11163904D02*
X9516020Y-11647714D01*
X9516020Y-11647714D02*
X9999830Y-11696095D01*
X9999830Y-11696095D02*
X9951449Y-11647714D01*
X9951449Y-11647714D02*
X9903068Y-11550952D01*
X9903068Y-11550952D02*
X9903068Y-11309047D01*
X9903068Y-11309047D02*
X9951449Y-11212285D01*
X9951449Y-11212285D02*
X9999830Y-11163904D01*
X9999830Y-11163904D02*
X10096592Y-11115523D01*
X10096592Y-11115523D02*
X10338497Y-11115523D01*
X10338497Y-11115523D02*
X10435259Y-11163904D01*
X10435259Y-11163904D02*
X10483640Y-11212285D01*
X10483640Y-11212285D02*
X10532020Y-11309047D01*
X10532020Y-11309047D02*
X10532020Y-11550952D01*
X10532020Y-11550952D02*
X10483640Y-11647714D01*
X10483640Y-11647714D02*
X10435259Y-11696095D01*
X9516020Y-10776857D02*
X9516020Y-10099523D01*
X9516020Y-10099523D02*
X10532020Y-10534952D01*
D10*
%TO.C,U5*%
X-1650905Y-17115619D02*
X-1650905Y-17925142D01*
X-1650905Y-17925142D02*
X-1603286Y-18020380D01*
X-1603286Y-18020380D02*
X-1555667Y-18068000D01*
X-1555667Y-18068000D02*
X-1460429Y-18115619D01*
X-1460429Y-18115619D02*
X-1269953Y-18115619D01*
X-1269953Y-18115619D02*
X-1174715Y-18068000D01*
X-1174715Y-18068000D02*
X-1127096Y-18020380D01*
X-1127096Y-18020380D02*
X-1079477Y-17925142D01*
X-1079477Y-17925142D02*
X-1079477Y-17115619D01*
X-127096Y-17115619D02*
X-603286Y-17115619D01*
X-603286Y-17115619D02*
X-650905Y-17591809D01*
X-650905Y-17591809D02*
X-603286Y-17544190D01*
X-603286Y-17544190D02*
X-508048Y-17496571D01*
X-508048Y-17496571D02*
X-269953Y-17496571D01*
X-269953Y-17496571D02*
X-174715Y-17544190D01*
X-174715Y-17544190D02*
X-127096Y-17591809D01*
X-127096Y-17591809D02*
X-79477Y-17687047D01*
X-79477Y-17687047D02*
X-79477Y-17925142D01*
X-79477Y-17925142D02*
X-127096Y-18020380D01*
X-127096Y-18020380D02*
X-174715Y-18068000D01*
X-174715Y-18068000D02*
X-269953Y-18115619D01*
X-269953Y-18115619D02*
X-508048Y-18115619D01*
X-508048Y-18115619D02*
X-603286Y-18068000D01*
X-603286Y-18068000D02*
X-650905Y-18020380D01*
D11*
%TO.C,J1*%
X2963333Y-3010020D02*
X2963333Y-3735735D01*
X2963333Y-3735735D02*
X2914952Y-3880878D01*
X2914952Y-3880878D02*
X2818190Y-3977640D01*
X2818190Y-3977640D02*
X2673047Y-4026020D01*
X2673047Y-4026020D02*
X2576285Y-4026020D01*
X3979333Y-4026020D02*
X3398761Y-4026020D01*
X3689047Y-4026020D02*
X3689047Y-3010020D01*
X3689047Y-3010020D02*
X3592285Y-3155163D01*
X3592285Y-3155163D02*
X3495523Y-3251925D01*
X3495523Y-3251925D02*
X3398761Y-3300306D01*
%TO.C,C58*%
X2405259Y-30879142D02*
X2453640Y-30927523D01*
X2453640Y-30927523D02*
X2502020Y-31072666D01*
X2502020Y-31072666D02*
X2502020Y-31169428D01*
X2502020Y-31169428D02*
X2453640Y-31314571D01*
X2453640Y-31314571D02*
X2356878Y-31411333D01*
X2356878Y-31411333D02*
X2260116Y-31459714D01*
X2260116Y-31459714D02*
X2066592Y-31508095D01*
X2066592Y-31508095D02*
X1921449Y-31508095D01*
X1921449Y-31508095D02*
X1727925Y-31459714D01*
X1727925Y-31459714D02*
X1631163Y-31411333D01*
X1631163Y-31411333D02*
X1534401Y-31314571D01*
X1534401Y-31314571D02*
X1486020Y-31169428D01*
X1486020Y-31169428D02*
X1486020Y-31072666D01*
X1486020Y-31072666D02*
X1534401Y-30927523D01*
X1534401Y-30927523D02*
X1582782Y-30879142D01*
X1486020Y-29959904D02*
X1486020Y-30443714D01*
X1486020Y-30443714D02*
X1969830Y-30492095D01*
X1969830Y-30492095D02*
X1921449Y-30443714D01*
X1921449Y-30443714D02*
X1873068Y-30346952D01*
X1873068Y-30346952D02*
X1873068Y-30105047D01*
X1873068Y-30105047D02*
X1921449Y-30008285D01*
X1921449Y-30008285D02*
X1969830Y-29959904D01*
X1969830Y-29959904D02*
X2066592Y-29911523D01*
X2066592Y-29911523D02*
X2308497Y-29911523D01*
X2308497Y-29911523D02*
X2405259Y-29959904D01*
X2405259Y-29959904D02*
X2453640Y-30008285D01*
X2453640Y-30008285D02*
X2502020Y-30105047D01*
X2502020Y-30105047D02*
X2502020Y-30346952D01*
X2502020Y-30346952D02*
X2453640Y-30443714D01*
X2453640Y-30443714D02*
X2405259Y-30492095D01*
X1921449Y-29330952D02*
X1873068Y-29427714D01*
X1873068Y-29427714D02*
X1824687Y-29476095D01*
X1824687Y-29476095D02*
X1727925Y-29524476D01*
X1727925Y-29524476D02*
X1679544Y-29524476D01*
X1679544Y-29524476D02*
X1582782Y-29476095D01*
X1582782Y-29476095D02*
X1534401Y-29427714D01*
X1534401Y-29427714D02*
X1486020Y-29330952D01*
X1486020Y-29330952D02*
X1486020Y-29137428D01*
X1486020Y-29137428D02*
X1534401Y-29040666D01*
X1534401Y-29040666D02*
X1582782Y-28992285D01*
X1582782Y-28992285D02*
X1679544Y-28943904D01*
X1679544Y-28943904D02*
X1727925Y-28943904D01*
X1727925Y-28943904D02*
X1824687Y-28992285D01*
X1824687Y-28992285D02*
X1873068Y-29040666D01*
X1873068Y-29040666D02*
X1921449Y-29137428D01*
X1921449Y-29137428D02*
X1921449Y-29330952D01*
X1921449Y-29330952D02*
X1969830Y-29427714D01*
X1969830Y-29427714D02*
X2018211Y-29476095D01*
X2018211Y-29476095D02*
X2114973Y-29524476D01*
X2114973Y-29524476D02*
X2308497Y-29524476D01*
X2308497Y-29524476D02*
X2405259Y-29476095D01*
X2405259Y-29476095D02*
X2453640Y-29427714D01*
X2453640Y-29427714D02*
X2502020Y-29330952D01*
X2502020Y-29330952D02*
X2502020Y-29137428D01*
X2502020Y-29137428D02*
X2453640Y-29040666D01*
X2453640Y-29040666D02*
X2405259Y-28992285D01*
X2405259Y-28992285D02*
X2308497Y-28943904D01*
X2308497Y-28943904D02*
X2114973Y-28943904D01*
X2114973Y-28943904D02*
X2018211Y-28992285D01*
X2018211Y-28992285D02*
X1969830Y-29040666D01*
X1969830Y-29040666D02*
X1921449Y-29137428D01*
%TO.C,C26*%
X28567259Y-27069142D02*
X28615640Y-27117523D01*
X28615640Y-27117523D02*
X28664020Y-27262666D01*
X28664020Y-27262666D02*
X28664020Y-27359428D01*
X28664020Y-27359428D02*
X28615640Y-27504571D01*
X28615640Y-27504571D02*
X28518878Y-27601333D01*
X28518878Y-27601333D02*
X28422116Y-27649714D01*
X28422116Y-27649714D02*
X28228592Y-27698095D01*
X28228592Y-27698095D02*
X28083449Y-27698095D01*
X28083449Y-27698095D02*
X27889925Y-27649714D01*
X27889925Y-27649714D02*
X27793163Y-27601333D01*
X27793163Y-27601333D02*
X27696401Y-27504571D01*
X27696401Y-27504571D02*
X27648020Y-27359428D01*
X27648020Y-27359428D02*
X27648020Y-27262666D01*
X27648020Y-27262666D02*
X27696401Y-27117523D01*
X27696401Y-27117523D02*
X27744782Y-27069142D01*
X27744782Y-26682095D02*
X27696401Y-26633714D01*
X27696401Y-26633714D02*
X27648020Y-26536952D01*
X27648020Y-26536952D02*
X27648020Y-26295047D01*
X27648020Y-26295047D02*
X27696401Y-26198285D01*
X27696401Y-26198285D02*
X27744782Y-26149904D01*
X27744782Y-26149904D02*
X27841544Y-26101523D01*
X27841544Y-26101523D02*
X27938306Y-26101523D01*
X27938306Y-26101523D02*
X28083449Y-26149904D01*
X28083449Y-26149904D02*
X28664020Y-26730476D01*
X28664020Y-26730476D02*
X28664020Y-26101523D01*
X27648020Y-25230666D02*
X27648020Y-25424190D01*
X27648020Y-25424190D02*
X27696401Y-25520952D01*
X27696401Y-25520952D02*
X27744782Y-25569333D01*
X27744782Y-25569333D02*
X27889925Y-25666095D01*
X27889925Y-25666095D02*
X28083449Y-25714476D01*
X28083449Y-25714476D02*
X28470497Y-25714476D01*
X28470497Y-25714476D02*
X28567259Y-25666095D01*
X28567259Y-25666095D02*
X28615640Y-25617714D01*
X28615640Y-25617714D02*
X28664020Y-25520952D01*
X28664020Y-25520952D02*
X28664020Y-25327428D01*
X28664020Y-25327428D02*
X28615640Y-25230666D01*
X28615640Y-25230666D02*
X28567259Y-25182285D01*
X28567259Y-25182285D02*
X28470497Y-25133904D01*
X28470497Y-25133904D02*
X28228592Y-25133904D01*
X28228592Y-25133904D02*
X28131830Y-25182285D01*
X28131830Y-25182285D02*
X28083449Y-25230666D01*
X28083449Y-25230666D02*
X28035068Y-25327428D01*
X28035068Y-25327428D02*
X28035068Y-25520952D01*
X28035068Y-25520952D02*
X28083449Y-25617714D01*
X28083449Y-25617714D02*
X28131830Y-25666095D01*
X28131830Y-25666095D02*
X28228592Y-25714476D01*
%TO.C,C2*%
X28981259Y-29633332D02*
X29029640Y-29681713D01*
X29029640Y-29681713D02*
X29078020Y-29826856D01*
X29078020Y-29826856D02*
X29078020Y-29923618D01*
X29078020Y-29923618D02*
X29029640Y-30068761D01*
X29029640Y-30068761D02*
X28932878Y-30165523D01*
X28932878Y-30165523D02*
X28836116Y-30213904D01*
X28836116Y-30213904D02*
X28642592Y-30262285D01*
X28642592Y-30262285D02*
X28497449Y-30262285D01*
X28497449Y-30262285D02*
X28303925Y-30213904D01*
X28303925Y-30213904D02*
X28207163Y-30165523D01*
X28207163Y-30165523D02*
X28110401Y-30068761D01*
X28110401Y-30068761D02*
X28062020Y-29923618D01*
X28062020Y-29923618D02*
X28062020Y-29826856D01*
X28062020Y-29826856D02*
X28110401Y-29681713D01*
X28110401Y-29681713D02*
X28158782Y-29633332D01*
X28158782Y-29246285D02*
X28110401Y-29197904D01*
X28110401Y-29197904D02*
X28062020Y-29101142D01*
X28062020Y-29101142D02*
X28062020Y-28859237D01*
X28062020Y-28859237D02*
X28110401Y-28762475D01*
X28110401Y-28762475D02*
X28158782Y-28714094D01*
X28158782Y-28714094D02*
X28255544Y-28665713D01*
X28255544Y-28665713D02*
X28352306Y-28665713D01*
X28352306Y-28665713D02*
X28497449Y-28714094D01*
X28497449Y-28714094D02*
X29078020Y-29294666D01*
X29078020Y-29294666D02*
X29078020Y-28665713D01*
%TO.C,C19*%
X17634857Y-23741259D02*
X17586476Y-23789640D01*
X17586476Y-23789640D02*
X17441333Y-23838020D01*
X17441333Y-23838020D02*
X17344571Y-23838020D01*
X17344571Y-23838020D02*
X17199428Y-23789640D01*
X17199428Y-23789640D02*
X17102666Y-23692878D01*
X17102666Y-23692878D02*
X17054285Y-23596116D01*
X17054285Y-23596116D02*
X17005904Y-23402592D01*
X17005904Y-23402592D02*
X17005904Y-23257449D01*
X17005904Y-23257449D02*
X17054285Y-23063925D01*
X17054285Y-23063925D02*
X17102666Y-22967163D01*
X17102666Y-22967163D02*
X17199428Y-22870401D01*
X17199428Y-22870401D02*
X17344571Y-22822020D01*
X17344571Y-22822020D02*
X17441333Y-22822020D01*
X17441333Y-22822020D02*
X17586476Y-22870401D01*
X17586476Y-22870401D02*
X17634857Y-22918782D01*
X18602476Y-23838020D02*
X18021904Y-23838020D01*
X18312190Y-23838020D02*
X18312190Y-22822020D01*
X18312190Y-22822020D02*
X18215428Y-22967163D01*
X18215428Y-22967163D02*
X18118666Y-23063925D01*
X18118666Y-23063925D02*
X18021904Y-23112306D01*
X19086285Y-23838020D02*
X19279809Y-23838020D01*
X19279809Y-23838020D02*
X19376571Y-23789640D01*
X19376571Y-23789640D02*
X19424952Y-23741259D01*
X19424952Y-23741259D02*
X19521714Y-23596116D01*
X19521714Y-23596116D02*
X19570095Y-23402592D01*
X19570095Y-23402592D02*
X19570095Y-23015544D01*
X19570095Y-23015544D02*
X19521714Y-22918782D01*
X19521714Y-22918782D02*
X19473333Y-22870401D01*
X19473333Y-22870401D02*
X19376571Y-22822020D01*
X19376571Y-22822020D02*
X19183047Y-22822020D01*
X19183047Y-22822020D02*
X19086285Y-22870401D01*
X19086285Y-22870401D02*
X19037904Y-22918782D01*
X19037904Y-22918782D02*
X18989523Y-23015544D01*
X18989523Y-23015544D02*
X18989523Y-23257449D01*
X18989523Y-23257449D02*
X19037904Y-23354211D01*
X19037904Y-23354211D02*
X19086285Y-23402592D01*
X19086285Y-23402592D02*
X19183047Y-23450973D01*
X19183047Y-23450973D02*
X19376571Y-23450973D01*
X19376571Y-23450973D02*
X19473333Y-23402592D01*
X19473333Y-23402592D02*
X19521714Y-23354211D01*
X19521714Y-23354211D02*
X19570095Y-23257449D01*
%TO.C,C31*%
X33890857Y-21455259D02*
X33842476Y-21503640D01*
X33842476Y-21503640D02*
X33697333Y-21552020D01*
X33697333Y-21552020D02*
X33600571Y-21552020D01*
X33600571Y-21552020D02*
X33455428Y-21503640D01*
X33455428Y-21503640D02*
X33358666Y-21406878D01*
X33358666Y-21406878D02*
X33310285Y-21310116D01*
X33310285Y-21310116D02*
X33261904Y-21116592D01*
X33261904Y-21116592D02*
X33261904Y-20971449D01*
X33261904Y-20971449D02*
X33310285Y-20777925D01*
X33310285Y-20777925D02*
X33358666Y-20681163D01*
X33358666Y-20681163D02*
X33455428Y-20584401D01*
X33455428Y-20584401D02*
X33600571Y-20536020D01*
X33600571Y-20536020D02*
X33697333Y-20536020D01*
X33697333Y-20536020D02*
X33842476Y-20584401D01*
X33842476Y-20584401D02*
X33890857Y-20632782D01*
X34229523Y-20536020D02*
X34858476Y-20536020D01*
X34858476Y-20536020D02*
X34519809Y-20923068D01*
X34519809Y-20923068D02*
X34664952Y-20923068D01*
X34664952Y-20923068D02*
X34761714Y-20971449D01*
X34761714Y-20971449D02*
X34810095Y-21019830D01*
X34810095Y-21019830D02*
X34858476Y-21116592D01*
X34858476Y-21116592D02*
X34858476Y-21358497D01*
X34858476Y-21358497D02*
X34810095Y-21455259D01*
X34810095Y-21455259D02*
X34761714Y-21503640D01*
X34761714Y-21503640D02*
X34664952Y-21552020D01*
X34664952Y-21552020D02*
X34374666Y-21552020D01*
X34374666Y-21552020D02*
X34277904Y-21503640D01*
X34277904Y-21503640D02*
X34229523Y-21455259D01*
X35826095Y-21552020D02*
X35245523Y-21552020D01*
X35535809Y-21552020D02*
X35535809Y-20536020D01*
X35535809Y-20536020D02*
X35439047Y-20681163D01*
X35439047Y-20681163D02*
X35342285Y-20777925D01*
X35342285Y-20777925D02*
X35245523Y-20826306D01*
%TO.C,C40*%
X26281259Y-11067142D02*
X26329640Y-11115523D01*
X26329640Y-11115523D02*
X26378020Y-11260666D01*
X26378020Y-11260666D02*
X26378020Y-11357428D01*
X26378020Y-11357428D02*
X26329640Y-11502571D01*
X26329640Y-11502571D02*
X26232878Y-11599333D01*
X26232878Y-11599333D02*
X26136116Y-11647714D01*
X26136116Y-11647714D02*
X25942592Y-11696095D01*
X25942592Y-11696095D02*
X25797449Y-11696095D01*
X25797449Y-11696095D02*
X25603925Y-11647714D01*
X25603925Y-11647714D02*
X25507163Y-11599333D01*
X25507163Y-11599333D02*
X25410401Y-11502571D01*
X25410401Y-11502571D02*
X25362020Y-11357428D01*
X25362020Y-11357428D02*
X25362020Y-11260666D01*
X25362020Y-11260666D02*
X25410401Y-11115523D01*
X25410401Y-11115523D02*
X25458782Y-11067142D01*
X25700687Y-10196285D02*
X26378020Y-10196285D01*
X25313640Y-10438190D02*
X26039354Y-10680095D01*
X26039354Y-10680095D02*
X26039354Y-10051142D01*
X25362020Y-9470571D02*
X25362020Y-9373809D01*
X25362020Y-9373809D02*
X25410401Y-9277047D01*
X25410401Y-9277047D02*
X25458782Y-9228666D01*
X25458782Y-9228666D02*
X25555544Y-9180285D01*
X25555544Y-9180285D02*
X25749068Y-9131904D01*
X25749068Y-9131904D02*
X25990973Y-9131904D01*
X25990973Y-9131904D02*
X26184497Y-9180285D01*
X26184497Y-9180285D02*
X26281259Y-9228666D01*
X26281259Y-9228666D02*
X26329640Y-9277047D01*
X26329640Y-9277047D02*
X26378020Y-9373809D01*
X26378020Y-9373809D02*
X26378020Y-9470571D01*
X26378020Y-9470571D02*
X26329640Y-9567333D01*
X26329640Y-9567333D02*
X26281259Y-9615714D01*
X26281259Y-9615714D02*
X26184497Y-9664095D01*
X26184497Y-9664095D02*
X25990973Y-9712476D01*
X25990973Y-9712476D02*
X25749068Y-9712476D01*
X25749068Y-9712476D02*
X25555544Y-9664095D01*
X25555544Y-9664095D02*
X25458782Y-9615714D01*
X25458782Y-9615714D02*
X25410401Y-9567333D01*
X25410401Y-9567333D02*
X25362020Y-9470571D01*
%TO.C,C5*%
X34374667Y-29075259D02*
X34326286Y-29123640D01*
X34326286Y-29123640D02*
X34181143Y-29172020D01*
X34181143Y-29172020D02*
X34084381Y-29172020D01*
X34084381Y-29172020D02*
X33939238Y-29123640D01*
X33939238Y-29123640D02*
X33842476Y-29026878D01*
X33842476Y-29026878D02*
X33794095Y-28930116D01*
X33794095Y-28930116D02*
X33745714Y-28736592D01*
X33745714Y-28736592D02*
X33745714Y-28591449D01*
X33745714Y-28591449D02*
X33794095Y-28397925D01*
X33794095Y-28397925D02*
X33842476Y-28301163D01*
X33842476Y-28301163D02*
X33939238Y-28204401D01*
X33939238Y-28204401D02*
X34084381Y-28156020D01*
X34084381Y-28156020D02*
X34181143Y-28156020D01*
X34181143Y-28156020D02*
X34326286Y-28204401D01*
X34326286Y-28204401D02*
X34374667Y-28252782D01*
X35293905Y-28156020D02*
X34810095Y-28156020D01*
X34810095Y-28156020D02*
X34761714Y-28639830D01*
X34761714Y-28639830D02*
X34810095Y-28591449D01*
X34810095Y-28591449D02*
X34906857Y-28543068D01*
X34906857Y-28543068D02*
X35148762Y-28543068D01*
X35148762Y-28543068D02*
X35245524Y-28591449D01*
X35245524Y-28591449D02*
X35293905Y-28639830D01*
X35293905Y-28639830D02*
X35342286Y-28736592D01*
X35342286Y-28736592D02*
X35342286Y-28978497D01*
X35342286Y-28978497D02*
X35293905Y-29075259D01*
X35293905Y-29075259D02*
X35245524Y-29123640D01*
X35245524Y-29123640D02*
X35148762Y-29172020D01*
X35148762Y-29172020D02*
X34906857Y-29172020D01*
X34906857Y-29172020D02*
X34810095Y-29123640D01*
X34810095Y-29123640D02*
X34761714Y-29075259D01*
%TO.C,C21*%
X22217259Y-27069142D02*
X22265640Y-27117523D01*
X22265640Y-27117523D02*
X22314020Y-27262666D01*
X22314020Y-27262666D02*
X22314020Y-27359428D01*
X22314020Y-27359428D02*
X22265640Y-27504571D01*
X22265640Y-27504571D02*
X22168878Y-27601333D01*
X22168878Y-27601333D02*
X22072116Y-27649714D01*
X22072116Y-27649714D02*
X21878592Y-27698095D01*
X21878592Y-27698095D02*
X21733449Y-27698095D01*
X21733449Y-27698095D02*
X21539925Y-27649714D01*
X21539925Y-27649714D02*
X21443163Y-27601333D01*
X21443163Y-27601333D02*
X21346401Y-27504571D01*
X21346401Y-27504571D02*
X21298020Y-27359428D01*
X21298020Y-27359428D02*
X21298020Y-27262666D01*
X21298020Y-27262666D02*
X21346401Y-27117523D01*
X21346401Y-27117523D02*
X21394782Y-27069142D01*
X21394782Y-26682095D02*
X21346401Y-26633714D01*
X21346401Y-26633714D02*
X21298020Y-26536952D01*
X21298020Y-26536952D02*
X21298020Y-26295047D01*
X21298020Y-26295047D02*
X21346401Y-26198285D01*
X21346401Y-26198285D02*
X21394782Y-26149904D01*
X21394782Y-26149904D02*
X21491544Y-26101523D01*
X21491544Y-26101523D02*
X21588306Y-26101523D01*
X21588306Y-26101523D02*
X21733449Y-26149904D01*
X21733449Y-26149904D02*
X22314020Y-26730476D01*
X22314020Y-26730476D02*
X22314020Y-26101523D01*
X22314020Y-25133904D02*
X22314020Y-25714476D01*
X22314020Y-25424190D02*
X21298020Y-25424190D01*
X21298020Y-25424190D02*
X21443163Y-25520952D01*
X21443163Y-25520952D02*
X21539925Y-25617714D01*
X21539925Y-25617714D02*
X21588306Y-25714476D01*
D10*
%TO.C,C65*%
X-2172620Y-17533857D02*
X-2125000Y-17581476D01*
X-2125000Y-17581476D02*
X-2077381Y-17724333D01*
X-2077381Y-17724333D02*
X-2077381Y-17819571D01*
X-2077381Y-17819571D02*
X-2125000Y-17962428D01*
X-2125000Y-17962428D02*
X-2220239Y-18057666D01*
X-2220239Y-18057666D02*
X-2315477Y-18105285D01*
X-2315477Y-18105285D02*
X-2505953Y-18152904D01*
X-2505953Y-18152904D02*
X-2648810Y-18152904D01*
X-2648810Y-18152904D02*
X-2839286Y-18105285D01*
X-2839286Y-18105285D02*
X-2934524Y-18057666D01*
X-2934524Y-18057666D02*
X-3029762Y-17962428D01*
X-3029762Y-17962428D02*
X-3077381Y-17819571D01*
X-3077381Y-17819571D02*
X-3077381Y-17724333D01*
X-3077381Y-17724333D02*
X-3029762Y-17581476D01*
X-3029762Y-17581476D02*
X-2982143Y-17533857D01*
X-3077381Y-16676714D02*
X-3077381Y-16867190D01*
X-3077381Y-16867190D02*
X-3029762Y-16962428D01*
X-3029762Y-16962428D02*
X-2982143Y-17010047D01*
X-2982143Y-17010047D02*
X-2839286Y-17105285D01*
X-2839286Y-17105285D02*
X-2648810Y-17152904D01*
X-2648810Y-17152904D02*
X-2267858Y-17152904D01*
X-2267858Y-17152904D02*
X-2172620Y-17105285D01*
X-2172620Y-17105285D02*
X-2125000Y-17057666D01*
X-2125000Y-17057666D02*
X-2077381Y-16962428D01*
X-2077381Y-16962428D02*
X-2077381Y-16771952D01*
X-2077381Y-16771952D02*
X-2125000Y-16676714D01*
X-2125000Y-16676714D02*
X-2172620Y-16629095D01*
X-2172620Y-16629095D02*
X-2267858Y-16581476D01*
X-2267858Y-16581476D02*
X-2505953Y-16581476D01*
X-2505953Y-16581476D02*
X-2601191Y-16629095D01*
X-2601191Y-16629095D02*
X-2648810Y-16676714D01*
X-2648810Y-16676714D02*
X-2696429Y-16771952D01*
X-2696429Y-16771952D02*
X-2696429Y-16962428D01*
X-2696429Y-16962428D02*
X-2648810Y-17057666D01*
X-2648810Y-17057666D02*
X-2601191Y-17105285D01*
X-2601191Y-17105285D02*
X-2505953Y-17152904D01*
X-3077381Y-15676714D02*
X-3077381Y-16152904D01*
X-3077381Y-16152904D02*
X-2601191Y-16200523D01*
X-2601191Y-16200523D02*
X-2648810Y-16152904D01*
X-2648810Y-16152904D02*
X-2696429Y-16057666D01*
X-2696429Y-16057666D02*
X-2696429Y-15819571D01*
X-2696429Y-15819571D02*
X-2648810Y-15724333D01*
X-2648810Y-15724333D02*
X-2601191Y-15676714D01*
X-2601191Y-15676714D02*
X-2505953Y-15629095D01*
X-2505953Y-15629095D02*
X-2267858Y-15629095D01*
X-2267858Y-15629095D02*
X-2172620Y-15676714D01*
X-2172620Y-15676714D02*
X-2125000Y-15724333D01*
X-2125000Y-15724333D02*
X-2077381Y-15819571D01*
X-2077381Y-15819571D02*
X-2077381Y-16057666D01*
X-2077381Y-16057666D02*
X-2125000Y-16152904D01*
X-2125000Y-16152904D02*
X-2172620Y-16200523D01*
D11*
%TO.C,R2*%
X26378020Y-29633332D02*
X25894211Y-29971999D01*
X26378020Y-30213904D02*
X25362020Y-30213904D01*
X25362020Y-30213904D02*
X25362020Y-29826856D01*
X25362020Y-29826856D02*
X25410401Y-29730094D01*
X25410401Y-29730094D02*
X25458782Y-29681713D01*
X25458782Y-29681713D02*
X25555544Y-29633332D01*
X25555544Y-29633332D02*
X25700687Y-29633332D01*
X25700687Y-29633332D02*
X25797449Y-29681713D01*
X25797449Y-29681713D02*
X25845830Y-29730094D01*
X25845830Y-29730094D02*
X25894211Y-29826856D01*
X25894211Y-29826856D02*
X25894211Y-30213904D01*
X25458782Y-29246285D02*
X25410401Y-29197904D01*
X25410401Y-29197904D02*
X25362020Y-29101142D01*
X25362020Y-29101142D02*
X25362020Y-28859237D01*
X25362020Y-28859237D02*
X25410401Y-28762475D01*
X25410401Y-28762475D02*
X25458782Y-28714094D01*
X25458782Y-28714094D02*
X25555544Y-28665713D01*
X25555544Y-28665713D02*
X25652306Y-28665713D01*
X25652306Y-28665713D02*
X25797449Y-28714094D01*
X25797449Y-28714094D02*
X26378020Y-29294666D01*
X26378020Y-29294666D02*
X26378020Y-28665713D01*
%TO.C,J5*%
X50080333Y-17234020D02*
X50080333Y-17959735D01*
X50080333Y-17959735D02*
X50031952Y-18104878D01*
X50031952Y-18104878D02*
X49935190Y-18201640D01*
X49935190Y-18201640D02*
X49790047Y-18250020D01*
X49790047Y-18250020D02*
X49693285Y-18250020D01*
X51047952Y-17234020D02*
X50564142Y-17234020D01*
X50564142Y-17234020D02*
X50515761Y-17717830D01*
X50515761Y-17717830D02*
X50564142Y-17669449D01*
X50564142Y-17669449D02*
X50660904Y-17621068D01*
X50660904Y-17621068D02*
X50902809Y-17621068D01*
X50902809Y-17621068D02*
X50999571Y-17669449D01*
X50999571Y-17669449D02*
X51047952Y-17717830D01*
X51047952Y-17717830D02*
X51096333Y-17814592D01*
X51096333Y-17814592D02*
X51096333Y-18056497D01*
X51096333Y-18056497D02*
X51047952Y-18153259D01*
X51047952Y-18153259D02*
X50999571Y-18201640D01*
X50999571Y-18201640D02*
X50902809Y-18250020D01*
X50902809Y-18250020D02*
X50660904Y-18250020D01*
X50660904Y-18250020D02*
X50564142Y-18201640D01*
X50564142Y-18201640D02*
X50515761Y-18153259D01*
%TO.C,C35*%
X33890857Y-16375259D02*
X33842476Y-16423640D01*
X33842476Y-16423640D02*
X33697333Y-16472020D01*
X33697333Y-16472020D02*
X33600571Y-16472020D01*
X33600571Y-16472020D02*
X33455428Y-16423640D01*
X33455428Y-16423640D02*
X33358666Y-16326878D01*
X33358666Y-16326878D02*
X33310285Y-16230116D01*
X33310285Y-16230116D02*
X33261904Y-16036592D01*
X33261904Y-16036592D02*
X33261904Y-15891449D01*
X33261904Y-15891449D02*
X33310285Y-15697925D01*
X33310285Y-15697925D02*
X33358666Y-15601163D01*
X33358666Y-15601163D02*
X33455428Y-15504401D01*
X33455428Y-15504401D02*
X33600571Y-15456020D01*
X33600571Y-15456020D02*
X33697333Y-15456020D01*
X33697333Y-15456020D02*
X33842476Y-15504401D01*
X33842476Y-15504401D02*
X33890857Y-15552782D01*
X34229523Y-15456020D02*
X34858476Y-15456020D01*
X34858476Y-15456020D02*
X34519809Y-15843068D01*
X34519809Y-15843068D02*
X34664952Y-15843068D01*
X34664952Y-15843068D02*
X34761714Y-15891449D01*
X34761714Y-15891449D02*
X34810095Y-15939830D01*
X34810095Y-15939830D02*
X34858476Y-16036592D01*
X34858476Y-16036592D02*
X34858476Y-16278497D01*
X34858476Y-16278497D02*
X34810095Y-16375259D01*
X34810095Y-16375259D02*
X34761714Y-16423640D01*
X34761714Y-16423640D02*
X34664952Y-16472020D01*
X34664952Y-16472020D02*
X34374666Y-16472020D01*
X34374666Y-16472020D02*
X34277904Y-16423640D01*
X34277904Y-16423640D02*
X34229523Y-16375259D01*
X35777714Y-15456020D02*
X35293904Y-15456020D01*
X35293904Y-15456020D02*
X35245523Y-15939830D01*
X35245523Y-15939830D02*
X35293904Y-15891449D01*
X35293904Y-15891449D02*
X35390666Y-15843068D01*
X35390666Y-15843068D02*
X35632571Y-15843068D01*
X35632571Y-15843068D02*
X35729333Y-15891449D01*
X35729333Y-15891449D02*
X35777714Y-15939830D01*
X35777714Y-15939830D02*
X35826095Y-16036592D01*
X35826095Y-16036592D02*
X35826095Y-16278497D01*
X35826095Y-16278497D02*
X35777714Y-16375259D01*
X35777714Y-16375259D02*
X35729333Y-16423640D01*
X35729333Y-16423640D02*
X35632571Y-16472020D01*
X35632571Y-16472020D02*
X35390666Y-16472020D01*
X35390666Y-16472020D02*
X35293904Y-16423640D01*
X35293904Y-16423640D02*
X35245523Y-16375259D01*
%TO.C,C41*%
X25011259Y-11067142D02*
X25059640Y-11115523D01*
X25059640Y-11115523D02*
X25108020Y-11260666D01*
X25108020Y-11260666D02*
X25108020Y-11357428D01*
X25108020Y-11357428D02*
X25059640Y-11502571D01*
X25059640Y-11502571D02*
X24962878Y-11599333D01*
X24962878Y-11599333D02*
X24866116Y-11647714D01*
X24866116Y-11647714D02*
X24672592Y-11696095D01*
X24672592Y-11696095D02*
X24527449Y-11696095D01*
X24527449Y-11696095D02*
X24333925Y-11647714D01*
X24333925Y-11647714D02*
X24237163Y-11599333D01*
X24237163Y-11599333D02*
X24140401Y-11502571D01*
X24140401Y-11502571D02*
X24092020Y-11357428D01*
X24092020Y-11357428D02*
X24092020Y-11260666D01*
X24092020Y-11260666D02*
X24140401Y-11115523D01*
X24140401Y-11115523D02*
X24188782Y-11067142D01*
X24430687Y-10196285D02*
X25108020Y-10196285D01*
X24043640Y-10438190D02*
X24769354Y-10680095D01*
X24769354Y-10680095D02*
X24769354Y-10051142D01*
X25108020Y-9131904D02*
X25108020Y-9712476D01*
X25108020Y-9422190D02*
X24092020Y-9422190D01*
X24092020Y-9422190D02*
X24237163Y-9518952D01*
X24237163Y-9518952D02*
X24333925Y-9615714D01*
X24333925Y-9615714D02*
X24382306Y-9712476D01*
%TO.C,H1*%
X495904Y-4026020D02*
X495904Y-3010020D01*
X495904Y-3493830D02*
X1076476Y-3493830D01*
X1076476Y-4026020D02*
X1076476Y-3010020D01*
X2092476Y-4026020D02*
X1511904Y-4026020D01*
X1802190Y-4026020D02*
X1802190Y-3010020D01*
X1802190Y-3010020D02*
X1705428Y-3155163D01*
X1705428Y-3155163D02*
X1608666Y-3251925D01*
X1608666Y-3251925D02*
X1511904Y-3300306D01*
%TO.C,R25*%
X11538857Y-8852020D02*
X11200190Y-8368211D01*
X10958285Y-8852020D02*
X10958285Y-7836020D01*
X10958285Y-7836020D02*
X11345333Y-7836020D01*
X11345333Y-7836020D02*
X11442095Y-7884401D01*
X11442095Y-7884401D02*
X11490476Y-7932782D01*
X11490476Y-7932782D02*
X11538857Y-8029544D01*
X11538857Y-8029544D02*
X11538857Y-8174687D01*
X11538857Y-8174687D02*
X11490476Y-8271449D01*
X11490476Y-8271449D02*
X11442095Y-8319830D01*
X11442095Y-8319830D02*
X11345333Y-8368211D01*
X11345333Y-8368211D02*
X10958285Y-8368211D01*
X11925904Y-7932782D02*
X11974285Y-7884401D01*
X11974285Y-7884401D02*
X12071047Y-7836020D01*
X12071047Y-7836020D02*
X12312952Y-7836020D01*
X12312952Y-7836020D02*
X12409714Y-7884401D01*
X12409714Y-7884401D02*
X12458095Y-7932782D01*
X12458095Y-7932782D02*
X12506476Y-8029544D01*
X12506476Y-8029544D02*
X12506476Y-8126306D01*
X12506476Y-8126306D02*
X12458095Y-8271449D01*
X12458095Y-8271449D02*
X11877523Y-8852020D01*
X11877523Y-8852020D02*
X12506476Y-8852020D01*
X13425714Y-7836020D02*
X12941904Y-7836020D01*
X12941904Y-7836020D02*
X12893523Y-8319830D01*
X12893523Y-8319830D02*
X12941904Y-8271449D01*
X12941904Y-8271449D02*
X13038666Y-8223068D01*
X13038666Y-8223068D02*
X13280571Y-8223068D01*
X13280571Y-8223068D02*
X13377333Y-8271449D01*
X13377333Y-8271449D02*
X13425714Y-8319830D01*
X13425714Y-8319830D02*
X13474095Y-8416592D01*
X13474095Y-8416592D02*
X13474095Y-8658497D01*
X13474095Y-8658497D02*
X13425714Y-8755259D01*
X13425714Y-8755259D02*
X13377333Y-8803640D01*
X13377333Y-8803640D02*
X13280571Y-8852020D01*
X13280571Y-8852020D02*
X13038666Y-8852020D01*
X13038666Y-8852020D02*
X12941904Y-8803640D01*
X12941904Y-8803640D02*
X12893523Y-8755259D01*
%TO.C,R1*%
X42380020Y-27347332D02*
X41896211Y-27685999D01*
X42380020Y-27927904D02*
X41364020Y-27927904D01*
X41364020Y-27927904D02*
X41364020Y-27540856D01*
X41364020Y-27540856D02*
X41412401Y-27444094D01*
X41412401Y-27444094D02*
X41460782Y-27395713D01*
X41460782Y-27395713D02*
X41557544Y-27347332D01*
X41557544Y-27347332D02*
X41702687Y-27347332D01*
X41702687Y-27347332D02*
X41799449Y-27395713D01*
X41799449Y-27395713D02*
X41847830Y-27444094D01*
X41847830Y-27444094D02*
X41896211Y-27540856D01*
X41896211Y-27540856D02*
X41896211Y-27927904D01*
X42380020Y-26379713D02*
X42380020Y-26960285D01*
X42380020Y-26669999D02*
X41364020Y-26669999D01*
X41364020Y-26669999D02*
X41509163Y-26766761D01*
X41509163Y-26766761D02*
X41605925Y-26863523D01*
X41605925Y-26863523D02*
X41654306Y-26960285D01*
%TO.C,R9*%
X17361020Y-38777332D02*
X16877211Y-39115999D01*
X17361020Y-39357904D02*
X16345020Y-39357904D01*
X16345020Y-39357904D02*
X16345020Y-38970856D01*
X16345020Y-38970856D02*
X16393401Y-38874094D01*
X16393401Y-38874094D02*
X16441782Y-38825713D01*
X16441782Y-38825713D02*
X16538544Y-38777332D01*
X16538544Y-38777332D02*
X16683687Y-38777332D01*
X16683687Y-38777332D02*
X16780449Y-38825713D01*
X16780449Y-38825713D02*
X16828830Y-38874094D01*
X16828830Y-38874094D02*
X16877211Y-38970856D01*
X16877211Y-38970856D02*
X16877211Y-39357904D01*
X17361020Y-38293523D02*
X17361020Y-38099999D01*
X17361020Y-38099999D02*
X17312640Y-38003237D01*
X17312640Y-38003237D02*
X17264259Y-37954856D01*
X17264259Y-37954856D02*
X17119116Y-37858094D01*
X17119116Y-37858094D02*
X16925592Y-37809713D01*
X16925592Y-37809713D02*
X16538544Y-37809713D01*
X16538544Y-37809713D02*
X16441782Y-37858094D01*
X16441782Y-37858094D02*
X16393401Y-37906475D01*
X16393401Y-37906475D02*
X16345020Y-38003237D01*
X16345020Y-38003237D02*
X16345020Y-38196761D01*
X16345020Y-38196761D02*
X16393401Y-38293523D01*
X16393401Y-38293523D02*
X16441782Y-38341904D01*
X16441782Y-38341904D02*
X16538544Y-38390285D01*
X16538544Y-38390285D02*
X16780449Y-38390285D01*
X16780449Y-38390285D02*
X16877211Y-38341904D01*
X16877211Y-38341904D02*
X16925592Y-38293523D01*
X16925592Y-38293523D02*
X16973973Y-38196761D01*
X16973973Y-38196761D02*
X16973973Y-38003237D01*
X16973973Y-38003237D02*
X16925592Y-37906475D01*
X16925592Y-37906475D02*
X16877211Y-37858094D01*
X16877211Y-37858094D02*
X16780449Y-37809713D01*
%TO.C,L1*%
X2446020Y-32681332D02*
X2446020Y-33165142D01*
X2446020Y-33165142D02*
X1430020Y-33165142D01*
X2446020Y-31810475D02*
X2446020Y-32391047D01*
X2446020Y-32100761D02*
X1430020Y-32100761D01*
X1430020Y-32100761D02*
X1575163Y-32197523D01*
X1575163Y-32197523D02*
X1671925Y-32294285D01*
X1671925Y-32294285D02*
X1720306Y-32391047D01*
%TO.C,H2*%
X59423904Y-3772020D02*
X59423904Y-2756020D01*
X59423904Y-3239830D02*
X60004476Y-3239830D01*
X60004476Y-3772020D02*
X60004476Y-2756020D01*
X60439904Y-2852782D02*
X60488285Y-2804401D01*
X60488285Y-2804401D02*
X60585047Y-2756020D01*
X60585047Y-2756020D02*
X60826952Y-2756020D01*
X60826952Y-2756020D02*
X60923714Y-2804401D01*
X60923714Y-2804401D02*
X60972095Y-2852782D01*
X60972095Y-2852782D02*
X61020476Y-2949544D01*
X61020476Y-2949544D02*
X61020476Y-3046306D01*
X61020476Y-3046306D02*
X60972095Y-3191449D01*
X60972095Y-3191449D02*
X60391523Y-3772020D01*
X60391523Y-3772020D02*
X61020476Y-3772020D01*
D10*
%TO.C,JP2*%
X14575619Y-31440333D02*
X15289904Y-31440333D01*
X15289904Y-31440333D02*
X15432761Y-31487952D01*
X15432761Y-31487952D02*
X15528000Y-31583190D01*
X15528000Y-31583190D02*
X15575619Y-31726047D01*
X15575619Y-31726047D02*
X15575619Y-31821285D01*
X15575619Y-30964142D02*
X14575619Y-30964142D01*
X14575619Y-30964142D02*
X14575619Y-30583190D01*
X14575619Y-30583190D02*
X14623238Y-30487952D01*
X14623238Y-30487952D02*
X14670857Y-30440333D01*
X14670857Y-30440333D02*
X14766095Y-30392714D01*
X14766095Y-30392714D02*
X14908952Y-30392714D01*
X14908952Y-30392714D02*
X15004190Y-30440333D01*
X15004190Y-30440333D02*
X15051809Y-30487952D01*
X15051809Y-30487952D02*
X15099428Y-30583190D01*
X15099428Y-30583190D02*
X15099428Y-30964142D01*
X14670857Y-30011761D02*
X14623238Y-29964142D01*
X14623238Y-29964142D02*
X14575619Y-29868904D01*
X14575619Y-29868904D02*
X14575619Y-29630809D01*
X14575619Y-29630809D02*
X14623238Y-29535571D01*
X14623238Y-29535571D02*
X14670857Y-29487952D01*
X14670857Y-29487952D02*
X14766095Y-29440333D01*
X14766095Y-29440333D02*
X14861333Y-29440333D01*
X14861333Y-29440333D02*
X15004190Y-29487952D01*
X15004190Y-29487952D02*
X15575619Y-30059380D01*
X15575619Y-30059380D02*
X15575619Y-29440333D01*
D11*
%TO.C,C33*%
X33890857Y-18915259D02*
X33842476Y-18963640D01*
X33842476Y-18963640D02*
X33697333Y-19012020D01*
X33697333Y-19012020D02*
X33600571Y-19012020D01*
X33600571Y-19012020D02*
X33455428Y-18963640D01*
X33455428Y-18963640D02*
X33358666Y-18866878D01*
X33358666Y-18866878D02*
X33310285Y-18770116D01*
X33310285Y-18770116D02*
X33261904Y-18576592D01*
X33261904Y-18576592D02*
X33261904Y-18431449D01*
X33261904Y-18431449D02*
X33310285Y-18237925D01*
X33310285Y-18237925D02*
X33358666Y-18141163D01*
X33358666Y-18141163D02*
X33455428Y-18044401D01*
X33455428Y-18044401D02*
X33600571Y-17996020D01*
X33600571Y-17996020D02*
X33697333Y-17996020D01*
X33697333Y-17996020D02*
X33842476Y-18044401D01*
X33842476Y-18044401D02*
X33890857Y-18092782D01*
X34229523Y-17996020D02*
X34858476Y-17996020D01*
X34858476Y-17996020D02*
X34519809Y-18383068D01*
X34519809Y-18383068D02*
X34664952Y-18383068D01*
X34664952Y-18383068D02*
X34761714Y-18431449D01*
X34761714Y-18431449D02*
X34810095Y-18479830D01*
X34810095Y-18479830D02*
X34858476Y-18576592D01*
X34858476Y-18576592D02*
X34858476Y-18818497D01*
X34858476Y-18818497D02*
X34810095Y-18915259D01*
X34810095Y-18915259D02*
X34761714Y-18963640D01*
X34761714Y-18963640D02*
X34664952Y-19012020D01*
X34664952Y-19012020D02*
X34374666Y-19012020D01*
X34374666Y-19012020D02*
X34277904Y-18963640D01*
X34277904Y-18963640D02*
X34229523Y-18915259D01*
X35197142Y-17996020D02*
X35826095Y-17996020D01*
X35826095Y-17996020D02*
X35487428Y-18383068D01*
X35487428Y-18383068D02*
X35632571Y-18383068D01*
X35632571Y-18383068D02*
X35729333Y-18431449D01*
X35729333Y-18431449D02*
X35777714Y-18479830D01*
X35777714Y-18479830D02*
X35826095Y-18576592D01*
X35826095Y-18576592D02*
X35826095Y-18818497D01*
X35826095Y-18818497D02*
X35777714Y-18915259D01*
X35777714Y-18915259D02*
X35729333Y-18963640D01*
X35729333Y-18963640D02*
X35632571Y-19012020D01*
X35632571Y-19012020D02*
X35342285Y-19012020D01*
X35342285Y-19012020D02*
X35245523Y-18963640D01*
X35245523Y-18963640D02*
X35197142Y-18915259D01*
%TO.C,C37*%
X33890857Y-13835259D02*
X33842476Y-13883640D01*
X33842476Y-13883640D02*
X33697333Y-13932020D01*
X33697333Y-13932020D02*
X33600571Y-13932020D01*
X33600571Y-13932020D02*
X33455428Y-13883640D01*
X33455428Y-13883640D02*
X33358666Y-13786878D01*
X33358666Y-13786878D02*
X33310285Y-13690116D01*
X33310285Y-13690116D02*
X33261904Y-13496592D01*
X33261904Y-13496592D02*
X33261904Y-13351449D01*
X33261904Y-13351449D02*
X33310285Y-13157925D01*
X33310285Y-13157925D02*
X33358666Y-13061163D01*
X33358666Y-13061163D02*
X33455428Y-12964401D01*
X33455428Y-12964401D02*
X33600571Y-12916020D01*
X33600571Y-12916020D02*
X33697333Y-12916020D01*
X33697333Y-12916020D02*
X33842476Y-12964401D01*
X33842476Y-12964401D02*
X33890857Y-13012782D01*
X34229523Y-12916020D02*
X34858476Y-12916020D01*
X34858476Y-12916020D02*
X34519809Y-13303068D01*
X34519809Y-13303068D02*
X34664952Y-13303068D01*
X34664952Y-13303068D02*
X34761714Y-13351449D01*
X34761714Y-13351449D02*
X34810095Y-13399830D01*
X34810095Y-13399830D02*
X34858476Y-13496592D01*
X34858476Y-13496592D02*
X34858476Y-13738497D01*
X34858476Y-13738497D02*
X34810095Y-13835259D01*
X34810095Y-13835259D02*
X34761714Y-13883640D01*
X34761714Y-13883640D02*
X34664952Y-13932020D01*
X34664952Y-13932020D02*
X34374666Y-13932020D01*
X34374666Y-13932020D02*
X34277904Y-13883640D01*
X34277904Y-13883640D02*
X34229523Y-13835259D01*
X35197142Y-12916020D02*
X35874476Y-12916020D01*
X35874476Y-12916020D02*
X35439047Y-13932020D01*
%TO.C,C60*%
X7220857Y-22725259D02*
X7172476Y-22773640D01*
X7172476Y-22773640D02*
X7027333Y-22822020D01*
X7027333Y-22822020D02*
X6930571Y-22822020D01*
X6930571Y-22822020D02*
X6785428Y-22773640D01*
X6785428Y-22773640D02*
X6688666Y-22676878D01*
X6688666Y-22676878D02*
X6640285Y-22580116D01*
X6640285Y-22580116D02*
X6591904Y-22386592D01*
X6591904Y-22386592D02*
X6591904Y-22241449D01*
X6591904Y-22241449D02*
X6640285Y-22047925D01*
X6640285Y-22047925D02*
X6688666Y-21951163D01*
X6688666Y-21951163D02*
X6785428Y-21854401D01*
X6785428Y-21854401D02*
X6930571Y-21806020D01*
X6930571Y-21806020D02*
X7027333Y-21806020D01*
X7027333Y-21806020D02*
X7172476Y-21854401D01*
X7172476Y-21854401D02*
X7220857Y-21902782D01*
X8091714Y-21806020D02*
X7898190Y-21806020D01*
X7898190Y-21806020D02*
X7801428Y-21854401D01*
X7801428Y-21854401D02*
X7753047Y-21902782D01*
X7753047Y-21902782D02*
X7656285Y-22047925D01*
X7656285Y-22047925D02*
X7607904Y-22241449D01*
X7607904Y-22241449D02*
X7607904Y-22628497D01*
X7607904Y-22628497D02*
X7656285Y-22725259D01*
X7656285Y-22725259D02*
X7704666Y-22773640D01*
X7704666Y-22773640D02*
X7801428Y-22822020D01*
X7801428Y-22822020D02*
X7994952Y-22822020D01*
X7994952Y-22822020D02*
X8091714Y-22773640D01*
X8091714Y-22773640D02*
X8140095Y-22725259D01*
X8140095Y-22725259D02*
X8188476Y-22628497D01*
X8188476Y-22628497D02*
X8188476Y-22386592D01*
X8188476Y-22386592D02*
X8140095Y-22289830D01*
X8140095Y-22289830D02*
X8091714Y-22241449D01*
X8091714Y-22241449D02*
X7994952Y-22193068D01*
X7994952Y-22193068D02*
X7801428Y-22193068D01*
X7801428Y-22193068D02*
X7704666Y-22241449D01*
X7704666Y-22241449D02*
X7656285Y-22289830D01*
X7656285Y-22289830D02*
X7607904Y-22386592D01*
X8817428Y-21806020D02*
X8914190Y-21806020D01*
X8914190Y-21806020D02*
X9010952Y-21854401D01*
X9010952Y-21854401D02*
X9059333Y-21902782D01*
X9059333Y-21902782D02*
X9107714Y-21999544D01*
X9107714Y-21999544D02*
X9156095Y-22193068D01*
X9156095Y-22193068D02*
X9156095Y-22434973D01*
X9156095Y-22434973D02*
X9107714Y-22628497D01*
X9107714Y-22628497D02*
X9059333Y-22725259D01*
X9059333Y-22725259D02*
X9010952Y-22773640D01*
X9010952Y-22773640D02*
X8914190Y-22822020D01*
X8914190Y-22822020D02*
X8817428Y-22822020D01*
X8817428Y-22822020D02*
X8720666Y-22773640D01*
X8720666Y-22773640D02*
X8672285Y-22725259D01*
X8672285Y-22725259D02*
X8623904Y-22628497D01*
X8623904Y-22628497D02*
X8575523Y-22434973D01*
X8575523Y-22434973D02*
X8575523Y-22193068D01*
X8575523Y-22193068D02*
X8623904Y-21999544D01*
X8623904Y-21999544D02*
X8672285Y-21902782D01*
X8672285Y-21902782D02*
X8720666Y-21854401D01*
X8720666Y-21854401D02*
X8817428Y-21806020D01*
%TO.C,J3*%
X31919333Y-29680020D02*
X31919333Y-30405735D01*
X31919333Y-30405735D02*
X31870952Y-30550878D01*
X31870952Y-30550878D02*
X31774190Y-30647640D01*
X31774190Y-30647640D02*
X31629047Y-30696020D01*
X31629047Y-30696020D02*
X31532285Y-30696020D01*
X32306380Y-29680020D02*
X32935333Y-29680020D01*
X32935333Y-29680020D02*
X32596666Y-30067068D01*
X32596666Y-30067068D02*
X32741809Y-30067068D01*
X32741809Y-30067068D02*
X32838571Y-30115449D01*
X32838571Y-30115449D02*
X32886952Y-30163830D01*
X32886952Y-30163830D02*
X32935333Y-30260592D01*
X32935333Y-30260592D02*
X32935333Y-30502497D01*
X32935333Y-30502497D02*
X32886952Y-30599259D01*
X32886952Y-30599259D02*
X32838571Y-30647640D01*
X32838571Y-30647640D02*
X32741809Y-30696020D01*
X32741809Y-30696020D02*
X32451523Y-30696020D01*
X32451523Y-30696020D02*
X32354761Y-30647640D01*
X32354761Y-30647640D02*
X32306380Y-30599259D01*
%TO.C,H3*%
X3035904Y-51778020D02*
X3035904Y-50762020D01*
X3035904Y-51245830D02*
X3616476Y-51245830D01*
X3616476Y-51778020D02*
X3616476Y-50762020D01*
X4003523Y-50762020D02*
X4632476Y-50762020D01*
X4632476Y-50762020D02*
X4293809Y-51149068D01*
X4293809Y-51149068D02*
X4438952Y-51149068D01*
X4438952Y-51149068D02*
X4535714Y-51197449D01*
X4535714Y-51197449D02*
X4584095Y-51245830D01*
X4584095Y-51245830D02*
X4632476Y-51342592D01*
X4632476Y-51342592D02*
X4632476Y-51584497D01*
X4632476Y-51584497D02*
X4584095Y-51681259D01*
X4584095Y-51681259D02*
X4535714Y-51729640D01*
X4535714Y-51729640D02*
X4438952Y-51778020D01*
X4438952Y-51778020D02*
X4148666Y-51778020D01*
X4148666Y-51778020D02*
X4051904Y-51729640D01*
X4051904Y-51729640D02*
X4003523Y-51681259D01*
%TO.C,R11*%
X40602020Y-25291142D02*
X40118211Y-25629809D01*
X40602020Y-25871714D02*
X39586020Y-25871714D01*
X39586020Y-25871714D02*
X39586020Y-25484666D01*
X39586020Y-25484666D02*
X39634401Y-25387904D01*
X39634401Y-25387904D02*
X39682782Y-25339523D01*
X39682782Y-25339523D02*
X39779544Y-25291142D01*
X39779544Y-25291142D02*
X39924687Y-25291142D01*
X39924687Y-25291142D02*
X40021449Y-25339523D01*
X40021449Y-25339523D02*
X40069830Y-25387904D01*
X40069830Y-25387904D02*
X40118211Y-25484666D01*
X40118211Y-25484666D02*
X40118211Y-25871714D01*
X40602020Y-24323523D02*
X40602020Y-24904095D01*
X40602020Y-24613809D02*
X39586020Y-24613809D01*
X39586020Y-24613809D02*
X39731163Y-24710571D01*
X39731163Y-24710571D02*
X39827925Y-24807333D01*
X39827925Y-24807333D02*
X39876306Y-24904095D01*
X40602020Y-23355904D02*
X40602020Y-23936476D01*
X40602020Y-23646190D02*
X39586020Y-23646190D01*
X39586020Y-23646190D02*
X39731163Y-23742952D01*
X39731163Y-23742952D02*
X39827925Y-23839714D01*
X39827925Y-23839714D02*
X39876306Y-23936476D01*
%TO.C,H4*%
X53454904Y-51905020D02*
X53454904Y-50889020D01*
X53454904Y-51372830D02*
X54035476Y-51372830D01*
X54035476Y-51905020D02*
X54035476Y-50889020D01*
X54954714Y-51227687D02*
X54954714Y-51905020D01*
X54712809Y-50840640D02*
X54470904Y-51566354D01*
X54470904Y-51566354D02*
X55099857Y-51566354D01*
%TO.C,C25*%
X27297259Y-27069142D02*
X27345640Y-27117523D01*
X27345640Y-27117523D02*
X27394020Y-27262666D01*
X27394020Y-27262666D02*
X27394020Y-27359428D01*
X27394020Y-27359428D02*
X27345640Y-27504571D01*
X27345640Y-27504571D02*
X27248878Y-27601333D01*
X27248878Y-27601333D02*
X27152116Y-27649714D01*
X27152116Y-27649714D02*
X26958592Y-27698095D01*
X26958592Y-27698095D02*
X26813449Y-27698095D01*
X26813449Y-27698095D02*
X26619925Y-27649714D01*
X26619925Y-27649714D02*
X26523163Y-27601333D01*
X26523163Y-27601333D02*
X26426401Y-27504571D01*
X26426401Y-27504571D02*
X26378020Y-27359428D01*
X26378020Y-27359428D02*
X26378020Y-27262666D01*
X26378020Y-27262666D02*
X26426401Y-27117523D01*
X26426401Y-27117523D02*
X26474782Y-27069142D01*
X26474782Y-26682095D02*
X26426401Y-26633714D01*
X26426401Y-26633714D02*
X26378020Y-26536952D01*
X26378020Y-26536952D02*
X26378020Y-26295047D01*
X26378020Y-26295047D02*
X26426401Y-26198285D01*
X26426401Y-26198285D02*
X26474782Y-26149904D01*
X26474782Y-26149904D02*
X26571544Y-26101523D01*
X26571544Y-26101523D02*
X26668306Y-26101523D01*
X26668306Y-26101523D02*
X26813449Y-26149904D01*
X26813449Y-26149904D02*
X27394020Y-26730476D01*
X27394020Y-26730476D02*
X27394020Y-26101523D01*
X26378020Y-25182285D02*
X26378020Y-25666095D01*
X26378020Y-25666095D02*
X26861830Y-25714476D01*
X26861830Y-25714476D02*
X26813449Y-25666095D01*
X26813449Y-25666095D02*
X26765068Y-25569333D01*
X26765068Y-25569333D02*
X26765068Y-25327428D01*
X26765068Y-25327428D02*
X26813449Y-25230666D01*
X26813449Y-25230666D02*
X26861830Y-25182285D01*
X26861830Y-25182285D02*
X26958592Y-25133904D01*
X26958592Y-25133904D02*
X27200497Y-25133904D01*
X27200497Y-25133904D02*
X27297259Y-25182285D01*
X27297259Y-25182285D02*
X27345640Y-25230666D01*
X27345640Y-25230666D02*
X27394020Y-25327428D01*
X27394020Y-25327428D02*
X27394020Y-25569333D01*
X27394020Y-25569333D02*
X27345640Y-25666095D01*
X27345640Y-25666095D02*
X27297259Y-25714476D01*
%TO.C,C6*%
X17102667Y-29075259D02*
X17054286Y-29123640D01*
X17054286Y-29123640D02*
X16909143Y-29172020D01*
X16909143Y-29172020D02*
X16812381Y-29172020D01*
X16812381Y-29172020D02*
X16667238Y-29123640D01*
X16667238Y-29123640D02*
X16570476Y-29026878D01*
X16570476Y-29026878D02*
X16522095Y-28930116D01*
X16522095Y-28930116D02*
X16473714Y-28736592D01*
X16473714Y-28736592D02*
X16473714Y-28591449D01*
X16473714Y-28591449D02*
X16522095Y-28397925D01*
X16522095Y-28397925D02*
X16570476Y-28301163D01*
X16570476Y-28301163D02*
X16667238Y-28204401D01*
X16667238Y-28204401D02*
X16812381Y-28156020D01*
X16812381Y-28156020D02*
X16909143Y-28156020D01*
X16909143Y-28156020D02*
X17054286Y-28204401D01*
X17054286Y-28204401D02*
X17102667Y-28252782D01*
X17973524Y-28156020D02*
X17780000Y-28156020D01*
X17780000Y-28156020D02*
X17683238Y-28204401D01*
X17683238Y-28204401D02*
X17634857Y-28252782D01*
X17634857Y-28252782D02*
X17538095Y-28397925D01*
X17538095Y-28397925D02*
X17489714Y-28591449D01*
X17489714Y-28591449D02*
X17489714Y-28978497D01*
X17489714Y-28978497D02*
X17538095Y-29075259D01*
X17538095Y-29075259D02*
X17586476Y-29123640D01*
X17586476Y-29123640D02*
X17683238Y-29172020D01*
X17683238Y-29172020D02*
X17876762Y-29172020D01*
X17876762Y-29172020D02*
X17973524Y-29123640D01*
X17973524Y-29123640D02*
X18021905Y-29075259D01*
X18021905Y-29075259D02*
X18070286Y-28978497D01*
X18070286Y-28978497D02*
X18070286Y-28736592D01*
X18070286Y-28736592D02*
X18021905Y-28639830D01*
X18021905Y-28639830D02*
X17973524Y-28591449D01*
X17973524Y-28591449D02*
X17876762Y-28543068D01*
X17876762Y-28543068D02*
X17683238Y-28543068D01*
X17683238Y-28543068D02*
X17586476Y-28591449D01*
X17586476Y-28591449D02*
X17538095Y-28639830D01*
X17538095Y-28639830D02*
X17489714Y-28736592D01*
%TO.C,D2*%
X3264020Y-6083904D02*
X2248020Y-6083904D01*
X2248020Y-6083904D02*
X2248020Y-5841999D01*
X2248020Y-5841999D02*
X2296401Y-5696856D01*
X2296401Y-5696856D02*
X2393163Y-5600094D01*
X2393163Y-5600094D02*
X2489925Y-5551713D01*
X2489925Y-5551713D02*
X2683449Y-5503332D01*
X2683449Y-5503332D02*
X2828592Y-5503332D01*
X2828592Y-5503332D02*
X3022116Y-5551713D01*
X3022116Y-5551713D02*
X3118878Y-5600094D01*
X3118878Y-5600094D02*
X3215640Y-5696856D01*
X3215640Y-5696856D02*
X3264020Y-5841999D01*
X3264020Y-5841999D02*
X3264020Y-6083904D01*
X2344782Y-5116285D02*
X2296401Y-5067904D01*
X2296401Y-5067904D02*
X2248020Y-4971142D01*
X2248020Y-4971142D02*
X2248020Y-4729237D01*
X2248020Y-4729237D02*
X2296401Y-4632475D01*
X2296401Y-4632475D02*
X2344782Y-4584094D01*
X2344782Y-4584094D02*
X2441544Y-4535713D01*
X2441544Y-4535713D02*
X2538306Y-4535713D01*
X2538306Y-4535713D02*
X2683449Y-4584094D01*
X2683449Y-4584094D02*
X3264020Y-5164666D01*
X3264020Y-5164666D02*
X3264020Y-4535713D01*
%TO.C,C4*%
X17102667Y-30599259D02*
X17054286Y-30647640D01*
X17054286Y-30647640D02*
X16909143Y-30696020D01*
X16909143Y-30696020D02*
X16812381Y-30696020D01*
X16812381Y-30696020D02*
X16667238Y-30647640D01*
X16667238Y-30647640D02*
X16570476Y-30550878D01*
X16570476Y-30550878D02*
X16522095Y-30454116D01*
X16522095Y-30454116D02*
X16473714Y-30260592D01*
X16473714Y-30260592D02*
X16473714Y-30115449D01*
X16473714Y-30115449D02*
X16522095Y-29921925D01*
X16522095Y-29921925D02*
X16570476Y-29825163D01*
X16570476Y-29825163D02*
X16667238Y-29728401D01*
X16667238Y-29728401D02*
X16812381Y-29680020D01*
X16812381Y-29680020D02*
X16909143Y-29680020D01*
X16909143Y-29680020D02*
X17054286Y-29728401D01*
X17054286Y-29728401D02*
X17102667Y-29776782D01*
X17973524Y-30018687D02*
X17973524Y-30696020D01*
X17731619Y-29631640D02*
X17489714Y-30357354D01*
X17489714Y-30357354D02*
X18118667Y-30357354D01*
%TO.C,C3*%
X34374667Y-30599259D02*
X34326286Y-30647640D01*
X34326286Y-30647640D02*
X34181143Y-30696020D01*
X34181143Y-30696020D02*
X34084381Y-30696020D01*
X34084381Y-30696020D02*
X33939238Y-30647640D01*
X33939238Y-30647640D02*
X33842476Y-30550878D01*
X33842476Y-30550878D02*
X33794095Y-30454116D01*
X33794095Y-30454116D02*
X33745714Y-30260592D01*
X33745714Y-30260592D02*
X33745714Y-30115449D01*
X33745714Y-30115449D02*
X33794095Y-29921925D01*
X33794095Y-29921925D02*
X33842476Y-29825163D01*
X33842476Y-29825163D02*
X33939238Y-29728401D01*
X33939238Y-29728401D02*
X34084381Y-29680020D01*
X34084381Y-29680020D02*
X34181143Y-29680020D01*
X34181143Y-29680020D02*
X34326286Y-29728401D01*
X34326286Y-29728401D02*
X34374667Y-29776782D01*
X34713333Y-29680020D02*
X35342286Y-29680020D01*
X35342286Y-29680020D02*
X35003619Y-30067068D01*
X35003619Y-30067068D02*
X35148762Y-30067068D01*
X35148762Y-30067068D02*
X35245524Y-30115449D01*
X35245524Y-30115449D02*
X35293905Y-30163830D01*
X35293905Y-30163830D02*
X35342286Y-30260592D01*
X35342286Y-30260592D02*
X35342286Y-30502497D01*
X35342286Y-30502497D02*
X35293905Y-30599259D01*
X35293905Y-30599259D02*
X35245524Y-30647640D01*
X35245524Y-30647640D02*
X35148762Y-30696020D01*
X35148762Y-30696020D02*
X34858476Y-30696020D01*
X34858476Y-30696020D02*
X34761714Y-30647640D01*
X34761714Y-30647640D02*
X34713333Y-30599259D01*
%TO.C,R34*%
X978020Y-30625142D02*
X494211Y-30963809D01*
X978020Y-31205714D02*
X-37980Y-31205714D01*
X-37980Y-31205714D02*
X-37980Y-30818666D01*
X-37980Y-30818666D02*
X10401Y-30721904D01*
X10401Y-30721904D02*
X58782Y-30673523D01*
X58782Y-30673523D02*
X155544Y-30625142D01*
X155544Y-30625142D02*
X300687Y-30625142D01*
X300687Y-30625142D02*
X397449Y-30673523D01*
X397449Y-30673523D02*
X445830Y-30721904D01*
X445830Y-30721904D02*
X494211Y-30818666D01*
X494211Y-30818666D02*
X494211Y-31205714D01*
X-37980Y-30286476D02*
X-37980Y-29657523D01*
X-37980Y-29657523D02*
X349068Y-29996190D01*
X349068Y-29996190D02*
X349068Y-29851047D01*
X349068Y-29851047D02*
X397449Y-29754285D01*
X397449Y-29754285D02*
X445830Y-29705904D01*
X445830Y-29705904D02*
X542592Y-29657523D01*
X542592Y-29657523D02*
X784497Y-29657523D01*
X784497Y-29657523D02*
X881259Y-29705904D01*
X881259Y-29705904D02*
X929640Y-29754285D01*
X929640Y-29754285D02*
X978020Y-29851047D01*
X978020Y-29851047D02*
X978020Y-30141333D01*
X978020Y-30141333D02*
X929640Y-30238095D01*
X929640Y-30238095D02*
X881259Y-30286476D01*
X300687Y-28786666D02*
X978020Y-28786666D01*
X-86360Y-29028571D02*
X639354Y-29270476D01*
X639354Y-29270476D02*
X639354Y-28641523D01*
%TO.C,C59*%
X13824857Y-25773259D02*
X13776476Y-25821640D01*
X13776476Y-25821640D02*
X13631333Y-25870020D01*
X13631333Y-25870020D02*
X13534571Y-25870020D01*
X13534571Y-25870020D02*
X13389428Y-25821640D01*
X13389428Y-25821640D02*
X13292666Y-25724878D01*
X13292666Y-25724878D02*
X13244285Y-25628116D01*
X13244285Y-25628116D02*
X13195904Y-25434592D01*
X13195904Y-25434592D02*
X13195904Y-25289449D01*
X13195904Y-25289449D02*
X13244285Y-25095925D01*
X13244285Y-25095925D02*
X13292666Y-24999163D01*
X13292666Y-24999163D02*
X13389428Y-24902401D01*
X13389428Y-24902401D02*
X13534571Y-24854020D01*
X13534571Y-24854020D02*
X13631333Y-24854020D01*
X13631333Y-24854020D02*
X13776476Y-24902401D01*
X13776476Y-24902401D02*
X13824857Y-24950782D01*
X14744095Y-24854020D02*
X14260285Y-24854020D01*
X14260285Y-24854020D02*
X14211904Y-25337830D01*
X14211904Y-25337830D02*
X14260285Y-25289449D01*
X14260285Y-25289449D02*
X14357047Y-25241068D01*
X14357047Y-25241068D02*
X14598952Y-25241068D01*
X14598952Y-25241068D02*
X14695714Y-25289449D01*
X14695714Y-25289449D02*
X14744095Y-25337830D01*
X14744095Y-25337830D02*
X14792476Y-25434592D01*
X14792476Y-25434592D02*
X14792476Y-25676497D01*
X14792476Y-25676497D02*
X14744095Y-25773259D01*
X14744095Y-25773259D02*
X14695714Y-25821640D01*
X14695714Y-25821640D02*
X14598952Y-25870020D01*
X14598952Y-25870020D02*
X14357047Y-25870020D01*
X14357047Y-25870020D02*
X14260285Y-25821640D01*
X14260285Y-25821640D02*
X14211904Y-25773259D01*
X15276285Y-25870020D02*
X15469809Y-25870020D01*
X15469809Y-25870020D02*
X15566571Y-25821640D01*
X15566571Y-25821640D02*
X15614952Y-25773259D01*
X15614952Y-25773259D02*
X15711714Y-25628116D01*
X15711714Y-25628116D02*
X15760095Y-25434592D01*
X15760095Y-25434592D02*
X15760095Y-25047544D01*
X15760095Y-25047544D02*
X15711714Y-24950782D01*
X15711714Y-24950782D02*
X15663333Y-24902401D01*
X15663333Y-24902401D02*
X15566571Y-24854020D01*
X15566571Y-24854020D02*
X15373047Y-24854020D01*
X15373047Y-24854020D02*
X15276285Y-24902401D01*
X15276285Y-24902401D02*
X15227904Y-24950782D01*
X15227904Y-24950782D02*
X15179523Y-25047544D01*
X15179523Y-25047544D02*
X15179523Y-25289449D01*
X15179523Y-25289449D02*
X15227904Y-25386211D01*
X15227904Y-25386211D02*
X15276285Y-25434592D01*
X15276285Y-25434592D02*
X15373047Y-25482973D01*
X15373047Y-25482973D02*
X15566571Y-25482973D01*
X15566571Y-25482973D02*
X15663333Y-25434592D01*
X15663333Y-25434592D02*
X15711714Y-25386211D01*
X15711714Y-25386211D02*
X15760095Y-25289449D01*
%TO.C,J8*%
X50080333Y-3264020D02*
X50080333Y-3989735D01*
X50080333Y-3989735D02*
X50031952Y-4134878D01*
X50031952Y-4134878D02*
X49935190Y-4231640D01*
X49935190Y-4231640D02*
X49790047Y-4280020D01*
X49790047Y-4280020D02*
X49693285Y-4280020D01*
X50709285Y-3699449D02*
X50612523Y-3651068D01*
X50612523Y-3651068D02*
X50564142Y-3602687D01*
X50564142Y-3602687D02*
X50515761Y-3505925D01*
X50515761Y-3505925D02*
X50515761Y-3457544D01*
X50515761Y-3457544D02*
X50564142Y-3360782D01*
X50564142Y-3360782D02*
X50612523Y-3312401D01*
X50612523Y-3312401D02*
X50709285Y-3264020D01*
X50709285Y-3264020D02*
X50902809Y-3264020D01*
X50902809Y-3264020D02*
X50999571Y-3312401D01*
X50999571Y-3312401D02*
X51047952Y-3360782D01*
X51047952Y-3360782D02*
X51096333Y-3457544D01*
X51096333Y-3457544D02*
X51096333Y-3505925D01*
X51096333Y-3505925D02*
X51047952Y-3602687D01*
X51047952Y-3602687D02*
X50999571Y-3651068D01*
X50999571Y-3651068D02*
X50902809Y-3699449D01*
X50902809Y-3699449D02*
X50709285Y-3699449D01*
X50709285Y-3699449D02*
X50612523Y-3747830D01*
X50612523Y-3747830D02*
X50564142Y-3796211D01*
X50564142Y-3796211D02*
X50515761Y-3892973D01*
X50515761Y-3892973D02*
X50515761Y-4086497D01*
X50515761Y-4086497D02*
X50564142Y-4183259D01*
X50564142Y-4183259D02*
X50612523Y-4231640D01*
X50612523Y-4231640D02*
X50709285Y-4280020D01*
X50709285Y-4280020D02*
X50902809Y-4280020D01*
X50902809Y-4280020D02*
X50999571Y-4231640D01*
X50999571Y-4231640D02*
X51047952Y-4183259D01*
X51047952Y-4183259D02*
X51096333Y-4086497D01*
X51096333Y-4086497D02*
X51096333Y-3892973D01*
X51096333Y-3892973D02*
X51047952Y-3796211D01*
X51047952Y-3796211D02*
X50999571Y-3747830D01*
X50999571Y-3747830D02*
X50902809Y-3699449D01*
D12*
%TO.C,C24*%
X25506000Y-23768164D02*
X25506000Y-23983836D01*
X24786000Y-23768164D02*
X24786000Y-23983836D01*
%TO.C,C62*%
X8234000Y-19761252D02*
X8234000Y-18338748D01*
X10054000Y-19761252D02*
X10054000Y-18338748D01*
%TO.C,C64*%
X10520000Y-19761252D02*
X10520000Y-18338748D01*
X12340000Y-19761252D02*
X12340000Y-18338748D01*
%TO.C,SW1*%
X4352936Y-7472000D02*
X5807064Y-7472000D01*
X4352936Y-9292000D02*
X5807064Y-9292000D01*
%TO.C,R12*%
X14971500Y-44878258D02*
X14971500Y-44403742D01*
X16016500Y-44878258D02*
X16016500Y-44403742D01*
%TO.C,R10*%
X40879500Y-14461258D02*
X40879500Y-13986742D01*
X41924500Y-14461258D02*
X41924500Y-13986742D01*
%TO.C,C46*%
X20935836Y-15981000D02*
X20720164Y-15981000D01*
X20935836Y-15261000D02*
X20720164Y-15261000D01*
%TO.C,U3*%
X5002000Y-27764000D02*
X5002000Y-27064000D01*
X5702000Y-23544000D02*
X5002000Y-23544000D01*
X5702000Y-27764000D02*
X5002000Y-27764000D01*
X8522000Y-23544000D02*
X9222000Y-23544000D01*
X8522000Y-27764000D02*
X9222000Y-27764000D01*
X9222000Y-23544000D02*
X9222000Y-24244000D01*
X9222000Y-27764000D02*
X9222000Y-27064000D01*
%TO.C,C14*%
X15232748Y-11584000D02*
X15755252Y-11584000D01*
X15232748Y-13054000D02*
X15755252Y-13054000D01*
%TO.C,U4*%
X7216000Y-9930000D02*
X7216000Y-11930000D01*
X4976000Y-11930000D02*
X4976000Y-10930000D01*
%TO.C,C63*%
X4545000Y-11168748D02*
X4545000Y-11691252D01*
X3075000Y-11168748D02*
X3075000Y-11691252D01*
%TO.C,R4*%
X21575500Y-29701258D02*
X21575500Y-29226742D01*
X22620500Y-29701258D02*
X22620500Y-29226742D01*
%TO.C,C1*%
X44960000Y-29323420D02*
X44960000Y-29604580D01*
X43940000Y-29323420D02*
X43940000Y-29604580D01*
%TO.C,C29*%
X31602000Y-23768164D02*
X31602000Y-23983836D01*
X30882000Y-23768164D02*
X30882000Y-23983836D01*
%TO.C,C42*%
X22754000Y-13315836D02*
X22754000Y-13100164D01*
X23474000Y-13315836D02*
X23474000Y-13100164D01*
%TO.C,J6*%
X61511993Y-30540000D02*
X61511993Y-20260000D01*
X61511993Y-30540000D02*
X54589993Y-30540000D01*
X61511993Y-27940000D02*
X54589993Y-27940000D01*
X61511993Y-25400000D02*
X54589993Y-25400000D01*
X61511993Y-22860000D02*
X54589993Y-22860000D01*
X61511993Y-20260000D02*
X54589993Y-20260000D01*
X54589993Y-30540000D02*
X54589993Y-20260000D01*
X54589993Y-29570000D02*
X54239993Y-29570000D01*
X54589993Y-28850000D02*
X54239993Y-28850000D01*
X54589993Y-27030000D02*
X54179993Y-27030000D01*
X54589993Y-26310000D02*
X54179993Y-26310000D01*
X54589993Y-24490000D02*
X54179993Y-24490000D01*
X54589993Y-23770000D02*
X54179993Y-23770000D01*
X54589993Y-21950000D02*
X54179993Y-21950000D01*
X54589993Y-21230000D02*
X54179993Y-21230000D01*
X53129993Y-30540000D02*
X52019993Y-30540000D01*
X52019993Y-30540000D02*
X52019993Y-29210000D01*
%TO.C,C11*%
X45161252Y-13610000D02*
X43738748Y-13610000D01*
X45161252Y-11790000D02*
X43738748Y-11790000D01*
%TO.C,C12*%
X45161252Y-24024000D02*
X43738748Y-24024000D01*
X45161252Y-22204000D02*
X43738748Y-22204000D01*
%TO.C,R24*%
X34304500Y-26432742D02*
X34304500Y-26907258D01*
X33259500Y-26432742D02*
X33259500Y-26907258D01*
%TO.C,J2*%
X-2059998Y-4190002D02*
X-999998Y-4190002D01*
X-2059998Y-5250002D02*
X-2059998Y-4190002D01*
X-2059998Y-6250002D02*
X-2059998Y-12310002D01*
X-2059998Y-6250002D02*
X2Y-6250002D01*
X-2059998Y-12310002D02*
X2060002Y-12310002D01*
X2Y-4190002D02*
X2060002Y-4190002D01*
X2Y-6250002D02*
X2Y-4190002D01*
X2060002Y-4190002D02*
X2060002Y-12310002D01*
%TO.C,R30*%
X12714500Y-22876742D02*
X12714500Y-23351258D01*
X11669500Y-22876742D02*
X11669500Y-23351258D01*
%TO.C,C32*%
X31388164Y-19198000D02*
X31603836Y-19198000D01*
X31388164Y-19918000D02*
X31603836Y-19918000D01*
%TO.C,C22*%
X23474000Y-23768164D02*
X23474000Y-23983836D01*
X22754000Y-23768164D02*
X22754000Y-23983836D01*
%TO.C,C49*%
X8882748Y-3329000D02*
X9405252Y-3329000D01*
X8882748Y-4799000D02*
X9405252Y-4799000D01*
%TO.C,C53*%
X12340000Y-31038748D02*
X12340000Y-32461252D01*
X10520000Y-31038748D02*
X10520000Y-32461252D01*
%TO.C,C16*%
X20935836Y-19918000D02*
X20720164Y-19918000D01*
X20935836Y-19198000D02*
X20720164Y-19198000D01*
%TO.C,C61*%
X3450000Y-26777836D02*
X3450000Y-26562164D01*
X4170000Y-26777836D02*
X4170000Y-26562164D01*
%TO.C,C20*%
X21442000Y-23768164D02*
X21442000Y-23983836D01*
X20722000Y-23768164D02*
X20722000Y-23983836D01*
%TO.C,L3*%
X5026000Y-16840000D02*
X4626000Y-16840000D01*
X5026000Y-13640000D02*
X4626000Y-13640000D01*
%TO.C,C27*%
X29570000Y-23768164D02*
X29570000Y-23983836D01*
X28850000Y-23768164D02*
X28850000Y-23983836D01*
%TO.C,R13*%
X41924500Y-10938742D02*
X41924500Y-11413258D01*
X40879500Y-10938742D02*
X40879500Y-11413258D01*
%TO.C,R27*%
X10145500Y-27923258D02*
X10145500Y-27448742D01*
X11190500Y-27923258D02*
X11190500Y-27448742D01*
%TO.C,C17*%
X20935836Y-20934000D02*
X20720164Y-20934000D01*
X20935836Y-20214000D02*
X20720164Y-20214000D01*
%TO.C,C50*%
X49383836Y-6202000D02*
X49168164Y-6202000D01*
X49383836Y-5482000D02*
X49168164Y-5482000D01*
%TO.C,C30*%
X31388164Y-21205997D02*
X31603836Y-21205997D01*
X31388164Y-21925997D02*
X31603836Y-21925997D01*
%TO.C,J9*%
X-3219000Y-24511000D02*
X-3219000Y-26571000D01*
X-3219000Y-24511000D02*
X-1099000Y-24511000D01*
X-3219000Y-26571000D02*
X-1099000Y-26571000D01*
X-2159000Y-22451000D02*
X-1099000Y-22451000D01*
X-1099000Y-22451000D02*
X-1099000Y-23511000D01*
X-1099000Y-24511000D02*
X-1099000Y-26571000D01*
%TO.C,R31*%
X10145500Y-23351258D02*
X10145500Y-22876742D01*
X11190500Y-23351258D02*
X11190500Y-22876742D01*
%TO.C,C43*%
X21738000Y-13315836D02*
X21738000Y-13100164D01*
X22458000Y-13315836D02*
X22458000Y-13100164D01*
%TO.C,C52*%
X10090000Y-31038748D02*
X10090000Y-32461252D01*
X8270000Y-31038748D02*
X8270000Y-32461252D01*
%TO.C,C23*%
X24490000Y-23768164D02*
X24490000Y-23983836D01*
X23770000Y-23768164D02*
X23770000Y-23983836D01*
%TO.C,C36*%
X31388164Y-15134000D02*
X31603836Y-15134000D01*
X31388164Y-15854000D02*
X31603836Y-15854000D01*
%TO.C,L2*%
X2726000Y-20053000D02*
X2726000Y-19063000D01*
X6926000Y-20053000D02*
X6926000Y-19063000D01*
%TO.C,C34*%
X31388164Y-17166000D02*
X31603836Y-17166000D01*
X31388164Y-17886000D02*
X31603836Y-17886000D01*
%TO.C,C15*%
X15232748Y-16537000D02*
X15755252Y-16537000D01*
X15232748Y-18007000D02*
X15755252Y-18007000D01*
%TO.C,G\u002A\u002A\u002A*%
G36*
X56939541Y-42349153D02*
G01*
X56929919Y-42358774D01*
X56920298Y-42349153D01*
X56929919Y-42339532D01*
X56939541Y-42349153D01*
G37*
G36*
X56913884Y-42461401D02*
G01*
X56916187Y-42484237D01*
X56913884Y-42487057D01*
X56902444Y-42484416D01*
X56901056Y-42474229D01*
X56908096Y-42458390D01*
X56913884Y-42461401D01*
G37*
G36*
X56952369Y-42230492D02*
G01*
X56954672Y-42253328D01*
X56952369Y-42256148D01*
X56940929Y-42253507D01*
X56939541Y-42243320D01*
X56946581Y-42227481D01*
X56952369Y-42230492D01*
G37*
G36*
X56971611Y-42153522D02*
G01*
X56973914Y-42176358D01*
X56971611Y-42179178D01*
X56960172Y-42176537D01*
X56958783Y-42166350D01*
X56965824Y-42150511D01*
X56971611Y-42153522D01*
G37*
G36*
X59599806Y-40152394D02*
G01*
X59602223Y-40159417D01*
X59575753Y-40162100D01*
X59548436Y-40159076D01*
X59551700Y-40152394D01*
X59591096Y-40149853D01*
X59599806Y-40152394D01*
G37*
G36*
X61262672Y-39267158D02*
G01*
X61260031Y-39278598D01*
X61249844Y-39279987D01*
X61234005Y-39272946D01*
X61237015Y-39267158D01*
X61259852Y-39264855D01*
X61262672Y-39267158D01*
G37*
G36*
X58203504Y-41043477D02*
G01*
X58199919Y-41050290D01*
X58181789Y-41068666D01*
X58178406Y-41069532D01*
X58177093Y-41057102D01*
X58180677Y-41050290D01*
X58198807Y-41031913D01*
X58202191Y-41031047D01*
X58203504Y-41043477D01*
G37*
G36*
X56112117Y-35468503D02*
G01*
X56075895Y-35495297D01*
X56029320Y-35526693D01*
X55966811Y-35567566D01*
X55910180Y-35604848D01*
X55881207Y-35624104D01*
X55829931Y-35656651D01*
X55767891Y-35693395D01*
X55702852Y-35730116D01*
X55642576Y-35762593D01*
X55594829Y-35786605D01*
X55567374Y-35797932D01*
X55564081Y-35796502D01*
X55587667Y-35774000D01*
X55635993Y-35738352D01*
X55702482Y-35693558D01*
X55780554Y-35643618D01*
X55863630Y-35592529D01*
X55945132Y-35544290D01*
X56018479Y-35502901D01*
X56077093Y-35472361D01*
X56114395Y-35456668D01*
X56123974Y-35456188D01*
X56112117Y-35468503D01*
G37*
G36*
X56933406Y-33157306D02*
G01*
X56970711Y-33195048D01*
X57015631Y-33247487D01*
X57098999Y-33366638D01*
X57173934Y-33509008D01*
X57233053Y-33659346D01*
X57258163Y-33748321D01*
X57269603Y-33819448D01*
X57277373Y-33913068D01*
X57281495Y-34019674D01*
X57281987Y-34129761D01*
X57278869Y-34233824D01*
X57272161Y-34322357D01*
X57261883Y-34385853D01*
X57256809Y-34402032D01*
X57249498Y-34424749D01*
X57259181Y-34422772D01*
X57290889Y-34395328D01*
X57354418Y-34313639D01*
X57403155Y-34199550D01*
X57436338Y-34056496D01*
X57453204Y-33887915D01*
X57452989Y-33697242D01*
X57451678Y-33671208D01*
X57445642Y-33574908D01*
X57438964Y-33487592D01*
X57432491Y-33419358D01*
X57427457Y-33382183D01*
X57416136Y-33324456D01*
X57464800Y-33372562D01*
X57513198Y-33427445D01*
X57573606Y-33506194D01*
X57639313Y-33599054D01*
X57703609Y-33696267D01*
X57759783Y-33788076D01*
X57795653Y-33853623D01*
X57832713Y-33934393D01*
X57872689Y-34032716D01*
X57907755Y-34129189D01*
X57912093Y-34142259D01*
X57935643Y-34219110D01*
X57951177Y-34285861D01*
X57960313Y-34354667D01*
X57964668Y-34437684D01*
X57965859Y-34546350D01*
X57964185Y-34667793D01*
X57958363Y-34757949D01*
X57947714Y-34823857D01*
X57935267Y-34863850D01*
X57916631Y-34903693D01*
X57904541Y-34917106D01*
X57902346Y-34911956D01*
X57891037Y-34823411D01*
X57870205Y-34719479D01*
X57843515Y-34615158D01*
X57814630Y-34525447D01*
X57798299Y-34485987D01*
X57766326Y-34426873D01*
X57726555Y-34365057D01*
X57684829Y-34308140D01*
X57646990Y-34263723D01*
X57618880Y-34239409D01*
X57608075Y-34238471D01*
X57595855Y-34258803D01*
X57570576Y-34305088D01*
X57536729Y-34369028D01*
X57519547Y-34402032D01*
X57404103Y-34595018D01*
X57265226Y-34777346D01*
X57110214Y-34940777D01*
X56946363Y-35077072D01*
X56884089Y-35119531D01*
X56844007Y-35141464D01*
X56778390Y-35173279D01*
X56694079Y-35212041D01*
X56597919Y-35254815D01*
X56496752Y-35298664D01*
X56397423Y-35340654D01*
X56306774Y-35377847D01*
X56231649Y-35407309D01*
X56178891Y-35426105D01*
X56156849Y-35431502D01*
X56167546Y-35420066D01*
X56202399Y-35388979D01*
X56255872Y-35343074D01*
X56318242Y-35290666D01*
X56533123Y-35090156D01*
X56713426Y-34875651D01*
X56858461Y-34648179D01*
X56967536Y-34408768D01*
X57018598Y-34248093D01*
X57055065Y-34046309D01*
X57063419Y-33830018D01*
X57044496Y-33610073D01*
X56999130Y-33397325D01*
X56940248Y-33229895D01*
X56919111Y-33174949D01*
X56916518Y-33150679D01*
X56933406Y-33157306D01*
G37*
G36*
X57557340Y-35023975D02*
G01*
X57573671Y-35098217D01*
X57573259Y-35177908D01*
X57554724Y-35268871D01*
X57516687Y-35376931D01*
X57457769Y-35507913D01*
X57428968Y-35566199D01*
X57359150Y-35698843D01*
X57297426Y-35802223D01*
X57239283Y-35883431D01*
X57194120Y-35935311D01*
X57090111Y-36044650D01*
X57168774Y-36094307D01*
X57302248Y-36156404D01*
X57460913Y-36190722D01*
X57643487Y-36197418D01*
X57848688Y-36176645D01*
X58075234Y-36128558D01*
X58321843Y-36053312D01*
X58587233Y-35951063D01*
X58677083Y-35912147D01*
X58755016Y-35878831D01*
X58815844Y-35855383D01*
X58853731Y-35843857D01*
X58862842Y-35846308D01*
X58862391Y-35846891D01*
X58826174Y-35879743D01*
X58762029Y-35927027D01*
X58675968Y-35985029D01*
X58574004Y-36050036D01*
X58462148Y-36118336D01*
X58346413Y-36186215D01*
X58232809Y-36249962D01*
X58127350Y-36305862D01*
X58084465Y-36327316D01*
X57773115Y-36465949D01*
X57468364Y-36574656D01*
X57175381Y-36651647D01*
X57108222Y-36665052D01*
X56991628Y-36690385D01*
X56848250Y-36727114D01*
X56687098Y-36772506D01*
X56517183Y-36823826D01*
X56347517Y-36878339D01*
X56187111Y-36933309D01*
X56044976Y-36986003D01*
X56025525Y-36993645D01*
X55763573Y-37104974D01*
X55526534Y-37220998D01*
X55317488Y-37339913D01*
X55139512Y-37459916D01*
X54995682Y-37579206D01*
X54952075Y-37622445D01*
X54860823Y-37730256D01*
X54804614Y-37828721D01*
X54783522Y-37922456D01*
X54797618Y-38016081D01*
X54846973Y-38114213D01*
X54931659Y-38221471D01*
X54961875Y-38253938D01*
X55072072Y-38355150D01*
X55215384Y-38464275D01*
X55387830Y-38578978D01*
X55585428Y-38696926D01*
X55804197Y-38815783D01*
X56040158Y-38933215D01*
X56289329Y-39046887D01*
X56381510Y-39086444D01*
X56480240Y-39128176D01*
X56568747Y-39165716D01*
X56639897Y-39196027D01*
X56686551Y-39216071D01*
X56699010Y-39221542D01*
X56701535Y-39229595D01*
X56669625Y-39234714D01*
X56607228Y-39236822D01*
X56518287Y-39235845D01*
X56406748Y-39231705D01*
X56343025Y-39228385D01*
X56226337Y-39219853D01*
X56083414Y-39206455D01*
X55926004Y-39189550D01*
X55765850Y-39170493D01*
X55614697Y-39150642D01*
X55484292Y-39131353D01*
X55441184Y-39124205D01*
X55099574Y-39055089D01*
X54792461Y-38971588D01*
X54518454Y-38873215D01*
X54276160Y-38759482D01*
X54100119Y-38654386D01*
X53926524Y-38520623D01*
X53789401Y-38374678D01*
X53688746Y-38216646D01*
X53624556Y-38046619D01*
X53596830Y-37864693D01*
X53605562Y-37670962D01*
X53650752Y-37465519D01*
X53732396Y-37248459D01*
X53850490Y-37019876D01*
X54005033Y-36779864D01*
X54165155Y-36566805D01*
X54215888Y-36505666D01*
X54280151Y-36431865D01*
X54353590Y-36350008D01*
X54431854Y-36264703D01*
X54510588Y-36180556D01*
X54585439Y-36102176D01*
X54652055Y-36034168D01*
X54706083Y-35981140D01*
X54743169Y-35947698D01*
X54758911Y-35938398D01*
X54756360Y-35958338D01*
X54744244Y-36006980D01*
X54724668Y-36076353D01*
X54706831Y-36135651D01*
X54655496Y-36307013D01*
X54616947Y-36445988D01*
X54591232Y-36552056D01*
X54578402Y-36624691D01*
X54578504Y-36663371D01*
X54591588Y-36667573D01*
X54617703Y-36636774D01*
X54656898Y-36570449D01*
X54668085Y-36549513D01*
X54758429Y-36403669D01*
X54869439Y-36272346D01*
X55003732Y-36153956D01*
X55163925Y-36046914D01*
X55352635Y-35949633D01*
X55572481Y-35860526D01*
X55826078Y-35778006D01*
X56035543Y-35720626D01*
X56223945Y-35671088D01*
X56382766Y-35626023D01*
X56520204Y-35582565D01*
X56644457Y-35537852D01*
X56763723Y-35489020D01*
X56886201Y-35433206D01*
X56958279Y-35398308D01*
X57065482Y-35344431D01*
X57147020Y-35299779D01*
X57212375Y-35257902D01*
X57271030Y-35212351D01*
X57332470Y-35156678D01*
X57376425Y-35113947D01*
X57535302Y-34957201D01*
X57557340Y-35023975D01*
G37*
G36*
X56816628Y-38395047D02*
G01*
X57119939Y-38395047D01*
X57125280Y-38477931D01*
X57141710Y-38578293D01*
X57167277Y-38687150D01*
X57200031Y-38795517D01*
X57238020Y-38894412D01*
X57257247Y-38935300D01*
X57287410Y-38987944D01*
X57318785Y-39032476D01*
X57344267Y-39059662D01*
X57355444Y-39062922D01*
X57352144Y-39043503D01*
X57338203Y-38997561D01*
X57316529Y-38934592D01*
X57313854Y-38927188D01*
X57283896Y-38839255D01*
X57272300Y-38801071D01*
X58199919Y-38801071D01*
X58288786Y-38788572D01*
X58387126Y-38790221D01*
X58467539Y-38825812D01*
X58531192Y-38895875D01*
X58533456Y-38899482D01*
X58604377Y-38990865D01*
X58685436Y-39056339D01*
X58748329Y-39084312D01*
X58817467Y-39101360D01*
X58854643Y-39103979D01*
X58863783Y-39095408D01*
X58853046Y-39073885D01*
X58827026Y-39037294D01*
X58825252Y-39035026D01*
X58799263Y-38989650D01*
X58769952Y-38920557D01*
X58742127Y-38841631D01*
X58720598Y-38766757D01*
X58710173Y-38709817D01*
X58709844Y-38701822D01*
X58720213Y-38661989D01*
X58747113Y-38653722D01*
X58784237Y-38677614D01*
X58798338Y-38693508D01*
X58829035Y-38744023D01*
X58860118Y-38814431D01*
X58887724Y-38892959D01*
X58907994Y-38967831D01*
X58917066Y-39027273D01*
X58915489Y-39050781D01*
X58911889Y-39074927D01*
X58923801Y-39084733D01*
X58959936Y-39083232D01*
X58994950Y-39078444D01*
X59054246Y-39065645D01*
X59099187Y-39048567D01*
X59110136Y-39041077D01*
X59123770Y-39015642D01*
X59141551Y-38967433D01*
X59159984Y-38908404D01*
X59175571Y-38850513D01*
X59184816Y-38805715D01*
X59184649Y-38786275D01*
X59163059Y-38776028D01*
X59113580Y-38756778D01*
X59044875Y-38731569D01*
X58965606Y-38703444D01*
X58884436Y-38675445D01*
X58810028Y-38650616D01*
X58751044Y-38632000D01*
X58723424Y-38624258D01*
X58590384Y-38610558D01*
X58459169Y-38634565D01*
X58332584Y-38695510D01*
X58257647Y-38751521D01*
X58199919Y-38801071D01*
X57272300Y-38801071D01*
X57256721Y-38749772D01*
X57234367Y-38666737D01*
X57218872Y-38598144D01*
X57212273Y-38551988D01*
X57214373Y-38536921D01*
X57232195Y-38543641D01*
X57266844Y-38572086D01*
X57295347Y-38600153D01*
X57365854Y-38673850D01*
X57353940Y-38616123D01*
X57335560Y-38512587D01*
X57330183Y-38430913D01*
X57338561Y-38356479D01*
X57361449Y-38274663D01*
X57373274Y-38240896D01*
X57421874Y-38119230D01*
X57487633Y-37976031D01*
X57571737Y-37808961D01*
X57675374Y-37615681D01*
X57799732Y-37393854D01*
X57832567Y-37336502D01*
X58037100Y-36980517D01*
X57921239Y-37105593D01*
X57739982Y-37315956D01*
X57581427Y-37530114D01*
X57448250Y-37743565D01*
X57343124Y-37951808D01*
X57268725Y-38150340D01*
X57243487Y-38246349D01*
X57228740Y-38311315D01*
X57217947Y-38344603D01*
X57206377Y-38352028D01*
X57189303Y-38339402D01*
X57177415Y-38327579D01*
X57151456Y-38305908D01*
X57136920Y-38315871D01*
X57127638Y-38338624D01*
X57119939Y-38395047D01*
X56816628Y-38395047D01*
X56856292Y-38214532D01*
X56875515Y-38144683D01*
X56979701Y-37851252D01*
X57117333Y-37574962D01*
X57286258Y-37318339D01*
X57484320Y-37083912D01*
X57709364Y-36874207D01*
X57959233Y-36691754D01*
X58231774Y-36539079D01*
X58253436Y-36528725D01*
X58361093Y-36478103D01*
X58437027Y-36444155D01*
X58484382Y-36427258D01*
X58506300Y-36427793D01*
X58505924Y-36446137D01*
X58486397Y-36482669D01*
X58450861Y-36537770D01*
X58441854Y-36551439D01*
X58338785Y-36720948D01*
X58249041Y-36894572D01*
X58175203Y-37065715D01*
X58119850Y-37227780D01*
X58085563Y-37374171D01*
X58074844Y-37489535D01*
X58090155Y-37642148D01*
X58135558Y-37772776D01*
X58210255Y-37879842D01*
X58313447Y-37961768D01*
X58313890Y-37962028D01*
X58369442Y-37991252D01*
X58412702Y-38001434D01*
X58462664Y-37995946D01*
X58481609Y-37991791D01*
X58583439Y-37977020D01*
X58703064Y-37972795D01*
X58824070Y-37978750D01*
X58930047Y-37994517D01*
X58961313Y-38002511D01*
X59098157Y-38052313D01*
X59216853Y-38117824D01*
X59330046Y-38206836D01*
X59396709Y-38270833D01*
X59469339Y-38348753D01*
X59526701Y-38422466D01*
X59578057Y-38505355D01*
X59632669Y-38610802D01*
X59634287Y-38614109D01*
X59692513Y-38726005D01*
X59748360Y-38812897D01*
X59810659Y-38884620D01*
X59888245Y-38951013D01*
X59989952Y-39021911D01*
X60015226Y-39038309D01*
X60218516Y-39151419D01*
X60422599Y-39228658D01*
X60629275Y-39271756D01*
X60688455Y-39281383D01*
X60718668Y-39293927D01*
X60729341Y-39314966D01*
X60730298Y-39331527D01*
X60746729Y-39406892D01*
X60789960Y-39472071D01*
X60844845Y-39510520D01*
X60885085Y-39534757D01*
X60903377Y-39560720D01*
X60903480Y-39562401D01*
X60885675Y-39588005D01*
X60836395Y-39618811D01*
X60761845Y-39652188D01*
X60668230Y-39685503D01*
X60561755Y-39716124D01*
X60513460Y-39727831D01*
X60468360Y-39737651D01*
X60424153Y-39745776D01*
X60376720Y-39752380D01*
X60321942Y-39757636D01*
X60255699Y-39761718D01*
X60173872Y-39764799D01*
X60072341Y-39767053D01*
X59946987Y-39768653D01*
X59793691Y-39769773D01*
X59608333Y-39770586D01*
X59489162Y-39770971D01*
X59265670Y-39771870D01*
X59076387Y-39773386D01*
X58917037Y-39775925D01*
X58783343Y-39779893D01*
X58671030Y-39785695D01*
X58575821Y-39793737D01*
X58493442Y-39804425D01*
X58419617Y-39818164D01*
X58350068Y-39835360D01*
X58280521Y-39856419D01*
X58206700Y-39881746D01*
X58165789Y-39896524D01*
X58026168Y-39953073D01*
X57909672Y-40014182D01*
X57801115Y-40088111D01*
X57771784Y-40110876D01*
X57724551Y-40153715D01*
X57671338Y-40210038D01*
X57619036Y-40271424D01*
X57574532Y-40329451D01*
X57544715Y-40375699D01*
X57536056Y-40399036D01*
X57549505Y-40396892D01*
X57585059Y-40374433D01*
X57635531Y-40336302D01*
X57645058Y-40328611D01*
X57769655Y-40238483D01*
X57882467Y-40180127D01*
X57981564Y-40154268D01*
X58065014Y-40161633D01*
X58077174Y-40166103D01*
X58121502Y-40191140D01*
X58127489Y-40214417D01*
X58095078Y-40237066D01*
X58073245Y-40245548D01*
X58004876Y-40273131D01*
X57915029Y-40314475D01*
X57815318Y-40363696D01*
X57717361Y-40414911D01*
X57632770Y-40462237D01*
X57577938Y-40496454D01*
X57395241Y-40645084D01*
X57233321Y-40825213D01*
X57231417Y-40827682D01*
X57194943Y-40875396D01*
X57173630Y-40905895D01*
X57170280Y-40918325D01*
X57187695Y-40911830D01*
X57228675Y-40885555D01*
X57296023Y-40838643D01*
X57372138Y-40784709D01*
X57520320Y-40686288D01*
X57659506Y-40606882D01*
X57785916Y-40548028D01*
X57895771Y-40511266D01*
X57985290Y-40498135D01*
X58048817Y-40509293D01*
X58082143Y-40531942D01*
X58081771Y-40550756D01*
X58058558Y-40565541D01*
X58007610Y-40593387D01*
X57935858Y-40630641D01*
X57850233Y-40673647D01*
X57826475Y-40685359D01*
X57679105Y-40759706D01*
X57560044Y-40824743D01*
X57461730Y-40885105D01*
X57376602Y-40945430D01*
X57298512Y-41009128D01*
X57135448Y-41174177D01*
X57005612Y-41357425D01*
X56909967Y-41557250D01*
X56851478Y-41761826D01*
X56835397Y-41879825D01*
X56828271Y-42018558D01*
X56829810Y-42164701D01*
X56839723Y-42304926D01*
X56857721Y-42425908D01*
X56866765Y-42464608D01*
X56880015Y-42537873D01*
X56884334Y-42630006D01*
X56880097Y-42749961D01*
X56879281Y-42762865D01*
X56874662Y-42904807D01*
X56876692Y-43074302D01*
X56884794Y-43261103D01*
X56898391Y-43454961D01*
X56916908Y-43645630D01*
X56938356Y-43813282D01*
X56951607Y-43905921D01*
X56962141Y-43983439D01*
X56969022Y-44038649D01*
X56971316Y-44064362D01*
X56971154Y-44065322D01*
X56963776Y-44050233D01*
X56947180Y-44006905D01*
X56924468Y-43943560D01*
X56915668Y-43918239D01*
X56881884Y-43834244D01*
X56834477Y-43734228D01*
X56781244Y-43634141D01*
X56753950Y-43587524D01*
X56576054Y-43267358D01*
X56429996Y-42943801D01*
X56316570Y-42619782D01*
X56236569Y-42298234D01*
X56190790Y-41982087D01*
X56180027Y-41674271D01*
X56189616Y-41506350D01*
X56217049Y-41296121D01*
X56259137Y-41089750D01*
X56312912Y-40900377D01*
X56348722Y-40802424D01*
X56372050Y-40742939D01*
X56387316Y-40700608D01*
X56391211Y-40684683D01*
X56380242Y-40700369D01*
X56352859Y-40743943D01*
X56312266Y-40810184D01*
X56261663Y-40893870D01*
X56208329Y-40982941D01*
X56151086Y-41078228D01*
X56100579Y-41160919D01*
X56060072Y-41225784D01*
X56032827Y-41267592D01*
X56022254Y-41281199D01*
X56019275Y-41262893D01*
X56021797Y-41210805D01*
X56029402Y-41129181D01*
X56041672Y-41022266D01*
X56058188Y-40894306D01*
X56065828Y-40838623D01*
X56122267Y-40529642D01*
X56202851Y-40233126D01*
X56305578Y-39954106D01*
X56428448Y-39697615D01*
X56569460Y-39468684D01*
X56656420Y-39353396D01*
X56740962Y-39249601D01*
X56752712Y-38961726D01*
X56771464Y-38691362D01*
X56805438Y-38445976D01*
X56816628Y-38395047D01*
G37*
%TO.C,C55*%
X5480164Y-28596000D02*
X5695836Y-28596000D01*
X5480164Y-29316000D02*
X5695836Y-29316000D01*
%TO.C,R26*%
X12714500Y-27448742D02*
X12714500Y-27923258D01*
X11669500Y-27448742D02*
X11669500Y-27923258D01*
%TO.C,JP3*%
X2543000Y-13797000D02*
X2543000Y-14397000D01*
X1843000Y-15097000D02*
X443000Y-15097000D01*
X443000Y-13097000D02*
X1843000Y-13097000D01*
X-257000Y-14397000D02*
X-257000Y-13797000D01*
X1843000Y-15097000D02*
G75*
G03*
X2543000Y-14397000I1J699999D01*
G01*
X2543000Y-13797000D02*
G75*
G03*
X1843000Y-13097000I-699999J1D01*
G01*
X-257000Y-14397000D02*
G75*
G03*
X443000Y-15097000I700000J0D01*
G01*
X443000Y-13097000D02*
G75*
G03*
X-257000Y-13797000I0J-700000D01*
G01*
%TO.C,J7*%
X13699993Y-7680000D02*
X41759993Y-7680000D01*
X13699993Y-7680000D02*
X13699993Y-5080000D01*
X41759993Y-7680000D02*
X41759993Y-2480000D01*
X13699993Y-5080000D02*
X16299993Y-5080000D01*
X16299993Y-5080000D02*
X16299993Y-2480000D01*
X13699993Y-3810000D02*
X13699993Y-2480000D01*
X13699993Y-2480000D02*
X15029993Y-2480000D01*
X16299993Y-2480000D02*
X41759993Y-2480000D01*
%TO.C,R3*%
X38847500Y-29701258D02*
X38847500Y-29226742D01*
X39892500Y-29701258D02*
X39892500Y-29226742D01*
%TO.C,C56*%
X4170000Y-24558164D02*
X4170000Y-24773836D01*
X3450000Y-24558164D02*
X3450000Y-24773836D01*
%TO.C,C39*%
X26818000Y-13315836D02*
X26818000Y-13100164D01*
X27538000Y-13315836D02*
X27538000Y-13100164D01*
%TO.C,JP1*%
X14094000Y-15286000D02*
X14094000Y-14686000D01*
X14794000Y-13986000D02*
X16194000Y-13986000D01*
X16194000Y-15986000D02*
X14794000Y-15986000D01*
X16894000Y-14686000D02*
X16894000Y-15286000D01*
X14794000Y-13986000D02*
G75*
G03*
X14094000Y-14686000I-1J-699999D01*
G01*
X14094000Y-15286000D02*
G75*
G03*
X14794000Y-15986000I699999J-1D01*
G01*
X16894000Y-14686000D02*
G75*
G03*
X16194000Y-13986000I-700000J0D01*
G01*
X16194000Y-15986000D02*
G75*
G03*
X16894000Y-15286000I0J700000D01*
G01*
%TO.C,R14*%
X41924500Y-21352742D02*
X41924500Y-21827258D01*
X40879500Y-21352742D02*
X40879500Y-21827258D01*
%TO.C,C13*%
X15232748Y-21363000D02*
X15755252Y-21363000D01*
X15232748Y-22833000D02*
X15755252Y-22833000D01*
%TO.C,D1*%
X10644000Y-6946000D02*
X10644000Y-5246000D01*
X10644000Y-6946000D02*
X8094000Y-6946000D01*
X10644000Y-5246000D02*
X8094000Y-5246000D01*
%TO.C,C10*%
X13004748Y-40746000D02*
X14427252Y-40746000D01*
X13004748Y-42566000D02*
X14427252Y-42566000D01*
%TO.C,C54*%
X3021000Y-23868748D02*
X3021000Y-24391252D01*
X1551000Y-23868748D02*
X1551000Y-24391252D01*
%TO.C,R35*%
X-14500Y-24367258D02*
X-14500Y-23892742D01*
X1030500Y-24367258D02*
X1030500Y-23892742D01*
%TO.C,C28*%
X30586000Y-23768164D02*
X30586000Y-23983836D01*
X29866000Y-23768164D02*
X29866000Y-23983836D01*
%TO.C,C44*%
X20722000Y-13315836D02*
X20722000Y-13100164D01*
X21442000Y-13315836D02*
X21442000Y-13100164D01*
%TO.C,J4*%
X-3512007Y-35500000D02*
X-3512007Y-45780000D01*
X-3512007Y-35500000D02*
X3409993Y-35500000D01*
X-3512007Y-38100000D02*
X3409993Y-38100000D01*
X-3512007Y-40640000D02*
X3409993Y-40640000D01*
X-3512007Y-43180000D02*
X3409993Y-43180000D01*
X-3512007Y-45780000D02*
X3409993Y-45780000D01*
X3409993Y-35500000D02*
X3409993Y-45780000D01*
X3409993Y-36470000D02*
X3759993Y-36470000D01*
X3409993Y-37190000D02*
X3759993Y-37190000D01*
X3409993Y-39010000D02*
X3819993Y-39010000D01*
X3409993Y-39730000D02*
X3819993Y-39730000D01*
X3409993Y-41550000D02*
X3819993Y-41550000D01*
X3409993Y-42270000D02*
X3819993Y-42270000D01*
X3409993Y-44090000D02*
X3819993Y-44090000D01*
X3409993Y-44810000D02*
X3819993Y-44810000D01*
X4869993Y-35500000D02*
X5979993Y-35500000D01*
X5979993Y-35500000D02*
X5979993Y-36830000D01*
%TO.C,C38*%
X27834000Y-13315836D02*
X27834000Y-13100164D01*
X28554000Y-13315836D02*
X28554000Y-13100164D01*
%TO.C,C45*%
X20935836Y-15092000D02*
X20720164Y-15092000D01*
X20935836Y-14372000D02*
X20720164Y-14372000D01*
%TO.C,C18*%
X20935836Y-21950000D02*
X20720164Y-21950000D01*
X20935836Y-21230000D02*
X20720164Y-21230000D01*
%TO.C,C57*%
X9117000Y-11168748D02*
X9117000Y-11691252D01*
X7647000Y-11168748D02*
X7647000Y-11691252D01*
%TO.C,U5*%
X-1941000Y-19939000D02*
X-1941000Y-21739000D01*
X-1941000Y-19939000D02*
X-1941000Y-19139000D01*
X1179000Y-19939000D02*
X1179000Y-20739000D01*
X1179000Y-19939000D02*
X1179000Y-19139000D01*
%TO.C,J1*%
X3540000Y-2600000D02*
X3540000Y-1270000D01*
X4870000Y-2600000D02*
X3540000Y-2600000D01*
X6140000Y-2600000D02*
X54460000Y-2600000D01*
X6140000Y-2600000D02*
X6140000Y0D01*
X54460000Y-2600000D02*
X54460000Y2600000D01*
X3540000Y0D02*
X3540000Y2600000D01*
X6140000Y0D02*
X3540000Y0D01*
X3540000Y2600000D02*
X54460000Y2600000D01*
%TO.C,C58*%
X1551000Y-27439252D02*
X1551000Y-26916748D01*
X3021000Y-27439252D02*
X3021000Y-26916748D01*
%TO.C,C26*%
X28554000Y-23768164D02*
X28554000Y-23983836D01*
X27834000Y-23768164D02*
X27834000Y-23983836D01*
%TO.C,C2*%
X27688000Y-29323420D02*
X27688000Y-29604580D01*
X26668000Y-29323420D02*
X26668000Y-29604580D01*
%TO.C,C19*%
X20935836Y-22966000D02*
X20720164Y-22966000D01*
X20935836Y-22246000D02*
X20720164Y-22246000D01*
%TO.C,C31*%
X31388164Y-20214000D02*
X31603836Y-20214000D01*
X31388164Y-20934000D02*
X31603836Y-20934000D01*
%TO.C,C40*%
X25802000Y-13315836D02*
X25802000Y-13100164D01*
X26522000Y-13315836D02*
X26522000Y-13100164D01*
%TO.C,C5*%
X36943420Y-28192000D02*
X37224580Y-28192000D01*
X36943420Y-29212000D02*
X37224580Y-29212000D01*
%TO.C,C21*%
X22458000Y-23768164D02*
X22458000Y-23983836D01*
X21738000Y-23768164D02*
X21738000Y-23983836D01*
%TO.C,C65*%
X-3050000Y-19952580D02*
X-3050000Y-19671420D01*
X-2030000Y-19952580D02*
X-2030000Y-19671420D01*
%TO.C,R2*%
X24115500Y-29701258D02*
X24115500Y-29226742D01*
X25160500Y-29701258D02*
X25160500Y-29226742D01*
%TO.C,J5*%
X61511993Y-17840000D02*
X61511993Y-7560000D01*
X61511993Y-17840000D02*
X54589993Y-17840000D01*
X61511993Y-15240000D02*
X54589993Y-15240000D01*
X61511993Y-12700000D02*
X54589993Y-12700000D01*
X61511993Y-10160000D02*
X54589993Y-10160000D01*
X61511993Y-7560000D02*
X54589993Y-7560000D01*
X54589993Y-17840000D02*
X54589993Y-7560000D01*
X54589993Y-16870000D02*
X54239993Y-16870000D01*
X54589993Y-16150000D02*
X54239993Y-16150000D01*
X54589993Y-14330000D02*
X54179993Y-14330000D01*
X54589993Y-13610000D02*
X54179993Y-13610000D01*
X54589993Y-11790000D02*
X54179993Y-11790000D01*
X54589993Y-11070000D02*
X54179993Y-11070000D01*
X54589993Y-9250000D02*
X54179993Y-9250000D01*
X54589993Y-8530000D02*
X54179993Y-8530000D01*
X53129993Y-17840000D02*
X52019993Y-17840000D01*
X52019993Y-17840000D02*
X52019993Y-16510000D01*
%TO.C,C35*%
X31388164Y-16150000D02*
X31603836Y-16150000D01*
X31388164Y-16870000D02*
X31603836Y-16870000D01*
%TO.C,C41*%
X23770000Y-13315836D02*
X23770000Y-13100164D01*
X24490000Y-13315836D02*
X24490000Y-13100164D01*
%TO.C,R25*%
X8906742Y-7859500D02*
X9381258Y-7859500D01*
X8906742Y-8904500D02*
X9381258Y-8904500D01*
%TO.C,R1*%
X41387500Y-29701258D02*
X41387500Y-29226742D01*
X42432500Y-29701258D02*
X42432500Y-29226742D01*
%TO.C,R9*%
X16016500Y-38624742D02*
X16016500Y-39099258D01*
X14971500Y-38624742D02*
X14971500Y-39099258D01*
%TO.C,L1*%
X2726000Y-32245000D02*
X2726000Y-31255000D01*
X6926000Y-32245000D02*
X6926000Y-31255000D01*
%TO.C,JP2*%
X14778000Y-29086000D02*
X14178000Y-29086000D01*
X13478000Y-28386000D02*
X13478000Y-26986000D01*
X15478000Y-26986000D02*
X15478000Y-28386000D01*
X14178000Y-26286000D02*
X14778000Y-26286000D01*
X13478000Y-28386000D02*
G75*
G03*
X14178000Y-29086000I699999J-1D01*
G01*
X14778000Y-29086000D02*
G75*
G03*
X15478000Y-28386000I1J699999D01*
G01*
X14178000Y-26286000D02*
G75*
G03*
X13478000Y-26986000I0J-700000D01*
G01*
X15478000Y-26986000D02*
G75*
G03*
X14778000Y-26286000I-700000J0D01*
G01*
%TO.C,C33*%
X31360173Y-18182000D02*
X31575845Y-18182000D01*
X31360173Y-18902000D02*
X31575845Y-18902000D01*
%TO.C,C37*%
X31388164Y-13102000D02*
X31603836Y-13102000D01*
X31388164Y-13822000D02*
X31603836Y-13822000D01*
%TO.C,C60*%
X5695836Y-22712000D02*
X5480164Y-22712000D01*
X5695836Y-21992000D02*
X5480164Y-21992000D01*
%TO.C,J3*%
X17925000Y-31320000D02*
X17925000Y-32590000D01*
X19195000Y-31320000D02*
X17925000Y-31320000D01*
X33980000Y-31320000D02*
X36520000Y-31320000D01*
X51305000Y-31320000D02*
X52575000Y-31320000D01*
X52575000Y-31320000D02*
X52575000Y-32590000D01*
%TO.C,R11*%
X40879500Y-24875258D02*
X40879500Y-24400742D01*
X41924500Y-24875258D02*
X41924500Y-24400742D01*
%TO.C,C25*%
X27538000Y-23768164D02*
X27538000Y-23983836D01*
X26818000Y-23768164D02*
X26818000Y-23983836D01*
%TO.C,C6*%
X19671420Y-28192000D02*
X19952580Y-28192000D01*
X19671420Y-29212000D02*
X19952580Y-29212000D01*
%TO.C,D2*%
X3580000Y-5246000D02*
X3580000Y-6946000D01*
X3580000Y-5246000D02*
X6130000Y-5246000D01*
X3580000Y-6946000D02*
X6130000Y-6946000D01*
%TO.C,C4*%
X19671420Y-29716000D02*
X19952580Y-29716000D01*
X19671420Y-30736000D02*
X19952580Y-30736000D01*
%TO.C,C3*%
X36943420Y-29716000D02*
X37224580Y-29716000D01*
X36943420Y-30736000D02*
X37224580Y-30736000D01*
%TO.C,R34*%
X1030500Y-26940742D02*
X1030500Y-27415258D01*
X-14500Y-26940742D02*
X-14500Y-27415258D01*
%TO.C,C59*%
X11289420Y-24890000D02*
X11570580Y-24890000D01*
X11289420Y-25910000D02*
X11570580Y-25910000D01*
%TD*%
M02*
