%TF.GenerationSoftware,KiCad,Pcbnew,7.0.1-0*%
%TF.CreationDate,2023-07-11T12:02:19-05:00*%
%TF.ProjectId,little_switch,6c697474-6c65-45f7-9377-697463682e6b,2*%
%TF.SameCoordinates,PX4221330PY3d0af40*%
%TF.FileFunction,Soldermask,Top*%
%TF.FilePolarity,Negative*%
%FSLAX46Y46*%
G04 Gerber Fmt 4.6, Leading zero omitted, Abs format (unit mm)*
G04 Created by KiCad (PCBNEW 7.0.1-0) date 2023-07-11 12:02:19*
%MOMM*%
%LPD*%
G01*
G04 APERTURE LIST*
G04 Aperture macros list*
%AMRoundRect*
0 Rectangle with rounded corners*
0 $1 Rounding radius*
0 $2 $3 $4 $5 $6 $7 $8 $9 X,Y pos of 4 corners*
0 Add a 4 corners polygon primitive as box body*
4,1,4,$2,$3,$4,$5,$6,$7,$8,$9,$2,$3,0*
0 Add four circle primitives for the rounded corners*
1,1,$1+$1,$2,$3*
1,1,$1+$1,$4,$5*
1,1,$1+$1,$6,$7*
1,1,$1+$1,$8,$9*
0 Add four rect primitives between the rounded corners*
20,1,$1+$1,$2,$3,$4,$5,0*
20,1,$1+$1,$4,$5,$6,$7,0*
20,1,$1+$1,$6,$7,$8,$9,0*
20,1,$1+$1,$8,$9,$2,$3,0*%
%AMFreePoly0*
4,1,35,0.535355,0.785355,0.550000,0.750000,0.550000,-0.750000,0.535355,-0.785355,0.500000,-0.800000,0.000000,-0.800000,-0.012286,-0.794911,-0.071157,-0.794911,-0.085244,-0.792886,-0.221795,-0.752791,-0.234740,-0.746879,-0.354462,-0.669938,-0.365217,-0.660618,-0.458414,-0.553063,-0.466109,-0.541091,-0.525228,-0.411637,-0.529237,-0.397982,-0.549491,-0.257116,-0.550000,-0.250000,-0.550000,0.250000,
-0.549491,0.257116,-0.529237,0.397982,-0.525228,0.411637,-0.466109,0.541091,-0.458414,0.553063,-0.365217,0.660618,-0.354462,0.669938,-0.234740,0.746879,-0.221795,0.752791,-0.085244,0.792886,-0.071157,0.794911,-0.012286,0.794911,0.000000,0.800000,0.500000,0.800000,0.535355,0.785355,0.535355,0.785355,$1*%
%AMFreePoly1*
4,1,35,0.012286,0.794911,0.071157,0.794911,0.085244,0.792886,0.221795,0.752791,0.234740,0.746879,0.354462,0.669938,0.365217,0.660618,0.458414,0.553063,0.466109,0.541091,0.525228,0.411637,0.529237,0.397982,0.549491,0.257116,0.550000,0.250000,0.550000,-0.250000,0.549491,-0.257116,0.529237,-0.397982,0.525228,-0.411637,0.466109,-0.541091,0.458414,-0.553063,0.365217,-0.660618,
0.354462,-0.669938,0.234740,-0.746879,0.221795,-0.752791,0.085244,-0.792886,0.071157,-0.794911,0.012286,-0.794911,0.000000,-0.800000,-0.500000,-0.800000,-0.535355,-0.785355,-0.550000,-0.750000,-0.550000,0.750000,-0.535355,0.785355,-0.500000,0.800000,0.000000,0.800000,0.012286,0.794911,0.012286,0.794911,$1*%
G04 Aperture macros list end*
%ADD10RoundRect,0.190000X-0.170000X0.140000X-0.170000X-0.140000X0.170000X-0.140000X0.170000X0.140000X0*%
%ADD11RoundRect,0.300000X0.650000X-0.325000X0.650000X0.325000X-0.650000X0.325000X-0.650000X-0.325000X0*%
%ADD12RoundRect,0.300000X-0.312500X-0.625000X0.312500X-0.625000X0.312500X0.625000X-0.312500X0.625000X0*%
%ADD13RoundRect,0.250000X0.275000X-0.200000X0.275000X0.200000X-0.275000X0.200000X-0.275000X-0.200000X0*%
%ADD14RoundRect,0.190000X0.140000X0.170000X-0.140000X0.170000X-0.140000X-0.170000X0.140000X-0.170000X0*%
%ADD15RoundRect,0.137500X-0.325000X-0.087500X0.325000X-0.087500X0.325000X0.087500X-0.325000X0.087500X0*%
%ADD16RoundRect,0.137500X-0.087500X-0.325000X0.087500X-0.325000X0.087500X0.325000X-0.087500X0.325000X0*%
%ADD17RoundRect,0.050000X-1.350000X-1.350000X1.350000X-1.350000X1.350000X1.350000X-1.350000X1.350000X0*%
%ADD18RoundRect,0.300000X-0.250000X-0.475000X0.250000X-0.475000X0.250000X0.475000X-0.250000X0.475000X0*%
%ADD19RoundRect,0.050000X-0.125000X0.250000X-0.125000X-0.250000X0.125000X-0.250000X0.125000X0.250000X0*%
%ADD20RoundRect,0.050000X-0.800000X0.450000X-0.800000X-0.450000X0.800000X-0.450000X0.800000X0.450000X0*%
%ADD21RoundRect,0.300000X-0.475000X0.250000X-0.475000X-0.250000X0.475000X-0.250000X0.475000X0.250000X0*%
%ADD22RoundRect,0.275000X-0.250000X0.225000X-0.250000X-0.225000X0.250000X-0.225000X0.250000X0.225000X0*%
%ADD23RoundRect,0.190000X0.170000X-0.140000X0.170000X0.140000X-0.170000X0.140000X-0.170000X-0.140000X0*%
%ADD24RoundRect,0.050000X0.850000X0.850000X-0.850000X0.850000X-0.850000X-0.850000X0.850000X-0.850000X0*%
%ADD25O,1.800000X1.800000*%
%ADD26RoundRect,0.300000X0.325000X0.650000X-0.325000X0.650000X-0.325000X-0.650000X0.325000X-0.650000X0*%
%ADD27RoundRect,0.250000X-0.275000X0.200000X-0.275000X-0.200000X0.275000X-0.200000X0.275000X0.200000X0*%
%ADD28RoundRect,0.050000X-0.675000X-0.675000X0.675000X-0.675000X0.675000X0.675000X-0.675000X0.675000X0*%
%ADD29O,1.450000X1.450000*%
%ADD30RoundRect,0.190000X-0.140000X-0.170000X0.140000X-0.170000X0.140000X0.170000X-0.140000X0.170000X0*%
%ADD31RoundRect,0.300000X-0.650000X0.325000X-0.650000X-0.325000X0.650000X-0.325000X0.650000X0.325000X0*%
%ADD32RoundRect,0.050000X0.675000X1.700000X-0.675000X1.700000X-0.675000X-1.700000X0.675000X-1.700000X0*%
%ADD33RoundRect,0.050000X1.850000X-0.490000X1.850000X0.490000X-1.850000X0.490000X-1.850000X-0.490000X0*%
%ADD34FreePoly0,180.000000*%
%ADD35FreePoly1,180.000000*%
%ADD36RoundRect,0.050000X0.850000X-0.850000X0.850000X0.850000X-0.850000X0.850000X-0.850000X-0.850000X0*%
%ADD37FreePoly0,0.000000*%
%ADD38FreePoly1,0.000000*%
%ADD39RoundRect,0.050000X0.300000X0.225000X-0.300000X0.225000X-0.300000X-0.225000X0.300000X-0.225000X0*%
%ADD40RoundRect,0.300000X-0.325000X-0.650000X0.325000X-0.650000X0.325000X0.650000X-0.325000X0.650000X0*%
%ADD41RoundRect,0.050000X-0.850000X-0.850000X0.850000X-0.850000X0.850000X0.850000X-0.850000X0.850000X0*%
%ADD42RoundRect,0.200000X0.150000X-0.512500X0.150000X0.512500X-0.150000X0.512500X-0.150000X-0.512500X0*%
%ADD43RoundRect,0.300000X0.475000X-0.250000X0.475000X0.250000X-0.475000X0.250000X-0.475000X-0.250000X0*%
%ADD44RoundRect,0.275000X-0.225000X-0.250000X0.225000X-0.250000X0.225000X0.250000X-0.225000X0.250000X0*%
%ADD45RoundRect,0.275000X0.250000X-0.225000X0.250000X0.225000X-0.250000X0.225000X-0.250000X-0.225000X0*%
%ADD46C,5.500000*%
%ADD47RoundRect,0.250000X-0.200000X-0.275000X0.200000X-0.275000X0.200000X0.275000X-0.200000X0.275000X0*%
%ADD48FreePoly0,90.000000*%
%ADD49FreePoly1,90.000000*%
%ADD50C,2.730000*%
%ADD51C,2.220000*%
%ADD52C,1.720000*%
%ADD53C,1.610000*%
%ADD54RoundRect,0.050000X-0.300000X-0.225000X0.300000X-0.225000X0.300000X0.225000X-0.300000X0.225000X0*%
G04 APERTURE END LIST*
D10*
%TO.C,C24*%
X25146000Y-23396000D03*
X25146000Y-24356000D03*
%TD*%
D11*
%TO.C,C62*%
X9144000Y-20525000D03*
X9144000Y-17575000D03*
%TD*%
%TO.C,C64*%
X11430000Y-20525000D03*
X11430000Y-17575000D03*
%TD*%
D12*
%TO.C,SW1*%
X3617500Y-8382000D03*
X6542500Y-8382000D03*
%TD*%
D13*
%TO.C,R12*%
X15494000Y-45466000D03*
X15494000Y-43816000D03*
%TD*%
%TO.C,R10*%
X41402000Y-15049000D03*
X41402000Y-13399000D03*
%TD*%
D14*
%TO.C,C46*%
X21308000Y-15621000D03*
X20348000Y-15621000D03*
%TD*%
D15*
%TO.C,U3*%
X5149500Y-24679000D03*
X5149500Y-25329000D03*
X5149500Y-25979000D03*
X5149500Y-26629000D03*
D16*
X6137000Y-27616500D03*
X6787000Y-27616500D03*
X7437000Y-27616500D03*
X8087000Y-27616500D03*
D15*
X9074500Y-26629000D03*
X9074500Y-25979000D03*
X9074500Y-25329000D03*
X9074500Y-24679000D03*
D16*
X8087000Y-23691500D03*
X7437000Y-23691500D03*
X6787000Y-23691500D03*
X6137000Y-23691500D03*
D17*
X7112000Y-25654000D03*
%TD*%
D18*
%TO.C,C14*%
X14544000Y-12319000D03*
X16444000Y-12319000D03*
%TD*%
D19*
%TO.C,U4*%
X6846000Y-10480000D03*
X6346000Y-10480000D03*
X5846000Y-10480000D03*
X5346000Y-10480000D03*
X5346000Y-12380000D03*
X5846000Y-12380000D03*
X6346000Y-12380000D03*
X6846000Y-12380000D03*
D20*
X6096000Y-11430000D03*
%TD*%
D21*
%TO.C,C63*%
X3810000Y-10480000D03*
X3810000Y-12380000D03*
%TD*%
D13*
%TO.C,R4*%
X22098000Y-30289000D03*
X22098000Y-28639000D03*
%TD*%
D22*
%TO.C,C1*%
X44450000Y-28689000D03*
X44450000Y-30239000D03*
%TD*%
D10*
%TO.C,C29*%
X31242000Y-23396000D03*
X31242000Y-24356000D03*
%TD*%
D23*
%TO.C,C42*%
X23114000Y-13688000D03*
X23114000Y-12728000D03*
%TD*%
D24*
%TO.C,J6*%
X53129993Y-29210000D03*
D25*
X53129993Y-26670000D03*
X53129993Y-24130000D03*
X53129993Y-21590000D03*
%TD*%
D26*
%TO.C,C11*%
X45925000Y-12700000D03*
X42975000Y-12700000D03*
%TD*%
%TO.C,C12*%
X45925000Y-23114000D03*
X42975000Y-23114000D03*
%TD*%
D27*
%TO.C,R24*%
X33782000Y-25845000D03*
X33782000Y-27495000D03*
%TD*%
D28*
%TO.C,J2*%
X-999998Y-5250002D03*
D29*
X1000002Y-5250002D03*
X-999998Y-7250002D03*
X1000002Y-7250002D03*
X-999998Y-9250002D03*
X1000002Y-9250002D03*
X-999998Y-11250002D03*
X1000002Y-11250002D03*
%TD*%
D27*
%TO.C,R30*%
X12192000Y-22289000D03*
X12192000Y-23939000D03*
%TD*%
D30*
%TO.C,C32*%
X31016000Y-19558000D03*
X31976000Y-19558000D03*
%TD*%
D10*
%TO.C,C22*%
X23114000Y-23396000D03*
X23114000Y-24356000D03*
%TD*%
D18*
%TO.C,C49*%
X8194000Y-4064000D03*
X10094000Y-4064000D03*
%TD*%
D31*
%TO.C,C53*%
X11430000Y-30275000D03*
X11430000Y-33225000D03*
%TD*%
D14*
%TO.C,C16*%
X21308000Y-19558000D03*
X20348000Y-19558000D03*
%TD*%
D23*
%TO.C,C61*%
X3810000Y-27150000D03*
X3810000Y-26190000D03*
%TD*%
D10*
%TO.C,C20*%
X21082000Y-23396000D03*
X21082000Y-24356000D03*
%TD*%
D32*
%TO.C,L3*%
X5901000Y-15240000D03*
X3751000Y-15240000D03*
%TD*%
D10*
%TO.C,C27*%
X29210000Y-23396000D03*
X29210000Y-24356000D03*
%TD*%
D27*
%TO.C,R13*%
X41402000Y-10351000D03*
X41402000Y-12001000D03*
%TD*%
D13*
%TO.C,R27*%
X10668000Y-28511000D03*
X10668000Y-26861000D03*
%TD*%
D14*
%TO.C,C17*%
X21308000Y-20574000D03*
X20348000Y-20574000D03*
%TD*%
%TO.C,C50*%
X49756000Y-5842000D03*
X48796000Y-5842000D03*
%TD*%
D30*
%TO.C,C30*%
X31016000Y-21565997D03*
X31976000Y-21565997D03*
%TD*%
D28*
%TO.C,J9*%
X-2159000Y-23511000D03*
D29*
X-2159000Y-25511000D03*
%TD*%
D13*
%TO.C,R31*%
X10668000Y-23939000D03*
X10668000Y-22289000D03*
%TD*%
D23*
%TO.C,C43*%
X22098000Y-13688000D03*
X22098000Y-12728000D03*
%TD*%
D31*
%TO.C,C52*%
X9180000Y-30275000D03*
X9180000Y-33225000D03*
%TD*%
D10*
%TO.C,C23*%
X24130000Y-23396000D03*
X24130000Y-24356000D03*
%TD*%
D30*
%TO.C,C36*%
X31016000Y-15494000D03*
X31976000Y-15494000D03*
%TD*%
D33*
%TO.C,L2*%
X4826000Y-20743000D03*
X4826000Y-18373000D03*
%TD*%
D30*
%TO.C,C34*%
X31016000Y-17526000D03*
X31976000Y-17526000D03*
%TD*%
D18*
%TO.C,C15*%
X14544000Y-17272000D03*
X16444000Y-17272000D03*
%TD*%
D30*
%TO.C,C55*%
X5108000Y-28956000D03*
X6068000Y-28956000D03*
%TD*%
D27*
%TO.C,R26*%
X12192000Y-26861000D03*
X12192000Y-28511000D03*
%TD*%
D34*
%TO.C,JP3*%
X1793000Y-14097000D03*
D35*
X493000Y-14097000D03*
%TD*%
D36*
%TO.C,J7*%
X15029993Y-3810000D03*
D25*
X15029993Y-6350000D03*
X17569993Y-3810000D03*
X17569993Y-6350000D03*
X20109993Y-3810000D03*
X20109993Y-6350000D03*
X22649993Y-3810000D03*
X22649993Y-6350000D03*
X25189993Y-3810000D03*
X25189993Y-6350000D03*
X27729993Y-3810000D03*
X27729993Y-6350000D03*
X30269993Y-3810000D03*
X30269993Y-6350000D03*
X32809993Y-3810000D03*
X32809993Y-6350000D03*
X35349993Y-3810000D03*
X35349993Y-6350000D03*
X37889993Y-3810000D03*
X37889993Y-6350000D03*
X40429993Y-3810000D03*
X40429993Y-6350000D03*
%TD*%
D13*
%TO.C,R3*%
X39370000Y-30289000D03*
X39370000Y-28639000D03*
%TD*%
D10*
%TO.C,C56*%
X3810000Y-24186000D03*
X3810000Y-25146000D03*
%TD*%
D23*
%TO.C,C39*%
X27178000Y-13688000D03*
X27178000Y-12728000D03*
%TD*%
D37*
%TO.C,JP1*%
X14844000Y-14986000D03*
D38*
X16144000Y-14986000D03*
%TD*%
D27*
%TO.C,R14*%
X41402000Y-20765000D03*
X41402000Y-22415000D03*
%TD*%
D18*
%TO.C,C13*%
X14544000Y-22098000D03*
X16444000Y-22098000D03*
%TD*%
D39*
%TO.C,D1*%
X10194000Y-6096000D03*
X8094000Y-6096000D03*
%TD*%
D40*
%TO.C,C10*%
X12241000Y-41656000D03*
X15191000Y-41656000D03*
%TD*%
D21*
%TO.C,C54*%
X2286000Y-23180000D03*
X2286000Y-25080000D03*
%TD*%
D13*
%TO.C,R35*%
X508000Y-24955000D03*
X508000Y-23305000D03*
%TD*%
D10*
%TO.C,C28*%
X30226000Y-23396000D03*
X30226000Y-24356000D03*
%TD*%
D23*
%TO.C,C44*%
X21082000Y-13688000D03*
X21082000Y-12728000D03*
%TD*%
D41*
%TO.C,J4*%
X4869993Y-36830000D03*
D25*
X4869993Y-39370000D03*
X4869993Y-41910000D03*
X4869993Y-44450000D03*
%TD*%
D23*
%TO.C,C38*%
X28194000Y-13688000D03*
X28194000Y-12728000D03*
%TD*%
D14*
%TO.C,C45*%
X21308000Y-14732000D03*
X20348000Y-14732000D03*
%TD*%
%TO.C,C18*%
X21308000Y-21590000D03*
X20348000Y-21590000D03*
%TD*%
D21*
%TO.C,C57*%
X8382000Y-10480000D03*
X8382000Y-12380000D03*
%TD*%
D42*
%TO.C,U5*%
X-1331000Y-21076500D03*
X-381000Y-21076500D03*
X569000Y-21076500D03*
X569000Y-18801500D03*
X-1331000Y-18801500D03*
%TD*%
D36*
%TO.C,J1*%
X4870000Y-1270000D03*
D25*
X4870000Y1270000D03*
X7410000Y-1270000D03*
X7410000Y1270000D03*
X9950000Y-1270000D03*
X9950000Y1270000D03*
X12490000Y-1270000D03*
X12490000Y1270000D03*
X15030000Y-1270000D03*
X15030000Y1270000D03*
X17570000Y-1270000D03*
X17570000Y1270000D03*
X20110000Y-1270000D03*
X20110000Y1270000D03*
X22650000Y-1270000D03*
X22650000Y1270000D03*
X25190000Y-1270000D03*
X25190000Y1270000D03*
X27730000Y-1270000D03*
X27730000Y1270000D03*
X30270000Y-1270000D03*
X30270000Y1270000D03*
X32810000Y-1270000D03*
X32810000Y1270000D03*
X35350000Y-1270000D03*
X35350000Y1270000D03*
X37890000Y-1270000D03*
X37890000Y1270000D03*
X40430000Y-1270000D03*
X40430000Y1270000D03*
X42970000Y-1270000D03*
X42970000Y1270000D03*
X45510000Y-1270000D03*
X45510000Y1270000D03*
X48050000Y-1270000D03*
X48050000Y1270000D03*
X50590000Y-1270000D03*
X50590000Y1270000D03*
X53130000Y-1270000D03*
X53130000Y1270000D03*
%TD*%
D43*
%TO.C,C58*%
X2286000Y-28128000D03*
X2286000Y-26228000D03*
%TD*%
D10*
%TO.C,C26*%
X28194000Y-23396000D03*
X28194000Y-24356000D03*
%TD*%
D22*
%TO.C,C2*%
X27178000Y-28689000D03*
X27178000Y-30239000D03*
%TD*%
D14*
%TO.C,C19*%
X21308000Y-22606000D03*
X20348000Y-22606000D03*
%TD*%
D30*
%TO.C,C31*%
X31016000Y-20574000D03*
X31976000Y-20574000D03*
%TD*%
D23*
%TO.C,C40*%
X26162000Y-13688000D03*
X26162000Y-12728000D03*
%TD*%
D44*
%TO.C,C5*%
X36309000Y-28702000D03*
X37859000Y-28702000D03*
%TD*%
D10*
%TO.C,C21*%
X22098000Y-23396000D03*
X22098000Y-24356000D03*
%TD*%
D45*
%TO.C,C65*%
X-2540000Y-20587000D03*
X-2540000Y-19037000D03*
%TD*%
D13*
%TO.C,R2*%
X24638000Y-30289000D03*
X24638000Y-28639000D03*
%TD*%
D24*
%TO.C,J5*%
X53129993Y-16510000D03*
D25*
X53129993Y-13970000D03*
X53129993Y-11430000D03*
X53129993Y-8890000D03*
%TD*%
D30*
%TO.C,C35*%
X31016000Y-16510000D03*
X31976000Y-16510000D03*
%TD*%
D23*
%TO.C,C41*%
X24130000Y-13688000D03*
X24130000Y-12728000D03*
%TD*%
D46*
%TO.C,H1*%
X0Y0D03*
%TD*%
D47*
%TO.C,R25*%
X8319000Y-8382000D03*
X9969000Y-8382000D03*
%TD*%
D13*
%TO.C,R1*%
X41910000Y-30289000D03*
X41910000Y-28639000D03*
%TD*%
D27*
%TO.C,R9*%
X15494000Y-38037000D03*
X15494000Y-39687000D03*
%TD*%
D33*
%TO.C,L1*%
X4826000Y-32935000D03*
X4826000Y-30565000D03*
%TD*%
D46*
%TO.C,H2*%
X58000000Y0D03*
%TD*%
D48*
%TO.C,JP2*%
X14478000Y-28336000D03*
D49*
X14478000Y-27036000D03*
%TD*%
D30*
%TO.C,C33*%
X30988009Y-18542000D03*
X31948009Y-18542000D03*
%TD*%
%TO.C,C37*%
X31016000Y-13462000D03*
X31976000Y-13462000D03*
%TD*%
D14*
%TO.C,C60*%
X6068000Y-22352000D03*
X5108000Y-22352000D03*
%TD*%
D50*
%TO.C,J3*%
X52575000Y-47220000D03*
X17925000Y-47220000D03*
D51*
X52575000Y-40460000D03*
X17925000Y-40460000D03*
D52*
X36265000Y-49450000D03*
X19195000Y-49450000D03*
X36265000Y-51230000D03*
X19195000Y-51230000D03*
X51305000Y-49450000D03*
X34235000Y-49450000D03*
X51305000Y-51230000D03*
X34235000Y-51230000D03*
D53*
X50770000Y-33750000D03*
X33700000Y-33750000D03*
X49500000Y-32480000D03*
X32430000Y-32480000D03*
X48230000Y-33750000D03*
X31160000Y-33750000D03*
X46960000Y-32480000D03*
X29890000Y-32480000D03*
X45690000Y-33750000D03*
X28620000Y-33750000D03*
X44420000Y-32480000D03*
X27350000Y-32480000D03*
X43150000Y-33750000D03*
X26080000Y-33750000D03*
X41880000Y-32480000D03*
X24810000Y-32480000D03*
X40610000Y-33750000D03*
X23540000Y-33750000D03*
X39340000Y-32480000D03*
X22270000Y-32480000D03*
X38070000Y-33750000D03*
X21000000Y-33750000D03*
X36800000Y-32480000D03*
X19730000Y-32480000D03*
%TD*%
D46*
%TO.C,H3*%
X0Y-49000000D03*
%TD*%
D13*
%TO.C,R11*%
X41402000Y-25463000D03*
X41402000Y-23813000D03*
%TD*%
D46*
%TO.C,H4*%
X58000000Y-49000000D03*
%TD*%
D10*
%TO.C,C25*%
X27178000Y-23396000D03*
X27178000Y-24356000D03*
%TD*%
D44*
%TO.C,C6*%
X19037000Y-28702000D03*
X20587000Y-28702000D03*
%TD*%
D54*
%TO.C,D2*%
X4030000Y-6096000D03*
X6130000Y-6096000D03*
%TD*%
D44*
%TO.C,C4*%
X19037000Y-30226000D03*
X20587000Y-30226000D03*
%TD*%
%TO.C,C3*%
X36309000Y-30226000D03*
X37859000Y-30226000D03*
%TD*%
D27*
%TO.C,R34*%
X508000Y-26353000D03*
X508000Y-28003000D03*
%TD*%
D44*
%TO.C,C59*%
X10655000Y-25400000D03*
X12205000Y-25400000D03*
%TD*%
D24*
%TO.C,J8*%
X53061006Y-3829990D03*
D25*
X53061006Y-6369990D03*
%TD*%
G36*
X29333091Y-14995439D02*
G01*
X29373319Y-15022319D01*
X29681681Y-15330681D01*
X29708561Y-15370909D01*
X29718000Y-15418362D01*
X29718000Y-21665638D01*
X29708561Y-21713091D01*
X29681681Y-21753319D01*
X29373319Y-22061681D01*
X29333091Y-22088561D01*
X29285638Y-22098000D01*
X23038362Y-22098000D01*
X22990909Y-22088561D01*
X22950681Y-22061681D01*
X22642319Y-21753319D01*
X22615439Y-21713091D01*
X22606000Y-21665638D01*
X22606000Y-15418362D01*
X22615439Y-15370909D01*
X22642319Y-15330681D01*
X22950681Y-15022319D01*
X22990909Y-14995439D01*
X23038362Y-14986000D01*
X29285638Y-14986000D01*
X29333091Y-14995439D01*
G37*
M02*
