%TF.GenerationSoftware,KiCad,Pcbnew,7.0.1-0*%
%TF.CreationDate,2023-07-15T12:58:35-05:00*%
%TF.ProjectId,little_switch,6c697474-6c65-45f7-9377-697463682e6b,2*%
%TF.SameCoordinates,PX4221330PY3d0af40*%
%TF.FileFunction,Paste,Bot*%
%TF.FilePolarity,Positive*%
%FSLAX46Y46*%
G04 Gerber Fmt 4.6, Leading zero omitted, Abs format (unit mm)*
G04 Created by KiCad (PCBNEW 7.0.1-0) date 2023-07-15 12:58:35*
%MOMM*%
%LPD*%
G01*
G04 APERTURE LIST*
G04 Aperture macros list*
%AMRoundRect*
0 Rectangle with rounded corners*
0 $1 Rounding radius*
0 $2 $3 $4 $5 $6 $7 $8 $9 X,Y pos of 4 corners*
0 Add a 4 corners polygon primitive as box body*
4,1,4,$2,$3,$4,$5,$6,$7,$8,$9,$2,$3,0*
0 Add four circle primitives for the rounded corners*
1,1,$1+$1,$2,$3*
1,1,$1+$1,$4,$5*
1,1,$1+$1,$6,$7*
1,1,$1+$1,$8,$9*
0 Add four rect primitives between the rounded corners*
20,1,$1+$1,$2,$3,$4,$5,0*
20,1,$1+$1,$4,$5,$6,$7,0*
20,1,$1+$1,$6,$7,$8,$9,0*
20,1,$1+$1,$8,$9,$2,$3,0*%
G04 Aperture macros list end*
%ADD10R,0.675000X0.475000*%
%ADD11R,0.960000X0.270000*%
%ADD12R,0.850000X0.280000*%
%ADD13R,0.900000X0.385000*%
%ADD14R,0.950000X0.500000*%
%ADD15R,0.850000X0.340000*%
%ADD16R,0.970000X0.330000*%
%ADD17RoundRect,0.140000X0.140000X0.170000X-0.140000X0.170000X-0.140000X-0.170000X0.140000X-0.170000X0*%
%ADD18RoundRect,0.135000X-0.185000X0.135000X-0.185000X-0.135000X0.185000X-0.135000X0.185000X0.135000X0*%
%ADD19RoundRect,0.135000X-0.135000X-0.185000X0.135000X-0.185000X0.135000X0.185000X-0.135000X0.185000X0*%
%ADD20RoundRect,0.200000X0.275000X-0.200000X0.275000X0.200000X-0.275000X0.200000X-0.275000X-0.200000X0*%
%ADD21R,0.200000X1.540000*%
%ADD22R,1.540000X0.200000*%
%ADD23R,10.500000X10.500000*%
%ADD24RoundRect,0.140000X-0.140000X-0.170000X0.140000X-0.170000X0.140000X0.170000X-0.140000X0.170000X0*%
%ADD25RoundRect,0.225000X0.225000X0.250000X-0.225000X0.250000X-0.225000X-0.250000X0.225000X-0.250000X0*%
%ADD26R,0.800000X0.900000*%
%ADD27RoundRect,0.225000X-0.225000X-0.250000X0.225000X-0.250000X0.225000X0.250000X-0.225000X0.250000X0*%
%ADD28RoundRect,0.150000X-0.150000X0.512500X-0.150000X-0.512500X0.150000X-0.512500X0.150000X0.512500X0*%
G04 APERTURE END LIST*
D10*
%TO.C,FL1*%
X8582500Y-42717500D03*
X6657500Y-42717500D03*
X6657500Y-43642500D03*
X8582500Y-43642500D03*
%TD*%
D11*
%TO.C,TR5*%
X44208000Y-19094000D03*
D12*
X44153000Y-19739000D03*
D13*
X44178000Y-21611500D03*
X44178000Y-21996500D03*
D14*
X48253000Y-19209000D03*
D15*
X48303000Y-21239000D03*
D16*
X48243000Y-22024000D03*
%TD*%
D17*
%TO.C,C7*%
X12164000Y-35814000D03*
X11204000Y-35814000D03*
%TD*%
D18*
%TO.C,R18*%
X29464000Y-8380000D03*
X29464000Y-9400000D03*
%TD*%
%TO.C,R19*%
X30480000Y-8380000D03*
X30480000Y-9400000D03*
%TD*%
D17*
%TO.C,C47*%
X23848000Y-9398000D03*
X22888000Y-9398000D03*
%TD*%
D10*
%TO.C,FL4*%
X49583500Y-15702500D03*
X51508500Y-15702500D03*
X51508500Y-14777500D03*
X49583500Y-14777500D03*
%TD*%
D11*
%TO.C,TR3*%
X44208000Y-8680000D03*
D12*
X44153000Y-9325000D03*
D13*
X44178000Y-11197500D03*
X44178000Y-11582500D03*
D14*
X48253000Y-8795000D03*
D15*
X48303000Y-10825000D03*
D16*
X48243000Y-11610000D03*
%TD*%
D19*
%TO.C,R23*%
X19556000Y-9398000D03*
X20576000Y-9398000D03*
%TD*%
D20*
%TO.C,R8*%
X34290000Y-47307000D03*
X34290000Y-45657000D03*
%TD*%
D21*
%TO.C,U1*%
X32362000Y-26242000D03*
X31962000Y-26242000D03*
X31562000Y-26242000D03*
X31162000Y-26242000D03*
X30762000Y-26242000D03*
X30362000Y-26242000D03*
X29962000Y-26242000D03*
X29562000Y-26242000D03*
X29162000Y-26242000D03*
X28762000Y-26242000D03*
X28362000Y-26242000D03*
X27962000Y-26242000D03*
X27562000Y-26242000D03*
X27162000Y-26242000D03*
X26762000Y-26242000D03*
X26362000Y-26242000D03*
X25962000Y-26242000D03*
X25562000Y-26242000D03*
X25162000Y-26242000D03*
X24762000Y-26242000D03*
X24362000Y-26242000D03*
X23962000Y-26242000D03*
X23562000Y-26242000D03*
X23162000Y-26242000D03*
X22762000Y-26242000D03*
X22362000Y-26242000D03*
X21962000Y-26242000D03*
X21562000Y-26242000D03*
X21162000Y-26242000D03*
X20762000Y-26242000D03*
X20362000Y-26242000D03*
X19962000Y-26242000D03*
D22*
X18462000Y-24742000D03*
X18462000Y-24342000D03*
X18462000Y-23942000D03*
X18462000Y-23542000D03*
X18462000Y-23142000D03*
X18462000Y-22742000D03*
X18462000Y-22342000D03*
X18462000Y-21942000D03*
X18462000Y-21542000D03*
X18462000Y-21142000D03*
X18462000Y-20742000D03*
X18462000Y-20342000D03*
X18462000Y-19942000D03*
X18462000Y-19542000D03*
X18462000Y-19142000D03*
X18462000Y-18742000D03*
X18462000Y-18342000D03*
X18462000Y-17942000D03*
X18462000Y-17542000D03*
X18462000Y-17142000D03*
X18462000Y-16742000D03*
X18462000Y-16342000D03*
X18462000Y-15942000D03*
X18462000Y-15542000D03*
X18462000Y-15142000D03*
X18462000Y-14742000D03*
X18462000Y-14342000D03*
X18462000Y-13942000D03*
X18462000Y-13542000D03*
X18462000Y-13142000D03*
X18462000Y-12742000D03*
X18462000Y-12342000D03*
D21*
X19962000Y-10842000D03*
X20362000Y-10842000D03*
X20762000Y-10842000D03*
X21162000Y-10842000D03*
X21562000Y-10842000D03*
X21962000Y-10842000D03*
X22362000Y-10842000D03*
X22762000Y-10842000D03*
X23162000Y-10842000D03*
X23562000Y-10842000D03*
X23962000Y-10842000D03*
X24362000Y-10842000D03*
X24762000Y-10842000D03*
X25162000Y-10842000D03*
X25562000Y-10842000D03*
X25962000Y-10842000D03*
X26362000Y-10842000D03*
X26762000Y-10842000D03*
X27162000Y-10842000D03*
X27562000Y-10842000D03*
X27962000Y-10842000D03*
X28362000Y-10842000D03*
X28762000Y-10842000D03*
X29162000Y-10842000D03*
X29562000Y-10842000D03*
X29962000Y-10842000D03*
X30362000Y-10842000D03*
X30762000Y-10842000D03*
X31162000Y-10842000D03*
X31562000Y-10842000D03*
X31962000Y-10842000D03*
X32362000Y-10842000D03*
D22*
X33862000Y-12342000D03*
X33862000Y-12742000D03*
X33862000Y-13142000D03*
X33862000Y-13542000D03*
X33862000Y-13942000D03*
X33862000Y-14342000D03*
X33862000Y-14742000D03*
X33862000Y-15142000D03*
X33862000Y-15542000D03*
X33862000Y-15942000D03*
X33862000Y-16342000D03*
X33862000Y-16742000D03*
X33862000Y-17142000D03*
X33862000Y-17542000D03*
X33862000Y-17942000D03*
X33862000Y-18342000D03*
X33862000Y-18742000D03*
X33862000Y-19142000D03*
X33862000Y-19542000D03*
X33862000Y-19942000D03*
X33862000Y-20342000D03*
X33862000Y-20742000D03*
X33862000Y-21142000D03*
X33862000Y-21542000D03*
X33862000Y-21942000D03*
X33862000Y-22342000D03*
X33862000Y-22742000D03*
X33862000Y-23142000D03*
X33862000Y-23542000D03*
X33862000Y-23942000D03*
X33862000Y-24342000D03*
X33862000Y-24742000D03*
D23*
X26162000Y-18542000D03*
%TD*%
D20*
%TO.C,R7*%
X18796000Y-44767000D03*
X18796000Y-43117000D03*
%TD*%
D18*
%TO.C,R17*%
X28448000Y-8380000D03*
X28448000Y-9400000D03*
%TD*%
D24*
%TO.C,C9*%
X42954000Y-18288000D03*
X43914000Y-18288000D03*
%TD*%
D10*
%TO.C,FL2*%
X8582500Y-37637500D03*
X6657500Y-37637500D03*
X6657500Y-38562500D03*
X8582500Y-38562500D03*
%TD*%
D25*
%TO.C,C48*%
X37605000Y-26162000D03*
X36055000Y-26162000D03*
%TD*%
D26*
%TO.C,Y1*%
X36280000Y-24576000D03*
X36280000Y-23176000D03*
X37380000Y-23176000D03*
X37380000Y-24576000D03*
%TD*%
D10*
%TO.C,FL5*%
X49583500Y-23322500D03*
X51508500Y-23322500D03*
X51508500Y-22397500D03*
X49583500Y-22397500D03*
%TD*%
D18*
%TO.C,R16*%
X27432000Y-8380000D03*
X27432000Y-9400000D03*
%TD*%
D11*
%TO.C,TR6*%
X44208000Y-24174000D03*
D12*
X44153000Y-24819000D03*
D13*
X44178000Y-26691500D03*
X44178000Y-27076500D03*
D14*
X48253000Y-24289000D03*
D15*
X48303000Y-26319000D03*
D16*
X48243000Y-27104000D03*
%TD*%
D18*
%TO.C,R20*%
X31496000Y-8380000D03*
X31496000Y-9400000D03*
%TD*%
D11*
%TO.C,TR1*%
X13958000Y-45676000D03*
D12*
X14013000Y-45031000D03*
D13*
X13988000Y-43158500D03*
X13988000Y-42773500D03*
D14*
X9913000Y-45561000D03*
D15*
X9863000Y-43531000D03*
D16*
X9923000Y-42746000D03*
%TD*%
D18*
%TO.C,R15*%
X26416000Y-8380000D03*
X26416000Y-9400000D03*
%TD*%
D24*
%TO.C,C8*%
X42954000Y-7874000D03*
X43914000Y-7874000D03*
%TD*%
D18*
%TO.C,R21*%
X32512000Y-8380000D03*
X32512000Y-9400000D03*
%TD*%
D10*
%TO.C,FL3*%
X49583500Y-10622500D03*
X51508500Y-10622500D03*
X51508500Y-9697500D03*
X49583500Y-9697500D03*
%TD*%
D20*
%TO.C,R6*%
X51562000Y-44767000D03*
X51562000Y-43117000D03*
%TD*%
D18*
%TO.C,R22*%
X33528000Y-8380000D03*
X33528000Y-9400000D03*
%TD*%
D27*
%TO.C,C51*%
X36055000Y-21590000D03*
X37605000Y-21590000D03*
%TD*%
D10*
%TO.C,FL6*%
X49583500Y-28402500D03*
X51508500Y-28402500D03*
X51508500Y-27477500D03*
X49583500Y-27477500D03*
%TD*%
D11*
%TO.C,TR4*%
X44208000Y-13760000D03*
D12*
X44153000Y-14405000D03*
D13*
X44178000Y-16277500D03*
X44178000Y-16662500D03*
D14*
X48253000Y-13875000D03*
D15*
X48303000Y-15905000D03*
D16*
X48243000Y-16690000D03*
%TD*%
D11*
%TO.C,TR2*%
X13958000Y-40596000D03*
D12*
X14013000Y-39951000D03*
D13*
X13988000Y-38078500D03*
X13988000Y-37693500D03*
D14*
X9913000Y-40481000D03*
D15*
X9863000Y-38451000D03*
D16*
X9923000Y-37666000D03*
%TD*%
D28*
%TO.C,U2*%
X48834000Y-3942500D03*
X49784000Y-3942500D03*
X50734000Y-3942500D03*
X50734000Y-6217500D03*
X48834000Y-6217500D03*
%TD*%
D20*
%TO.C,R5*%
X36068000Y-47307000D03*
X36068000Y-45657000D03*
%TD*%
M02*
