M48
; DRILL file {KiCad 7.0.1-0} date 2023 April 03, Monday 11:55:04
; FORMAT={-:-/ absolute / metric / decimal}
; #@! TF.CreationDate,2023-04-03T11:55:04-05:00
; #@! TF.GenerationSoftware,Kicad,Pcbnew,7.0.1-0
; #@! TF.FileFunction,MixedPlating,1,4
FMAT,2
METRIC
; #@! TA.AperFunction,Plated,PTH,ViaDrill
T1C0.203
; #@! TA.AperFunction,Plated,PTH,ViaDrill
T2C0.254
; #@! TA.AperFunction,Plated,PTH,ViaDrill
T3C0.305
; #@! TA.AperFunction,Plated,PTH,ViaDrill
T4C0.406
; #@! TA.AperFunction,Plated,PTH,ViaDrill
T5C0.610
; #@! TA.AperFunction,Plated,PTH,ComponentDrill
T6C0.650
; #@! TA.AperFunction,Plated,PTH,ComponentDrill
T7C0.700
; #@! TA.AperFunction,Plated,PTH,ComponentDrill
T8C1.000
; #@! TA.AperFunction,Plated,PTH,ComponentDrill
T9C1.400
; #@! TA.AperFunction,Plated,PTH,ComponentDrill
T10C2.250
; #@! TA.AperFunction,Plated,PTH,ComponentDrill
T11C2.700
; #@! TA.AperFunction,NonPlated,NPTH,ComponentDrill
T12C1.500
%
G90
G05
T1
X-111.633Y-37.211
X-111.252Y-37.846
X-111.125Y-36.449
X-110.363Y-35.941
X-109.474Y-35.56
X-108.585Y-35.56
X-108.204Y-36.195
X-107.315Y-27.559
X-107.188Y-5.334
X-107.188Y-6.096
X-106.934Y-28.829
X-106.426Y-5.334
X-106.426Y-6.096
X-102.489Y-7.112
X-102.362Y-8.89
X-102.362Y-12.192
X-102.362Y-17.272
X-102.362Y-22.352
X-102.362Y-53.213
X-101.858Y-7.112
X-101.6Y-12.192
X-101.6Y-17.272
X-101.6Y-22.352
X-101.346Y-53.34
X-101.219Y-7.112
X-100.457Y-52.832
X-100.33Y-9.398
X-100.33Y-10.16
X-99.568Y-9.398
X-99.568Y-10.16
X-99.568Y-10.922
X-99.568Y-52.324
X-99.314Y-51.562
X-98.806Y-9.398
X-98.806Y-10.16
X-98.044Y-31.242
X-97.282Y-30.734
X-96.393Y-30.226
X-95.758Y-7.112
X-95.758Y-7.874
X-95.758Y-8.636
X-94.996Y-7.112
X-94.996Y-7.874
X-94.996Y-8.636
X-94.996Y-11.43
X-94.996Y-12.192
X-94.996Y-12.954
X-94.996Y-14.478
X-94.996Y-15.24
X-94.996Y-16.51
X-94.996Y-17.272
X-94.996Y-18.034
X-94.996Y-21.59
X-94.996Y-22.352
X-94.996Y-23.114
X-94.234Y-14.478
X-94.234Y-15.24
X-94.234Y-37.592
X-93.472Y-15.24
X-93.472Y-16.002
X-93.472Y-16.764
X-93.472Y-37.211
X-93.218Y-1.524
X-93.218Y-2.286
X-92.456Y-2.286
X-91.694Y-2.286
X-90.932Y-2.286
X-90.932Y-26.797
X-90.424Y-26.289
X-90.17Y-1.524
X-90.17Y-2.286
X-90.043Y-16.383
X-90.043Y-17.145
X-90.043Y-25.654
X-89.837Y-35.115
X-89.408Y-2.286
X-89.281Y-42.037
X-88.9Y-42.672
X-88.694Y-37.094
X-88.519Y-16.383
X-88.519Y-17.145
X-88.265Y-43.307
X-87.635Y-41.469
X-86.975Y-41.088
X-86.868Y-5.08
X-86.315Y-40.707
X-86.106Y-5.08
X-86.106Y-7.874
X-86.106Y-8.636
X-86.106Y-9.398
X-85.852Y-43.18
X-85.852Y-43.942
X-85.852Y-44.704
X-85.344Y-4.318
X-85.297Y-35.866
X-85.09Y-42.418
X-85.09Y-43.18
X-85.09Y-43.942
X-85.09Y-44.704
X-84.836Y-13.462
X-84.836Y-14.224
X-84.836Y-14.986
X-84.836Y-15.748
X-84.836Y-16.51
X-84.836Y-17.272
X-84.836Y-18.034
X-84.836Y-18.796
X-84.836Y-19.558
X-84.836Y-20.32
X-84.582Y-4.318
X-84.445Y-39.627
X-84.328Y-12.954
X-84.328Y-20.828
X-84.328Y-42.418
X-84.328Y-43.18
X-84.328Y-43.942
X-84.328Y-44.704
X-84.074Y-19.558
X-83.82Y-4.318
X-83.82Y-12.446
X-83.82Y-21.336
X-83.785Y-39.246
X-83.312Y-12.954
X-83.058Y-5.08
X-83.058Y-21.336
X-82.804Y-12.446
X-82.296Y-12.954
X-82.296Y-21.336
X-81.534Y-21.336
X-81.026Y-20.828
X-80.772Y-15.494
X-80.518Y-19.558
X-80.518Y-20.32
X-80.264Y-16.256
X-79.502Y-10.668
X-79.502Y-15.875
X-79.502Y-18.161
X-78.74Y-11.43
X-77.978Y-10.414
X-77.978Y-12.192
X-77.216Y-2.667
X-77.216Y-3.429
X-77.216Y-12.954
X-77.089Y-21.336
X-76.962Y-10.414
X-76.962Y-15.875
X-76.454Y-2.667
X-76.454Y-3.429
X-76.454Y-21.971
X-76.2Y-32.004
X-76.2Y-36.957
X-75.565Y-36.322
X-75.438Y-41.529
X-75.311Y-9.652
X-75.184Y-32.004
X-74.93Y-27.432
X-74.168Y-13.208
X-74.168Y-16.002
X-74.168Y-16.764
X-74.168Y-17.526
X-74.168Y-18.288
X-74.168Y-19.05
X-74.168Y-27.432
X-74.168Y-31.242
X-74.168Y-32.004
X-73.914Y-41.529
X-73.406Y-16.002
X-73.406Y-16.764
X-73.406Y-17.526
X-73.406Y-18.288
X-73.406Y-19.05
X-73.406Y-26.67
X-73.406Y-27.432
X-73.406Y-30.48
X-73.406Y-31.242
X-73.279Y-21.844
X-72.644Y-16.002
X-72.644Y-16.764
X-72.644Y-17.526
X-72.644Y-18.288
X-72.644Y-19.05
X-72.644Y-30.48
X-72.644Y-41.91
X-71.882Y-16.002
X-71.882Y-16.764
X-71.882Y-17.526
X-71.882Y-18.288
X-71.882Y-19.05
X-71.882Y-28.321
X-71.563Y-36.068
X-71.501Y-21.844
X-71.12Y-16.002
X-71.12Y-16.764
X-71.12Y-17.526
X-71.12Y-18.288
X-71.12Y-19.05
X-71.024Y-35.529
X-71.024Y-36.607
X-70.485Y-34.99
X-70.485Y-36.068
X-70.485Y-37.146
X-69.977Y-32.385
X-69.946Y-35.529
X-69.946Y-36.607
X-69.723Y-42.291
X-69.469Y-10.414
X-69.407Y-36.068
X-69.088Y-13.208
X-68.58Y-15.748
X-68.072Y-22.098
X-68.008Y-11.239
X-67.945Y-34.671
X-67.945Y-41.783
X-67.564Y-31.369
X-67.437Y-28.321
X-66.675Y-41.529
X-65.659Y-36.068
X-65.405Y-17.907
X-65.405Y-40.894
X-65.151Y-36.576
X-64.897Y-38.282
X-64.897Y-39.624
X-64.643Y-37.084
X-61.087Y-18.923
X-60.452Y-18.288
X-59.817Y-20.447
X-59.817Y-21.209
X-59.817Y-21.971
X-59.817Y-22.733
X-59.817Y-23.495
X-59.817Y-24.257
X-59.817Y-25.019
X-59.817Y-25.781
X-59.817Y-26.543
X-59.817Y-27.305
X-59.817Y-28.067
X-57.277Y-14.859
X-57.277Y-15.748
X-56.388Y-14.859
X-54.864Y-11.557
X-54.229Y-32.004
X-54.229Y-36.957
X-53.975Y-11.557
X-53.975Y-10.668
X-53.594Y-36.322
X-53.213Y-32.004
X-52.705Y-41.021
X-52.324Y-10.668
X-52.197Y-31.242
X-52.197Y-32.004
X-51.689Y-41.783
X-51.562Y-10.668
X-51.435Y-31.242
X-50.8Y-10.668
X-50.419Y-42.291
X-50.038Y-10.668
X-49.592Y-36.068
X-49.276Y-10.668
X-49.053Y-35.529
X-49.053Y-36.607
X-48.514Y-34.99
X-48.514Y-36.068
X-48.514Y-37.146
X-48.006Y-32.385
X-47.975Y-35.529
X-47.975Y-36.607
X-47.436Y-36.068
X-47.244Y-42.799
X-45.974Y-41.402
X-45.72Y-31.369
X-45.72Y-34.671
X-44.958Y-41.148
X-43.688Y-36.195
X-43.688Y-40.894
X-43.18Y-36.703
X-42.926Y-38.227
X-42.926Y-39.624
X-42.672Y-37.211
X-36.83Y-20.447
X-36.576Y-11.811
X-36.576Y-12.7
X-36.449Y-16.891
X-36.449Y-24.511
X-36.449Y-25.273
X-35.941Y-20.447
X-35.687Y-11.811
X-35.56Y-16.891
X-34.798Y-15.494
X-34.29Y-32.512
X-34.163Y-18.923
X-33.909Y-11.811
X-33.655Y-20.701
X-33.528Y-32.512
X-33.147Y-24.511
X-33.147Y-25.273
X-33.02Y-11.811
X-33.02Y-12.7
X-33.02Y-13.589
X-32.512Y-21.844
X-32.385Y-16.891
X-31.623Y-16.891
X-31.623Y-24.13
X-31.242Y-31.242
X-31.242Y-32.004
X-31.115Y-18.796
X-30.861Y-16.891
X-30.861Y-24.13
X-30.48Y-32.004
X-30.48Y-31.242
X-30.353Y-18.796
X-30.099Y-16.891
X-29.972Y-34.798
X-29.972Y-37.973
X-29.972Y-34.036
X-29.972Y-35.56
X-29.972Y-36.322
X-29.972Y-37.211
X-29.718Y-27.813
X-29.718Y-30.226
X-29.718Y-28.575
X-29.718Y-29.464
X-29.337Y-18.796
X-28.575Y-18.796
X-28.575Y-19.558
X-28.575Y-20.32
X-27.813Y-23.368
X-26.67Y-29.21
X-26.67Y-29.972
X-26.67Y-30.734
X-25.908Y-29.21
X-25.908Y-29.972
X-25.908Y-30.734
X-25.146Y-28.448
X-25.146Y-29.972
X-25.146Y-30.734
X-24.638Y-18.542
X-24.638Y-24.13
X-24.511Y-12.954
X-24.384Y-28.448
X-24.384Y-29.21
X-24.384Y-30.734
X-23.622Y-28.448
X-23.622Y-29.21
X-23.622Y-29.972
X-22.86Y-28.448
X-22.86Y-29.21
X-22.86Y-29.972
X-22.479Y-15.748
X-22.479Y-21.336
X-22.479Y-26.924
X-22.098Y-28.448
X-22.098Y-29.21
X-22.098Y-29.972
X-21.717Y-15.748
X-21.717Y-21.336
X-21.717Y-26.924
X-21.336Y-28.448
X-21.336Y-29.21
X-21.336Y-29.972
X-20.574Y-28.448
X-20.574Y-29.21
X-20.574Y-29.972
X-19.304Y-15.748
X-19.304Y-21.336
X-19.304Y-26.924
X-17.145Y-18.542
X-17.145Y-24.13
X-17.145Y-29.718
X-16.383Y-18.542
X-16.383Y-24.13
X-16.383Y-29.718
T2
X-92.329Y-17.272
X-91.694Y-17.907
X-91.059Y-18.415
X-90.805Y-40.132
X-90.297Y-41.021
X-89.154Y-29.083
X-87.249Y-43.053
X-82.296Y-23.114
X-82.296Y-24.003
X-82.042Y-11.176
X-81.421Y-9.779
X-80.772Y-8.001
X-72.528Y-10.668
X-71.755Y-10.16
X-68.453Y-25.019
X-68.326Y-23.495
X-65.913Y-31.623
X-65.532Y-32.639
X-64.643Y-32.639
X-63.754Y-32.639
X-63.5Y-20.447
X-63.5Y-21.971
X-63.373Y-26.543
X-63.373Y-28.067
X-44.577Y-31.496
X-43.688Y-31.496
X-42.799Y-31.496
X-41.91Y-31.496
X-37.211Y-36.322
X-36.322Y-35.433
X-35.179Y-37.084
X-33.528Y-27.883
X-33.274Y-35.179
X-33.147Y-35.941
X-32.893Y-28.448
X-32.893Y-29.464
X-21.59Y-18.173
X-21.59Y-18.912
X-21.59Y-24.499
X-21.58Y-13.323
X-21.573Y-23.761
X-21.573Y-12.584
T3
X-114.3Y-30.861
X-114.3Y-32.766
X-114.3Y-34.671
X-112.395Y-32.766
X-112.395Y-34.671
X-110.49Y-32.766
X-108.585Y-32.766
X-106.68Y-32.766
X-106.68Y-34.671
X-104.775Y-32.766
X-101.6Y-55.626
X-100.076Y-12.192
X-100.076Y-17.272
X-100.076Y-22.352
X-99.695Y-53.721
X-99.695Y-55.626
X-98.298Y-12.192
X-98.298Y-17.272
X-98.298Y-22.352
X-97.79Y-51.816
X-97.79Y-53.721
X-97.79Y-55.626
X-95.885Y-49.911
X-95.885Y-51.816
X-93.98Y-48.006
X-93.98Y-49.911
X-93.98Y-51.816
X-92.075Y-48.006
X-92.075Y-49.911
X-92.075Y-51.816
X-90.17Y-49.911
X-90.17Y-51.816
X-88.265Y-49.911
X-88.265Y-51.816
X-88.265Y-53.721
X-86.36Y-49.911
X-86.36Y-51.816
X-86.36Y-53.721
X-86.36Y-55.626
X-84.455Y-53.721
X-84.455Y-55.626
X-82.55Y-53.721
X-82.55Y-55.626
X-80.645Y-53.721
X-80.645Y-55.626
X-80.518Y-4.318
X-78.74Y-53.721
X-78.74Y-55.626
X-76.835Y-53.721
X-76.835Y-55.626
X-74.93Y-53.721
X-74.93Y-55.626
X-73.025Y-53.721
X-73.025Y-55.626
X-71.12Y-53.721
X-71.12Y-55.626
X-69.215Y-53.721
X-69.215Y-55.626
X-67.31Y-53.721
X-67.31Y-55.626
X-65.405Y-53.721
X-65.405Y-55.626
X-63.5Y-53.721
X-63.5Y-55.626
X-61.595Y-53.721
X-61.595Y-55.626
X-60.276Y-11.987
X-59.69Y-53.721
X-59.69Y-55.626
X-57.785Y-53.721
X-57.785Y-55.626
X-55.88Y-53.721
X-55.88Y-55.626
X-53.975Y-53.721
X-53.975Y-55.626
X-53.086Y-17.399
X-52.07Y-53.721
X-52.07Y-55.626
X-51.689Y-18.161
X-50.165Y-53.721
X-50.165Y-55.626
X-48.26Y-53.721
X-48.26Y-55.626
X-46.355Y-53.721
X-46.355Y-55.626
X-44.45Y-53.721
X-44.45Y-55.626
X-42.545Y-53.721
X-42.545Y-55.626
X-40.64Y-53.721
X-40.64Y-55.626
X-38.735Y-53.721
X-38.735Y-55.626
X-36.83Y-53.721
X-36.83Y-55.626
X-34.925Y-53.721
X-34.925Y-55.626
X-33.02Y-53.721
X-33.02Y-55.626
X-32.385Y-20.701
X-31.115Y-53.721
X-31.115Y-55.626
X-29.21Y-53.721
X-27.305Y-53.721
X-27.305Y-55.626
X-26.67Y-34.798
X-26.67Y-36.322
X-26.67Y-37.846
X-25.4Y-53.721
X-25.4Y-55.626
X-25.146Y-33.528
X-25.146Y-34.798
X-25.146Y-36.322
X-25.146Y-37.846
X-25.146Y-39.116
X-23.622Y-33.528
X-23.622Y-34.798
X-23.622Y-36.322
X-23.622Y-37.846
X-23.622Y-39.116
X-22.098Y-33.528
X-22.098Y-34.798
X-22.098Y-36.322
X-22.098Y-37.846
X-22.098Y-39.116
X-20.574Y-34.798
X-20.574Y-36.322
X-20.574Y-37.846
X-20.32Y-9.652
X-20.32Y-11.176
X-18.796Y-8.128
X-18.796Y-9.652
X-18.796Y-11.176
X-17.272Y-2.032
X-17.272Y-3.556
X-17.272Y-5.08
X-17.272Y-6.604
X-17.272Y-8.128
X-17.272Y-9.652
X-17.272Y-11.176
X-15.748Y-2.032
X-15.748Y-3.556
X-15.748Y-5.08
X-15.748Y-6.604
X-15.748Y-8.128
X-15.748Y-9.652
X-15.748Y-11.176
X-15.748Y-12.7
X-14.224Y-2.032
X-14.224Y-3.556
X-14.224Y-5.08
X-14.224Y-6.604
X-14.224Y-8.128
X-14.224Y-9.652
X-12.7Y-2.032
X-12.7Y-3.556
X-12.7Y-5.08
X-12.7Y-6.604
X-12.7Y-8.128
X-11.176Y-2.032
X-11.176Y-3.556
X-11.176Y-5.08
X-11.176Y-6.604
X-7.62Y-8.001
X-7.62Y-9.906
X-7.62Y-11.811
X-7.62Y-13.716
X-7.62Y-15.621
X-7.62Y-17.526
X-7.62Y-19.431
X-7.62Y-21.336
X-7.62Y-23.241
X-7.62Y-25.146
X-7.62Y-27.051
X-7.62Y-28.956
X-7.62Y-30.861
X-7.62Y-32.766
X-7.62Y-34.671
X-7.62Y-36.576
X-7.62Y-38.481
X-5.715Y-8.001
X-5.715Y-9.906
X-5.715Y-11.811
X-5.715Y-13.716
X-5.715Y-15.621
X-5.715Y-17.526
X-5.715Y-19.431
X-5.715Y-21.336
X-5.715Y-23.241
X-5.715Y-25.146
X-5.715Y-27.051
X-5.715Y-28.956
X-5.715Y-30.861
X-5.715Y-32.766
X-5.715Y-34.671
X-5.715Y-36.576
X-5.715Y-38.481
X-3.81Y-8.001
X-3.81Y-9.906
X-3.81Y-11.811
X-3.81Y-13.716
X-3.81Y-15.621
X-3.81Y-17.526
X-3.81Y-19.431
X-3.81Y-21.336
X-3.81Y-23.241
X-3.81Y-25.146
X-3.81Y-27.051
X-3.81Y-28.956
X-3.81Y-30.861
X-3.81Y-32.766
X-3.81Y-34.671
X-3.81Y-36.576
X-3.81Y-38.481
T4
X-106.68Y-2.032
X-97.282Y-4.826
T5
X-103.886Y-10.033
X-91.948Y-31.623
X-77.978Y-41.783
X-56.134Y-41.783
T6
X-77.42Y-46.641
X-77.42Y-48.641
X-77.42Y-50.641
X-75.42Y-46.641
X-75.42Y-48.641
X-75.42Y-50.641
X-73.42Y-46.641
X-73.42Y-48.641
X-73.42Y-50.641
X-71.42Y-46.641
X-71.42Y-48.641
X-71.42Y-50.641
X-69.42Y-46.641
X-69.42Y-48.641
X-69.42Y-50.641
X-67.42Y-46.641
X-67.42Y-48.641
X-67.42Y-50.641
X-65.42Y-46.641
X-65.42Y-48.641
X-65.42Y-50.641
X-63.42Y-46.641
X-63.42Y-48.641
X-63.42Y-50.641
X-61.42Y-46.641
X-61.42Y-48.641
X-61.42Y-50.641
X-59.42Y-46.641
X-59.42Y-48.641
X-59.42Y-50.641
X-57.42Y-46.641
X-57.42Y-48.641
X-57.42Y-50.641
X-55.42Y-46.641
X-55.42Y-48.641
X-55.42Y-50.641
X-53.42Y-46.641
X-53.42Y-48.641
X-53.42Y-50.641
X-51.42Y-46.641
X-51.42Y-48.641
X-51.42Y-50.641
X-49.42Y-46.641
X-49.42Y-48.641
X-49.42Y-50.641
X-47.42Y-46.641
X-47.42Y-48.641
X-47.42Y-50.641
X-45.42Y-46.641
X-45.42Y-48.641
X-45.42Y-50.641
X-43.42Y-46.641
X-43.42Y-48.641
X-43.42Y-50.641
X-41.42Y-46.641
X-41.42Y-48.641
X-41.42Y-50.641
X-39.42Y-46.641
X-39.42Y-48.641
X-39.42Y-50.641
T7
X-12.43Y-16.336
X-12.43Y-18.336
X-12.43Y-20.336
X-12.43Y-22.336
X-12.43Y-24.336
X-12.43Y-26.336
X-10.43Y-16.336
X-10.43Y-18.336
X-10.43Y-20.336
X-10.43Y-22.336
X-10.43Y-24.336
X-10.43Y-26.336
T8
X-112.268Y-9.943
X-112.268Y-12.483
X-112.268Y-15.023
X-112.268Y-17.563
X-112.268Y-20.103
X-112.268Y-22.643
X-112.268Y-25.183
X-112.268Y-27.723
X-109.728Y-9.943
X-109.728Y-12.483
X-109.728Y-15.023
X-109.728Y-17.563
X-109.728Y-20.103
X-109.728Y-22.643
X-109.728Y-25.183
X-109.728Y-27.723
X-80.518Y-40.64
X-74.422Y-2.794
X-71.882Y-2.794
X-69.342Y-2.794
X-61.976Y-31.369
X-61.976Y-36.195
X-59.182Y-2.794
X-58.42Y-40.64
X-56.891Y-13.208
X-56.642Y-2.794
X-54.351Y-13.208
X-54.102Y-2.794
X-51.689Y-25.146
X-51.562Y-2.794
X-49.022Y-2.794
X-48.641Y-25.146
X-46.482Y-2.794
X-45.593Y-25.146
X-43.942Y-2.794
X-41.783Y-17.272
X-41.402Y-2.794
X-38.862Y-2.794
X-38.735Y-17.272
X-38.735Y-20.32
X-38.735Y-23.368
X-37.084Y-30.607
X-37.084Y-33.655
X-36.322Y-2.794
X-33.782Y-2.794
X-31.242Y-2.794
X-28.702Y-2.794
X-26.162Y-2.794
X-23.622Y-2.794
X-21.082Y-2.794
T9
X-64.262Y-2.794
T10
X-81.92Y-48.641
X-34.92Y-48.641
X-11.43Y-12.836
X-11.43Y-29.836
T11
X-113.03Y-3.556
X-92.075Y-55.626
X-19.685Y-55.626
X-3.81Y-3.556
T12
X-98.292Y-36.416
X-94.792Y-42.478
T0
M30
