%TF.GenerationSoftware,KiCad,Pcbnew,7.0.1-0*%
%TF.CreationDate,2023-04-03T11:55:14-05:00*%
%TF.ProjectId,plenum,706c656e-756d-42e6-9b69-6361645f7063,1*%
%TF.SameCoordinates,PXc1c9600PY2e063a0*%
%TF.FileFunction,Legend,Bot*%
%TF.FilePolarity,Positive*%
%FSLAX46Y46*%
G04 Gerber Fmt 4.6, Leading zero omitted, Abs format (unit mm)*
G04 Created by KiCad (PCBNEW 7.0.1-0) date 2023-04-03 11:55:14*
%MOMM*%
%LPD*%
G01*
G04 APERTURE LIST*
%ADD10C,0.150000*%
%ADD11C,0.120000*%
G04 APERTURE END LIST*
D10*
%TO.C,R11*%
X-85522381Y-45077142D02*
X-85998572Y-44743809D01*
X-85522381Y-44505714D02*
X-86522381Y-44505714D01*
X-86522381Y-44505714D02*
X-86522381Y-44886666D01*
X-86522381Y-44886666D02*
X-86474762Y-44981904D01*
X-86474762Y-44981904D02*
X-86427143Y-45029523D01*
X-86427143Y-45029523D02*
X-86331905Y-45077142D01*
X-86331905Y-45077142D02*
X-86189048Y-45077142D01*
X-86189048Y-45077142D02*
X-86093810Y-45029523D01*
X-86093810Y-45029523D02*
X-86046191Y-44981904D01*
X-86046191Y-44981904D02*
X-85998572Y-44886666D01*
X-85998572Y-44886666D02*
X-85998572Y-44505714D01*
X-85522381Y-46029523D02*
X-85522381Y-45458095D01*
X-85522381Y-45743809D02*
X-86522381Y-45743809D01*
X-86522381Y-45743809D02*
X-86379524Y-45648571D01*
X-86379524Y-45648571D02*
X-86284286Y-45553333D01*
X-86284286Y-45553333D02*
X-86236667Y-45458095D01*
X-85522381Y-46981904D02*
X-85522381Y-46410476D01*
X-85522381Y-46696190D02*
X-86522381Y-46696190D01*
X-86522381Y-46696190D02*
X-86379524Y-46600952D01*
X-86379524Y-46600952D02*
X-86284286Y-46505714D01*
X-86284286Y-46505714D02*
X-86236667Y-46410476D01*
%TO.C,C32*%
X-73956817Y-35751045D02*
X-73889474Y-35751045D01*
X-73889474Y-35751045D02*
X-73754787Y-35683702D01*
X-73754787Y-35683702D02*
X-73687443Y-35616358D01*
X-73687443Y-35616358D02*
X-73620100Y-35481671D01*
X-73620100Y-35481671D02*
X-73620100Y-35346984D01*
X-73620100Y-35346984D02*
X-73653771Y-35245969D01*
X-73653771Y-35245969D02*
X-73754787Y-35077610D01*
X-73754787Y-35077610D02*
X-73855802Y-34976595D01*
X-73855802Y-34976595D02*
X-74024161Y-34875580D01*
X-74024161Y-34875580D02*
X-74125176Y-34841908D01*
X-74125176Y-34841908D02*
X-74259863Y-34841908D01*
X-74259863Y-34841908D02*
X-74394550Y-34909252D01*
X-74394550Y-34909252D02*
X-74461894Y-34976595D01*
X-74461894Y-34976595D02*
X-74529237Y-35111282D01*
X-74529237Y-35111282D02*
X-74529237Y-35178626D01*
X-74832283Y-35346984D02*
X-75270016Y-35784717D01*
X-75270016Y-35784717D02*
X-74764939Y-35818389D01*
X-74764939Y-35818389D02*
X-74865955Y-35919404D01*
X-74865955Y-35919404D02*
X-74899626Y-36020419D01*
X-74899626Y-36020419D02*
X-74899626Y-36087763D01*
X-74899626Y-36087763D02*
X-74865955Y-36188778D01*
X-74865955Y-36188778D02*
X-74697596Y-36357137D01*
X-74697596Y-36357137D02*
X-74596581Y-36390809D01*
X-74596581Y-36390809D02*
X-74529237Y-36390809D01*
X-74529237Y-36390809D02*
X-74428222Y-36357137D01*
X-74428222Y-36357137D02*
X-74226191Y-36155106D01*
X-74226191Y-36155106D02*
X-74192520Y-36054091D01*
X-74192520Y-36054091D02*
X-74192520Y-35986748D01*
X-75472046Y-36121435D02*
X-75539390Y-36121435D01*
X-75539390Y-36121435D02*
X-75640405Y-36155106D01*
X-75640405Y-36155106D02*
X-75808764Y-36323465D01*
X-75808764Y-36323465D02*
X-75842435Y-36424480D01*
X-75842435Y-36424480D02*
X-75842435Y-36491824D01*
X-75842435Y-36491824D02*
X-75808764Y-36592839D01*
X-75808764Y-36592839D02*
X-75741420Y-36660183D01*
X-75741420Y-36660183D02*
X-75606733Y-36727526D01*
X-75606733Y-36727526D02*
X-74798611Y-36727526D01*
X-74798611Y-36727526D02*
X-75236344Y-37165259D01*
%TO.C,C50*%
X-84603579Y-33905732D02*
X-84538531Y-33923162D01*
X-84538531Y-33923162D02*
X-84391003Y-33892973D01*
X-84391003Y-33892973D02*
X-84308524Y-33845354D01*
X-84308524Y-33845354D02*
X-84208616Y-33732686D01*
X-84208616Y-33732686D02*
X-84173757Y-33602588D01*
X-84173757Y-33602588D02*
X-84180136Y-33496300D01*
X-84180136Y-33496300D02*
X-84234135Y-33307533D01*
X-84234135Y-33307533D02*
X-84305564Y-33183815D01*
X-84305564Y-33183815D02*
X-84442041Y-33042668D01*
X-84442041Y-33042668D02*
X-84530899Y-32983999D01*
X-84530899Y-32983999D02*
X-84660997Y-32949139D01*
X-84660997Y-32949139D02*
X-84808524Y-32979328D01*
X-84808524Y-32979328D02*
X-84891003Y-33026947D01*
X-84891003Y-33026947D02*
X-84990911Y-33139615D01*
X-84990911Y-33139615D02*
X-85008341Y-33204664D01*
X-85839507Y-33574566D02*
X-85427114Y-33336471D01*
X-85427114Y-33336471D02*
X-85147780Y-33725055D01*
X-85147780Y-33725055D02*
X-85212828Y-33707625D01*
X-85212828Y-33707625D02*
X-85319116Y-33714005D01*
X-85319116Y-33714005D02*
X-85525313Y-33833052D01*
X-85525313Y-33833052D02*
X-85583982Y-33921911D01*
X-85583982Y-33921911D02*
X-85601412Y-33986959D01*
X-85601412Y-33986959D02*
X-85595032Y-34093247D01*
X-85595032Y-34093247D02*
X-85475985Y-34299444D01*
X-85475985Y-34299444D02*
X-85387126Y-34358113D01*
X-85387126Y-34358113D02*
X-85322077Y-34375543D01*
X-85322077Y-34375543D02*
X-85215789Y-34369163D01*
X-85215789Y-34369163D02*
X-85009593Y-34250116D01*
X-85009593Y-34250116D02*
X-84950924Y-34161257D01*
X-84950924Y-34161257D02*
X-84933494Y-34096208D01*
X-86416857Y-33907900D02*
X-86499336Y-33955519D01*
X-86499336Y-33955519D02*
X-86558005Y-34044377D01*
X-86558005Y-34044377D02*
X-86575435Y-34109426D01*
X-86575435Y-34109426D02*
X-86569055Y-34215714D01*
X-86569055Y-34215714D02*
X-86515056Y-34404481D01*
X-86515056Y-34404481D02*
X-86396009Y-34610677D01*
X-86396009Y-34610677D02*
X-86259531Y-34751825D01*
X-86259531Y-34751825D02*
X-86170673Y-34810494D01*
X-86170673Y-34810494D02*
X-86105624Y-34827924D01*
X-86105624Y-34827924D02*
X-85999336Y-34821544D01*
X-85999336Y-34821544D02*
X-85916857Y-34773925D01*
X-85916857Y-34773925D02*
X-85858188Y-34685067D01*
X-85858188Y-34685067D02*
X-85840759Y-34620018D01*
X-85840759Y-34620018D02*
X-85847138Y-34513730D01*
X-85847138Y-34513730D02*
X-85901137Y-34324963D01*
X-85901137Y-34324963D02*
X-86020185Y-34118766D01*
X-86020185Y-34118766D02*
X-86156662Y-33977619D01*
X-86156662Y-33977619D02*
X-86245520Y-33918950D01*
X-86245520Y-33918950D02*
X-86310569Y-33901520D01*
X-86310569Y-33901520D02*
X-86416857Y-33907900D01*
%TO.C,C30*%
X-65706654Y-31809208D02*
X-65639311Y-31809208D01*
X-65639311Y-31809208D02*
X-65504624Y-31741865D01*
X-65504624Y-31741865D02*
X-65437280Y-31674521D01*
X-65437280Y-31674521D02*
X-65369937Y-31539834D01*
X-65369937Y-31539834D02*
X-65369937Y-31405147D01*
X-65369937Y-31405147D02*
X-65403608Y-31304132D01*
X-65403608Y-31304132D02*
X-65504624Y-31135773D01*
X-65504624Y-31135773D02*
X-65605639Y-31034758D01*
X-65605639Y-31034758D02*
X-65773998Y-30933743D01*
X-65773998Y-30933743D02*
X-65875013Y-30900071D01*
X-65875013Y-30900071D02*
X-66009700Y-30900071D01*
X-66009700Y-30900071D02*
X-66144387Y-30967415D01*
X-66144387Y-30967415D02*
X-66211731Y-31034758D01*
X-66211731Y-31034758D02*
X-66279074Y-31169445D01*
X-66279074Y-31169445D02*
X-66279074Y-31236789D01*
X-66582120Y-31405147D02*
X-67019853Y-31842880D01*
X-67019853Y-31842880D02*
X-66514776Y-31876552D01*
X-66514776Y-31876552D02*
X-66615792Y-31977567D01*
X-66615792Y-31977567D02*
X-66649463Y-32078582D01*
X-66649463Y-32078582D02*
X-66649463Y-32145926D01*
X-66649463Y-32145926D02*
X-66615792Y-32246941D01*
X-66615792Y-32246941D02*
X-66447433Y-32415300D01*
X-66447433Y-32415300D02*
X-66346418Y-32448972D01*
X-66346418Y-32448972D02*
X-66279074Y-32448972D01*
X-66279074Y-32448972D02*
X-66178059Y-32415300D01*
X-66178059Y-32415300D02*
X-65976028Y-32213269D01*
X-65976028Y-32213269D02*
X-65942357Y-32112254D01*
X-65942357Y-32112254D02*
X-65942357Y-32044911D01*
X-67457585Y-32280613D02*
X-67524929Y-32347956D01*
X-67524929Y-32347956D02*
X-67558601Y-32448972D01*
X-67558601Y-32448972D02*
X-67558601Y-32516315D01*
X-67558601Y-32516315D02*
X-67524929Y-32617330D01*
X-67524929Y-32617330D02*
X-67423914Y-32785689D01*
X-67423914Y-32785689D02*
X-67255555Y-32954048D01*
X-67255555Y-32954048D02*
X-67087196Y-33055063D01*
X-67087196Y-33055063D02*
X-66986181Y-33088735D01*
X-66986181Y-33088735D02*
X-66918837Y-33088735D01*
X-66918837Y-33088735D02*
X-66817822Y-33055063D01*
X-66817822Y-33055063D02*
X-66750479Y-32987720D01*
X-66750479Y-32987720D02*
X-66716807Y-32886704D01*
X-66716807Y-32886704D02*
X-66716807Y-32819361D01*
X-66716807Y-32819361D02*
X-66750479Y-32718346D01*
X-66750479Y-32718346D02*
X-66851494Y-32549987D01*
X-66851494Y-32549987D02*
X-67019853Y-32381628D01*
X-67019853Y-32381628D02*
X-67188211Y-32280613D01*
X-67188211Y-32280613D02*
X-67289227Y-32246941D01*
X-67289227Y-32246941D02*
X-67356570Y-32246941D01*
X-67356570Y-32246941D02*
X-67457585Y-32280613D01*
%TO.C,C33*%
X-51985817Y-35751045D02*
X-51918474Y-35751045D01*
X-51918474Y-35751045D02*
X-51783787Y-35683702D01*
X-51783787Y-35683702D02*
X-51716443Y-35616358D01*
X-51716443Y-35616358D02*
X-51649100Y-35481671D01*
X-51649100Y-35481671D02*
X-51649100Y-35346984D01*
X-51649100Y-35346984D02*
X-51682771Y-35245969D01*
X-51682771Y-35245969D02*
X-51783787Y-35077610D01*
X-51783787Y-35077610D02*
X-51884802Y-34976595D01*
X-51884802Y-34976595D02*
X-52053161Y-34875580D01*
X-52053161Y-34875580D02*
X-52154176Y-34841908D01*
X-52154176Y-34841908D02*
X-52288863Y-34841908D01*
X-52288863Y-34841908D02*
X-52423550Y-34909252D01*
X-52423550Y-34909252D02*
X-52490894Y-34976595D01*
X-52490894Y-34976595D02*
X-52558237Y-35111282D01*
X-52558237Y-35111282D02*
X-52558237Y-35178626D01*
X-52861283Y-35346984D02*
X-53299016Y-35784717D01*
X-53299016Y-35784717D02*
X-52793939Y-35818389D01*
X-52793939Y-35818389D02*
X-52894955Y-35919404D01*
X-52894955Y-35919404D02*
X-52928626Y-36020419D01*
X-52928626Y-36020419D02*
X-52928626Y-36087763D01*
X-52928626Y-36087763D02*
X-52894955Y-36188778D01*
X-52894955Y-36188778D02*
X-52726596Y-36357137D01*
X-52726596Y-36357137D02*
X-52625581Y-36390809D01*
X-52625581Y-36390809D02*
X-52558237Y-36390809D01*
X-52558237Y-36390809D02*
X-52457222Y-36357137D01*
X-52457222Y-36357137D02*
X-52255191Y-36155106D01*
X-52255191Y-36155106D02*
X-52221520Y-36054091D01*
X-52221520Y-36054091D02*
X-52221520Y-35986748D01*
X-53534718Y-36020419D02*
X-53972451Y-36458152D01*
X-53972451Y-36458152D02*
X-53467374Y-36491824D01*
X-53467374Y-36491824D02*
X-53568390Y-36592839D01*
X-53568390Y-36592839D02*
X-53602061Y-36693854D01*
X-53602061Y-36693854D02*
X-53602061Y-36761198D01*
X-53602061Y-36761198D02*
X-53568390Y-36862213D01*
X-53568390Y-36862213D02*
X-53400031Y-37030572D01*
X-53400031Y-37030572D02*
X-53299016Y-37064244D01*
X-53299016Y-37064244D02*
X-53231672Y-37064244D01*
X-53231672Y-37064244D02*
X-53130657Y-37030572D01*
X-53130657Y-37030572D02*
X-52928626Y-36828541D01*
X-52928626Y-36828541D02*
X-52894955Y-36727526D01*
X-52894955Y-36727526D02*
X-52894955Y-36660183D01*
%TO.C,C6*%
X-70244620Y-23328333D02*
X-70197000Y-23280714D01*
X-70197000Y-23280714D02*
X-70149381Y-23137857D01*
X-70149381Y-23137857D02*
X-70149381Y-23042619D01*
X-70149381Y-23042619D02*
X-70197000Y-22899762D01*
X-70197000Y-22899762D02*
X-70292239Y-22804524D01*
X-70292239Y-22804524D02*
X-70387477Y-22756905D01*
X-70387477Y-22756905D02*
X-70577953Y-22709286D01*
X-70577953Y-22709286D02*
X-70720810Y-22709286D01*
X-70720810Y-22709286D02*
X-70911286Y-22756905D01*
X-70911286Y-22756905D02*
X-71006524Y-22804524D01*
X-71006524Y-22804524D02*
X-71101762Y-22899762D01*
X-71101762Y-22899762D02*
X-71149381Y-23042619D01*
X-71149381Y-23042619D02*
X-71149381Y-23137857D01*
X-71149381Y-23137857D02*
X-71101762Y-23280714D01*
X-71101762Y-23280714D02*
X-71054143Y-23328333D01*
X-71149381Y-24185476D02*
X-71149381Y-23995000D01*
X-71149381Y-23995000D02*
X-71101762Y-23899762D01*
X-71101762Y-23899762D02*
X-71054143Y-23852143D01*
X-71054143Y-23852143D02*
X-70911286Y-23756905D01*
X-70911286Y-23756905D02*
X-70720810Y-23709286D01*
X-70720810Y-23709286D02*
X-70339858Y-23709286D01*
X-70339858Y-23709286D02*
X-70244620Y-23756905D01*
X-70244620Y-23756905D02*
X-70197000Y-23804524D01*
X-70197000Y-23804524D02*
X-70149381Y-23899762D01*
X-70149381Y-23899762D02*
X-70149381Y-24090238D01*
X-70149381Y-24090238D02*
X-70197000Y-24185476D01*
X-70197000Y-24185476D02*
X-70244620Y-24233095D01*
X-70244620Y-24233095D02*
X-70339858Y-24280714D01*
X-70339858Y-24280714D02*
X-70577953Y-24280714D01*
X-70577953Y-24280714D02*
X-70673191Y-24233095D01*
X-70673191Y-24233095D02*
X-70720810Y-24185476D01*
X-70720810Y-24185476D02*
X-70768429Y-24090238D01*
X-70768429Y-24090238D02*
X-70768429Y-23899762D01*
X-70768429Y-23899762D02*
X-70720810Y-23804524D01*
X-70720810Y-23804524D02*
X-70673191Y-23756905D01*
X-70673191Y-23756905D02*
X-70577953Y-23709286D01*
%TO.C,C10*%
X-78478143Y-19417380D02*
X-78430524Y-19465000D01*
X-78430524Y-19465000D02*
X-78287667Y-19512619D01*
X-78287667Y-19512619D02*
X-78192429Y-19512619D01*
X-78192429Y-19512619D02*
X-78049572Y-19465000D01*
X-78049572Y-19465000D02*
X-77954334Y-19369761D01*
X-77954334Y-19369761D02*
X-77906715Y-19274523D01*
X-77906715Y-19274523D02*
X-77859096Y-19084047D01*
X-77859096Y-19084047D02*
X-77859096Y-18941190D01*
X-77859096Y-18941190D02*
X-77906715Y-18750714D01*
X-77906715Y-18750714D02*
X-77954334Y-18655476D01*
X-77954334Y-18655476D02*
X-78049572Y-18560238D01*
X-78049572Y-18560238D02*
X-78192429Y-18512619D01*
X-78192429Y-18512619D02*
X-78287667Y-18512619D01*
X-78287667Y-18512619D02*
X-78430524Y-18560238D01*
X-78430524Y-18560238D02*
X-78478143Y-18607857D01*
X-79430524Y-19512619D02*
X-78859096Y-19512619D01*
X-79144810Y-19512619D02*
X-79144810Y-18512619D01*
X-79144810Y-18512619D02*
X-79049572Y-18655476D01*
X-79049572Y-18655476D02*
X-78954334Y-18750714D01*
X-78954334Y-18750714D02*
X-78859096Y-18798333D01*
X-80049572Y-18512619D02*
X-80144810Y-18512619D01*
X-80144810Y-18512619D02*
X-80240048Y-18560238D01*
X-80240048Y-18560238D02*
X-80287667Y-18607857D01*
X-80287667Y-18607857D02*
X-80335286Y-18703095D01*
X-80335286Y-18703095D02*
X-80382905Y-18893571D01*
X-80382905Y-18893571D02*
X-80382905Y-19131666D01*
X-80382905Y-19131666D02*
X-80335286Y-19322142D01*
X-80335286Y-19322142D02*
X-80287667Y-19417380D01*
X-80287667Y-19417380D02*
X-80240048Y-19465000D01*
X-80240048Y-19465000D02*
X-80144810Y-19512619D01*
X-80144810Y-19512619D02*
X-80049572Y-19512619D01*
X-80049572Y-19512619D02*
X-79954334Y-19465000D01*
X-79954334Y-19465000D02*
X-79906715Y-19417380D01*
X-79906715Y-19417380D02*
X-79859096Y-19322142D01*
X-79859096Y-19322142D02*
X-79811477Y-19131666D01*
X-79811477Y-19131666D02*
X-79811477Y-18893571D01*
X-79811477Y-18893571D02*
X-79859096Y-18703095D01*
X-79859096Y-18703095D02*
X-79906715Y-18607857D01*
X-79906715Y-18607857D02*
X-79954334Y-18560238D01*
X-79954334Y-18560238D02*
X-80049572Y-18512619D01*
%TO.C,C36*%
X-66722654Y-30793207D02*
X-66655311Y-30793207D01*
X-66655311Y-30793207D02*
X-66520624Y-30725864D01*
X-66520624Y-30725864D02*
X-66453280Y-30658520D01*
X-66453280Y-30658520D02*
X-66385937Y-30523833D01*
X-66385937Y-30523833D02*
X-66385937Y-30389146D01*
X-66385937Y-30389146D02*
X-66419608Y-30288131D01*
X-66419608Y-30288131D02*
X-66520624Y-30119772D01*
X-66520624Y-30119772D02*
X-66621639Y-30018757D01*
X-66621639Y-30018757D02*
X-66789998Y-29917742D01*
X-66789998Y-29917742D02*
X-66891013Y-29884070D01*
X-66891013Y-29884070D02*
X-67025700Y-29884070D01*
X-67025700Y-29884070D02*
X-67160387Y-29951414D01*
X-67160387Y-29951414D02*
X-67227731Y-30018757D01*
X-67227731Y-30018757D02*
X-67295074Y-30153444D01*
X-67295074Y-30153444D02*
X-67295074Y-30220788D01*
X-67598120Y-30389146D02*
X-68035853Y-30826879D01*
X-68035853Y-30826879D02*
X-67530776Y-30860551D01*
X-67530776Y-30860551D02*
X-67631792Y-30961566D01*
X-67631792Y-30961566D02*
X-67665463Y-31062581D01*
X-67665463Y-31062581D02*
X-67665463Y-31129925D01*
X-67665463Y-31129925D02*
X-67631792Y-31230940D01*
X-67631792Y-31230940D02*
X-67463433Y-31399299D01*
X-67463433Y-31399299D02*
X-67362418Y-31432971D01*
X-67362418Y-31432971D02*
X-67295074Y-31432971D01*
X-67295074Y-31432971D02*
X-67194059Y-31399299D01*
X-67194059Y-31399299D02*
X-66992028Y-31197268D01*
X-66992028Y-31197268D02*
X-66958357Y-31096253D01*
X-66958357Y-31096253D02*
X-66958357Y-31028910D01*
X-68641944Y-31432971D02*
X-68507257Y-31298284D01*
X-68507257Y-31298284D02*
X-68406242Y-31264612D01*
X-68406242Y-31264612D02*
X-68338898Y-31264612D01*
X-68338898Y-31264612D02*
X-68170540Y-31298284D01*
X-68170540Y-31298284D02*
X-68002181Y-31399299D01*
X-68002181Y-31399299D02*
X-67732807Y-31668673D01*
X-67732807Y-31668673D02*
X-67699135Y-31769688D01*
X-67699135Y-31769688D02*
X-67699135Y-31837032D01*
X-67699135Y-31837032D02*
X-67732807Y-31938047D01*
X-67732807Y-31938047D02*
X-67867494Y-32072734D01*
X-67867494Y-32072734D02*
X-67968509Y-32106406D01*
X-67968509Y-32106406D02*
X-68035853Y-32106406D01*
X-68035853Y-32106406D02*
X-68136868Y-32072734D01*
X-68136868Y-32072734D02*
X-68305227Y-31904375D01*
X-68305227Y-31904375D02*
X-68338898Y-31803360D01*
X-68338898Y-31803360D02*
X-68338898Y-31736016D01*
X-68338898Y-31736016D02*
X-68305227Y-31635001D01*
X-68305227Y-31635001D02*
X-68170540Y-31500314D01*
X-68170540Y-31500314D02*
X-68069524Y-31466642D01*
X-68069524Y-31466642D02*
X-68002181Y-31466642D01*
X-68002181Y-31466642D02*
X-67901166Y-31500314D01*
%TO.C,C9*%
X-73800620Y-23328333D02*
X-73753000Y-23280714D01*
X-73753000Y-23280714D02*
X-73705381Y-23137857D01*
X-73705381Y-23137857D02*
X-73705381Y-23042619D01*
X-73705381Y-23042619D02*
X-73753000Y-22899762D01*
X-73753000Y-22899762D02*
X-73848239Y-22804524D01*
X-73848239Y-22804524D02*
X-73943477Y-22756905D01*
X-73943477Y-22756905D02*
X-74133953Y-22709286D01*
X-74133953Y-22709286D02*
X-74276810Y-22709286D01*
X-74276810Y-22709286D02*
X-74467286Y-22756905D01*
X-74467286Y-22756905D02*
X-74562524Y-22804524D01*
X-74562524Y-22804524D02*
X-74657762Y-22899762D01*
X-74657762Y-22899762D02*
X-74705381Y-23042619D01*
X-74705381Y-23042619D02*
X-74705381Y-23137857D01*
X-74705381Y-23137857D02*
X-74657762Y-23280714D01*
X-74657762Y-23280714D02*
X-74610143Y-23328333D01*
X-73705381Y-23804524D02*
X-73705381Y-23995000D01*
X-73705381Y-23995000D02*
X-73753000Y-24090238D01*
X-73753000Y-24090238D02*
X-73800620Y-24137857D01*
X-73800620Y-24137857D02*
X-73943477Y-24233095D01*
X-73943477Y-24233095D02*
X-74133953Y-24280714D01*
X-74133953Y-24280714D02*
X-74514905Y-24280714D01*
X-74514905Y-24280714D02*
X-74610143Y-24233095D01*
X-74610143Y-24233095D02*
X-74657762Y-24185476D01*
X-74657762Y-24185476D02*
X-74705381Y-24090238D01*
X-74705381Y-24090238D02*
X-74705381Y-23899762D01*
X-74705381Y-23899762D02*
X-74657762Y-23804524D01*
X-74657762Y-23804524D02*
X-74610143Y-23756905D01*
X-74610143Y-23756905D02*
X-74514905Y-23709286D01*
X-74514905Y-23709286D02*
X-74276810Y-23709286D01*
X-74276810Y-23709286D02*
X-74181572Y-23756905D01*
X-74181572Y-23756905D02*
X-74133953Y-23804524D01*
X-74133953Y-23804524D02*
X-74086334Y-23899762D01*
X-74086334Y-23899762D02*
X-74086334Y-24090238D01*
X-74086334Y-24090238D02*
X-74133953Y-24185476D01*
X-74133953Y-24185476D02*
X-74181572Y-24233095D01*
X-74181572Y-24233095D02*
X-74276810Y-24280714D01*
%TO.C,C49*%
X-98228579Y-31414585D02*
X-98163531Y-31432015D01*
X-98163531Y-31432015D02*
X-98016003Y-31401826D01*
X-98016003Y-31401826D02*
X-97933524Y-31354207D01*
X-97933524Y-31354207D02*
X-97833616Y-31241539D01*
X-97833616Y-31241539D02*
X-97798757Y-31111441D01*
X-97798757Y-31111441D02*
X-97805136Y-31005153D01*
X-97805136Y-31005153D02*
X-97859135Y-30816386D01*
X-97859135Y-30816386D02*
X-97930564Y-30692668D01*
X-97930564Y-30692668D02*
X-98067041Y-30551521D01*
X-98067041Y-30551521D02*
X-98155899Y-30492852D01*
X-98155899Y-30492852D02*
X-98285997Y-30457992D01*
X-98285997Y-30457992D02*
X-98433524Y-30488181D01*
X-98433524Y-30488181D02*
X-98516003Y-30535800D01*
X-98516003Y-30535800D02*
X-98615911Y-30648468D01*
X-98615911Y-30648468D02*
X-98633341Y-30713517D01*
X-99256601Y-31348285D02*
X-98923268Y-31925635D01*
X-99240881Y-30899323D02*
X-98677541Y-31398865D01*
X-98677541Y-31398865D02*
X-99213652Y-31708389D01*
X-99418140Y-32211349D02*
X-99583097Y-32306588D01*
X-99583097Y-32306588D02*
X-99689385Y-32312967D01*
X-99689385Y-32312967D02*
X-99754434Y-32295538D01*
X-99754434Y-32295538D02*
X-99908341Y-32219439D01*
X-99908341Y-32219439D02*
X-100044818Y-32078291D01*
X-100044818Y-32078291D02*
X-100235294Y-31748377D01*
X-100235294Y-31748377D02*
X-100241674Y-31642088D01*
X-100241674Y-31642088D02*
X-100224244Y-31577040D01*
X-100224244Y-31577040D02*
X-100165575Y-31488181D01*
X-100165575Y-31488181D02*
X-100000618Y-31392943D01*
X-100000618Y-31392943D02*
X-99894330Y-31386563D01*
X-99894330Y-31386563D02*
X-99829281Y-31403993D01*
X-99829281Y-31403993D02*
X-99740423Y-31462662D01*
X-99740423Y-31462662D02*
X-99621375Y-31668859D01*
X-99621375Y-31668859D02*
X-99614995Y-31775147D01*
X-99614995Y-31775147D02*
X-99632425Y-31840196D01*
X-99632425Y-31840196D02*
X-99691094Y-31929054D01*
X-99691094Y-31929054D02*
X-99856052Y-32024292D01*
X-99856052Y-32024292D02*
X-99962340Y-32030672D01*
X-99962340Y-32030672D02*
X-100027388Y-32013242D01*
X-100027388Y-32013242D02*
X-100116247Y-31954573D01*
%TO.C,R8*%
X-90810354Y-38544306D02*
X-90759774Y-37965247D01*
X-90315482Y-38258592D02*
X-90815482Y-37392567D01*
X-90815482Y-37392567D02*
X-91145397Y-37583043D01*
X-91145397Y-37583043D02*
X-91204066Y-37671901D01*
X-91204066Y-37671901D02*
X-91221495Y-37736950D01*
X-91221495Y-37736950D02*
X-91215116Y-37843238D01*
X-91215116Y-37843238D02*
X-91143687Y-37966956D01*
X-91143687Y-37966956D02*
X-91054829Y-38025625D01*
X-91054829Y-38025625D02*
X-90989780Y-38043055D01*
X-90989780Y-38043055D02*
X-90883492Y-38036675D01*
X-90883492Y-38036675D02*
X-90553577Y-37846199D01*
X-91590940Y-38335149D02*
X-91532271Y-38246291D01*
X-91532271Y-38246291D02*
X-91514841Y-38181242D01*
X-91514841Y-38181242D02*
X-91521221Y-38074954D01*
X-91521221Y-38074954D02*
X-91545030Y-38033714D01*
X-91545030Y-38033714D02*
X-91633889Y-37975045D01*
X-91633889Y-37975045D02*
X-91698937Y-37957615D01*
X-91698937Y-37957615D02*
X-91805225Y-37963995D01*
X-91805225Y-37963995D02*
X-91970183Y-38059233D01*
X-91970183Y-38059233D02*
X-92028852Y-38148092D01*
X-92028852Y-38148092D02*
X-92046282Y-38213140D01*
X-92046282Y-38213140D02*
X-92039902Y-38319429D01*
X-92039902Y-38319429D02*
X-92016092Y-38360668D01*
X-92016092Y-38360668D02*
X-91927234Y-38419337D01*
X-91927234Y-38419337D02*
X-91862185Y-38436767D01*
X-91862185Y-38436767D02*
X-91755897Y-38430387D01*
X-91755897Y-38430387D02*
X-91590940Y-38335149D01*
X-91590940Y-38335149D02*
X-91484652Y-38328769D01*
X-91484652Y-38328769D02*
X-91419603Y-38346199D01*
X-91419603Y-38346199D02*
X-91330744Y-38404868D01*
X-91330744Y-38404868D02*
X-91235506Y-38569825D01*
X-91235506Y-38569825D02*
X-91229127Y-38676113D01*
X-91229127Y-38676113D02*
X-91246556Y-38741162D01*
X-91246556Y-38741162D02*
X-91305225Y-38830021D01*
X-91305225Y-38830021D02*
X-91470183Y-38925259D01*
X-91470183Y-38925259D02*
X-91576471Y-38931638D01*
X-91576471Y-38931638D02*
X-91641520Y-38914209D01*
X-91641520Y-38914209D02*
X-91730378Y-38855540D01*
X-91730378Y-38855540D02*
X-91825616Y-38690582D01*
X-91825616Y-38690582D02*
X-91831996Y-38584294D01*
X-91831996Y-38584294D02*
X-91814566Y-38519245D01*
X-91814566Y-38519245D02*
X-91755897Y-38430387D01*
%TO.C,C37*%
X-44751655Y-30793208D02*
X-44684312Y-30793208D01*
X-44684312Y-30793208D02*
X-44549625Y-30725865D01*
X-44549625Y-30725865D02*
X-44482281Y-30658521D01*
X-44482281Y-30658521D02*
X-44414938Y-30523834D01*
X-44414938Y-30523834D02*
X-44414938Y-30389147D01*
X-44414938Y-30389147D02*
X-44448609Y-30288132D01*
X-44448609Y-30288132D02*
X-44549625Y-30119773D01*
X-44549625Y-30119773D02*
X-44650640Y-30018758D01*
X-44650640Y-30018758D02*
X-44818999Y-29917743D01*
X-44818999Y-29917743D02*
X-44920014Y-29884071D01*
X-44920014Y-29884071D02*
X-45054701Y-29884071D01*
X-45054701Y-29884071D02*
X-45189388Y-29951415D01*
X-45189388Y-29951415D02*
X-45256732Y-30018758D01*
X-45256732Y-30018758D02*
X-45324075Y-30153445D01*
X-45324075Y-30153445D02*
X-45324075Y-30220789D01*
X-45627121Y-30389147D02*
X-46064854Y-30826880D01*
X-46064854Y-30826880D02*
X-45559777Y-30860552D01*
X-45559777Y-30860552D02*
X-45660793Y-30961567D01*
X-45660793Y-30961567D02*
X-45694464Y-31062582D01*
X-45694464Y-31062582D02*
X-45694464Y-31129926D01*
X-45694464Y-31129926D02*
X-45660793Y-31230941D01*
X-45660793Y-31230941D02*
X-45492434Y-31399300D01*
X-45492434Y-31399300D02*
X-45391419Y-31432972D01*
X-45391419Y-31432972D02*
X-45324075Y-31432972D01*
X-45324075Y-31432972D02*
X-45223060Y-31399300D01*
X-45223060Y-31399300D02*
X-45021029Y-31197269D01*
X-45021029Y-31197269D02*
X-44987358Y-31096254D01*
X-44987358Y-31096254D02*
X-44987358Y-31028911D01*
X-46300556Y-31062582D02*
X-46771960Y-31533987D01*
X-46771960Y-31533987D02*
X-45761808Y-31938048D01*
%TO.C,C28*%
X-67738654Y-29904209D02*
X-67671311Y-29904209D01*
X-67671311Y-29904209D02*
X-67536624Y-29836866D01*
X-67536624Y-29836866D02*
X-67469280Y-29769522D01*
X-67469280Y-29769522D02*
X-67401937Y-29634835D01*
X-67401937Y-29634835D02*
X-67401937Y-29500148D01*
X-67401937Y-29500148D02*
X-67435608Y-29399133D01*
X-67435608Y-29399133D02*
X-67536624Y-29230774D01*
X-67536624Y-29230774D02*
X-67637639Y-29129759D01*
X-67637639Y-29129759D02*
X-67805998Y-29028744D01*
X-67805998Y-29028744D02*
X-67907013Y-28995072D01*
X-67907013Y-28995072D02*
X-68041700Y-28995072D01*
X-68041700Y-28995072D02*
X-68176387Y-29062416D01*
X-68176387Y-29062416D02*
X-68243731Y-29129759D01*
X-68243731Y-29129759D02*
X-68311074Y-29264446D01*
X-68311074Y-29264446D02*
X-68311074Y-29331790D01*
X-68580448Y-29601164D02*
X-68647792Y-29601164D01*
X-68647792Y-29601164D02*
X-68748807Y-29634835D01*
X-68748807Y-29634835D02*
X-68917166Y-29803194D01*
X-68917166Y-29803194D02*
X-68950837Y-29904209D01*
X-68950837Y-29904209D02*
X-68950837Y-29971553D01*
X-68950837Y-29971553D02*
X-68917166Y-30072568D01*
X-68917166Y-30072568D02*
X-68849822Y-30139912D01*
X-68849822Y-30139912D02*
X-68715135Y-30207255D01*
X-68715135Y-30207255D02*
X-67907013Y-30207255D01*
X-67907013Y-30207255D02*
X-68344746Y-30644988D01*
X-69152868Y-30644988D02*
X-69119196Y-30543973D01*
X-69119196Y-30543973D02*
X-69119196Y-30476629D01*
X-69119196Y-30476629D02*
X-69152868Y-30375614D01*
X-69152868Y-30375614D02*
X-69186540Y-30341942D01*
X-69186540Y-30341942D02*
X-69287555Y-30308270D01*
X-69287555Y-30308270D02*
X-69354898Y-30308270D01*
X-69354898Y-30308270D02*
X-69455914Y-30341942D01*
X-69455914Y-30341942D02*
X-69590601Y-30476629D01*
X-69590601Y-30476629D02*
X-69624272Y-30577644D01*
X-69624272Y-30577644D02*
X-69624272Y-30644988D01*
X-69624272Y-30644988D02*
X-69590601Y-30746003D01*
X-69590601Y-30746003D02*
X-69556929Y-30779675D01*
X-69556929Y-30779675D02*
X-69455914Y-30813347D01*
X-69455914Y-30813347D02*
X-69388570Y-30813347D01*
X-69388570Y-30813347D02*
X-69287555Y-30779675D01*
X-69287555Y-30779675D02*
X-69152868Y-30644988D01*
X-69152868Y-30644988D02*
X-69051853Y-30611316D01*
X-69051853Y-30611316D02*
X-68984509Y-30611316D01*
X-68984509Y-30611316D02*
X-68883494Y-30644988D01*
X-68883494Y-30644988D02*
X-68748807Y-30779675D01*
X-68748807Y-30779675D02*
X-68715135Y-30880690D01*
X-68715135Y-30880690D02*
X-68715135Y-30948034D01*
X-68715135Y-30948034D02*
X-68748807Y-31049049D01*
X-68748807Y-31049049D02*
X-68883494Y-31183736D01*
X-68883494Y-31183736D02*
X-68984509Y-31217408D01*
X-68984509Y-31217408D02*
X-69051853Y-31217408D01*
X-69051853Y-31217408D02*
X-69152868Y-31183736D01*
X-69152868Y-31183736D02*
X-69287555Y-31049049D01*
X-69287555Y-31049049D02*
X-69321227Y-30948034D01*
X-69321227Y-30948034D02*
X-69321227Y-30880690D01*
X-69321227Y-30880690D02*
X-69287555Y-30779675D01*
%TO.C,C4*%
X-78573334Y-15353380D02*
X-78525715Y-15401000D01*
X-78525715Y-15401000D02*
X-78382858Y-15448619D01*
X-78382858Y-15448619D02*
X-78287620Y-15448619D01*
X-78287620Y-15448619D02*
X-78144763Y-15401000D01*
X-78144763Y-15401000D02*
X-78049525Y-15305761D01*
X-78049525Y-15305761D02*
X-78001906Y-15210523D01*
X-78001906Y-15210523D02*
X-77954287Y-15020047D01*
X-77954287Y-15020047D02*
X-77954287Y-14877190D01*
X-77954287Y-14877190D02*
X-78001906Y-14686714D01*
X-78001906Y-14686714D02*
X-78049525Y-14591476D01*
X-78049525Y-14591476D02*
X-78144763Y-14496238D01*
X-78144763Y-14496238D02*
X-78287620Y-14448619D01*
X-78287620Y-14448619D02*
X-78382858Y-14448619D01*
X-78382858Y-14448619D02*
X-78525715Y-14496238D01*
X-78525715Y-14496238D02*
X-78573334Y-14543857D01*
X-79430477Y-14781952D02*
X-79430477Y-15448619D01*
X-79192382Y-14401000D02*
X-78954287Y-15115285D01*
X-78954287Y-15115285D02*
X-79573334Y-15115285D01*
%TO.C,C54*%
X-65524143Y-17131380D02*
X-65476524Y-17179000D01*
X-65476524Y-17179000D02*
X-65333667Y-17226619D01*
X-65333667Y-17226619D02*
X-65238429Y-17226619D01*
X-65238429Y-17226619D02*
X-65095572Y-17179000D01*
X-65095572Y-17179000D02*
X-65000334Y-17083761D01*
X-65000334Y-17083761D02*
X-64952715Y-16988523D01*
X-64952715Y-16988523D02*
X-64905096Y-16798047D01*
X-64905096Y-16798047D02*
X-64905096Y-16655190D01*
X-64905096Y-16655190D02*
X-64952715Y-16464714D01*
X-64952715Y-16464714D02*
X-65000334Y-16369476D01*
X-65000334Y-16369476D02*
X-65095572Y-16274238D01*
X-65095572Y-16274238D02*
X-65238429Y-16226619D01*
X-65238429Y-16226619D02*
X-65333667Y-16226619D01*
X-65333667Y-16226619D02*
X-65476524Y-16274238D01*
X-65476524Y-16274238D02*
X-65524143Y-16321857D01*
X-66428905Y-16226619D02*
X-65952715Y-16226619D01*
X-65952715Y-16226619D02*
X-65905096Y-16702809D01*
X-65905096Y-16702809D02*
X-65952715Y-16655190D01*
X-65952715Y-16655190D02*
X-66047953Y-16607571D01*
X-66047953Y-16607571D02*
X-66286048Y-16607571D01*
X-66286048Y-16607571D02*
X-66381286Y-16655190D01*
X-66381286Y-16655190D02*
X-66428905Y-16702809D01*
X-66428905Y-16702809D02*
X-66476524Y-16798047D01*
X-66476524Y-16798047D02*
X-66476524Y-17036142D01*
X-66476524Y-17036142D02*
X-66428905Y-17131380D01*
X-66428905Y-17131380D02*
X-66381286Y-17179000D01*
X-66381286Y-17179000D02*
X-66286048Y-17226619D01*
X-66286048Y-17226619D02*
X-66047953Y-17226619D01*
X-66047953Y-17226619D02*
X-65952715Y-17179000D01*
X-65952715Y-17179000D02*
X-65905096Y-17131380D01*
X-67333667Y-16559952D02*
X-67333667Y-17226619D01*
X-67095572Y-16179000D02*
X-66857477Y-16893285D01*
X-66857477Y-16893285D02*
X-67476524Y-16893285D01*
%TO.C,C8*%
X-78573334Y-17131380D02*
X-78525715Y-17179000D01*
X-78525715Y-17179000D02*
X-78382858Y-17226619D01*
X-78382858Y-17226619D02*
X-78287620Y-17226619D01*
X-78287620Y-17226619D02*
X-78144763Y-17179000D01*
X-78144763Y-17179000D02*
X-78049525Y-17083761D01*
X-78049525Y-17083761D02*
X-78001906Y-16988523D01*
X-78001906Y-16988523D02*
X-77954287Y-16798047D01*
X-77954287Y-16798047D02*
X-77954287Y-16655190D01*
X-77954287Y-16655190D02*
X-78001906Y-16464714D01*
X-78001906Y-16464714D02*
X-78049525Y-16369476D01*
X-78049525Y-16369476D02*
X-78144763Y-16274238D01*
X-78144763Y-16274238D02*
X-78287620Y-16226619D01*
X-78287620Y-16226619D02*
X-78382858Y-16226619D01*
X-78382858Y-16226619D02*
X-78525715Y-16274238D01*
X-78525715Y-16274238D02*
X-78573334Y-16321857D01*
X-79144763Y-16655190D02*
X-79049525Y-16607571D01*
X-79049525Y-16607571D02*
X-79001906Y-16559952D01*
X-79001906Y-16559952D02*
X-78954287Y-16464714D01*
X-78954287Y-16464714D02*
X-78954287Y-16417095D01*
X-78954287Y-16417095D02*
X-79001906Y-16321857D01*
X-79001906Y-16321857D02*
X-79049525Y-16274238D01*
X-79049525Y-16274238D02*
X-79144763Y-16226619D01*
X-79144763Y-16226619D02*
X-79335239Y-16226619D01*
X-79335239Y-16226619D02*
X-79430477Y-16274238D01*
X-79430477Y-16274238D02*
X-79478096Y-16321857D01*
X-79478096Y-16321857D02*
X-79525715Y-16417095D01*
X-79525715Y-16417095D02*
X-79525715Y-16464714D01*
X-79525715Y-16464714D02*
X-79478096Y-16559952D01*
X-79478096Y-16559952D02*
X-79430477Y-16607571D01*
X-79430477Y-16607571D02*
X-79335239Y-16655190D01*
X-79335239Y-16655190D02*
X-79144763Y-16655190D01*
X-79144763Y-16655190D02*
X-79049525Y-16702809D01*
X-79049525Y-16702809D02*
X-79001906Y-16750428D01*
X-79001906Y-16750428D02*
X-78954287Y-16845666D01*
X-78954287Y-16845666D02*
X-78954287Y-17036142D01*
X-78954287Y-17036142D02*
X-79001906Y-17131380D01*
X-79001906Y-17131380D02*
X-79049525Y-17179000D01*
X-79049525Y-17179000D02*
X-79144763Y-17226619D01*
X-79144763Y-17226619D02*
X-79335239Y-17226619D01*
X-79335239Y-17226619D02*
X-79430477Y-17179000D01*
X-79430477Y-17179000D02*
X-79478096Y-17131380D01*
X-79478096Y-17131380D02*
X-79525715Y-17036142D01*
X-79525715Y-17036142D02*
X-79525715Y-16845666D01*
X-79525715Y-16845666D02*
X-79478096Y-16750428D01*
X-79478096Y-16750428D02*
X-79430477Y-16702809D01*
X-79430477Y-16702809D02*
X-79335239Y-16655190D01*
%TO.C,C29*%
X-45767653Y-29650208D02*
X-45700310Y-29650208D01*
X-45700310Y-29650208D02*
X-45565623Y-29582865D01*
X-45565623Y-29582865D02*
X-45498279Y-29515521D01*
X-45498279Y-29515521D02*
X-45430936Y-29380834D01*
X-45430936Y-29380834D02*
X-45430936Y-29246147D01*
X-45430936Y-29246147D02*
X-45464607Y-29145132D01*
X-45464607Y-29145132D02*
X-45565623Y-28976773D01*
X-45565623Y-28976773D02*
X-45666638Y-28875758D01*
X-45666638Y-28875758D02*
X-45834997Y-28774743D01*
X-45834997Y-28774743D02*
X-45936012Y-28741071D01*
X-45936012Y-28741071D02*
X-46070699Y-28741071D01*
X-46070699Y-28741071D02*
X-46205386Y-28808415D01*
X-46205386Y-28808415D02*
X-46272730Y-28875758D01*
X-46272730Y-28875758D02*
X-46340073Y-29010445D01*
X-46340073Y-29010445D02*
X-46340073Y-29077789D01*
X-46609447Y-29347163D02*
X-46676791Y-29347163D01*
X-46676791Y-29347163D02*
X-46777806Y-29380834D01*
X-46777806Y-29380834D02*
X-46946165Y-29549193D01*
X-46946165Y-29549193D02*
X-46979836Y-29650208D01*
X-46979836Y-29650208D02*
X-46979836Y-29717552D01*
X-46979836Y-29717552D02*
X-46946165Y-29818567D01*
X-46946165Y-29818567D02*
X-46878821Y-29885911D01*
X-46878821Y-29885911D02*
X-46744134Y-29953254D01*
X-46744134Y-29953254D02*
X-45936012Y-29953254D01*
X-45936012Y-29953254D02*
X-46373745Y-30390987D01*
X-46710462Y-30727704D02*
X-46845149Y-30862391D01*
X-46845149Y-30862391D02*
X-46946165Y-30896063D01*
X-46946165Y-30896063D02*
X-47013508Y-30896063D01*
X-47013508Y-30896063D02*
X-47181867Y-30862391D01*
X-47181867Y-30862391D02*
X-47350226Y-30761376D01*
X-47350226Y-30761376D02*
X-47619600Y-30492002D01*
X-47619600Y-30492002D02*
X-47653271Y-30390987D01*
X-47653271Y-30390987D02*
X-47653271Y-30323643D01*
X-47653271Y-30323643D02*
X-47619600Y-30222628D01*
X-47619600Y-30222628D02*
X-47484913Y-30087941D01*
X-47484913Y-30087941D02*
X-47383897Y-30054269D01*
X-47383897Y-30054269D02*
X-47316554Y-30054269D01*
X-47316554Y-30054269D02*
X-47215539Y-30087941D01*
X-47215539Y-30087941D02*
X-47047180Y-30256300D01*
X-47047180Y-30256300D02*
X-47013508Y-30357315D01*
X-47013508Y-30357315D02*
X-47013508Y-30424659D01*
X-47013508Y-30424659D02*
X-47047180Y-30525674D01*
X-47047180Y-30525674D02*
X-47181867Y-30660361D01*
X-47181867Y-30660361D02*
X-47282882Y-30694033D01*
X-47282882Y-30694033D02*
X-47350226Y-30694033D01*
X-47350226Y-30694033D02*
X-47451241Y-30660361D01*
%TO.C,R26*%
X-51099381Y-5453142D02*
X-51575572Y-5119809D01*
X-51099381Y-4881714D02*
X-52099381Y-4881714D01*
X-52099381Y-4881714D02*
X-52099381Y-5262666D01*
X-52099381Y-5262666D02*
X-52051762Y-5357904D01*
X-52051762Y-5357904D02*
X-52004143Y-5405523D01*
X-52004143Y-5405523D02*
X-51908905Y-5453142D01*
X-51908905Y-5453142D02*
X-51766048Y-5453142D01*
X-51766048Y-5453142D02*
X-51670810Y-5405523D01*
X-51670810Y-5405523D02*
X-51623191Y-5357904D01*
X-51623191Y-5357904D02*
X-51575572Y-5262666D01*
X-51575572Y-5262666D02*
X-51575572Y-4881714D01*
X-52004143Y-5834095D02*
X-52051762Y-5881714D01*
X-52051762Y-5881714D02*
X-52099381Y-5976952D01*
X-52099381Y-5976952D02*
X-52099381Y-6215047D01*
X-52099381Y-6215047D02*
X-52051762Y-6310285D01*
X-52051762Y-6310285D02*
X-52004143Y-6357904D01*
X-52004143Y-6357904D02*
X-51908905Y-6405523D01*
X-51908905Y-6405523D02*
X-51813667Y-6405523D01*
X-51813667Y-6405523D02*
X-51670810Y-6357904D01*
X-51670810Y-6357904D02*
X-51099381Y-5786476D01*
X-51099381Y-5786476D02*
X-51099381Y-6405523D01*
X-52099381Y-7262666D02*
X-52099381Y-7072190D01*
X-52099381Y-7072190D02*
X-52051762Y-6976952D01*
X-52051762Y-6976952D02*
X-52004143Y-6929333D01*
X-52004143Y-6929333D02*
X-51861286Y-6834095D01*
X-51861286Y-6834095D02*
X-51670810Y-6786476D01*
X-51670810Y-6786476D02*
X-51289858Y-6786476D01*
X-51289858Y-6786476D02*
X-51194620Y-6834095D01*
X-51194620Y-6834095D02*
X-51147000Y-6881714D01*
X-51147000Y-6881714D02*
X-51099381Y-6976952D01*
X-51099381Y-6976952D02*
X-51099381Y-7167428D01*
X-51099381Y-7167428D02*
X-51147000Y-7262666D01*
X-51147000Y-7262666D02*
X-51194620Y-7310285D01*
X-51194620Y-7310285D02*
X-51289858Y-7357904D01*
X-51289858Y-7357904D02*
X-51527953Y-7357904D01*
X-51527953Y-7357904D02*
X-51623191Y-7310285D01*
X-51623191Y-7310285D02*
X-51670810Y-7262666D01*
X-51670810Y-7262666D02*
X-51718429Y-7167428D01*
X-51718429Y-7167428D02*
X-51718429Y-6976952D01*
X-51718429Y-6976952D02*
X-51670810Y-6881714D01*
X-51670810Y-6881714D02*
X-51623191Y-6834095D01*
X-51623191Y-6834095D02*
X-51527953Y-6786476D01*
%TO.C,C5*%
X-71895620Y-23328333D02*
X-71848000Y-23280714D01*
X-71848000Y-23280714D02*
X-71800381Y-23137857D01*
X-71800381Y-23137857D02*
X-71800381Y-23042619D01*
X-71800381Y-23042619D02*
X-71848000Y-22899762D01*
X-71848000Y-22899762D02*
X-71943239Y-22804524D01*
X-71943239Y-22804524D02*
X-72038477Y-22756905D01*
X-72038477Y-22756905D02*
X-72228953Y-22709286D01*
X-72228953Y-22709286D02*
X-72371810Y-22709286D01*
X-72371810Y-22709286D02*
X-72562286Y-22756905D01*
X-72562286Y-22756905D02*
X-72657524Y-22804524D01*
X-72657524Y-22804524D02*
X-72752762Y-22899762D01*
X-72752762Y-22899762D02*
X-72800381Y-23042619D01*
X-72800381Y-23042619D02*
X-72800381Y-23137857D01*
X-72800381Y-23137857D02*
X-72752762Y-23280714D01*
X-72752762Y-23280714D02*
X-72705143Y-23328333D01*
X-72800381Y-24233095D02*
X-72800381Y-23756905D01*
X-72800381Y-23756905D02*
X-72324191Y-23709286D01*
X-72324191Y-23709286D02*
X-72371810Y-23756905D01*
X-72371810Y-23756905D02*
X-72419429Y-23852143D01*
X-72419429Y-23852143D02*
X-72419429Y-24090238D01*
X-72419429Y-24090238D02*
X-72371810Y-24185476D01*
X-72371810Y-24185476D02*
X-72324191Y-24233095D01*
X-72324191Y-24233095D02*
X-72228953Y-24280714D01*
X-72228953Y-24280714D02*
X-71990858Y-24280714D01*
X-71990858Y-24280714D02*
X-71895620Y-24233095D01*
X-71895620Y-24233095D02*
X-71848000Y-24185476D01*
X-71848000Y-24185476D02*
X-71800381Y-24090238D01*
X-71800381Y-24090238D02*
X-71800381Y-23852143D01*
X-71800381Y-23852143D02*
X-71848000Y-23756905D01*
X-71848000Y-23756905D02*
X-71895620Y-23709286D01*
%TO.C,C51*%
X-81936579Y-36191732D02*
X-81871531Y-36209162D01*
X-81871531Y-36209162D02*
X-81724003Y-36178973D01*
X-81724003Y-36178973D02*
X-81641524Y-36131354D01*
X-81641524Y-36131354D02*
X-81541616Y-36018686D01*
X-81541616Y-36018686D02*
X-81506757Y-35888588D01*
X-81506757Y-35888588D02*
X-81513136Y-35782300D01*
X-81513136Y-35782300D02*
X-81567135Y-35593533D01*
X-81567135Y-35593533D02*
X-81638564Y-35469815D01*
X-81638564Y-35469815D02*
X-81775041Y-35328668D01*
X-81775041Y-35328668D02*
X-81863899Y-35269999D01*
X-81863899Y-35269999D02*
X-81993997Y-35235139D01*
X-81993997Y-35235139D02*
X-82141524Y-35265328D01*
X-82141524Y-35265328D02*
X-82224003Y-35312947D01*
X-82224003Y-35312947D02*
X-82323911Y-35425615D01*
X-82323911Y-35425615D02*
X-82341341Y-35490664D01*
X-83172507Y-35860566D02*
X-82760114Y-35622471D01*
X-82760114Y-35622471D02*
X-82480780Y-36011055D01*
X-82480780Y-36011055D02*
X-82545828Y-35993625D01*
X-82545828Y-35993625D02*
X-82652116Y-36000005D01*
X-82652116Y-36000005D02*
X-82858313Y-36119052D01*
X-82858313Y-36119052D02*
X-82916982Y-36207911D01*
X-82916982Y-36207911D02*
X-82934412Y-36272959D01*
X-82934412Y-36272959D02*
X-82928032Y-36379247D01*
X-82928032Y-36379247D02*
X-82808985Y-36585444D01*
X-82808985Y-36585444D02*
X-82720126Y-36644113D01*
X-82720126Y-36644113D02*
X-82655077Y-36661543D01*
X-82655077Y-36661543D02*
X-82548789Y-36655163D01*
X-82548789Y-36655163D02*
X-82342593Y-36536116D01*
X-82342593Y-36536116D02*
X-82283924Y-36447257D01*
X-82283924Y-36447257D02*
X-82266494Y-36382208D01*
X-83538533Y-37226592D02*
X-83043661Y-36940877D01*
X-83291097Y-37083735D02*
X-83791097Y-36217709D01*
X-83791097Y-36217709D02*
X-83637190Y-36293808D01*
X-83637190Y-36293808D02*
X-83507092Y-36328668D01*
X-83507092Y-36328668D02*
X-83400804Y-36322288D01*
%TO.C,R9*%
X-89032354Y-42862306D02*
X-88981774Y-42283247D01*
X-88537482Y-42576592D02*
X-89037482Y-41710567D01*
X-89037482Y-41710567D02*
X-89367397Y-41901043D01*
X-89367397Y-41901043D02*
X-89426066Y-41989901D01*
X-89426066Y-41989901D02*
X-89443495Y-42054950D01*
X-89443495Y-42054950D02*
X-89437116Y-42161238D01*
X-89437116Y-42161238D02*
X-89365687Y-42284956D01*
X-89365687Y-42284956D02*
X-89276829Y-42343625D01*
X-89276829Y-42343625D02*
X-89211780Y-42361055D01*
X-89211780Y-42361055D02*
X-89105492Y-42354675D01*
X-89105492Y-42354675D02*
X-88775577Y-42164199D01*
X-89444747Y-43100401D02*
X-89609704Y-43195640D01*
X-89609704Y-43195640D02*
X-89715992Y-43202019D01*
X-89715992Y-43202019D02*
X-89781041Y-43184590D01*
X-89781041Y-43184590D02*
X-89934948Y-43108491D01*
X-89934948Y-43108491D02*
X-90071426Y-42967343D01*
X-90071426Y-42967343D02*
X-90261902Y-42637429D01*
X-90261902Y-42637429D02*
X-90268282Y-42531140D01*
X-90268282Y-42531140D02*
X-90250852Y-42466092D01*
X-90250852Y-42466092D02*
X-90192183Y-42377233D01*
X-90192183Y-42377233D02*
X-90027225Y-42281995D01*
X-90027225Y-42281995D02*
X-89920937Y-42275615D01*
X-89920937Y-42275615D02*
X-89855889Y-42293045D01*
X-89855889Y-42293045D02*
X-89767030Y-42351714D01*
X-89767030Y-42351714D02*
X-89647983Y-42557911D01*
X-89647983Y-42557911D02*
X-89641603Y-42664199D01*
X-89641603Y-42664199D02*
X-89659033Y-42729248D01*
X-89659033Y-42729248D02*
X-89717702Y-42818106D01*
X-89717702Y-42818106D02*
X-89882659Y-42913344D01*
X-89882659Y-42913344D02*
X-89988947Y-42919724D01*
X-89988947Y-42919724D02*
X-90053996Y-42902294D01*
X-90053996Y-42902294D02*
X-90142854Y-42843625D01*
%TO.C,C11*%
X-71006620Y-13327142D02*
X-70959000Y-13279523D01*
X-70959000Y-13279523D02*
X-70911381Y-13136666D01*
X-70911381Y-13136666D02*
X-70911381Y-13041428D01*
X-70911381Y-13041428D02*
X-70959000Y-12898571D01*
X-70959000Y-12898571D02*
X-71054239Y-12803333D01*
X-71054239Y-12803333D02*
X-71149477Y-12755714D01*
X-71149477Y-12755714D02*
X-71339953Y-12708095D01*
X-71339953Y-12708095D02*
X-71482810Y-12708095D01*
X-71482810Y-12708095D02*
X-71673286Y-12755714D01*
X-71673286Y-12755714D02*
X-71768524Y-12803333D01*
X-71768524Y-12803333D02*
X-71863762Y-12898571D01*
X-71863762Y-12898571D02*
X-71911381Y-13041428D01*
X-71911381Y-13041428D02*
X-71911381Y-13136666D01*
X-71911381Y-13136666D02*
X-71863762Y-13279523D01*
X-71863762Y-13279523D02*
X-71816143Y-13327142D01*
X-70911381Y-14279523D02*
X-70911381Y-13708095D01*
X-70911381Y-13993809D02*
X-71911381Y-13993809D01*
X-71911381Y-13993809D02*
X-71768524Y-13898571D01*
X-71768524Y-13898571D02*
X-71673286Y-13803333D01*
X-71673286Y-13803333D02*
X-71625667Y-13708095D01*
X-70911381Y-15231904D02*
X-70911381Y-14660476D01*
X-70911381Y-14946190D02*
X-71911381Y-14946190D01*
X-71911381Y-14946190D02*
X-71768524Y-14850952D01*
X-71768524Y-14850952D02*
X-71673286Y-14755714D01*
X-71673286Y-14755714D02*
X-71625667Y-14660476D01*
%TO.C,C7*%
X-74214620Y-13803333D02*
X-74167000Y-13755714D01*
X-74167000Y-13755714D02*
X-74119381Y-13612857D01*
X-74119381Y-13612857D02*
X-74119381Y-13517619D01*
X-74119381Y-13517619D02*
X-74167000Y-13374762D01*
X-74167000Y-13374762D02*
X-74262239Y-13279524D01*
X-74262239Y-13279524D02*
X-74357477Y-13231905D01*
X-74357477Y-13231905D02*
X-74547953Y-13184286D01*
X-74547953Y-13184286D02*
X-74690810Y-13184286D01*
X-74690810Y-13184286D02*
X-74881286Y-13231905D01*
X-74881286Y-13231905D02*
X-74976524Y-13279524D01*
X-74976524Y-13279524D02*
X-75071762Y-13374762D01*
X-75071762Y-13374762D02*
X-75119381Y-13517619D01*
X-75119381Y-13517619D02*
X-75119381Y-13612857D01*
X-75119381Y-13612857D02*
X-75071762Y-13755714D01*
X-75071762Y-13755714D02*
X-75024143Y-13803333D01*
X-75119381Y-14136667D02*
X-75119381Y-14803333D01*
X-75119381Y-14803333D02*
X-74119381Y-14374762D01*
%TO.C,R25*%
X-49575381Y-5453142D02*
X-50051572Y-5119809D01*
X-49575381Y-4881714D02*
X-50575381Y-4881714D01*
X-50575381Y-4881714D02*
X-50575381Y-5262666D01*
X-50575381Y-5262666D02*
X-50527762Y-5357904D01*
X-50527762Y-5357904D02*
X-50480143Y-5405523D01*
X-50480143Y-5405523D02*
X-50384905Y-5453142D01*
X-50384905Y-5453142D02*
X-50242048Y-5453142D01*
X-50242048Y-5453142D02*
X-50146810Y-5405523D01*
X-50146810Y-5405523D02*
X-50099191Y-5357904D01*
X-50099191Y-5357904D02*
X-50051572Y-5262666D01*
X-50051572Y-5262666D02*
X-50051572Y-4881714D01*
X-50480143Y-5834095D02*
X-50527762Y-5881714D01*
X-50527762Y-5881714D02*
X-50575381Y-5976952D01*
X-50575381Y-5976952D02*
X-50575381Y-6215047D01*
X-50575381Y-6215047D02*
X-50527762Y-6310285D01*
X-50527762Y-6310285D02*
X-50480143Y-6357904D01*
X-50480143Y-6357904D02*
X-50384905Y-6405523D01*
X-50384905Y-6405523D02*
X-50289667Y-6405523D01*
X-50289667Y-6405523D02*
X-50146810Y-6357904D01*
X-50146810Y-6357904D02*
X-49575381Y-5786476D01*
X-49575381Y-5786476D02*
X-49575381Y-6405523D01*
X-50575381Y-7310285D02*
X-50575381Y-6834095D01*
X-50575381Y-6834095D02*
X-50099191Y-6786476D01*
X-50099191Y-6786476D02*
X-50146810Y-6834095D01*
X-50146810Y-6834095D02*
X-50194429Y-6929333D01*
X-50194429Y-6929333D02*
X-50194429Y-7167428D01*
X-50194429Y-7167428D02*
X-50146810Y-7262666D01*
X-50146810Y-7262666D02*
X-50099191Y-7310285D01*
X-50099191Y-7310285D02*
X-50003953Y-7357904D01*
X-50003953Y-7357904D02*
X-49765858Y-7357904D01*
X-49765858Y-7357904D02*
X-49670620Y-7310285D01*
X-49670620Y-7310285D02*
X-49623000Y-7262666D01*
X-49623000Y-7262666D02*
X-49575381Y-7167428D01*
X-49575381Y-7167428D02*
X-49575381Y-6929333D01*
X-49575381Y-6929333D02*
X-49623000Y-6834095D01*
X-49623000Y-6834095D02*
X-49670620Y-6786476D01*
%TO.C,C31*%
X-43735654Y-31936208D02*
X-43668311Y-31936208D01*
X-43668311Y-31936208D02*
X-43533624Y-31868865D01*
X-43533624Y-31868865D02*
X-43466280Y-31801521D01*
X-43466280Y-31801521D02*
X-43398937Y-31666834D01*
X-43398937Y-31666834D02*
X-43398937Y-31532147D01*
X-43398937Y-31532147D02*
X-43432608Y-31431132D01*
X-43432608Y-31431132D02*
X-43533624Y-31262773D01*
X-43533624Y-31262773D02*
X-43634639Y-31161758D01*
X-43634639Y-31161758D02*
X-43802998Y-31060743D01*
X-43802998Y-31060743D02*
X-43904013Y-31027071D01*
X-43904013Y-31027071D02*
X-44038700Y-31027071D01*
X-44038700Y-31027071D02*
X-44173387Y-31094415D01*
X-44173387Y-31094415D02*
X-44240731Y-31161758D01*
X-44240731Y-31161758D02*
X-44308074Y-31296445D01*
X-44308074Y-31296445D02*
X-44308074Y-31363789D01*
X-44611120Y-31532147D02*
X-45048853Y-31969880D01*
X-45048853Y-31969880D02*
X-44543776Y-32003552D01*
X-44543776Y-32003552D02*
X-44644792Y-32104567D01*
X-44644792Y-32104567D02*
X-44678463Y-32205582D01*
X-44678463Y-32205582D02*
X-44678463Y-32272926D01*
X-44678463Y-32272926D02*
X-44644792Y-32373941D01*
X-44644792Y-32373941D02*
X-44476433Y-32542300D01*
X-44476433Y-32542300D02*
X-44375418Y-32575972D01*
X-44375418Y-32575972D02*
X-44308074Y-32575972D01*
X-44308074Y-32575972D02*
X-44207059Y-32542300D01*
X-44207059Y-32542300D02*
X-44005028Y-32340269D01*
X-44005028Y-32340269D02*
X-43971357Y-32239254D01*
X-43971357Y-32239254D02*
X-43971357Y-32171911D01*
X-45015181Y-33350422D02*
X-44611120Y-32946361D01*
X-44813150Y-33148391D02*
X-45520257Y-32441285D01*
X-45520257Y-32441285D02*
X-45351898Y-32474956D01*
X-45351898Y-32474956D02*
X-45217211Y-32474956D01*
X-45217211Y-32474956D02*
X-45116196Y-32441285D01*
D11*
%TO.C,R11*%
X-89620000Y-46443737D02*
X-89620000Y-44996263D01*
X-86910000Y-46443737D02*
X-86910000Y-44996263D01*
%TO.C,C32*%
X-73199970Y-37218219D02*
X-73398781Y-37417030D01*
X-73921219Y-36496970D02*
X-74120030Y-36695781D01*
%TO.C,C50*%
X-89896229Y-35418016D02*
X-88664305Y-34706764D01*
X-88986229Y-36994182D02*
X-87754305Y-36282930D01*
%TO.C,C30*%
X-68870379Y-33799047D02*
X-68671568Y-33600236D01*
X-68149130Y-34520296D02*
X-67950319Y-34321485D01*
%TO.C,C33*%
X-51228970Y-37218219D02*
X-51427781Y-37417030D01*
X-51950219Y-36496970D02*
X-52149030Y-36695781D01*
%TO.C,C6*%
X-71122000Y-21222580D02*
X-71122000Y-20941420D01*
X-70102000Y-21222580D02*
X-70102000Y-20941420D01*
%TO.C,C10*%
X-76340580Y-18540000D02*
X-76059420Y-18540000D01*
X-76340580Y-19560000D02*
X-76059420Y-19560000D01*
%TO.C,C36*%
X-69948010Y-32721417D02*
X-69749199Y-32522606D01*
X-69226761Y-33442666D02*
X-69027950Y-33243855D01*
%TO.C,C9*%
X-74678000Y-21222580D02*
X-74678000Y-20941420D01*
X-73658000Y-21222580D02*
X-73658000Y-20941420D01*
%TO.C,C49*%
X-96973038Y-33452457D02*
X-98204962Y-34163709D01*
X-97883038Y-31876291D02*
X-99114962Y-32587543D01*
%TO.C,R8*%
X-88306279Y-40846869D02*
X-88717221Y-41084127D01*
X-88828779Y-39941873D02*
X-89239721Y-40179131D01*
%TO.C,C37*%
X-47882257Y-32739351D02*
X-47683446Y-32540540D01*
X-47161008Y-33460600D02*
X-46962197Y-33261789D01*
%TO.C,C28*%
X-70945030Y-31742781D02*
X-70746219Y-31543970D01*
X-70223781Y-32464030D02*
X-70024970Y-32265219D01*
%TO.C,J2*%
X-108398000Y-29052830D02*
X-113598000Y-29052830D01*
X-108398000Y-11212830D02*
X-108398000Y-29052830D01*
X-108398000Y-11212830D02*
X-110998000Y-11212830D01*
X-108398000Y-9942830D02*
X-108398000Y-8612830D01*
X-108398000Y-8612830D02*
X-109728000Y-8612830D01*
X-110998000Y-11212830D02*
X-110998000Y-8612830D01*
X-110998000Y-8612830D02*
X-113598000Y-8612830D01*
X-113598000Y-8612830D02*
X-113598000Y-29052830D01*
%TO.C,C4*%
X-76340580Y-14476000D02*
X-76059420Y-14476000D01*
X-76340580Y-15496000D02*
X-76059420Y-15496000D01*
%TO.C,C54*%
X-68947420Y-17274000D02*
X-69228580Y-17274000D01*
X-68947420Y-16254000D02*
X-69228580Y-16254000D01*
%TO.C,C8*%
X-76340580Y-16254000D02*
X-76059420Y-16254000D01*
X-76340580Y-17274000D02*
X-76059420Y-17274000D01*
%TO.C,C29*%
X-48950695Y-31652528D02*
X-48751884Y-31453717D01*
X-48229446Y-32373777D02*
X-48030635Y-32174966D01*
%TO.C,R26*%
X-51039500Y-8652742D02*
X-51039500Y-9127258D01*
X-52084500Y-8652742D02*
X-52084500Y-9127258D01*
%TO.C,C5*%
X-72900000Y-21222580D02*
X-72900000Y-20941420D01*
X-71880000Y-21222580D02*
X-71880000Y-20941420D01*
%TO.C,C51*%
X-86861905Y-37625617D02*
X-85629981Y-36914365D01*
X-85951905Y-39201783D02*
X-84719981Y-38490531D01*
%TO.C,R9*%
X-90001721Y-38859308D02*
X-89590779Y-38622050D01*
X-89479221Y-39764304D02*
X-89068279Y-39527046D01*
%TO.C,C11*%
X-69594000Y-13829420D02*
X-69594000Y-14110580D01*
X-70614000Y-13829420D02*
X-70614000Y-14110580D01*
%TO.C,C7*%
X-72642000Y-13829420D02*
X-72642000Y-14110580D01*
X-73662000Y-13829420D02*
X-73662000Y-14110580D01*
%TO.C,R25*%
X-49515500Y-8652742D02*
X-49515500Y-9127258D01*
X-50560500Y-8652742D02*
X-50560500Y-9127258D01*
%TO.C,C31*%
X-46804626Y-33816982D02*
X-46605815Y-33618171D01*
X-46083377Y-34538231D02*
X-45884566Y-34339420D01*
%TD*%
M02*
