%TF.GenerationSoftware,KiCad,Pcbnew,7.0.1-0*%
%TF.CreationDate,2023-04-03T11:55:14-05:00*%
%TF.ProjectId,plenum,706c656e-756d-42e6-9b69-6361645f7063,1*%
%TF.SameCoordinates,PXc1c9600PY2e063a0*%
%TF.FileFunction,Paste,Bot*%
%TF.FilePolarity,Positive*%
%FSLAX46Y46*%
G04 Gerber Fmt 4.6, Leading zero omitted, Abs format (unit mm)*
G04 Created by KiCad (PCBNEW 7.0.1-0) date 2023-04-03 11:55:14*
%MOMM*%
%LPD*%
G01*
G04 APERTURE LIST*
G04 Aperture macros list*
%AMRoundRect*
0 Rectangle with rounded corners*
0 $1 Rounding radius*
0 $2 $3 $4 $5 $6 $7 $8 $9 X,Y pos of 4 corners*
0 Add a 4 corners polygon primitive as box body*
4,1,4,$2,$3,$4,$5,$6,$7,$8,$9,$2,$3,0*
0 Add four circle primitives for the rounded corners*
1,1,$1+$1,$2,$3*
1,1,$1+$1,$4,$5*
1,1,$1+$1,$6,$7*
1,1,$1+$1,$8,$9*
0 Add four rect primitives between the rounded corners*
20,1,$1+$1,$2,$3,$4,$5,0*
20,1,$1+$1,$4,$5,$6,$7,0*
20,1,$1+$1,$6,$7,$8,$9,0*
20,1,$1+$1,$8,$9,$2,$3,0*%
G04 Aperture macros list end*
%ADD10RoundRect,0.250000X1.075000X-0.312500X1.075000X0.312500X-1.075000X0.312500X-1.075000X-0.312500X0*%
%ADD11RoundRect,0.225000X-0.017678X0.335876X-0.335876X0.017678X0.017678X-0.335876X0.335876X-0.017678X0*%
%ADD12RoundRect,0.250000X0.043542X-0.725417X0.606458X-0.400417X-0.043542X0.725417X-0.606458X0.400417X0*%
%ADD13RoundRect,0.225000X0.017678X-0.335876X0.335876X-0.017678X-0.017678X0.335876X-0.335876X0.017678X0*%
%ADD14RoundRect,0.225000X0.250000X-0.225000X0.250000X0.225000X-0.250000X0.225000X-0.250000X-0.225000X0*%
%ADD15RoundRect,0.225000X-0.225000X-0.250000X0.225000X-0.250000X0.225000X0.250000X-0.225000X0.250000X0*%
%ADD16RoundRect,0.250000X-0.043542X0.725417X-0.606458X0.400417X0.043542X-0.725417X0.606458X-0.400417X0*%
%ADD17RoundRect,0.200000X0.035705X0.338157X-0.310705X0.138157X-0.035705X-0.338157X0.310705X-0.138157X0*%
%ADD18RoundRect,0.225000X0.225000X0.250000X-0.225000X0.250000X-0.225000X-0.250000X0.225000X-0.250000X0*%
%ADD19RoundRect,0.200000X-0.275000X0.200000X-0.275000X-0.200000X0.275000X-0.200000X0.275000X0.200000X0*%
%ADD20RoundRect,0.200000X-0.035705X-0.338157X0.310705X-0.138157X0.035705X0.338157X-0.310705X0.138157X0*%
%ADD21RoundRect,0.225000X-0.250000X0.225000X-0.250000X-0.225000X0.250000X-0.225000X0.250000X0.225000X0*%
G04 APERTURE END LIST*
D10*
%TO.C,R11*%
X-88265000Y-47182500D03*
X-88265000Y-44257500D03*
%TD*%
D11*
%TO.C,C32*%
X-73111992Y-36408992D03*
X-74208008Y-37505008D03*
%TD*%
D12*
%TO.C,C50*%
X-90102654Y-36587973D03*
X-87547880Y-35112973D03*
%TD*%
D13*
%TO.C,C30*%
X-68958357Y-34608274D03*
X-67862341Y-33512258D03*
%TD*%
D11*
%TO.C,C33*%
X-51140992Y-36408992D03*
X-52237008Y-37505008D03*
%TD*%
D14*
%TO.C,C6*%
X-70612000Y-21857000D03*
X-70612000Y-20307000D03*
%TD*%
D15*
%TO.C,C10*%
X-76975000Y-19050000D03*
X-75425000Y-19050000D03*
%TD*%
D13*
%TO.C,C36*%
X-70035988Y-33530644D03*
X-68939972Y-32434628D03*
%TD*%
D14*
%TO.C,C9*%
X-74168000Y-21857000D03*
X-74168000Y-20307000D03*
%TD*%
D16*
%TO.C,C49*%
X-96766613Y-32282500D03*
X-99321387Y-33757500D03*
%TD*%
D17*
%TO.C,R8*%
X-88058529Y-40100500D03*
X-89487471Y-40925500D03*
%TD*%
D13*
%TO.C,C37*%
X-47970235Y-33548578D03*
X-46874219Y-32452562D03*
%TD*%
%TO.C,C28*%
X-71033008Y-32552008D03*
X-69936992Y-31455992D03*
%TD*%
D15*
%TO.C,C4*%
X-76975000Y-14986000D03*
X-75425000Y-14986000D03*
%TD*%
D18*
%TO.C,C54*%
X-68313000Y-16764000D03*
X-69863000Y-16764000D03*
%TD*%
D15*
%TO.C,C8*%
X-76975000Y-16764000D03*
X-75425000Y-16764000D03*
%TD*%
D13*
%TO.C,C29*%
X-49038673Y-32461755D03*
X-47942657Y-31365739D03*
%TD*%
D19*
%TO.C,R26*%
X-51562000Y-8065000D03*
X-51562000Y-9715000D03*
%TD*%
D14*
%TO.C,C5*%
X-72390000Y-21857000D03*
X-72390000Y-20307000D03*
%TD*%
D12*
%TO.C,C51*%
X-87068330Y-38795574D03*
X-84513556Y-37320574D03*
%TD*%
D20*
%TO.C,R9*%
X-90249471Y-39605677D03*
X-88820529Y-38780677D03*
%TD*%
D21*
%TO.C,C11*%
X-70104000Y-13195000D03*
X-70104000Y-14745000D03*
%TD*%
%TO.C,C7*%
X-73152000Y-13195000D03*
X-73152000Y-14745000D03*
%TD*%
D19*
%TO.C,R25*%
X-50038000Y-8065000D03*
X-50038000Y-9715000D03*
%TD*%
D13*
%TO.C,C31*%
X-46892604Y-34626209D03*
X-45796588Y-33530193D03*
%TD*%
M02*
