M48
; DRILL file {KiCad 7.0.1-0} date 2023 July 14, Friday 11:12:32
; FORMAT={-:-/ absolute / metric / decimal}
; #@! TF.CreationDate,2023-07-14T11:12:32-05:00
; #@! TF.GenerationSoftware,Kicad,Pcbnew,7.0.1-0
; #@! TF.FileFunction,Plated,1,4,PTH
FMAT,2
METRIC
; #@! TA.AperFunction,Plated,PTH,ViaDrill
T1C0.203
; #@! TA.AperFunction,Plated,PTH,ViaDrill
T2C0.254
; #@! TA.AperFunction,Plated,PTH,ViaDrill
T3C0.305
; #@! TA.AperFunction,Plated,PTH,ViaDrill
T4C0.406
; #@! TA.AperFunction,Plated,PTH,ComponentDrill
T5C0.550
; #@! TA.AperFunction,Plated,PTH,ComponentDrill
T6C0.700
; #@! TA.AperFunction,Plated,PTH,ComponentDrill
T7C1.000
; #@! TA.AperFunction,Plated,PTH,ComponentDrill
T8C1.400
; #@! TA.AperFunction,Plated,PTH,ComponentDrill
T9C2.261
; #@! TA.AperFunction,Plated,PTH,ComponentDrill
T10C2.946
%
G90
G05
T1
X-103.124Y-2.032
X-102.489Y-1.397
X-101.727Y-0.762
T2
X-93.472Y-3.81
X-86.868Y-5.842
X-85.73Y-10.55
T3
X-103.773Y2.413
X-103.759Y1.397
X-103.759Y0.381
X-101.219Y-5.207
X-100.33Y4.064
X-99.441Y4.064
X-98.679Y-12.319
X-97.939Y-4.042
X-97.917Y-3.175
X-97.282Y-12.192
X-97.028Y-8.763
X-97.028Y-6.985
X-97.028Y-7.874
X-96.647Y-41.275
X-96.393Y-12.192
X-96.139Y-6.985
X-95.758Y-40.767
X-95.377Y-10.668
X-95.123Y-38.1
X-94.869Y-40.259
X-94.615Y-38.862
X-94.488Y-10.668
X-94.107Y-39.751
X-94.107Y-7.366
X-93.98Y-13.208
X-93.091Y-36.83
X-92.964Y-20.193
X-92.202Y-6.096
X-92.075Y-20.193
X-91.567Y-29.21
X-91.313Y-6.096
X-91.186Y-20.193
X-91.059Y-38.1
X-91.059Y-39.116
X-90.678Y-16.51
X-90.551Y-29.21
X-90.297Y-20.193
X-89.535Y-29.21
X-89.535Y-6.477
X-89.535Y-7.366
X-88.646Y-35.433
X-88.646Y-36.449
X-88.646Y-6.477
X-88.519Y-29.21
X-87.884Y-14.097
X-87.503Y-29.21
X-86.995Y-14.097
X-86.614Y-46.101
X-86.487Y-29.21
X-86.106Y-14.097
X-85.979Y-37.846
X-85.852Y-6.985
X-85.725Y-46.101
X-85.471Y-29.21
X-85.471Y-30.226
X-85.217Y-14.097
X-84.963Y-6.985
X-84.963Y-37.846
X-84.836Y-43.434
X-84.836Y-44.323
X-84.836Y-45.212
X-84.836Y-46.101
X-84.455Y-29.21
X-84.455Y-30.226
X-84.074Y-6.985
X-83.947Y-37.846
X-83.947Y-44.323
X-83.947Y-45.212
X-83.947Y-46.101
X-83.947Y-46.99
X-83.947Y-12.319
X-83.185Y-6.985
X-82.931Y-29.21
X-82.931Y-30.226
X-82.931Y-33.782
X-82.931Y-34.798
X-82.931Y-37.846
X-82.55Y-12.192
X-82.296Y-8.763
X-82.296Y-6.985
X-82.296Y-7.874
X-81.915Y-29.21
X-81.915Y-30.226
X-81.915Y-33.782
X-81.661Y-35.433
X-81.661Y-36.449
X-81.661Y-12.192
X-81.407Y-6.985
X-81.026Y-47.371
X-81.026Y-48.387
X-80.899Y-29.21
X-80.899Y-42.672
X-80.899Y-43.561
X-80.899Y-44.45
X-80.645Y-35.433
X-80.645Y-50.927
X-80.518Y-10.668
X-80.01Y-43.561
X-80.01Y-44.45
X-80.01Y-45.339
X-80.01Y-42.672
X-79.883Y-29.21
X-79.883Y-34.671
X-79.756Y-50.927
X-79.756Y-51.816
X-79.629Y-10.668
X-79.375Y-7.366
X-79.248Y-13.208
X-79.121Y-44.45
X-79.121Y-45.339
X-79.121Y-43.561
X-78.867Y-29.21
X-78.867Y-34.671
X-78.232Y-3.81
X-78.232Y-20.193
X-77.851Y-29.21
X-77.851Y-34.671
X-77.597Y-41.758
X-77.47Y-6.096
X-77.343Y-37.909
X-77.343Y-20.193
X-76.835Y-29.21
X-76.835Y-34.671
X-76.835Y-44.069
X-76.835Y-44.831
X-76.581Y-6.096
X-76.454Y-37.909
X-76.454Y-20.193
X-75.946Y-16.51
X-75.946Y-44.069
X-75.946Y-44.831
X-75.565Y-37.909
X-75.565Y-20.193
X-75.057Y-44.069
X-75.057Y-44.831
X-74.803Y-6.477
X-74.803Y-7.366
X-74.168Y-44.069
X-74.168Y-44.831
X-74.041Y-29.718
X-73.914Y-6.477
X-73.406Y-46.863
X-73.279Y-44.069
X-73.279Y-44.831
X-73.152Y-14.097
X-73.025Y-29.718
X-72.771Y-6.096
X-72.39Y-46.863
X-72.263Y-14.097
X-72.009Y-29.718
X-71.882Y-42.799
X-71.882Y-46.101
X-71.374Y-14.097
X-71.12Y-6.985
X-70.993Y-29.718
X-70.866Y-3.429
X-70.739Y-10.668
X-70.612Y-5.715
X-70.612Y-42.291
X-70.612Y-43.307
X-70.612Y-44.323
X-70.612Y-45.339
X-70.485Y-14.097
X-70.231Y-6.985
X-69.977Y-29.718
X-69.596Y-43.307
X-69.596Y-44.323
X-69.596Y-45.339
X-69.342Y-6.985
X-69.088Y-12.319
X-68.961Y-29.718
X-68.58Y-45.339
X-68.453Y-6.985
X-67.945Y-29.718
X-67.691Y-12.192
X-67.564Y-8.763
X-67.564Y-6.985
X-67.564Y-7.874
X-67.564Y-45.339
X-67.564Y-46.355
X-67.564Y-50.419
X-66.929Y-29.718
X-66.802Y-12.192
X-66.675Y-6.985
X-66.548Y-45.339
X-66.548Y-46.355
X-66.548Y-47.371
X-66.548Y-48.387
X-66.548Y-49.403
X-66.548Y-50.419
X-65.913Y-29.718
X-65.659Y-10.668
X-65.532Y-46.355
X-65.532Y-47.371
X-64.897Y-29.718
X-64.77Y-10.668
X-64.516Y-7.366
X-64.516Y-46.355
X-64.516Y-47.371
X-64.389Y-13.208
X-63.881Y-29.718
X-63.5Y-46.355
X-63.5Y-47.371
X-63.373Y-20.193
X-62.611Y-48.768
X-62.611Y-49.784
X-62.611Y-6.096
X-62.484Y-20.193
X-62.484Y-46.355
X-62.484Y-47.371
X-61.722Y-6.096
X-61.595Y-20.193
X-61.468Y-48.768
X-61.468Y-49.784
X-61.468Y-46.355
X-61.468Y-47.371
X-61.087Y-16.51
X-60.706Y-20.193
X-60.452Y-46.355
X-60.452Y-47.371
X-60.198Y-39.116
X-59.944Y-6.477
X-59.944Y-7.366
X-59.436Y-46.355
X-59.436Y-47.371
X-59.182Y-39.116
X-59.055Y-1.27
X-59.055Y-6.477
X-58.674Y0.381
X-58.42Y-46.355
X-58.42Y-47.371
X-58.293Y-14.097
X-58.166Y-39.116
X-58.166Y-40.132
X-58.166Y-41.148
X-57.785Y1.651
X-57.531Y2.54
X-57.404Y-14.097
X-57.15Y-39.116
X-57.15Y-40.132
X-57.15Y-41.148
X-57.15Y-42.164
X-57.023Y-46.863
X-57.023Y-47.879
X-57.023Y-48.895
X-57.023Y-49.911
X-56.515Y-14.097
X-56.261Y3.785
X-56.261Y-7.62
X-56.261Y-8.509
X-56.007Y-46.863
X-56.007Y-47.879
X-56.007Y-48.895
X-56.007Y-49.911
X-56.007Y-10.414
X-55.626Y-14.097
X-55.372Y2.413
X-55.372Y-4.699
X-55.245Y-7.62
X-55.245Y-8.509
X-54.991Y4.191
X-54.991Y-47.879
X-54.991Y-48.895
X-54.737Y-10.414
X-54.61Y-55.372
X-54.61Y-56.388
X-53.848Y2.667
X-53.848Y-39.878
X-53.848Y-40.894
X-53.848Y-41.91
X-53.848Y-42.926
X-53.848Y-9.271
X-53.721Y-10.414
X-53.594Y-55.372
X-53.594Y-56.388
X-52.832Y-40.894
X-52.832Y-41.91
X-52.832Y-42.926
X-52.832Y-43.942
X-52.578Y3.556
X-52.578Y-50.927
X-52.578Y-51.943
X-52.578Y-55.372
X-52.578Y-56.388
X-51.816Y-7.493
X-51.816Y-8.382
X-51.689Y-1.27
X-51.682Y-12.193
X-51.562Y-48.641
X-51.562Y-50.927
X-51.562Y-56.388
X-50.793Y-12.193
X-50.673Y-31.369
X-50.546Y-48.641
X-50.546Y-49.657
X-50.546Y-50.927
X-50.546Y-56.388
X-49.657Y-31.369
X-49.657Y-32.385
X-49.53Y-12.319
X-49.53Y-48.641
X-49.53Y-49.657
X-49.53Y-50.927
X-49.53Y-56.388
X-48.641Y-31.369
X-48.641Y-32.385
X-48.514Y-5.715
X-48.514Y-48.641
X-48.514Y-49.657
X-48.514Y-50.927
X-48.514Y-51.943
X-48.514Y-52.959
X-48.514Y-55.372
X-48.514Y-56.388
X-48.133Y-12.192
X-48.133Y-7.112
X-48.133Y-8.001
X-47.964Y-41.402
X-47.625Y-31.369
X-47.625Y-32.385
X-47.625Y-33.401
X-47.244Y-12.192
X-47.244Y-7.112
X-46.846Y-38.038
X-46.846Y-39.363
X-46.609Y-31.369
X-46.101Y-10.668
X-45.298Y-38.038
X-45.298Y-39.363
X-45.212Y-10.668
X-44.958Y-7.112
X-44.831Y-13.208
X-44.069Y-46.863
X-44.069Y-47.879
X-43.815Y-20.193
X-43.75Y-38.038
X-43.75Y-39.363
X-43.18Y-35.941
X-43.053Y-5.969
X-43.053Y-41.783
X-43.053Y-46.863
X-43.053Y-47.879
X-43.053Y-48.895
X-43.053Y-42.672
X-42.926Y-20.193
X-42.291Y-35.052
X-42.164Y-5.969
X-42.037Y-20.193
X-42.037Y-42.799
X-42.037Y-43.815
X-42.037Y-44.831
X-42.037Y-45.847
X-42.037Y-46.863
X-42.037Y-47.879
X-42.037Y-48.895
X-41.529Y-16.51
X-41.148Y-20.193
X-41.021Y-44.831
X-41.021Y-45.847
X-40.386Y-6.477
X-40.386Y-7.366
X-40.005Y-44.831
X-40.005Y-45.847
X-39.497Y-6.477
X-38.735Y-14.097
X-37.846Y-14.097
X-36.957Y-14.097
X-36.703Y-6.985
X-36.449Y-10.414
X-36.068Y-14.097
X-35.814Y-6.985
X-34.925Y-6.985
X-34.671Y0.762
X-34.671Y-0.762
X-34.671Y-2.286
X-34.671Y-3.81
X-34.671Y-5.334
X-34.544Y-12.319
X-34.036Y-6.985
X-33.274Y-12.192
X-33.147Y-6.985
X-33.147Y-7.874
X-32.385Y-12.192
X-32.258Y-6.985
X-31.242Y-10.668
X-30.353Y-10.668
X-30.226Y-7.112
X-29.972Y-13.208
X-29.337Y-29.591
X-29.337Y-30.607
X-29.337Y-31.623
X-29.337Y-49.403
X-29.337Y-50.546
X-29.21Y-36.322
X-29.21Y-37.338
X-29.21Y-38.354
X-29.21Y-39.37
X-29.21Y-40.386
X-29.21Y-41.402
X-28.956Y-20.193
X-28.321Y-29.591
X-28.321Y-30.607
X-28.194Y-6.096
X-28.067Y-20.193
X-27.305Y-6.096
X-27.305Y-29.591
X-27.178Y-20.193
X-26.67Y-16.51
X-26.289Y-20.193
X-25.527Y-6.477
X-25.527Y-7.366
X-25.273Y-37.973
X-25.273Y-38.989
X-25.019Y-36.576
X-24.638Y-6.477
X-24.511Y-35.687
X-24.447Y-37.449
X-24.384Y-38.481
X-24.384Y-39.497
X-24.13Y-31.623
X-24.003Y-34.798
X-23.939Y-36.569
X-23.876Y-14.097
X-23.622Y-45.339
X-23.622Y-46.355
X-23.622Y-47.371
X-23.567Y-37.957
X-23.495Y-38.989
X-23.495Y-40.005
X-23.431Y-35.689
X-23.368Y-33.909
X-23.114Y-30.607
X-23.114Y-31.623
X-23.059Y-37.077
X-22.987Y-14.097
X-22.923Y-34.809
X-22.606Y-44.323
X-22.606Y-45.339
X-22.606Y-46.355
X-22.415Y-33.929
X-22.179Y-37.585
X-22.098Y-14.097
X-22.098Y3.429
X-22.098Y-0.127
X-22.098Y-29.591
X-22.098Y-30.607
X-22.098Y-31.623
X-21.59Y-7.493
X-21.59Y-8.382
X-21.59Y-10.414
X-21.59Y-44.323
X-21.59Y-45.339
X-21.336Y-37.973
X-21.209Y-14.097
X-21.082Y3.429
X-21.082Y2.413
X-21.082Y0.889
X-21.082Y-0.127
X-21.082Y-29.591
X-21.082Y-30.607
X-20.701Y-7.493
X-20.701Y-8.382
X-20.701Y-9.271
X-19.939Y-13.208
X-19.823Y-39.092
X-19.812Y-7.493
X-18.956Y-38.859
X-18.161Y-13.081
X-18.034Y-21.844
X-17.272Y-13.081
X-17.145Y-21.844
X-17.122Y-39.945
X-16.348Y-38.605
X-16.256Y-12.573
X-16.256Y-21.844
X-15.974Y-40.608
X-15.748Y-16.51
X-15.748Y-18.161
X-15.574Y-37.265
X-15.367Y-12.573
X-15.367Y-21.844
X-15.2Y-39.268
X-14.904Y-43.398
X-14.859Y-15.621
X-14.859Y-16.51
X-14.478Y-44.958
X-14.478Y-45.974
X-14.427Y-37.927
X-13.689Y-41.167
X-13.462Y3.048
X-13.462Y2.032
X-13.462Y1.016
X-13.462Y0.0
X-13.462Y-1.016
X-13.462Y-14.097
X-13.462Y-15.113
X-13.462Y-16.129
X-13.462Y-45.974
X-13.291Y-40.223
X-12.446Y3.048
X-12.446Y2.032
X-12.446Y1.016
X-12.446Y0.0
X-12.446Y-1.016
X-12.446Y-2.032
X-12.446Y-45.974
X-11.483Y-37.601
X-11.43Y3.048
X-11.43Y2.032
X-11.43Y1.016
X-11.43Y0.0
X-11.43Y-1.016
X-11.43Y-2.032
X-11.43Y-3.048
X-10.975Y-36.721
X-10.689Y-39.526
X-10.604Y-38.109
X-10.467Y-35.841
X-10.414Y3.048
X-10.414Y2.032
X-10.414Y1.016
X-10.414Y0.0
X-10.414Y-1.016
X-10.414Y-2.032
X-10.414Y-3.048
X-10.414Y-4.064
X-10.287Y-7.874
X-10.287Y-8.89
X-10.287Y-9.906
X-10.287Y-10.922
X-10.287Y-11.938
X-10.096Y-37.229
X-9.809Y-40.034
X-9.588Y-36.349
X-9.398Y3.048
X-9.398Y2.032
X-9.398Y1.016
X-9.398Y0.0
X-9.398Y-1.016
X-9.398Y-2.032
X-9.398Y-3.048
X-9.398Y-4.064
X-9.271Y-7.874
X-9.271Y-8.89
X-9.271Y-11.938
X-9.216Y-37.737
X-8.708Y-36.857
X-8.382Y3.048
X-8.382Y2.032
X-8.382Y1.016
X-8.382Y0.0
X-8.382Y-1.016
X-8.382Y-2.032
X-8.382Y-3.048
X-8.382Y-4.064
X-8.255Y-7.874
X-8.255Y-8.89
X-7.366Y3.048
X-7.366Y2.032
X-7.366Y1.016
X-7.366Y0.0
X-7.366Y-1.016
X-7.366Y-2.032
X-7.366Y-3.048
X-7.366Y-4.064
X-5.207Y-11.811
X-5.207Y-12.827
X-5.207Y-13.843
X-5.207Y-14.859
X-5.207Y-15.875
X-5.207Y-16.891
X-5.207Y-17.907
X-5.207Y-18.923
X-5.207Y-19.939
X-5.207Y-20.955
X-5.207Y-21.971
X-5.207Y-22.987
X-4.191Y-11.811
X-4.191Y-12.827
X-4.191Y-13.843
X-4.191Y-14.859
X-4.191Y-15.875
X-4.191Y-16.891
X-4.191Y-19.939
X-4.191Y-20.955
X-4.191Y-21.971
X-3.175Y-11.811
X-3.175Y-16.891
X-3.175Y-19.939
X-3.175Y-20.955
X-3.175Y-21.971
X-2.159Y-11.811
X-2.159Y-19.939
X-2.159Y-20.955
X-2.159Y-21.971
T4
X-112.522Y-3.683
X-112.522Y-5.969
X-112.522Y-8.255
X-112.522Y-10.541
X-112.522Y-12.827
X-112.522Y-15.113
X-112.522Y-17.399
X-112.522Y-19.685
X-112.522Y-21.971
X-112.522Y-24.257
X-112.522Y-26.543
X-112.522Y-28.829
X-112.522Y-31.115
X-112.522Y-33.401
X-111.76Y-34.671
X-110.998Y-36.068
X-110.109Y-37.465
X-109.347Y-38.862
X-108.458Y-40.386
X-107.569Y-41.91
X-106.807Y-43.18
X-105.918Y-44.704
X-105.029Y-46.228
X-104.14Y-47.752
X-103.251Y-32.258
X-103.251Y-49.149
X-102.362Y-33.655
X-102.362Y-50.673
X-102.108Y-36.195
X-101.854Y-14.478
X-101.854Y-15.621
X-101.854Y-16.637
X-101.473Y-37.211
X-101.473Y-52.07
X-100.965Y-33.655
X-100.838Y-35.941
X-100.711Y-14.478
X-100.711Y-15.621
X-100.711Y-16.764
X-100.711Y-53.467
X-100.203Y-37.084
X-99.822Y-54.864
X-99.568Y-29.972
X-99.568Y-32.893
X-99.568Y-35.941
X-99.06Y-31.115
X-98.933Y-33.782
X-98.298Y-29.972
X-98.044Y-32.385
X-97.536Y-31.115
X-97.282Y-33.655
X-96.647Y-32.385
X-96.012Y-36.322
X-96.012Y-56.261
X-93.472Y-56.261
X-91.059Y-56.261
X-88.9Y-32.004
X-88.646Y-37.846
X-88.519Y-56.261
X-85.852Y-56.261
X-83.312Y-56.261
X-80.899Y-56.261
X-78.486Y-32.004
X-78.359Y-56.261
X-75.819Y-56.261
X-73.279Y-56.261
X-72.517Y-32.512
X-70.866Y-56.261
X-70.358Y-34.671
X-70.231Y-36.068
X-68.326Y-56.261
X-65.659Y-56.261
X-65.532Y2.159
X-65.532Y1.143
X-65.532Y0.127
X-65.278Y-31.115
X-64.516Y2.159
X-64.516Y1.143
X-63.119Y-56.261
X-60.706Y-56.261
X-60.198Y0.381
X-58.166Y-37.846
X-58.166Y-56.261
X-57.023Y-37.846
X-56.007Y-56.261
X-50.673Y3.81
X-49.149Y3.81
X-47.625Y3.81
X-47.498Y-43.053
X-46.99Y-35.814
X-46.609Y-42.164
X-46.228Y-56.261
X-46.101Y3.81
X-44.577Y3.81
X-43.688Y-56.261
X-43.053Y3.81
X-41.529Y3.81
X-41.275Y-56.261
X-40.005Y3.81
X-38.735Y-56.261
X-36.068Y-56.261
X-33.528Y-56.261
X-33.147Y1.27
X-31.115Y-56.261
X-28.575Y-56.261
X-27.94Y-45.466
X-27.813Y0.254
X-26.797Y-45.466
X-26.035Y-56.261
X-23.495Y-56.261
X-21.082Y-56.261
X-18.542Y-56.261
X-15.875Y-56.261
X-13.335Y-56.261
X-11.811Y-19.812
X-10.795Y-19.812
X-9.906Y-54.737
X-8.636Y-52.578
X-7.239Y-50.419
X-5.842Y-48.26
X-4.699Y-46.101
X-3.175Y-43.307
X-1.778Y-40.767
X-0.635Y-38.354
X0.889Y-35.814
X2.286Y-33.274
X2.667Y-3.556
X2.667Y-5.969
X2.667Y-8.255
X2.667Y-10.541
X2.667Y-12.954
X2.667Y-15.24
X2.667Y-17.653
X2.667Y-20.066
X2.667Y-22.352
X2.667Y-24.765
X2.667Y-27.178
X2.667Y-29.464
T5
X-102.903Y-39.941
X-102.278Y-41.023
X-101.82Y-39.316
X-101.653Y-42.106
X-101.195Y-40.398
X-101.028Y-43.188
X-100.57Y-41.481
X-99.945Y-42.563
T6
X-96.139Y1.524
X-93.599Y1.524
X-91.059Y1.524
X-88.519Y1.524
X-85.973Y1.524
X-84.455Y-2.921
X-83.433Y1.524
X-82.042Y-45.974
X-81.915Y-2.921
X-80.893Y1.524
X-78.61Y-25.035
X-78.61Y-27.035
X-78.359Y1.524
X-76.61Y-25.035
X-76.61Y-27.035
X-76.327Y-48.895
X-74.61Y-25.035
X-74.61Y-27.035
X-72.61Y-25.035
X-72.61Y-27.035
X-70.61Y-25.035
X-70.61Y-27.035
X-68.61Y-25.035
X-68.61Y-27.035
X-66.61Y-25.035
X-66.61Y-27.035
X-64.61Y-25.035
X-64.61Y-27.035
X-62.61Y-25.035
X-62.61Y-27.035
X-60.61Y-25.035
X-60.61Y-27.035
X-58.61Y-25.035
X-58.61Y-27.035
X-56.61Y-25.035
X-56.61Y-27.035
X-55.626Y-33.909
X-55.626Y-41.91
X-54.61Y-25.035
X-54.61Y-27.035
X-52.61Y-25.035
X-52.61Y-27.035
X-50.61Y-25.035
X-50.61Y-27.035
X-50.292Y-36.068
X-48.61Y-25.035
X-48.61Y-27.035
X-48.514Y-44.577
X-46.61Y-25.035
X-46.61Y-27.035
X-44.61Y-25.035
X-44.61Y-27.035
X-42.61Y-25.035
X-42.61Y-27.035
X-40.61Y-25.035
X-40.61Y-27.035
X-38.61Y-25.035
X-38.61Y-27.035
X-36.61Y-25.035
X-36.61Y-27.035
X-34.61Y-25.035
X-34.61Y-27.035
X-32.61Y-25.035
X-32.61Y-27.035
X-30.61Y-25.035
X-30.61Y-27.035
X-27.305Y-41.021
X-27.305Y-49.911
X-22.266Y-42.672
X-16.383Y-23.749
X-12.924Y-42.635
X-8.763Y-10.414
T7
X-108.458Y-6.387
X-108.458Y-8.927
X-108.458Y-11.467
X-108.458Y-14.007
X-108.458Y-16.547
X-108.458Y-19.087
X-108.458Y-21.627
X-108.458Y-24.167
X-105.918Y-6.387
X-105.918Y-8.927
X-105.918Y-11.467
X-105.918Y-14.007
X-105.918Y-16.547
X-105.918Y-19.087
X-105.918Y-21.627
X-105.918Y-24.167
T8
X-104.849Y-35.32
X-103.349Y-37.918
X-99.499Y-44.586
X-97.999Y-47.184
T9
X-69.596Y-48.387
X-44.577Y-33.401
X-19.812Y-35.433
T10
X-109.22Y0.0
X-88.265Y-52.07
X-15.875Y-52.07
X0.0Y0.0
T0
M30
