%TF.GenerationSoftware,KiCad,Pcbnew,7.0.1-0*%
%TF.CreationDate,2023-07-14T11:12:34-05:00*%
%TF.ProjectId,power,706f7765-722e-46b6-9963-61645f706362,rev?*%
%TF.SameCoordinates,PXb5acc9ePY48ab840*%
%TF.FileFunction,Paste,Top*%
%TF.FilePolarity,Positive*%
%FSLAX46Y46*%
G04 Gerber Fmt 4.6, Leading zero omitted, Abs format (unit mm)*
G04 Created by KiCad (PCBNEW 7.0.1-0) date 2023-07-14 11:12:34*
%MOMM*%
%LPD*%
G01*
G04 APERTURE LIST*
G04 Aperture macros list*
%AMRoundRect*
0 Rectangle with rounded corners*
0 $1 Rounding radius*
0 $2 $3 $4 $5 $6 $7 $8 $9 X,Y pos of 4 corners*
0 Add a 4 corners polygon primitive as box body*
4,1,4,$2,$3,$4,$5,$6,$7,$8,$9,$2,$3,0*
0 Add four circle primitives for the rounded corners*
1,1,$1+$1,$2,$3*
1,1,$1+$1,$4,$5*
1,1,$1+$1,$6,$7*
1,1,$1+$1,$8,$9*
0 Add four rect primitives between the rounded corners*
20,1,$1+$1,$2,$3,$4,$5,0*
20,1,$1+$1,$4,$5,$6,$7,0*
20,1,$1+$1,$6,$7,$8,$9,0*
20,1,$1+$1,$8,$9,$2,$3,0*%
%AMRotRect*
0 Rectangle, with rotation*
0 The origin of the aperture is its center*
0 $1 length*
0 $2 width*
0 $3 Rotation angle, in degrees counterclockwise*
0 Add horizontal line*
21,1,$1,$2,0,0,$3*%
G04 Aperture macros list end*
%ADD10RoundRect,0.200000X-0.200000X-0.275000X0.200000X-0.275000X0.200000X0.275000X-0.200000X0.275000X0*%
%ADD11RoundRect,0.200000X0.310705X0.138157X-0.035705X0.338157X-0.310705X-0.138157X0.035705X-0.338157X0*%
%ADD12RoundRect,0.200000X-0.275000X0.200000X-0.275000X-0.200000X0.275000X-0.200000X0.275000X0.200000X0*%
%ADD13RoundRect,0.150000X-0.825000X-0.150000X0.825000X-0.150000X0.825000X0.150000X-0.825000X0.150000X0*%
%ADD14RoundRect,0.200000X0.275000X-0.200000X0.275000X0.200000X-0.275000X0.200000X-0.275000X-0.200000X0*%
%ADD15RoundRect,0.250000X-1.075000X0.312500X-1.075000X-0.312500X1.075000X-0.312500X1.075000X0.312500X0*%
%ADD16RoundRect,0.250000X-0.312500X-1.075000X0.312500X-1.075000X0.312500X1.075000X-0.312500X1.075000X0*%
%ADD17R,2.700000X3.600000*%
%ADD18RoundRect,0.200000X0.200000X0.275000X-0.200000X0.275000X-0.200000X-0.275000X0.200000X-0.275000X0*%
%ADD19RoundRect,0.250000X1.281426X-0.169495X0.493926X1.194495X-1.281426X0.169495X-0.493926X-1.194495X0*%
%ADD20R,2.200000X1.500000*%
%ADD21RoundRect,0.200000X-0.310705X-0.138157X0.035705X-0.338157X0.310705X0.138157X-0.035705X0.338157X0*%
%ADD22RoundRect,0.250000X-0.262500X-0.450000X0.262500X-0.450000X0.262500X0.450000X-0.262500X0.450000X0*%
%ADD23R,0.550000X0.850000*%
%ADD24R,1.350000X0.850000*%
%ADD25RoundRect,0.200000X0.335876X0.053033X0.053033X0.335876X-0.335876X-0.053033X-0.053033X-0.335876X0*%
%ADD26RoundRect,0.250000X1.075000X-0.312500X1.075000X0.312500X-1.075000X0.312500X-1.075000X-0.312500X0*%
%ADD27RoundRect,0.150000X0.825000X0.150000X-0.825000X0.150000X-0.825000X-0.150000X0.825000X-0.150000X0*%
%ADD28R,0.300000X0.700000*%
%ADD29R,0.700000X0.300000*%
%ADD30R,1.355000X1.125000*%
%ADD31R,1.340000X1.125000*%
%ADD32R,0.375000X0.375000*%
%ADD33RoundRect,0.250000X-1.025000X0.787500X-1.025000X-0.787500X1.025000X-0.787500X1.025000X0.787500X0*%
%ADD34RoundRect,0.250000X0.643467X0.000000X0.000000X0.643467X-0.643467X0.000000X0.000000X-0.643467X0*%
%ADD35RoundRect,0.062500X0.291682X-0.203293X-0.203293X0.291682X-0.291682X0.203293X0.203293X-0.291682X0*%
%ADD36RoundRect,0.062500X0.291682X0.203293X0.203293X0.291682X-0.291682X-0.203293X-0.203293X-0.291682X0*%
%ADD37RoundRect,0.250000X-0.787500X-1.025000X0.787500X-1.025000X0.787500X1.025000X-0.787500X1.025000X0*%
%ADD38RoundRect,0.250000X0.258461X-0.452332X0.520961X0.002332X-0.258461X0.452332X-0.520961X-0.002332X0*%
%ADD39R,0.360000X1.600000*%
%ADD40RoundRect,0.200000X-0.053033X0.335876X-0.335876X0.053033X0.053033X-0.335876X0.335876X-0.053033X0*%
%ADD41RoundRect,0.250000X0.787500X1.025000X-0.787500X1.025000X-0.787500X-1.025000X0.787500X-1.025000X0*%
%ADD42RoundRect,0.200000X0.138157X-0.310705X0.338157X0.035705X-0.138157X0.310705X-0.338157X-0.035705X0*%
%ADD43RoundRect,0.250000X1.025000X-0.787500X1.025000X0.787500X-1.025000X0.787500X-1.025000X-0.787500X0*%
%ADD44RoundRect,0.250000X0.774727X-0.808133X1.087227X-0.266867X-0.774727X0.808133X-1.087227X0.266867X0*%
%ADD45RoundRect,0.150000X0.150000X-0.825000X0.150000X0.825000X-0.150000X0.825000X-0.150000X-0.825000X0*%
%ADD46RoundRect,0.172500X0.307500X-0.172500X0.307500X0.172500X-0.307500X0.172500X-0.307500X-0.172500X0*%
%ADD47RoundRect,0.062500X0.062500X-0.350000X0.062500X0.350000X-0.062500X0.350000X-0.062500X-0.350000X0*%
%ADD48RoundRect,0.062500X0.337500X-0.062500X0.337500X0.062500X-0.337500X0.062500X-0.337500X-0.062500X0*%
%ADD49RoundRect,0.200000X0.338157X-0.035705X0.138157X0.310705X-0.338157X0.035705X-0.138157X-0.310705X0*%
%ADD50RotRect,0.700000X0.300000X150.000000*%
%ADD51RotRect,0.700000X0.300000X240.000000*%
%ADD52RotRect,0.700000X0.300000X60.000000*%
%ADD53RotRect,1.125000X1.355000X150.000000*%
%ADD54RotRect,1.125000X1.340000X150.000000*%
%ADD55RotRect,0.375000X0.375000X60.000000*%
%ADD56RotRect,2.700000X3.600000X60.000000*%
G04 APERTURE END LIST*
D10*
%TO.C,C14*%
X-31940000Y-41401998D03*
X-30290000Y-41401998D03*
%TD*%
D11*
%TO.C,C4*%
X-15475138Y-44386528D03*
X-16904080Y-43561528D03*
%TD*%
D12*
%TO.C,C60*%
X-75437998Y-17589998D03*
X-75437998Y-19239998D03*
%TD*%
D13*
%TO.C,U13*%
X-33209002Y-15367000D03*
X-33209002Y-16637000D03*
X-33209002Y-17907000D03*
X-33209002Y-19177000D03*
X-28259002Y-19177000D03*
X-28259002Y-17907000D03*
X-28259002Y-16637000D03*
X-28259002Y-15367000D03*
%TD*%
%TO.C,U17*%
X-28129002Y-9271000D03*
X-28129002Y-10541000D03*
X-28129002Y-11811000D03*
X-28129002Y-13081000D03*
X-23179002Y-13081000D03*
X-23179002Y-11811000D03*
X-23179002Y-10541000D03*
X-23179002Y-9271000D03*
%TD*%
D14*
%TO.C,C59*%
X-80263998Y-13524998D03*
X-80263998Y-11874998D03*
%TD*%
D15*
%TO.C,R40*%
X-50546000Y-52258498D03*
X-50546000Y-55183498D03*
%TD*%
D12*
%TO.C,C48*%
X-15240000Y-19240998D03*
X-15240000Y-20890998D03*
%TD*%
D14*
%TO.C,C21*%
X-77216000Y-40702998D03*
X-77216000Y-39052998D03*
%TD*%
D13*
%TO.C,U26*%
X-97216998Y-15366998D03*
X-97216998Y-16636998D03*
X-97216998Y-17906998D03*
X-97216998Y-19176998D03*
X-92266998Y-19176998D03*
X-92266998Y-17906998D03*
X-92266998Y-16636998D03*
X-92266998Y-15366998D03*
%TD*%
D10*
%TO.C,C38*%
X-103059998Y3556002D03*
X-101409998Y3556002D03*
%TD*%
D14*
%TO.C,C39*%
X-45847000Y-13524998D03*
X-45847000Y-11874998D03*
%TD*%
D12*
%TO.C,R25*%
X-50673000Y2857002D03*
X-50673000Y1207002D03*
%TD*%
D10*
%TO.C,R36*%
X-96202000Y-8762998D03*
X-94552000Y-8762998D03*
%TD*%
D16*
%TO.C,C24*%
X-75122500Y-51815998D03*
X-72197500Y-51815998D03*
%TD*%
D12*
%TO.C,C30*%
X-56164000Y-44005998D03*
X-56164000Y-45655998D03*
%TD*%
D17*
%TO.C,L8*%
X-73111000Y-35940998D03*
X-64811000Y-35940998D03*
%TD*%
D14*
%TO.C,C36*%
X-90043000Y-37527998D03*
X-90043000Y-35877998D03*
%TD*%
D18*
%TO.C,R9*%
X-78804000Y-39623998D03*
X-80454000Y-39623998D03*
%TD*%
D14*
%TO.C,C6*%
X-6731000Y-25208998D03*
X-6731000Y-23558998D03*
%TD*%
D19*
%TO.C,C32*%
X-93439750Y-44859502D03*
X-96552250Y-39468494D03*
%TD*%
D10*
%TO.C,R8*%
X-51117000Y-38226998D03*
X-49467000Y-38226998D03*
%TD*%
D20*
%TO.C,L9*%
X-59944000Y-36507998D03*
X-59944000Y-40707998D03*
%TD*%
D10*
%TO.C,R17*%
X-32321002Y-5842000D03*
X-30671002Y-5842000D03*
%TD*%
D14*
%TO.C,R46*%
X-71628000Y-2221998D03*
X-71628000Y-571998D03*
%TD*%
D19*
%TO.C,C34*%
X-98011750Y-36985502D03*
X-101124250Y-31594494D03*
%TD*%
D21*
%TO.C,R4*%
X-19544501Y-42038872D03*
X-18115559Y-42863872D03*
%TD*%
D14*
%TO.C,C55*%
X-65404998Y-13524998D03*
X-65404998Y-11874998D03*
%TD*%
D18*
%TO.C,C9*%
X-10732000Y-14350998D03*
X-12382000Y-14350998D03*
%TD*%
D22*
%TO.C,L3*%
X-78636500Y-52450998D03*
X-76811500Y-52450998D03*
%TD*%
D12*
%TO.C,R13*%
X-49276002Y-8065000D03*
X-49276002Y-9715000D03*
%TD*%
D23*
%TO.C,U16*%
X-19230000Y-12064998D03*
X-19230000Y-14414998D03*
D24*
X-17780000Y-14414998D03*
X-17780000Y-12064998D03*
%TD*%
D18*
%TO.C,C3*%
X-20763332Y-39100892D03*
X-22413332Y-39100892D03*
%TD*%
D15*
%TO.C,R38*%
X-90424000Y-30541498D03*
X-90424000Y-33466498D03*
%TD*%
D18*
%TO.C,C53*%
X-57213998Y-7619998D03*
X-58863998Y-7619998D03*
%TD*%
D25*
%TO.C,R5*%
X-50597637Y-33603361D03*
X-51764363Y-32436635D03*
%TD*%
D14*
%TO.C,C41*%
X-30988002Y-13525000D03*
X-30988002Y-11875000D03*
%TD*%
%TO.C,R51*%
X-79248000Y-2221998D03*
X-79248000Y-571998D03*
%TD*%
D26*
%TO.C,C23*%
X-83439000Y-41975498D03*
X-83439000Y-39050498D03*
%TD*%
D10*
%TO.C,R32*%
X-66738000Y-8762998D03*
X-65088000Y-8762998D03*
%TD*%
D18*
%TO.C,R43*%
X-35624000Y-3809998D03*
X-37274000Y-3809998D03*
%TD*%
D14*
%TO.C,R48*%
X-74676000Y-2221998D03*
X-74676000Y-571998D03*
%TD*%
D27*
%TO.C,U4*%
X-25846000Y-507998D03*
X-25846000Y762002D03*
X-25846000Y2032002D03*
X-25846000Y3302002D03*
X-30796000Y3302002D03*
X-30796000Y2032002D03*
X-30796000Y762002D03*
X-30796000Y-507998D03*
%TD*%
D14*
%TO.C,R54*%
X-46101000Y1207002D03*
X-46101000Y2857002D03*
%TD*%
D10*
%TO.C,R23*%
X-81469998Y-5841998D03*
X-79819998Y-5841998D03*
%TD*%
D12*
%TO.C,C58*%
X-70358000Y-11620998D03*
X-70358000Y-13270998D03*
%TD*%
D28*
%TO.C,U2*%
X-47548000Y-40600498D03*
X-47048000Y-40600498D03*
X-46548000Y-40600498D03*
X-46048000Y-40600498D03*
X-45548000Y-40600498D03*
X-45048000Y-40600498D03*
X-44548000Y-40600498D03*
X-44048000Y-40600498D03*
X-43548000Y-40600498D03*
X-43048000Y-40600498D03*
D29*
X-42398000Y-39950498D03*
X-42398000Y-39450498D03*
X-42398000Y-38950498D03*
X-42398000Y-38450498D03*
X-42398000Y-37950498D03*
X-42398000Y-37450498D03*
D28*
X-43048000Y-36800498D03*
X-43548000Y-36800498D03*
X-44048000Y-36800498D03*
X-44548000Y-36800498D03*
X-45048000Y-36800498D03*
X-45548000Y-36800498D03*
X-46048000Y-36800498D03*
X-46548000Y-36800498D03*
X-47048000Y-36800498D03*
X-47548000Y-36800498D03*
D29*
X-48198000Y-37450498D03*
X-48198000Y-37950498D03*
X-48198000Y-38450498D03*
X-48198000Y-38950498D03*
X-48198000Y-39450498D03*
X-48198000Y-39950498D03*
D30*
X-46845500Y-39362998D03*
X-46845500Y-38037998D03*
D31*
X-45298000Y-39362998D03*
X-45298000Y-38037998D03*
D30*
X-43750500Y-39362998D03*
X-43750500Y-38037998D03*
D32*
X-48110500Y-40512998D03*
X-42485500Y-40512998D03*
X-42485500Y-36887998D03*
X-48110500Y-36887998D03*
%TD*%
D23*
%TO.C,U7*%
X-49200000Y-11174498D03*
X-49200000Y-13524498D03*
D24*
X-47750000Y-13524498D03*
X-47750000Y-11174498D03*
%TD*%
D18*
%TO.C,R52*%
X-35624000Y762002D03*
X-37274000Y762002D03*
%TD*%
D23*
%TO.C,U11*%
X-34341002Y-11174500D03*
X-34341002Y-13524500D03*
D24*
X-32891002Y-13524500D03*
X-32891002Y-11174500D03*
%TD*%
D33*
%TO.C,C29*%
X-59563000Y-43496498D03*
X-59563000Y-49721498D03*
%TD*%
D10*
%TO.C,C17*%
X-31940000Y-49529998D03*
X-30290000Y-49529998D03*
%TD*%
D12*
%TO.C,R37*%
X-99822000Y-8064998D03*
X-99822000Y-9714998D03*
%TD*%
D13*
%TO.C,U25*%
X-92136998Y-9270998D03*
X-92136998Y-10540998D03*
X-92136998Y-11810998D03*
X-92136998Y-13080998D03*
X-87186998Y-13080998D03*
X-87186998Y-11810998D03*
X-87186998Y-10540998D03*
X-87186998Y-9270998D03*
%TD*%
D12*
%TO.C,C28*%
X-67945000Y-42735998D03*
X-67945000Y-44385998D03*
%TD*%
D25*
%TO.C,C63*%
X-62281637Y1956639D03*
X-63448363Y3123365D03*
%TD*%
D10*
%TO.C,R19*%
X-96201998Y-5841998D03*
X-94551998Y-5841998D03*
%TD*%
D12*
%TO.C,R33*%
X-70358000Y-8064998D03*
X-70358000Y-9714998D03*
%TD*%
%TO.C,C52*%
X-90169998Y-17589998D03*
X-90169998Y-19239998D03*
%TD*%
D34*
%TO.C,U6*%
X-55372000Y-2507435D03*
X-54134563Y-1269998D03*
X-56609437Y-1269998D03*
X-55372000Y-32561D03*
D35*
X-54885864Y-4231008D03*
X-54532311Y-3877454D03*
X-54178757Y-3523901D03*
X-53825204Y-3170347D03*
X-53471651Y-2816794D03*
X-53118097Y-2463241D03*
X-52764544Y-2109687D03*
X-52410990Y-1756134D03*
D36*
X-52410990Y-783862D03*
X-52764544Y-430309D03*
X-53118097Y-76755D03*
X-53471651Y276798D03*
X-53825204Y630351D03*
X-54178757Y983905D03*
X-54532311Y1337458D03*
X-54885864Y1691012D03*
D35*
X-55858136Y1691012D03*
X-56211689Y1337458D03*
X-56565243Y983905D03*
X-56918796Y630351D03*
X-57272349Y276798D03*
X-57625903Y-76755D03*
X-57979456Y-430309D03*
X-58333010Y-783862D03*
D36*
X-58333010Y-1756134D03*
X-57979456Y-2109687D03*
X-57625903Y-2463241D03*
X-57272349Y-2816794D03*
X-56918796Y-3170347D03*
X-56565243Y-3523901D03*
X-56211689Y-3877454D03*
X-55858136Y-4231008D03*
%TD*%
D18*
%TO.C,R1*%
X-21084616Y-40673372D03*
X-22734616Y-40673372D03*
%TD*%
D37*
%TO.C,C7*%
X-8573500Y-14223998D03*
X-2348500Y-14223998D03*
%TD*%
D38*
%TO.C,L1*%
X-11718427Y-45119715D03*
X-10805927Y-43539219D03*
%TD*%
D14*
%TO.C,R50*%
X-77724000Y-2221998D03*
X-77724000Y-571998D03*
%TD*%
D13*
%TO.C,U10*%
X-48068000Y-15366998D03*
X-48068000Y-16636998D03*
X-48068000Y-17906998D03*
X-48068000Y-19176998D03*
X-43118000Y-19176998D03*
X-43118000Y-17906998D03*
X-43118000Y-16636998D03*
X-43118000Y-15366998D03*
%TD*%
D14*
%TO.C,C20*%
X-75692000Y-40702998D03*
X-75692000Y-39052998D03*
%TD*%
D39*
%TO.C,U8*%
X-103060498Y-3543998D03*
X-102425498Y-3543998D03*
X-101790498Y-3543998D03*
X-101155498Y-3543998D03*
X-100520498Y-3543998D03*
X-99885498Y-3543998D03*
X-99250498Y-3543998D03*
X-98615498Y-3543998D03*
X-98615498Y1766002D03*
X-99250498Y1766002D03*
X-99885498Y1766002D03*
X-100520498Y1766002D03*
X-101155498Y1766002D03*
X-101790498Y1766002D03*
X-102425498Y1766002D03*
X-103060498Y1766002D03*
%TD*%
D14*
%TO.C,C15*%
X-49530000Y-41337998D03*
X-49530000Y-39687998D03*
%TD*%
D22*
%TO.C,L2*%
X-48283500Y-47243998D03*
X-46458500Y-47243998D03*
%TD*%
D14*
%TO.C,R53*%
X-49149000Y1207002D03*
X-49149000Y2857002D03*
%TD*%
D12*
%TO.C,C31*%
X-54610000Y-44005998D03*
X-54610000Y-45655998D03*
%TD*%
%TO.C,R14*%
X-53975000Y-11494000D03*
X-53975000Y-13144000D03*
%TD*%
%TO.C,C50*%
X-85089998Y-11493998D03*
X-85089998Y-13143998D03*
%TD*%
D10*
%TO.C,R31*%
X-32321000Y-8381998D03*
X-30671000Y-8381998D03*
%TD*%
%TO.C,C26*%
X-74485000Y-47878998D03*
X-72835000Y-47878998D03*
%TD*%
D11*
%TO.C,R3*%
X-18876784Y-44182351D03*
X-20305726Y-43357351D03*
%TD*%
D18*
%TO.C,C45*%
X-22797002Y-7620000D03*
X-24447002Y-7620000D03*
%TD*%
D23*
%TO.C,U21*%
X-63677998Y-5078498D03*
X-63677998Y-7428498D03*
D24*
X-62227998Y-7428498D03*
X-62227998Y-5078498D03*
%TD*%
D20*
%TO.C,L7*%
X-29591000Y-43365998D03*
X-29591000Y-47565998D03*
%TD*%
D18*
%TO.C,C22*%
X-78423000Y-47497998D03*
X-80073000Y-47497998D03*
%TD*%
D12*
%TO.C,R58*%
X-43053000Y2857002D03*
X-43053000Y1207002D03*
%TD*%
D10*
%TO.C,R34*%
X-81470000Y-8762998D03*
X-79820000Y-8762998D03*
%TD*%
D14*
%TO.C,R56*%
X-40005000Y1207002D03*
X-40005000Y2857002D03*
%TD*%
D40*
%TO.C,C65*%
X-61138637Y964365D03*
X-62305363Y-202361D03*
%TD*%
D14*
%TO.C,C37*%
X-87249000Y-37527998D03*
X-87249000Y-35877998D03*
%TD*%
%TO.C,R7*%
X-52578000Y-39813998D03*
X-52578000Y-38163998D03*
%TD*%
D13*
%TO.C,U27*%
X-62545998Y-9270998D03*
X-62545998Y-10540998D03*
X-62545998Y-11810998D03*
X-62545998Y-13080998D03*
X-57595998Y-13080998D03*
X-57595998Y-11810998D03*
X-57595998Y-10540998D03*
X-57595998Y-9270998D03*
%TD*%
D18*
%TO.C,R41*%
X-35624000Y-761998D03*
X-37274000Y-761998D03*
%TD*%
D14*
%TO.C,C51*%
X-94995998Y-13524998D03*
X-94995998Y-11874998D03*
%TD*%
D12*
%TO.C,R26*%
X-52832000Y-8065000D03*
X-52832000Y-9715000D03*
%TD*%
D41*
%TO.C,C13*%
X-34098500Y-42925998D03*
X-40323500Y-42925998D03*
%TD*%
D14*
%TO.C,C66*%
X-23748999Y1842002D03*
X-23748999Y3492002D03*
%TD*%
D23*
%TO.C,U12*%
X-44120002Y-5016000D03*
X-44120002Y-7366000D03*
D24*
X-42670002Y-7366000D03*
X-42670002Y-5016000D03*
%TD*%
D42*
%TO.C,C2*%
X-12425562Y-40502509D03*
X-11600562Y-39073567D03*
%TD*%
D15*
%TO.C,R39*%
X-76962000Y-30541498D03*
X-76962000Y-33466498D03*
%TD*%
D12*
%TO.C,R57*%
X-47625000Y2857002D03*
X-47625000Y1207002D03*
%TD*%
%TO.C,R24*%
X-83565998Y-8064998D03*
X-83565998Y-9714998D03*
%TD*%
D10*
%TO.C,R16*%
X-47180002Y-5842000D03*
X-45530002Y-5842000D03*
%TD*%
D23*
%TO.C,U24*%
X-83616998Y-11175998D03*
X-83616998Y-13525998D03*
D24*
X-82166998Y-13525998D03*
X-82166998Y-11175998D03*
%TD*%
D25*
%TO.C,C12*%
X-47676637Y-35127361D03*
X-48843363Y-33960635D03*
%TD*%
D14*
%TO.C,R47*%
X-73152000Y-2221998D03*
X-73152000Y-571998D03*
%TD*%
D12*
%TO.C,R18*%
X-19431000Y-8953998D03*
X-19431000Y-10603998D03*
%TD*%
%TO.C,R59*%
X-41529000Y2857002D03*
X-41529000Y1207002D03*
%TD*%
D43*
%TO.C,C5*%
X-3429000Y-24575498D03*
X-3429000Y-18350498D03*
%TD*%
D18*
%TO.C,R44*%
X-35624000Y-5333998D03*
X-37274000Y-5333998D03*
%TD*%
D12*
%TO.C,R35*%
X-85090000Y-8064998D03*
X-85090000Y-9714998D03*
%TD*%
D14*
%TO.C,R6*%
X-51054000Y-41337998D03*
X-51054000Y-39687998D03*
%TD*%
D44*
%TO.C,C1*%
X-10337091Y-41711174D03*
X-8874591Y-39178050D03*
%TD*%
D25*
%TO.C,C62*%
X-60122637Y1956639D03*
X-61289363Y3123365D03*
%TD*%
D45*
%TO.C,U5*%
X-89916000Y-44511998D03*
X-88646000Y-44511998D03*
X-87376000Y-44511998D03*
X-86106000Y-44511998D03*
X-86106000Y-39561998D03*
X-87376000Y-39561998D03*
X-88646000Y-39561998D03*
X-89916000Y-39561998D03*
%TD*%
D18*
%TO.C,R12*%
X-78423000Y-49021998D03*
X-80073000Y-49021998D03*
%TD*%
D13*
%TO.C,U29*%
X-77404998Y-9270998D03*
X-77404998Y-10540998D03*
X-77404998Y-11810998D03*
X-77404998Y-13080998D03*
X-72454998Y-13080998D03*
X-72454998Y-11810998D03*
X-72454998Y-10540998D03*
X-72454998Y-9270998D03*
%TD*%
D10*
%TO.C,R21*%
X-66737998Y-5841998D03*
X-65087998Y-5841998D03*
%TD*%
D33*
%TO.C,C27*%
X-64643000Y-43496498D03*
X-64643000Y-49721498D03*
%TD*%
D46*
%TO.C,U3*%
X-76842000Y-44874998D03*
X-75652000Y-44874998D03*
X-74462000Y-44874998D03*
X-73272000Y-44874998D03*
X-76842000Y-44024998D03*
X-75652000Y-44024998D03*
X-74462000Y-44024998D03*
X-73272000Y-44024998D03*
D47*
X-77307000Y-45912498D03*
X-76807000Y-45912498D03*
X-76307000Y-45912498D03*
X-75807000Y-45912498D03*
X-75307000Y-45912498D03*
X-74807000Y-45912498D03*
X-74307000Y-45912498D03*
X-73807000Y-45912498D03*
X-73307000Y-45912498D03*
X-72807000Y-45912498D03*
D48*
X-72082000Y-45199998D03*
X-72082000Y-44699998D03*
X-72082000Y-44199998D03*
X-72082000Y-43699998D03*
D47*
X-72807000Y-42987498D03*
X-73307000Y-42987498D03*
X-73807000Y-42987498D03*
X-74307000Y-42987498D03*
X-74807000Y-42987498D03*
X-75307000Y-42987498D03*
X-75807000Y-42987498D03*
X-76307000Y-42987498D03*
X-76807000Y-42987498D03*
X-77307000Y-42987498D03*
D48*
X-78032000Y-43699998D03*
X-78032000Y-44199998D03*
X-78032000Y-44699998D03*
X-78032000Y-45199998D03*
%TD*%
D12*
%TO.C,R22*%
X-68833998Y-8064998D03*
X-68833998Y-9714998D03*
%TD*%
D18*
%TO.C,C49*%
X-86804998Y-7619998D03*
X-88454998Y-7619998D03*
%TD*%
D12*
%TO.C,R29*%
X-50800000Y-8064998D03*
X-50800000Y-9714998D03*
%TD*%
D18*
%TO.C,C8*%
X-10732000Y-15874998D03*
X-12382000Y-15874998D03*
%TD*%
D12*
%TO.C,C40*%
X-41021000Y-17589998D03*
X-41021000Y-19239998D03*
%TD*%
%TO.C,C46*%
X-21082002Y-11494000D03*
X-21082002Y-13144000D03*
%TD*%
D10*
%TO.C,C11*%
X-45656000Y-42163998D03*
X-44006000Y-42163998D03*
%TD*%
D18*
%TO.C,C19*%
X-78804000Y-41147998D03*
X-80454000Y-41147998D03*
%TD*%
D13*
%TO.C,U14*%
X-42988000Y-9270998D03*
X-42988000Y-10540998D03*
X-42988000Y-11810998D03*
X-42988000Y-13080998D03*
X-38038000Y-13080998D03*
X-38038000Y-11810998D03*
X-38038000Y-10540998D03*
X-38038000Y-9270998D03*
%TD*%
D12*
%TO.C,R20*%
X-98297998Y-8064998D03*
X-98297998Y-9714998D03*
%TD*%
D18*
%TO.C,C57*%
X-72072998Y-7619998D03*
X-73722998Y-7619998D03*
%TD*%
D12*
%TO.C,R15*%
X-34417002Y-8065000D03*
X-34417002Y-9715000D03*
%TD*%
D40*
%TO.C,C64*%
X-63297637Y964365D03*
X-64464363Y-202361D03*
%TD*%
D10*
%TO.C,R10*%
X-80454000Y-38099998D03*
X-78804000Y-38099998D03*
%TD*%
D23*
%TO.C,U23*%
X-78536998Y-5078498D03*
X-78536998Y-7428498D03*
D24*
X-77086998Y-7428498D03*
X-77086998Y-5078498D03*
%TD*%
D18*
%TO.C,R42*%
X-35624000Y-2285998D03*
X-37274000Y-2285998D03*
%TD*%
D16*
%TO.C,C10*%
X-46293500Y-44576998D03*
X-43368500Y-44576998D03*
%TD*%
D11*
%TO.C,R2*%
X-16237139Y-45706351D03*
X-17666081Y-44881351D03*
%TD*%
D12*
%TO.C,C56*%
X-60578998Y-17589998D03*
X-60578998Y-19239998D03*
%TD*%
D13*
%TO.C,U18*%
X-22287000Y-17017998D03*
X-22287000Y-18287998D03*
X-22287000Y-19557998D03*
X-22287000Y-20827998D03*
X-17337000Y-20827998D03*
X-17337000Y-19557998D03*
X-17337000Y-18287998D03*
X-17337000Y-17017998D03*
%TD*%
D12*
%TO.C,C54*%
X-55498998Y-11493998D03*
X-55498998Y-13143998D03*
%TD*%
D23*
%TO.C,U20*%
X-98348998Y-11174498D03*
X-98348998Y-13524498D03*
D24*
X-96898998Y-13524498D03*
X-96898998Y-11174498D03*
%TD*%
D17*
%TO.C,L6*%
X-39964000Y-34924998D03*
X-31664000Y-34924998D03*
%TD*%
D10*
%TO.C,C18*%
X-31940000Y-51053998D03*
X-30290000Y-51053998D03*
%TD*%
D49*
%TO.C,C33*%
X-93186500Y-38814469D03*
X-94011500Y-37385527D03*
%TD*%
D10*
%TO.C,R30*%
X-47180000Y-8381998D03*
X-45530000Y-8381998D03*
%TD*%
%TO.C,R45*%
X-50863000Y-6603998D03*
X-49213000Y-6603998D03*
%TD*%
D23*
%TO.C,U19*%
X-93268998Y-5078498D03*
X-93268998Y-7428498D03*
D24*
X-91818998Y-7428498D03*
X-91818998Y-5078498D03*
%TD*%
D18*
%TO.C,C43*%
X-37656002Y-7620000D03*
X-39306002Y-7620000D03*
%TD*%
D20*
%TO.C,L5*%
X-8890000Y-21911998D03*
X-8890000Y-17711998D03*
%TD*%
D18*
%TO.C,R11*%
X-78804000Y-36575998D03*
X-80454000Y-36575998D03*
%TD*%
D41*
%TO.C,C16*%
X-34098500Y-48005998D03*
X-40323500Y-48005998D03*
%TD*%
D14*
%TO.C,C47*%
X-16002000Y-15429998D03*
X-16002000Y-13779998D03*
%TD*%
D12*
%TO.C,C42*%
X-26162002Y-17590000D03*
X-26162002Y-19240000D03*
%TD*%
%TO.C,C44*%
X-35941000Y-11493998D03*
X-35941000Y-13143998D03*
%TD*%
D23*
%TO.C,U22*%
X-68757998Y-11174498D03*
X-68757998Y-13524498D03*
D24*
X-67307998Y-13524498D03*
X-67307998Y-11174498D03*
%TD*%
D50*
%TO.C,U1*%
X-15253685Y-41834960D03*
X-15003685Y-41401947D03*
X-14753685Y-40968935D03*
X-14503685Y-40535922D03*
X-14253685Y-40102909D03*
X-14003685Y-39669897D03*
X-13753685Y-39236884D03*
X-13503685Y-38803871D03*
X-13253685Y-38370859D03*
X-13003685Y-37937846D03*
D51*
X-13241601Y-37049929D03*
X-13674614Y-36799929D03*
X-14107627Y-36549929D03*
X-14540639Y-36299929D03*
X-14973652Y-36049929D03*
X-15406665Y-35799929D03*
D50*
X-16294581Y-36037846D03*
X-16544581Y-36470859D03*
X-16794581Y-36903871D03*
X-17044581Y-37336884D03*
X-17294581Y-37769897D03*
X-17544581Y-38202909D03*
X-17794581Y-38635922D03*
X-18044581Y-39068935D03*
X-18294581Y-39501947D03*
X-18544581Y-39934960D03*
D52*
X-18306665Y-40822877D03*
X-17873652Y-41072877D03*
X-17440639Y-41322877D03*
X-17007627Y-41572877D03*
X-16574614Y-41822877D03*
X-16141601Y-42072877D03*
D53*
X-15974141Y-40607827D03*
X-17121625Y-39945327D03*
D54*
X-15200391Y-39267653D03*
X-16347875Y-38605153D03*
D53*
X-14426641Y-37927479D03*
X-15574125Y-37264979D03*
D55*
X-15610712Y-42278349D03*
X-12798212Y-37406957D03*
X-15937554Y-35594457D03*
X-18750054Y-40465849D03*
%TD*%
D56*
%TO.C,L4*%
X-14140000Y-33820003D03*
X-9990000Y-26631993D03*
%TD*%
D49*
%TO.C,C35*%
X-94964500Y-35766469D03*
X-95789500Y-34337527D03*
%TD*%
D23*
%TO.C,U31*%
X-52751002Y-11177500D03*
X-52751002Y-13527500D03*
D24*
X-51301002Y-13527500D03*
X-51301002Y-11177500D03*
%TD*%
D13*
%TO.C,U28*%
X-67625998Y-15366998D03*
X-67625998Y-16636998D03*
X-67625998Y-17906998D03*
X-67625998Y-19176998D03*
X-62675998Y-19176998D03*
X-62675998Y-17906998D03*
X-62675998Y-16636998D03*
X-62675998Y-15366998D03*
%TD*%
D14*
%TO.C,R49*%
X-76200000Y-2221998D03*
X-76200000Y-571998D03*
%TD*%
%TO.C,R55*%
X-44577000Y1207002D03*
X-44577000Y2857002D03*
%TD*%
D10*
%TO.C,C25*%
X-74485000Y-49402998D03*
X-72835000Y-49402998D03*
%TD*%
D23*
%TO.C,U15*%
X-29263002Y-5080000D03*
X-29263002Y-7430000D03*
D24*
X-27813002Y-7430000D03*
X-27813002Y-5080000D03*
%TD*%
D14*
%TO.C,C61*%
X-22097998Y826003D03*
X-22097998Y2476003D03*
%TD*%
D13*
%TO.C,U30*%
X-82484998Y-15366998D03*
X-82484998Y-16636998D03*
X-82484998Y-17906998D03*
X-82484998Y-19176998D03*
X-77534998Y-19176998D03*
X-77534998Y-17906998D03*
X-77534998Y-16636998D03*
X-77534998Y-15366998D03*
%TD*%
M02*
