%TF.GenerationSoftware,KiCad,Pcbnew,7.0.1-0*%
%TF.CreationDate,2023-07-14T11:12:34-05:00*%
%TF.ProjectId,power,706f7765-722e-46b6-9963-61645f706362,rev?*%
%TF.SameCoordinates,PXb5acc9ePY48ab840*%
%TF.FileFunction,Legend,Bot*%
%TF.FilePolarity,Positive*%
%FSLAX46Y46*%
G04 Gerber Fmt 4.6, Leading zero omitted, Abs format (unit mm)*
G04 Created by KiCad (PCBNEW 7.0.1-0) date 2023-07-14 11:12:34*
%MOMM*%
%LPD*%
G01*
G04 APERTURE LIST*
%ADD10C,0.150000*%
%ADD11C,0.304800*%
%ADD12C,0.254000*%
%ADD13C,0.120000*%
G04 APERTURE END LIST*
D10*
X-29718000Y-16382998D02*
X-5461000Y-16382998D01*
X-5461000Y-23494998D01*
X-29718000Y-23494998D01*
X-29718000Y-16382998D01*
G36*
X-29718000Y-16382998D02*
G01*
X-5461000Y-16382998D01*
X-5461000Y-23494998D01*
X-29718000Y-23494998D01*
X-29718000Y-16382998D01*
G37*
X-24303946Y-33101529D02*
X-24684898Y-33761358D01*
X-24164507Y-33621920D02*
X-24824336Y-33240968D01*
X-25697199Y-34276620D02*
X-25459104Y-33864227D01*
X-25459104Y-33864227D02*
X-25022901Y-34061083D01*
X-25022901Y-34061083D02*
X-25087950Y-34078513D01*
X-25087950Y-34078513D02*
X-25176809Y-34137182D01*
X-25176809Y-34137182D02*
X-25295856Y-34343379D01*
X-25295856Y-34343379D02*
X-25302236Y-34449667D01*
X-25302236Y-34449667D02*
X-25284806Y-34514716D01*
X-25284806Y-34514716D02*
X-25226137Y-34603574D01*
X-25226137Y-34603574D02*
X-25019941Y-34722622D01*
X-25019941Y-34722622D02*
X-24913652Y-34729001D01*
X-24913652Y-34729001D02*
X-24848604Y-34711571D01*
X-24848604Y-34711571D02*
X-24759745Y-34652902D01*
X-24759745Y-34652902D02*
X-24640698Y-34446706D01*
X-24640698Y-34446706D02*
X-24634318Y-34340418D01*
X-24634318Y-34340418D02*
X-24651748Y-34275369D01*
X-25863866Y-34565295D02*
X-25164507Y-35353971D01*
X-25164507Y-35353971D02*
X-26197199Y-35142646D01*
X-26601961Y-35843714D02*
X-26363866Y-35431321D01*
X-26363866Y-35431321D02*
X-25927663Y-35628177D01*
X-25927663Y-35628177D02*
X-25992712Y-35645607D01*
X-25992712Y-35645607D02*
X-26081571Y-35704276D01*
X-26081571Y-35704276D02*
X-26200618Y-35910472D01*
X-26200618Y-35910472D02*
X-26206998Y-36016760D01*
X-26206998Y-36016760D02*
X-26189568Y-36081809D01*
X-26189568Y-36081809D02*
X-26130899Y-36170668D01*
X-26130899Y-36170668D02*
X-25924703Y-36289715D01*
X-25924703Y-36289715D02*
X-25818414Y-36296095D01*
X-25818414Y-36296095D02*
X-25753366Y-36278665D01*
X-25753366Y-36278665D02*
X-25664507Y-36219996D01*
X-25664507Y-36219996D02*
X-25545460Y-36013800D01*
X-25545460Y-36013800D02*
X-25539080Y-35907511D01*
X-25539080Y-35907511D02*
X-25556510Y-35842463D01*
X-26372413Y-37350887D02*
X-26378793Y-37457176D01*
X-26378793Y-37457176D02*
X-26474031Y-37622133D01*
X-26474031Y-37622133D02*
X-26562890Y-37680802D01*
X-26562890Y-37680802D02*
X-26669178Y-37674422D01*
X-26669178Y-37674422D02*
X-26710417Y-37650613D01*
X-26710417Y-37650613D02*
X-26769086Y-37561754D01*
X-26769086Y-37561754D02*
X-26762706Y-37455466D01*
X-26762706Y-37455466D02*
X-26691278Y-37331748D01*
X-26691278Y-37331748D02*
X-26684898Y-37225460D01*
X-26684898Y-37225460D02*
X-26743567Y-37136602D01*
X-26743567Y-37136602D02*
X-26784806Y-37112792D01*
X-26784806Y-37112792D02*
X-26891095Y-37106412D01*
X-26891095Y-37106412D02*
X-26979953Y-37165082D01*
X-26979953Y-37165082D02*
X-27051382Y-37288799D01*
X-27051382Y-37288799D02*
X-27057761Y-37395088D01*
X-26759746Y-38117005D02*
X-27337096Y-37783671D01*
X-27625771Y-37617005D02*
X-27560722Y-37599575D01*
X-27560722Y-37599575D02*
X-27543292Y-37664624D01*
X-27543292Y-37664624D02*
X-27608341Y-37682053D01*
X-27608341Y-37682053D02*
X-27625771Y-37617005D01*
X-27625771Y-37617005D02*
X-27543292Y-37664624D01*
X-27575191Y-38196064D02*
X-26997841Y-38529397D01*
X-27492712Y-38243683D02*
X-27557761Y-38261113D01*
X-27557761Y-38261113D02*
X-27646619Y-38319782D01*
X-27646619Y-38319782D02*
X-27718048Y-38443500D01*
X-27718048Y-38443500D02*
X-27724428Y-38549788D01*
X-27724428Y-38549788D02*
X-27665759Y-38638646D01*
X-27665759Y-38638646D02*
X-27212126Y-38900551D01*
X-27450222Y-39312944D02*
X-28316247Y-38812944D01*
X-27827755Y-39204947D02*
X-27640698Y-39642859D01*
X-28218048Y-39309525D02*
X-27697657Y-39170087D01*
D11*
G36*
X-14438086Y-13755912D02*
G01*
X-18857686Y-13755912D01*
X-18857686Y-11811658D01*
X-17594016Y-11811658D01*
X-17580741Y-11851485D01*
X-17568906Y-11891790D01*
X-17566656Y-11893740D01*
X-17509889Y-12064043D01*
X-17502120Y-12099753D01*
X-17480099Y-12121774D01*
X-17462323Y-12147352D01*
X-17449017Y-12152856D01*
X-16859784Y-12742089D01*
X-17457198Y-12742089D01*
X-17521158Y-12760869D01*
X-17579766Y-12828507D01*
X-17592503Y-12917093D01*
X-17555325Y-12998503D01*
X-17480035Y-13046889D01*
X-16530756Y-13046889D01*
X-16525621Y-13049693D01*
X-16486418Y-13046889D01*
X-16469946Y-13046889D01*
X-16464642Y-13045331D01*
X-16436351Y-13043308D01*
X-16422541Y-13032969D01*
X-16405986Y-13028109D01*
X-16387412Y-13006672D01*
X-16364705Y-12989675D01*
X-16358676Y-12973508D01*
X-16347378Y-12960471D01*
X-16343342Y-12932400D01*
X-16333428Y-12905821D01*
X-16337096Y-12888959D01*
X-16334641Y-12871885D01*
X-16346423Y-12846087D01*
X-16352452Y-12818368D01*
X-16364653Y-12806167D01*
X-16371819Y-12790475D01*
X-16395679Y-12775141D01*
X-17229513Y-11941308D01*
X-17247414Y-11887605D01*
X-16215001Y-11887605D01*
X-15847496Y-12916620D01*
X-15848289Y-12930417D01*
X-15832708Y-12958027D01*
X-15829724Y-12966382D01*
X-15821989Y-12977022D01*
X-15804304Y-13008360D01*
X-15796031Y-13012728D01*
X-15790526Y-13020300D01*
X-15756982Y-13033347D01*
X-15725163Y-13050149D01*
X-15715839Y-13049351D01*
X-15707116Y-13052744D01*
X-15671848Y-13045586D01*
X-15635991Y-13042518D01*
X-15628578Y-13036805D01*
X-15619407Y-13034944D01*
X-15593610Y-13009858D01*
X-15565101Y-12987889D01*
X-15561954Y-12979075D01*
X-15555244Y-12972551D01*
X-15547104Y-12937496D01*
X-15179824Y-11909111D01*
X-15175998Y-11842561D01*
X-15219983Y-11764618D01*
X-15299124Y-11722828D01*
X-15388296Y-11730459D01*
X-15459186Y-11785089D01*
X-15693573Y-12441371D01*
X-15920277Y-11806596D01*
X-15959475Y-11752678D01*
X-16042885Y-11720234D01*
X-16130594Y-11738034D01*
X-16194757Y-11800427D01*
X-16215001Y-11887605D01*
X-17247414Y-11887605D01*
X-17282886Y-11781188D01*
X-17282886Y-11696752D01*
X-17237465Y-11605907D01*
X-17199868Y-11568310D01*
X-17109025Y-11522889D01*
X-16818119Y-11522889D01*
X-16727277Y-11568310D01*
X-16656698Y-11638889D01*
X-16598192Y-11670836D01*
X-16508923Y-11664451D01*
X-16437277Y-11610818D01*
X-16406000Y-11526963D01*
X-16425024Y-11439511D01*
X-16515727Y-11348808D01*
X-16528821Y-11326762D01*
X-16566376Y-11307984D01*
X-16603238Y-11287856D01*
X-16606208Y-11288068D01*
X-16706650Y-11237847D01*
X-16737394Y-11218089D01*
X-16768540Y-11218089D01*
X-16799193Y-11212573D01*
X-16812493Y-11218089D01*
X-17136796Y-11218089D01*
X-17173131Y-11214166D01*
X-17200987Y-11228093D01*
X-17230873Y-11236869D01*
X-17240304Y-11247752D01*
X-17341208Y-11298204D01*
X-17366264Y-11303655D01*
X-17395957Y-11333347D01*
X-17426706Y-11361950D01*
X-17427444Y-11364834D01*
X-17456967Y-11394357D01*
X-17479013Y-11407452D01*
X-17497788Y-11445002D01*
X-17517919Y-11481869D01*
X-17517707Y-11484839D01*
X-17567927Y-11585278D01*
X-17587686Y-11616026D01*
X-17587686Y-11647173D01*
X-17593202Y-11677825D01*
X-17587686Y-11691125D01*
X-17587686Y-11786810D01*
X-17594016Y-11811658D01*
X-18857686Y-11811658D01*
X-18857686Y-10120084D01*
X-14438086Y-10120084D01*
X-14438086Y-13755912D01*
G37*
G36*
X-6611258Y-12045248D02*
G01*
X-6611258Y-12727730D01*
X-6639976Y-12742089D01*
X-6858310Y-12742089D01*
X-6949152Y-12696668D01*
X-6986751Y-12659069D01*
X-7032172Y-12568226D01*
X-7032172Y-12204752D01*
X-6986750Y-12113907D01*
X-6949153Y-12076309D01*
X-6858310Y-12030889D01*
X-6639976Y-12030889D01*
X-6611258Y-12045248D01*
G37*
G36*
X-8000564Y-12076309D02*
G01*
X-7962965Y-12113908D01*
X-7917543Y-12204752D01*
X-7917543Y-12568226D01*
X-7962967Y-12659071D01*
X-8000562Y-12696667D01*
X-8091406Y-12742089D01*
X-8237167Y-12742089D01*
X-8328009Y-12696668D01*
X-8365608Y-12659069D01*
X-8411029Y-12568226D01*
X-8411029Y-12204752D01*
X-8365607Y-12113907D01*
X-8328010Y-12076309D01*
X-8237167Y-12030889D01*
X-8091406Y-12030889D01*
X-8000564Y-12076309D01*
G37*
G36*
X-10926736Y-12064651D02*
G01*
X-10892971Y-12132180D01*
X-10892971Y-12200591D01*
X-11306716Y-12117841D01*
X-11280122Y-12064651D01*
X-11212595Y-12030889D01*
X-10994261Y-12030889D01*
X-10926736Y-12064651D01*
G37*
G36*
X-5421086Y-13755912D02*
G01*
X-13832114Y-13755912D01*
X-13832114Y-11901093D01*
X-12712074Y-11901093D01*
X-12674896Y-11982503D01*
X-12599606Y-12030889D01*
X-12445691Y-12030889D01*
X-12354849Y-12076309D01*
X-12317250Y-12113908D01*
X-12271829Y-12204751D01*
X-12271829Y-12916401D01*
X-12253049Y-12980361D01*
X-12185411Y-13038969D01*
X-12096825Y-13051706D01*
X-12015415Y-13014528D01*
X-11967029Y-12939238D01*
X-11967029Y-12232678D01*
X-11624882Y-12232678D01*
X-11618685Y-12259027D01*
X-11618685Y-12263258D01*
X-11613684Y-12280290D01*
X-11604392Y-12319798D01*
X-11601169Y-12322914D01*
X-11599905Y-12327218D01*
X-11569229Y-12353799D01*
X-11540053Y-12382010D01*
X-11535657Y-12382889D01*
X-11532267Y-12385826D01*
X-11492090Y-12391602D01*
X-10892971Y-12511427D01*
X-10892971Y-12640798D01*
X-10926736Y-12708326D01*
X-10994261Y-12742089D01*
X-11212595Y-12742089D01*
X-11345158Y-12675808D01*
X-11410764Y-12664002D01*
X-11493433Y-12698289D01*
X-11544442Y-12771826D01*
X-11547597Y-12861268D01*
X-11501894Y-12938217D01*
X-11324067Y-13027129D01*
X-11293320Y-13046889D01*
X-11262176Y-13046889D01*
X-11231521Y-13052406D01*
X-11218219Y-13046889D01*
X-10966489Y-13046889D01*
X-10930154Y-13050812D01*
X-10902298Y-13036883D01*
X-10872413Y-13028109D01*
X-10862984Y-13017226D01*
X-10779716Y-12975592D01*
X-10773794Y-12975801D01*
X-10740055Y-12955761D01*
X-10725389Y-12948429D01*
X-10721292Y-12944617D01*
X-10696845Y-12930098D01*
X-10689162Y-12914730D01*
X-10676580Y-12903028D01*
X-10669536Y-12875479D01*
X-10607930Y-12752268D01*
X-10588171Y-12721524D01*
X-10588171Y-12690381D01*
X-10582654Y-12659726D01*
X-10588171Y-12646424D01*
X-10588171Y-12412665D01*
X-10581974Y-12395157D01*
X-10588171Y-12368808D01*
X-10588171Y-12104407D01*
X-10584248Y-12068072D01*
X-10598177Y-12040216D01*
X-10606951Y-12010331D01*
X-10617834Y-12000901D01*
X-10659469Y-11917631D01*
X-10659260Y-11911710D01*
X-10679301Y-11877968D01*
X-10679621Y-11877329D01*
X-10391402Y-11877329D01*
X-10096728Y-12908690D01*
X-10098241Y-12924594D01*
X-10084665Y-12950908D01*
X-10082803Y-12957425D01*
X-10074659Y-12970303D01*
X-10057207Y-13004130D01*
X-10051004Y-13007709D01*
X-10047174Y-13013765D01*
X-10012657Y-13029834D01*
X-9979688Y-13048856D01*
X-9972534Y-13048513D01*
X-9966038Y-13051537D01*
X-9928317Y-13046394D01*
X-9890293Y-13044572D01*
X-9884459Y-13040414D01*
X-9877361Y-13039447D01*
X-9848410Y-13014728D01*
X-9817406Y-12992637D01*
X-9814746Y-12985986D01*
X-9809297Y-12981334D01*
X-9798304Y-12944880D01*
X-9652001Y-12579123D01*
X-9513901Y-12924372D01*
X-9513784Y-12940349D01*
X-9497593Y-12965143D01*
X-9495076Y-12971434D01*
X-9485663Y-12983411D01*
X-9464849Y-13015283D01*
X-9458313Y-13018210D01*
X-9453885Y-13023844D01*
X-9417914Y-13036305D01*
X-9383170Y-13051867D01*
X-9376086Y-13050795D01*
X-9369318Y-13053140D01*
X-9332329Y-13044177D01*
X-9294679Y-13038484D01*
X-9289299Y-13033752D01*
X-9282338Y-13032066D01*
X-9256066Y-13004529D01*
X-9227471Y-12979384D01*
X-9225503Y-12972494D01*
X-9220558Y-12967312D01*
X-9213344Y-12929936D01*
X-9000741Y-12185824D01*
X-8721346Y-12185824D01*
X-8715829Y-12199126D01*
X-8715829Y-12595999D01*
X-8719752Y-12632334D01*
X-8705824Y-12660189D01*
X-8697049Y-12690075D01*
X-8686167Y-12699504D01*
X-8635714Y-12800409D01*
X-8630263Y-12825466D01*
X-8600563Y-12855167D01*
X-8571967Y-12885909D01*
X-8569084Y-12886646D01*
X-8539561Y-12916169D01*
X-8526466Y-12938217D01*
X-8488910Y-12956994D01*
X-8452050Y-12977122D01*
X-8449080Y-12976909D01*
X-8348639Y-13027129D01*
X-8317892Y-13046889D01*
X-8286748Y-13046889D01*
X-8256093Y-13052406D01*
X-8242791Y-13046889D01*
X-8063634Y-13046889D01*
X-8027299Y-13050812D01*
X-7999444Y-13036884D01*
X-7969557Y-13028109D01*
X-7960128Y-13017226D01*
X-7859223Y-12966774D01*
X-7834164Y-12961323D01*
X-7804465Y-12931623D01*
X-7773723Y-12903028D01*
X-7772986Y-12900143D01*
X-7743462Y-12870619D01*
X-7721417Y-12857526D01*
X-7702644Y-12819979D01*
X-7682510Y-12783108D01*
X-7682723Y-12780137D01*
X-7632502Y-12679696D01*
X-7612743Y-12648952D01*
X-7612743Y-12617809D01*
X-7607226Y-12587154D01*
X-7612743Y-12573852D01*
X-7612743Y-12185824D01*
X-7342489Y-12185824D01*
X-7336972Y-12199126D01*
X-7336972Y-12595999D01*
X-7340895Y-12632334D01*
X-7326967Y-12660189D01*
X-7318192Y-12690075D01*
X-7307310Y-12699504D01*
X-7256857Y-12800409D01*
X-7251406Y-12825466D01*
X-7221706Y-12855167D01*
X-7193110Y-12885909D01*
X-7190227Y-12886646D01*
X-7160704Y-12916169D01*
X-7147609Y-12938217D01*
X-7110053Y-12956994D01*
X-7073193Y-12977122D01*
X-7070223Y-12976909D01*
X-6969782Y-13027129D01*
X-6939035Y-13046889D01*
X-6907891Y-13046889D01*
X-6877236Y-13052406D01*
X-6863934Y-13046889D01*
X-6612204Y-13046889D01*
X-6611258Y-13046991D01*
X-6611258Y-13424401D01*
X-6592478Y-13488361D01*
X-6524840Y-13546969D01*
X-6436254Y-13559706D01*
X-6354844Y-13522528D01*
X-6306458Y-13447238D01*
X-6306458Y-12841095D01*
X-6300123Y-12816321D01*
X-6306458Y-12797258D01*
X-6306458Y-11953752D01*
X-6304975Y-11911710D01*
X-6306458Y-11909213D01*
X-6306458Y-11856577D01*
X-6325238Y-11792617D01*
X-6392876Y-11734009D01*
X-6481462Y-11721272D01*
X-6531319Y-11744040D01*
X-6559251Y-11726089D01*
X-6590397Y-11726089D01*
X-6621050Y-11720573D01*
X-6634350Y-11726089D01*
X-6886081Y-11726089D01*
X-6922416Y-11722166D01*
X-6950273Y-11736093D01*
X-6980158Y-11744869D01*
X-6989588Y-11755751D01*
X-7090496Y-11806204D01*
X-7115550Y-11811655D01*
X-7145226Y-11841330D01*
X-7175992Y-11869949D01*
X-7176731Y-11872835D01*
X-7206253Y-11902358D01*
X-7228298Y-11915452D01*
X-7247072Y-11952998D01*
X-7267205Y-11989870D01*
X-7266993Y-11992840D01*
X-7317214Y-12093281D01*
X-7336972Y-12124026D01*
X-7336972Y-12155169D01*
X-7342489Y-12185824D01*
X-7612743Y-12185824D01*
X-7612743Y-12176979D01*
X-7608820Y-12140644D01*
X-7622749Y-12112788D01*
X-7631523Y-12082903D01*
X-7642406Y-12073473D01*
X-7692859Y-11972569D01*
X-7698309Y-11947512D01*
X-7728010Y-11917810D01*
X-7756605Y-11887069D01*
X-7759489Y-11886331D01*
X-7789013Y-11856807D01*
X-7802106Y-11834762D01*
X-7839645Y-11815992D01*
X-7876522Y-11795856D01*
X-7879494Y-11796068D01*
X-7979933Y-11745848D01*
X-8010680Y-11726089D01*
X-8041827Y-11726089D01*
X-8072479Y-11720573D01*
X-8085779Y-11726089D01*
X-8264938Y-11726089D01*
X-8301273Y-11722166D01*
X-8329130Y-11736093D01*
X-8359015Y-11744869D01*
X-8368445Y-11755751D01*
X-8469353Y-11806204D01*
X-8494407Y-11811655D01*
X-8524083Y-11841330D01*
X-8554849Y-11869949D01*
X-8555588Y-11872835D01*
X-8585110Y-11902358D01*
X-8607155Y-11915452D01*
X-8625929Y-11952998D01*
X-8646062Y-11989870D01*
X-8645850Y-11992840D01*
X-8696071Y-12093281D01*
X-8715829Y-12124026D01*
X-8715829Y-12155169D01*
X-8721346Y-12185824D01*
X-9000741Y-12185824D01*
X-8918873Y-11899287D01*
X-8919359Y-11832629D01*
X-8968294Y-11757694D01*
X-9049972Y-11721111D01*
X-9138464Y-11734494D01*
X-9205672Y-11793594D01*
X-9385781Y-12423974D01*
X-9496787Y-12146458D01*
X-9496045Y-12138670D01*
X-9513212Y-12105396D01*
X-9518638Y-12091830D01*
X-9523216Y-12086006D01*
X-9537079Y-12059134D01*
X-9550356Y-12051473D01*
X-9559829Y-12039420D01*
X-9588405Y-12029520D01*
X-9614598Y-12014408D01*
X-9629912Y-12015141D01*
X-9644396Y-12010124D01*
X-9673785Y-12017244D01*
X-9703993Y-12018692D01*
X-9716479Y-12027588D01*
X-9731376Y-12031198D01*
X-9752252Y-12053078D01*
X-9776880Y-12070627D01*
X-9782573Y-12084858D01*
X-9793156Y-12095951D01*
X-9798889Y-12125648D01*
X-9918220Y-12423975D01*
X-10092055Y-11815553D01*
X-10127684Y-11759213D01*
X-10208820Y-11721441D01*
X-10297497Y-11733531D01*
X-10365561Y-11791644D01*
X-10391402Y-11877329D01*
X-10679621Y-11877329D01*
X-10686632Y-11863306D01*
X-10690443Y-11859209D01*
X-10704963Y-11834762D01*
X-10720331Y-11827078D01*
X-10732033Y-11814497D01*
X-10759582Y-11807452D01*
X-10882792Y-11745847D01*
X-10913536Y-11726089D01*
X-10944682Y-11726089D01*
X-10975335Y-11720573D01*
X-10988635Y-11726089D01*
X-11240366Y-11726089D01*
X-11276701Y-11722166D01*
X-11304558Y-11736093D01*
X-11334443Y-11744869D01*
X-11343873Y-11755751D01*
X-11427143Y-11797385D01*
X-11433064Y-11797177D01*
X-11466798Y-11817212D01*
X-11481468Y-11824548D01*
X-11485568Y-11828361D01*
X-11510012Y-11842880D01*
X-11517695Y-11858245D01*
X-11530277Y-11869949D01*
X-11537323Y-11897500D01*
X-11598926Y-12020706D01*
X-11618685Y-12051454D01*
X-11618685Y-12082601D01*
X-11624201Y-12113253D01*
X-11618685Y-12126553D01*
X-11618685Y-12215170D01*
X-11624882Y-12232678D01*
X-11967029Y-12232678D01*
X-11967029Y-12176980D01*
X-11963106Y-12140645D01*
X-11967029Y-12132799D01*
X-11967029Y-11856577D01*
X-11985809Y-11792617D01*
X-12053447Y-11734009D01*
X-12142033Y-11721272D01*
X-12223443Y-11758450D01*
X-12244254Y-11790831D01*
X-12334218Y-11745848D01*
X-12364965Y-11726089D01*
X-12396112Y-11726089D01*
X-12426764Y-11720573D01*
X-12440064Y-11726089D01*
X-12576769Y-11726089D01*
X-12640729Y-11744869D01*
X-12699337Y-11812507D01*
X-12712074Y-11901093D01*
X-13832114Y-11901093D01*
X-13832114Y-10120084D01*
X-5421086Y-10120084D01*
X-5421086Y-13755912D01*
G37*
D10*
X-64881094Y-51820666D02*
X-65642998Y-51820666D01*
X-65262046Y-52201619D02*
X-65262046Y-51439714D01*
X-66642998Y-52201619D02*
X-66071570Y-52201619D01*
X-66357284Y-52201619D02*
X-66357284Y-51201619D01*
X-66357284Y-51201619D02*
X-66262046Y-51344476D01*
X-66262046Y-51344476D02*
X-66166808Y-51439714D01*
X-66166808Y-51439714D02*
X-66071570Y-51487333D01*
X-67023951Y-51296857D02*
X-67071570Y-51249238D01*
X-67071570Y-51249238D02*
X-67166808Y-51201619D01*
X-67166808Y-51201619D02*
X-67404903Y-51201619D01*
X-67404903Y-51201619D02*
X-67500141Y-51249238D01*
X-67500141Y-51249238D02*
X-67547760Y-51296857D01*
X-67547760Y-51296857D02*
X-67595379Y-51392095D01*
X-67595379Y-51392095D02*
X-67595379Y-51487333D01*
X-67595379Y-51487333D02*
X-67547760Y-51630190D01*
X-67547760Y-51630190D02*
X-66976332Y-52201619D01*
X-66976332Y-52201619D02*
X-67595379Y-52201619D01*
X-67881094Y-51201619D02*
X-68214427Y-52201619D01*
X-68214427Y-52201619D02*
X-68547760Y-51201619D01*
X-69595380Y-52154000D02*
X-69690618Y-52201619D01*
X-69690618Y-52201619D02*
X-69881094Y-52201619D01*
X-69881094Y-52201619D02*
X-69976332Y-52154000D01*
X-69976332Y-52154000D02*
X-70023951Y-52058761D01*
X-70023951Y-52058761D02*
X-70023951Y-52011142D01*
X-70023951Y-52011142D02*
X-69976332Y-51915904D01*
X-69976332Y-51915904D02*
X-69881094Y-51868285D01*
X-69881094Y-51868285D02*
X-69738237Y-51868285D01*
X-69738237Y-51868285D02*
X-69642999Y-51820666D01*
X-69642999Y-51820666D02*
X-69595380Y-51725428D01*
X-69595380Y-51725428D02*
X-69595380Y-51677809D01*
X-69595380Y-51677809D02*
X-69642999Y-51582571D01*
X-69642999Y-51582571D02*
X-69738237Y-51534952D01*
X-69738237Y-51534952D02*
X-69881094Y-51534952D01*
X-69881094Y-51534952D02*
X-69976332Y-51582571D01*
X-70452523Y-52201619D02*
X-70452523Y-51534952D01*
X-70452523Y-51201619D02*
X-70404904Y-51249238D01*
X-70404904Y-51249238D02*
X-70452523Y-51296857D01*
X-70452523Y-51296857D02*
X-70500142Y-51249238D01*
X-70500142Y-51249238D02*
X-70452523Y-51201619D01*
X-70452523Y-51201619D02*
X-70452523Y-51296857D01*
X-70928713Y-51534952D02*
X-70928713Y-52201619D01*
X-70928713Y-51630190D02*
X-70976332Y-51582571D01*
X-70976332Y-51582571D02*
X-71071570Y-51534952D01*
X-71071570Y-51534952D02*
X-71214427Y-51534952D01*
X-71214427Y-51534952D02*
X-71309665Y-51582571D01*
X-71309665Y-51582571D02*
X-71357284Y-51677809D01*
X-71357284Y-51677809D02*
X-71357284Y-52201619D01*
X-71833475Y-52201619D02*
X-71833475Y-51201619D01*
X-71928713Y-51820666D02*
X-72214427Y-52201619D01*
X-72214427Y-51534952D02*
X-71833475Y-51915904D01*
D12*
X-6755191Y-14480658D02*
X-6755191Y-15206373D01*
X-6755191Y-15206373D02*
X-6706810Y-15351516D01*
X-6706810Y-15351516D02*
X-6610048Y-15448278D01*
X-6610048Y-15448278D02*
X-6464905Y-15496658D01*
X-6464905Y-15496658D02*
X-6368143Y-15496658D01*
X-7674429Y-14819325D02*
X-7674429Y-15496658D01*
X-7239000Y-14819325D02*
X-7239000Y-15351516D01*
X-7239000Y-15351516D02*
X-7287381Y-15448278D01*
X-7287381Y-15448278D02*
X-7384143Y-15496658D01*
X-7384143Y-15496658D02*
X-7529286Y-15496658D01*
X-7529286Y-15496658D02*
X-7626048Y-15448278D01*
X-7626048Y-15448278D02*
X-7674429Y-15399897D01*
X-8158238Y-14819325D02*
X-8158238Y-15496658D01*
X-8158238Y-14916087D02*
X-8206619Y-14867706D01*
X-8206619Y-14867706D02*
X-8303381Y-14819325D01*
X-8303381Y-14819325D02*
X-8448524Y-14819325D01*
X-8448524Y-14819325D02*
X-8545286Y-14867706D01*
X-8545286Y-14867706D02*
X-8593667Y-14964468D01*
X-8593667Y-14964468D02*
X-8593667Y-15496658D01*
X-9803190Y-14577420D02*
X-9851571Y-14529039D01*
X-9851571Y-14529039D02*
X-9948333Y-14480658D01*
X-9948333Y-14480658D02*
X-10190238Y-14480658D01*
X-10190238Y-14480658D02*
X-10287000Y-14529039D01*
X-10287000Y-14529039D02*
X-10335381Y-14577420D01*
X-10335381Y-14577420D02*
X-10383762Y-14674182D01*
X-10383762Y-14674182D02*
X-10383762Y-14770944D01*
X-10383762Y-14770944D02*
X-10335381Y-14916087D01*
X-10335381Y-14916087D02*
X-9754809Y-15496658D01*
X-9754809Y-15496658D02*
X-10383762Y-15496658D01*
X-11012714Y-14480658D02*
X-11109476Y-14480658D01*
X-11109476Y-14480658D02*
X-11206238Y-14529039D01*
X-11206238Y-14529039D02*
X-11254619Y-14577420D01*
X-11254619Y-14577420D02*
X-11303000Y-14674182D01*
X-11303000Y-14674182D02*
X-11351381Y-14867706D01*
X-11351381Y-14867706D02*
X-11351381Y-15109611D01*
X-11351381Y-15109611D02*
X-11303000Y-15303135D01*
X-11303000Y-15303135D02*
X-11254619Y-15399897D01*
X-11254619Y-15399897D02*
X-11206238Y-15448278D01*
X-11206238Y-15448278D02*
X-11109476Y-15496658D01*
X-11109476Y-15496658D02*
X-11012714Y-15496658D01*
X-11012714Y-15496658D02*
X-10915952Y-15448278D01*
X-10915952Y-15448278D02*
X-10867571Y-15399897D01*
X-10867571Y-15399897D02*
X-10819190Y-15303135D01*
X-10819190Y-15303135D02*
X-10770809Y-15109611D01*
X-10770809Y-15109611D02*
X-10770809Y-14867706D01*
X-10770809Y-14867706D02*
X-10819190Y-14674182D01*
X-10819190Y-14674182D02*
X-10867571Y-14577420D01*
X-10867571Y-14577420D02*
X-10915952Y-14529039D01*
X-10915952Y-14529039D02*
X-11012714Y-14480658D01*
X-11738428Y-14577420D02*
X-11786809Y-14529039D01*
X-11786809Y-14529039D02*
X-11883571Y-14480658D01*
X-11883571Y-14480658D02*
X-12125476Y-14480658D01*
X-12125476Y-14480658D02*
X-12222238Y-14529039D01*
X-12222238Y-14529039D02*
X-12270619Y-14577420D01*
X-12270619Y-14577420D02*
X-12319000Y-14674182D01*
X-12319000Y-14674182D02*
X-12319000Y-14770944D01*
X-12319000Y-14770944D02*
X-12270619Y-14916087D01*
X-12270619Y-14916087D02*
X-11690047Y-15496658D01*
X-11690047Y-15496658D02*
X-12319000Y-15496658D01*
X-12657666Y-14480658D02*
X-13286619Y-14480658D01*
X-13286619Y-14480658D02*
X-12947952Y-14867706D01*
X-12947952Y-14867706D02*
X-13093095Y-14867706D01*
X-13093095Y-14867706D02*
X-13189857Y-14916087D01*
X-13189857Y-14916087D02*
X-13238238Y-14964468D01*
X-13238238Y-14964468D02*
X-13286619Y-15061230D01*
X-13286619Y-15061230D02*
X-13286619Y-15303135D01*
X-13286619Y-15303135D02*
X-13238238Y-15399897D01*
X-13238238Y-15399897D02*
X-13189857Y-15448278D01*
X-13189857Y-15448278D02*
X-13093095Y-15496658D01*
X-13093095Y-15496658D02*
X-12802809Y-15496658D01*
X-12802809Y-15496658D02*
X-12706047Y-15448278D01*
X-12706047Y-15448278D02*
X-12657666Y-15399897D01*
D10*
X-43418094Y-29976666D02*
X-44179998Y-29976666D01*
X-43799046Y-30357619D02*
X-43799046Y-29595714D01*
X-45132379Y-29357619D02*
X-44656189Y-29357619D01*
X-44656189Y-29357619D02*
X-44608570Y-29833809D01*
X-44608570Y-29833809D02*
X-44656189Y-29786190D01*
X-44656189Y-29786190D02*
X-44751427Y-29738571D01*
X-44751427Y-29738571D02*
X-44989522Y-29738571D01*
X-44989522Y-29738571D02*
X-45084760Y-29786190D01*
X-45084760Y-29786190D02*
X-45132379Y-29833809D01*
X-45132379Y-29833809D02*
X-45179998Y-29929047D01*
X-45179998Y-29929047D02*
X-45179998Y-30167142D01*
X-45179998Y-30167142D02*
X-45132379Y-30262380D01*
X-45132379Y-30262380D02*
X-45084760Y-30310000D01*
X-45084760Y-30310000D02*
X-44989522Y-30357619D01*
X-44989522Y-30357619D02*
X-44751427Y-30357619D01*
X-44751427Y-30357619D02*
X-44656189Y-30310000D01*
X-44656189Y-30310000D02*
X-44608570Y-30262380D01*
X-45465713Y-29357619D02*
X-45799046Y-30357619D01*
X-45799046Y-30357619D02*
X-46132379Y-29357619D01*
X-47179999Y-30310000D02*
X-47275237Y-30357619D01*
X-47275237Y-30357619D02*
X-47465713Y-30357619D01*
X-47465713Y-30357619D02*
X-47560951Y-30310000D01*
X-47560951Y-30310000D02*
X-47608570Y-30214761D01*
X-47608570Y-30214761D02*
X-47608570Y-30167142D01*
X-47608570Y-30167142D02*
X-47560951Y-30071904D01*
X-47560951Y-30071904D02*
X-47465713Y-30024285D01*
X-47465713Y-30024285D02*
X-47322856Y-30024285D01*
X-47322856Y-30024285D02*
X-47227618Y-29976666D01*
X-47227618Y-29976666D02*
X-47179999Y-29881428D01*
X-47179999Y-29881428D02*
X-47179999Y-29833809D01*
X-47179999Y-29833809D02*
X-47227618Y-29738571D01*
X-47227618Y-29738571D02*
X-47322856Y-29690952D01*
X-47322856Y-29690952D02*
X-47465713Y-29690952D01*
X-47465713Y-29690952D02*
X-47560951Y-29738571D01*
X-48037142Y-30357619D02*
X-48037142Y-29690952D01*
X-48037142Y-29357619D02*
X-47989523Y-29405238D01*
X-47989523Y-29405238D02*
X-48037142Y-29452857D01*
X-48037142Y-29452857D02*
X-48084761Y-29405238D01*
X-48084761Y-29405238D02*
X-48037142Y-29357619D01*
X-48037142Y-29357619D02*
X-48037142Y-29452857D01*
X-48513332Y-29690952D02*
X-48513332Y-30357619D01*
X-48513332Y-29786190D02*
X-48560951Y-29738571D01*
X-48560951Y-29738571D02*
X-48656189Y-29690952D01*
X-48656189Y-29690952D02*
X-48799046Y-29690952D01*
X-48799046Y-29690952D02*
X-48894284Y-29738571D01*
X-48894284Y-29738571D02*
X-48941903Y-29833809D01*
X-48941903Y-29833809D02*
X-48941903Y-30357619D01*
X-49418094Y-30357619D02*
X-49418094Y-29357619D01*
X-49513332Y-29976666D02*
X-49799046Y-30357619D01*
X-49799046Y-29690952D02*
X-49418094Y-30071904D01*
%TO.C,J1*%
X-103298667Y-5812617D02*
X-103298667Y-6526902D01*
X-103298667Y-6526902D02*
X-103251048Y-6669759D01*
X-103251048Y-6669759D02*
X-103155810Y-6764998D01*
X-103155810Y-6764998D02*
X-103012953Y-6812617D01*
X-103012953Y-6812617D02*
X-102917715Y-6812617D01*
X-104298667Y-6812617D02*
X-103727239Y-6812617D01*
X-104012953Y-6812617D02*
X-104012953Y-5812617D01*
X-104012953Y-5812617D02*
X-103917715Y-5955474D01*
X-103917715Y-5955474D02*
X-103822477Y-6050712D01*
X-103822477Y-6050712D02*
X-103727239Y-6098331D01*
D13*
X-104587998Y-25496828D02*
X-109787998Y-25496828D01*
X-104587998Y-7656828D02*
X-104587998Y-25496828D01*
X-104587998Y-7656828D02*
X-107187998Y-7656828D01*
X-104587998Y-6386828D02*
X-104587998Y-5056828D01*
X-104587998Y-5056828D02*
X-105917998Y-5056828D01*
X-107187998Y-7656828D02*
X-107187998Y-5056828D01*
X-107187998Y-5056828D02*
X-109787998Y-5056828D01*
X-109787998Y-5056828D02*
X-109787998Y-25496828D01*
%TO.C,G\u002A\u002A\u002A*%
G36*
X-24401959Y-7757260D02*
G01*
X-24414787Y-7770089D01*
X-24427616Y-7757260D01*
X-24414787Y-7744432D01*
X-24401959Y-7757260D01*
G37*
G36*
X-24376303Y-7924028D02*
G01*
X-24378154Y-7937611D01*
X-24393407Y-7941132D01*
X-24396477Y-7937372D01*
X-24393407Y-7906924D01*
X-24385690Y-7902910D01*
X-24376303Y-7924028D01*
G37*
G36*
X-24429641Y-7626840D02*
G01*
X-24431455Y-7652862D01*
X-24443117Y-7660514D01*
X-24448201Y-7651437D01*
X-24445142Y-7611339D01*
X-24435907Y-7599463D01*
X-24429641Y-7626840D01*
G37*
G36*
X-24453272Y-7513523D02*
G01*
X-24455124Y-7527106D01*
X-24470377Y-7530627D01*
X-24473447Y-7526867D01*
X-24470377Y-7496419D01*
X-24462660Y-7492405D01*
X-24453272Y-7513523D01*
G37*
G36*
X-30157582Y-3647934D02*
G01*
X-30153568Y-3655651D01*
X-30174686Y-3665038D01*
X-30188269Y-3663187D01*
X-30191791Y-3647934D01*
X-30188030Y-3644863D01*
X-30157582Y-3647934D01*
G37*
G36*
X-20989636Y-6923422D02*
G01*
X-20989636Y-9052917D01*
X-21464282Y-9052917D01*
X-21938929Y-9052917D01*
X-21938929Y-6923422D01*
X-21938929Y-4793927D01*
X-21464282Y-4793927D01*
X-20989636Y-4793927D01*
X-20989636Y-6923422D01*
G37*
G36*
X-26106638Y-6000940D02*
G01*
X-26082464Y-6025442D01*
X-26077685Y-6034526D01*
X-26079436Y-6051099D01*
X-26083947Y-6049944D01*
X-26108121Y-6025442D01*
X-26112900Y-6016358D01*
X-26111149Y-5999786D01*
X-26106638Y-6000940D01*
G37*
G36*
X-27923811Y-4827460D02*
G01*
X-27919400Y-4828730D01*
X-27915601Y-4836539D01*
X-27955393Y-4840238D01*
X-27961469Y-4840274D01*
X-28001634Y-4836834D01*
X-28000781Y-4828411D01*
X-27979699Y-4823704D01*
X-27923811Y-4827460D01*
G37*
G36*
X-5493070Y-6923422D02*
G01*
X-5493070Y-9052917D01*
X-5967717Y-9052917D01*
X-6442363Y-9052917D01*
X-6442363Y-8180594D01*
X-6442363Y-7308270D01*
X-7327515Y-7308270D01*
X-8212666Y-7308270D01*
X-8212666Y-6923422D01*
X-8212666Y-6538574D01*
X-7327515Y-6538574D01*
X-6442363Y-6538574D01*
X-6442363Y-6063927D01*
X-6442363Y-5589281D01*
X-7468626Y-5589281D01*
X-8494888Y-5589281D01*
X-8494888Y-5191604D01*
X-8494888Y-4793927D01*
X-6993979Y-4793927D01*
X-5493070Y-4793927D01*
X-5493070Y-6923422D01*
G37*
G36*
X-23304245Y1427327D02*
G01*
X-23238727Y1395944D01*
X-23148687Y1347380D01*
X-23042731Y1286831D01*
X-22929464Y1219492D01*
X-22817494Y1150557D01*
X-22715424Y1085222D01*
X-22631863Y1028682D01*
X-22575415Y986132D01*
X-22554686Y962767D01*
X-22556416Y956681D01*
X-22568920Y956718D01*
X-22600832Y970403D01*
X-22660603Y1001552D01*
X-22756682Y1053980D01*
X-22776396Y1064909D01*
X-22880592Y1125114D01*
X-22990703Y1192033D01*
X-23098385Y1260187D01*
X-23195295Y1324099D01*
X-23273089Y1378290D01*
X-23323424Y1417283D01*
X-23337955Y1435599D01*
X-23336635Y1436334D01*
X-23304245Y1427327D01*
G37*
G36*
X-8689171Y-6833624D02*
G01*
X-8687965Y-6846649D01*
X-8700561Y-7195886D01*
X-8710273Y-7282124D01*
X-8765150Y-7593998D01*
X-8849479Y-7870801D01*
X-8966699Y-8120231D01*
X-9120252Y-8349986D01*
X-9313576Y-8567765D01*
X-9423106Y-8671404D01*
X-9629664Y-8832912D01*
X-9847954Y-8956943D01*
X-10089998Y-9049767D01*
X-10367818Y-9117654D01*
X-10410332Y-9124902D01*
X-10588207Y-9141943D01*
X-10791744Y-9145479D01*
X-11002485Y-9136170D01*
X-11201972Y-9114679D01*
X-11371748Y-9081667D01*
X-11518794Y-9035801D01*
X-11741443Y-8941191D01*
X-11954313Y-8823375D01*
X-12136660Y-8692897D01*
X-12284527Y-8555444D01*
X-12479504Y-8317424D01*
X-12637706Y-8046994D01*
X-12757484Y-7747766D01*
X-12837186Y-7423352D01*
X-12875162Y-7077361D01*
X-12875705Y-7060923D01*
X-11915157Y-7060923D01*
X-11889837Y-7307440D01*
X-11839108Y-7526351D01*
X-11824612Y-7569692D01*
X-11724223Y-7793150D01*
X-11593049Y-7983933D01*
X-11435199Y-8136974D01*
X-11254780Y-8247206D01*
X-11084217Y-8304593D01*
X-10881551Y-8335144D01*
X-10671786Y-8334796D01*
X-10471012Y-8303641D01*
X-10295320Y-8241771D01*
X-10196354Y-8185960D01*
X-10025598Y-8046347D01*
X-9885366Y-7868509D01*
X-9776990Y-7655383D01*
X-9701802Y-7409904D01*
X-9661134Y-7135005D01*
X-9656318Y-6833624D01*
X-9660932Y-6753460D01*
X-9700182Y-6460944D01*
X-9772601Y-6205061D01*
X-9877520Y-5986745D01*
X-10014267Y-5806928D01*
X-10182173Y-5666544D01*
X-10380568Y-5566524D01*
X-10608782Y-5507801D01*
X-10612881Y-5507170D01*
X-10855244Y-5493338D01*
X-11080199Y-5526747D01*
X-11284799Y-5605423D01*
X-11466100Y-5727392D01*
X-11621156Y-5890680D01*
X-11747021Y-6093315D01*
X-11840749Y-6333321D01*
X-11889478Y-6553020D01*
X-11915045Y-6803787D01*
X-11915157Y-7060923D01*
X-12875705Y-7060923D01*
X-12878030Y-6990573D01*
X-12863951Y-6633239D01*
X-12808676Y-6296834D01*
X-12714004Y-5984212D01*
X-12581732Y-5698224D01*
X-12413659Y-5441725D01*
X-12211583Y-5217566D01*
X-11977302Y-5028600D01*
X-11712614Y-4877682D01*
X-11419318Y-4767662D01*
X-11322469Y-4744729D01*
X-11148999Y-4718298D01*
X-10953030Y-4701179D01*
X-10751332Y-4694247D01*
X-10560673Y-4698375D01*
X-10397824Y-4714437D01*
X-10127170Y-4776438D01*
X-9845060Y-4885817D01*
X-9585015Y-5034449D01*
X-9354308Y-5218115D01*
X-9160212Y-5432593D01*
X-9064234Y-5570526D01*
X-8909735Y-5857754D01*
X-8794335Y-6170744D01*
X-8719817Y-6502656D01*
X-8689171Y-6833624D01*
G37*
G36*
X-24400377Y4475012D02*
G01*
X-24428559Y4401750D01*
X-24507068Y4178510D01*
X-24567556Y3894847D01*
X-24592787Y3601586D01*
X-24581648Y3313198D01*
X-24533025Y3044154D01*
X-24464943Y2829919D01*
X-24319509Y2510705D01*
X-24126130Y2207409D01*
X-23885726Y1921403D01*
X-23599218Y1654056D01*
X-23516058Y1584178D01*
X-23444760Y1522971D01*
X-23398289Y1481523D01*
X-23384027Y1466275D01*
X-23413416Y1473471D01*
X-23483760Y1498531D01*
X-23583927Y1537814D01*
X-23704792Y1587406D01*
X-23837231Y1643391D01*
X-23972120Y1701857D01*
X-24100333Y1758889D01*
X-24212748Y1810572D01*
X-24300238Y1852992D01*
X-24353680Y1882236D01*
X-24436712Y1938848D01*
X-24655180Y2120575D01*
X-24861863Y2338483D01*
X-25047032Y2581587D01*
X-25200958Y2838901D01*
X-25223867Y2882906D01*
X-25268996Y2968160D01*
X-25302701Y3029873D01*
X-25318995Y3056982D01*
X-25333402Y3055731D01*
X-25370881Y3023313D01*
X-25421333Y2964091D01*
X-25476968Y2888201D01*
X-25529996Y2805779D01*
X-25572627Y2726962D01*
X-25594401Y2674348D01*
X-25632915Y2554734D01*
X-25668502Y2415639D01*
X-25696277Y2277062D01*
X-25711357Y2159002D01*
X-25714283Y2152135D01*
X-25730403Y2170020D01*
X-25755250Y2223144D01*
X-25771847Y2276468D01*
X-25786046Y2364345D01*
X-25793809Y2484553D01*
X-25796040Y2646477D01*
X-25794453Y2791365D01*
X-25788646Y2902055D01*
X-25776464Y2993796D01*
X-25755752Y3082797D01*
X-25724353Y3185265D01*
X-25718568Y3202691D01*
X-25671813Y3331323D01*
X-25618512Y3462420D01*
X-25569099Y3570113D01*
X-25521272Y3657509D01*
X-25446373Y3779921D01*
X-25360645Y3909538D01*
X-25273036Y4033351D01*
X-25192492Y4138351D01*
X-25127961Y4211527D01*
X-25063077Y4275669D01*
X-25078171Y4198699D01*
X-25084883Y4149134D01*
X-25093513Y4058155D01*
X-25102417Y3941733D01*
X-25110465Y3813333D01*
X-25112214Y3778621D01*
X-25112500Y3524391D01*
X-25090013Y3299616D01*
X-25045769Y3108878D01*
X-24980785Y2956758D01*
X-24896080Y2847840D01*
X-24853803Y2811248D01*
X-24840893Y2808612D01*
X-24850640Y2838901D01*
X-24857406Y2860474D01*
X-24871110Y2945135D01*
X-24880053Y3063178D01*
X-24884210Y3201929D01*
X-24883554Y3348712D01*
X-24878059Y3490854D01*
X-24867698Y3615680D01*
X-24852446Y3710516D01*
X-24818966Y3829149D01*
X-24740141Y4029600D01*
X-24640226Y4219427D01*
X-24529070Y4378295D01*
X-24469176Y4448213D01*
X-24419436Y4498535D01*
X-24396919Y4507371D01*
X-24400377Y4475012D01*
G37*
G36*
X-15954455Y-4798500D02*
G01*
X-15878433Y-4800366D01*
X-15845393Y-4803244D01*
X-15841793Y-4806257D01*
X-15813753Y-4842420D01*
X-15763201Y-4914844D01*
X-15693775Y-5018075D01*
X-15609115Y-5146656D01*
X-15512860Y-5295133D01*
X-15408649Y-5458048D01*
X-15373615Y-5513086D01*
X-15272519Y-5670940D01*
X-15181242Y-5812050D01*
X-15103295Y-5931085D01*
X-15042187Y-6022712D01*
X-15001428Y-6081598D01*
X-14984529Y-6102412D01*
X-14982230Y-6100497D01*
X-14958402Y-6067478D01*
X-14912395Y-5997632D01*
X-14847648Y-5896375D01*
X-14767602Y-5769124D01*
X-14675699Y-5621295D01*
X-14575377Y-5458305D01*
X-14546281Y-5410902D01*
X-14447102Y-5250755D01*
X-14356606Y-5106782D01*
X-14278370Y-4984527D01*
X-14215971Y-4889536D01*
X-14172986Y-4827353D01*
X-14152993Y-4803524D01*
X-14148862Y-4802664D01*
X-14103503Y-4800034D01*
X-14017058Y-4798380D01*
X-13897591Y-4797754D01*
X-13753166Y-4798211D01*
X-13591849Y-4799803D01*
X-13058520Y-4806755D01*
X-13740045Y-5813991D01*
X-14421571Y-6821227D01*
X-13701489Y-7900894D01*
X-13667561Y-7951782D01*
X-13528446Y-8160805D01*
X-13398551Y-8356551D01*
X-13280635Y-8534826D01*
X-13177457Y-8691434D01*
X-13091778Y-8822177D01*
X-13026356Y-8922862D01*
X-12983950Y-8989291D01*
X-12967320Y-9017269D01*
X-12966620Y-9025632D01*
X-12979227Y-9035799D01*
X-13013670Y-9042876D01*
X-13075841Y-9047201D01*
X-13171631Y-9049111D01*
X-13306932Y-9048942D01*
X-13487635Y-9047032D01*
X-14022035Y-9040089D01*
X-14481926Y-8326186D01*
X-14581063Y-8172776D01*
X-14692040Y-8002881D01*
X-14780423Y-7870429D01*
X-14848759Y-7771891D01*
X-14899594Y-7703737D01*
X-14935477Y-7662438D01*
X-14958953Y-7644465D01*
X-14972570Y-7646287D01*
X-14979569Y-7655605D01*
X-15012379Y-7704353D01*
X-15067084Y-7788383D01*
X-15140139Y-7902160D01*
X-15227997Y-8040147D01*
X-15327111Y-8196807D01*
X-15433937Y-8366604D01*
X-15864551Y-9052917D01*
X-16428626Y-9052917D01*
X-16570586Y-9052688D01*
X-16723328Y-9051453D01*
X-16834615Y-9048814D01*
X-16910129Y-9044396D01*
X-16955547Y-9037827D01*
X-16976551Y-9028732D01*
X-16978819Y-9016739D01*
X-16977445Y-9013979D01*
X-16954725Y-8976950D01*
X-16906863Y-8902431D01*
X-16836619Y-8794618D01*
X-16746754Y-8657710D01*
X-16640030Y-8495904D01*
X-16519208Y-8313399D01*
X-16387048Y-8114393D01*
X-16246313Y-7903082D01*
X-15527690Y-6825604D01*
X-16203503Y-5816180D01*
X-16879315Y-4806755D01*
X-16375957Y-4799780D01*
X-16357205Y-4799527D01*
X-16202163Y-4798027D01*
X-16065139Y-4797703D01*
X-15954455Y-4798500D01*
G37*
G36*
X-18490137Y-4704237D02*
G01*
X-18305034Y-4722953D01*
X-18154585Y-4752575D01*
X-17953913Y-4820773D01*
X-17723961Y-4936449D01*
X-17523756Y-5081212D01*
X-17358393Y-5250524D01*
X-17232971Y-5439847D01*
X-17152585Y-5644643D01*
X-17135811Y-5725796D01*
X-17120183Y-5878273D01*
X-17117930Y-6042298D01*
X-17129026Y-6197503D01*
X-17153445Y-6323517D01*
X-17172436Y-6379537D01*
X-17267121Y-6560239D01*
X-17405941Y-6726851D01*
X-17583747Y-6873979D01*
X-17795393Y-6996229D01*
X-17838465Y-7016412D01*
X-17911510Y-7048535D01*
X-17987537Y-7078375D01*
X-18074337Y-7108420D01*
X-18179702Y-7141160D01*
X-18311423Y-7179082D01*
X-18477291Y-7224677D01*
X-18685098Y-7280431D01*
X-18725454Y-7291261D01*
X-18971128Y-7361540D01*
X-19170666Y-7428169D01*
X-19328186Y-7493868D01*
X-19447810Y-7561352D01*
X-19533657Y-7633342D01*
X-19589847Y-7712553D01*
X-19620502Y-7801703D01*
X-19629742Y-7903512D01*
X-19615191Y-8008375D01*
X-19552676Y-8132957D01*
X-19440755Y-8243926D01*
X-19427217Y-8253891D01*
X-19282520Y-8329809D01*
X-19106149Y-8379493D01*
X-18909652Y-8402331D01*
X-18704576Y-8397711D01*
X-18502469Y-8365020D01*
X-18314879Y-8303645D01*
X-18203846Y-8239329D01*
X-18089148Y-8135487D01*
X-17996087Y-8011097D01*
X-17933657Y-7878483D01*
X-17910848Y-7749968D01*
X-17910609Y-7719321D01*
X-17906256Y-7680968D01*
X-17891109Y-7653536D01*
X-17858413Y-7635196D01*
X-17801416Y-7624118D01*
X-17713365Y-7618471D01*
X-17587507Y-7616425D01*
X-17417089Y-7616149D01*
X-16954477Y-7616149D01*
X-16971803Y-7807342D01*
X-16985764Y-7918580D01*
X-17051639Y-8176265D01*
X-17161040Y-8407554D01*
X-17312570Y-8610408D01*
X-17504829Y-8782784D01*
X-17736417Y-8922642D01*
X-17773537Y-8940486D01*
X-17971632Y-9022440D01*
X-18177788Y-9083111D01*
X-18413293Y-9128990D01*
X-18424598Y-9130694D01*
X-18567876Y-9143207D01*
X-18743358Y-9146261D01*
X-18934549Y-9140648D01*
X-19124953Y-9127161D01*
X-19298073Y-9106595D01*
X-19437414Y-9079741D01*
X-19501958Y-9061939D01*
X-19696969Y-8992727D01*
X-19884301Y-8905137D01*
X-20049454Y-8806523D01*
X-20177926Y-8704237D01*
X-20298378Y-8574272D01*
X-20419991Y-8393753D01*
X-20500298Y-8197202D01*
X-20542309Y-7976665D01*
X-20549038Y-7724186D01*
X-20536228Y-7550884D01*
X-20504413Y-7390885D01*
X-20448339Y-7253501D01*
X-20361977Y-7124421D01*
X-20239293Y-6989339D01*
X-20216249Y-6966576D01*
X-20119105Y-6878294D01*
X-20020515Y-6804227D01*
X-19912293Y-6740556D01*
X-19786252Y-6683461D01*
X-19634202Y-6629122D01*
X-19447959Y-6573718D01*
X-19219333Y-6513429D01*
X-19118789Y-6487819D01*
X-18858579Y-6419717D01*
X-18643081Y-6359477D01*
X-18468214Y-6305013D01*
X-18329898Y-6254242D01*
X-18224054Y-6205079D01*
X-18146603Y-6155441D01*
X-18093464Y-6103241D01*
X-18060559Y-6046397D01*
X-18043808Y-5982824D01*
X-18039131Y-5910438D01*
X-18039268Y-5898954D01*
X-18066413Y-5756915D01*
X-18138425Y-5636260D01*
X-18252091Y-5540829D01*
X-18404196Y-5474459D01*
X-18520210Y-5449891D01*
X-18692090Y-5438075D01*
X-18870310Y-5448050D01*
X-19036737Y-5478549D01*
X-19173238Y-5528300D01*
X-19199645Y-5543081D01*
X-19308015Y-5631042D01*
X-19396444Y-5744748D01*
X-19449848Y-5865795D01*
X-19459682Y-5903555D01*
X-19479835Y-5980804D01*
X-19493199Y-6031856D01*
X-19497171Y-6041994D01*
X-19511696Y-6055418D01*
X-19542179Y-6064894D01*
X-19595691Y-6071092D01*
X-19679302Y-6074687D01*
X-19800083Y-6076350D01*
X-19965102Y-6076755D01*
X-20425191Y-6076755D01*
X-20424746Y-5993372D01*
X-20420135Y-5933213D01*
X-20406638Y-5838526D01*
X-20387438Y-5736026D01*
X-20370843Y-5667487D01*
X-20283927Y-5442854D01*
X-20153951Y-5243372D01*
X-19983315Y-5071145D01*
X-19774416Y-4928279D01*
X-19529655Y-4816881D01*
X-19251429Y-4739054D01*
X-19098099Y-4715436D01*
X-18902197Y-4700287D01*
X-18694367Y-4696618D01*
X-18490137Y-4704237D01*
G37*
G36*
X-24265687Y-2485118D02*
G01*
X-24217351Y-2738014D01*
X-24177999Y-3196806D01*
X-24174899Y-3271473D01*
X-24167850Y-3396796D01*
X-24159780Y-3497197D01*
X-24151461Y-3563885D01*
X-24143665Y-3588068D01*
X-24127462Y-3583852D01*
X-24069053Y-3562245D01*
X-23977480Y-3525437D01*
X-23861038Y-3476969D01*
X-23728022Y-3420380D01*
X-23586726Y-3359210D01*
X-23445444Y-3297001D01*
X-23312471Y-3237292D01*
X-23196101Y-3183624D01*
X-23177214Y-3174729D01*
X-22839717Y-3007220D01*
X-22537685Y-2840619D01*
X-22272898Y-2676408D01*
X-22047133Y-2516071D01*
X-21862170Y-2361091D01*
X-21719788Y-2212951D01*
X-21621767Y-2073136D01*
X-21569885Y-1943127D01*
X-21565921Y-1824409D01*
X-21575533Y-1782185D01*
X-21641102Y-1630419D01*
X-21755732Y-1477318D01*
X-21919853Y-1322514D01*
X-22133896Y-1165637D01*
X-22398292Y-1006321D01*
X-22713472Y-844197D01*
X-22932546Y-743017D01*
X-23277231Y-598302D01*
X-23626623Y-467653D01*
X-23969137Y-355054D01*
X-24293190Y-264489D01*
X-24587196Y-199939D01*
X-24756039Y-165475D01*
X-25177744Y-49823D01*
X-25604999Y107032D01*
X-26027798Y300693D01*
X-26436132Y526765D01*
X-26819996Y780853D01*
X-26823347Y783280D01*
X-26918657Y853339D01*
X-26995486Y911721D01*
X-27046063Y952391D01*
X-27062622Y969316D01*
X-27056365Y968646D01*
X-27014162Y952830D01*
X-26941683Y921115D01*
X-26849747Y878135D01*
X-26647245Y786040D01*
X-26347867Y667941D01*
X-26055509Y573296D01*
X-25776882Y503697D01*
X-25518698Y460734D01*
X-25287669Y445999D01*
X-25090505Y461082D01*
X-25038600Y471697D01*
X-24932781Y501787D01*
X-24830236Y540042D01*
X-24742593Y581316D01*
X-24681480Y620460D01*
X-24658525Y652327D01*
X-24659212Y655553D01*
X-24681570Y690941D01*
X-24729122Y750238D01*
X-24793222Y822518D01*
X-24870358Y917469D01*
X-24962128Y1055296D01*
X-25051553Y1212311D01*
X-25132790Y1376583D01*
X-25199995Y1536183D01*
X-25247325Y1679184D01*
X-25268937Y1793655D01*
X-25271173Y1846328D01*
X-25266049Y1953444D01*
X-25248518Y2030978D01*
X-25238402Y2052850D01*
X-25207837Y2096651D01*
X-25182330Y2108130D01*
X-25171656Y2080933D01*
X-25154890Y2044328D01*
X-25105652Y1983432D01*
X-25032862Y1908499D01*
X-24945516Y1828220D01*
X-24852614Y1751287D01*
X-24763155Y1686390D01*
X-24735543Y1668360D01*
X-24520527Y1541750D01*
X-24285590Y1427871D01*
X-24022884Y1323567D01*
X-23724560Y1225680D01*
X-23382771Y1131052D01*
X-23378914Y1130061D01*
X-23136318Y1066190D01*
X-22933977Y1009148D01*
X-22761986Y955675D01*
X-22610443Y902509D01*
X-22469443Y846389D01*
X-22329083Y784054D01*
X-22085539Y660105D01*
X-21860071Y516718D01*
X-21676034Y362624D01*
X-21528267Y193438D01*
X-21411605Y4772D01*
X-21408759Y-750D01*
X-21362410Y-88331D01*
X-21322276Y-160246D01*
X-21296765Y-201402D01*
X-21288526Y-210705D01*
X-21276393Y-204449D01*
X-21279055Y-154487D01*
X-21295743Y-64558D01*
X-21325684Y61599D01*
X-21368110Y220246D01*
X-21422249Y407645D01*
X-21434443Y448565D01*
X-21477412Y595028D01*
X-21504435Y699034D01*
X-21512772Y761303D01*
X-21499686Y782554D01*
X-21462438Y763508D01*
X-21398290Y704886D01*
X-21304504Y607407D01*
X-21178342Y471791D01*
X-20966264Y236714D01*
X-20694151Y-89639D01*
X-20466608Y-396556D01*
X-20282671Y-685764D01*
X-20141374Y-958987D01*
X-20041753Y-1217950D01*
X-19982843Y-1464380D01*
X-19963678Y-1700001D01*
X-19976797Y-1881374D01*
X-20036851Y-2118958D01*
X-20145058Y-2340888D01*
X-20300870Y-2546744D01*
X-20503744Y-2736109D01*
X-20753132Y-2908562D01*
X-21048490Y-3063685D01*
X-21389271Y-3201059D01*
X-21774931Y-3320264D01*
X-22204922Y-3420883D01*
X-22361957Y-3450534D01*
X-22630143Y-3493971D01*
X-22915686Y-3532861D01*
X-23205134Y-3565729D01*
X-23485033Y-3591101D01*
X-23741929Y-3607503D01*
X-23962369Y-3613460D01*
X-24177021Y-3613725D01*
X-24087885Y-3712388D01*
X-24013825Y-3800004D01*
X-23857089Y-4022868D01*
X-23709279Y-4283101D01*
X-23575032Y-4571196D01*
X-23458988Y-4877644D01*
X-23365783Y-5192935D01*
X-23337720Y-5311528D01*
X-23306313Y-5462525D01*
X-23277185Y-5620531D01*
X-23251285Y-5778376D01*
X-23229561Y-5928888D01*
X-23212960Y-6064898D01*
X-23202430Y-6179234D01*
X-23198919Y-6264725D01*
X-23203374Y-6314202D01*
X-23216745Y-6320493D01*
X-23226333Y-6308252D01*
X-23260924Y-6256860D01*
X-23313744Y-6174316D01*
X-23379594Y-6068796D01*
X-23453277Y-5948473D01*
X-23501870Y-5868998D01*
X-23563536Y-5770170D01*
X-23610602Y-5697279D01*
X-23639146Y-5656354D01*
X-23645246Y-5653422D01*
X-23607948Y-5759490D01*
X-23564181Y-5890393D01*
X-23530523Y-6002924D01*
X-23501820Y-6114741D01*
X-23472914Y-6243497D01*
X-23469201Y-6261359D01*
X-23440363Y-6452882D01*
X-23422343Y-6677275D01*
X-23415275Y-6918884D01*
X-23419296Y-7162059D01*
X-23434544Y-7391145D01*
X-23461155Y-7590493D01*
X-23466561Y-7619921D01*
X-23578450Y-8085814D01*
X-23739535Y-8548710D01*
X-23950505Y-9010337D01*
X-24212051Y-9472426D01*
X-24276172Y-9587843D01*
X-24340910Y-9724176D01*
X-24391562Y-9850738D01*
X-24404185Y-9886417D01*
X-24435594Y-9969874D01*
X-24459525Y-10025855D01*
X-24471584Y-10043763D01*
X-24472343Y-10039591D01*
X-24469412Y-9996975D01*
X-24459764Y-9916308D01*
X-24444589Y-9806955D01*
X-24425080Y-9678279D01*
X-24407835Y-9559910D01*
X-24391708Y-9420894D01*
X-24379532Y-9272742D01*
X-24370628Y-9104915D01*
X-24364315Y-8906870D01*
X-24359912Y-8668068D01*
X-24358040Y-8555369D01*
X-24351161Y-8301100D01*
X-24341284Y-8090105D01*
X-24328554Y-7925044D01*
X-24313115Y-7808574D01*
X-24311536Y-7799775D01*
X-24293170Y-7666586D01*
X-24279923Y-7515573D01*
X-24274571Y-7377744D01*
X-24275698Y-7297099D01*
X-24309254Y-6987577D01*
X-24389202Y-6699905D01*
X-24515427Y-6434339D01*
X-24687813Y-6191139D01*
X-24906244Y-5970561D01*
X-25010364Y-5885629D01*
X-25123868Y-5805196D01*
X-25254953Y-5724713D01*
X-25413702Y-5637998D01*
X-25610195Y-5538868D01*
X-25641872Y-5523253D01*
X-25756038Y-5465910D01*
X-25851708Y-5416239D01*
X-25919638Y-5379111D01*
X-25950590Y-5359398D01*
X-25951085Y-5334312D01*
X-25906651Y-5304114D01*
X-25821948Y-5289236D01*
X-25702590Y-5306745D01*
X-25556117Y-5355760D01*
X-25387569Y-5434232D01*
X-25201988Y-5540107D01*
X-25004412Y-5671335D01*
X-24902925Y-5743247D01*
X-24813129Y-5805796D01*
X-24758488Y-5840830D01*
X-24735268Y-5849490D01*
X-24739735Y-5832916D01*
X-24768152Y-5792250D01*
X-24816785Y-5728632D01*
X-24819322Y-5725341D01*
X-25035216Y-5485168D01*
X-25278812Y-5286995D01*
X-25351922Y-5241372D01*
X-25464709Y-5178271D01*
X-25595319Y-5109984D01*
X-25728266Y-5044356D01*
X-25848063Y-4989230D01*
X-25939222Y-4952454D01*
X-25968333Y-4941144D01*
X-26011546Y-4910945D01*
X-26003564Y-4879910D01*
X-25944460Y-4846527D01*
X-25928247Y-4840566D01*
X-25816980Y-4830747D01*
X-25684851Y-4865226D01*
X-25534435Y-4943034D01*
X-25368306Y-5063204D01*
X-25355602Y-5073459D01*
X-25288307Y-5124300D01*
X-25240901Y-5154246D01*
X-25222969Y-5157105D01*
X-25234514Y-5125988D01*
X-25274270Y-5064324D01*
X-25333609Y-4986955D01*
X-25403346Y-4905107D01*
X-25474296Y-4830010D01*
X-25537273Y-4772890D01*
X-25576382Y-4742538D01*
X-25721124Y-4643965D01*
X-25876453Y-4562487D01*
X-26062613Y-4487089D01*
X-26117161Y-4467384D01*
X-26215590Y-4433615D01*
X-26308319Y-4405536D01*
X-26401050Y-4382608D01*
X-26499485Y-4364289D01*
X-26609323Y-4350038D01*
X-26736268Y-4339316D01*
X-26886018Y-4331580D01*
X-27064277Y-4326289D01*
X-27276744Y-4322904D01*
X-27529122Y-4320883D01*
X-27827111Y-4319684D01*
X-27986005Y-4319170D01*
X-28233149Y-4318086D01*
X-28437544Y-4316593D01*
X-28604683Y-4314460D01*
X-28740057Y-4311455D01*
X-28849160Y-4307347D01*
X-28937484Y-4301904D01*
X-29010522Y-4294896D01*
X-29073766Y-4286091D01*
X-29132708Y-4275258D01*
X-29192842Y-4262165D01*
X-29257235Y-4246555D01*
X-29399202Y-4205726D01*
X-29524022Y-4161306D01*
X-29623421Y-4116804D01*
X-29689128Y-4075729D01*
X-29712868Y-4041590D01*
X-29712731Y-4039350D01*
X-29688342Y-4004733D01*
X-29634689Y-3972416D01*
X-29561405Y-3921081D01*
X-29503807Y-3833951D01*
X-29481959Y-3732861D01*
X-29480641Y-3709956D01*
X-29466379Y-3681717D01*
X-29426113Y-3664781D01*
X-29347262Y-3651556D01*
X-29108204Y-3600132D01*
X-28847469Y-3505980D01*
X-28592612Y-3376975D01*
X-28357585Y-3219213D01*
X-28291686Y-3167450D01*
X-28212503Y-3099044D01*
X-28158795Y-3039240D01*
X-28154804Y-3032676D01*
X-27421316Y-3032676D01*
X-27408989Y-3092406D01*
X-27388206Y-3169595D01*
X-27363630Y-3248300D01*
X-27339922Y-3312579D01*
X-27321743Y-3346492D01*
X-27307145Y-3356478D01*
X-27247223Y-3379250D01*
X-27168161Y-3396315D01*
X-27121477Y-3402699D01*
X-27073297Y-3404701D01*
X-27057414Y-3391625D01*
X-27062214Y-3359431D01*
X-27064316Y-3328086D01*
X-27052220Y-3248830D01*
X-27025194Y-3149001D01*
X-26988385Y-3044298D01*
X-26946942Y-2950420D01*
X-26906012Y-2883067D01*
X-26887211Y-2861875D01*
X-26837712Y-2830019D01*
X-26801845Y-2841041D01*
X-26788020Y-2894153D01*
X-26788459Y-2904813D01*
X-26802359Y-2980732D01*
X-26831065Y-3080565D01*
X-26868164Y-3185799D01*
X-26907245Y-3277923D01*
X-26941897Y-3338425D01*
X-26944262Y-3341448D01*
X-26978956Y-3390236D01*
X-26993272Y-3418933D01*
X-26981085Y-3430362D01*
X-26931518Y-3426870D01*
X-26839333Y-3404139D01*
X-26755476Y-3366841D01*
X-26647398Y-3279543D01*
X-26552836Y-3157699D01*
X-26549818Y-3152889D01*
X-26464947Y-3059472D01*
X-26357730Y-3012017D01*
X-26226610Y-3009819D01*
X-26108121Y-3026484D01*
X-26185090Y-2960417D01*
X-26285007Y-2885737D01*
X-26453786Y-2804476D01*
X-26628740Y-2772467D01*
X-26806127Y-2790733D01*
X-26842954Y-2801056D01*
X-26921599Y-2825878D01*
X-27020810Y-2858983D01*
X-27129036Y-2896315D01*
X-27234728Y-2933815D01*
X-27326334Y-2967427D01*
X-27392306Y-2993093D01*
X-27421093Y-3006756D01*
X-27421316Y-3032676D01*
X-28154804Y-3032676D01*
X-28120051Y-2975513D01*
X-28085760Y-2895341D01*
X-28084291Y-2891543D01*
X-28009486Y-2734854D01*
X-27906603Y-2567396D01*
X-27788558Y-2408305D01*
X-27668265Y-2276717D01*
X-27589708Y-2205691D01*
X-27409113Y-2073729D01*
X-27223157Y-1985357D01*
X-27020495Y-1935980D01*
X-26789777Y-1921004D01*
X-26764656Y-1921222D01*
X-26648038Y-1925572D01*
X-26542165Y-1934277D01*
X-26467313Y-1945778D01*
X-26428261Y-1953923D01*
X-26373476Y-1955574D01*
X-26320156Y-1936157D01*
X-26247361Y-1890399D01*
X-26238489Y-1884300D01*
X-26101414Y-1761061D01*
X-26007489Y-1612246D01*
X-25956695Y-1437463D01*
X-25949015Y-1236320D01*
X-25984431Y-1008423D01*
X-26062927Y-753379D01*
X-26129302Y-599079D01*
X-25891029Y-599079D01*
X-25618317Y-1073725D01*
X-25574537Y-1150195D01*
X-25408727Y-1445964D01*
X-25270544Y-1703671D01*
X-25158405Y-1926431D01*
X-25070727Y-2117363D01*
X-25005926Y-2279584D01*
X-24990160Y-2324606D01*
X-24959643Y-2433695D01*
X-24948472Y-2532941D01*
X-24955642Y-2641839D01*
X-24980149Y-2779887D01*
X-24996034Y-2856856D01*
X-24902024Y-2758593D01*
X-24864020Y-2721171D01*
X-24817821Y-2683244D01*
X-24794059Y-2674285D01*
X-24791259Y-2694374D01*
X-24800057Y-2755914D01*
X-24820718Y-2847372D01*
X-24850523Y-2958086D01*
X-24871295Y-3026484D01*
X-24886757Y-3077396D01*
X-24926700Y-3194640D01*
X-24930267Y-3204513D01*
X-24959165Y-3288471D01*
X-24977754Y-3349727D01*
X-24982153Y-3375619D01*
X-24967251Y-3371272D01*
X-24933275Y-3335024D01*
X-24891441Y-3275648D01*
X-24851224Y-3205456D01*
X-24825588Y-3150939D01*
X-24774936Y-3019079D01*
X-24731264Y-2874589D01*
X-24697174Y-2729447D01*
X-24675268Y-2595631D01*
X-24668147Y-2485118D01*
X-24678413Y-2409888D01*
X-24690789Y-2379550D01*
X-24710170Y-2366267D01*
X-24744781Y-2395162D01*
X-24760632Y-2410926D01*
X-24783398Y-2427760D01*
X-24798824Y-2417861D01*
X-24813215Y-2373476D01*
X-24832877Y-2286854D01*
X-24866529Y-2158843D01*
X-24965727Y-1894133D01*
X-25105894Y-1616476D01*
X-25283464Y-1331875D01*
X-25494871Y-1046330D01*
X-25736547Y-765846D01*
X-25891029Y-599079D01*
X-26129302Y-599079D01*
X-26184485Y-470796D01*
X-26201021Y-437202D01*
X-26272748Y-300940D01*
X-26352542Y-160345D01*
X-26425998Y-41048D01*
X-26457619Y7840D01*
X-26505725Y84905D01*
X-26536493Y138009D01*
X-26544350Y157790D01*
X-26538424Y157222D01*
X-26487574Y142388D01*
X-26405539Y111307D01*
X-26304452Y69170D01*
X-26196448Y21171D01*
X-26093661Y-27497D01*
X-26008222Y-71643D01*
X-25670255Y-282195D01*
X-25342398Y-542059D01*
X-25053247Y-834625D01*
X-24803638Y-1158466D01*
X-24594407Y-1512154D01*
X-24426392Y-1894260D01*
X-24300428Y-2303356D01*
X-24265687Y-2485118D01*
G37*
%TD*%
M02*
