%TF.GenerationSoftware,KiCad,Pcbnew,7.0.1-0*%
%TF.CreationDate,2023-07-14T11:12:34-05:00*%
%TF.ProjectId,power,706f7765-722e-46b6-9963-61645f706362,rev?*%
%TF.SameCoordinates,PXb5acc9ePY48ab840*%
%TF.FileFunction,Copper,L4,Bot*%
%TF.FilePolarity,Positive*%
%FSLAX46Y46*%
G04 Gerber Fmt 4.6, Leading zero omitted, Abs format (unit mm)*
G04 Created by KiCad (PCBNEW 7.0.1-0) date 2023-07-14 11:12:34*
%MOMM*%
%LPD*%
G01*
G04 APERTURE LIST*
%TA.AperFunction,ComponentPad*%
%ADD10C,1.500000*%
%TD*%
%TA.AperFunction,ComponentPad*%
%ADD11C,5.892800*%
%TD*%
%TA.AperFunction,ComponentPad*%
%ADD12C,4.521200*%
%TD*%
%TA.AperFunction,ComponentPad*%
%ADD13C,0.950000*%
%TD*%
%TA.AperFunction,ComponentPad*%
%ADD14C,2.000000*%
%TD*%
%TA.AperFunction,WasherPad*%
%ADD15C,3.000000*%
%TD*%
%TA.AperFunction,ComponentPad*%
%ADD16C,1.250000*%
%TD*%
%TA.AperFunction,ComponentPad*%
%ADD17R,1.700000X1.700000*%
%TD*%
%TA.AperFunction,ComponentPad*%
%ADD18O,1.700000X1.700000*%
%TD*%
%TA.AperFunction,ViaPad*%
%ADD19C,0.812800*%
%TD*%
%TA.AperFunction,ViaPad*%
%ADD20C,0.711200*%
%TD*%
%TA.AperFunction,ViaPad*%
%ADD21C,0.609600*%
%TD*%
%TA.AperFunction,ViaPad*%
%ADD22C,0.660400*%
%TD*%
%TA.AperFunction,Conductor*%
%ADD23C,0.812800*%
%TD*%
%TA.AperFunction,Conductor*%
%ADD24C,0.406400*%
%TD*%
%TA.AperFunction,Conductor*%
%ADD25C,0.203200*%
%TD*%
%TA.AperFunction,Conductor*%
%ADD26C,0.254000*%
%TD*%
%TA.AperFunction,Conductor*%
%ADD27C,0.304800*%
%TD*%
G04 APERTURE END LIST*
D10*
%TO.P,TP5,1,1*%
%TO.N,/converters/+5V5_reg_out*%
X-8763000Y-10413998D03*
%TD*%
%TO.P,TP8,1,1*%
%TO.N,/switches/nFORMAT_sw*%
X-85973000Y1524002D03*
%TD*%
%TO.P,TP21,1,1*%
%TO.N,/switches/nCMOS1_sw*%
X-93599000Y1524002D03*
%TD*%
%TO.P,TP1,1,1*%
%TO.N,Net-(U1-CLKOUT)*%
X-22265706Y-42671998D03*
%TD*%
%TO.P,TP16,1,1*%
%TO.N,/switches/nSAAS_sw*%
X-78359000Y1524002D03*
%TD*%
%TO.P,TP22,1,1*%
%TO.N,/switches/nCMOS2_sw*%
X-96139000Y1524002D03*
%TD*%
%TO.P,TP7,1,1*%
%TO.N,Net-(JP4-B)*%
X-27305000Y-49910998D03*
%TD*%
D11*
%TO.P,H2,1,1*%
%TO.N,Earth*%
X-109219998Y2D03*
%TD*%
D10*
%TO.P,TP10,1,1*%
%TO.N,/converters/+12V_reg_out*%
X-55626000Y-41909998D03*
%TD*%
%TO.P,TP17,1,1*%
%TO.N,/switches/nCDTE1_sw*%
X-81915000Y-2920998D03*
%TD*%
D12*
%TO.P,H5,1,1*%
%TO.N,+28V_ret*%
X-19812000Y-35432998D03*
%TD*%
D10*
%TO.P,TP20,1,1*%
%TO.N,/switches/nCDTE4_sw*%
X-91059000Y1524002D03*
%TD*%
%TO.P,TP14,1,1*%
%TO.N,/switches/nCDTEDE_sw*%
X-83433000Y1524002D03*
%TD*%
D11*
%TO.P,H1,1,1*%
%TO.N,Earth*%
X2Y2D03*
%TD*%
D12*
%TO.P,H6,1,1*%
%TO.N,+28V_ret*%
X-44577000Y-33400998D03*
%TD*%
D10*
%TO.P,TP13,1,1*%
%TO.N,Net-(U3-EN{slash}UV)*%
X-76327000Y-48894998D03*
%TD*%
%TO.P,TP6,1,1*%
%TO.N,Net-(JP4-A)*%
X-27305000Y-41020998D03*
%TD*%
%TO.P,TP2,1,1*%
%TO.N,Net-(U2-CLKOUT)*%
X-50292000Y-36067998D03*
%TD*%
%TO.P,TP9,1,1*%
%TO.N,Net-(JP5-A)*%
X-55626000Y-33908998D03*
%TD*%
%TO.P,TP15,1,1*%
%TO.N,/switches/nTIMEPIX_sw*%
X-80893000Y1524002D03*
%TD*%
D11*
%TO.P,H3,1,1*%
%TO.N,Earth*%
X-88264998Y-52069998D03*
%TD*%
D10*
%TO.P,TP18,1,1*%
%TO.N,/switches/nCDTE2_sw*%
X-84455000Y-2920998D03*
%TD*%
%TO.P,TP19,1,1*%
%TO.N,/switches/nCDTE3_sw*%
X-88519000Y1524002D03*
%TD*%
%TO.P,TP3,1,1*%
%TO.N,Net-(U3-SYNC)*%
X-82042000Y-45973998D03*
%TD*%
D13*
%TO.P,J2,1*%
%TO.N,unconnected-(J2-Pad1)*%
X-99945228Y-42563185D03*
%TO.P,J2,2*%
%TO.N,unconnected-(J2-Pad2)*%
X-100570228Y-41480653D03*
%TO.P,J2,3*%
%TO.N,unconnected-(J2-Pad3)*%
X-101195228Y-40398122D03*
%TO.P,J2,4*%
%TO.N,unconnected-(J2-Pad4)*%
X-101820228Y-39315590D03*
%TO.P,J2,5*%
%TO.N,/interface/PPS_in*%
X-101027760Y-43188185D03*
%TO.P,J2,6*%
%TO.N,unconnected-(J2-Pad6)*%
X-101652760Y-42105653D03*
%TO.P,J2,7*%
%TO.N,/interface/SHUTTER_in*%
X-102277760Y-41023122D03*
%TO.P,J2,8*%
%TO.N,/interface/PRELAUNCH_in*%
X-102902760Y-39940590D03*
D14*
%TO.P,J2,P1*%
%TO.N,+28V*%
X-97998994Y-47184162D03*
%TO.P,J2,P2*%
%TO.N,+28V_ret*%
X-99498994Y-44586085D03*
%TO.P,J2,P3*%
%TO.N,+28V_clean*%
X-103348994Y-37917690D03*
%TO.P,J2,P4*%
%TO.N,+28V_clean_ret*%
X-104848994Y-35319614D03*
%TD*%
D10*
%TO.P,TP12,1,1*%
%TO.N,Net-(U2-EN{slash}UV)*%
X-48514000Y-44576998D03*
%TD*%
D12*
%TO.P,H7,1,1*%
%TO.N,+28V_ret*%
X-69596000Y-48386998D03*
%TD*%
D11*
%TO.P,H4,1,1*%
%TO.N,Earth*%
X-15874998Y-52069998D03*
%TD*%
D10*
%TO.P,TP4,1,1*%
%TO.N,Net-(JP3-A)*%
X-16383000Y-23748998D03*
%TD*%
%TO.P,TP11,1,1*%
%TO.N,Net-(U1-EN{slash}UV)*%
X-12923636Y-42635197D03*
%TD*%
D15*
%TO.P,J3,*%
%TO.N,*%
X-82109998Y-26034998D03*
X-27109998Y-26034998D03*
D16*
%TO.P,J3,a1,Pin_a1*%
%TO.N,/interface/SAAS_5V_out*%
X-30609998Y-25034998D03*
%TO.P,J3,a2,Pin_a2*%
X-32609998Y-25034998D03*
%TO.P,J3,a3,Pin_a3*%
%TO.N,/interface/SAAS_12V_out*%
X-34609998Y-25034998D03*
%TO.P,J3,a4,Pin_a4*%
X-36609998Y-25034998D03*
%TO.P,J3,a5,Pin_a5*%
%TO.N,/interface/TIMEPIX_5V_out*%
X-38609998Y-25034998D03*
%TO.P,J3,a6,Pin_a6*%
X-40609998Y-25034998D03*
%TO.P,J3,a7,Pin_a7*%
%TO.N,/interface/TIMEPIX_12V_out*%
X-42609998Y-25034998D03*
%TO.P,J3,a8,Pin_a8*%
X-44609998Y-25034998D03*
%TO.P,J3,a9,Pin_a9*%
%TO.N,/interface/CDTEDE_V_out*%
X-46609998Y-25034998D03*
%TO.P,J3,a10,Pin_a10*%
X-48609998Y-25034998D03*
%TO.P,J3,a11,Pin_a11*%
%TO.N,/interface/FORMAT_V_out*%
X-50609998Y-25034998D03*
%TO.P,J3,a12,Pin_a12*%
X-52609998Y-25034998D03*
%TO.P,J3,a13,Pin_a13*%
%TO.N,unconnected-(J3-Pin_a13-Pada13)*%
X-54609998Y-25034998D03*
%TO.P,J3,a14,Pin_a14*%
%TO.N,/interface/CDTE1_V_out*%
X-56609998Y-25034998D03*
%TO.P,J3,a15,Pin_a15*%
X-58609998Y-25034998D03*
%TO.P,J3,a16,Pin_a16*%
%TO.N,/interface/CDTE2_V_out*%
X-60609998Y-25034998D03*
%TO.P,J3,a17,Pin_a17*%
X-62609998Y-25034998D03*
%TO.P,J3,a18,Pin_a18*%
%TO.N,/interface/CDTE3_V_out*%
X-64609998Y-25034998D03*
%TO.P,J3,a19,Pin_a19*%
X-66609998Y-25034998D03*
%TO.P,J3,a20,Pin_a20*%
%TO.N,/interface/CDTE4_V_out*%
X-68609998Y-25034998D03*
%TO.P,J3,a21,Pin_a21*%
X-70609998Y-25034998D03*
%TO.P,J3,a22,Pin_a22*%
%TO.N,/interface/CMOS1_V_out*%
X-72609998Y-25034998D03*
%TO.P,J3,a23,Pin_a23*%
X-74609998Y-25034998D03*
%TO.P,J3,a24,Pin_a24*%
%TO.N,/interface/CMOS2_V_out*%
X-76609998Y-25034998D03*
%TO.P,J3,a25,Pin_a25*%
X-78609998Y-25034998D03*
%TO.P,J3,b1,Pin_b1*%
%TO.N,+28V_ret*%
X-30609998Y-27034998D03*
%TO.P,J3,b2,Pin_b2*%
X-32609998Y-27034998D03*
%TO.P,J3,b3,Pin_b3*%
X-34609998Y-27034998D03*
%TO.P,J3,b4,Pin_b4*%
X-36609998Y-27034998D03*
%TO.P,J3,b5,Pin_b5*%
X-38609998Y-27034998D03*
%TO.P,J3,b6,Pin_b6*%
X-40609998Y-27034998D03*
%TO.P,J3,b7,Pin_b7*%
X-42609998Y-27034998D03*
%TO.P,J3,b8,Pin_b8*%
X-44609998Y-27034998D03*
%TO.P,J3,b9,Pin_b9*%
X-46609998Y-27034998D03*
%TO.P,J3,b10,Pin_b10*%
X-48609998Y-27034998D03*
%TO.P,J3,b11,Pin_b11*%
X-50609998Y-27034998D03*
%TO.P,J3,b12,Pin_b12*%
X-52609998Y-27034998D03*
%TO.P,J3,b13,Pin_b13*%
%TO.N,unconnected-(J3-Pin_b13-Padb13)*%
X-54609998Y-27034998D03*
%TO.P,J3,b14,Pin_b14*%
%TO.N,+28V_clean_ret*%
X-56609998Y-27034998D03*
%TO.P,J3,b15,Pin_b15*%
X-58609998Y-27034998D03*
%TO.P,J3,b16,Pin_b16*%
X-60609998Y-27034998D03*
%TO.P,J3,b17,Pin_b17*%
X-62609998Y-27034998D03*
%TO.P,J3,b18,Pin_b18*%
X-64609998Y-27034998D03*
%TO.P,J3,b19,Pin_b19*%
X-66609998Y-27034998D03*
%TO.P,J3,b20,Pin_b20*%
X-68609998Y-27034998D03*
%TO.P,J3,b21,Pin_b21*%
X-70609998Y-27034998D03*
%TO.P,J3,b22,Pin_b22*%
X-72609998Y-27034998D03*
%TO.P,J3,b23,Pin_b23*%
X-74609998Y-27034998D03*
%TO.P,J3,b24,Pin_b24*%
X-76609998Y-27034998D03*
%TO.P,J3,b25,Pin_b25*%
X-78609998Y-27034998D03*
%TD*%
D17*
%TO.P,J1,1,Pin_1*%
%TO.N,/converters/+5V_reg_out*%
X-105917998Y-6386828D03*
D18*
%TO.P,J1,2,Pin_2*%
%TO.N,/interface/PGC*%
X-108457998Y-6386828D03*
%TO.P,J1,3,Pin_3*%
%TO.N,/converters/+5V_reg_out*%
X-105917998Y-8926828D03*
%TO.P,J1,4,Pin_4*%
%TO.N,/interface/PGD*%
X-108457998Y-8926828D03*
%TO.P,J1,5,Pin_5*%
%TO.N,/interface/SPI.SCK*%
X-105917998Y-11466828D03*
%TO.P,J1,6,Pin_6*%
%TO.N,+28V_ret*%
X-108457998Y-11466828D03*
%TO.P,J1,7,Pin_7*%
%TO.N,/interface/SPI.SDI*%
X-105917998Y-14006828D03*
%TO.P,J1,8,Pin_8*%
%TO.N,/interface/+3V3_in*%
X-108457998Y-14006828D03*
%TO.P,J1,9,Pin_9*%
%TO.N,/interface/SPI.SDO*%
X-105917998Y-16546828D03*
%TO.P,J1,10,Pin_10*%
%TO.N,/interface/nMCLR*%
X-108457998Y-16546828D03*
%TO.P,J1,11,Pin_11*%
%TO.N,/interface/SPI.nCS3*%
X-105917998Y-19086828D03*
%TO.P,J1,12,Pin_12*%
%TO.N,/interface/PPS_in*%
X-108457998Y-19086828D03*
%TO.P,J1,13,Pin_13*%
%TO.N,/interface/SPI.nCS4*%
X-105917998Y-21626828D03*
%TO.P,J1,14,Pin_14*%
%TO.N,/interface/SHUTTER_in*%
X-108457998Y-21626828D03*
%TO.P,J1,15,Pin_15*%
%TO.N,/interface/PRELAUNCH_in*%
X-105917998Y-24166828D03*
%TO.P,J1,16,Pin_16*%
%TO.N,+28V_ret*%
X-108457998Y-24166828D03*
%TD*%
D19*
%TO.N,+28V_clean_ret*%
X-98298000Y-29971998D03*
D20*
X-77851000Y-29209998D03*
D19*
X-96647000Y-32384998D03*
X-97536000Y-31114998D03*
D20*
X-81915000Y-29209998D03*
X-82931000Y-30225998D03*
D19*
X-98933000Y-33781998D03*
X-99060000Y-31114998D03*
D20*
X-76835000Y-29209998D03*
D19*
X-98044000Y-32384998D03*
D20*
X-80899000Y-29209998D03*
D19*
X-100965000Y-33654998D03*
X-102362000Y-33654998D03*
D20*
X-78867000Y-29209998D03*
X-81915000Y-30225998D03*
D19*
X-97282000Y-33654998D03*
D20*
X-82931000Y-29209998D03*
D19*
X-99568000Y-32892998D03*
X-103251000Y-32257998D03*
X-99568000Y-29971998D03*
D20*
X-79883000Y-29209998D03*
%TO.N,+28V_ret*%
X-10414000Y1016002D03*
X-72389998Y-46863000D03*
X-40005000Y-45846998D03*
X-11483488Y-37600788D03*
X-65531998Y-46355000D03*
X-57023000Y-47878998D03*
X-12446000Y-1015998D03*
X-9398000Y-2031998D03*
X-41021000Y-45846998D03*
X-81661000Y-36448998D03*
X-5207000Y-21970998D03*
D19*
X-65532000Y2159002D03*
D20*
X-65913000Y-29717998D03*
X-4191000Y-16890998D03*
X-57403998Y-14096998D03*
X-36957000Y-14096998D03*
X-52578000Y-50926998D03*
X-66547998Y-48387000D03*
D19*
X-64516000Y1143002D03*
D20*
X-42037000Y-48894998D03*
X-87883998Y-14096998D03*
X-94107000Y-39750998D03*
X-80010000Y-45338998D03*
X-8382000Y-4063998D03*
X-12446000Y-2031998D03*
X-69977000Y-29717998D03*
X-63881000Y-29717998D03*
X-28956002Y-20193000D03*
X-11430000Y-3047998D03*
X-54736998Y-10414000D03*
X-51562000Y-50926998D03*
X-2159000Y-19938998D03*
X-39497004Y-6477002D03*
X-44069000Y-47878998D03*
X-11430000Y-2031998D03*
X-41021000Y-44830998D03*
X-9398000Y-3047998D03*
X-56514998Y-14096998D03*
X-10467488Y-35841024D03*
X-4191000Y-21970998D03*
X-14426641Y-37927479D03*
X-73278998Y-44831000D03*
X-94869000Y-40258998D03*
X-42926000Y-20192998D03*
X-44069000Y-46862998D03*
X-40005000Y-44830998D03*
X-63499998Y-46355000D03*
X-46845500Y-39362998D03*
X-74167998Y-44069000D03*
D19*
X-40005000Y3810002D03*
D20*
X-11430000Y-1015998D03*
X-58292998Y-14096998D03*
X-60451998Y-47371000D03*
X-11430000Y2032002D03*
X-83947000Y-37845998D03*
X-36068000Y-14096998D03*
X-42037000Y-43814998D03*
X-9398000Y2D03*
X-9398000Y-1015998D03*
X-4191000Y-20954998D03*
X-2159000Y-21970998D03*
X-64897000Y-29717998D03*
X-43750500Y-38037998D03*
X-61468000Y-48767998D03*
X-3175000Y-20954998D03*
X-55625998Y-14096998D03*
X-8382000Y3048002D03*
X-43053000Y-41782998D03*
X-57023000Y-49910998D03*
X-4191000Y-19938998D03*
X-85216998Y-14096998D03*
X-3175000Y-11810998D03*
X-67563998Y-50419000D03*
X-51689000Y-1269998D03*
X-78867000Y-34670998D03*
D19*
X-64516000Y2159002D03*
D20*
X-66547998Y-45339000D03*
X-7366000Y2D03*
X-79883000Y-34670998D03*
X-5207000Y-17906998D03*
X-75056998Y-44069000D03*
X-23939173Y-36568668D03*
X-59943998Y-7365998D03*
X-13462000Y2D03*
X-30353002Y-10667998D03*
X-66547998Y-47371000D03*
X-59943998Y-6476998D03*
X-45298000Y-39362998D03*
X-8382000Y-3047998D03*
X-96647000Y-41274998D03*
X-61594998Y-20192998D03*
X-42037000Y-20192998D03*
X-92963998Y-20192998D03*
X-21335998Y-37973000D03*
X-66547998Y-49403000D03*
X-71882000Y-46100998D03*
X-59055000Y-1269998D03*
X-10414000Y-4063998D03*
X-71373998Y-14096998D03*
X-47625000Y-33400998D03*
X-76835000Y-34670998D03*
X-69596000Y-44322998D03*
X-59435998Y-46355000D03*
X-25272998Y-38989000D03*
X-66929000Y-29717998D03*
X-85979000Y-37845998D03*
X-42037000Y-47878998D03*
X-79121000Y-45338998D03*
X-23431173Y-35688786D03*
X-55372000Y-4698998D03*
X-56007000Y-47878998D03*
X-22098000Y3429002D03*
X-64515998Y-47371000D03*
X-13462000Y-15112998D03*
X-49657000Y-31368998D03*
X-88646000Y-36448998D03*
X-76834998Y-44831000D03*
X-69596000Y-45338998D03*
X-15974141Y-40607827D03*
X-49530000Y-50926998D03*
X-25527002Y-6476998D03*
X-93091000Y-36829998D03*
X-42037000Y-42798998D03*
X-63499998Y-47371000D03*
X-80899000Y-44449998D03*
X-5207000Y-20954998D03*
X-53848000Y-39877998D03*
X-76454000Y-37908998D03*
X-29210000Y-40385998D03*
X-10414000Y2D03*
X-61467998Y-46355000D03*
X-70612000Y-43306998D03*
X-10688682Y-39526141D03*
X-56007000Y-48894998D03*
X-7366000Y-2031998D03*
X-48514000Y-50926998D03*
X-55372000Y2413002D03*
X-4191000Y-12826998D03*
X-8382000Y-1015998D03*
X-48514000Y-51942998D03*
X-67945000Y-29717998D03*
X-8382000Y1016002D03*
X-40386004Y-6477002D03*
X-74802998Y-7365998D03*
X-9587606Y-36349025D03*
X-88645998Y-6476998D03*
X-4191000Y-15874998D03*
X-48641000Y-31368998D03*
X-68580000Y-45338998D03*
X-97916998Y-3174998D03*
D19*
X-44577000Y3810002D03*
D20*
X-76834998Y-44069000D03*
X-76453998Y-20192998D03*
X-46101002Y-10667998D03*
X-13462000Y-14096998D03*
X-50546000Y-50926998D03*
X-11430000Y1016002D03*
X-86105998Y-14096998D03*
X-47625000Y-31368998D03*
X-59054998Y-6476998D03*
X-18034000Y-21843998D03*
X-13462000Y3048002D03*
X-4191000Y-14858998D03*
D19*
X-100711000Y-16763998D03*
D20*
X-86994998Y-14096998D03*
X-58419998Y-46355000D03*
X-42290998Y-35052000D03*
X-42037000Y-45846998D03*
X-9398000Y-4063998D03*
X-2159000Y-20954998D03*
X-54991000Y-47878998D03*
X-81026000Y-48386998D03*
D19*
X-100711000Y-15620998D03*
D20*
X-5207000Y-11810998D03*
X-62483998Y-46355000D03*
X-70612000Y-42290998D03*
D19*
X-101854000Y-14477998D03*
D20*
X-10975489Y-36720905D03*
X-26289002Y-20193000D03*
X-29210000Y-39369998D03*
X-10603607Y-38108788D03*
X-70612000Y-44322998D03*
X-43179998Y-35941000D03*
X-23495000Y-40004998D03*
X-10414000Y-2031998D03*
X-81661000Y-35432998D03*
D19*
X-46101000Y3810002D03*
D20*
X-80009998Y-42672000D03*
X-37846000Y-14096998D03*
X-70612000Y-45338998D03*
X-74041000Y-29717998D03*
X-62483998Y-20192998D03*
X-62611000Y-49783998D03*
X-79120998Y-43561000D03*
X-10095606Y-37228906D03*
X-47625000Y-32384998D03*
X-10414000Y-1015998D03*
X-73025000Y-29717998D03*
X-7366000Y-1015998D03*
X-45212002Y-10667998D03*
X-74167998Y-44831000D03*
X-94488000Y-10667998D03*
X-43053000Y-46862998D03*
X-24383998Y-39497000D03*
X-8707724Y-36857024D03*
X-12446000Y1016002D03*
X-58419998Y-47371000D03*
X-80010000Y-44449998D03*
X-31242002Y-10667998D03*
X-42037000Y-46862998D03*
X-66547998Y-46355000D03*
X-80010000Y-43560998D03*
X-82931000Y-37845998D03*
X-89534998Y-7365998D03*
X-57023000Y-48894998D03*
X-24447174Y-37448550D03*
X-25272998Y-37973000D03*
X-16256000Y-12572996D03*
X-15367000Y-21843998D03*
X-9398000Y3048002D03*
X-75056998Y-44831000D03*
X-100330000Y4064002D03*
X-65531998Y-47371000D03*
X-80899000Y-43560998D03*
X-45298000Y-38037998D03*
X-46845500Y-38037998D03*
X-7366000Y-3047998D03*
X-81026000Y-47370998D03*
X-75564998Y-20192998D03*
X-41148000Y-20192998D03*
X-73151998Y-14096998D03*
X-57023000Y-46862998D03*
X-67563998Y-46355000D03*
X-52832000Y-43941998D03*
X-13462000Y-1015998D03*
X-46608998Y-31369000D03*
X-24510998Y-35687000D03*
X-5207000Y-19938998D03*
X-43053000Y-48894998D03*
X-75945998Y-44069000D03*
X-3175000Y-16890998D03*
X-5207000Y-16890998D03*
X-5207000Y-13842998D03*
X-53720998Y-10414000D03*
X-7366000Y2032002D03*
X-80899000Y-42671998D03*
X-66547998Y-50419000D03*
X-62611000Y-48767998D03*
X-79121000Y-44449998D03*
X-10414000Y-3047998D03*
X-73405998Y-46863000D03*
X-73913998Y-6476998D03*
X-74802998Y-6476998D03*
X-43053000Y-47878998D03*
X-67563998Y-45339000D03*
X-22415174Y-33929021D03*
X-68961000Y-29717998D03*
X-29210000Y-37337998D03*
X-12446000Y3048002D03*
X-90296998Y-20192998D03*
X-73278998Y-44069000D03*
X-9398000Y2032002D03*
X-48514000Y-52958998D03*
X-3175000Y-21970998D03*
X-22987002Y-14097000D03*
X-27178002Y-20193000D03*
X-95377000Y-10667998D03*
X-9808798Y-40034140D03*
D19*
X-101854000Y-16636998D03*
D20*
X-71882000Y-42798998D03*
X-80645000Y-35432998D03*
X-49657000Y-32384998D03*
D19*
X-101854000Y-15620998D03*
D20*
X-54991000Y-48894998D03*
X-21082000Y2413002D03*
X-24638002Y-6476998D03*
X-23876002Y-14097000D03*
D19*
X-65532000Y1143002D03*
D20*
X-23059291Y-37076667D03*
X-15200391Y-39267653D03*
D19*
X-65532000Y127002D03*
D20*
X-21209002Y-14097000D03*
X-42037000Y-44830998D03*
X-55245000Y-7619998D03*
X-91185998Y-20192998D03*
X-63372998Y-20192998D03*
X-24002998Y-34798000D03*
X-21082000Y3429002D03*
X-10414000Y3048002D03*
X-94615000Y-38861998D03*
X-75565000Y-37908998D03*
X-5207000Y-15874998D03*
X-77851000Y-34670998D03*
X-48641000Y-32384998D03*
X-52832000Y-42925998D03*
X-12446000Y2032002D03*
X-77342998Y-20192998D03*
X-10414000Y2032002D03*
X-53848000Y-40893998D03*
X-23367998Y-33909000D03*
X-16256000Y-21843998D03*
X-22923174Y-34808903D03*
X-43815000Y-20192998D03*
X-23495000Y-38988998D03*
X-88646000Y-35432998D03*
X-8382000Y2D03*
X-60705998Y-20192998D03*
X-50673000Y-31368998D03*
X-17121625Y-39945327D03*
X-65658998Y-10667998D03*
X-97939118Y-4041878D03*
X-79628998Y-10667998D03*
X-58674000Y381002D03*
X-24383998Y-38481000D03*
X-23567291Y-37956549D03*
X-22179410Y-37584668D03*
X-64769998Y-10667998D03*
X-15367000Y-12572996D03*
X-7366000Y3048002D03*
X-15574125Y-37264979D03*
X-29337000Y-49402998D03*
X-82931000Y-33781998D03*
X-64515998Y-46355000D03*
X-52578000Y-51942998D03*
X-53848000Y-41909998D03*
X-43052998Y-42672000D03*
X-5207000Y-18922998D03*
X-16347875Y-38605153D03*
X-28067002Y-20193000D03*
X-13462000Y-16128998D03*
X-75945998Y-44831000D03*
X-55245000Y-8508998D03*
X-7366000Y-4063998D03*
X-5207000Y-22986998D03*
X-7366000Y1016002D03*
X-61467998Y-47371000D03*
X-11430000Y2D03*
X-95123000Y-38099998D03*
X-29210000Y-41401998D03*
X-29210000Y-38353998D03*
X-89534998Y-6476998D03*
X-4191000Y-11810998D03*
X-61468000Y-49783998D03*
X-70993000Y-29717998D03*
X-59435998Y-47371000D03*
X-56007000Y-46862998D03*
X-9215724Y-37736907D03*
X-62483998Y-47371000D03*
X-13462000Y2032002D03*
X-29210000Y-36321998D03*
X-5207000Y-14858998D03*
X-13462000Y1016002D03*
X-29337000Y-50545998D03*
X-84963000Y-37845998D03*
X-53848000Y-42925998D03*
X-70484998Y-14096998D03*
X-5207000Y-12826998D03*
X-80517998Y-10667998D03*
X-17145000Y-21843998D03*
X-9398000Y1016002D03*
X-77343000Y-37908998D03*
X-69596000Y-43306998D03*
X-81915000Y-33781998D03*
X-60451998Y-46355000D03*
X-82931000Y-34797998D03*
X-22098002Y-14097000D03*
X-25018998Y-36576000D03*
X-72009000Y-29717998D03*
X-78231998Y-20192998D03*
X-4191000Y-13842998D03*
X-95758000Y-40766998D03*
X-56007000Y-49910998D03*
X-12446000Y2D03*
X-11430000Y3048002D03*
X-25527002Y-7365998D03*
X-38735000Y-14096998D03*
X-8382000Y-2031998D03*
X-3175000Y-19938998D03*
X-92074998Y-20192998D03*
X-52832000Y-40893998D03*
X-2159000Y-11810998D03*
X-43750500Y-39362998D03*
X-52832000Y-41909998D03*
X-8382000Y2032002D03*
X-99441000Y4064002D03*
D19*
X-100711000Y-14477998D03*
D20*
X-72262998Y-14096998D03*
X-40386004Y-7366002D03*
%TO.N,+28V_clean*%
X-90551000Y-29209998D03*
X-76580998Y-6095998D03*
D19*
X-100838000Y-35940998D03*
X-100203000Y-37083998D03*
D20*
X-67690998Y-12191998D03*
X-97281998Y-12191998D03*
X-92201998Y-6095998D03*
X-84455000Y-30225998D03*
X-85471000Y-30225998D03*
X-87503000Y-29209998D03*
D19*
X-99568000Y-35940998D03*
D20*
X-96392998Y-12191998D03*
X-86487000Y-29209998D03*
D19*
X-101473000Y-37210998D03*
D20*
X-81660998Y-12191998D03*
X-88519000Y-29209998D03*
X-84455000Y-29209998D03*
X-82549998Y-12191998D03*
X-91567000Y-29209998D03*
X-89535000Y-29209998D03*
X-66801998Y-12191998D03*
D19*
X-102108000Y-36194998D03*
D20*
X-85471000Y-29209998D03*
X-91312998Y-6095998D03*
X-62610998Y-6095998D03*
X-61721998Y-6095998D03*
D19*
X-96012000Y-36321998D03*
D20*
X-77469998Y-6095998D03*
%TO.N,Net-(U1-EN{slash}UV)*%
X-13688973Y-41166800D03*
X-18955808Y-38859226D03*
X-13290958Y-40223418D03*
X-19823234Y-39091653D03*
%TO.N,Net-(JP3-C)*%
X-14904414Y-43398004D03*
D19*
X-11811000Y-19811998D03*
X-10795000Y-19811998D03*
D20*
%TO.N,/converters/+5V5_reg_out*%
X-9271000Y-7873998D03*
X-48133002Y-12192000D03*
X-9271000Y-11937998D03*
X-9271000Y-8889998D03*
D19*
X-47625000Y3810002D03*
D20*
X-51682002Y-12193498D03*
X-10287000Y-7873998D03*
X-50793002Y-12193498D03*
X-10287000Y-10921998D03*
X-47244002Y-12192000D03*
X-8255000Y-8889998D03*
X-10287000Y-11937998D03*
X-10287000Y-9905998D03*
X-10287000Y-8889998D03*
X-8255000Y-7873998D03*
D19*
%TO.N,Net-(U2-EN{slash}UV)*%
X-46609000Y-42163998D03*
X-47498000Y-43052998D03*
X-46990000Y-35813998D03*
D20*
%TO.N,Net-(JP4-C)*%
X-47964100Y-41401998D03*
D19*
X-26797000Y-45465998D03*
X-27940000Y-45465998D03*
D20*
%TO.N,Net-(JP5-C)*%
X-77597000Y-41758098D03*
D19*
X-58166000Y-37845998D03*
X-57023000Y-37845998D03*
D20*
%TO.N,/converters/+28V_reg_in*%
X-83947000Y-45211998D03*
X-14478000Y-44957998D03*
X-84836000Y-44322998D03*
X-84836000Y-46100998D03*
X-49530000Y-48640998D03*
X-49530000Y-49656998D03*
X-80645000Y-50926998D03*
X-51562000Y-48640998D03*
X-50546000Y-49656998D03*
X-12446000Y-45973998D03*
X-83947000Y-46100998D03*
X-14478000Y-45973998D03*
X-83947000Y-44322998D03*
X-79756000Y-50926998D03*
X-83947000Y-46989998D03*
X-85725000Y-46100998D03*
X-48514000Y-48640998D03*
X-79756000Y-51815998D03*
X-84836000Y-43433998D03*
X-84836000Y-45211998D03*
X-48514000Y-49656998D03*
X-13462000Y-45973998D03*
X-50546000Y-48640998D03*
X-86614000Y-46100998D03*
%TO.N,/converters/+12V_reg_out*%
X-29337000Y-29590998D03*
X-23114000Y-30606998D03*
X-28321000Y-29590998D03*
X-21082000Y-30606998D03*
X-57150000Y-42163998D03*
X-29337000Y-30606998D03*
X-29337000Y-31622998D03*
X-58166000Y-39115998D03*
X-21082000Y-29590998D03*
X-23114000Y-31622998D03*
X-27305000Y-29590998D03*
X-28321000Y-30606998D03*
X-58166000Y-41147998D03*
X-57150000Y-40131998D03*
X-33274002Y-12192000D03*
X-32385002Y-12192000D03*
X-60198000Y-39115998D03*
D19*
X-43053000Y3810002D03*
D20*
X-59182000Y-39115998D03*
X-57150000Y-41147998D03*
X-22098000Y-31622998D03*
X-28194002Y-6096000D03*
X-22098000Y-30606998D03*
X-22098000Y-29590998D03*
X-58166000Y-40131998D03*
X-57150000Y-39115998D03*
X-24130000Y-31622998D03*
X-27305002Y-6096000D03*
D19*
X-27813000Y254002D03*
D20*
%TO.N,/converters/+5V_reg_out*%
X-44831002Y-13208000D03*
X-43053002Y-5969000D03*
X-97027998Y-6984998D03*
X-97027998Y-7873998D03*
X-71120000Y-6984998D03*
X-21590000Y-45338998D03*
X-96138998Y-6984998D03*
X-22606000Y-46354998D03*
X-91059000Y-39115998D03*
D19*
X-41529000Y3810002D03*
D20*
X-21082000Y-126998D03*
X-51816000Y-7492998D03*
X-69342000Y-6984998D03*
X-21082000Y889002D03*
X-93979998Y-13207998D03*
X-57785000Y1651002D03*
X-36703000Y-6985000D03*
X-20701002Y-7492998D03*
X-34925000Y-6984998D03*
X-21590000Y-44322998D03*
X-21590002Y-8381998D03*
X-79247998Y-13207998D03*
X-23622000Y-45338998D03*
X-32258002Y-6985000D03*
X-82295998Y-7873998D03*
X-67563998Y-7873998D03*
X-66674998Y-6984998D03*
X-14859000Y-15620998D03*
X-97028000Y-8762998D03*
X-23622000Y-46354998D03*
X-91059000Y-38099998D03*
X-67563998Y-6984998D03*
X-82295998Y-6984998D03*
X-14859000Y-16509998D03*
X-48133000Y-8000998D03*
X-23622000Y-47370998D03*
X-20701000Y-9270996D03*
X-22606000Y-45338998D03*
X-56261000Y-7619998D03*
X-42164002Y-5969000D03*
X-51816000Y-8381998D03*
X-67564000Y-8762998D03*
X-56261000Y-8508998D03*
X-22606000Y-44322998D03*
X-34036000Y-6984998D03*
X-84963000Y-6984998D03*
X-19812000Y-7492998D03*
X-70231000Y-6984998D03*
X-15748000Y-16509998D03*
X-33147002Y-7874000D03*
X-82296000Y-8762998D03*
X-18161000Y-13080998D03*
X-68453000Y-6984998D03*
X-64388998Y-13207998D03*
X-84074002Y-6984998D03*
X-29972002Y-13208000D03*
X-81406998Y-6984998D03*
X-47244000Y-7111998D03*
X-20701002Y-8381998D03*
X-17272000Y-13080998D03*
X-21590002Y-7492998D03*
X-22098000Y-126998D03*
X-83185002Y-6984998D03*
X-35814000Y-6985000D03*
X-33147002Y-6985000D03*
X-48133000Y-7111998D03*
X-85852000Y-6984998D03*
%TO.N,/interface/+3V3_in*%
X-103759000Y1397002D03*
X-103759000Y381002D03*
X-53848000Y2667002D03*
X-103773400Y2413002D03*
D19*
%TO.N,/sense/VREF*%
X-60198000Y381002D03*
X-33147000Y1270002D03*
D21*
%TO.N,/interface/SPI.SCK*%
X-103124000Y-2031998D03*
D20*
X-54991000Y4191002D03*
D21*
%TO.N,/interface/SPI.SDI*%
X-102488998Y-1396998D03*
D20*
X-56261000Y3785102D03*
%TO.N,/interface/SPI.SDO*%
X-52578000Y3556002D03*
D21*
X-101726998Y-761998D03*
D20*
%TO.N,/interface/SPI.nCS4*%
X-101219000Y-5206998D03*
X-57531000Y2540002D03*
%TO.N,/sense/REGS_Isense*%
X-34671000Y762002D03*
D19*
X-65277998Y-31115000D03*
X-70230998Y-36068000D03*
X-88646000Y-37845998D03*
D20*
%TO.N,/switches/nCDTEDE_sw*%
X-49530000Y-12318998D03*
%TO.N,/switches/nTIMEPIX_sw*%
X-44958000Y-7111998D03*
X-34544000Y-12318998D03*
%TO.N,/switches/nSAAS_sw*%
X-19939000Y-13207996D03*
X-30226000Y-7111998D03*
%TO.N,/switches/nCDTE1_sw*%
X-64516000Y-7365998D03*
%TO.N,/switches/nCDTE2_sw*%
X-69087998Y-12318998D03*
%TO.N,/switches/nCDTE3_sw*%
X-79374998Y-7365998D03*
%TO.N,/switches/nCDTE4_sw*%
X-83946998Y-12318998D03*
%TO.N,/switches/nCMOS1_sw*%
X-94106998Y-7365998D03*
%TO.N,/switches/nCMOS2_sw*%
X-98678998Y-12318998D03*
D19*
%TO.N,Earth*%
X-68326000Y-56260998D03*
X-26035000Y-56260998D03*
X2667000Y-29463998D03*
D20*
X-52578000Y-55371998D03*
D19*
X-80899000Y-56260998D03*
X889000Y-35813998D03*
X-38735000Y-56260998D03*
X-100711000Y-53466998D03*
X-105029000Y-46227998D03*
X-112522000Y-21970998D03*
X-112522000Y-5968998D03*
X-60706000Y-56260998D03*
D20*
X-53594000Y-56387998D03*
D19*
X-112522000Y-26542998D03*
X-109347000Y-38861998D03*
X-112522000Y-33400998D03*
X-70866000Y-56260998D03*
X-101473000Y-52069998D03*
X-112522000Y-12826998D03*
X-28575000Y-56260998D03*
X2667000Y-22351998D03*
X-15875000Y-56260998D03*
X-112522000Y-15112998D03*
D20*
X-48514000Y-56387998D03*
D19*
X2667000Y-17652998D03*
X-88519000Y-56260998D03*
X-23495000Y-56260998D03*
X-56007000Y-56260998D03*
X-112522000Y-28828998D03*
X-3175000Y-43306998D03*
X-106807000Y-43179998D03*
X-103251000Y-49148998D03*
X-7239000Y-50418998D03*
X-36068000Y-56260998D03*
X-83312000Y-56260998D03*
X-96012000Y-56260998D03*
X-58166000Y-56260998D03*
X-112522000Y-8254998D03*
X-8636000Y-52577998D03*
X-33528000Y-56260998D03*
X-111760000Y-34670998D03*
X-112522000Y-3682998D03*
X-93472000Y-56260998D03*
D20*
X-51562000Y-56387998D03*
D19*
X-635000Y-38353998D03*
X2667000Y-3555998D03*
X-112522000Y-31114998D03*
X-9906000Y-54736998D03*
X2667000Y-20065998D03*
X-107569000Y-41909998D03*
X-41275000Y-56260998D03*
X2667000Y-27177998D03*
X-4699000Y-46100998D03*
X-112522000Y-24256998D03*
X-46228000Y-56260998D03*
X2667000Y-12953998D03*
X2286000Y-33273998D03*
X-108458000Y-40385998D03*
X2667000Y-5968998D03*
X-5842000Y-48259998D03*
X-112522000Y-19684998D03*
X-75819000Y-56260998D03*
X-112522000Y-10540998D03*
X-18542000Y-56260998D03*
X-110109000Y-37464998D03*
X2667000Y-15239998D03*
X-65659000Y-56260998D03*
X-105918000Y-44703998D03*
D20*
X-53594000Y-55371998D03*
D19*
X2667000Y-8254998D03*
D20*
X-49530000Y-56387998D03*
D19*
X-31115000Y-56260998D03*
X-78359000Y-56260998D03*
X-21082000Y-56260998D03*
X-13335000Y-56260998D03*
D20*
X-52578000Y-56387998D03*
X-54610000Y-55371998D03*
D19*
X-73279000Y-56260998D03*
X-99822000Y-54863998D03*
X-104140000Y-47751998D03*
X-63119000Y-56260998D03*
X-1778000Y-40766998D03*
X-43688000Y-56260998D03*
X-102362000Y-50672998D03*
X2667000Y-10540998D03*
D20*
X-48514000Y-55371998D03*
D19*
X-85852000Y-56260998D03*
D20*
X-54610000Y-56387998D03*
X-50546000Y-56387998D03*
D19*
X-110998000Y-36067998D03*
X-112522000Y-17398998D03*
X-91059000Y-56260998D03*
X2667000Y-24764998D03*
D20*
%TO.N,/sense/TIMEPIX_12V_Isense*%
X-26670000Y-16509998D03*
X-34671000Y-3809998D03*
%TO.N,/sense/TIMEPIX_5V_Isense*%
X-36449000Y-10413998D03*
X-34671000Y-5333998D03*
%TO.N,/sense/SAAS_12V_Isense*%
X-21590000Y-10413998D03*
X-34671000Y-761998D03*
%TO.N,/sense/SAAS_5V_Isense*%
X-34671000Y-2285998D03*
X-15748000Y-18160998D03*
D22*
%TO.N,/sense/CMOS1_Isense*%
X-86868000Y-5841998D03*
X-85730368Y-10550333D03*
%TO.N,/sense/CMOS2_Isense*%
X-93472000Y-3809998D03*
D20*
X-90677998Y-16509998D03*
%TO.N,/sense/CDTE1_Isense*%
X-56006998Y-10413998D03*
X-70866000Y-3428998D03*
%TO.N,/sense/CDTE2_Isense*%
X-61087000Y-16509998D03*
X-70612000Y-5714998D03*
%TO.N,/sense/CDTE3_Isense*%
X-72771000Y-6095998D03*
X-70739000Y-10667998D03*
%TO.N,/sense/CDTE4_Isense*%
X-75945998Y-16509998D03*
X-78232000Y-3809998D03*
%TO.N,/switches/nFORMAT_sw*%
X-53847998Y-9271000D03*
%TO.N,/sense/CDTEDE_Isense*%
X-48514000Y-5714998D03*
X-41529000Y-16509998D03*
D19*
%TO.N,Net-(JP8-C)*%
X-50673000Y3810002D03*
X-88900000Y-32003998D03*
%TO.N,Net-(JP9-C)*%
X-70357998Y-34671000D03*
X-78486000Y-32003998D03*
X-49149000Y3810002D03*
X-72516998Y-32512000D03*
%TD*%
D23*
%TO.N,Net-(JP3-C)*%
X-10795000Y-19811998D02*
X-10287000Y-20319998D01*
X-10287000Y-20319998D02*
X-10287000Y-31114998D01*
X-10287000Y-31114998D02*
X-7111998Y-34290000D01*
X-7111998Y-34290000D02*
X-7111998Y-39116000D01*
X-7111998Y-39116000D02*
X-12318998Y-44323000D01*
X-12318998Y-44323000D02*
X-13715998Y-44323000D01*
X-13715998Y-44323000D02*
X-14640994Y-43398004D01*
X-14640994Y-43398004D02*
X-14904414Y-43398004D01*
X-10795000Y-19811998D02*
X-11811000Y-19811998D01*
%TO.N,Net-(JP4-C)*%
X-50037998Y-45593000D02*
X-50037998Y-43475896D01*
X-50037998Y-43475896D02*
X-47964100Y-41401998D01*
X-27940000Y-45465998D02*
X-33274002Y-50800000D01*
X-44830998Y-50800000D02*
X-50037998Y-45593000D01*
X-33274002Y-50800000D02*
X-44830998Y-50800000D01*
%TO.N,Net-(JP5-C)*%
X-77572096Y-41758098D02*
X-73659996Y-37845998D01*
X-77597000Y-41758098D02*
X-77572096Y-41758098D01*
X-73659996Y-37845998D02*
X-58166000Y-37845998D01*
D24*
%TO.N,/converters/+12V_reg_out*%
X-41529000Y2286002D02*
X-39878000Y2286002D01*
X-39878000Y2286002D02*
X-38227000Y3937002D01*
X-35306000Y3937002D02*
X-31496000Y3937002D01*
X-43053000Y3810002D02*
X-41529000Y2286002D01*
X-38227000Y3937002D02*
X-35306000Y3937002D01*
X-31496000Y3937002D02*
X-27813000Y254002D01*
%TO.N,/sense/VREF*%
X-59715710Y381002D02*
X-60198000Y381002D01*
X-36068000Y1651002D02*
X-38227000Y-507998D01*
X-33909000Y1651002D02*
X-36068000Y1651002D01*
X-33528000Y1270002D02*
X-33909000Y1651002D01*
X-38227000Y-507998D02*
X-58826710Y-507998D01*
X-58826710Y-507998D02*
X-59715710Y381002D01*
X-33147000Y1270002D02*
X-33528000Y1270002D01*
D25*
%TO.N,/interface/SPI.SCK*%
X-103124000Y-2031998D02*
X-103124000Y-253998D01*
X-97917000Y4445002D02*
X-55245000Y4445002D01*
X-103124000Y-253998D02*
X-102108000Y762002D01*
X-55245000Y4445002D02*
X-54991000Y4191002D01*
X-101600000Y762002D02*
X-97917000Y4445002D01*
X-102108000Y762002D02*
X-101600000Y762002D01*
%TO.N,/interface/SPI.SDI*%
X-102488998Y-1396998D02*
X-102488998Y-4698998D01*
X-104139998Y-12228828D02*
X-105917998Y-14006828D01*
X-102488998Y-447732D02*
X-101914264Y127002D01*
X-101914264Y127002D02*
X-101566632Y127002D01*
X-104139998Y-6349998D02*
X-104139998Y-12228828D01*
X-97756632Y3937002D02*
X-56412900Y3937002D01*
X-101566632Y127002D02*
X-97756632Y3937002D01*
X-56412900Y3937002D02*
X-56261000Y3785102D01*
X-102488998Y-4698998D02*
X-104139998Y-6349998D01*
X-102488998Y-1396998D02*
X-102488998Y-447732D01*
%TO.N,/interface/SPI.SDO*%
X-57150000Y3429002D02*
X-97535998Y3429002D01*
X-56642000Y2921002D02*
X-57150000Y3429002D01*
X-101726998Y-4698998D02*
X-103631998Y-6603998D01*
X-103631998Y-6603998D02*
X-103631998Y-14260828D01*
X-103631998Y-14260828D02*
X-105917998Y-16546828D01*
X-54229000Y3556002D02*
X-54610000Y3175002D01*
X-55880000Y2921002D02*
X-56642000Y2921002D01*
X-54610000Y3175002D02*
X-55626000Y3175002D01*
X-52578000Y3556002D02*
X-54229000Y3556002D01*
X-55626000Y3175002D02*
X-55880000Y2921002D01*
X-101726998Y-761998D02*
X-101726998Y-4698998D01*
X-97535998Y3429002D02*
X-101726998Y-761998D01*
%TO.N,/interface/SPI.nCS4*%
X-97409000Y2921002D02*
X-100965000Y-634998D01*
X-57531000Y2540002D02*
X-57912000Y2921002D01*
X-100965000Y-634998D02*
X-100965000Y-4952998D01*
X-57912000Y2921002D02*
X-97409000Y2921002D01*
X-100965000Y-4952998D02*
X-101219000Y-5206998D01*
D24*
%TO.N,/sense/REGS_Isense*%
X-12700000Y-16636998D02*
X-14478000Y-18414998D01*
X-55625998Y-28956000D02*
X-57784998Y-31115000D01*
X-14478000Y-24318629D02*
X-15305369Y-25145998D01*
X-14478000Y-18414998D02*
X-14478000Y-24318629D01*
X-34671000Y762002D02*
X-31369000Y-2539998D01*
X-40131998Y-28956000D02*
X-55625998Y-28956000D01*
X-31369000Y-2539998D02*
X-16510000Y-2539998D01*
X-21463000Y-25145998D02*
X-28702000Y-32384998D01*
X-36703000Y-32384998D02*
X-40131998Y-28956000D01*
X-70230998Y-36068000D02*
X-77088998Y-36068000D01*
X-12700000Y-6349998D02*
X-12700000Y-16636998D01*
X-15305369Y-25145998D02*
X-21463000Y-25145998D01*
X-57784998Y-31115000D02*
X-65277998Y-31115000D01*
X-77088998Y-36068000D02*
X-80136998Y-39116000D01*
X-80136998Y-39116000D02*
X-87375998Y-39116000D01*
X-87375998Y-39116000D02*
X-88646000Y-37845998D01*
X-28702000Y-32384998D02*
X-36703000Y-32384998D01*
X-16510000Y-2539998D02*
X-12700000Y-6349998D01*
D26*
%TO.N,/switches/nCDTEDE_sw*%
X-54356000Y-6476998D02*
X-56671447Y-6476998D01*
X-69342000Y-2666998D02*
X-71501000Y-507998D01*
X-52578000Y-8889998D02*
X-52578000Y-8254998D01*
X-71501000Y-507998D02*
X-81401000Y-507998D01*
X-60481447Y-2666998D02*
X-69342000Y-2666998D01*
X-49530000Y-11937998D02*
X-52578000Y-8889998D01*
X-81401000Y-507998D02*
X-83433000Y1524002D01*
X-56671447Y-6476998D02*
X-60481447Y-2666998D01*
X-52578000Y-8254998D02*
X-54356000Y-6476998D01*
X-49530000Y-12318998D02*
X-49530000Y-11937998D01*
%TO.N,/switches/nTIMEPIX_sw*%
X-40830500Y-5714998D02*
X-39116000Y-5714998D01*
X-38608000Y-6222998D02*
X-38608000Y-10540998D01*
X-56261000Y-5968998D02*
X-60071000Y-2158998D01*
X-44958000Y-7111998D02*
X-47244000Y-4825998D01*
X-60071000Y-2158998D02*
X-68707000Y-2158998D01*
X-71120000Y254002D02*
X-79623000Y254002D01*
X-49022000Y-4825998D02*
X-50165000Y-5968998D01*
X-44958000Y-7111998D02*
X-42227500Y-7111998D01*
X-38608000Y-10540998D02*
X-36830000Y-12318998D01*
X-47244000Y-4825998D02*
X-49022000Y-4825998D01*
X-50165000Y-5968998D02*
X-56261000Y-5968998D01*
X-68707000Y-2158998D02*
X-71120000Y254002D01*
X-79623000Y254002D02*
X-80893000Y1524002D01*
X-36830000Y-12318998D02*
X-34544000Y-12318998D01*
X-39116000Y-5714998D02*
X-38608000Y-6222998D01*
X-42227500Y-7111998D02*
X-40830500Y-5714998D01*
%TO.N,/switches/nSAAS_sw*%
X-30226000Y-6730998D02*
X-33909000Y-3047998D01*
X-67818000Y-1650998D02*
X-70485000Y1016002D01*
X-50292000Y-5460998D02*
X-55797947Y-5460998D01*
X-27241500Y-7111998D02*
X-30226000Y-7111998D01*
X-24257000Y-5714998D02*
X-25844500Y-5714998D01*
X-55797947Y-5460998D02*
X-59607947Y-1650998D01*
X-36449000Y-3047998D02*
X-37719000Y-4317998D01*
X-37719000Y-4317998D02*
X-49149000Y-4317998D01*
X-23622000Y-6349998D02*
X-24257000Y-5714998D01*
X-33909000Y-3047998D02*
X-36449000Y-3047998D01*
X-25844500Y-5714998D02*
X-27241500Y-7111998D01*
X-20955002Y-13207996D02*
X-23622000Y-10540998D01*
X-23622000Y-10540998D02*
X-23622000Y-6349998D01*
X-49149000Y-4317998D02*
X-50292000Y-5460998D01*
X-77851000Y1016002D02*
X-78359000Y1524002D01*
X-30226000Y-7111998D02*
X-30226000Y-6730998D01*
X-19939000Y-13207996D02*
X-20955002Y-13207996D01*
X-70485000Y1016002D02*
X-77851000Y1016002D01*
X-59607947Y-1650998D02*
X-67818000Y-1650998D01*
D25*
%TO.N,/switches/nCDTE1_sw*%
X-74549000Y-2412998D02*
X-72136000Y-4825998D01*
X-72136000Y-4825998D02*
X-67056000Y-4825998D01*
X-81915000Y-2920998D02*
X-81153000Y-2920998D01*
X-67056000Y-4825998D02*
X-64516000Y-7365998D01*
X-80645000Y-2412998D02*
X-74549000Y-2412998D01*
X-81153000Y-2920998D02*
X-80645000Y-2412998D01*
%TO.N,/switches/nCDTE2_sw*%
X-78613000Y-3047998D02*
X-74803000Y-3047998D01*
X-69087998Y-10033000D02*
X-69087998Y-12318998D01*
X-84455000Y-2920998D02*
X-83185000Y-4190998D01*
X-72110600Y-7010398D02*
X-69087998Y-10033000D01*
X-83185000Y-4190998D02*
X-79756000Y-4190998D01*
X-79756000Y-4190998D02*
X-78613000Y-3047998D01*
X-74803000Y-3047998D02*
X-72110600Y-5740398D01*
X-72110600Y-5740398D02*
X-72110600Y-7010398D01*
D27*
%TO.N,/switches/nCDTE3_sw*%
X-80898998Y-5841998D02*
X-84074000Y-5841998D01*
X-87503000Y508002D02*
X-88519000Y1524002D01*
X-84074000Y-5841998D02*
X-87503000Y-2412998D01*
X-79374998Y-7365998D02*
X-80898998Y-5841998D01*
X-87503000Y-2412998D02*
X-87503000Y508002D01*
%TO.N,/switches/nCDTE4_sw*%
X-87884000Y-9366569D02*
X-87884000Y-3809998D01*
X-89535000Y-2158998D02*
X-89535000Y2D01*
X-87884000Y-3809998D02*
X-89535000Y-2158998D01*
X-89535000Y2D02*
X-91059000Y1524002D01*
X-83946998Y-12318998D02*
X-84931571Y-12318998D01*
X-84931571Y-12318998D02*
X-87884000Y-9366569D01*
%TO.N,/switches/nCMOS1_sw*%
X-94869000Y-3936998D02*
X-93599000Y-2666998D01*
X-94869000Y-6603996D02*
X-94869000Y-3936998D01*
X-93599000Y-2666998D02*
X-93599000Y1524002D01*
X-94106998Y-7365998D02*
X-94869000Y-6603996D01*
%TO.N,/switches/nCMOS2_sw*%
X-98678998Y-6349996D02*
X-98678998Y-12318998D01*
X-95377000Y762002D02*
X-95377000Y-3047998D01*
X-96139000Y1524002D02*
X-95377000Y762002D01*
X-95377000Y-3047998D02*
X-98678998Y-6349996D01*
%TO.N,/sense/TIMEPIX_12V_Isense*%
X-26670000Y-16509998D02*
X-28575000Y-14604998D01*
X-34036000Y-3809998D02*
X-34671000Y-3809998D01*
X-31242000Y-7238998D02*
X-31242000Y-6603998D01*
X-28575000Y-9905998D02*
X-31242000Y-7238998D01*
X-28575000Y-14604998D02*
X-28575000Y-9905998D01*
X-31242000Y-6603998D02*
X-34036000Y-3809998D01*
%TO.N,/sense/TIMEPIX_5V_Isense*%
X-34671000Y-5333998D02*
X-36576000Y-5333998D01*
X-36576000Y-5333998D02*
X-37719000Y-6476998D01*
X-37719000Y-6476998D02*
X-37719000Y-9143998D01*
X-37719000Y-9143998D02*
X-36449000Y-10413998D01*
D26*
%TO.N,/sense/SAAS_12V_Isense*%
X-21590000Y-10413998D02*
X-22479000Y-9524998D01*
X-34163000Y-761998D02*
X-34671000Y-761998D01*
X-23622000Y-4571998D02*
X-30353000Y-4571998D01*
X-22479000Y-5714998D02*
X-23622000Y-4571998D01*
X-22479000Y-9524998D02*
X-22479000Y-5714998D01*
X-30353000Y-4571998D02*
X-34163000Y-761998D01*
%TO.N,/sense/SAAS_5V_Isense*%
X-30861000Y-5206998D02*
X-33782000Y-2285998D01*
X-23876000Y-5206998D02*
X-30861000Y-5206998D01*
X-15748000Y-18160998D02*
X-15748000Y-17779998D01*
X-19050000Y-13588998D02*
X-19050000Y-12699998D01*
X-23114000Y-5968998D02*
X-23876000Y-5206998D01*
X-15748000Y-17779998D02*
X-16637000Y-16890998D01*
X-33782000Y-2285998D02*
X-34671000Y-2285998D01*
X-19050000Y-12699998D02*
X-20447000Y-11302998D01*
X-20447000Y-11302998D02*
X-21844000Y-11302998D01*
X-16637000Y-16890998D02*
X-16637000Y-16001998D01*
X-21844000Y-11302998D02*
X-23114000Y-10032998D01*
X-16637000Y-16001998D02*
X-19050000Y-13588998D01*
X-23114000Y-10032998D02*
X-23114000Y-5968998D01*
%TO.N,/sense/CMOS1_Isense*%
X-85730368Y-10550333D02*
X-85730368Y-10546366D01*
X-85471000Y-10286998D02*
X-85471000Y-9016998D01*
X-85471000Y-9016998D02*
X-86868000Y-7619998D01*
X-86868000Y-7619998D02*
X-86868000Y-5841998D01*
X-85730368Y-10546366D02*
X-85471000Y-10286998D01*
%TO.N,/sense/CMOS2_Isense*%
X-93345000Y-6603998D02*
X-93345000Y-8254998D01*
X-94742000Y-12636498D02*
X-94742000Y-13715998D01*
X-93853000Y-6095998D02*
X-93345000Y-6603998D01*
X-93726000Y-8635998D02*
X-93726000Y-11620498D01*
X-93853000Y-4190998D02*
X-93853000Y-6095998D01*
X-93345000Y-8254998D02*
X-93726000Y-8635998D01*
X-93472000Y-3809998D02*
X-93853000Y-4190998D01*
X-94742000Y-13715998D02*
X-94361000Y-14096998D01*
X-93726000Y-11620498D02*
X-94742000Y-12636498D01*
X-93090998Y-14096998D02*
X-90677998Y-16509998D01*
X-94361000Y-14096998D02*
X-93090998Y-14096998D01*
%TO.N,/sense/CDTE1_Isense*%
X-56006998Y-10287000D02*
X-56006998Y-10413998D01*
X-58039000Y-6523128D02*
X-58039000Y-8254998D01*
X-58974130Y-5587998D02*
X-58039000Y-6523128D01*
X-70612000Y-3682998D02*
X-61404500Y-3682998D01*
X-70866000Y-3428998D02*
X-70612000Y-3682998D01*
X-61404500Y-3682998D02*
X-59499500Y-5587998D01*
X-59499500Y-5587998D02*
X-58974130Y-5587998D01*
X-58039000Y-8254998D02*
X-56006998Y-10287000D01*
%TO.N,/sense/CDTE2_Isense*%
X-65151000Y-12572998D02*
X-65151000Y-13588998D01*
X-66929000Y-5714998D02*
X-65659000Y-6984998D01*
X-61087000Y-16128998D02*
X-61087000Y-16509998D01*
X-64084198Y-10337800D02*
X-64084198Y-11506196D01*
X-63119000Y-14096998D02*
X-61087000Y-16128998D01*
X-65659000Y-8762998D02*
X-64084198Y-10337800D01*
X-64643000Y-14096998D02*
X-63119000Y-14096998D01*
X-70612000Y-5714998D02*
X-66929000Y-5714998D01*
X-64084198Y-11506196D02*
X-65151000Y-12572998D01*
X-65659000Y-6984998D02*
X-65659000Y-8762998D01*
X-65151000Y-13588998D02*
X-64643000Y-14096998D01*
%TO.N,/sense/CDTE3_Isense*%
X-72771000Y-7365998D02*
X-72771000Y-6095998D01*
X-70358000Y-9778998D02*
X-72771000Y-7365998D01*
X-70739000Y-10667998D02*
X-70358000Y-10286998D01*
X-70358000Y-10286998D02*
X-70358000Y-9778998D01*
%TO.N,/sense/CDTE4_Isense*%
X-80137000Y-12699998D02*
X-78867000Y-11429998D01*
X-79756000Y-14096998D02*
X-80137000Y-13715998D01*
X-78359000Y-14096998D02*
X-79756000Y-14096998D01*
X-80137000Y-13715998D02*
X-80137000Y-12699998D01*
X-78358998Y-14096998D02*
X-78359000Y-14096998D01*
X-78613000Y-8000998D02*
X-78613000Y-4190998D01*
X-78867000Y-8254998D02*
X-78613000Y-8000998D01*
X-78613000Y-4190998D02*
X-78486000Y-4063998D01*
X-78867000Y-11429998D02*
X-78867000Y-8254998D01*
X-78486000Y-4063998D02*
X-78232000Y-3809998D01*
X-75945998Y-16509998D02*
X-78358998Y-14096998D01*
%TO.N,/switches/nFORMAT_sw*%
X-53847998Y-9271000D02*
X-53847998Y-7747000D01*
X-56955952Y-6959598D02*
X-60740552Y-3174998D01*
X-53847998Y-7747000D02*
X-54635400Y-6959598D01*
X-69850000Y-3174998D02*
X-71755000Y-1269998D01*
X-83179000Y-1269998D02*
X-85973000Y1524002D01*
X-71755000Y-1269998D02*
X-83179000Y-1269998D01*
X-60740552Y-3174998D02*
X-69850000Y-3174998D01*
X-54635400Y-6959598D02*
X-56955952Y-6959598D01*
%TO.N,/sense/CDTEDE_Isense*%
X-44450000Y-12191998D02*
X-41529000Y-15112998D01*
X-47671132Y-5714998D02*
X-44450000Y-8936130D01*
X-41529000Y-15112998D02*
X-41529000Y-16509998D01*
X-48514000Y-5714998D02*
X-47671132Y-5714998D01*
X-44450000Y-8936130D02*
X-44450000Y-12191998D01*
D24*
%TO.N,Net-(JP8-C)*%
X-40639998Y-29718000D02*
X-55181498Y-29718000D01*
X-36830000Y2286002D02*
X-32766000Y2286002D01*
X-13716000Y-24637998D02*
X-14859000Y-25780998D01*
X-58991498Y-33528000D02*
X-80771998Y-33528000D01*
X-11938000Y-17144998D02*
X-13716000Y-18922998D01*
X-28702000Y-1777998D02*
X-15748000Y-1777998D01*
X-50673000Y3810002D02*
X-50368200Y3810002D01*
X-80771998Y-33528000D02*
X-81533998Y-32766000D01*
X-37210998Y-33147000D02*
X-40639998Y-29718000D01*
X-88646000Y-32003998D02*
X-88900000Y-32003998D01*
X-87883998Y-32766000D02*
X-88646000Y-32003998D01*
X-81533998Y-32766000D02*
X-87883998Y-32766000D01*
X-13716000Y-18922998D02*
X-13716000Y-24637998D01*
X-47015400Y457202D02*
X-38658800Y457202D01*
X-38658800Y457202D02*
X-36830000Y2286002D01*
X-28321002Y-33147000D02*
X-37210998Y-33147000D01*
X-14859000Y-25780998D02*
X-20955000Y-25780998D01*
X-55181498Y-29718000D02*
X-58991498Y-33528000D01*
X-11938000Y-5587998D02*
X-11938000Y-17144998D01*
X-50368200Y3810002D02*
X-47015400Y457202D01*
X-32766000Y2286002D02*
X-28702000Y-1777998D01*
X-20955000Y-25780998D02*
X-28321002Y-33147000D01*
X-15748000Y-1777998D02*
X-11938000Y-5587998D01*
%TO.N,Net-(JP9-C)*%
X-12598400Y-19202398D02*
X-12598400Y-24790398D01*
X-54609998Y-30480000D02*
X-58800998Y-34671000D01*
X-39090600Y1422402D02*
X-37465000Y3048002D01*
X-72516998Y-32512000D02*
X-77977998Y-32512000D01*
X-28067002Y-33909000D02*
X-37591998Y-33909000D01*
X-28067000Y-1015998D02*
X-14986000Y-1015998D01*
X-77977998Y-32512000D02*
X-78486000Y-32003998D01*
X-14986000Y-1015998D02*
X-11049000Y-4952998D01*
X-37465000Y3048002D02*
X-32131000Y3048002D01*
X-58800998Y-34671000D02*
X-70357998Y-34671000D01*
X-12598400Y-24790398D02*
X-14173200Y-26365198D01*
X-41020998Y-30480000D02*
X-54609998Y-30480000D01*
X-49149000Y3810002D02*
X-46761400Y1422402D01*
X-20523200Y-26365198D02*
X-28067002Y-33909000D01*
X-46761400Y1422402D02*
X-39090600Y1422402D01*
X-32131000Y3048002D02*
X-28067000Y-1015998D01*
X-11049000Y-17652998D02*
X-12598400Y-19202398D01*
X-14173200Y-26365198D02*
X-20523200Y-26365198D01*
X-11049000Y-4952998D02*
X-11049000Y-17652998D01*
X-37591998Y-33909000D02*
X-41020998Y-30480000D01*
%TD*%
%TA.AperFunction,Conductor*%
%TO.N,+28V_ret*%
G36*
X-70361172Y-41917656D02*
G01*
X-70328535Y-41939463D01*
X-68453000Y-43814998D01*
X-67478670Y-43814998D01*
X-67440172Y-43822656D01*
X-67407535Y-43844463D01*
X-65273114Y-45978884D01*
X-57403998Y-45974000D01*
X-56544465Y-45114462D01*
X-56511828Y-45092656D01*
X-56473330Y-45084998D01*
X-54270670Y-45084998D01*
X-54232172Y-45092656D01*
X-54199535Y-45114463D01*
X-54004465Y-45309533D01*
X-53982658Y-45342170D01*
X-53975000Y-45380668D01*
X-53975000Y-48345328D01*
X-53982658Y-48383826D01*
X-54004465Y-48416463D01*
X-59020035Y-53432033D01*
X-59052672Y-53453840D01*
X-59091170Y-53461498D01*
X-72480830Y-53461498D01*
X-72519328Y-53453840D01*
X-72551965Y-53432033D01*
X-72868535Y-53115463D01*
X-72890342Y-53082826D01*
X-72898000Y-53044328D01*
X-72898000Y-50418998D01*
X-73376535Y-49940463D01*
X-73398342Y-49907826D01*
X-73406000Y-49869328D01*
X-73406000Y-47497998D01*
X-75565000Y-45338998D01*
X-78486000Y-45338998D01*
X-78837535Y-45690533D01*
X-78870172Y-45712340D01*
X-78908670Y-45719998D01*
X-80349330Y-45719998D01*
X-80387828Y-45712340D01*
X-80420465Y-45690533D01*
X-81250535Y-44860463D01*
X-81272342Y-44827826D01*
X-81280000Y-44789328D01*
X-81280000Y-42459668D01*
X-81272342Y-42421170D01*
X-81250535Y-42388533D01*
X-81182465Y-42320463D01*
X-81149828Y-42298656D01*
X-81111330Y-42290998D01*
X-79670670Y-42290998D01*
X-79632172Y-42298656D01*
X-79599536Y-42320462D01*
X-78359000Y-43560998D01*
X-72262998Y-43560998D01*
X-72262998Y-42713670D01*
X-72255340Y-42675172D01*
X-72233533Y-42642535D01*
X-71881998Y-42291000D01*
X-71530465Y-41939463D01*
X-71497828Y-41917656D01*
X-71459330Y-41909998D01*
X-70399670Y-41909998D01*
X-70361172Y-41917656D01*
G37*
%TD.AperFunction*%
%TD*%
%TA.AperFunction,Conductor*%
%TO.N,+28V_ret*%
G36*
X-19670170Y-32580911D02*
G01*
X-17789272Y-33666848D01*
X-17010934Y-34116222D01*
X-16973971Y-34148637D01*
X-16952227Y-34192730D01*
X-16662479Y-35274083D01*
X-16547368Y-35703684D01*
X-16547367Y-35703685D01*
X-15822671Y-36122088D01*
X-15785709Y-36154503D01*
X-15763964Y-36198595D01*
X-15730986Y-36321670D01*
X-15730985Y-36321671D01*
X-13421298Y-37655168D01*
X-13421296Y-37655169D01*
X-13298221Y-37622191D01*
X-13249166Y-37618977D01*
X-13202613Y-37634780D01*
X-12668414Y-37943200D01*
X-12587899Y-37989685D01*
X-12414414Y-37943200D01*
X-10980010Y-35458736D01*
X-10947596Y-35421776D01*
X-10903506Y-35400031D01*
X-10485486Y-35288023D01*
X-10435023Y-35285003D01*
X-10387432Y-35302063D01*
X-9726770Y-35703685D01*
X-7934547Y-36793192D01*
X-7890173Y-36839097D01*
X-7873998Y-36900859D01*
X-7873998Y-37560997D01*
X-7888383Y-37619462D01*
X-9262077Y-40241968D01*
X-9284596Y-40272598D01*
X-9615096Y-40603097D01*
X-9655970Y-40630409D01*
X-9704188Y-40640000D01*
X-9999187Y-40640000D01*
X-10062267Y-40623072D01*
X-12106033Y-39441067D01*
X-12106034Y-39441066D01*
X-13083942Y-39703095D01*
X-13124790Y-39707119D01*
X-13135050Y-39704727D01*
X-13135141Y-39705424D01*
X-13158241Y-39702382D01*
X-13204790Y-39686580D01*
X-13359467Y-39597277D01*
X-13359468Y-39597277D01*
X-13692746Y-39686580D01*
X-13722468Y-39694544D01*
X-13722470Y-39694545D01*
X-14457105Y-40966962D01*
X-14457105Y-40966963D01*
X-14457105Y-40966964D01*
X-14446613Y-41006121D01*
X-14441367Y-41025701D01*
X-14435199Y-41033739D01*
X-14413455Y-41077833D01*
X-14410240Y-41126891D01*
X-14426045Y-41173446D01*
X-14429902Y-41180126D01*
X-14476021Y-41226243D01*
X-14539020Y-41243122D01*
X-14602019Y-41226241D01*
X-15262795Y-40844742D01*
X-15262796Y-40844742D01*
X-15436282Y-40891227D01*
X-15436281Y-40891227D01*
X-15436283Y-40891228D01*
X-15754282Y-41442018D01*
X-15800401Y-41488137D01*
X-15863401Y-41505018D01*
X-15926401Y-41488137D01*
X-16367207Y-41233637D01*
X-16367208Y-41233637D01*
X-16397474Y-41241746D01*
X-16540693Y-41280122D01*
X-16540693Y-41280123D01*
X-17276597Y-42554746D01*
X-17309012Y-42591708D01*
X-17353104Y-42613452D01*
X-17476176Y-42646429D01*
X-17476180Y-42646432D01*
X-17894583Y-43371129D01*
X-17926998Y-43408091D01*
X-17971090Y-43429835D01*
X-18043750Y-43449305D01*
X-18092808Y-43452521D01*
X-18139362Y-43436718D01*
X-18598891Y-43171408D01*
X-18635854Y-43138993D01*
X-18657598Y-43094900D01*
X-18677068Y-43022237D01*
X-18680282Y-42973183D01*
X-18664480Y-42926631D01*
X-18208670Y-42137143D01*
X-18176256Y-42100183D01*
X-18132164Y-42078438D01*
X-17315149Y-41859520D01*
X-16870648Y-41089623D01*
X-16917134Y-40916138D01*
X-16917135Y-40916137D01*
X-17907866Y-40344137D01*
X-17953985Y-40298018D01*
X-17970866Y-40235018D01*
X-17953985Y-40172018D01*
X-17842794Y-39979431D01*
X-17635985Y-39621227D01*
X-17682471Y-39447741D01*
X-17682473Y-39447740D01*
X-17682473Y-39447739D01*
X-18343250Y-39066241D01*
X-18389369Y-39020122D01*
X-18406250Y-38957121D01*
X-18389369Y-38894124D01*
X-18325367Y-38783270D01*
X-18414998Y-38227000D01*
X-18668998Y-38100000D01*
X-18668999Y-38100000D01*
X-19788220Y-38341005D01*
X-19834290Y-38342303D01*
X-19877744Y-38326947D01*
X-20055660Y-38224227D01*
X-20055661Y-38224227D01*
X-21270057Y-38549622D01*
X-21270057Y-38549623D01*
X-21270059Y-38549624D01*
X-22095557Y-39979429D01*
X-22095557Y-39979430D01*
X-22095557Y-39979431D01*
X-22027073Y-40235018D01*
X-21969610Y-40449474D01*
X-21966395Y-40498531D01*
X-21982198Y-40545085D01*
X-22374507Y-41224584D01*
X-22406922Y-41261546D01*
X-22451015Y-41283291D01*
X-22697161Y-41349246D01*
X-22746218Y-41352461D01*
X-22792772Y-41336658D01*
X-22922870Y-41261546D01*
X-24063340Y-40603095D01*
X-25366488Y-39850722D01*
X-25403451Y-39818307D01*
X-25425195Y-39774214D01*
X-25614896Y-39066241D01*
X-26048525Y-37447918D01*
X-26051739Y-37398864D01*
X-26035938Y-37352315D01*
X-23942026Y-33725553D01*
X-23909612Y-33688592D01*
X-23865519Y-33666848D01*
X-19765774Y-32568323D01*
X-19716721Y-32565109D01*
X-19670170Y-32580911D01*
G37*
%TD.AperFunction*%
%TD*%
%TA.AperFunction,Conductor*%
%TO.N,+28V_ret*%
G36*
X-43183470Y-30871091D02*
G01*
X-43142593Y-30898405D01*
X-41946905Y-32094093D01*
X-41919591Y-32134970D01*
X-41910000Y-32183188D01*
X-41910000Y-35634808D01*
X-41919591Y-35683026D01*
X-41946903Y-35723900D01*
X-42545002Y-36322000D01*
X-42799000Y-36575998D01*
X-42799000Y-37158808D01*
X-42808591Y-37207026D01*
X-42835903Y-37247900D01*
X-42926000Y-37337998D01*
X-42926000Y-40131998D01*
X-42835903Y-40222095D01*
X-42808591Y-40262970D01*
X-42799000Y-40311188D01*
X-42799000Y-41020999D01*
X-42291002Y-41528997D01*
X-42291000Y-41528998D01*
X-39422190Y-41528998D01*
X-39373972Y-41538589D01*
X-39333095Y-41565903D01*
X-39153793Y-41745205D01*
X-39126075Y-41787070D01*
X-39116906Y-41836435D01*
X-39242137Y-49225061D01*
X-39252123Y-49272129D01*
X-39279023Y-49312021D01*
X-39460098Y-49493095D01*
X-39500972Y-49520407D01*
X-39549190Y-49529998D01*
X-43635810Y-49529998D01*
X-43684028Y-49520407D01*
X-43724905Y-49493093D01*
X-44667095Y-48550903D01*
X-44694409Y-48510026D01*
X-44704000Y-48461808D01*
X-44703998Y-41148000D01*
X-44703999Y-41147999D01*
X-44703999Y-41147998D01*
X-44830999Y-41020998D01*
X-44831000Y-41020998D01*
X-46228000Y-41020998D01*
X-46556808Y-41020998D01*
X-46605025Y-41011407D01*
X-46645902Y-40984095D01*
X-46699094Y-40930905D01*
X-46726408Y-40890027D01*
X-46736000Y-40841808D01*
X-46736000Y-40131998D01*
X-46736001Y-40131996D01*
X-46862999Y-40004998D01*
X-46863000Y-40004998D01*
X-47445810Y-40004998D01*
X-47494028Y-39995407D01*
X-47534905Y-39968093D01*
X-47588095Y-39914903D01*
X-47615409Y-39874026D01*
X-47625000Y-39825808D01*
X-47625000Y-39242998D01*
X-47625001Y-39242996D01*
X-47751999Y-39115998D01*
X-47752000Y-39115998D01*
X-49096810Y-39115998D01*
X-49145028Y-39106407D01*
X-49185903Y-39079095D01*
X-49530000Y-38734998D01*
X-49731810Y-38734998D01*
X-49780028Y-38725407D01*
X-49820905Y-38698093D01*
X-49874095Y-38644903D01*
X-49901409Y-38604026D01*
X-49911000Y-38555808D01*
X-49911000Y-37898188D01*
X-49901409Y-37849970D01*
X-49874095Y-37809093D01*
X-49820905Y-37755903D01*
X-49780028Y-37728589D01*
X-49731810Y-37718998D01*
X-49149000Y-37718998D01*
X-48804899Y-37374899D01*
X-48764026Y-37347590D01*
X-48715813Y-37337999D01*
X-46863000Y-37337998D01*
X-46736000Y-37210998D01*
X-46736000Y-36574998D01*
X-46719119Y-36511998D01*
X-46673000Y-36465879D01*
X-46610000Y-36448998D01*
X-46355001Y-36448998D01*
X-46355000Y-36448998D01*
X-46227998Y-36322000D01*
X-46227998Y-35560000D01*
X-46227999Y-35559998D01*
X-47497999Y-34289998D01*
X-47498000Y-34289998D01*
X-48514000Y-34289998D01*
X-48731098Y-34507095D01*
X-48771972Y-34534407D01*
X-48820190Y-34543998D01*
X-48969810Y-34543998D01*
X-49018028Y-34534407D01*
X-49058905Y-34507093D01*
X-49620095Y-33945903D01*
X-49647409Y-33905026D01*
X-49657000Y-33856808D01*
X-49657000Y-33273998D01*
X-49657001Y-33273996D01*
X-50545999Y-32384998D01*
X-50546000Y-32384998D01*
X-51054000Y-32384998D01*
X-51652098Y-32983095D01*
X-51692972Y-33010407D01*
X-51741190Y-33019998D01*
X-51890810Y-33019998D01*
X-51939028Y-33010407D01*
X-51979905Y-32983093D01*
X-52287094Y-32675904D01*
X-52314408Y-32635027D01*
X-52323999Y-32586812D01*
X-52324000Y-32310185D01*
X-52314409Y-32261969D01*
X-52287100Y-32221097D01*
X-51816000Y-31749998D01*
X-50964407Y-30898405D01*
X-50923530Y-30871091D01*
X-50875312Y-30861500D01*
X-43231688Y-30861500D01*
X-43183470Y-30871091D01*
G37*
%TD.AperFunction*%
%TD*%
%TA.AperFunction,Conductor*%
%TO.N,Earth*%
G36*
X-105219000Y4554621D02*
G01*
X-105172881Y4508502D01*
X-105156000Y4445502D01*
X-105156000Y-1217808D01*
X-105165591Y-1266026D01*
X-105192905Y-1306903D01*
X-107786095Y-3900093D01*
X-107826972Y-3927407D01*
X-107875190Y-3936998D01*
X-109728002Y-3936998D01*
X-110998000Y-5206996D01*
X-110998000Y-5206998D01*
X-110998000Y-25907998D01*
X-108458000Y-30225998D01*
X-106155178Y-28892784D01*
X-106091763Y-28875829D01*
X-106028426Y-28893071D01*
X-105982356Y-28939830D01*
X-105335126Y-30084929D01*
X-105318820Y-30146056D01*
X-105334278Y-30207403D01*
X-105377604Y-30253504D01*
X-105437874Y-30272737D01*
X-105499895Y-30260252D01*
X-105548030Y-30219199D01*
X-105556667Y-30206864D01*
X-105556668Y-30206863D01*
X-105556670Y-30206860D01*
X-105721061Y-30042469D01*
X-105911511Y-29909115D01*
X-106122221Y-29810858D01*
X-106346790Y-29750686D01*
X-106520390Y-29735498D01*
X-106636406Y-29735498D01*
X-106781073Y-29748154D01*
X-106810007Y-29750686D01*
X-107034576Y-29810858D01*
X-107245286Y-29909115D01*
X-107435736Y-30042469D01*
X-107600127Y-30206860D01*
X-107733481Y-30397309D01*
X-107831738Y-30608020D01*
X-107891910Y-30832589D01*
X-107912173Y-31064198D01*
X-107891910Y-31295806D01*
X-107831738Y-31520375D01*
X-107733481Y-31731085D01*
X-107600127Y-31921535D01*
X-107435736Y-32085926D01*
X-107435733Y-32085928D01*
X-107435732Y-32085929D01*
X-107245285Y-32219281D01*
X-107034576Y-32317537D01*
X-106810006Y-32377710D01*
X-106636406Y-32392898D01*
X-106520395Y-32392898D01*
X-106520390Y-32392898D01*
X-106346790Y-32377710D01*
X-106122220Y-32317537D01*
X-105911511Y-32219281D01*
X-105721064Y-32085929D01*
X-105556667Y-31921532D01*
X-105423315Y-31731086D01*
X-105325059Y-31520376D01*
X-105264886Y-31295806D01*
X-105244623Y-31064198D01*
X-105264886Y-30832590D01*
X-105325059Y-30608020D01*
X-105325060Y-30608019D01*
X-105325708Y-30605598D01*
X-105326973Y-30545528D01*
X-105300275Y-30491702D01*
X-105251686Y-30456359D01*
X-105192254Y-30447536D01*
X-105135493Y-30467239D01*
X-105094310Y-30510988D01*
X-104410309Y-31721144D01*
X-104394000Y-31783143D01*
X-104394000Y-31986337D01*
X-104398810Y-32020818D01*
X-104404921Y-32042294D01*
X-104424909Y-32257998D01*
X-104404921Y-32473701D01*
X-104398810Y-32495178D01*
X-104394000Y-32529659D01*
X-104394000Y-32824043D01*
X-104409469Y-32884533D01*
X-104452078Y-32930167D01*
X-105315123Y-33482517D01*
X-107569000Y-34924997D01*
X-107569000Y-34924998D01*
X-98330730Y-50617403D01*
X-98298000Y-50672998D01*
X-95965210Y-49294531D01*
X-90322046Y-49294531D01*
X-88264999Y-51351578D01*
X-88264997Y-51351578D01*
X-86207952Y-49294531D01*
X-86323588Y-49206628D01*
X-86644556Y-49013508D01*
X-86984514Y-48856227D01*
X-87339491Y-48736621D01*
X-87705319Y-48656096D01*
X-88077703Y-48615598D01*
X-88452293Y-48615598D01*
X-88824678Y-48656096D01*
X-89190506Y-48736621D01*
X-89545483Y-48856227D01*
X-89885441Y-49013508D01*
X-90206414Y-49206631D01*
X-90322046Y-49294531D01*
X-95965210Y-49294531D01*
X-95533655Y-49039521D01*
X-95469554Y-49021998D01*
X-93472000Y-49021998D01*
X-91476905Y-47026903D01*
X-91436028Y-46999589D01*
X-91387810Y-46989998D01*
X-87337986Y-46989998D01*
X-87271656Y-47008871D01*
X-87114519Y-47106166D01*
X-87114517Y-47106166D01*
X-87114515Y-47106168D01*
X-86921293Y-47181022D01*
X-86717607Y-47219098D01*
X-86510393Y-47219098D01*
X-86510390Y-47219098D01*
X-86362951Y-47191536D01*
X-86302527Y-47195029D01*
X-86250703Y-47226295D01*
X-79248002Y-54228997D01*
X-79248000Y-54228998D01*
X-54610001Y-54228998D01*
X-54610000Y-54228998D01*
X-54265903Y-53884900D01*
X-54225028Y-53857589D01*
X-54176810Y-53847998D01*
X-49328190Y-53847998D01*
X-49279972Y-53857589D01*
X-49239098Y-53884900D01*
X-48895000Y-54228998D01*
X-25273000Y-54228998D01*
X-23114000Y-52069998D01*
X-19334473Y-52069998D01*
X-19314192Y-52444033D01*
X-19253591Y-52813685D01*
X-19153383Y-53174607D01*
X-19014732Y-53522592D01*
X-18839275Y-53853541D01*
X-18652473Y-54129052D01*
X-16593418Y-52069999D01*
X-15156578Y-52069999D01*
X-13097525Y-54129052D01*
X-12910721Y-53853537D01*
X-12735266Y-53522596D01*
X-12596614Y-53174607D01*
X-12496406Y-52813685D01*
X-12435805Y-52444033D01*
X-12415524Y-52069998D01*
X-12435805Y-51695962D01*
X-12496406Y-51326310D01*
X-12596614Y-50965388D01*
X-12735266Y-50617399D01*
X-12910724Y-50286453D01*
X-13097525Y-50010942D01*
X-15156578Y-52069997D01*
X-15156578Y-52069999D01*
X-16593418Y-52069999D01*
X-16593418Y-52069997D01*
X-18652473Y-50010942D01*
X-18839272Y-50286450D01*
X-19014732Y-50617403D01*
X-19153383Y-50965388D01*
X-19253591Y-51326310D01*
X-19314192Y-51695962D01*
X-19334473Y-52069998D01*
X-23114000Y-52069998D01*
X-20338533Y-49294531D01*
X-17932046Y-49294531D01*
X-15874999Y-51351578D01*
X-15874997Y-51351578D01*
X-13817952Y-49294531D01*
X-13933588Y-49206628D01*
X-14254556Y-49013508D01*
X-14594514Y-48856227D01*
X-14949491Y-48736621D01*
X-15315319Y-48656096D01*
X-15687703Y-48615598D01*
X-16062293Y-48615598D01*
X-16434678Y-48656096D01*
X-16800506Y-48736621D01*
X-17155483Y-48856227D01*
X-17495441Y-49013508D01*
X-17816414Y-49206631D01*
X-17932046Y-49294531D01*
X-20338533Y-49294531D01*
X-18197905Y-47153903D01*
X-18157028Y-47126589D01*
X-18108810Y-47116998D01*
X-10541001Y-47116998D01*
X-10541000Y-47116998D01*
X-6625545Y-40288825D01*
X-6605349Y-40262424D01*
X-6306594Y-39963669D01*
X-6302429Y-39959692D01*
X-6244470Y-39906857D01*
X-6197211Y-39844275D01*
X-6193633Y-39839757D01*
X-6143527Y-39779418D01*
X-6134555Y-39763308D01*
X-6125029Y-39748691D01*
X-6122608Y-39745486D01*
X-6113921Y-39733983D01*
X-6078961Y-39663771D01*
X-6076287Y-39658697D01*
X-6038114Y-39590167D01*
X-6032252Y-39572675D01*
X-6025580Y-39556567D01*
X-6017361Y-39540064D01*
X-5995898Y-39464623D01*
X-5994204Y-39459154D01*
X-5969271Y-39384767D01*
X-5966725Y-39366508D01*
X-5963126Y-39349443D01*
X-5958078Y-39331705D01*
X-5950843Y-39253612D01*
X-5950178Y-39247883D01*
X-5939343Y-39170215D01*
X-5940988Y-39134639D01*
X-5924429Y-39066148D01*
X-1038479Y-30545528D01*
X-127000Y-28955999D01*
X-127000Y-7492998D01*
X-127001Y-7492996D01*
X-4408095Y-3211903D01*
X-4435409Y-3171026D01*
X-4445000Y-3122808D01*
X-4445000Y-2775463D01*
X-2057046Y-2775463D01*
X-1941409Y-2863367D01*
X-1620441Y-3056487D01*
X-1280483Y-3213768D01*
X-925506Y-3333374D01*
X-559678Y-3413899D01*
X-187293Y-3454398D01*
X187297Y-3454398D01*
X559681Y-3413899D01*
X925509Y-3333374D01*
X1280486Y-3213768D01*
X1620444Y-3056487D01*
X1941418Y-2863363D01*
X2057047Y-2775464D01*
X2057048Y-2775463D01*
X3Y-718418D01*
X1Y-718418D01*
X-2057046Y-2775463D01*
X-4445000Y-2775463D01*
X-4445000Y3D01*
X-3459473Y3D01*
X-3439192Y-374033D01*
X-3378591Y-743685D01*
X-3278383Y-1104607D01*
X-3139732Y-1452592D01*
X-2964275Y-1783541D01*
X-2777473Y-2059052D01*
X-718418Y1D01*
X718422Y1D01*
X2777475Y-2059052D01*
X2964279Y-1783537D01*
X3139734Y-1452596D01*
X3278386Y-1104607D01*
X3378594Y-743685D01*
X3439195Y-374033D01*
X3459476Y3D01*
X3439195Y374038D01*
X3378594Y743690D01*
X3278386Y1104612D01*
X3139734Y1452601D01*
X2964276Y1783547D01*
X2777475Y2059058D01*
X718422Y3D01*
X718422Y1D01*
X-718418Y1D01*
X-718418Y3D01*
X-2777473Y2059058D01*
X-2964272Y1783550D01*
X-3139732Y1452597D01*
X-3278383Y1104612D01*
X-3378591Y743690D01*
X-3439192Y374038D01*
X-3459473Y3D01*
X-4445000Y3D01*
X-4445000Y2775469D01*
X-2057046Y2775469D01*
X1Y718422D01*
X3Y718422D01*
X2057048Y2775469D01*
X1941412Y2863372D01*
X1620444Y3056492D01*
X1280486Y3213773D01*
X925509Y3333379D01*
X559681Y3413904D01*
X187297Y3454402D01*
X-187293Y3454402D01*
X-559678Y3413904D01*
X-925506Y3333379D01*
X-1280483Y3213773D01*
X-1620441Y3056492D01*
X-1941414Y2863369D01*
X-2057046Y2775469D01*
X-4445000Y2775469D01*
X-4445000Y4445502D01*
X-4428119Y4508502D01*
X-4382000Y4554621D01*
X-4319000Y4571502D01*
X-66943Y4571502D01*
X-2746Y4571502D01*
X2750Y4571382D01*
X392939Y4554346D01*
X403889Y4553388D01*
X788381Y4502769D01*
X799206Y4500860D01*
X884292Y4481997D01*
X1177833Y4416921D01*
X1188426Y4414082D01*
X1510642Y4312488D01*
X1558295Y4297463D01*
X1568624Y4293704D01*
X1926925Y4145291D01*
X1936887Y4140645D01*
X2280871Y3961578D01*
X2290380Y3956089D01*
X2617469Y3747711D01*
X2626473Y3741406D01*
X2934140Y3505324D01*
X2942560Y3498259D01*
X3228484Y3236258D01*
X3236253Y3228490D01*
X3498277Y2942541D01*
X3505307Y2934164D01*
X3741416Y2626461D01*
X3747708Y2617474D01*
X3801578Y2532916D01*
X3956084Y2290388D01*
X3961579Y2280869D01*
X4140645Y1936887D01*
X4145291Y1926925D01*
X4293704Y1568625D01*
X4297463Y1558296D01*
X4414078Y1188442D01*
X4416923Y1177825D01*
X4484726Y871985D01*
X4500861Y799208D01*
X4502770Y788382D01*
X4553389Y403888D01*
X4554347Y392938D01*
X4571382Y2796D01*
X4571502Y-2700D01*
X4571502Y-31332316D01*
X4571406Y-31337236D01*
X4558330Y-31671847D01*
X4557610Y-31681243D01*
X4519820Y-32011699D01*
X4518400Y-32021014D01*
X4456020Y-32347719D01*
X4453908Y-32356902D01*
X4367288Y-32678027D01*
X4364496Y-32687027D01*
X4254113Y-33000803D01*
X4250655Y-33009569D01*
X4117139Y-33314198D01*
X4113036Y-33322681D01*
X3956356Y-33617932D01*
X3954070Y-33622052D01*
X3913487Y-33692071D01*
X3913034Y-33693159D01*
X-8157213Y-54607332D01*
X-8160074Y-54612049D01*
X-8369936Y-54941471D01*
X-8376241Y-54950475D01*
X-8612316Y-55258138D01*
X-8619381Y-55266559D01*
X-8881393Y-55552499D01*
X-8889166Y-55560271D01*
X-9175078Y-55822265D01*
X-9183498Y-55829331D01*
X-9491170Y-56065420D01*
X-9500174Y-56071725D01*
X-9827256Y-56280103D01*
X-9836775Y-56285599D01*
X-10042414Y-56392650D01*
X-10180773Y-56464676D01*
X-10190713Y-56469312D01*
X-10463214Y-56582187D01*
X-10549011Y-56617727D01*
X-10559340Y-56621486D01*
X-10929205Y-56738109D01*
X-10939822Y-56740954D01*
X-11318439Y-56824895D01*
X-11329264Y-56826804D01*
X-11713761Y-56877429D01*
X-11724712Y-56878387D01*
X-12113778Y-56895378D01*
X-12119275Y-56895498D01*
X-97019899Y-56895498D01*
X-97019907Y-56895497D01*
X-97099613Y-56895497D01*
X-97105108Y-56895377D01*
X-97495299Y-56878344D01*
X-97506249Y-56877386D01*
X-97890734Y-56826771D01*
X-97901559Y-56824863D01*
X-98280185Y-56740927D01*
X-98290803Y-56738082D01*
X-98660672Y-56621466D01*
X-98671001Y-56617706D01*
X-99029280Y-56469305D01*
X-99039243Y-56464660D01*
X-99383245Y-56285586D01*
X-99392764Y-56280090D01*
X-99719844Y-56071720D01*
X-99728848Y-56065415D01*
X-99869096Y-55957801D01*
X-100036523Y-55829331D01*
X-100044932Y-55822275D01*
X-100330858Y-55560275D01*
X-100338630Y-55552503D01*
X-100600645Y-55266567D01*
X-100607711Y-55258146D01*
X-100719356Y-55112649D01*
X-100843797Y-54950475D01*
X-100850094Y-54941482D01*
X-100855266Y-54933363D01*
X-100911265Y-54845463D01*
X-90322046Y-54845463D01*
X-90206409Y-54933367D01*
X-89885441Y-55126487D01*
X-89545483Y-55283768D01*
X-89190506Y-55403374D01*
X-88824678Y-55483899D01*
X-88452293Y-55524398D01*
X-88077703Y-55524398D01*
X-87705319Y-55483899D01*
X-87339491Y-55403374D01*
X-86984514Y-55283768D01*
X-86644556Y-55126487D01*
X-86323582Y-54933363D01*
X-86207953Y-54845464D01*
X-86207952Y-54845463D01*
X-17932046Y-54845463D01*
X-17816409Y-54933367D01*
X-17495441Y-55126487D01*
X-17155483Y-55283768D01*
X-16800506Y-55403374D01*
X-16434678Y-55483899D01*
X-16062293Y-55524398D01*
X-15687703Y-55524398D01*
X-15315319Y-55483899D01*
X-14949491Y-55403374D01*
X-14594514Y-55283768D01*
X-14254556Y-55126487D01*
X-13933582Y-54933363D01*
X-13817953Y-54845464D01*
X-13817952Y-54845463D01*
X-15874997Y-52788418D01*
X-15874999Y-52788418D01*
X-17932046Y-54845463D01*
X-86207952Y-54845463D01*
X-88264997Y-52788418D01*
X-88264999Y-52788418D01*
X-90322046Y-54845463D01*
X-100911265Y-54845463D01*
X-101059524Y-54612743D01*
X-101062346Y-54608093D01*
X-103255420Y-50809577D01*
X-96512173Y-50809577D01*
X-96491910Y-51041185D01*
X-96431738Y-51265754D01*
X-96333481Y-51476464D01*
X-96200127Y-51666914D01*
X-96035736Y-51831305D01*
X-96035733Y-51831307D01*
X-96035732Y-51831308D01*
X-95845285Y-51964660D01*
X-95634576Y-52062916D01*
X-95410006Y-52123089D01*
X-95236406Y-52138277D01*
X-95120395Y-52138277D01*
X-95120390Y-52138277D01*
X-94946790Y-52123089D01*
X-94748651Y-52069998D01*
X-91724473Y-52069998D01*
X-91704192Y-52444033D01*
X-91643591Y-52813685D01*
X-91543383Y-53174607D01*
X-91404732Y-53522592D01*
X-91229275Y-53853541D01*
X-91042473Y-54129052D01*
X-88983418Y-52069999D01*
X-87546578Y-52069999D01*
X-85487525Y-54129052D01*
X-85300721Y-53853537D01*
X-85125266Y-53522596D01*
X-84986614Y-53174607D01*
X-84886406Y-52813685D01*
X-84825805Y-52444033D01*
X-84805524Y-52069998D01*
X-84825805Y-51695962D01*
X-84886406Y-51326310D01*
X-84986614Y-50965388D01*
X-85125266Y-50617399D01*
X-85300724Y-50286453D01*
X-85487525Y-50010942D01*
X-87546578Y-52069997D01*
X-87546578Y-52069999D01*
X-88983418Y-52069999D01*
X-88983418Y-52069997D01*
X-91042473Y-50010942D01*
X-91229272Y-50286450D01*
X-91404732Y-50617403D01*
X-91543383Y-50965388D01*
X-91643591Y-51326310D01*
X-91704192Y-51695962D01*
X-91724473Y-52069998D01*
X-94748651Y-52069998D01*
X-94722220Y-52062916D01*
X-94511511Y-51964660D01*
X-94321064Y-51831308D01*
X-94156667Y-51666911D01*
X-94023315Y-51476465D01*
X-93925059Y-51265755D01*
X-93864886Y-51041185D01*
X-93844623Y-50809577D01*
X-93864886Y-50577969D01*
X-93925059Y-50353399D01*
X-94023315Y-50142690D01*
X-94156667Y-49952243D01*
X-94156668Y-49952242D01*
X-94156670Y-49952239D01*
X-94321061Y-49787848D01*
X-94511511Y-49654494D01*
X-94722221Y-49556237D01*
X-94946790Y-49496065D01*
X-94946791Y-49496064D01*
X-95120390Y-49480877D01*
X-95236406Y-49480877D01*
X-95381073Y-49493533D01*
X-95410007Y-49496065D01*
X-95634576Y-49556237D01*
X-95845286Y-49654494D01*
X-96035736Y-49787848D01*
X-96200127Y-49952239D01*
X-96333481Y-50142688D01*
X-96431738Y-50353399D01*
X-96491910Y-50577968D01*
X-96512173Y-50809577D01*
X-103255420Y-50809577D01*
X-113146020Y-33678553D01*
X-113177860Y-33623404D01*
X-113180139Y-33619280D01*
X-113223290Y-33537635D01*
X-113336580Y-33323282D01*
X-113340662Y-33314806D01*
X-113350623Y-33291976D01*
X-113450967Y-33061985D01*
X-113473608Y-33010091D01*
X-113477050Y-33001321D01*
X-113498229Y-32940797D01*
X-113586850Y-32687536D01*
X-113589626Y-32678533D01*
X-113675672Y-32357416D01*
X-113677762Y-32348257D01*
X-113739568Y-32021607D01*
X-113740973Y-32012290D01*
X-113751199Y-31921535D01*
X-113778200Y-31681916D01*
X-113778901Y-31672548D01*
X-113791410Y-31338265D01*
X-113791498Y-31333554D01*
X-113791498Y-2775463D01*
X-111277046Y-2775463D01*
X-111161409Y-2863367D01*
X-110840441Y-3056487D01*
X-110500483Y-3213768D01*
X-110145506Y-3333374D01*
X-109779678Y-3413899D01*
X-109407293Y-3454398D01*
X-109032703Y-3454398D01*
X-108660319Y-3413899D01*
X-108294491Y-3333374D01*
X-107939514Y-3213768D01*
X-107599556Y-3056487D01*
X-107278582Y-2863363D01*
X-107162953Y-2775464D01*
X-107162952Y-2775463D01*
X-109219997Y-718418D01*
X-109219999Y-718418D01*
X-111277046Y-2775463D01*
X-113791498Y-2775463D01*
X-113791498Y-2746D01*
X-113791438Y3D01*
X-112679473Y3D01*
X-112659192Y-374033D01*
X-112598591Y-743685D01*
X-112498383Y-1104607D01*
X-112359732Y-1452592D01*
X-112184275Y-1783541D01*
X-111997473Y-2059052D01*
X-109938418Y1D01*
X-108501578Y1D01*
X-106442525Y-2059052D01*
X-106255721Y-1783537D01*
X-106080266Y-1452596D01*
X-105941614Y-1104607D01*
X-105841406Y-743685D01*
X-105780805Y-374033D01*
X-105760524Y3D01*
X-105780805Y374038D01*
X-105841406Y743690D01*
X-105941614Y1104612D01*
X-106080266Y1452601D01*
X-106255724Y1783547D01*
X-106442525Y2059058D01*
X-108501578Y3D01*
X-108501578Y1D01*
X-109938418Y1D01*
X-109938418Y3D01*
X-111997473Y2059058D01*
X-112184272Y1783550D01*
X-112359732Y1452597D01*
X-112498383Y1104612D01*
X-112598591Y743690D01*
X-112659192Y374038D01*
X-112679473Y3D01*
X-113791438Y3D01*
X-113791378Y2750D01*
X-113774342Y392938D01*
X-113773384Y403888D01*
X-113757437Y525019D01*
X-113722763Y788391D01*
X-113720855Y799208D01*
X-113712871Y835218D01*
X-113636918Y1177825D01*
X-113634074Y1188439D01*
X-113633329Y1190801D01*
X-113517456Y1558303D01*
X-113513699Y1568624D01*
X-113365282Y1926934D01*
X-113360654Y1936860D01*
X-113181556Y2280905D01*
X-113176091Y2290370D01*
X-112967697Y2617484D01*
X-112961411Y2626460D01*
X-112847072Y2775469D01*
X-111277046Y2775469D01*
X-109219999Y718422D01*
X-109219997Y718422D01*
X-107162952Y2775469D01*
X-107278588Y2863372D01*
X-107599556Y3056492D01*
X-107939514Y3213773D01*
X-108294491Y3333379D01*
X-108660319Y3413904D01*
X-109032703Y3454402D01*
X-109407293Y3454402D01*
X-109779678Y3413904D01*
X-110145506Y3333379D01*
X-110500483Y3213773D01*
X-110840441Y3056492D01*
X-111161414Y2863369D01*
X-111277046Y2775469D01*
X-112847072Y2775469D01*
X-112725313Y2934148D01*
X-112718273Y2942539D01*
X-112456238Y3228500D01*
X-112448480Y3236256D01*
X-112448477Y3236258D01*
X-112162554Y3498259D01*
X-112154142Y3505318D01*
X-112154134Y3505324D01*
X-111846454Y3741415D01*
X-111837466Y3747708D01*
X-111510366Y3956093D01*
X-111500883Y3961568D01*
X-111156874Y4140648D01*
X-111146930Y4145286D01*
X-110788614Y4293705D01*
X-110778300Y4297459D01*
X-110408428Y4414078D01*
X-110397824Y4416920D01*
X-110019192Y4500861D01*
X-110008388Y4502766D01*
X-109623882Y4553387D01*
X-109612937Y4554344D01*
X-109222694Y4571383D01*
X-109217212Y4571502D01*
X-109153053Y4571502D01*
X-105282000Y4571502D01*
X-105219000Y4554621D01*
G37*
%TD.AperFunction*%
%TD*%
M02*
