%TF.GenerationSoftware,KiCad,Pcbnew,(6.0.2-0)*%
%TF.CreationDate,2022-12-09T10:24:35-06:00*%
%TF.ProjectId,rj45_jack,726a3435-5f6a-4616-936b-2e6b69636164,rev?*%
%TF.SameCoordinates,PX7b1d74cPY5dfc8c0*%
%TF.FileFunction,Copper,L2,Bot*%
%TF.FilePolarity,Positive*%
%FSLAX46Y46*%
G04 Gerber Fmt 4.6, Leading zero omitted, Abs format (unit mm)*
G04 Created by KiCad (PCBNEW (6.0.2-0)) date 2022-12-09 10:24:35*
%MOMM*%
%LPD*%
G01*
G04 APERTURE LIST*
%TA.AperFunction,ComponentPad*%
%ADD10C,1.200000*%
%TD*%
%TA.AperFunction,Conductor*%
%ADD11C,0.304800*%
%TD*%
G04 APERTURE END LIST*
D10*
%TO.P,J1,1*%
%TO.N,Net-(J1-Pad1)*%
X1270000Y-3556000D03*
%TO.P,J1,2*%
%TO.N,Net-(J1-Pad2)*%
X-1270000Y-2540000D03*
%TO.P,J1,3*%
%TO.N,Net-(J1-Pad3)*%
X1270000Y-1524000D03*
%TO.P,J1,4*%
%TO.N,Net-(J1-Pad4)*%
X-1270000Y-508000D03*
%TO.P,J1,5*%
%TO.N,Net-(J1-Pad5)*%
X1270000Y508000D03*
%TO.P,J1,6*%
%TO.N,Net-(J1-Pad6)*%
X-1270000Y1524000D03*
%TO.P,J1,7*%
%TO.N,Net-(J1-Pad7)*%
X1270000Y2540000D03*
%TO.P,J1,8*%
%TO.N,Net-(J1-Pad8)*%
X-1270000Y3556000D03*
%TD*%
%TO.P,J2,1*%
%TO.N,Net-(J1-Pad8)*%
X15240000Y3556000D03*
%TO.P,J2,2*%
%TO.N,Net-(J1-Pad7)*%
X17780000Y2540000D03*
%TO.P,J2,3*%
%TO.N,Net-(J1-Pad6)*%
X15240000Y1524000D03*
%TO.P,J2,4*%
%TO.N,Net-(J1-Pad5)*%
X17780000Y508000D03*
%TO.P,J2,5*%
%TO.N,Net-(J1-Pad4)*%
X15240000Y-508000D03*
%TO.P,J2,6*%
%TO.N,Net-(J1-Pad3)*%
X17780000Y-1524000D03*
%TO.P,J2,7*%
%TO.N,Net-(J1-Pad2)*%
X15240000Y-2540000D03*
%TO.P,J2,8*%
%TO.N,Net-(J1-Pad1)*%
X17780000Y-3556000D03*
%TD*%
D11*
%TO.N,Net-(J1-Pad1)*%
X1270000Y-3556000D02*
X7747000Y-3556000D01*
X7747000Y-3556000D02*
X8001000Y-3302000D01*
X8001000Y-3302000D02*
X11176000Y-3302000D01*
X11176000Y-3302000D02*
X11430000Y-3556000D01*
X11430000Y-3556000D02*
X17780000Y-3556000D01*
%TO.N,Net-(J1-Pad2)*%
X15240000Y-2540000D02*
X-1270000Y-2540000D01*
%TO.N,Net-(J1-Pad3)*%
X1270000Y-1524000D02*
X17780000Y-1524000D01*
%TO.N,Net-(J1-Pad4)*%
X15240000Y-508000D02*
X-1270000Y-508000D01*
%TO.N,Net-(J1-Pad5)*%
X1270000Y508000D02*
X17780000Y508000D01*
%TO.N,Net-(J1-Pad6)*%
X-1270000Y1524000D02*
X15240000Y1524000D01*
%TO.N,Net-(J1-Pad7)*%
X1270000Y2540000D02*
X17780000Y2540000D01*
%TO.N,Net-(J1-Pad8)*%
X1412311Y3444311D02*
X1524000Y3556000D01*
X1524000Y3556000D02*
X15240000Y3556000D01*
X895421Y3444311D02*
X1412311Y3444311D01*
X-1270000Y3556000D02*
X-1016000Y3302000D01*
X753110Y3302000D02*
X895421Y3444311D01*
X-1016000Y3302000D02*
X753110Y3302000D01*
%TD*%
M02*
