%TF.GenerationSoftware,KiCad,Pcbnew,7.0.1-0*%
%TF.CreationDate,2023-07-11T13:22:56-05:00*%
%TF.ProjectId,plenum,706c656e-756d-42e6-9b69-6361645f7063,2*%
%TF.SameCoordinates,PXbe27330PY316a640*%
%TF.FileFunction,Soldermask,Bot*%
%TF.FilePolarity,Negative*%
%FSLAX46Y46*%
G04 Gerber Fmt 4.6, Leading zero omitted, Abs format (unit mm)*
G04 Created by KiCad (PCBNEW 7.0.1-0) date 2023-07-11 13:22:56*
%MOMM*%
%LPD*%
G01*
G04 APERTURE LIST*
G04 Aperture macros list*
%AMRoundRect*
0 Rectangle with rounded corners*
0 $1 Rounding radius*
0 $2 $3 $4 $5 $6 $7 $8 $9 X,Y pos of 4 corners*
0 Add a 4 corners polygon primitive as box body*
4,1,4,$2,$3,$4,$5,$6,$7,$8,$9,$2,$3,0*
0 Add four circle primitives for the rounded corners*
1,1,$1+$1,$2,$3*
1,1,$1+$1,$4,$5*
1,1,$1+$1,$6,$7*
1,1,$1+$1,$8,$9*
0 Add four rect primitives between the rounded corners*
20,1,$1+$1,$2,$3,$4,$5,0*
20,1,$1+$1,$4,$5,$6,$7,0*
20,1,$1+$1,$6,$7,$8,$9,0*
20,1,$1+$1,$8,$9,$2,$3,0*%
%AMFreePoly0*
4,1,21,-0.625000,0.375000,-0.605970,0.470671,-0.551777,0.551777,-0.470671,0.605970,-0.375000,0.625000,0.375000,0.625000,0.470671,0.605970,0.551777,0.551777,0.605970,0.470671,0.625000,0.375000,0.625000,-0.375000,0.605970,-0.470671,0.551777,-0.551777,0.470671,-0.605970,0.375000,-0.625000,-0.375000,-0.625000,-0.470671,-0.605970,-0.551777,-0.551777,-0.605970,-0.470671,-0.625000,-0.375000,
-0.625000,0.375000,-0.625000,0.375000,$1*%
G04 Aperture macros list end*
%ADD10RoundRect,0.225000X0.017678X-0.335876X0.335876X-0.017678X-0.017678X0.335876X-0.335876X0.017678X0*%
%ADD11RoundRect,0.250000X0.689429X0.229810X0.229810X0.689429X-0.689429X-0.229810X-0.229810X-0.689429X0*%
%ADD12C,5.892800*%
%ADD13C,2.000000*%
%ADD14RoundRect,0.225000X-0.017678X0.335876X-0.335876X0.017678X0.017678X-0.335876X0.335876X-0.017678X0*%
%ADD15C,2.800000*%
%ADD16R,1.700000X1.700000*%
%ADD17O,1.700000X1.700000*%
%ADD18C,1.500000*%
%ADD19C,3.000000*%
%ADD20RoundRect,0.312500X0.312500X-0.312500X0.312500X0.312500X-0.312500X0.312500X-0.312500X-0.312500X0*%
%ADD21C,1.250000*%
%ADD22C,3.500000*%
%ADD23FreePoly0,90.000000*%
%ADD24RoundRect,0.250000X1.075000X-0.312500X1.075000X0.312500X-1.075000X0.312500X-1.075000X-0.312500X0*%
%ADD25RoundRect,0.250000X-0.689429X-0.229810X-0.229810X-0.689429X0.689429X0.229810X0.229810X0.689429X0*%
%ADD26RoundRect,0.225000X0.250000X-0.225000X0.250000X0.225000X-0.250000X0.225000X-0.250000X-0.225000X0*%
%ADD27RoundRect,0.225000X-0.225000X-0.250000X0.225000X-0.250000X0.225000X0.250000X-0.225000X0.250000X0*%
%ADD28RoundRect,0.250000X-0.043542X0.725417X-0.606458X0.400417X0.043542X-0.725417X0.606458X-0.400417X0*%
%ADD29RoundRect,0.200000X-0.275000X0.200000X-0.275000X-0.200000X0.275000X-0.200000X0.275000X0.200000X0*%
%ADD30RoundRect,0.225000X-0.250000X0.225000X-0.250000X-0.225000X0.250000X-0.225000X0.250000X0.225000X0*%
G04 APERTURE END LIST*
D10*
%TO.C,C53*%
X-75224008Y-23408008D03*
X-74127992Y-22311992D03*
%TD*%
D11*
%TO.C,C51*%
X-77570017Y-27585983D03*
X-79655983Y-25500017D03*
%TD*%
D12*
%TO.C,H4*%
X-88265000Y-52070000D03*
%TD*%
%TO.C,H3*%
X-15875000Y-52070000D03*
%TD*%
%TO.C,H2*%
X-109220000Y0D03*
%TD*%
%TO.C,H1*%
X0Y0D03*
%TD*%
D13*
%TO.C,TP13*%
X-58166000Y-32639000D03*
%TD*%
%TO.C,TP16*%
X-76708000Y-37084000D03*
%TD*%
%TO.C,TP4*%
X-44831000Y-21590000D03*
%TD*%
D14*
%TO.C,C52*%
X-74081008Y-24551008D03*
X-72984992Y-23454992D03*
%TD*%
D13*
%TO.C,TP2*%
X-54610000Y-37084000D03*
%TD*%
D15*
%TO.C,TP1*%
X-60452000Y762000D03*
%TD*%
D16*
%TO.C,J7*%
X-17272000Y762000D03*
D17*
X-19812000Y762000D03*
X-22352000Y762000D03*
X-24892000Y762000D03*
X-27432000Y762000D03*
X-29972000Y762000D03*
X-32512000Y762000D03*
X-35052000Y762000D03*
X-37592000Y762000D03*
X-40132000Y762000D03*
X-42672000Y762000D03*
X-45212000Y762000D03*
X-47752000Y762000D03*
X-50292000Y762000D03*
X-52832000Y762000D03*
X-55372000Y762000D03*
%TD*%
D16*
%TO.C,J9*%
X-70612000Y762000D03*
D17*
X-68072000Y762000D03*
X-65532000Y762000D03*
%TD*%
D18*
%TO.C,J5*%
X-90982481Y-38921689D03*
X-94482481Y-32859511D03*
%TD*%
D13*
%TO.C,TP5*%
X-34925000Y-19812000D03*
%TD*%
%TO.C,TP14*%
X-47879000Y-21590000D03*
%TD*%
%TO.C,TP6*%
X-34925000Y-16764000D03*
%TD*%
%TO.C,TP12*%
X-58166000Y-27813000D03*
%TD*%
%TO.C,TP11*%
X-41783000Y-21590000D03*
%TD*%
D19*
%TO.C,J4*%
X-7620000Y-26280000D03*
X-7620000Y-9280000D03*
D20*
X-8620000Y-12780000D03*
D21*
X-8620000Y-14780000D03*
X-8620000Y-16780000D03*
X-8620000Y-18780000D03*
X-8620000Y-20780000D03*
X-8620000Y-22780000D03*
X-6620000Y-12780000D03*
X-6620000Y-14780000D03*
X-6620000Y-16780000D03*
X-6620000Y-18780000D03*
X-6620000Y-20780000D03*
X-6620000Y-22780000D03*
%TD*%
D16*
%TO.C,J1*%
X-50541000Y-9652000D03*
D17*
X-53081000Y-9652000D03*
%TD*%
D13*
%TO.C,TP9*%
X-33274000Y-27051000D03*
%TD*%
%TO.C,TP8*%
X-37973000Y-13716000D03*
%TD*%
%TO.C,TP10*%
X-33274000Y-30099000D03*
%TD*%
D22*
%TO.C,J3*%
X-78110000Y-45085000D03*
X-31110000Y-45085000D03*
D23*
X-35610000Y-43085000D03*
D21*
X-37610000Y-43085000D03*
X-39610000Y-43085000D03*
X-41610000Y-43085000D03*
X-43610000Y-43085000D03*
X-45610000Y-43085000D03*
X-47610000Y-43085000D03*
X-49610000Y-43085000D03*
X-51610000Y-43085000D03*
X-53610000Y-43085000D03*
X-55610000Y-43085000D03*
X-57610000Y-43085000D03*
X-59610000Y-43085000D03*
X-61610000Y-43085000D03*
X-63610000Y-43085000D03*
X-65610000Y-43085000D03*
X-67610000Y-43085000D03*
X-69610000Y-43085000D03*
X-71610000Y-43085000D03*
X-73610000Y-43085000D03*
X-35610000Y-45085000D03*
X-37610000Y-45085000D03*
X-39610000Y-45085000D03*
X-41610000Y-45085000D03*
X-43610000Y-45085000D03*
X-45610000Y-45085000D03*
X-47610000Y-45085000D03*
X-49610000Y-45085000D03*
X-51610000Y-45085000D03*
X-53610000Y-45085000D03*
X-55610000Y-45085000D03*
X-57610000Y-45085000D03*
X-59610000Y-45085000D03*
X-61610000Y-45085000D03*
X-63610000Y-45085000D03*
X-65610000Y-45085000D03*
X-67610000Y-45085000D03*
X-69610000Y-45085000D03*
X-71610000Y-45085000D03*
X-73610000Y-45085000D03*
X-35610000Y-47085000D03*
X-37610000Y-47085000D03*
X-39610000Y-47085000D03*
X-41610000Y-47085000D03*
X-43610000Y-47085000D03*
X-45610000Y-47085000D03*
X-47610000Y-47085000D03*
X-49610000Y-47085000D03*
X-51610000Y-47085000D03*
X-53610000Y-47085000D03*
X-55610000Y-47085000D03*
X-57610000Y-47085000D03*
X-59610000Y-47085000D03*
X-61610000Y-47085000D03*
X-63610000Y-47085000D03*
X-65610000Y-47085000D03*
X-67610000Y-47085000D03*
X-69610000Y-47085000D03*
X-71610000Y-47085000D03*
X-73610000Y-47085000D03*
%TD*%
D13*
%TO.C,TP7*%
X-34925000Y-13716000D03*
%TD*%
D24*
%TO.C,R11*%
X-84455000Y-43626500D03*
X-84455000Y-40701500D03*
%TD*%
D14*
%TO.C,C32*%
X-69301992Y-32852992D03*
X-70398008Y-33949008D03*
%TD*%
D25*
%TO.C,C50*%
X-76935017Y-24664983D03*
X-79020983Y-22579017D03*
%TD*%
D10*
%TO.C,C30*%
X-65148357Y-31052274D03*
X-64052341Y-29956258D03*
%TD*%
D14*
%TO.C,C33*%
X-47330992Y-32852992D03*
X-48427008Y-33949008D03*
%TD*%
D26*
%TO.C,C6*%
X-66802000Y-18301000D03*
X-66802000Y-16751000D03*
%TD*%
D27*
%TO.C,C10*%
X-73165000Y-15494000D03*
X-71615000Y-15494000D03*
%TD*%
D10*
%TO.C,C36*%
X-66225988Y-29974644D03*
X-65129972Y-28878628D03*
%TD*%
D26*
%TO.C,C9*%
X-70358000Y-18301000D03*
X-70358000Y-16751000D03*
%TD*%
D28*
%TO.C,C49*%
X-92956613Y-28726500D03*
X-95511387Y-30201500D03*
%TD*%
D10*
%TO.C,C37*%
X-44160235Y-29992578D03*
X-43064219Y-28896562D03*
%TD*%
%TO.C,C28*%
X-67223008Y-28996008D03*
X-66126992Y-27899992D03*
%TD*%
D16*
%TO.C,J2*%
X-105918000Y-6386830D03*
D17*
X-108458000Y-6386830D03*
X-105918000Y-8926830D03*
X-108458000Y-8926830D03*
X-105918000Y-11466830D03*
X-108458000Y-11466830D03*
X-105918000Y-14006830D03*
X-108458000Y-14006830D03*
X-105918000Y-16546830D03*
X-108458000Y-16546830D03*
X-105918000Y-19086830D03*
X-108458000Y-19086830D03*
X-105918000Y-21626830D03*
X-108458000Y-21626830D03*
X-105918000Y-24166830D03*
X-108458000Y-24166830D03*
%TD*%
D27*
%TO.C,C4*%
X-73165000Y-11430000D03*
X-71615000Y-11430000D03*
%TD*%
%TO.C,C8*%
X-73165000Y-13208000D03*
X-71615000Y-13208000D03*
%TD*%
D10*
%TO.C,C29*%
X-45228673Y-28905755D03*
X-44132657Y-27809739D03*
%TD*%
D29*
%TO.C,R26*%
X-47752000Y-4509000D03*
X-47752000Y-6159000D03*
%TD*%
D26*
%TO.C,C5*%
X-68580000Y-18301000D03*
X-68580000Y-16751000D03*
%TD*%
D30*
%TO.C,C11*%
X-66294000Y-9639000D03*
X-66294000Y-11189000D03*
%TD*%
%TO.C,C7*%
X-69342000Y-9639000D03*
X-69342000Y-11189000D03*
%TD*%
D29*
%TO.C,R25*%
X-46228000Y-4509000D03*
X-46228000Y-6159000D03*
%TD*%
D10*
%TO.C,C31*%
X-43082604Y-31070209D03*
X-41986588Y-29974193D03*
%TD*%
G36*
X-104952300Y3542522D02*
G01*
X-104915478Y3505700D01*
X-104902000Y3455400D01*
X-104902000Y-1482330D01*
X-104909658Y-1520828D01*
X-104931465Y-1553465D01*
X-107666535Y-4288535D01*
X-107699172Y-4310342D01*
X-107737670Y-4318000D01*
X-109474000Y-4318000D01*
X-110490000Y-5334000D01*
X-110490000Y-25146000D01*
X-107696000Y-27940000D01*
X-95308001Y-27940000D01*
X-95257753Y-27953448D01*
X-95220939Y-27990196D01*
X-86868000Y-42418000D01*
X-76749670Y-42418000D01*
X-76711172Y-42425658D01*
X-76678535Y-42447465D01*
X-75721465Y-43404535D01*
X-75699658Y-43437172D01*
X-75692000Y-43475670D01*
X-75692000Y-48514000D01*
X-74676000Y-49530000D01*
X-34544000Y-49530000D01*
X-33528000Y-48514000D01*
X-33528000Y-43983670D01*
X-33520342Y-43945172D01*
X-33498535Y-43912535D01*
X-32033465Y-42447465D01*
X-32000828Y-42425658D01*
X-31962330Y-42418000D01*
X-30267670Y-42418000D01*
X-30229172Y-42425658D01*
X-30196535Y-42447465D01*
X-24638000Y-48006000D01*
X-12700000Y-48006000D01*
X-5334001Y-35306000D01*
X-5334000Y-35305998D01*
X-5334000Y-31750000D01*
X-9876535Y-27207465D01*
X-9898342Y-27174828D01*
X-9906000Y-27136330D01*
X-9906000Y-25441670D01*
X-9898342Y-25403172D01*
X-9876535Y-25370535D01*
X-9173465Y-24667465D01*
X-9140828Y-24645658D01*
X-9102330Y-24638000D01*
X-6350000Y-24638000D01*
X-4572000Y-22860000D01*
X-4572000Y-12446000D01*
X-6096000Y-10922000D01*
X-9356330Y-10922000D01*
X-9394828Y-10914342D01*
X-9427465Y-10892535D01*
X-9876535Y-10443465D01*
X-9898342Y-10410828D01*
X-9906000Y-10372330D01*
X-9906000Y-8423670D01*
X-9898342Y-8385172D01*
X-9876535Y-8352535D01*
X-5334000Y-3810000D01*
X-5334000Y3455400D01*
X-5320522Y3505700D01*
X-5283700Y3542522D01*
X-5233400Y3556000D01*
X632172Y3556000D01*
X637813Y3555842D01*
X984845Y3536353D01*
X996055Y3535090D01*
X1335938Y3477342D01*
X1346937Y3474831D01*
X1678208Y3379394D01*
X1688856Y3375668D01*
X2007363Y3243738D01*
X2017527Y3238843D01*
X2319257Y3072082D01*
X2328809Y3066080D01*
X2609968Y2866587D01*
X2618789Y2859554D01*
X2875851Y2629829D01*
X2883828Y2621852D01*
X3113553Y2364790D01*
X3120586Y2355969D01*
X3320079Y2074810D01*
X3326081Y2065258D01*
X3492842Y1763528D01*
X3497737Y1753364D01*
X3629667Y1434857D01*
X3633393Y1424209D01*
X3728830Y1092938D01*
X3731341Y1081939D01*
X3789089Y742056D01*
X3790352Y730846D01*
X3809842Y383813D01*
X3810000Y378172D01*
X3810000Y-31503134D01*
X3809862Y-31508403D01*
X3792871Y-31832384D01*
X3791771Y-31842851D01*
X3741434Y-32160688D01*
X3739244Y-32170989D01*
X3655963Y-32481802D01*
X3652710Y-32491816D01*
X3537393Y-32792237D01*
X3533110Y-32801857D01*
X3385820Y-33090934D01*
X3383306Y-33095563D01*
X-8999934Y-54543966D01*
X-9003003Y-54548942D01*
X-9201046Y-54850089D01*
X-9208035Y-54859478D01*
X-9437835Y-55133341D01*
X-9445863Y-55141850D01*
X-9705901Y-55387181D01*
X-9714864Y-55394701D01*
X-10001629Y-55608186D01*
X-10011402Y-55614614D01*
X-10321004Y-55793361D01*
X-10331459Y-55798612D01*
X-10659728Y-55940211D01*
X-10670721Y-55944212D01*
X-11013205Y-56046742D01*
X-11024589Y-56049440D01*
X-11376661Y-56111517D01*
X-11388280Y-56112875D01*
X-11748107Y-56133830D01*
X-11753956Y-56134000D01*
X-97466046Y-56134000D01*
X-97471894Y-56133830D01*
X-97831721Y-56112878D01*
X-97843344Y-56111519D01*
X-98195410Y-56049434D01*
X-98206792Y-56046736D01*
X-98549269Y-55944201D01*
X-98560262Y-55940200D01*
X-98888524Y-55798598D01*
X-98898978Y-55793348D01*
X-99208581Y-55614597D01*
X-99218355Y-55608169D01*
X-99505118Y-55394682D01*
X-99514080Y-55387162D01*
X-99774122Y-55141827D01*
X-99782150Y-55133318D01*
X-100011944Y-54859465D01*
X-100018929Y-54850082D01*
X-100216995Y-54548946D01*
X-100220068Y-54543964D01*
X-101861923Y-51700189D01*
X-101865970Y-51692417D01*
X-101953981Y-51503744D01*
X-101959984Y-51487253D01*
X-102012723Y-51290430D01*
X-102015768Y-51273160D01*
X-102033527Y-51070159D01*
X-102033527Y-51052623D01*
X-102015765Y-50849625D01*
X-102012720Y-50832355D01*
X-101959975Y-50635520D01*
X-101953977Y-50619042D01*
X-101867855Y-50434360D01*
X-101859087Y-50419174D01*
X-101742203Y-50252252D01*
X-101730930Y-50238818D01*
X-101586833Y-50094728D01*
X-101573400Y-50083457D01*
X-101402867Y-49964055D01*
X-101395467Y-49959341D01*
X-92600444Y-44881532D01*
X-92419092Y-44754590D01*
X-92262557Y-44598045D01*
X-92135584Y-44416696D01*
X-92042032Y-44216063D01*
X-91984738Y-44002221D01*
X-91965446Y-43781689D01*
X-91984741Y-43561153D01*
X-92042038Y-43347322D01*
X-92135598Y-43146679D01*
X-95413095Y-37469886D01*
X-98690593Y-31793092D01*
X-98817521Y-31611712D01*
X-98974065Y-31455177D01*
X-99155412Y-31328203D01*
X-99356056Y-31234648D01*
X-99569899Y-31177354D01*
X-99790433Y-31158067D01*
X-100010976Y-31177367D01*
X-100224805Y-31234670D01*
X-100425455Y-31328240D01*
X-109220442Y-36406029D01*
X-109228259Y-36410097D01*
X-109416971Y-36498013D01*
X-109433416Y-36503995D01*
X-109630254Y-36556739D01*
X-109647523Y-36559784D01*
X-109850513Y-36577545D01*
X-109868047Y-36577545D01*
X-110071032Y-36559791D01*
X-110088301Y-36556747D01*
X-110285128Y-36504014D01*
X-110301606Y-36498017D01*
X-110486283Y-36411910D01*
X-110501469Y-36403143D01*
X-110668386Y-36286278D01*
X-110681819Y-36275008D01*
X-110825913Y-36130931D01*
X-110837185Y-36117499D01*
X-110956598Y-35946984D01*
X-110961317Y-35939577D01*
X-112603313Y-33095555D01*
X-112605826Y-33090927D01*
X-112753116Y-32801858D01*
X-112757399Y-32792238D01*
X-112872719Y-32491823D01*
X-112875973Y-32481808D01*
X-112959256Y-32170990D01*
X-112961445Y-32160690D01*
X-113011785Y-31842851D01*
X-113012886Y-31832378D01*
X-113029862Y-31508405D01*
X-113030000Y-31503141D01*
X-113030000Y378172D01*
X-113029842Y383813D01*
X-113010353Y730846D01*
X-113009090Y742056D01*
X-112951342Y1081939D01*
X-112948831Y1092938D01*
X-112853394Y1424209D01*
X-112849668Y1434857D01*
X-112717738Y1753364D01*
X-112712843Y1763528D01*
X-112546082Y2065258D01*
X-112540080Y2074810D01*
X-112340587Y2355969D01*
X-112333554Y2364790D01*
X-112103829Y2621852D01*
X-112095852Y2629829D01*
X-111838790Y2859554D01*
X-111829969Y2866587D01*
X-111548810Y3066080D01*
X-111539258Y3072082D01*
X-111237528Y3238843D01*
X-111227364Y3243738D01*
X-110908857Y3375668D01*
X-110898209Y3379394D01*
X-110566938Y3474831D01*
X-110555939Y3477342D01*
X-110216056Y3535090D01*
X-110204846Y3536353D01*
X-109857813Y3555842D01*
X-109852172Y3556000D01*
X-105002600Y3556000D01*
X-104952300Y3542522D01*
G37*
G36*
X-17783172Y-29217658D02*
G01*
X-17750535Y-29239465D01*
X-15523465Y-31466535D01*
X-15501658Y-31499172D01*
X-15494000Y-31537670D01*
X-15494000Y-33994330D01*
X-15501658Y-34032828D01*
X-15523465Y-34065465D01*
X-17750535Y-36292535D01*
X-17783172Y-36314342D01*
X-17821670Y-36322000D01*
X-21802330Y-36322000D01*
X-21840828Y-36314342D01*
X-21873465Y-36292535D01*
X-24100535Y-34065465D01*
X-24122342Y-34032828D01*
X-24130000Y-33994330D01*
X-24130000Y-31537670D01*
X-24122342Y-31499172D01*
X-24100535Y-31466535D01*
X-21873465Y-29239465D01*
X-21840828Y-29217658D01*
X-21802330Y-29210000D01*
X-17821670Y-29210000D01*
X-17783172Y-29217658D01*
G37*
G36*
X-77727172Y-38361658D02*
G01*
X-77694535Y-38383465D01*
X-77499465Y-38578535D01*
X-77477658Y-38611172D01*
X-77470000Y-38649670D01*
X-77470000Y-41360330D01*
X-77477658Y-41398828D01*
X-77499465Y-41431465D01*
X-77694535Y-41626535D01*
X-77727172Y-41648342D01*
X-77765670Y-41656000D01*
X-85429330Y-41656000D01*
X-85467828Y-41648342D01*
X-85500465Y-41626535D01*
X-85949535Y-41177465D01*
X-85971342Y-41144828D01*
X-85979000Y-41106330D01*
X-85979000Y-40427670D01*
X-85971342Y-40389172D01*
X-85949535Y-40356535D01*
X-85627465Y-40034465D01*
X-85594828Y-40012658D01*
X-85556330Y-40005000D01*
X-85217000Y-40005000D01*
X-84738465Y-39526465D01*
X-84705828Y-39504658D01*
X-84667330Y-39497000D01*
X-84242670Y-39497000D01*
X-84204172Y-39504658D01*
X-84171535Y-39526465D01*
X-83693000Y-40005000D01*
X-83185000Y-40005000D01*
X-81563465Y-38383465D01*
X-81530828Y-38361658D01*
X-81492330Y-38354000D01*
X-77765670Y-38354000D01*
X-77727172Y-38361658D01*
G37*
G36*
X-65789909Y-10677439D02*
G01*
X-65749681Y-10704319D01*
X-65568319Y-10885681D01*
X-65541439Y-10925909D01*
X-65532000Y-10973362D01*
X-65532000Y-16458638D01*
X-65541439Y-16506091D01*
X-65568319Y-16546319D01*
X-66257681Y-17235681D01*
X-66297909Y-17262561D01*
X-66345362Y-17272000D01*
X-70814638Y-17272000D01*
X-70862091Y-17262561D01*
X-70902319Y-17235681D01*
X-72099681Y-16038319D01*
X-72126561Y-15998091D01*
X-72136000Y-15950638D01*
X-72136000Y-11227362D01*
X-72126561Y-11179909D01*
X-72099681Y-11139681D01*
X-71664319Y-10704319D01*
X-71624091Y-10677439D01*
X-71576638Y-10668000D01*
X-65837362Y-10668000D01*
X-65789909Y-10677439D01*
G37*
M02*
