%TF.GenerationSoftware,KiCad,Pcbnew,7.0.1-0*%
%TF.CreationDate,2023-07-11T13:22:56-05:00*%
%TF.ProjectId,plenum,706c656e-756d-42e6-9b69-6361645f7063,2*%
%TF.SameCoordinates,PXbe27330PY316a640*%
%TF.FileFunction,Paste,Top*%
%TF.FilePolarity,Positive*%
%FSLAX46Y46*%
G04 Gerber Fmt 4.6, Leading zero omitted, Abs format (unit mm)*
G04 Created by KiCad (PCBNEW 7.0.1-0) date 2023-07-11 13:22:56*
%MOMM*%
%LPD*%
G01*
G04 APERTURE LIST*
G04 Aperture macros list*
%AMRoundRect*
0 Rectangle with rounded corners*
0 $1 Rounding radius*
0 $2 $3 $4 $5 $6 $7 $8 $9 X,Y pos of 4 corners*
0 Add a 4 corners polygon primitive as box body*
4,1,4,$2,$3,$4,$5,$6,$7,$8,$9,$2,$3,0*
0 Add four circle primitives for the rounded corners*
1,1,$1+$1,$2,$3*
1,1,$1+$1,$4,$5*
1,1,$1+$1,$6,$7*
1,1,$1+$1,$8,$9*
0 Add four rect primitives between the rounded corners*
20,1,$1+$1,$2,$3,$4,$5,0*
20,1,$1+$1,$4,$5,$6,$7,0*
20,1,$1+$1,$6,$7,$8,$9,0*
20,1,$1+$1,$8,$9,$2,$3,0*%
%AMRotRect*
0 Rectangle, with rotation*
0 The origin of the aperture is its center*
0 $1 length*
0 $2 width*
0 $3 Rotation angle, in degrees counterclockwise*
0 Add horizontal line*
21,1,$1,$2,0,0,$3*%
G04 Aperture macros list end*
%ADD10RoundRect,0.200000X0.035705X0.338157X-0.310705X0.138157X-0.035705X-0.338157X0.310705X-0.138157X0*%
%ADD11RoundRect,0.200000X-0.200000X-0.275000X0.200000X-0.275000X0.200000X0.275000X-0.200000X0.275000X0*%
%ADD12RoundRect,0.225000X-0.250000X0.225000X-0.250000X-0.225000X0.250000X-0.225000X0.250000X0.225000X0*%
%ADD13RoundRect,0.150000X0.150000X-0.512500X0.150000X0.512500X-0.150000X0.512500X-0.150000X-0.512500X0*%
%ADD14RoundRect,0.200000X0.200000X0.275000X-0.200000X0.275000X-0.200000X-0.275000X0.200000X-0.275000X0*%
%ADD15RoundRect,0.200000X-0.035705X-0.338157X0.310705X-0.138157X0.035705X0.338157X-0.310705X0.138157X0*%
%ADD16RoundRect,0.225000X0.225000X0.250000X-0.225000X0.250000X-0.225000X-0.250000X0.225000X-0.250000X0*%
%ADD17RoundRect,0.225000X0.250000X-0.225000X0.250000X0.225000X-0.250000X0.225000X-0.250000X-0.225000X0*%
%ADD18RoundRect,0.225000X0.335876X0.017678X0.017678X0.335876X-0.335876X-0.017678X-0.017678X-0.335876X0*%
%ADD19RoundRect,0.150000X0.512500X0.150000X-0.512500X0.150000X-0.512500X-0.150000X0.512500X-0.150000X0*%
%ADD20RoundRect,0.250000X-0.981111X-0.539169X-0.539169X-0.981111X0.981111X0.539169X0.539169X0.981111X0*%
%ADD21RoundRect,0.200000X0.053033X-0.335876X0.335876X-0.053033X-0.053033X0.335876X-0.335876X0.053033X0*%
%ADD22RoundRect,0.225000X-0.017678X0.335876X-0.335876X0.017678X0.017678X-0.335876X0.335876X-0.017678X0*%
%ADD23RoundRect,0.200000X-0.053033X0.335876X-0.335876X0.053033X0.053033X-0.335876X0.335876X-0.053033X0*%
%ADD24RoundRect,0.200000X-0.275000X0.200000X-0.275000X-0.200000X0.275000X-0.200000X0.275000X0.200000X0*%
%ADD25R,0.250000X0.475000*%
%ADD26R,0.475000X0.250000*%
%ADD27RoundRect,0.150000X-0.512500X-0.150000X0.512500X-0.150000X0.512500X0.150000X-0.512500X0.150000X0*%
%ADD28R,1.500000X1.400000*%
%ADD29R,1.500000X1.000000*%
%ADD30RoundRect,0.125000X0.137500X-0.125000X0.137500X0.125000X-0.137500X0.125000X-0.137500X-0.125000X0*%
%ADD31RoundRect,0.075000X-0.521491X0.415425X0.415425X-0.521491X0.521491X-0.415425X-0.415425X0.521491X0*%
%ADD32RoundRect,0.075000X-0.521491X-0.415425X-0.415425X-0.521491X0.521491X0.415425X0.415425X0.521491X0*%
%ADD33RotRect,0.710000X2.290000X120.000000*%
%ADD34RotRect,1.015000X2.540000X120.000000*%
%ADD35RoundRect,0.225000X-0.225000X-0.250000X0.225000X-0.250000X0.225000X0.250000X-0.225000X0.250000X0*%
%ADD36R,0.200000X1.100000*%
%ADD37R,0.200000X1.000000*%
%ADD38RoundRect,0.075000X0.662500X0.075000X-0.662500X0.075000X-0.662500X-0.075000X0.662500X-0.075000X0*%
%ADD39RoundRect,0.075000X0.075000X0.662500X-0.075000X0.662500X-0.075000X-0.662500X0.075000X-0.662500X0*%
%ADD40RoundRect,0.250000X0.325000X0.650000X-0.325000X0.650000X-0.325000X-0.650000X0.325000X-0.650000X0*%
%ADD41R,1.200000X1.400000*%
%ADD42R,1.350000X3.400000*%
%ADD43R,0.650000X0.750000*%
%ADD44R,0.250000X0.500000*%
%ADD45RoundRect,0.250000X-0.325000X-0.650000X0.325000X-0.650000X0.325000X0.650000X-0.325000X0.650000X0*%
G04 APERTURE END LIST*
D10*
%TO.C,R17*%
X-88947529Y-28543500D03*
X-90376471Y-29368500D03*
%TD*%
D11*
%TO.C,R18*%
X-81216000Y-7366000D03*
X-79566000Y-7366000D03*
%TD*%
D12*
%TO.C,C41*%
X-92202000Y-9639000D03*
X-92202000Y-11189000D03*
%TD*%
D13*
%TO.C,U9*%
X-15682000Y-18917500D03*
X-14732000Y-18917500D03*
X-13782000Y-18917500D03*
X-13782000Y-16642500D03*
X-15682000Y-16642500D03*
%TD*%
D11*
%TO.C,R7*%
X-101917000Y1524000D03*
X-100267000Y1524000D03*
%TD*%
D14*
%TO.C,R28*%
X-92139000Y-12954001D03*
X-93789000Y-12954001D03*
%TD*%
D15*
%TO.C,R10*%
X-91138471Y-28098500D03*
X-89709529Y-27273500D03*
%TD*%
D16*
%TO.C,C1*%
X-51041001Y-12192000D03*
X-52591001Y-12192000D03*
%TD*%
D17*
%TO.C,C38*%
X-97790000Y-11189000D03*
X-97790000Y-9639000D03*
%TD*%
%TO.C,C55*%
X-86233000Y-21222000D03*
X-86233000Y-19672000D03*
%TD*%
D18*
%TO.C,C26*%
X-64094992Y-26710008D03*
X-65191008Y-25613992D03*
%TD*%
D19*
%TO.C,U4*%
X-29850500Y-19746000D03*
X-29850500Y-18796000D03*
X-29850500Y-17846000D03*
X-32125500Y-17846000D03*
X-32125500Y-19746000D03*
%TD*%
D20*
%TO.C,RSENSE1*%
X-52596144Y-34652856D03*
X-50527856Y-36721144D03*
%TD*%
D21*
%TO.C,R12*%
X-76251637Y-21387637D03*
X-77418363Y-22554363D03*
%TD*%
D12*
%TO.C,C42*%
X-92202000Y-14719000D03*
X-92202000Y-16269000D03*
%TD*%
D11*
%TO.C,R1*%
X-52641001Y-7111999D03*
X-50991001Y-7111999D03*
%TD*%
D14*
%TO.C,R29*%
X-92138998Y-18034000D03*
X-93788998Y-18034000D03*
%TD*%
D16*
%TO.C,C44*%
X-28434999Y-28067001D03*
X-29984999Y-28067001D03*
%TD*%
D22*
%TO.C,C35*%
X-49870992Y-29296992D03*
X-50967008Y-30393008D03*
%TD*%
D16*
%TO.C,C25*%
X-94475000Y-2540000D03*
X-96025000Y-2540000D03*
%TD*%
D23*
%TO.C,L3*%
X-75259363Y-23443363D03*
X-74092637Y-22276637D03*
%TD*%
D24*
%TO.C,R4*%
X-70485000Y-21400000D03*
X-70485000Y-23050000D03*
%TD*%
D25*
%TO.C,U20*%
X-30086999Y-33166499D03*
X-29586999Y-33166499D03*
X-29086999Y-33166499D03*
X-28586999Y-33166499D03*
D26*
X-28424499Y-32503999D03*
X-28424499Y-32003999D03*
X-28424499Y-31503999D03*
D25*
X-28586999Y-30841499D03*
X-29086999Y-30841499D03*
X-29586999Y-30841499D03*
X-30098999Y-30841499D03*
D26*
X-30249499Y-31503999D03*
X-30249499Y-32003999D03*
X-30249499Y-32503999D03*
%TD*%
D17*
%TO.C,C40*%
X-97790000Y-21349000D03*
X-97790000Y-19799000D03*
%TD*%
D16*
%TO.C,C23*%
X-30213000Y-9144000D03*
X-31763000Y-9144000D03*
%TD*%
D27*
%TO.C,U3*%
X-32125500Y-14290000D03*
X-32125500Y-15240000D03*
X-32125500Y-16190000D03*
X-29850500Y-16190000D03*
X-29850500Y-14290000D03*
%TD*%
D11*
%TO.C,R19*%
X-58610000Y-16891000D03*
X-56960000Y-16891000D03*
%TD*%
D28*
%TO.C,SW1*%
X-83554000Y0D03*
X-91354000Y0D03*
D29*
X-85704000Y-2200000D03*
X-85704000Y2200000D03*
X-89204000Y-2200000D03*
X-89204000Y2200000D03*
%TD*%
D30*
%TO.C,U15*%
X-30524500Y-26726999D03*
X-30524500Y-25926999D03*
X-30524500Y-25126999D03*
X-30524500Y-24326999D03*
X-28149500Y-24326999D03*
X-28149500Y-25126999D03*
X-28149500Y-25926999D03*
X-28149500Y-26726999D03*
%TD*%
D31*
%TO.C,U19*%
X-45702788Y-27624124D03*
X-46056342Y-27977678D03*
X-46409895Y-28331231D03*
X-46763449Y-28684785D03*
X-47117002Y-29038338D03*
X-47470555Y-29391891D03*
X-47824109Y-29745445D03*
X-48177662Y-30098998D03*
X-48531215Y-30452551D03*
X-48884769Y-30806105D03*
X-49238322Y-31159658D03*
X-49591876Y-31513212D03*
D32*
X-49591876Y-33510788D03*
X-49238322Y-33864342D03*
X-48884769Y-34217895D03*
X-48531215Y-34571449D03*
X-48177662Y-34925002D03*
X-47824109Y-35278555D03*
X-47470555Y-35632109D03*
X-47117002Y-35985662D03*
X-46763449Y-36339215D03*
X-46409895Y-36692769D03*
X-46056342Y-37046322D03*
X-45702788Y-37399876D03*
D31*
X-43705212Y-37399876D03*
X-43351658Y-37046322D03*
X-42998105Y-36692769D03*
X-42644551Y-36339215D03*
X-42290998Y-35985662D03*
X-41937445Y-35632109D03*
X-41583891Y-35278555D03*
X-41230338Y-34925002D03*
X-40876785Y-34571449D03*
X-40523231Y-34217895D03*
X-40169678Y-33864342D03*
X-39816124Y-33510788D03*
D32*
X-39816124Y-31513212D03*
X-40169678Y-31159658D03*
X-40523231Y-30806105D03*
X-40876785Y-30452551D03*
X-41230338Y-30098998D03*
X-41583891Y-29745445D03*
X-41937445Y-29391891D03*
X-42290998Y-29038338D03*
X-42644551Y-28684785D03*
X-42998105Y-28331231D03*
X-43351658Y-27977678D03*
X-43705212Y-27624124D03*
%TD*%
D33*
%TO.C,J5*%
X-86663520Y-40042348D03*
X-87173520Y-39159003D03*
X-87683520Y-38275657D03*
X-88193520Y-37392311D03*
X-88703520Y-36508965D03*
X-89213520Y-35625619D03*
X-89723520Y-34742273D03*
X-90743520Y-32975581D03*
X-91253520Y-32092235D03*
X-91763520Y-31208889D03*
X-92273520Y-30325543D03*
X-92783520Y-29442197D03*
X-93293520Y-28558852D03*
D34*
X-97199600Y-48573322D03*
X-105937100Y-33439528D03*
%TD*%
D35*
%TO.C,C22*%
X-28207000Y-14224000D03*
X-26657000Y-14224000D03*
%TD*%
D11*
%TO.C,R23*%
X-58610000Y-24511000D03*
X-56960000Y-24511000D03*
%TD*%
D36*
%TO.C,U17*%
X-88033000Y-18122000D03*
D37*
X-87633000Y-18172000D03*
X-87233000Y-18172000D03*
X-86833000Y-18172000D03*
X-86433000Y-18172000D03*
X-86033000Y-18172000D03*
X-85633000Y-18172000D03*
X-85233000Y-18172000D03*
X-84833000Y-18172000D03*
X-84433000Y-18172000D03*
X-84433000Y-16372000D03*
X-84833000Y-16372000D03*
X-85233000Y-16372000D03*
X-85633000Y-16372000D03*
X-86033000Y-16372000D03*
X-86433000Y-16372000D03*
X-86833000Y-16372000D03*
X-87233000Y-16372000D03*
X-87633000Y-16372000D03*
X-88033000Y-16372000D03*
%TD*%
D13*
%TO.C,U6*%
X-21016000Y-10535500D03*
X-20066000Y-10535500D03*
X-19116000Y-10535500D03*
X-19116000Y-8260500D03*
X-21016000Y-8260500D03*
%TD*%
D17*
%TO.C,C45*%
X-26796999Y-26301999D03*
X-26796999Y-24751999D03*
%TD*%
D23*
%TO.C,R13*%
X-79069363Y-20903363D03*
X-77902637Y-19736637D03*
%TD*%
D16*
%TO.C,C2*%
X-77965000Y-10414000D03*
X-79515000Y-10414000D03*
%TD*%
D22*
%TO.C,C34*%
X-71841992Y-29296992D03*
X-72938008Y-30393008D03*
%TD*%
D35*
%TO.C,C56*%
X-86246000Y-14478000D03*
X-84696000Y-14478000D03*
%TD*%
D38*
%TO.C,U1*%
X-63171500Y-17720000D03*
X-63171500Y-17220000D03*
X-63171500Y-16720000D03*
X-63171500Y-16220000D03*
X-63171500Y-15720000D03*
X-63171500Y-15220000D03*
X-63171500Y-14720000D03*
X-63171500Y-14220000D03*
X-63171500Y-13720000D03*
X-63171500Y-13220000D03*
X-63171500Y-12720000D03*
X-63171500Y-12220000D03*
X-63171500Y-11720000D03*
X-63171500Y-11220000D03*
X-63171500Y-10720000D03*
X-63171500Y-10220000D03*
D39*
X-65084000Y-8307500D03*
X-65584000Y-8307500D03*
X-66084000Y-8307500D03*
X-66584000Y-8307500D03*
X-67084000Y-8307500D03*
X-67584000Y-8307500D03*
X-68084000Y-8307500D03*
X-68584000Y-8307500D03*
X-69084000Y-8307500D03*
X-69584000Y-8307500D03*
X-70084000Y-8307500D03*
X-70584000Y-8307500D03*
X-71084000Y-8307500D03*
X-71584000Y-8307500D03*
X-72084000Y-8307500D03*
X-72584000Y-8307500D03*
D38*
X-74496500Y-10220000D03*
X-74496500Y-10720000D03*
X-74496500Y-11220000D03*
X-74496500Y-11720000D03*
X-74496500Y-12220000D03*
X-74496500Y-12720000D03*
X-74496500Y-13220000D03*
X-74496500Y-13720000D03*
X-74496500Y-14220000D03*
X-74496500Y-14720000D03*
X-74496500Y-15220000D03*
X-74496500Y-15720000D03*
X-74496500Y-16220000D03*
X-74496500Y-16720000D03*
X-74496500Y-17220000D03*
X-74496500Y-17720000D03*
D39*
X-72584000Y-19632500D03*
X-72084000Y-19632500D03*
X-71584000Y-19632500D03*
X-71084000Y-19632500D03*
X-70584000Y-19632500D03*
X-70084000Y-19632500D03*
X-69584000Y-19632500D03*
X-69084000Y-19632500D03*
X-68584000Y-19632500D03*
X-68084000Y-19632500D03*
X-67584000Y-19632500D03*
X-67084000Y-19632500D03*
X-66584000Y-19632500D03*
X-66084000Y-19632500D03*
X-65584000Y-19632500D03*
X-65084000Y-19632500D03*
%TD*%
D12*
%TO.C,C43*%
X-92202000Y-19799000D03*
X-92202000Y-21349000D03*
%TD*%
D19*
%TO.C,U13*%
X-93858500Y-16444000D03*
X-93858500Y-15494000D03*
X-93858500Y-14544000D03*
X-96133500Y-14544000D03*
X-96133500Y-15494000D03*
X-96133500Y-16444000D03*
%TD*%
D15*
%TO.C,R6*%
X-85296471Y-41814500D03*
X-83867529Y-40989500D03*
%TD*%
D35*
%TO.C,C12*%
X-21095000Y-12192000D03*
X-19545000Y-12192000D03*
%TD*%
D17*
%TO.C,C39*%
X-97790000Y-16269000D03*
X-97790000Y-14719000D03*
%TD*%
D20*
%TO.C,RSENSE2*%
X-74694144Y-34652856D03*
X-72625856Y-36721144D03*
%TD*%
D11*
%TO.C,R22*%
X-58610000Y-21463001D03*
X-56960000Y-21463001D03*
%TD*%
D10*
%TO.C,R16*%
X-88185529Y-29813500D03*
X-89614471Y-30638500D03*
%TD*%
D40*
%TO.C,C19*%
X-93013000Y-4572000D03*
X-95963000Y-4572000D03*
%TD*%
D35*
%TO.C,C17*%
X-21095000Y-23368000D03*
X-19545000Y-23368000D03*
%TD*%
D13*
%TO.C,U10*%
X-21016000Y-21711500D03*
X-20066000Y-21711500D03*
X-19116000Y-21711500D03*
X-19116000Y-19436500D03*
X-21016000Y-19436500D03*
%TD*%
D35*
%TO.C,C13*%
X-15761000Y-14986000D03*
X-14211000Y-14986000D03*
%TD*%
D16*
%TO.C,C20*%
X-25654000Y-16256000D03*
X-27204000Y-16256000D03*
%TD*%
D14*
%TO.C,R2*%
X-61913000Y-6731000D03*
X-63563000Y-6731000D03*
%TD*%
D31*
%TO.C,U18*%
X-67673788Y-27624124D03*
X-68027342Y-27977678D03*
X-68380895Y-28331231D03*
X-68734449Y-28684785D03*
X-69088002Y-29038338D03*
X-69441555Y-29391891D03*
X-69795109Y-29745445D03*
X-70148662Y-30098998D03*
X-70502215Y-30452551D03*
X-70855769Y-30806105D03*
X-71209322Y-31159658D03*
X-71562876Y-31513212D03*
D32*
X-71562876Y-33510788D03*
X-71209322Y-33864342D03*
X-70855769Y-34217895D03*
X-70502215Y-34571449D03*
X-70148662Y-34925002D03*
X-69795109Y-35278555D03*
X-69441555Y-35632109D03*
X-69088002Y-35985662D03*
X-68734449Y-36339215D03*
X-68380895Y-36692769D03*
X-68027342Y-37046322D03*
X-67673788Y-37399876D03*
D31*
X-65676212Y-37399876D03*
X-65322658Y-37046322D03*
X-64969105Y-36692769D03*
X-64615551Y-36339215D03*
X-64261998Y-35985662D03*
X-63908445Y-35632109D03*
X-63554891Y-35278555D03*
X-63201338Y-34925002D03*
X-62847785Y-34571449D03*
X-62494231Y-34217895D03*
X-62140678Y-33864342D03*
X-61787124Y-33510788D03*
D32*
X-61787124Y-31513212D03*
X-62140678Y-31159658D03*
X-62494231Y-30806105D03*
X-62847785Y-30452551D03*
X-63201338Y-30098998D03*
X-63554891Y-29745445D03*
X-63908445Y-29391891D03*
X-64261998Y-29038338D03*
X-64615551Y-28684785D03*
X-64969105Y-28331231D03*
X-65322658Y-27977678D03*
X-65676212Y-27624124D03*
%TD*%
D23*
%TO.C,R5*%
X-67107637Y-24562637D03*
X-68274363Y-25729363D03*
%TD*%
D35*
%TO.C,C18*%
X-15761000Y-26162000D03*
X-14211000Y-26162000D03*
%TD*%
D19*
%TO.C,U12*%
X-93858500Y-11364000D03*
X-93858500Y-10414000D03*
X-93858500Y-9464000D03*
X-96133500Y-9464000D03*
X-96133500Y-10414000D03*
X-96133500Y-11364000D03*
%TD*%
D11*
%TO.C,R21*%
X-58610000Y-19939000D03*
X-56960000Y-19939000D03*
%TD*%
D17*
%TO.C,C46*%
X-27051000Y-30874001D03*
X-27051000Y-29324001D03*
%TD*%
D14*
%TO.C,R27*%
X-92138998Y-7874000D03*
X-93788998Y-7874000D03*
%TD*%
D35*
%TO.C,C14*%
X-21095000Y-17780000D03*
X-19545000Y-17780000D03*
%TD*%
D11*
%TO.C,R24*%
X-58610000Y-22987000D03*
X-56960000Y-22987000D03*
%TD*%
D41*
%TO.C,Y1*%
X-79590000Y-12362000D03*
X-79590000Y-14562000D03*
X-77890000Y-14562000D03*
X-77890000Y-12362000D03*
%TD*%
D14*
%TO.C,R3*%
X-54293000Y-12192000D03*
X-55943000Y-12192000D03*
%TD*%
D35*
%TO.C,C24*%
X-101613000Y-2540000D03*
X-100063000Y-2540000D03*
%TD*%
D17*
%TO.C,C47*%
X-27050999Y-33922001D03*
X-27050999Y-32372001D03*
%TD*%
D27*
%TO.C,U5*%
X-27553500Y-17846000D03*
X-27553500Y-18796000D03*
X-27553500Y-19746000D03*
X-25278500Y-19746000D03*
X-25278500Y-17846000D03*
%TD*%
D42*
%TO.C,L2*%
X-98357000Y254000D03*
X-96207000Y254000D03*
%TD*%
D13*
%TO.C,U11*%
X-15682000Y-24505500D03*
X-14732000Y-24505500D03*
X-13782000Y-24505500D03*
X-13782000Y-22230500D03*
X-15682000Y-22230500D03*
%TD*%
%TO.C,U8*%
X-21016000Y-16123500D03*
X-20066000Y-16123500D03*
X-19116000Y-16123500D03*
X-19116000Y-13848500D03*
X-21016000Y-13848500D03*
%TD*%
D11*
%TO.C,R15*%
X-81216000Y-4318000D03*
X-79566000Y-4318000D03*
%TD*%
D43*
%TO.C,U16*%
X-98448000Y-3556000D03*
X-97648000Y-3556000D03*
D44*
X-98798000Y-4506000D03*
X-98298000Y-4506000D03*
X-97798000Y-4506000D03*
X-97298000Y-4506000D03*
X-97298000Y-2606000D03*
X-97798000Y-2606000D03*
X-98298000Y-2606000D03*
X-98798000Y-2606000D03*
%TD*%
D35*
%TO.C,C21*%
X-31763000Y-21336000D03*
X-30213000Y-21336000D03*
%TD*%
%TO.C,C3*%
X-79515000Y-16510000D03*
X-77965000Y-16510000D03*
%TD*%
D11*
%TO.C,R20*%
X-58610000Y-18415000D03*
X-56960000Y-18415000D03*
%TD*%
D19*
%TO.C,U14*%
X-93858500Y-21524000D03*
X-93858500Y-20574000D03*
X-93858500Y-19624000D03*
X-96133500Y-19624000D03*
X-96133500Y-20574000D03*
X-96133500Y-21524000D03*
%TD*%
D11*
%TO.C,R14*%
X-81216000Y-5842000D03*
X-79566000Y-5842000D03*
%TD*%
D13*
%TO.C,U7*%
X-15682000Y-13329500D03*
X-14732000Y-13329500D03*
X-13782000Y-13329500D03*
X-13782000Y-11054500D03*
X-15682000Y-11054500D03*
%TD*%
D27*
%TO.C,U2*%
X-32125500Y-10734000D03*
X-32125500Y-11684000D03*
X-32125500Y-12634000D03*
X-29850500Y-12634000D03*
X-29850500Y-10734000D03*
%TD*%
D18*
%TO.C,C27*%
X-42123992Y-26710008D03*
X-43220008Y-25613992D03*
%TD*%
D45*
%TO.C,C15*%
X-103329000Y-508000D03*
X-100379000Y-508000D03*
%TD*%
D23*
%TO.C,L1*%
X-72949637Y-23419637D03*
X-74116363Y-24586363D03*
%TD*%
D35*
%TO.C,C16*%
X-15761000Y-20574000D03*
X-14211000Y-20574000D03*
%TD*%
D28*
%TO.C,SW2*%
X-73521000Y0D03*
X-81321000Y0D03*
D29*
X-75671000Y-2200000D03*
X-75671000Y2200000D03*
X-79171000Y-2200000D03*
X-79171000Y2200000D03*
%TD*%
D21*
%TO.C,R8*%
X-76021363Y-26999363D03*
X-74854637Y-25832637D03*
%TD*%
D35*
%TO.C,C54*%
X-59677000Y-11684000D03*
X-61227000Y-11684000D03*
%TD*%
D23*
%TO.C,R9*%
X-76505637Y-24181637D03*
X-77672363Y-25348363D03*
%TD*%
M02*
