%TF.GenerationSoftware,KiCad,Pcbnew,7.0.1-0*%
%TF.CreationDate,2023-07-11T13:22:56-05:00*%
%TF.ProjectId,plenum,706c656e-756d-42e6-9b69-6361645f7063,2*%
%TF.SameCoordinates,PXbe27330PY316a640*%
%TF.FileFunction,Legend,Bot*%
%TF.FilePolarity,Positive*%
%FSLAX46Y46*%
G04 Gerber Fmt 4.6, Leading zero omitted, Abs format (unit mm)*
G04 Created by KiCad (PCBNEW 7.0.1-0) date 2023-07-11 13:22:56*
%MOMM*%
%LPD*%
G01*
G04 APERTURE LIST*
%ADD10C,0.150000*%
%ADD11C,0.120000*%
G04 APERTURE END LIST*
D10*
X-32893000Y-11938000D02*
X-14351000Y-11938000D01*
X-14351000Y-22860000D01*
X-32893000Y-22860000D01*
X-32893000Y-11938000D01*
G36*
X-32893000Y-11938000D02*
G01*
X-14351000Y-11938000D01*
X-14351000Y-22860000D01*
X-32893000Y-22860000D01*
X-32893000Y-11938000D01*
G37*
%TO.C,C53*%
X-72950491Y-23676371D02*
X-72883148Y-23676371D01*
X-72883148Y-23676371D02*
X-72748461Y-23609028D01*
X-72748461Y-23609028D02*
X-72681117Y-23541684D01*
X-72681117Y-23541684D02*
X-72613774Y-23406997D01*
X-72613774Y-23406997D02*
X-72613774Y-23272310D01*
X-72613774Y-23272310D02*
X-72647445Y-23171295D01*
X-72647445Y-23171295D02*
X-72748461Y-23002936D01*
X-72748461Y-23002936D02*
X-72849476Y-22901921D01*
X-72849476Y-22901921D02*
X-73017835Y-22800906D01*
X-73017835Y-22800906D02*
X-73118850Y-22767234D01*
X-73118850Y-22767234D02*
X-73253537Y-22767234D01*
X-73253537Y-22767234D02*
X-73388224Y-22834578D01*
X-73388224Y-22834578D02*
X-73455568Y-22901921D01*
X-73455568Y-22901921D02*
X-73522911Y-23036608D01*
X-73522911Y-23036608D02*
X-73522911Y-23103952D01*
X-74230018Y-23676371D02*
X-73893300Y-23339654D01*
X-73893300Y-23339654D02*
X-73522911Y-23642700D01*
X-73522911Y-23642700D02*
X-73590255Y-23642700D01*
X-73590255Y-23642700D02*
X-73691270Y-23676371D01*
X-73691270Y-23676371D02*
X-73859629Y-23844730D01*
X-73859629Y-23844730D02*
X-73893300Y-23945745D01*
X-73893300Y-23945745D02*
X-73893300Y-24013089D01*
X-73893300Y-24013089D02*
X-73859629Y-24114104D01*
X-73859629Y-24114104D02*
X-73691270Y-24282463D01*
X-73691270Y-24282463D02*
X-73590255Y-24316135D01*
X-73590255Y-24316135D02*
X-73522911Y-24316135D01*
X-73522911Y-24316135D02*
X-73421896Y-24282463D01*
X-73421896Y-24282463D02*
X-73253537Y-24114104D01*
X-73253537Y-24114104D02*
X-73219865Y-24013089D01*
X-73219865Y-24013089D02*
X-73219865Y-23945745D01*
X-74499392Y-23945745D02*
X-74937125Y-24383478D01*
X-74937125Y-24383478D02*
X-74432048Y-24417150D01*
X-74432048Y-24417150D02*
X-74533064Y-24518165D01*
X-74533064Y-24518165D02*
X-74566735Y-24619180D01*
X-74566735Y-24619180D02*
X-74566735Y-24686524D01*
X-74566735Y-24686524D02*
X-74533064Y-24787539D01*
X-74533064Y-24787539D02*
X-74364705Y-24955898D01*
X-74364705Y-24955898D02*
X-74263690Y-24989570D01*
X-74263690Y-24989570D02*
X-74196346Y-24989570D01*
X-74196346Y-24989570D02*
X-74095331Y-24955898D01*
X-74095331Y-24955898D02*
X-73893300Y-24753867D01*
X-73893300Y-24753867D02*
X-73859629Y-24652852D01*
X-73859629Y-24652852D02*
X-73859629Y-24585509D01*
%TO.C,C51*%
X-81023748Y-24731707D02*
X-81023748Y-24799050D01*
X-81023748Y-24799050D02*
X-80956405Y-24933737D01*
X-80956405Y-24933737D02*
X-80889061Y-25001081D01*
X-80889061Y-25001081D02*
X-80754374Y-25068424D01*
X-80754374Y-25068424D02*
X-80619687Y-25068424D01*
X-80619687Y-25068424D02*
X-80518672Y-25034753D01*
X-80518672Y-25034753D02*
X-80350313Y-24933737D01*
X-80350313Y-24933737D02*
X-80249298Y-24832722D01*
X-80249298Y-24832722D02*
X-80148283Y-24664363D01*
X-80148283Y-24664363D02*
X-80114611Y-24563348D01*
X-80114611Y-24563348D02*
X-80114611Y-24428661D01*
X-80114611Y-24428661D02*
X-80181955Y-24293974D01*
X-80181955Y-24293974D02*
X-80249298Y-24226630D01*
X-80249298Y-24226630D02*
X-80383985Y-24159287D01*
X-80383985Y-24159287D02*
X-80451329Y-24159287D01*
X-81023748Y-23452180D02*
X-80687031Y-23788898D01*
X-80687031Y-23788898D02*
X-80990077Y-24159287D01*
X-80990077Y-24159287D02*
X-80990077Y-24091943D01*
X-80990077Y-24091943D02*
X-81023748Y-23990928D01*
X-81023748Y-23990928D02*
X-81192107Y-23822569D01*
X-81192107Y-23822569D02*
X-81293122Y-23788898D01*
X-81293122Y-23788898D02*
X-81360466Y-23788898D01*
X-81360466Y-23788898D02*
X-81461481Y-23822569D01*
X-81461481Y-23822569D02*
X-81629840Y-23990928D01*
X-81629840Y-23990928D02*
X-81663512Y-24091943D01*
X-81663512Y-24091943D02*
X-81663512Y-24159287D01*
X-81663512Y-24159287D02*
X-81629840Y-24260302D01*
X-81629840Y-24260302D02*
X-81461481Y-24428661D01*
X-81461481Y-24428661D02*
X-81360466Y-24462333D01*
X-81360466Y-24462333D02*
X-81293122Y-24462333D01*
X-82437962Y-23452180D02*
X-82033901Y-23856241D01*
X-82235931Y-23654211D02*
X-81528825Y-22947104D01*
X-81528825Y-22947104D02*
X-81562496Y-23115463D01*
X-81562496Y-23115463D02*
X-81562496Y-23250150D01*
X-81562496Y-23250150D02*
X-81528825Y-23351165D01*
%TO.C,C52*%
X-75123486Y-26186955D02*
X-75056142Y-26186955D01*
X-75056142Y-26186955D02*
X-74921455Y-26119611D01*
X-74921455Y-26119611D02*
X-74854112Y-26052268D01*
X-74854112Y-26052268D02*
X-74786768Y-25917581D01*
X-74786768Y-25917581D02*
X-74786768Y-25782894D01*
X-74786768Y-25782894D02*
X-74820440Y-25681879D01*
X-74820440Y-25681879D02*
X-74921455Y-25513520D01*
X-74921455Y-25513520D02*
X-75022470Y-25412505D01*
X-75022470Y-25412505D02*
X-75190829Y-25311489D01*
X-75190829Y-25311489D02*
X-75291844Y-25277818D01*
X-75291844Y-25277818D02*
X-75426531Y-25277818D01*
X-75426531Y-25277818D02*
X-75561218Y-25345161D01*
X-75561218Y-25345161D02*
X-75628562Y-25412505D01*
X-75628562Y-25412505D02*
X-75695905Y-25547192D01*
X-75695905Y-25547192D02*
X-75695905Y-25614535D01*
X-76403012Y-26186955D02*
X-76066295Y-25850237D01*
X-76066295Y-25850237D02*
X-75695905Y-26153283D01*
X-75695905Y-26153283D02*
X-75763249Y-26153283D01*
X-75763249Y-26153283D02*
X-75864264Y-26186955D01*
X-75864264Y-26186955D02*
X-76032623Y-26355314D01*
X-76032623Y-26355314D02*
X-76066295Y-26456329D01*
X-76066295Y-26456329D02*
X-76066295Y-26523672D01*
X-76066295Y-26523672D02*
X-76032623Y-26624688D01*
X-76032623Y-26624688D02*
X-75864264Y-26793046D01*
X-75864264Y-26793046D02*
X-75763249Y-26826718D01*
X-75763249Y-26826718D02*
X-75695905Y-26826718D01*
X-75695905Y-26826718D02*
X-75594890Y-26793046D01*
X-75594890Y-26793046D02*
X-75426531Y-26624688D01*
X-75426531Y-26624688D02*
X-75392860Y-26523672D01*
X-75392860Y-26523672D02*
X-75392860Y-26456329D01*
X-76638715Y-26557344D02*
X-76706058Y-26557344D01*
X-76706058Y-26557344D02*
X-76807073Y-26591016D01*
X-76807073Y-26591016D02*
X-76975432Y-26759375D01*
X-76975432Y-26759375D02*
X-77009104Y-26860390D01*
X-77009104Y-26860390D02*
X-77009104Y-26927733D01*
X-77009104Y-26927733D02*
X-76975432Y-27028749D01*
X-76975432Y-27028749D02*
X-76908089Y-27096092D01*
X-76908089Y-27096092D02*
X-76773402Y-27163436D01*
X-76773402Y-27163436D02*
X-75965280Y-27163436D01*
X-75965280Y-27163436D02*
X-76403012Y-27601168D01*
%TO.C,R11*%
X-81712381Y-41521142D02*
X-82188572Y-41187809D01*
X-81712381Y-40949714D02*
X-82712381Y-40949714D01*
X-82712381Y-40949714D02*
X-82712381Y-41330666D01*
X-82712381Y-41330666D02*
X-82664762Y-41425904D01*
X-82664762Y-41425904D02*
X-82617143Y-41473523D01*
X-82617143Y-41473523D02*
X-82521905Y-41521142D01*
X-82521905Y-41521142D02*
X-82379048Y-41521142D01*
X-82379048Y-41521142D02*
X-82283810Y-41473523D01*
X-82283810Y-41473523D02*
X-82236191Y-41425904D01*
X-82236191Y-41425904D02*
X-82188572Y-41330666D01*
X-82188572Y-41330666D02*
X-82188572Y-40949714D01*
X-81712381Y-42473523D02*
X-81712381Y-41902095D01*
X-81712381Y-42187809D02*
X-82712381Y-42187809D01*
X-82712381Y-42187809D02*
X-82569524Y-42092571D01*
X-82569524Y-42092571D02*
X-82474286Y-41997333D01*
X-82474286Y-41997333D02*
X-82426667Y-41902095D01*
X-81712381Y-43425904D02*
X-81712381Y-42854476D01*
X-81712381Y-43140190D02*
X-82712381Y-43140190D01*
X-82712381Y-43140190D02*
X-82569524Y-43044952D01*
X-82569524Y-43044952D02*
X-82474286Y-42949714D01*
X-82474286Y-42949714D02*
X-82426667Y-42854476D01*
%TO.C,C32*%
X-70146817Y-32195045D02*
X-70079474Y-32195045D01*
X-70079474Y-32195045D02*
X-69944787Y-32127702D01*
X-69944787Y-32127702D02*
X-69877443Y-32060358D01*
X-69877443Y-32060358D02*
X-69810100Y-31925671D01*
X-69810100Y-31925671D02*
X-69810100Y-31790984D01*
X-69810100Y-31790984D02*
X-69843771Y-31689969D01*
X-69843771Y-31689969D02*
X-69944787Y-31521610D01*
X-69944787Y-31521610D02*
X-70045802Y-31420595D01*
X-70045802Y-31420595D02*
X-70214161Y-31319580D01*
X-70214161Y-31319580D02*
X-70315176Y-31285908D01*
X-70315176Y-31285908D02*
X-70449863Y-31285908D01*
X-70449863Y-31285908D02*
X-70584550Y-31353252D01*
X-70584550Y-31353252D02*
X-70651894Y-31420595D01*
X-70651894Y-31420595D02*
X-70719237Y-31555282D01*
X-70719237Y-31555282D02*
X-70719237Y-31622626D01*
X-71022283Y-31790984D02*
X-71460016Y-32228717D01*
X-71460016Y-32228717D02*
X-70954939Y-32262389D01*
X-70954939Y-32262389D02*
X-71055955Y-32363404D01*
X-71055955Y-32363404D02*
X-71089626Y-32464419D01*
X-71089626Y-32464419D02*
X-71089626Y-32531763D01*
X-71089626Y-32531763D02*
X-71055955Y-32632778D01*
X-71055955Y-32632778D02*
X-70887596Y-32801137D01*
X-70887596Y-32801137D02*
X-70786581Y-32834809D01*
X-70786581Y-32834809D02*
X-70719237Y-32834809D01*
X-70719237Y-32834809D02*
X-70618222Y-32801137D01*
X-70618222Y-32801137D02*
X-70416191Y-32599106D01*
X-70416191Y-32599106D02*
X-70382520Y-32498091D01*
X-70382520Y-32498091D02*
X-70382520Y-32430748D01*
X-71662046Y-32565435D02*
X-71729390Y-32565435D01*
X-71729390Y-32565435D02*
X-71830405Y-32599106D01*
X-71830405Y-32599106D02*
X-71998764Y-32767465D01*
X-71998764Y-32767465D02*
X-72032435Y-32868480D01*
X-72032435Y-32868480D02*
X-72032435Y-32935824D01*
X-72032435Y-32935824D02*
X-71998764Y-33036839D01*
X-71998764Y-33036839D02*
X-71931420Y-33104183D01*
X-71931420Y-33104183D02*
X-71796733Y-33171526D01*
X-71796733Y-33171526D02*
X-70988611Y-33171526D01*
X-70988611Y-33171526D02*
X-71426344Y-33609259D01*
%TO.C,C50*%
X-75006872Y-27196502D02*
X-75006872Y-27263845D01*
X-75006872Y-27263845D02*
X-74939529Y-27398532D01*
X-74939529Y-27398532D02*
X-74872185Y-27465876D01*
X-74872185Y-27465876D02*
X-74737498Y-27533219D01*
X-74737498Y-27533219D02*
X-74602811Y-27533219D01*
X-74602811Y-27533219D02*
X-74501796Y-27499548D01*
X-74501796Y-27499548D02*
X-74333437Y-27398532D01*
X-74333437Y-27398532D02*
X-74232422Y-27297517D01*
X-74232422Y-27297517D02*
X-74131407Y-27129158D01*
X-74131407Y-27129158D02*
X-74097735Y-27028143D01*
X-74097735Y-27028143D02*
X-74097735Y-26893456D01*
X-74097735Y-26893456D02*
X-74165079Y-26758769D01*
X-74165079Y-26758769D02*
X-74232422Y-26691425D01*
X-74232422Y-26691425D02*
X-74367109Y-26624082D01*
X-74367109Y-26624082D02*
X-74434453Y-26624082D01*
X-75006872Y-25916975D02*
X-74670155Y-26253693D01*
X-74670155Y-26253693D02*
X-74973201Y-26624082D01*
X-74973201Y-26624082D02*
X-74973201Y-26556738D01*
X-74973201Y-26556738D02*
X-75006872Y-26455723D01*
X-75006872Y-26455723D02*
X-75175231Y-26287364D01*
X-75175231Y-26287364D02*
X-75276246Y-26253693D01*
X-75276246Y-26253693D02*
X-75343590Y-26253693D01*
X-75343590Y-26253693D02*
X-75444605Y-26287364D01*
X-75444605Y-26287364D02*
X-75612964Y-26455723D01*
X-75612964Y-26455723D02*
X-75646636Y-26556738D01*
X-75646636Y-26556738D02*
X-75646636Y-26624082D01*
X-75646636Y-26624082D02*
X-75612964Y-26725097D01*
X-75612964Y-26725097D02*
X-75444605Y-26893456D01*
X-75444605Y-26893456D02*
X-75343590Y-26927128D01*
X-75343590Y-26927128D02*
X-75276246Y-26927128D01*
X-75478277Y-25445571D02*
X-75545620Y-25378227D01*
X-75545620Y-25378227D02*
X-75646636Y-25344555D01*
X-75646636Y-25344555D02*
X-75713979Y-25344555D01*
X-75713979Y-25344555D02*
X-75814994Y-25378227D01*
X-75814994Y-25378227D02*
X-75983353Y-25479242D01*
X-75983353Y-25479242D02*
X-76151712Y-25647601D01*
X-76151712Y-25647601D02*
X-76252727Y-25815960D01*
X-76252727Y-25815960D02*
X-76286399Y-25916975D01*
X-76286399Y-25916975D02*
X-76286399Y-25984319D01*
X-76286399Y-25984319D02*
X-76252727Y-26085334D01*
X-76252727Y-26085334D02*
X-76185384Y-26152677D01*
X-76185384Y-26152677D02*
X-76084368Y-26186349D01*
X-76084368Y-26186349D02*
X-76017025Y-26186349D01*
X-76017025Y-26186349D02*
X-75916010Y-26152677D01*
X-75916010Y-26152677D02*
X-75747651Y-26051662D01*
X-75747651Y-26051662D02*
X-75579292Y-25883303D01*
X-75579292Y-25883303D02*
X-75478277Y-25714945D01*
X-75478277Y-25714945D02*
X-75444605Y-25613929D01*
X-75444605Y-25613929D02*
X-75444605Y-25546586D01*
X-75444605Y-25546586D02*
X-75478277Y-25445571D01*
%TO.C,C30*%
X-61896654Y-28253208D02*
X-61829311Y-28253208D01*
X-61829311Y-28253208D02*
X-61694624Y-28185865D01*
X-61694624Y-28185865D02*
X-61627280Y-28118521D01*
X-61627280Y-28118521D02*
X-61559937Y-27983834D01*
X-61559937Y-27983834D02*
X-61559937Y-27849147D01*
X-61559937Y-27849147D02*
X-61593608Y-27748132D01*
X-61593608Y-27748132D02*
X-61694624Y-27579773D01*
X-61694624Y-27579773D02*
X-61795639Y-27478758D01*
X-61795639Y-27478758D02*
X-61963998Y-27377743D01*
X-61963998Y-27377743D02*
X-62065013Y-27344071D01*
X-62065013Y-27344071D02*
X-62199700Y-27344071D01*
X-62199700Y-27344071D02*
X-62334387Y-27411415D01*
X-62334387Y-27411415D02*
X-62401731Y-27478758D01*
X-62401731Y-27478758D02*
X-62469074Y-27613445D01*
X-62469074Y-27613445D02*
X-62469074Y-27680789D01*
X-62772120Y-27849147D02*
X-63209853Y-28286880D01*
X-63209853Y-28286880D02*
X-62704776Y-28320552D01*
X-62704776Y-28320552D02*
X-62805792Y-28421567D01*
X-62805792Y-28421567D02*
X-62839463Y-28522582D01*
X-62839463Y-28522582D02*
X-62839463Y-28589926D01*
X-62839463Y-28589926D02*
X-62805792Y-28690941D01*
X-62805792Y-28690941D02*
X-62637433Y-28859300D01*
X-62637433Y-28859300D02*
X-62536418Y-28892972D01*
X-62536418Y-28892972D02*
X-62469074Y-28892972D01*
X-62469074Y-28892972D02*
X-62368059Y-28859300D01*
X-62368059Y-28859300D02*
X-62166028Y-28657269D01*
X-62166028Y-28657269D02*
X-62132357Y-28556254D01*
X-62132357Y-28556254D02*
X-62132357Y-28488911D01*
X-63647585Y-28724613D02*
X-63714929Y-28791956D01*
X-63714929Y-28791956D02*
X-63748601Y-28892972D01*
X-63748601Y-28892972D02*
X-63748601Y-28960315D01*
X-63748601Y-28960315D02*
X-63714929Y-29061330D01*
X-63714929Y-29061330D02*
X-63613914Y-29229689D01*
X-63613914Y-29229689D02*
X-63445555Y-29398048D01*
X-63445555Y-29398048D02*
X-63277196Y-29499063D01*
X-63277196Y-29499063D02*
X-63176181Y-29532735D01*
X-63176181Y-29532735D02*
X-63108837Y-29532735D01*
X-63108837Y-29532735D02*
X-63007822Y-29499063D01*
X-63007822Y-29499063D02*
X-62940479Y-29431720D01*
X-62940479Y-29431720D02*
X-62906807Y-29330704D01*
X-62906807Y-29330704D02*
X-62906807Y-29263361D01*
X-62906807Y-29263361D02*
X-62940479Y-29162346D01*
X-62940479Y-29162346D02*
X-63041494Y-28993987D01*
X-63041494Y-28993987D02*
X-63209853Y-28825628D01*
X-63209853Y-28825628D02*
X-63378211Y-28724613D01*
X-63378211Y-28724613D02*
X-63479227Y-28690941D01*
X-63479227Y-28690941D02*
X-63546570Y-28690941D01*
X-63546570Y-28690941D02*
X-63647585Y-28724613D01*
%TO.C,C33*%
X-48175817Y-32195045D02*
X-48108474Y-32195045D01*
X-48108474Y-32195045D02*
X-47973787Y-32127702D01*
X-47973787Y-32127702D02*
X-47906443Y-32060358D01*
X-47906443Y-32060358D02*
X-47839100Y-31925671D01*
X-47839100Y-31925671D02*
X-47839100Y-31790984D01*
X-47839100Y-31790984D02*
X-47872771Y-31689969D01*
X-47872771Y-31689969D02*
X-47973787Y-31521610D01*
X-47973787Y-31521610D02*
X-48074802Y-31420595D01*
X-48074802Y-31420595D02*
X-48243161Y-31319580D01*
X-48243161Y-31319580D02*
X-48344176Y-31285908D01*
X-48344176Y-31285908D02*
X-48478863Y-31285908D01*
X-48478863Y-31285908D02*
X-48613550Y-31353252D01*
X-48613550Y-31353252D02*
X-48680894Y-31420595D01*
X-48680894Y-31420595D02*
X-48748237Y-31555282D01*
X-48748237Y-31555282D02*
X-48748237Y-31622626D01*
X-49051283Y-31790984D02*
X-49489016Y-32228717D01*
X-49489016Y-32228717D02*
X-48983939Y-32262389D01*
X-48983939Y-32262389D02*
X-49084955Y-32363404D01*
X-49084955Y-32363404D02*
X-49118626Y-32464419D01*
X-49118626Y-32464419D02*
X-49118626Y-32531763D01*
X-49118626Y-32531763D02*
X-49084955Y-32632778D01*
X-49084955Y-32632778D02*
X-48916596Y-32801137D01*
X-48916596Y-32801137D02*
X-48815581Y-32834809D01*
X-48815581Y-32834809D02*
X-48748237Y-32834809D01*
X-48748237Y-32834809D02*
X-48647222Y-32801137D01*
X-48647222Y-32801137D02*
X-48445191Y-32599106D01*
X-48445191Y-32599106D02*
X-48411520Y-32498091D01*
X-48411520Y-32498091D02*
X-48411520Y-32430748D01*
X-49724718Y-32464419D02*
X-50162451Y-32902152D01*
X-50162451Y-32902152D02*
X-49657374Y-32935824D01*
X-49657374Y-32935824D02*
X-49758390Y-33036839D01*
X-49758390Y-33036839D02*
X-49792061Y-33137854D01*
X-49792061Y-33137854D02*
X-49792061Y-33205198D01*
X-49792061Y-33205198D02*
X-49758390Y-33306213D01*
X-49758390Y-33306213D02*
X-49590031Y-33474572D01*
X-49590031Y-33474572D02*
X-49489016Y-33508244D01*
X-49489016Y-33508244D02*
X-49421672Y-33508244D01*
X-49421672Y-33508244D02*
X-49320657Y-33474572D01*
X-49320657Y-33474572D02*
X-49118626Y-33272541D01*
X-49118626Y-33272541D02*
X-49084955Y-33171526D01*
X-49084955Y-33171526D02*
X-49084955Y-33104183D01*
%TO.C,C6*%
X-66434620Y-19772333D02*
X-66387000Y-19724714D01*
X-66387000Y-19724714D02*
X-66339381Y-19581857D01*
X-66339381Y-19581857D02*
X-66339381Y-19486619D01*
X-66339381Y-19486619D02*
X-66387000Y-19343762D01*
X-66387000Y-19343762D02*
X-66482239Y-19248524D01*
X-66482239Y-19248524D02*
X-66577477Y-19200905D01*
X-66577477Y-19200905D02*
X-66767953Y-19153286D01*
X-66767953Y-19153286D02*
X-66910810Y-19153286D01*
X-66910810Y-19153286D02*
X-67101286Y-19200905D01*
X-67101286Y-19200905D02*
X-67196524Y-19248524D01*
X-67196524Y-19248524D02*
X-67291762Y-19343762D01*
X-67291762Y-19343762D02*
X-67339381Y-19486619D01*
X-67339381Y-19486619D02*
X-67339381Y-19581857D01*
X-67339381Y-19581857D02*
X-67291762Y-19724714D01*
X-67291762Y-19724714D02*
X-67244143Y-19772333D01*
X-67339381Y-20629476D02*
X-67339381Y-20439000D01*
X-67339381Y-20439000D02*
X-67291762Y-20343762D01*
X-67291762Y-20343762D02*
X-67244143Y-20296143D01*
X-67244143Y-20296143D02*
X-67101286Y-20200905D01*
X-67101286Y-20200905D02*
X-66910810Y-20153286D01*
X-66910810Y-20153286D02*
X-66529858Y-20153286D01*
X-66529858Y-20153286D02*
X-66434620Y-20200905D01*
X-66434620Y-20200905D02*
X-66387000Y-20248524D01*
X-66387000Y-20248524D02*
X-66339381Y-20343762D01*
X-66339381Y-20343762D02*
X-66339381Y-20534238D01*
X-66339381Y-20534238D02*
X-66387000Y-20629476D01*
X-66387000Y-20629476D02*
X-66434620Y-20677095D01*
X-66434620Y-20677095D02*
X-66529858Y-20724714D01*
X-66529858Y-20724714D02*
X-66767953Y-20724714D01*
X-66767953Y-20724714D02*
X-66863191Y-20677095D01*
X-66863191Y-20677095D02*
X-66910810Y-20629476D01*
X-66910810Y-20629476D02*
X-66958429Y-20534238D01*
X-66958429Y-20534238D02*
X-66958429Y-20343762D01*
X-66958429Y-20343762D02*
X-66910810Y-20248524D01*
X-66910810Y-20248524D02*
X-66863191Y-20200905D01*
X-66863191Y-20200905D02*
X-66767953Y-20153286D01*
%TO.C,C10*%
X-74668143Y-15861380D02*
X-74620524Y-15909000D01*
X-74620524Y-15909000D02*
X-74477667Y-15956619D01*
X-74477667Y-15956619D02*
X-74382429Y-15956619D01*
X-74382429Y-15956619D02*
X-74239572Y-15909000D01*
X-74239572Y-15909000D02*
X-74144334Y-15813761D01*
X-74144334Y-15813761D02*
X-74096715Y-15718523D01*
X-74096715Y-15718523D02*
X-74049096Y-15528047D01*
X-74049096Y-15528047D02*
X-74049096Y-15385190D01*
X-74049096Y-15385190D02*
X-74096715Y-15194714D01*
X-74096715Y-15194714D02*
X-74144334Y-15099476D01*
X-74144334Y-15099476D02*
X-74239572Y-15004238D01*
X-74239572Y-15004238D02*
X-74382429Y-14956619D01*
X-74382429Y-14956619D02*
X-74477667Y-14956619D01*
X-74477667Y-14956619D02*
X-74620524Y-15004238D01*
X-74620524Y-15004238D02*
X-74668143Y-15051857D01*
X-75620524Y-15956619D02*
X-75049096Y-15956619D01*
X-75334810Y-15956619D02*
X-75334810Y-14956619D01*
X-75334810Y-14956619D02*
X-75239572Y-15099476D01*
X-75239572Y-15099476D02*
X-75144334Y-15194714D01*
X-75144334Y-15194714D02*
X-75049096Y-15242333D01*
X-76239572Y-14956619D02*
X-76334810Y-14956619D01*
X-76334810Y-14956619D02*
X-76430048Y-15004238D01*
X-76430048Y-15004238D02*
X-76477667Y-15051857D01*
X-76477667Y-15051857D02*
X-76525286Y-15147095D01*
X-76525286Y-15147095D02*
X-76572905Y-15337571D01*
X-76572905Y-15337571D02*
X-76572905Y-15575666D01*
X-76572905Y-15575666D02*
X-76525286Y-15766142D01*
X-76525286Y-15766142D02*
X-76477667Y-15861380D01*
X-76477667Y-15861380D02*
X-76430048Y-15909000D01*
X-76430048Y-15909000D02*
X-76334810Y-15956619D01*
X-76334810Y-15956619D02*
X-76239572Y-15956619D01*
X-76239572Y-15956619D02*
X-76144334Y-15909000D01*
X-76144334Y-15909000D02*
X-76096715Y-15861380D01*
X-76096715Y-15861380D02*
X-76049096Y-15766142D01*
X-76049096Y-15766142D02*
X-76001477Y-15575666D01*
X-76001477Y-15575666D02*
X-76001477Y-15337571D01*
X-76001477Y-15337571D02*
X-76049096Y-15147095D01*
X-76049096Y-15147095D02*
X-76096715Y-15051857D01*
X-76096715Y-15051857D02*
X-76144334Y-15004238D01*
X-76144334Y-15004238D02*
X-76239572Y-14956619D01*
%TO.C,C36*%
X-62912654Y-27237207D02*
X-62845311Y-27237207D01*
X-62845311Y-27237207D02*
X-62710624Y-27169864D01*
X-62710624Y-27169864D02*
X-62643280Y-27102520D01*
X-62643280Y-27102520D02*
X-62575937Y-26967833D01*
X-62575937Y-26967833D02*
X-62575937Y-26833146D01*
X-62575937Y-26833146D02*
X-62609608Y-26732131D01*
X-62609608Y-26732131D02*
X-62710624Y-26563772D01*
X-62710624Y-26563772D02*
X-62811639Y-26462757D01*
X-62811639Y-26462757D02*
X-62979998Y-26361742D01*
X-62979998Y-26361742D02*
X-63081013Y-26328070D01*
X-63081013Y-26328070D02*
X-63215700Y-26328070D01*
X-63215700Y-26328070D02*
X-63350387Y-26395414D01*
X-63350387Y-26395414D02*
X-63417731Y-26462757D01*
X-63417731Y-26462757D02*
X-63485074Y-26597444D01*
X-63485074Y-26597444D02*
X-63485074Y-26664788D01*
X-63788120Y-26833146D02*
X-64225853Y-27270879D01*
X-64225853Y-27270879D02*
X-63720776Y-27304551D01*
X-63720776Y-27304551D02*
X-63821792Y-27405566D01*
X-63821792Y-27405566D02*
X-63855463Y-27506581D01*
X-63855463Y-27506581D02*
X-63855463Y-27573925D01*
X-63855463Y-27573925D02*
X-63821792Y-27674940D01*
X-63821792Y-27674940D02*
X-63653433Y-27843299D01*
X-63653433Y-27843299D02*
X-63552418Y-27876971D01*
X-63552418Y-27876971D02*
X-63485074Y-27876971D01*
X-63485074Y-27876971D02*
X-63384059Y-27843299D01*
X-63384059Y-27843299D02*
X-63182028Y-27641268D01*
X-63182028Y-27641268D02*
X-63148357Y-27540253D01*
X-63148357Y-27540253D02*
X-63148357Y-27472910D01*
X-64831944Y-27876971D02*
X-64697257Y-27742284D01*
X-64697257Y-27742284D02*
X-64596242Y-27708612D01*
X-64596242Y-27708612D02*
X-64528898Y-27708612D01*
X-64528898Y-27708612D02*
X-64360540Y-27742284D01*
X-64360540Y-27742284D02*
X-64192181Y-27843299D01*
X-64192181Y-27843299D02*
X-63922807Y-28112673D01*
X-63922807Y-28112673D02*
X-63889135Y-28213688D01*
X-63889135Y-28213688D02*
X-63889135Y-28281032D01*
X-63889135Y-28281032D02*
X-63922807Y-28382047D01*
X-63922807Y-28382047D02*
X-64057494Y-28516734D01*
X-64057494Y-28516734D02*
X-64158509Y-28550406D01*
X-64158509Y-28550406D02*
X-64225853Y-28550406D01*
X-64225853Y-28550406D02*
X-64326868Y-28516734D01*
X-64326868Y-28516734D02*
X-64495227Y-28348375D01*
X-64495227Y-28348375D02*
X-64528898Y-28247360D01*
X-64528898Y-28247360D02*
X-64528898Y-28180016D01*
X-64528898Y-28180016D02*
X-64495227Y-28079001D01*
X-64495227Y-28079001D02*
X-64360540Y-27944314D01*
X-64360540Y-27944314D02*
X-64259524Y-27910642D01*
X-64259524Y-27910642D02*
X-64192181Y-27910642D01*
X-64192181Y-27910642D02*
X-64091166Y-27944314D01*
%TO.C,C9*%
X-69990620Y-19772333D02*
X-69943000Y-19724714D01*
X-69943000Y-19724714D02*
X-69895381Y-19581857D01*
X-69895381Y-19581857D02*
X-69895381Y-19486619D01*
X-69895381Y-19486619D02*
X-69943000Y-19343762D01*
X-69943000Y-19343762D02*
X-70038239Y-19248524D01*
X-70038239Y-19248524D02*
X-70133477Y-19200905D01*
X-70133477Y-19200905D02*
X-70323953Y-19153286D01*
X-70323953Y-19153286D02*
X-70466810Y-19153286D01*
X-70466810Y-19153286D02*
X-70657286Y-19200905D01*
X-70657286Y-19200905D02*
X-70752524Y-19248524D01*
X-70752524Y-19248524D02*
X-70847762Y-19343762D01*
X-70847762Y-19343762D02*
X-70895381Y-19486619D01*
X-70895381Y-19486619D02*
X-70895381Y-19581857D01*
X-70895381Y-19581857D02*
X-70847762Y-19724714D01*
X-70847762Y-19724714D02*
X-70800143Y-19772333D01*
X-69895381Y-20248524D02*
X-69895381Y-20439000D01*
X-69895381Y-20439000D02*
X-69943000Y-20534238D01*
X-69943000Y-20534238D02*
X-69990620Y-20581857D01*
X-69990620Y-20581857D02*
X-70133477Y-20677095D01*
X-70133477Y-20677095D02*
X-70323953Y-20724714D01*
X-70323953Y-20724714D02*
X-70704905Y-20724714D01*
X-70704905Y-20724714D02*
X-70800143Y-20677095D01*
X-70800143Y-20677095D02*
X-70847762Y-20629476D01*
X-70847762Y-20629476D02*
X-70895381Y-20534238D01*
X-70895381Y-20534238D02*
X-70895381Y-20343762D01*
X-70895381Y-20343762D02*
X-70847762Y-20248524D01*
X-70847762Y-20248524D02*
X-70800143Y-20200905D01*
X-70800143Y-20200905D02*
X-70704905Y-20153286D01*
X-70704905Y-20153286D02*
X-70466810Y-20153286D01*
X-70466810Y-20153286D02*
X-70371572Y-20200905D01*
X-70371572Y-20200905D02*
X-70323953Y-20248524D01*
X-70323953Y-20248524D02*
X-70276334Y-20343762D01*
X-70276334Y-20343762D02*
X-70276334Y-20534238D01*
X-70276334Y-20534238D02*
X-70323953Y-20629476D01*
X-70323953Y-20629476D02*
X-70371572Y-20677095D01*
X-70371572Y-20677095D02*
X-70466810Y-20724714D01*
%TO.C,C49*%
X-94418579Y-27858585D02*
X-94353531Y-27876015D01*
X-94353531Y-27876015D02*
X-94206003Y-27845826D01*
X-94206003Y-27845826D02*
X-94123524Y-27798207D01*
X-94123524Y-27798207D02*
X-94023616Y-27685539D01*
X-94023616Y-27685539D02*
X-93988757Y-27555441D01*
X-93988757Y-27555441D02*
X-93995136Y-27449153D01*
X-93995136Y-27449153D02*
X-94049135Y-27260386D01*
X-94049135Y-27260386D02*
X-94120564Y-27136668D01*
X-94120564Y-27136668D02*
X-94257041Y-26995521D01*
X-94257041Y-26995521D02*
X-94345899Y-26936852D01*
X-94345899Y-26936852D02*
X-94475997Y-26901992D01*
X-94475997Y-26901992D02*
X-94623524Y-26932181D01*
X-94623524Y-26932181D02*
X-94706003Y-26979800D01*
X-94706003Y-26979800D02*
X-94805911Y-27092468D01*
X-94805911Y-27092468D02*
X-94823341Y-27157517D01*
X-95446601Y-27792285D02*
X-95113268Y-28369635D01*
X-95430881Y-27343323D02*
X-94867541Y-27842865D01*
X-94867541Y-27842865D02*
X-95403652Y-28152389D01*
X-95608140Y-28655349D02*
X-95773097Y-28750588D01*
X-95773097Y-28750588D02*
X-95879385Y-28756967D01*
X-95879385Y-28756967D02*
X-95944434Y-28739538D01*
X-95944434Y-28739538D02*
X-96098341Y-28663439D01*
X-96098341Y-28663439D02*
X-96234818Y-28522291D01*
X-96234818Y-28522291D02*
X-96425294Y-28192377D01*
X-96425294Y-28192377D02*
X-96431674Y-28086088D01*
X-96431674Y-28086088D02*
X-96414244Y-28021040D01*
X-96414244Y-28021040D02*
X-96355575Y-27932181D01*
X-96355575Y-27932181D02*
X-96190618Y-27836943D01*
X-96190618Y-27836943D02*
X-96084330Y-27830563D01*
X-96084330Y-27830563D02*
X-96019281Y-27847993D01*
X-96019281Y-27847993D02*
X-95930423Y-27906662D01*
X-95930423Y-27906662D02*
X-95811375Y-28112859D01*
X-95811375Y-28112859D02*
X-95804995Y-28219147D01*
X-95804995Y-28219147D02*
X-95822425Y-28284196D01*
X-95822425Y-28284196D02*
X-95881094Y-28373054D01*
X-95881094Y-28373054D02*
X-96046052Y-28468292D01*
X-96046052Y-28468292D02*
X-96152340Y-28474672D01*
X-96152340Y-28474672D02*
X-96217388Y-28457242D01*
X-96217388Y-28457242D02*
X-96306247Y-28398573D01*
%TO.C,C37*%
X-40941655Y-27237208D02*
X-40874312Y-27237208D01*
X-40874312Y-27237208D02*
X-40739625Y-27169865D01*
X-40739625Y-27169865D02*
X-40672281Y-27102521D01*
X-40672281Y-27102521D02*
X-40604938Y-26967834D01*
X-40604938Y-26967834D02*
X-40604938Y-26833147D01*
X-40604938Y-26833147D02*
X-40638609Y-26732132D01*
X-40638609Y-26732132D02*
X-40739625Y-26563773D01*
X-40739625Y-26563773D02*
X-40840640Y-26462758D01*
X-40840640Y-26462758D02*
X-41008999Y-26361743D01*
X-41008999Y-26361743D02*
X-41110014Y-26328071D01*
X-41110014Y-26328071D02*
X-41244701Y-26328071D01*
X-41244701Y-26328071D02*
X-41379388Y-26395415D01*
X-41379388Y-26395415D02*
X-41446732Y-26462758D01*
X-41446732Y-26462758D02*
X-41514075Y-26597445D01*
X-41514075Y-26597445D02*
X-41514075Y-26664789D01*
X-41817121Y-26833147D02*
X-42254854Y-27270880D01*
X-42254854Y-27270880D02*
X-41749777Y-27304552D01*
X-41749777Y-27304552D02*
X-41850793Y-27405567D01*
X-41850793Y-27405567D02*
X-41884464Y-27506582D01*
X-41884464Y-27506582D02*
X-41884464Y-27573926D01*
X-41884464Y-27573926D02*
X-41850793Y-27674941D01*
X-41850793Y-27674941D02*
X-41682434Y-27843300D01*
X-41682434Y-27843300D02*
X-41581419Y-27876972D01*
X-41581419Y-27876972D02*
X-41514075Y-27876972D01*
X-41514075Y-27876972D02*
X-41413060Y-27843300D01*
X-41413060Y-27843300D02*
X-41211029Y-27641269D01*
X-41211029Y-27641269D02*
X-41177358Y-27540254D01*
X-41177358Y-27540254D02*
X-41177358Y-27472911D01*
X-42490556Y-27506582D02*
X-42961960Y-27977987D01*
X-42961960Y-27977987D02*
X-41951808Y-28382048D01*
%TO.C,C28*%
X-63928654Y-26348209D02*
X-63861311Y-26348209D01*
X-63861311Y-26348209D02*
X-63726624Y-26280866D01*
X-63726624Y-26280866D02*
X-63659280Y-26213522D01*
X-63659280Y-26213522D02*
X-63591937Y-26078835D01*
X-63591937Y-26078835D02*
X-63591937Y-25944148D01*
X-63591937Y-25944148D02*
X-63625608Y-25843133D01*
X-63625608Y-25843133D02*
X-63726624Y-25674774D01*
X-63726624Y-25674774D02*
X-63827639Y-25573759D01*
X-63827639Y-25573759D02*
X-63995998Y-25472744D01*
X-63995998Y-25472744D02*
X-64097013Y-25439072D01*
X-64097013Y-25439072D02*
X-64231700Y-25439072D01*
X-64231700Y-25439072D02*
X-64366387Y-25506416D01*
X-64366387Y-25506416D02*
X-64433731Y-25573759D01*
X-64433731Y-25573759D02*
X-64501074Y-25708446D01*
X-64501074Y-25708446D02*
X-64501074Y-25775790D01*
X-64770448Y-26045164D02*
X-64837792Y-26045164D01*
X-64837792Y-26045164D02*
X-64938807Y-26078835D01*
X-64938807Y-26078835D02*
X-65107166Y-26247194D01*
X-65107166Y-26247194D02*
X-65140837Y-26348209D01*
X-65140837Y-26348209D02*
X-65140837Y-26415553D01*
X-65140837Y-26415553D02*
X-65107166Y-26516568D01*
X-65107166Y-26516568D02*
X-65039822Y-26583912D01*
X-65039822Y-26583912D02*
X-64905135Y-26651255D01*
X-64905135Y-26651255D02*
X-64097013Y-26651255D01*
X-64097013Y-26651255D02*
X-64534746Y-27088988D01*
X-65342868Y-27088988D02*
X-65309196Y-26987973D01*
X-65309196Y-26987973D02*
X-65309196Y-26920629D01*
X-65309196Y-26920629D02*
X-65342868Y-26819614D01*
X-65342868Y-26819614D02*
X-65376540Y-26785942D01*
X-65376540Y-26785942D02*
X-65477555Y-26752270D01*
X-65477555Y-26752270D02*
X-65544898Y-26752270D01*
X-65544898Y-26752270D02*
X-65645914Y-26785942D01*
X-65645914Y-26785942D02*
X-65780601Y-26920629D01*
X-65780601Y-26920629D02*
X-65814272Y-27021644D01*
X-65814272Y-27021644D02*
X-65814272Y-27088988D01*
X-65814272Y-27088988D02*
X-65780601Y-27190003D01*
X-65780601Y-27190003D02*
X-65746929Y-27223675D01*
X-65746929Y-27223675D02*
X-65645914Y-27257347D01*
X-65645914Y-27257347D02*
X-65578570Y-27257347D01*
X-65578570Y-27257347D02*
X-65477555Y-27223675D01*
X-65477555Y-27223675D02*
X-65342868Y-27088988D01*
X-65342868Y-27088988D02*
X-65241853Y-27055316D01*
X-65241853Y-27055316D02*
X-65174509Y-27055316D01*
X-65174509Y-27055316D02*
X-65073494Y-27088988D01*
X-65073494Y-27088988D02*
X-64938807Y-27223675D01*
X-64938807Y-27223675D02*
X-64905135Y-27324690D01*
X-64905135Y-27324690D02*
X-64905135Y-27392034D01*
X-64905135Y-27392034D02*
X-64938807Y-27493049D01*
X-64938807Y-27493049D02*
X-65073494Y-27627736D01*
X-65073494Y-27627736D02*
X-65174509Y-27661408D01*
X-65174509Y-27661408D02*
X-65241853Y-27661408D01*
X-65241853Y-27661408D02*
X-65342868Y-27627736D01*
X-65342868Y-27627736D02*
X-65477555Y-27493049D01*
X-65477555Y-27493049D02*
X-65511227Y-27392034D01*
X-65511227Y-27392034D02*
X-65511227Y-27324690D01*
X-65511227Y-27324690D02*
X-65477555Y-27223675D01*
%TO.C,C4*%
X-74763334Y-11797380D02*
X-74715715Y-11845000D01*
X-74715715Y-11845000D02*
X-74572858Y-11892619D01*
X-74572858Y-11892619D02*
X-74477620Y-11892619D01*
X-74477620Y-11892619D02*
X-74334763Y-11845000D01*
X-74334763Y-11845000D02*
X-74239525Y-11749761D01*
X-74239525Y-11749761D02*
X-74191906Y-11654523D01*
X-74191906Y-11654523D02*
X-74144287Y-11464047D01*
X-74144287Y-11464047D02*
X-74144287Y-11321190D01*
X-74144287Y-11321190D02*
X-74191906Y-11130714D01*
X-74191906Y-11130714D02*
X-74239525Y-11035476D01*
X-74239525Y-11035476D02*
X-74334763Y-10940238D01*
X-74334763Y-10940238D02*
X-74477620Y-10892619D01*
X-74477620Y-10892619D02*
X-74572858Y-10892619D01*
X-74572858Y-10892619D02*
X-74715715Y-10940238D01*
X-74715715Y-10940238D02*
X-74763334Y-10987857D01*
X-75620477Y-11225952D02*
X-75620477Y-11892619D01*
X-75382382Y-10845000D02*
X-75144287Y-11559285D01*
X-75144287Y-11559285D02*
X-75763334Y-11559285D01*
%TO.C,C8*%
X-74763334Y-13575380D02*
X-74715715Y-13623000D01*
X-74715715Y-13623000D02*
X-74572858Y-13670619D01*
X-74572858Y-13670619D02*
X-74477620Y-13670619D01*
X-74477620Y-13670619D02*
X-74334763Y-13623000D01*
X-74334763Y-13623000D02*
X-74239525Y-13527761D01*
X-74239525Y-13527761D02*
X-74191906Y-13432523D01*
X-74191906Y-13432523D02*
X-74144287Y-13242047D01*
X-74144287Y-13242047D02*
X-74144287Y-13099190D01*
X-74144287Y-13099190D02*
X-74191906Y-12908714D01*
X-74191906Y-12908714D02*
X-74239525Y-12813476D01*
X-74239525Y-12813476D02*
X-74334763Y-12718238D01*
X-74334763Y-12718238D02*
X-74477620Y-12670619D01*
X-74477620Y-12670619D02*
X-74572858Y-12670619D01*
X-74572858Y-12670619D02*
X-74715715Y-12718238D01*
X-74715715Y-12718238D02*
X-74763334Y-12765857D01*
X-75334763Y-13099190D02*
X-75239525Y-13051571D01*
X-75239525Y-13051571D02*
X-75191906Y-13003952D01*
X-75191906Y-13003952D02*
X-75144287Y-12908714D01*
X-75144287Y-12908714D02*
X-75144287Y-12861095D01*
X-75144287Y-12861095D02*
X-75191906Y-12765857D01*
X-75191906Y-12765857D02*
X-75239525Y-12718238D01*
X-75239525Y-12718238D02*
X-75334763Y-12670619D01*
X-75334763Y-12670619D02*
X-75525239Y-12670619D01*
X-75525239Y-12670619D02*
X-75620477Y-12718238D01*
X-75620477Y-12718238D02*
X-75668096Y-12765857D01*
X-75668096Y-12765857D02*
X-75715715Y-12861095D01*
X-75715715Y-12861095D02*
X-75715715Y-12908714D01*
X-75715715Y-12908714D02*
X-75668096Y-13003952D01*
X-75668096Y-13003952D02*
X-75620477Y-13051571D01*
X-75620477Y-13051571D02*
X-75525239Y-13099190D01*
X-75525239Y-13099190D02*
X-75334763Y-13099190D01*
X-75334763Y-13099190D02*
X-75239525Y-13146809D01*
X-75239525Y-13146809D02*
X-75191906Y-13194428D01*
X-75191906Y-13194428D02*
X-75144287Y-13289666D01*
X-75144287Y-13289666D02*
X-75144287Y-13480142D01*
X-75144287Y-13480142D02*
X-75191906Y-13575380D01*
X-75191906Y-13575380D02*
X-75239525Y-13623000D01*
X-75239525Y-13623000D02*
X-75334763Y-13670619D01*
X-75334763Y-13670619D02*
X-75525239Y-13670619D01*
X-75525239Y-13670619D02*
X-75620477Y-13623000D01*
X-75620477Y-13623000D02*
X-75668096Y-13575380D01*
X-75668096Y-13575380D02*
X-75715715Y-13480142D01*
X-75715715Y-13480142D02*
X-75715715Y-13289666D01*
X-75715715Y-13289666D02*
X-75668096Y-13194428D01*
X-75668096Y-13194428D02*
X-75620477Y-13146809D01*
X-75620477Y-13146809D02*
X-75525239Y-13099190D01*
%TO.C,C29*%
X-41957653Y-26094208D02*
X-41890310Y-26094208D01*
X-41890310Y-26094208D02*
X-41755623Y-26026865D01*
X-41755623Y-26026865D02*
X-41688279Y-25959521D01*
X-41688279Y-25959521D02*
X-41620936Y-25824834D01*
X-41620936Y-25824834D02*
X-41620936Y-25690147D01*
X-41620936Y-25690147D02*
X-41654607Y-25589132D01*
X-41654607Y-25589132D02*
X-41755623Y-25420773D01*
X-41755623Y-25420773D02*
X-41856638Y-25319758D01*
X-41856638Y-25319758D02*
X-42024997Y-25218743D01*
X-42024997Y-25218743D02*
X-42126012Y-25185071D01*
X-42126012Y-25185071D02*
X-42260699Y-25185071D01*
X-42260699Y-25185071D02*
X-42395386Y-25252415D01*
X-42395386Y-25252415D02*
X-42462730Y-25319758D01*
X-42462730Y-25319758D02*
X-42530073Y-25454445D01*
X-42530073Y-25454445D02*
X-42530073Y-25521789D01*
X-42799447Y-25791163D02*
X-42866791Y-25791163D01*
X-42866791Y-25791163D02*
X-42967806Y-25824834D01*
X-42967806Y-25824834D02*
X-43136165Y-25993193D01*
X-43136165Y-25993193D02*
X-43169836Y-26094208D01*
X-43169836Y-26094208D02*
X-43169836Y-26161552D01*
X-43169836Y-26161552D02*
X-43136165Y-26262567D01*
X-43136165Y-26262567D02*
X-43068821Y-26329911D01*
X-43068821Y-26329911D02*
X-42934134Y-26397254D01*
X-42934134Y-26397254D02*
X-42126012Y-26397254D01*
X-42126012Y-26397254D02*
X-42563745Y-26834987D01*
X-42900462Y-27171704D02*
X-43035149Y-27306391D01*
X-43035149Y-27306391D02*
X-43136165Y-27340063D01*
X-43136165Y-27340063D02*
X-43203508Y-27340063D01*
X-43203508Y-27340063D02*
X-43371867Y-27306391D01*
X-43371867Y-27306391D02*
X-43540226Y-27205376D01*
X-43540226Y-27205376D02*
X-43809600Y-26936002D01*
X-43809600Y-26936002D02*
X-43843271Y-26834987D01*
X-43843271Y-26834987D02*
X-43843271Y-26767643D01*
X-43843271Y-26767643D02*
X-43809600Y-26666628D01*
X-43809600Y-26666628D02*
X-43674913Y-26531941D01*
X-43674913Y-26531941D02*
X-43573897Y-26498269D01*
X-43573897Y-26498269D02*
X-43506554Y-26498269D01*
X-43506554Y-26498269D02*
X-43405539Y-26531941D01*
X-43405539Y-26531941D02*
X-43237180Y-26700300D01*
X-43237180Y-26700300D02*
X-43203508Y-26801315D01*
X-43203508Y-26801315D02*
X-43203508Y-26868659D01*
X-43203508Y-26868659D02*
X-43237180Y-26969674D01*
X-43237180Y-26969674D02*
X-43371867Y-27104361D01*
X-43371867Y-27104361D02*
X-43472882Y-27138033D01*
X-43472882Y-27138033D02*
X-43540226Y-27138033D01*
X-43540226Y-27138033D02*
X-43641241Y-27104361D01*
%TO.C,R26*%
X-47289381Y-1897142D02*
X-47765572Y-1563809D01*
X-47289381Y-1325714D02*
X-48289381Y-1325714D01*
X-48289381Y-1325714D02*
X-48289381Y-1706666D01*
X-48289381Y-1706666D02*
X-48241762Y-1801904D01*
X-48241762Y-1801904D02*
X-48194143Y-1849523D01*
X-48194143Y-1849523D02*
X-48098905Y-1897142D01*
X-48098905Y-1897142D02*
X-47956048Y-1897142D01*
X-47956048Y-1897142D02*
X-47860810Y-1849523D01*
X-47860810Y-1849523D02*
X-47813191Y-1801904D01*
X-47813191Y-1801904D02*
X-47765572Y-1706666D01*
X-47765572Y-1706666D02*
X-47765572Y-1325714D01*
X-48194143Y-2278095D02*
X-48241762Y-2325714D01*
X-48241762Y-2325714D02*
X-48289381Y-2420952D01*
X-48289381Y-2420952D02*
X-48289381Y-2659047D01*
X-48289381Y-2659047D02*
X-48241762Y-2754285D01*
X-48241762Y-2754285D02*
X-48194143Y-2801904D01*
X-48194143Y-2801904D02*
X-48098905Y-2849523D01*
X-48098905Y-2849523D02*
X-48003667Y-2849523D01*
X-48003667Y-2849523D02*
X-47860810Y-2801904D01*
X-47860810Y-2801904D02*
X-47289381Y-2230476D01*
X-47289381Y-2230476D02*
X-47289381Y-2849523D01*
X-48289381Y-3706666D02*
X-48289381Y-3516190D01*
X-48289381Y-3516190D02*
X-48241762Y-3420952D01*
X-48241762Y-3420952D02*
X-48194143Y-3373333D01*
X-48194143Y-3373333D02*
X-48051286Y-3278095D01*
X-48051286Y-3278095D02*
X-47860810Y-3230476D01*
X-47860810Y-3230476D02*
X-47479858Y-3230476D01*
X-47479858Y-3230476D02*
X-47384620Y-3278095D01*
X-47384620Y-3278095D02*
X-47337000Y-3325714D01*
X-47337000Y-3325714D02*
X-47289381Y-3420952D01*
X-47289381Y-3420952D02*
X-47289381Y-3611428D01*
X-47289381Y-3611428D02*
X-47337000Y-3706666D01*
X-47337000Y-3706666D02*
X-47384620Y-3754285D01*
X-47384620Y-3754285D02*
X-47479858Y-3801904D01*
X-47479858Y-3801904D02*
X-47717953Y-3801904D01*
X-47717953Y-3801904D02*
X-47813191Y-3754285D01*
X-47813191Y-3754285D02*
X-47860810Y-3706666D01*
X-47860810Y-3706666D02*
X-47908429Y-3611428D01*
X-47908429Y-3611428D02*
X-47908429Y-3420952D01*
X-47908429Y-3420952D02*
X-47860810Y-3325714D01*
X-47860810Y-3325714D02*
X-47813191Y-3278095D01*
X-47813191Y-3278095D02*
X-47717953Y-3230476D01*
%TO.C,C5*%
X-68085620Y-19772333D02*
X-68038000Y-19724714D01*
X-68038000Y-19724714D02*
X-67990381Y-19581857D01*
X-67990381Y-19581857D02*
X-67990381Y-19486619D01*
X-67990381Y-19486619D02*
X-68038000Y-19343762D01*
X-68038000Y-19343762D02*
X-68133239Y-19248524D01*
X-68133239Y-19248524D02*
X-68228477Y-19200905D01*
X-68228477Y-19200905D02*
X-68418953Y-19153286D01*
X-68418953Y-19153286D02*
X-68561810Y-19153286D01*
X-68561810Y-19153286D02*
X-68752286Y-19200905D01*
X-68752286Y-19200905D02*
X-68847524Y-19248524D01*
X-68847524Y-19248524D02*
X-68942762Y-19343762D01*
X-68942762Y-19343762D02*
X-68990381Y-19486619D01*
X-68990381Y-19486619D02*
X-68990381Y-19581857D01*
X-68990381Y-19581857D02*
X-68942762Y-19724714D01*
X-68942762Y-19724714D02*
X-68895143Y-19772333D01*
X-68990381Y-20677095D02*
X-68990381Y-20200905D01*
X-68990381Y-20200905D02*
X-68514191Y-20153286D01*
X-68514191Y-20153286D02*
X-68561810Y-20200905D01*
X-68561810Y-20200905D02*
X-68609429Y-20296143D01*
X-68609429Y-20296143D02*
X-68609429Y-20534238D01*
X-68609429Y-20534238D02*
X-68561810Y-20629476D01*
X-68561810Y-20629476D02*
X-68514191Y-20677095D01*
X-68514191Y-20677095D02*
X-68418953Y-20724714D01*
X-68418953Y-20724714D02*
X-68180858Y-20724714D01*
X-68180858Y-20724714D02*
X-68085620Y-20677095D01*
X-68085620Y-20677095D02*
X-68038000Y-20629476D01*
X-68038000Y-20629476D02*
X-67990381Y-20534238D01*
X-67990381Y-20534238D02*
X-67990381Y-20296143D01*
X-67990381Y-20296143D02*
X-68038000Y-20200905D01*
X-68038000Y-20200905D02*
X-68085620Y-20153286D01*
%TO.C,C11*%
X-67196620Y-9771142D02*
X-67149000Y-9723523D01*
X-67149000Y-9723523D02*
X-67101381Y-9580666D01*
X-67101381Y-9580666D02*
X-67101381Y-9485428D01*
X-67101381Y-9485428D02*
X-67149000Y-9342571D01*
X-67149000Y-9342571D02*
X-67244239Y-9247333D01*
X-67244239Y-9247333D02*
X-67339477Y-9199714D01*
X-67339477Y-9199714D02*
X-67529953Y-9152095D01*
X-67529953Y-9152095D02*
X-67672810Y-9152095D01*
X-67672810Y-9152095D02*
X-67863286Y-9199714D01*
X-67863286Y-9199714D02*
X-67958524Y-9247333D01*
X-67958524Y-9247333D02*
X-68053762Y-9342571D01*
X-68053762Y-9342571D02*
X-68101381Y-9485428D01*
X-68101381Y-9485428D02*
X-68101381Y-9580666D01*
X-68101381Y-9580666D02*
X-68053762Y-9723523D01*
X-68053762Y-9723523D02*
X-68006143Y-9771142D01*
X-67101381Y-10723523D02*
X-67101381Y-10152095D01*
X-67101381Y-10437809D02*
X-68101381Y-10437809D01*
X-68101381Y-10437809D02*
X-67958524Y-10342571D01*
X-67958524Y-10342571D02*
X-67863286Y-10247333D01*
X-67863286Y-10247333D02*
X-67815667Y-10152095D01*
X-67101381Y-11675904D02*
X-67101381Y-11104476D01*
X-67101381Y-11390190D02*
X-68101381Y-11390190D01*
X-68101381Y-11390190D02*
X-67958524Y-11294952D01*
X-67958524Y-11294952D02*
X-67863286Y-11199714D01*
X-67863286Y-11199714D02*
X-67815667Y-11104476D01*
%TO.C,C7*%
X-70404620Y-10247333D02*
X-70357000Y-10199714D01*
X-70357000Y-10199714D02*
X-70309381Y-10056857D01*
X-70309381Y-10056857D02*
X-70309381Y-9961619D01*
X-70309381Y-9961619D02*
X-70357000Y-9818762D01*
X-70357000Y-9818762D02*
X-70452239Y-9723524D01*
X-70452239Y-9723524D02*
X-70547477Y-9675905D01*
X-70547477Y-9675905D02*
X-70737953Y-9628286D01*
X-70737953Y-9628286D02*
X-70880810Y-9628286D01*
X-70880810Y-9628286D02*
X-71071286Y-9675905D01*
X-71071286Y-9675905D02*
X-71166524Y-9723524D01*
X-71166524Y-9723524D02*
X-71261762Y-9818762D01*
X-71261762Y-9818762D02*
X-71309381Y-9961619D01*
X-71309381Y-9961619D02*
X-71309381Y-10056857D01*
X-71309381Y-10056857D02*
X-71261762Y-10199714D01*
X-71261762Y-10199714D02*
X-71214143Y-10247333D01*
X-71309381Y-10580667D02*
X-71309381Y-11247333D01*
X-71309381Y-11247333D02*
X-70309381Y-10818762D01*
%TO.C,R25*%
X-45765381Y-1897142D02*
X-46241572Y-1563809D01*
X-45765381Y-1325714D02*
X-46765381Y-1325714D01*
X-46765381Y-1325714D02*
X-46765381Y-1706666D01*
X-46765381Y-1706666D02*
X-46717762Y-1801904D01*
X-46717762Y-1801904D02*
X-46670143Y-1849523D01*
X-46670143Y-1849523D02*
X-46574905Y-1897142D01*
X-46574905Y-1897142D02*
X-46432048Y-1897142D01*
X-46432048Y-1897142D02*
X-46336810Y-1849523D01*
X-46336810Y-1849523D02*
X-46289191Y-1801904D01*
X-46289191Y-1801904D02*
X-46241572Y-1706666D01*
X-46241572Y-1706666D02*
X-46241572Y-1325714D01*
X-46670143Y-2278095D02*
X-46717762Y-2325714D01*
X-46717762Y-2325714D02*
X-46765381Y-2420952D01*
X-46765381Y-2420952D02*
X-46765381Y-2659047D01*
X-46765381Y-2659047D02*
X-46717762Y-2754285D01*
X-46717762Y-2754285D02*
X-46670143Y-2801904D01*
X-46670143Y-2801904D02*
X-46574905Y-2849523D01*
X-46574905Y-2849523D02*
X-46479667Y-2849523D01*
X-46479667Y-2849523D02*
X-46336810Y-2801904D01*
X-46336810Y-2801904D02*
X-45765381Y-2230476D01*
X-45765381Y-2230476D02*
X-45765381Y-2849523D01*
X-46765381Y-3754285D02*
X-46765381Y-3278095D01*
X-46765381Y-3278095D02*
X-46289191Y-3230476D01*
X-46289191Y-3230476D02*
X-46336810Y-3278095D01*
X-46336810Y-3278095D02*
X-46384429Y-3373333D01*
X-46384429Y-3373333D02*
X-46384429Y-3611428D01*
X-46384429Y-3611428D02*
X-46336810Y-3706666D01*
X-46336810Y-3706666D02*
X-46289191Y-3754285D01*
X-46289191Y-3754285D02*
X-46193953Y-3801904D01*
X-46193953Y-3801904D02*
X-45955858Y-3801904D01*
X-45955858Y-3801904D02*
X-45860620Y-3754285D01*
X-45860620Y-3754285D02*
X-45813000Y-3706666D01*
X-45813000Y-3706666D02*
X-45765381Y-3611428D01*
X-45765381Y-3611428D02*
X-45765381Y-3373333D01*
X-45765381Y-3373333D02*
X-45813000Y-3278095D01*
X-45813000Y-3278095D02*
X-45860620Y-3230476D01*
%TO.C,C31*%
X-39925654Y-28380208D02*
X-39858311Y-28380208D01*
X-39858311Y-28380208D02*
X-39723624Y-28312865D01*
X-39723624Y-28312865D02*
X-39656280Y-28245521D01*
X-39656280Y-28245521D02*
X-39588937Y-28110834D01*
X-39588937Y-28110834D02*
X-39588937Y-27976147D01*
X-39588937Y-27976147D02*
X-39622608Y-27875132D01*
X-39622608Y-27875132D02*
X-39723624Y-27706773D01*
X-39723624Y-27706773D02*
X-39824639Y-27605758D01*
X-39824639Y-27605758D02*
X-39992998Y-27504743D01*
X-39992998Y-27504743D02*
X-40094013Y-27471071D01*
X-40094013Y-27471071D02*
X-40228700Y-27471071D01*
X-40228700Y-27471071D02*
X-40363387Y-27538415D01*
X-40363387Y-27538415D02*
X-40430731Y-27605758D01*
X-40430731Y-27605758D02*
X-40498074Y-27740445D01*
X-40498074Y-27740445D02*
X-40498074Y-27807789D01*
X-40801120Y-27976147D02*
X-41238853Y-28413880D01*
X-41238853Y-28413880D02*
X-40733776Y-28447552D01*
X-40733776Y-28447552D02*
X-40834792Y-28548567D01*
X-40834792Y-28548567D02*
X-40868463Y-28649582D01*
X-40868463Y-28649582D02*
X-40868463Y-28716926D01*
X-40868463Y-28716926D02*
X-40834792Y-28817941D01*
X-40834792Y-28817941D02*
X-40666433Y-28986300D01*
X-40666433Y-28986300D02*
X-40565418Y-29019972D01*
X-40565418Y-29019972D02*
X-40498074Y-29019972D01*
X-40498074Y-29019972D02*
X-40397059Y-28986300D01*
X-40397059Y-28986300D02*
X-40195028Y-28784269D01*
X-40195028Y-28784269D02*
X-40161357Y-28683254D01*
X-40161357Y-28683254D02*
X-40161357Y-28615911D01*
X-41205181Y-29794422D02*
X-40801120Y-29390361D01*
X-41003150Y-29592391D02*
X-41710257Y-28885285D01*
X-41710257Y-28885285D02*
X-41541898Y-28918956D01*
X-41541898Y-28918956D02*
X-41407211Y-28918956D01*
X-41407211Y-28918956D02*
X-41306196Y-28885285D01*
D11*
%TO.C,C53*%
X-75136030Y-22598781D02*
X-74937219Y-22399970D01*
X-74414781Y-23320030D02*
X-74215970Y-23121219D01*
%TO.C,C51*%
X-78753536Y-27689398D02*
X-79759398Y-26683536D01*
X-77466602Y-26402464D02*
X-78472464Y-25396602D01*
%TO.C,C52*%
X-73072970Y-24264219D02*
X-73271781Y-24463030D01*
X-73794219Y-23542970D02*
X-73993030Y-23741781D01*
%TO.C,R11*%
X-85810000Y-42887737D02*
X-85810000Y-41440263D01*
X-83100000Y-42887737D02*
X-83100000Y-41440263D01*
%TO.C,C32*%
X-69389970Y-33662219D02*
X-69588781Y-33861030D01*
X-70111219Y-32940970D02*
X-70310030Y-33139781D01*
%TO.C,C50*%
X-79124398Y-23762536D02*
X-78118536Y-24768398D01*
X-77837464Y-22475602D02*
X-76831602Y-23481464D01*
%TO.C,C30*%
X-65060379Y-30243047D02*
X-64861568Y-30044236D01*
X-64339130Y-30964296D02*
X-64140319Y-30765485D01*
%TO.C,C33*%
X-47418970Y-33662219D02*
X-47617781Y-33861030D01*
X-48140219Y-32940970D02*
X-48339030Y-33139781D01*
%TO.C,C6*%
X-67312000Y-17666580D02*
X-67312000Y-17385420D01*
X-66292000Y-17666580D02*
X-66292000Y-17385420D01*
%TO.C,C10*%
X-72530580Y-14984000D02*
X-72249420Y-14984000D01*
X-72530580Y-16004000D02*
X-72249420Y-16004000D01*
%TO.C,C36*%
X-66138010Y-29165417D02*
X-65939199Y-28966606D01*
X-65416761Y-29886666D02*
X-65217950Y-29687855D01*
%TO.C,C9*%
X-70868000Y-17666580D02*
X-70868000Y-17385420D01*
X-69848000Y-17666580D02*
X-69848000Y-17385420D01*
%TO.C,C49*%
X-93163038Y-29896457D02*
X-94394962Y-30607709D01*
X-94073038Y-28320291D02*
X-95304962Y-29031543D01*
%TO.C,C37*%
X-44072257Y-29183351D02*
X-43873446Y-28984540D01*
X-43351008Y-29904600D02*
X-43152197Y-29705789D01*
%TO.C,C28*%
X-67135030Y-28186781D02*
X-66936219Y-27987970D01*
X-66413781Y-28908030D02*
X-66214970Y-28709219D01*
%TO.C,J2*%
X-104588000Y-25496830D02*
X-109788000Y-25496830D01*
X-104588000Y-7656830D02*
X-104588000Y-25496830D01*
X-104588000Y-7656830D02*
X-107188000Y-7656830D01*
X-104588000Y-6386830D02*
X-104588000Y-5056830D01*
X-104588000Y-5056830D02*
X-105918000Y-5056830D01*
X-107188000Y-7656830D02*
X-107188000Y-5056830D01*
X-107188000Y-5056830D02*
X-109788000Y-5056830D01*
X-109788000Y-5056830D02*
X-109788000Y-25496830D01*
%TO.C,C4*%
X-72530580Y-10920000D02*
X-72249420Y-10920000D01*
X-72530580Y-11940000D02*
X-72249420Y-11940000D01*
%TO.C,C8*%
X-72530580Y-12698000D02*
X-72249420Y-12698000D01*
X-72530580Y-13718000D02*
X-72249420Y-13718000D01*
%TO.C,C29*%
X-45140695Y-28096528D02*
X-44941884Y-27897717D01*
X-44419446Y-28817777D02*
X-44220635Y-28618966D01*
%TO.C,R26*%
X-47229500Y-5096742D02*
X-47229500Y-5571258D01*
X-48274500Y-5096742D02*
X-48274500Y-5571258D01*
%TO.C,C5*%
X-69090000Y-17666580D02*
X-69090000Y-17385420D01*
X-68070000Y-17666580D02*
X-68070000Y-17385420D01*
%TO.C,C11*%
X-65784000Y-10273420D02*
X-65784000Y-10554580D01*
X-66804000Y-10273420D02*
X-66804000Y-10554580D01*
%TO.C,C7*%
X-68832000Y-10273420D02*
X-68832000Y-10554580D01*
X-69852000Y-10273420D02*
X-69852000Y-10554580D01*
%TO.C,R25*%
X-45705500Y-5096742D02*
X-45705500Y-5571258D01*
X-46750500Y-5096742D02*
X-46750500Y-5571258D01*
%TO.C,C31*%
X-42994626Y-30260982D02*
X-42795815Y-30062171D01*
X-42273377Y-30982231D02*
X-42074566Y-30783420D01*
%TD*%
M02*
