%TF.GenerationSoftware,KiCad,Pcbnew,7.0.1-0*%
%TF.CreationDate,2023-07-11T13:22:56-05:00*%
%TF.ProjectId,plenum,706c656e-756d-42e6-9b69-6361645f7063,2*%
%TF.SameCoordinates,PXbe27330PY316a640*%
%TF.FileFunction,Paste,Bot*%
%TF.FilePolarity,Positive*%
%FSLAX46Y46*%
G04 Gerber Fmt 4.6, Leading zero omitted, Abs format (unit mm)*
G04 Created by KiCad (PCBNEW 7.0.1-0) date 2023-07-11 13:22:56*
%MOMM*%
%LPD*%
G01*
G04 APERTURE LIST*
G04 Aperture macros list*
%AMRoundRect*
0 Rectangle with rounded corners*
0 $1 Rounding radius*
0 $2 $3 $4 $5 $6 $7 $8 $9 X,Y pos of 4 corners*
0 Add a 4 corners polygon primitive as box body*
4,1,4,$2,$3,$4,$5,$6,$7,$8,$9,$2,$3,0*
0 Add four circle primitives for the rounded corners*
1,1,$1+$1,$2,$3*
1,1,$1+$1,$4,$5*
1,1,$1+$1,$6,$7*
1,1,$1+$1,$8,$9*
0 Add four rect primitives between the rounded corners*
20,1,$1+$1,$2,$3,$4,$5,0*
20,1,$1+$1,$4,$5,$6,$7,0*
20,1,$1+$1,$6,$7,$8,$9,0*
20,1,$1+$1,$8,$9,$2,$3,0*%
G04 Aperture macros list end*
%ADD10RoundRect,0.225000X0.017678X-0.335876X0.335876X-0.017678X-0.017678X0.335876X-0.335876X0.017678X0*%
%ADD11RoundRect,0.250000X0.689429X0.229810X0.229810X0.689429X-0.689429X-0.229810X-0.229810X-0.689429X0*%
%ADD12RoundRect,0.225000X-0.017678X0.335876X-0.335876X0.017678X0.017678X-0.335876X0.335876X-0.017678X0*%
%ADD13RoundRect,0.250000X1.075000X-0.312500X1.075000X0.312500X-1.075000X0.312500X-1.075000X-0.312500X0*%
%ADD14RoundRect,0.250000X-0.689429X-0.229810X-0.229810X-0.689429X0.689429X0.229810X0.229810X0.689429X0*%
%ADD15RoundRect,0.225000X0.250000X-0.225000X0.250000X0.225000X-0.250000X0.225000X-0.250000X-0.225000X0*%
%ADD16RoundRect,0.225000X-0.225000X-0.250000X0.225000X-0.250000X0.225000X0.250000X-0.225000X0.250000X0*%
%ADD17RoundRect,0.250000X-0.043542X0.725417X-0.606458X0.400417X0.043542X-0.725417X0.606458X-0.400417X0*%
%ADD18RoundRect,0.200000X-0.275000X0.200000X-0.275000X-0.200000X0.275000X-0.200000X0.275000X0.200000X0*%
%ADD19RoundRect,0.225000X-0.250000X0.225000X-0.250000X-0.225000X0.250000X-0.225000X0.250000X0.225000X0*%
G04 APERTURE END LIST*
D10*
%TO.C,C53*%
X-75224008Y-23408008D03*
X-74127992Y-22311992D03*
%TD*%
D11*
%TO.C,C51*%
X-77570017Y-27585983D03*
X-79655983Y-25500017D03*
%TD*%
D12*
%TO.C,C52*%
X-74081008Y-24551008D03*
X-72984992Y-23454992D03*
%TD*%
D13*
%TO.C,R11*%
X-84455000Y-43626500D03*
X-84455000Y-40701500D03*
%TD*%
D12*
%TO.C,C32*%
X-69301992Y-32852992D03*
X-70398008Y-33949008D03*
%TD*%
D14*
%TO.C,C50*%
X-76935017Y-24664983D03*
X-79020983Y-22579017D03*
%TD*%
D10*
%TO.C,C30*%
X-65148357Y-31052274D03*
X-64052341Y-29956258D03*
%TD*%
D12*
%TO.C,C33*%
X-47330992Y-32852992D03*
X-48427008Y-33949008D03*
%TD*%
D15*
%TO.C,C6*%
X-66802000Y-18301000D03*
X-66802000Y-16751000D03*
%TD*%
D16*
%TO.C,C10*%
X-73165000Y-15494000D03*
X-71615000Y-15494000D03*
%TD*%
D10*
%TO.C,C36*%
X-66225988Y-29974644D03*
X-65129972Y-28878628D03*
%TD*%
D15*
%TO.C,C9*%
X-70358000Y-18301000D03*
X-70358000Y-16751000D03*
%TD*%
D17*
%TO.C,C49*%
X-92956613Y-28726500D03*
X-95511387Y-30201500D03*
%TD*%
D10*
%TO.C,C37*%
X-44160235Y-29992578D03*
X-43064219Y-28896562D03*
%TD*%
%TO.C,C28*%
X-67223008Y-28996008D03*
X-66126992Y-27899992D03*
%TD*%
D16*
%TO.C,C4*%
X-73165000Y-11430000D03*
X-71615000Y-11430000D03*
%TD*%
%TO.C,C8*%
X-73165000Y-13208000D03*
X-71615000Y-13208000D03*
%TD*%
D10*
%TO.C,C29*%
X-45228673Y-28905755D03*
X-44132657Y-27809739D03*
%TD*%
D18*
%TO.C,R26*%
X-47752000Y-4509000D03*
X-47752000Y-6159000D03*
%TD*%
D15*
%TO.C,C5*%
X-68580000Y-18301000D03*
X-68580000Y-16751000D03*
%TD*%
D19*
%TO.C,C11*%
X-66294000Y-9639000D03*
X-66294000Y-11189000D03*
%TD*%
%TO.C,C7*%
X-69342000Y-9639000D03*
X-69342000Y-11189000D03*
%TD*%
D18*
%TO.C,R25*%
X-46228000Y-4509000D03*
X-46228000Y-6159000D03*
%TD*%
D10*
%TO.C,C31*%
X-43082604Y-31070209D03*
X-41986588Y-29974193D03*
%TD*%
M02*
