%TF.GenerationSoftware,KiCad,Pcbnew,7.0.1-0*%
%TF.CreationDate,2023-07-11T13:22:56-05:00*%
%TF.ProjectId,plenum,706c656e-756d-42e6-9b69-6361645f7063,2*%
%TF.SameCoordinates,PXbe27330PY316a640*%
%TF.FileFunction,Soldermask,Top*%
%TF.FilePolarity,Negative*%
%FSLAX46Y46*%
G04 Gerber Fmt 4.6, Leading zero omitted, Abs format (unit mm)*
G04 Created by KiCad (PCBNEW 7.0.1-0) date 2023-07-11 13:22:56*
%MOMM*%
%LPD*%
G01*
G04 APERTURE LIST*
G04 Aperture macros list*
%AMRoundRect*
0 Rectangle with rounded corners*
0 $1 Rounding radius*
0 $2 $3 $4 $5 $6 $7 $8 $9 X,Y pos of 4 corners*
0 Add a 4 corners polygon primitive as box body*
4,1,4,$2,$3,$4,$5,$6,$7,$8,$9,$2,$3,0*
0 Add four circle primitives for the rounded corners*
1,1,$1+$1,$2,$3*
1,1,$1+$1,$4,$5*
1,1,$1+$1,$6,$7*
1,1,$1+$1,$8,$9*
0 Add four rect primitives between the rounded corners*
20,1,$1+$1,$2,$3,$4,$5,0*
20,1,$1+$1,$4,$5,$6,$7,0*
20,1,$1+$1,$6,$7,$8,$9,0*
20,1,$1+$1,$8,$9,$2,$3,0*%
%AMRotRect*
0 Rectangle, with rotation*
0 The origin of the aperture is its center*
0 $1 length*
0 $2 width*
0 $3 Rotation angle, in degrees counterclockwise*
0 Add horizontal line*
21,1,$1,$2,0,0,$3*%
%AMFreePoly0*
4,1,19,0.500000,-0.750000,0.000000,-0.750000,0.000000,-0.744911,-0.071157,-0.744911,-0.207708,-0.704816,-0.327430,-0.627875,-0.420627,-0.520320,-0.479746,-0.390866,-0.500000,-0.250000,-0.500000,0.250000,-0.479746,0.390866,-0.420627,0.520320,-0.327430,0.627875,-0.207708,0.704816,-0.071157,0.744911,0.000000,0.744911,0.000000,0.750000,0.500000,0.750000,0.500000,-0.750000,0.500000,-0.750000,
$1*%
%AMFreePoly1*
4,1,19,0.000000,0.744911,0.071157,0.744911,0.207708,0.704816,0.327430,0.627875,0.420627,0.520320,0.479746,0.390866,0.500000,0.250000,0.500000,-0.250000,0.479746,-0.390866,0.420627,-0.520320,0.327430,-0.627875,0.207708,-0.704816,0.071157,-0.744911,0.000000,-0.744911,0.000000,-0.750000,-0.500000,-0.750000,-0.500000,0.750000,0.000000,0.750000,0.000000,0.744911,0.000000,0.744911,
$1*%
%AMFreePoly2*
4,1,21,-0.625000,0.375000,-0.605970,0.470671,-0.551777,0.551777,-0.470671,0.605970,-0.375000,0.625000,0.375000,0.625000,0.470671,0.605970,0.551777,0.551777,0.605970,0.470671,0.625000,0.375000,0.625000,-0.375000,0.605970,-0.470671,0.551777,-0.551777,0.470671,-0.605970,0.375000,-0.625000,-0.375000,-0.625000,-0.470671,-0.605970,-0.551777,-0.551777,-0.605970,-0.470671,-0.625000,-0.375000,
-0.625000,0.375000,-0.625000,0.375000,$1*%
G04 Aperture macros list end*
%ADD10FreePoly0,0.000000*%
%ADD11FreePoly1,0.000000*%
%ADD12C,5.892800*%
%ADD13RoundRect,0.200000X0.035705X0.338157X-0.310705X0.138157X-0.035705X-0.338157X0.310705X-0.138157X0*%
%ADD14C,2.000000*%
%ADD15RoundRect,0.200000X-0.200000X-0.275000X0.200000X-0.275000X0.200000X0.275000X-0.200000X0.275000X0*%
%ADD16RoundRect,0.225000X-0.250000X0.225000X-0.250000X-0.225000X0.250000X-0.225000X0.250000X0.225000X0*%
%ADD17RoundRect,0.150000X0.150000X-0.512500X0.150000X0.512500X-0.150000X0.512500X-0.150000X-0.512500X0*%
%ADD18RoundRect,0.200000X0.200000X0.275000X-0.200000X0.275000X-0.200000X-0.275000X0.200000X-0.275000X0*%
%ADD19RoundRect,0.200000X-0.035705X-0.338157X0.310705X-0.138157X0.035705X0.338157X-0.310705X0.138157X0*%
%ADD20RoundRect,0.225000X0.225000X0.250000X-0.225000X0.250000X-0.225000X-0.250000X0.225000X-0.250000X0*%
%ADD21RoundRect,0.225000X0.250000X-0.225000X0.250000X0.225000X-0.250000X0.225000X-0.250000X-0.225000X0*%
%ADD22RoundRect,0.225000X0.335876X0.017678X0.017678X0.335876X-0.335876X-0.017678X-0.017678X-0.335876X0*%
%ADD23RoundRect,0.150000X0.512500X0.150000X-0.512500X0.150000X-0.512500X-0.150000X0.512500X-0.150000X0*%
%ADD24RoundRect,0.250000X-0.981111X-0.539169X-0.539169X-0.981111X0.981111X0.539169X0.539169X0.981111X0*%
%ADD25RoundRect,0.200000X0.053033X-0.335876X0.335876X-0.053033X-0.053033X0.335876X-0.335876X0.053033X0*%
%ADD26RoundRect,0.225000X-0.017678X0.335876X-0.335876X0.017678X0.017678X-0.335876X0.335876X-0.017678X0*%
%ADD27RoundRect,0.200000X-0.053033X0.335876X-0.335876X0.053033X0.053033X-0.335876X0.335876X-0.053033X0*%
%ADD28RoundRect,0.200000X-0.275000X0.200000X-0.275000X-0.200000X0.275000X-0.200000X0.275000X0.200000X0*%
%ADD29R,0.250000X0.475000*%
%ADD30R,0.475000X0.250000*%
%ADD31RoundRect,0.150000X-0.512500X-0.150000X0.512500X-0.150000X0.512500X0.150000X-0.512500X0.150000X0*%
%ADD32C,2.800000*%
%ADD33R,1.700000X1.700000*%
%ADD34O,1.700000X1.700000*%
%ADD35R,1.500000X1.400000*%
%ADD36R,1.500000X1.000000*%
%ADD37RoundRect,0.125000X0.137500X-0.125000X0.137500X0.125000X-0.137500X0.125000X-0.137500X-0.125000X0*%
%ADD38RoundRect,0.075000X-0.521491X0.415425X0.415425X-0.521491X0.521491X-0.415425X-0.415425X0.521491X0*%
%ADD39RoundRect,0.075000X-0.521491X-0.415425X-0.415425X-0.521491X0.521491X0.415425X0.415425X0.521491X0*%
%ADD40C,1.500000*%
%ADD41RotRect,0.710000X2.290000X120.000000*%
%ADD42RotRect,1.015000X2.540000X120.000000*%
%ADD43RoundRect,0.225000X-0.225000X-0.250000X0.225000X-0.250000X0.225000X0.250000X-0.225000X0.250000X0*%
%ADD44R,0.200000X1.100000*%
%ADD45R,0.200000X1.000000*%
%ADD46RoundRect,0.075000X0.662500X0.075000X-0.662500X0.075000X-0.662500X-0.075000X0.662500X-0.075000X0*%
%ADD47RoundRect,0.075000X0.075000X0.662500X-0.075000X0.662500X-0.075000X-0.662500X0.075000X-0.662500X0*%
%ADD48RoundRect,0.250000X0.325000X0.650000X-0.325000X0.650000X-0.325000X-0.650000X0.325000X-0.650000X0*%
%ADD49R,1.500000X1.500000*%
%ADD50R,1.200000X1.400000*%
%ADD51R,1.350000X3.400000*%
%ADD52C,3.000000*%
%ADD53RoundRect,0.312500X0.312500X-0.312500X0.312500X0.312500X-0.312500X0.312500X-0.312500X-0.312500X0*%
%ADD54C,1.250000*%
%ADD55R,0.250000X0.500000*%
%ADD56R,1.600000X0.900000*%
%ADD57RoundRect,0.250000X-0.325000X-0.650000X0.325000X-0.650000X0.325000X0.650000X-0.325000X0.650000X0*%
%ADD58C,3.500000*%
%ADD59FreePoly2,90.000000*%
G04 APERTURE END LIST*
D10*
%TO.C,JP1*%
X-94122000Y1778000D03*
D11*
X-92822000Y1778000D03*
%TD*%
D12*
%TO.C,H4*%
X-88265000Y-52070000D03*
%TD*%
%TO.C,H3*%
X-15875000Y-52070000D03*
%TD*%
%TO.C,H2*%
X-109220000Y0D03*
%TD*%
%TO.C,H1*%
X0Y0D03*
%TD*%
D13*
%TO.C,R17*%
X-88947529Y-28543500D03*
X-90376471Y-29368500D03*
%TD*%
D14*
%TO.C,TP13*%
X-58166000Y-32639000D03*
%TD*%
D15*
%TO.C,R18*%
X-81216000Y-7366000D03*
X-79566000Y-7366000D03*
%TD*%
D16*
%TO.C,C41*%
X-92202000Y-9639000D03*
X-92202000Y-11189000D03*
%TD*%
D17*
%TO.C,U9*%
X-15682000Y-18917500D03*
X-14732000Y-18917500D03*
X-13782000Y-18917500D03*
X-13782000Y-16642500D03*
X-15682000Y-16642500D03*
%TD*%
D14*
%TO.C,TP16*%
X-76708000Y-37084000D03*
%TD*%
D15*
%TO.C,R7*%
X-101917000Y1524000D03*
X-100267000Y1524000D03*
%TD*%
D18*
%TO.C,R28*%
X-92139000Y-12954001D03*
X-93789000Y-12954001D03*
%TD*%
D19*
%TO.C,R10*%
X-91138471Y-28098500D03*
X-89709529Y-27273500D03*
%TD*%
D20*
%TO.C,C1*%
X-51041001Y-12192000D03*
X-52591001Y-12192000D03*
%TD*%
D14*
%TO.C,TP4*%
X-44831000Y-21590000D03*
%TD*%
D21*
%TO.C,C38*%
X-97790000Y-11189000D03*
X-97790000Y-9639000D03*
%TD*%
%TO.C,C55*%
X-86233000Y-21222000D03*
X-86233000Y-19672000D03*
%TD*%
D22*
%TO.C,C26*%
X-64094992Y-26710008D03*
X-65191008Y-25613992D03*
%TD*%
D23*
%TO.C,U4*%
X-29850500Y-19746000D03*
X-29850500Y-18796000D03*
X-29850500Y-17846000D03*
X-32125500Y-17846000D03*
X-32125500Y-19746000D03*
%TD*%
D24*
%TO.C,RSENSE1*%
X-52596144Y-34652856D03*
X-50527856Y-36721144D03*
%TD*%
D25*
%TO.C,R12*%
X-76251637Y-21387637D03*
X-77418363Y-22554363D03*
%TD*%
D16*
%TO.C,C42*%
X-92202000Y-14719000D03*
X-92202000Y-16269000D03*
%TD*%
D15*
%TO.C,R1*%
X-52641001Y-7111999D03*
X-50991001Y-7111999D03*
%TD*%
D18*
%TO.C,R29*%
X-92138998Y-18034000D03*
X-93788998Y-18034000D03*
%TD*%
D20*
%TO.C,C44*%
X-28434999Y-28067001D03*
X-29984999Y-28067001D03*
%TD*%
D26*
%TO.C,C35*%
X-49870992Y-29296992D03*
X-50967008Y-30393008D03*
%TD*%
D20*
%TO.C,C25*%
X-94475000Y-2540000D03*
X-96025000Y-2540000D03*
%TD*%
D27*
%TO.C,L3*%
X-75259363Y-23443363D03*
X-74092637Y-22276637D03*
%TD*%
D28*
%TO.C,R4*%
X-70485000Y-21400000D03*
X-70485000Y-23050000D03*
%TD*%
D29*
%TO.C,U20*%
X-30086999Y-33166499D03*
X-29586999Y-33166499D03*
X-29086999Y-33166499D03*
X-28586999Y-33166499D03*
D30*
X-28424499Y-32503999D03*
X-28424499Y-32003999D03*
X-28424499Y-31503999D03*
D29*
X-28586999Y-30841499D03*
X-29086999Y-30841499D03*
X-29586999Y-30841499D03*
X-30098999Y-30841499D03*
D30*
X-30249499Y-31503999D03*
X-30249499Y-32003999D03*
X-30249499Y-32503999D03*
%TD*%
D14*
%TO.C,TP2*%
X-54610000Y-37084000D03*
%TD*%
D21*
%TO.C,C40*%
X-97790000Y-21349000D03*
X-97790000Y-19799000D03*
%TD*%
D20*
%TO.C,C23*%
X-30213000Y-9144000D03*
X-31763000Y-9144000D03*
%TD*%
D31*
%TO.C,U3*%
X-32125500Y-14290000D03*
X-32125500Y-15240000D03*
X-32125500Y-16190000D03*
X-29850500Y-16190000D03*
X-29850500Y-14290000D03*
%TD*%
D15*
%TO.C,R19*%
X-58610000Y-16891000D03*
X-56960000Y-16891000D03*
%TD*%
D32*
%TO.C,TP1*%
X-60452000Y762000D03*
%TD*%
D33*
%TO.C,J7*%
X-17272000Y762000D03*
D34*
X-19812000Y762000D03*
X-22352000Y762000D03*
X-24892000Y762000D03*
X-27432000Y762000D03*
X-29972000Y762000D03*
X-32512000Y762000D03*
X-35052000Y762000D03*
X-37592000Y762000D03*
X-40132000Y762000D03*
X-42672000Y762000D03*
X-45212000Y762000D03*
X-47752000Y762000D03*
X-50292000Y762000D03*
X-52832000Y762000D03*
X-55372000Y762000D03*
%TD*%
D35*
%TO.C,SW1*%
X-83554000Y0D03*
X-91354000Y0D03*
D36*
X-85704000Y-2200000D03*
X-85704000Y2200000D03*
X-89204000Y-2200000D03*
X-89204000Y2200000D03*
%TD*%
D37*
%TO.C,U15*%
X-30524500Y-26726999D03*
X-30524500Y-25926999D03*
X-30524500Y-25126999D03*
X-30524500Y-24326999D03*
X-28149500Y-24326999D03*
X-28149500Y-25126999D03*
X-28149500Y-25926999D03*
X-28149500Y-26726999D03*
%TD*%
D33*
%TO.C,J9*%
X-70612000Y762000D03*
D34*
X-68072000Y762000D03*
X-65532000Y762000D03*
%TD*%
D38*
%TO.C,U19*%
X-45702788Y-27624124D03*
X-46056342Y-27977678D03*
X-46409895Y-28331231D03*
X-46763449Y-28684785D03*
X-47117002Y-29038338D03*
X-47470555Y-29391891D03*
X-47824109Y-29745445D03*
X-48177662Y-30098998D03*
X-48531215Y-30452551D03*
X-48884769Y-30806105D03*
X-49238322Y-31159658D03*
X-49591876Y-31513212D03*
D39*
X-49591876Y-33510788D03*
X-49238322Y-33864342D03*
X-48884769Y-34217895D03*
X-48531215Y-34571449D03*
X-48177662Y-34925002D03*
X-47824109Y-35278555D03*
X-47470555Y-35632109D03*
X-47117002Y-35985662D03*
X-46763449Y-36339215D03*
X-46409895Y-36692769D03*
X-46056342Y-37046322D03*
X-45702788Y-37399876D03*
D38*
X-43705212Y-37399876D03*
X-43351658Y-37046322D03*
X-42998105Y-36692769D03*
X-42644551Y-36339215D03*
X-42290998Y-35985662D03*
X-41937445Y-35632109D03*
X-41583891Y-35278555D03*
X-41230338Y-34925002D03*
X-40876785Y-34571449D03*
X-40523231Y-34217895D03*
X-40169678Y-33864342D03*
X-39816124Y-33510788D03*
D39*
X-39816124Y-31513212D03*
X-40169678Y-31159658D03*
X-40523231Y-30806105D03*
X-40876785Y-30452551D03*
X-41230338Y-30098998D03*
X-41583891Y-29745445D03*
X-41937445Y-29391891D03*
X-42290998Y-29038338D03*
X-42644551Y-28684785D03*
X-42998105Y-28331231D03*
X-43351658Y-27977678D03*
X-43705212Y-27624124D03*
%TD*%
D40*
%TO.C,J5*%
X-90982481Y-38921689D03*
X-94482481Y-32859511D03*
D41*
X-86663520Y-40042348D03*
X-87173520Y-39159003D03*
X-87683520Y-38275657D03*
X-88193520Y-37392311D03*
X-88703520Y-36508965D03*
X-89213520Y-35625619D03*
X-89723520Y-34742273D03*
X-90743520Y-32975581D03*
X-91253520Y-32092235D03*
X-91763520Y-31208889D03*
X-92273520Y-30325543D03*
X-92783520Y-29442197D03*
X-93293520Y-28558852D03*
D42*
X-97199600Y-48573322D03*
X-105937100Y-33439528D03*
%TD*%
D43*
%TO.C,C22*%
X-28207000Y-14224000D03*
X-26657000Y-14224000D03*
%TD*%
D15*
%TO.C,R23*%
X-58610000Y-24511000D03*
X-56960000Y-24511000D03*
%TD*%
D44*
%TO.C,U17*%
X-88033000Y-18122000D03*
D45*
X-87633000Y-18172000D03*
X-87233000Y-18172000D03*
X-86833000Y-18172000D03*
X-86433000Y-18172000D03*
X-86033000Y-18172000D03*
X-85633000Y-18172000D03*
X-85233000Y-18172000D03*
X-84833000Y-18172000D03*
X-84433000Y-18172000D03*
X-84433000Y-16372000D03*
X-84833000Y-16372000D03*
X-85233000Y-16372000D03*
X-85633000Y-16372000D03*
X-86033000Y-16372000D03*
X-86433000Y-16372000D03*
X-86833000Y-16372000D03*
X-87233000Y-16372000D03*
X-87633000Y-16372000D03*
X-88033000Y-16372000D03*
%TD*%
D17*
%TO.C,U6*%
X-21016000Y-10535500D03*
X-20066000Y-10535500D03*
X-19116000Y-10535500D03*
X-19116000Y-8260500D03*
X-21016000Y-8260500D03*
%TD*%
D21*
%TO.C,C45*%
X-26796999Y-26301999D03*
X-26796999Y-24751999D03*
%TD*%
D27*
%TO.C,R13*%
X-79069363Y-20903363D03*
X-77902637Y-19736637D03*
%TD*%
D14*
%TO.C,TP5*%
X-34925000Y-19812000D03*
%TD*%
D20*
%TO.C,C2*%
X-77965000Y-10414000D03*
X-79515000Y-10414000D03*
%TD*%
D26*
%TO.C,C34*%
X-71841992Y-29296992D03*
X-72938008Y-30393008D03*
%TD*%
D43*
%TO.C,C56*%
X-86246000Y-14478000D03*
X-84696000Y-14478000D03*
%TD*%
D46*
%TO.C,U1*%
X-63171500Y-17720000D03*
X-63171500Y-17220000D03*
X-63171500Y-16720000D03*
X-63171500Y-16220000D03*
X-63171500Y-15720000D03*
X-63171500Y-15220000D03*
X-63171500Y-14720000D03*
X-63171500Y-14220000D03*
X-63171500Y-13720000D03*
X-63171500Y-13220000D03*
X-63171500Y-12720000D03*
X-63171500Y-12220000D03*
X-63171500Y-11720000D03*
X-63171500Y-11220000D03*
X-63171500Y-10720000D03*
X-63171500Y-10220000D03*
D47*
X-65084000Y-8307500D03*
X-65584000Y-8307500D03*
X-66084000Y-8307500D03*
X-66584000Y-8307500D03*
X-67084000Y-8307500D03*
X-67584000Y-8307500D03*
X-68084000Y-8307500D03*
X-68584000Y-8307500D03*
X-69084000Y-8307500D03*
X-69584000Y-8307500D03*
X-70084000Y-8307500D03*
X-70584000Y-8307500D03*
X-71084000Y-8307500D03*
X-71584000Y-8307500D03*
X-72084000Y-8307500D03*
X-72584000Y-8307500D03*
D46*
X-74496500Y-10220000D03*
X-74496500Y-10720000D03*
X-74496500Y-11220000D03*
X-74496500Y-11720000D03*
X-74496500Y-12220000D03*
X-74496500Y-12720000D03*
X-74496500Y-13220000D03*
X-74496500Y-13720000D03*
X-74496500Y-14220000D03*
X-74496500Y-14720000D03*
X-74496500Y-15220000D03*
X-74496500Y-15720000D03*
X-74496500Y-16220000D03*
X-74496500Y-16720000D03*
X-74496500Y-17220000D03*
X-74496500Y-17720000D03*
D47*
X-72584000Y-19632500D03*
X-72084000Y-19632500D03*
X-71584000Y-19632500D03*
X-71084000Y-19632500D03*
X-70584000Y-19632500D03*
X-70084000Y-19632500D03*
X-69584000Y-19632500D03*
X-69084000Y-19632500D03*
X-68584000Y-19632500D03*
X-68084000Y-19632500D03*
X-67584000Y-19632500D03*
X-67084000Y-19632500D03*
X-66584000Y-19632500D03*
X-66084000Y-19632500D03*
X-65584000Y-19632500D03*
X-65084000Y-19632500D03*
%TD*%
D16*
%TO.C,C43*%
X-92202000Y-19799000D03*
X-92202000Y-21349000D03*
%TD*%
D23*
%TO.C,U13*%
X-93858500Y-16444000D03*
X-93858500Y-15494000D03*
X-93858500Y-14544000D03*
X-96133500Y-14544000D03*
X-96133500Y-15494000D03*
X-96133500Y-16444000D03*
%TD*%
D19*
%TO.C,R6*%
X-85296471Y-41814500D03*
X-83867529Y-40989500D03*
%TD*%
D43*
%TO.C,C12*%
X-21095000Y-12192000D03*
X-19545000Y-12192000D03*
%TD*%
D21*
%TO.C,C39*%
X-97790000Y-16269000D03*
X-97790000Y-14719000D03*
%TD*%
D24*
%TO.C,RSENSE2*%
X-74694144Y-34652856D03*
X-72625856Y-36721144D03*
%TD*%
D15*
%TO.C,R22*%
X-58610000Y-21463001D03*
X-56960000Y-21463001D03*
%TD*%
D13*
%TO.C,R16*%
X-88185529Y-29813500D03*
X-89614471Y-30638500D03*
%TD*%
D48*
%TO.C,C19*%
X-93013000Y-4572000D03*
X-95963000Y-4572000D03*
%TD*%
D14*
%TO.C,TP14*%
X-47879000Y-21590000D03*
%TD*%
D43*
%TO.C,C17*%
X-21095000Y-23368000D03*
X-19545000Y-23368000D03*
%TD*%
D17*
%TO.C,U10*%
X-21016000Y-21711500D03*
X-20066000Y-21711500D03*
X-19116000Y-21711500D03*
X-19116000Y-19436500D03*
X-21016000Y-19436500D03*
%TD*%
D43*
%TO.C,C13*%
X-15761000Y-14986000D03*
X-14211000Y-14986000D03*
%TD*%
D14*
%TO.C,TP6*%
X-34925000Y-16764000D03*
%TD*%
D20*
%TO.C,C20*%
X-25654000Y-16256000D03*
X-27204000Y-16256000D03*
%TD*%
D18*
%TO.C,R2*%
X-61913000Y-6731000D03*
X-63563000Y-6731000D03*
%TD*%
D38*
%TO.C,U18*%
X-67673788Y-27624124D03*
X-68027342Y-27977678D03*
X-68380895Y-28331231D03*
X-68734449Y-28684785D03*
X-69088002Y-29038338D03*
X-69441555Y-29391891D03*
X-69795109Y-29745445D03*
X-70148662Y-30098998D03*
X-70502215Y-30452551D03*
X-70855769Y-30806105D03*
X-71209322Y-31159658D03*
X-71562876Y-31513212D03*
D39*
X-71562876Y-33510788D03*
X-71209322Y-33864342D03*
X-70855769Y-34217895D03*
X-70502215Y-34571449D03*
X-70148662Y-34925002D03*
X-69795109Y-35278555D03*
X-69441555Y-35632109D03*
X-69088002Y-35985662D03*
X-68734449Y-36339215D03*
X-68380895Y-36692769D03*
X-68027342Y-37046322D03*
X-67673788Y-37399876D03*
D38*
X-65676212Y-37399876D03*
X-65322658Y-37046322D03*
X-64969105Y-36692769D03*
X-64615551Y-36339215D03*
X-64261998Y-35985662D03*
X-63908445Y-35632109D03*
X-63554891Y-35278555D03*
X-63201338Y-34925002D03*
X-62847785Y-34571449D03*
X-62494231Y-34217895D03*
X-62140678Y-33864342D03*
X-61787124Y-33510788D03*
D39*
X-61787124Y-31513212D03*
X-62140678Y-31159658D03*
X-62494231Y-30806105D03*
X-62847785Y-30452551D03*
X-63201338Y-30098998D03*
X-63554891Y-29745445D03*
X-63908445Y-29391891D03*
X-64261998Y-29038338D03*
X-64615551Y-28684785D03*
X-64969105Y-28331231D03*
X-65322658Y-27977678D03*
X-65676212Y-27624124D03*
%TD*%
D27*
%TO.C,R5*%
X-67107637Y-24562637D03*
X-68274363Y-25729363D03*
%TD*%
D43*
%TO.C,C18*%
X-15761000Y-26162000D03*
X-14211000Y-26162000D03*
%TD*%
D49*
%TO.C,TP3*%
X-60706000Y-9398000D03*
%TD*%
D23*
%TO.C,U12*%
X-93858500Y-11364000D03*
X-93858500Y-10414000D03*
X-93858500Y-9464000D03*
X-96133500Y-9464000D03*
X-96133500Y-10414000D03*
X-96133500Y-11364000D03*
%TD*%
D14*
%TO.C,TP12*%
X-58166000Y-27813000D03*
%TD*%
D15*
%TO.C,R21*%
X-58610000Y-19939000D03*
X-56960000Y-19939000D03*
%TD*%
D21*
%TO.C,C46*%
X-27051000Y-30874001D03*
X-27051000Y-29324001D03*
%TD*%
D14*
%TO.C,FID1*%
X-86995000Y-5842000D03*
%TD*%
D18*
%TO.C,R27*%
X-92138998Y-7874000D03*
X-93788998Y-7874000D03*
%TD*%
D43*
%TO.C,C14*%
X-21095000Y-17780000D03*
X-19545000Y-17780000D03*
%TD*%
D15*
%TO.C,R24*%
X-58610000Y-22987000D03*
X-56960000Y-22987000D03*
%TD*%
D50*
%TO.C,Y1*%
X-79590000Y-12362000D03*
X-79590000Y-14562000D03*
X-77890000Y-14562000D03*
X-77890000Y-12362000D03*
%TD*%
D18*
%TO.C,R3*%
X-54293000Y-12192000D03*
X-55943000Y-12192000D03*
%TD*%
D14*
%TO.C,TP11*%
X-41783000Y-21590000D03*
%TD*%
D43*
%TO.C,C24*%
X-101613000Y-2540000D03*
X-100063000Y-2540000D03*
%TD*%
D21*
%TO.C,C47*%
X-27050999Y-33922001D03*
X-27050999Y-32372001D03*
%TD*%
D14*
%TO.C,FID2*%
X-25400000Y-52070000D03*
%TD*%
D31*
%TO.C,U5*%
X-27553500Y-17846000D03*
X-27553500Y-18796000D03*
X-27553500Y-19746000D03*
X-25278500Y-19746000D03*
X-25278500Y-17846000D03*
%TD*%
D51*
%TO.C,L2*%
X-98357000Y254000D03*
X-96207000Y254000D03*
%TD*%
D17*
%TO.C,U11*%
X-15682000Y-24505500D03*
X-14732000Y-24505500D03*
X-13782000Y-24505500D03*
X-13782000Y-22230500D03*
X-15682000Y-22230500D03*
%TD*%
%TO.C,U8*%
X-21016000Y-16123500D03*
X-20066000Y-16123500D03*
X-19116000Y-16123500D03*
X-19116000Y-13848500D03*
X-21016000Y-13848500D03*
%TD*%
D52*
%TO.C,J4*%
X-7620000Y-26280000D03*
X-7620000Y-9280000D03*
D53*
X-8620000Y-12780000D03*
D54*
X-8620000Y-14780000D03*
X-8620000Y-16780000D03*
X-8620000Y-18780000D03*
X-8620000Y-20780000D03*
X-8620000Y-22780000D03*
X-6620000Y-12780000D03*
X-6620000Y-14780000D03*
X-6620000Y-16780000D03*
X-6620000Y-18780000D03*
X-6620000Y-20780000D03*
X-6620000Y-22780000D03*
%TD*%
D15*
%TO.C,R15*%
X-81216000Y-4318000D03*
X-79566000Y-4318000D03*
%TD*%
D55*
%TO.C,U16*%
X-98798000Y-4506000D03*
X-98298000Y-4506000D03*
X-97798000Y-4506000D03*
X-97298000Y-4506000D03*
X-97298000Y-2606000D03*
X-97798000Y-2606000D03*
X-98298000Y-2606000D03*
X-98798000Y-2606000D03*
D56*
X-98048000Y-3556000D03*
%TD*%
D33*
%TO.C,J1*%
X-50541000Y-9652000D03*
D34*
X-53081000Y-9652000D03*
%TD*%
D43*
%TO.C,C21*%
X-31763000Y-21336000D03*
X-30213000Y-21336000D03*
%TD*%
%TO.C,C3*%
X-79515000Y-16510000D03*
X-77965000Y-16510000D03*
%TD*%
D15*
%TO.C,R20*%
X-58610000Y-18415000D03*
X-56960000Y-18415000D03*
%TD*%
D14*
%TO.C,TP9*%
X-33274000Y-27051000D03*
%TD*%
D23*
%TO.C,U14*%
X-93858500Y-21524000D03*
X-93858500Y-20574000D03*
X-93858500Y-19624000D03*
X-96133500Y-19624000D03*
X-96133500Y-20574000D03*
X-96133500Y-21524000D03*
%TD*%
D15*
%TO.C,R14*%
X-81216000Y-5842000D03*
X-79566000Y-5842000D03*
%TD*%
D14*
%TO.C,TP8*%
X-37973000Y-13716000D03*
%TD*%
D17*
%TO.C,U7*%
X-15682000Y-13329500D03*
X-14732000Y-13329500D03*
X-13782000Y-13329500D03*
X-13782000Y-11054500D03*
X-15682000Y-11054500D03*
%TD*%
D31*
%TO.C,U2*%
X-32125500Y-10734000D03*
X-32125500Y-11684000D03*
X-32125500Y-12634000D03*
X-29850500Y-12634000D03*
X-29850500Y-10734000D03*
%TD*%
D22*
%TO.C,C27*%
X-42123992Y-26710008D03*
X-43220008Y-25613992D03*
%TD*%
D57*
%TO.C,C15*%
X-103329000Y-508000D03*
X-100379000Y-508000D03*
%TD*%
D14*
%TO.C,TP10*%
X-33274000Y-30099000D03*
%TD*%
D27*
%TO.C,L1*%
X-72949637Y-23419637D03*
X-74116363Y-24586363D03*
%TD*%
D43*
%TO.C,C16*%
X-15761000Y-20574000D03*
X-14211000Y-20574000D03*
%TD*%
D58*
%TO.C,J3*%
X-78110000Y-45085000D03*
X-31110000Y-45085000D03*
D59*
X-35610000Y-43085000D03*
D54*
X-37610000Y-43085000D03*
X-39610000Y-43085000D03*
X-41610000Y-43085000D03*
X-43610000Y-43085000D03*
X-45610000Y-43085000D03*
X-47610000Y-43085000D03*
X-49610000Y-43085000D03*
X-51610000Y-43085000D03*
X-53610000Y-43085000D03*
X-55610000Y-43085000D03*
X-57610000Y-43085000D03*
X-59610000Y-43085000D03*
X-61610000Y-43085000D03*
X-63610000Y-43085000D03*
X-65610000Y-43085000D03*
X-67610000Y-43085000D03*
X-69610000Y-43085000D03*
X-71610000Y-43085000D03*
X-73610000Y-43085000D03*
X-35610000Y-45085000D03*
X-37610000Y-45085000D03*
X-39610000Y-45085000D03*
X-41610000Y-45085000D03*
X-43610000Y-45085000D03*
X-45610000Y-45085000D03*
X-47610000Y-45085000D03*
X-49610000Y-45085000D03*
X-51610000Y-45085000D03*
X-53610000Y-45085000D03*
X-55610000Y-45085000D03*
X-57610000Y-45085000D03*
X-59610000Y-45085000D03*
X-61610000Y-45085000D03*
X-63610000Y-45085000D03*
X-65610000Y-45085000D03*
X-67610000Y-45085000D03*
X-69610000Y-45085000D03*
X-71610000Y-45085000D03*
X-73610000Y-45085000D03*
X-35610000Y-47085000D03*
X-37610000Y-47085000D03*
X-39610000Y-47085000D03*
X-41610000Y-47085000D03*
X-43610000Y-47085000D03*
X-45610000Y-47085000D03*
X-47610000Y-47085000D03*
X-49610000Y-47085000D03*
X-51610000Y-47085000D03*
X-53610000Y-47085000D03*
X-55610000Y-47085000D03*
X-57610000Y-47085000D03*
X-59610000Y-47085000D03*
X-61610000Y-47085000D03*
X-63610000Y-47085000D03*
X-65610000Y-47085000D03*
X-67610000Y-47085000D03*
X-69610000Y-47085000D03*
X-71610000Y-47085000D03*
X-73610000Y-47085000D03*
%TD*%
D14*
%TO.C,TP7*%
X-34925000Y-13716000D03*
%TD*%
D35*
%TO.C,SW2*%
X-73521000Y0D03*
X-81321000Y0D03*
D36*
X-75671000Y-2200000D03*
X-75671000Y2200000D03*
X-79171000Y-2200000D03*
X-79171000Y2200000D03*
%TD*%
D25*
%TO.C,R8*%
X-76021363Y-26999363D03*
X-74854637Y-25832637D03*
%TD*%
D33*
%TO.C,J2*%
X-105918000Y-6386830D03*
D34*
X-108458000Y-6386830D03*
X-105918000Y-8926830D03*
X-108458000Y-8926830D03*
X-105918000Y-11466830D03*
X-108458000Y-11466830D03*
X-105918000Y-14006830D03*
X-108458000Y-14006830D03*
X-105918000Y-16546830D03*
X-108458000Y-16546830D03*
X-105918000Y-19086830D03*
X-108458000Y-19086830D03*
X-105918000Y-21626830D03*
X-108458000Y-21626830D03*
X-105918000Y-24166830D03*
X-108458000Y-24166830D03*
%TD*%
D43*
%TO.C,C54*%
X-59677000Y-11684000D03*
X-61227000Y-11684000D03*
%TD*%
D27*
%TO.C,R9*%
X-76505637Y-24181637D03*
X-77672363Y-25348363D03*
%TD*%
M02*
