%TF.GenerationSoftware,KiCad,Pcbnew,7.0.1-0*%
%TF.CreationDate,2023-07-11T13:22:56-05:00*%
%TF.ProjectId,plenum,706c656e-756d-42e6-9b69-6361645f7063,2*%
%TF.SameCoordinates,PXbe27330PY316a640*%
%TF.FileFunction,Copper,L4,Bot*%
%TF.FilePolarity,Positive*%
%FSLAX46Y46*%
G04 Gerber Fmt 4.6, Leading zero omitted, Abs format (unit mm)*
G04 Created by KiCad (PCBNEW 7.0.1-0) date 2023-07-11 13:22:56*
%MOMM*%
%LPD*%
G01*
G04 APERTURE LIST*
G04 Aperture macros list*
%AMRoundRect*
0 Rectangle with rounded corners*
0 $1 Rounding radius*
0 $2 $3 $4 $5 $6 $7 $8 $9 X,Y pos of 4 corners*
0 Add a 4 corners polygon primitive as box body*
4,1,4,$2,$3,$4,$5,$6,$7,$8,$9,$2,$3,0*
0 Add four circle primitives for the rounded corners*
1,1,$1+$1,$2,$3*
1,1,$1+$1,$4,$5*
1,1,$1+$1,$6,$7*
1,1,$1+$1,$8,$9*
0 Add four rect primitives between the rounded corners*
20,1,$1+$1,$2,$3,$4,$5,0*
20,1,$1+$1,$4,$5,$6,$7,0*
20,1,$1+$1,$6,$7,$8,$9,0*
20,1,$1+$1,$8,$9,$2,$3,0*%
%AMFreePoly0*
4,1,21,-0.625000,0.375000,-0.605970,0.470671,-0.551777,0.551777,-0.470671,0.605970,-0.375000,0.625000,0.375000,0.625000,0.470671,0.605970,0.551777,0.551777,0.605970,0.470671,0.625000,0.375000,0.625000,-0.375000,0.605970,-0.470671,0.551777,-0.551777,0.470671,-0.605970,0.375000,-0.625000,-0.375000,-0.625000,-0.470671,-0.605970,-0.551777,-0.551777,-0.605970,-0.470671,-0.625000,-0.375000,
-0.625000,0.375000,-0.625000,0.375000,$1*%
G04 Aperture macros list end*
%TA.AperFunction,SMDPad,CuDef*%
%ADD10RoundRect,0.225000X0.017678X-0.335876X0.335876X-0.017678X-0.017678X0.335876X-0.335876X0.017678X0*%
%TD*%
%TA.AperFunction,SMDPad,CuDef*%
%ADD11RoundRect,0.250000X0.689429X0.229810X0.229810X0.689429X-0.689429X-0.229810X-0.229810X-0.689429X0*%
%TD*%
%TA.AperFunction,ComponentPad*%
%ADD12C,5.892800*%
%TD*%
%TA.AperFunction,ComponentPad*%
%ADD13C,2.000000*%
%TD*%
%TA.AperFunction,SMDPad,CuDef*%
%ADD14RoundRect,0.225000X-0.017678X0.335876X-0.335876X0.017678X0.017678X-0.335876X0.335876X-0.017678X0*%
%TD*%
%TA.AperFunction,ComponentPad*%
%ADD15C,2.800000*%
%TD*%
%TA.AperFunction,ComponentPad*%
%ADD16R,1.700000X1.700000*%
%TD*%
%TA.AperFunction,ComponentPad*%
%ADD17O,1.700000X1.700000*%
%TD*%
%TA.AperFunction,ComponentPad*%
%ADD18C,3.000000*%
%TD*%
%TA.AperFunction,ComponentPad*%
%ADD19RoundRect,0.312500X0.312500X-0.312500X0.312500X0.312500X-0.312500X0.312500X-0.312500X-0.312500X0*%
%TD*%
%TA.AperFunction,ComponentPad*%
%ADD20C,1.250000*%
%TD*%
%TA.AperFunction,ComponentPad*%
%ADD21C,3.500000*%
%TD*%
%TA.AperFunction,ComponentPad*%
%ADD22FreePoly0,90.000000*%
%TD*%
%TA.AperFunction,SMDPad,CuDef*%
%ADD23RoundRect,0.250000X1.075000X-0.312500X1.075000X0.312500X-1.075000X0.312500X-1.075000X-0.312500X0*%
%TD*%
%TA.AperFunction,SMDPad,CuDef*%
%ADD24RoundRect,0.250000X-0.689429X-0.229810X-0.229810X-0.689429X0.689429X0.229810X0.229810X0.689429X0*%
%TD*%
%TA.AperFunction,SMDPad,CuDef*%
%ADD25RoundRect,0.225000X0.250000X-0.225000X0.250000X0.225000X-0.250000X0.225000X-0.250000X-0.225000X0*%
%TD*%
%TA.AperFunction,SMDPad,CuDef*%
%ADD26RoundRect,0.225000X-0.225000X-0.250000X0.225000X-0.250000X0.225000X0.250000X-0.225000X0.250000X0*%
%TD*%
%TA.AperFunction,SMDPad,CuDef*%
%ADD27RoundRect,0.250000X-0.043542X0.725417X-0.606458X0.400417X0.043542X-0.725417X0.606458X-0.400417X0*%
%TD*%
%TA.AperFunction,SMDPad,CuDef*%
%ADD28RoundRect,0.200000X-0.275000X0.200000X-0.275000X-0.200000X0.275000X-0.200000X0.275000X0.200000X0*%
%TD*%
%TA.AperFunction,SMDPad,CuDef*%
%ADD29RoundRect,0.225000X-0.250000X0.225000X-0.250000X-0.225000X0.250000X-0.225000X0.250000X0.225000X0*%
%TD*%
%TA.AperFunction,ViaPad*%
%ADD30C,0.609600*%
%TD*%
%TA.AperFunction,ViaPad*%
%ADD31C,0.558800*%
%TD*%
%TA.AperFunction,ViaPad*%
%ADD32C,0.660400*%
%TD*%
%TA.AperFunction,ViaPad*%
%ADD33C,0.965200*%
%TD*%
%TA.AperFunction,ViaPad*%
%ADD34C,0.762000*%
%TD*%
%TA.AperFunction,Conductor*%
%ADD35C,0.406400*%
%TD*%
%TA.AperFunction,Conductor*%
%ADD36C,0.609600*%
%TD*%
%TA.AperFunction,Conductor*%
%ADD37C,0.304800*%
%TD*%
%TA.AperFunction,Conductor*%
%ADD38C,0.254000*%
%TD*%
%TA.AperFunction,Conductor*%
%ADD39C,0.203200*%
%TD*%
%TA.AperFunction,Conductor*%
%ADD40C,0.914400*%
%TD*%
G04 APERTURE END LIST*
D10*
%TO.P,C53,1*%
%TO.N,GND*%
X-75224008Y-23408008D03*
%TO.P,C53,2*%
%TO.N,/eth_phy/ETH.TX_N*%
X-74127992Y-22311992D03*
%TD*%
D11*
%TO.P,C51,1*%
%TO.N,+3V3*%
X-77570017Y-27585983D03*
%TO.P,C51,2*%
%TO.N,GND*%
X-79655983Y-25500017D03*
%TD*%
D12*
%TO.P,H4,1,1*%
%TO.N,GNDPWR*%
X-88265000Y-52070000D03*
%TD*%
%TO.P,H3,1,1*%
%TO.N,GNDPWR*%
X-15875000Y-52070000D03*
%TD*%
%TO.P,H2,1,1*%
%TO.N,GNDPWR*%
X-109220000Y0D03*
%TD*%
%TO.P,H1,1,1*%
%TO.N,GNDPWR*%
X0Y0D03*
%TD*%
D13*
%TO.P,TP13,1,1*%
%TO.N,/microcontroller/TEMP2_READY*%
X-58166000Y-32639000D03*
%TD*%
%TO.P,TP16,1,1*%
%TO.N,Net-(U18-CH1)*%
X-76708000Y-37084000D03*
%TD*%
%TO.P,TP4,1,1*%
%TO.N,/microcontroller/TEMP_nRESET*%
X-44831000Y-21590000D03*
%TD*%
D14*
%TO.P,C52,2*%
%TO.N,GND*%
X-74081008Y-24551008D03*
%TO.P,C52,1*%
%TO.N,/eth_phy/ETH.TX_P*%
X-72984992Y-23454992D03*
%TD*%
D13*
%TO.P,TP2,1,1*%
%TO.N,Net-(U19-CH1)*%
X-54610000Y-37084000D03*
%TD*%
D15*
%TO.P,TP1,1,1*%
%TO.N,Net-(J9-Pin_3)*%
X-60452000Y762000D03*
%TD*%
D16*
%TO.P,J7,1,Pin_1*%
%TO.N,+3V3*%
X-17272000Y762000D03*
D17*
%TO.P,J7,2,Pin_2*%
%TO.N,/microcontroller/INTRPT3*%
X-19812000Y762000D03*
%TO.P,J7,3,Pin_3*%
%TO.N,/microcontroller/RA3*%
X-22352000Y762000D03*
%TO.P,J7,4,Pin_4*%
%TO.N,/microcontroller/RA2*%
X-24892000Y762000D03*
%TO.P,J7,5,Pin_5*%
%TO.N,/microcontroller/RA5*%
X-27432000Y762000D03*
%TO.P,J7,6,Pin_6*%
%TO.N,/microcontroller/RA4*%
X-29972000Y762000D03*
%TO.P,J7,7,Pin_7*%
%TO.N,/microcontroller/RC1*%
X-32512000Y762000D03*
%TO.P,J7,8,Pin_8*%
%TO.N,/microcontroller/RC0*%
X-35052000Y762000D03*
%TO.P,J7,9,Pin_9*%
%TO.N,/microcontroller/RC2*%
X-37592000Y762000D03*
%TO.P,J7,10,Pin_10*%
%TO.N,/microcontroller/UART.TX*%
X-40132000Y762000D03*
%TO.P,J7,11,Pin_11*%
%TO.N,/microcontroller/UART.RX*%
X-42672000Y762000D03*
%TO.P,J7,12,Pin_12*%
%TO.N,unconnected-(J7-Pin_12-Pad12)*%
X-45212000Y762000D03*
%TO.P,J7,13,Pin_13*%
%TO.N,unconnected-(J7-Pin_13-Pad13)*%
X-47752000Y762000D03*
%TO.P,J7,14,Pin_14*%
%TO.N,unconnected-(J7-Pin_14-Pad14)*%
X-50292000Y762000D03*
%TO.P,J7,15,Pin_15*%
%TO.N,+5V*%
X-52832000Y762000D03*
%TO.P,J7,16,Pin_16*%
%TO.N,GND*%
X-55372000Y762000D03*
%TD*%
D16*
%TO.P,J9,1,Pin_1*%
%TO.N,+3V3*%
X-70612000Y762000D03*
D17*
%TO.P,J9,2,Pin_2*%
%TO.N,/microcontroller/AVDD*%
X-68072000Y762000D03*
%TO.P,J9,3,Pin_3*%
%TO.N,Net-(J9-Pin_3)*%
X-65532000Y762000D03*
%TD*%
D13*
%TO.P,TP5,1,1*%
%TO.N,/microcontroller/INTRPT0*%
X-34925000Y-19812000D03*
%TD*%
%TO.P,TP14,1,1*%
%TO.N,/microcontroller/TEMP1_READY*%
X-47879000Y-21590000D03*
%TD*%
%TO.P,TP6,1,1*%
%TO.N,/power/PPS*%
X-34925000Y-16764000D03*
%TD*%
%TO.P,TP12,1,1*%
%TO.N,/microcontroller/SPI.nCS2*%
X-58166000Y-27813000D03*
%TD*%
%TO.P,TP11,1,1*%
%TO.N,/microcontroller/SPI.nCS1*%
X-41783000Y-21590000D03*
%TD*%
D18*
%TO.P,J4,MP,MountPin*%
%TO.N,GNDPWR*%
X-7620000Y-26280000D03*
X-7620000Y-9280000D03*
D19*
%TO.P,J4,a1,Pin_a1*%
%TO.N,/sync/SYNC1+*%
X-8620000Y-12780000D03*
D20*
%TO.P,J4,a2,Pin_a2*%
%TO.N,/sync/SYNC1-*%
X-8620000Y-14780000D03*
%TO.P,J4,a3,Pin_a3*%
%TO.N,/sync/SYNC3+*%
X-8620000Y-16780000D03*
%TO.P,J4,a4,Pin_a4*%
%TO.N,/sync/SYNC3-*%
X-8620000Y-18780000D03*
%TO.P,J4,a5,Pin_a5*%
%TO.N,/sync/SYNC5+*%
X-8620000Y-20780000D03*
%TO.P,J4,a6,Pin_a6*%
%TO.N,/sync/SYNC5-*%
X-8620000Y-22780000D03*
%TO.P,J4,b1,Pin_b1*%
%TO.N,/sync/SYNC2+*%
X-6620000Y-12780000D03*
%TO.P,J4,b2,Pin_b2*%
%TO.N,/sync/SYNC2-*%
X-6620000Y-14780000D03*
%TO.P,J4,b3,Pin_b3*%
%TO.N,/sync/SYNC4+*%
X-6620000Y-16780000D03*
%TO.P,J4,b4,Pin_b4*%
%TO.N,/sync/SYNC4-*%
X-6620000Y-18780000D03*
%TO.P,J4,b5,Pin_b5*%
%TO.N,/sync/SYNC6+*%
X-6620000Y-20780000D03*
%TO.P,J4,b6,Pin_b6*%
%TO.N,/sync/SYNC6-*%
X-6620000Y-22780000D03*
%TD*%
D16*
%TO.P,J1,1,Pin_1*%
%TO.N,Net-(J1-Pin_1)*%
X-50541000Y-9652000D03*
D17*
%TO.P,J1,2,Pin_2*%
%TO.N,Net-(J1-Pin_2)*%
X-53081000Y-9652000D03*
%TD*%
D13*
%TO.P,TP9,1,1*%
%TO.N,/microcontroller/SPI.nCS5*%
X-33274000Y-27051000D03*
%TD*%
%TO.P,TP8,1,1*%
%TO.N,/sync/nQ*%
X-37973000Y-13716000D03*
%TD*%
%TO.P,TP10,1,1*%
%TO.N,/microcontroller/SPI.nCS6*%
X-33274000Y-30099000D03*
%TD*%
D21*
%TO.P,J3,MP,MountPin*%
%TO.N,GNDPWR*%
X-78110000Y-45085000D03*
X-31110000Y-45085000D03*
D22*
%TO.P,J3,a1*%
%TO.N,/rtd/TEMP1.RSENSE*%
X-35610000Y-43085000D03*
D20*
%TO.P,J3,a2*%
X-37610000Y-43085000D03*
%TO.P,J3,a3*%
X-39610000Y-43085000D03*
%TO.P,J3,a4*%
X-41610000Y-43085000D03*
%TO.P,J3,a5*%
X-43610000Y-43085000D03*
%TO.P,J3,a6*%
X-45610000Y-43085000D03*
%TO.P,J3,a7*%
X-47610000Y-43085000D03*
%TO.P,J3,a8*%
X-49610000Y-43085000D03*
%TO.P,J3,a9*%
X-51610000Y-43085000D03*
%TO.P,J3,a10*%
%TO.N,GND*%
X-53610000Y-43085000D03*
%TO.P,J3,a11*%
X-55610000Y-43085000D03*
%TO.P,J3,a12*%
%TO.N,/rtd/TEMP2.RSENSE*%
X-57610000Y-43085000D03*
%TO.P,J3,a13*%
X-59610000Y-43085000D03*
%TO.P,J3,a14*%
X-61610000Y-43085000D03*
%TO.P,J3,a15*%
X-63610000Y-43085000D03*
%TO.P,J3,a16*%
X-65610000Y-43085000D03*
%TO.P,J3,a17*%
X-67610000Y-43085000D03*
%TO.P,J3,a18*%
X-69610000Y-43085000D03*
%TO.P,J3,a19*%
X-71610000Y-43085000D03*
%TO.P,J3,a20*%
X-73610000Y-43085000D03*
%TO.P,J3,b1*%
%TO.N,/rtd/TEMP1.CH20*%
X-35610000Y-45085000D03*
%TO.P,J3,b2*%
%TO.N,/rtd/TEMP1.CH18*%
X-37610000Y-45085000D03*
%TO.P,J3,b3*%
%TO.N,/rtd/TEMP1.CH16*%
X-39610000Y-45085000D03*
%TO.P,J3,b4*%
%TO.N,/rtd/TEMP1.CH14*%
X-41610000Y-45085000D03*
%TO.P,J3,b5*%
%TO.N,/rtd/TEMP1.CH12*%
X-43610000Y-45085000D03*
%TO.P,J3,b6*%
%TO.N,/rtd/TEMP1.CH10*%
X-45610000Y-45085000D03*
%TO.P,J3,b7*%
%TO.N,/rtd/TEMP1.CH8*%
X-47610000Y-45085000D03*
%TO.P,J3,b8*%
%TO.N,/rtd/TEMP1.CH6*%
X-49610000Y-45085000D03*
%TO.P,J3,b9*%
%TO.N,/rtd/TEMP1.CH4*%
X-51610000Y-45085000D03*
%TO.P,J3,b10*%
%TO.N,GND*%
X-53610000Y-45085000D03*
%TO.P,J3,b11*%
X-55610000Y-45085000D03*
%TO.P,J3,b12*%
%TO.N,/rtd/TEMP2.CH20*%
X-57610000Y-45085000D03*
%TO.P,J3,b13*%
%TO.N,/rtd/TEMP2.CH18*%
X-59610000Y-45085000D03*
%TO.P,J3,b14*%
%TO.N,/rtd/TEMP2.CH16*%
X-61610000Y-45085000D03*
%TO.P,J3,b15*%
%TO.N,/rtd/TEMP2.CH14*%
X-63610000Y-45085000D03*
%TO.P,J3,b16*%
%TO.N,/rtd/TEMP2.CH12*%
X-65610000Y-45085000D03*
%TO.P,J3,b17*%
%TO.N,/rtd/TEMP2.CH10*%
X-67610000Y-45085000D03*
%TO.P,J3,b18*%
%TO.N,/rtd/TEMP2.CH8*%
X-69610000Y-45085000D03*
%TO.P,J3,b19*%
%TO.N,/rtd/TEMP2.CH6*%
X-71610000Y-45085000D03*
%TO.P,J3,b20*%
%TO.N,/rtd/TEMP2.CH4*%
X-73610000Y-45085000D03*
%TO.P,J3,c1*%
%TO.N,/rtd/TEMP1.CH19*%
X-35610000Y-47085000D03*
%TO.P,J3,c2*%
%TO.N,/rtd/TEMP1.CH17*%
X-37610000Y-47085000D03*
%TO.P,J3,c3*%
%TO.N,/rtd/TEMP1.CH15*%
X-39610000Y-47085000D03*
%TO.P,J3,c4*%
%TO.N,/rtd/TEMP1.CH13*%
X-41610000Y-47085000D03*
%TO.P,J3,c5*%
%TO.N,/rtd/TEMP1.CH11*%
X-43610000Y-47085000D03*
%TO.P,J3,c6*%
%TO.N,/rtd/TEMP1.CH9*%
X-45610000Y-47085000D03*
%TO.P,J3,c7*%
%TO.N,/rtd/TEMP1.CH7*%
X-47610000Y-47085000D03*
%TO.P,J3,c8*%
%TO.N,/rtd/TEMP1.CH5*%
X-49610000Y-47085000D03*
%TO.P,J3,c9*%
%TO.N,/rtd/TEMP1.CH3*%
X-51610000Y-47085000D03*
%TO.P,J3,c10*%
%TO.N,GND*%
X-53610000Y-47085000D03*
%TO.P,J3,c11*%
X-55610000Y-47085000D03*
%TO.P,J3,c12*%
%TO.N,/rtd/TEMP2.CH19*%
X-57610000Y-47085000D03*
%TO.P,J3,c13*%
%TO.N,/rtd/TEMP2.CH17*%
X-59610000Y-47085000D03*
%TO.P,J3,c14*%
%TO.N,/rtd/TEMP2.CH15*%
X-61610000Y-47085000D03*
%TO.P,J3,c15*%
%TO.N,/rtd/TEMP2.CH13*%
X-63610000Y-47085000D03*
%TO.P,J3,c16*%
%TO.N,/rtd/TEMP2.CH11*%
X-65610000Y-47085000D03*
%TO.P,J3,c17*%
%TO.N,/rtd/TEMP2.CH9*%
X-67610000Y-47085000D03*
%TO.P,J3,c18*%
%TO.N,/rtd/TEMP2.CH7*%
X-69610000Y-47085000D03*
%TO.P,J3,c19*%
%TO.N,/rtd/TEMP2.CH5*%
X-71610000Y-47085000D03*
%TO.P,J3,c20*%
%TO.N,/rtd/TEMP2.CH3*%
X-73610000Y-47085000D03*
%TD*%
D13*
%TO.P,TP7,1,1*%
%TO.N,/sync/Q*%
X-34925000Y-13716000D03*
%TD*%
D23*
%TO.P,R11,1*%
%TO.N,GNDPWR*%
X-84455000Y-43626500D03*
%TO.P,R11,2*%
%TO.N,GND*%
X-84455000Y-40701500D03*
%TD*%
D14*
%TO.P,C32,1*%
%TO.N,GND*%
X-69301992Y-32852992D03*
%TO.P,C32,2*%
%TO.N,/rtd/VREF2*%
X-70398008Y-33949008D03*
%TD*%
D24*
%TO.P,C50,2*%
%TO.N,GND*%
X-76935017Y-24664983D03*
%TO.P,C50,1*%
%TO.N,Net-(C50-Pad1)*%
X-79020983Y-22579017D03*
%TD*%
D10*
%TO.P,C30,1*%
%TO.N,GND*%
X-65148357Y-31052274D03*
%TO.P,C30,2*%
%TO.N,/rtd/LDO2*%
X-64052341Y-29956258D03*
%TD*%
D14*
%TO.P,C33,1*%
%TO.N,GND*%
X-47330992Y-32852992D03*
%TO.P,C33,2*%
%TO.N,/rtd/VREF1*%
X-48427008Y-33949008D03*
%TD*%
D25*
%TO.P,C6,1*%
%TO.N,+3V3*%
X-66802000Y-18301000D03*
%TO.P,C6,2*%
%TO.N,GND*%
X-66802000Y-16751000D03*
%TD*%
D26*
%TO.P,C10,1*%
%TO.N,+3V3*%
X-73165000Y-15494000D03*
%TO.P,C10,2*%
%TO.N,GND*%
X-71615000Y-15494000D03*
%TD*%
D10*
%TO.P,C36,1*%
%TO.N,GND*%
X-66225988Y-29974644D03*
%TO.P,C36,2*%
%TO.N,+3V3*%
X-65129972Y-28878628D03*
%TD*%
D25*
%TO.P,C9,1*%
%TO.N,+3V3*%
X-70358000Y-18301000D03*
%TO.P,C9,2*%
%TO.N,GND*%
X-70358000Y-16751000D03*
%TD*%
D27*
%TO.P,C49,1*%
%TO.N,Net-(C49-Pad1)*%
X-92956613Y-28726500D03*
%TO.P,C49,2*%
%TO.N,GNDPWR*%
X-95511387Y-30201500D03*
%TD*%
D10*
%TO.P,C37,1*%
%TO.N,GND*%
X-44160235Y-29992578D03*
%TO.P,C37,2*%
%TO.N,+3V3*%
X-43064219Y-28896562D03*
%TD*%
%TO.P,C28,1*%
%TO.N,GND*%
X-67223008Y-28996008D03*
%TO.P,C28,2*%
%TO.N,Net-(U18-Q3)*%
X-66126992Y-27899992D03*
%TD*%
D16*
%TO.P,J2,1,Pin_1*%
%TO.N,+5V*%
X-105918000Y-6386830D03*
D17*
%TO.P,J2,2,Pin_2*%
%TO.N,/microcontroller/PGC*%
X-108458000Y-6386830D03*
%TO.P,J2,3,Pin_3*%
%TO.N,+5V*%
X-105918000Y-8926830D03*
%TO.P,J2,4,Pin_4*%
%TO.N,/microcontroller/PGD*%
X-108458000Y-8926830D03*
%TO.P,J2,5,Pin_5*%
%TO.N,/power/SCK*%
X-105918000Y-11466830D03*
%TO.P,J2,6,Pin_6*%
%TO.N,GND*%
X-108458000Y-11466830D03*
%TO.P,J2,7,Pin_7*%
%TO.N,/power/SDI*%
X-105918000Y-14006830D03*
%TO.P,J2,8,Pin_8*%
%TO.N,+3V3*%
X-108458000Y-14006830D03*
%TO.P,J2,9,Pin_9*%
%TO.N,/power/SDO*%
X-105918000Y-16546830D03*
%TO.P,J2,10,Pin_10*%
%TO.N,/microcontroller/nMCLR*%
X-108458000Y-16546830D03*
%TO.P,J2,11,Pin_11*%
%TO.N,/power/nCS3*%
X-105918000Y-19086830D03*
%TO.P,J2,12,Pin_12*%
%TO.N,/power/PPS_in*%
X-108458000Y-19086830D03*
%TO.P,J2,13,Pin_13*%
%TO.N,/power/nCS4*%
X-105918000Y-21626830D03*
%TO.P,J2,14,Pin_14*%
%TO.N,/power/SHUTTER_in*%
X-108458000Y-21626830D03*
%TO.P,J2,15,Pin_15*%
%TO.N,/power/PRELAUNCH_in*%
X-105918000Y-24166830D03*
%TO.P,J2,16,Pin_16*%
%TO.N,GND*%
X-108458000Y-24166830D03*
%TD*%
D26*
%TO.P,C4,1*%
%TO.N,+3V3*%
X-73165000Y-11430000D03*
%TO.P,C4,2*%
%TO.N,GND*%
X-71615000Y-11430000D03*
%TD*%
%TO.P,C8,1*%
%TO.N,+3V3*%
X-73165000Y-13208000D03*
%TO.P,C8,2*%
%TO.N,GND*%
X-71615000Y-13208000D03*
%TD*%
D10*
%TO.P,C29,1*%
%TO.N,GND*%
X-45228673Y-28905755D03*
%TO.P,C29,2*%
%TO.N,Net-(U19-Q3)*%
X-44132657Y-27809739D03*
%TD*%
D28*
%TO.P,R26,1*%
%TO.N,/microcontroller/UART.RX*%
X-47752000Y-4509000D03*
%TO.P,R26,2*%
%TO.N,+3V3*%
X-47752000Y-6159000D03*
%TD*%
D25*
%TO.P,C5,1*%
%TO.N,+3V3*%
X-68580000Y-18301000D03*
%TO.P,C5,2*%
%TO.N,GND*%
X-68580000Y-16751000D03*
%TD*%
D29*
%TO.P,C11,1*%
%TO.N,/microcontroller/AVDD*%
X-66294000Y-9639000D03*
%TO.P,C11,2*%
%TO.N,GND*%
X-66294000Y-11189000D03*
%TD*%
%TO.P,C7,1*%
%TO.N,+3V3*%
X-69342000Y-9639000D03*
%TO.P,C7,2*%
%TO.N,GND*%
X-69342000Y-11189000D03*
%TD*%
D28*
%TO.P,R25,1*%
%TO.N,/microcontroller/UART.TX*%
X-46228000Y-4509000D03*
%TO.P,R25,2*%
%TO.N,+3V3*%
X-46228000Y-6159000D03*
%TD*%
D10*
%TO.P,C31,1*%
%TO.N,GND*%
X-43082604Y-31070209D03*
%TO.P,C31,2*%
%TO.N,/rtd/LDO1*%
X-41986588Y-29974193D03*
%TD*%
D30*
%TO.N,+3V3*%
X-93853000Y-762000D03*
X-93853000Y127000D03*
X-92964000Y127000D03*
X-92964000Y-762000D03*
X-91821000Y1397000D03*
X-91821000Y2286000D03*
X-90932000Y2286000D03*
X-90932000Y1397000D03*
%TO.N,+5V*%
X-90170000Y381000D03*
D31*
%TO.N,GND*%
X-54356000Y-11303000D03*
D30*
X-77597000Y-29591000D03*
X-78613000Y-30607000D03*
X-81153000Y-22860000D03*
X-82169000Y-23876000D03*
X-83185000Y-24892000D03*
X-84328000Y-26035000D03*
X-84328000Y-27051000D03*
X-87630000Y-31750000D03*
X-88392000Y-32639000D03*
X-85217000Y-29083000D03*
X-85979000Y-29972000D03*
X-86741000Y-30861000D03*
X-84328000Y-28194000D03*
X-84328000Y-36830000D03*
X-79502000Y-31496000D03*
X-81915000Y-34163000D03*
X-82677000Y-35052000D03*
X-80264000Y-32385000D03*
X-83439000Y-35941000D03*
X-81026000Y-33274000D03*
X-85852000Y-34417000D03*
X-86614000Y-35306000D03*
X-83439000Y-31750000D03*
X-84201000Y-32639000D03*
X-84963000Y-33528000D03*
X-82550000Y-30861000D03*
X-81788000Y-29972000D03*
X-81026000Y-29083000D03*
X-81026000Y-27940000D03*
%TO.N,+3V3*%
X-76454000Y-27940000D03*
X-78232000Y-26162000D03*
%TO.N,GND*%
X-79248000Y-26543000D03*
X-79883000Y-27178000D03*
X-80518000Y-26543000D03*
X-78613000Y-24511000D03*
X-75819000Y-25146000D03*
X-75068255Y-24395255D03*
%TO.N,/eth_phy/ETH.TX_P*%
X-72390000Y-22860000D03*
%TO.N,/eth_phy/ETH.TX_N*%
X-73533000Y-21717000D03*
%TO.N,Net-(C50-Pad1)*%
X-78105000Y-23241000D03*
X-79756000Y-21590000D03*
D31*
%TO.N,GND*%
X-59563000Y-12700000D03*
X-60452000Y-12700000D03*
D32*
X-14986000Y-6096000D03*
D31*
X-76454000Y-12700000D03*
X-83644000Y1270000D03*
D32*
X-13462000Y-4572000D03*
X-13462000Y0D03*
D31*
X-44165184Y-31973185D03*
X-84406000Y1270000D03*
X-91186000Y-12954000D03*
X-78994000Y-8890000D03*
D32*
X-18288000Y-29972000D03*
D31*
X-92583000Y-26670000D03*
X-44704000Y-32512000D03*
D32*
X-16510000Y-6096000D03*
D31*
X-86692000Y1270000D03*
X-91948000Y-4318000D03*
X-82042000Y-40386000D03*
X-69596000Y-12446000D03*
X-69596000Y-23876000D03*
X-91948000Y-5080000D03*
D32*
X-11938000Y-7620000D03*
D31*
X-45781630Y-32512000D03*
D32*
X-13462000Y-3048000D03*
X-7366000Y-1524000D03*
D31*
X-87454000Y2032000D03*
X-26161999Y-32003999D03*
X-68072000Y-15494000D03*
X-81280000Y-38862000D03*
X-45242815Y-33050816D03*
X-18669000Y-12192000D03*
X-67310000Y-15494000D03*
X-71120000Y-23876000D03*
D32*
X-22860000Y-32766000D03*
X-10414000Y-6096000D03*
X-19812000Y-34290000D03*
D31*
X-81026000Y-15240000D03*
X-67310000Y-13970000D03*
X-81026000Y-12954000D03*
X-98552000Y-8636000D03*
X-69596000Y-15494000D03*
D32*
X-8890000Y-3048000D03*
D31*
X-66675000Y-32512000D03*
X-91186000Y-8636000D03*
X-26289000Y-13335000D03*
X-66675000Y-31434370D03*
X-76708000Y-16002000D03*
X-70358000Y-12446000D03*
X-68834000Y-13970000D03*
X-29337000Y-21717000D03*
X-85168000Y1270000D03*
X-86614000Y-22733000D03*
X-18669000Y-23368000D03*
X-84455000Y-39751000D03*
D32*
X-8890000Y-1524000D03*
D31*
X-25908000Y-26669999D03*
D32*
X-18288000Y-34290000D03*
D31*
X-67213815Y-33050816D03*
X-61849000Y-32512000D03*
D32*
X-10414000Y-4572000D03*
D31*
X-91186000Y-13716000D03*
X-67310000Y-12446000D03*
D32*
X-13462000Y-1524000D03*
D31*
X-77724000Y-17780000D03*
X-17907000Y-12192000D03*
X-49403000Y-28448000D03*
X-80518000Y-17272000D03*
X-91186000Y-18034000D03*
D32*
X-11938000Y0D03*
D31*
X-12573000Y-20574000D03*
X-29717999Y-28956000D03*
X-80518000Y-39624000D03*
X-81026000Y-14478000D03*
X-18669000Y-17780000D03*
X-43626369Y-32512000D03*
X-82296000Y-4318000D03*
X-91186000Y-9398000D03*
X-12573000Y-14986000D03*
X-13335000Y-26162000D03*
X-64262000Y-18542000D03*
X-97790000Y-13716000D03*
X-32766000Y-9144000D03*
X-87122000Y-23241000D03*
X-81026000Y-16002000D03*
X-70358000Y-14732000D03*
X-81280000Y-41148000D03*
X-27051000Y-13335000D03*
X-91186000Y-14478000D03*
X-81026000Y-10668000D03*
X-91186000Y-19558000D03*
X-80518000Y-40386000D03*
X-102616000Y-2540000D03*
D32*
X-11938000Y-3048000D03*
X-21336000Y-32766000D03*
D31*
X-70358000Y-13208000D03*
X-65597369Y-32512000D03*
X-81026000Y-9906000D03*
X-80518000Y-41148000D03*
D32*
X-16764000Y-31242000D03*
D31*
X-32131000Y-16891000D03*
X-80264000Y-16002000D03*
D32*
X-10414000Y0D03*
D31*
X-33020000Y-16891000D03*
X-98048000Y-3556000D03*
D32*
X-11938000Y-6096000D03*
D31*
X-60833000Y-33528000D03*
D32*
X-10414000Y-1524000D03*
D31*
X-84709000Y-12827000D03*
X-78486000Y-9398000D03*
X-103378000Y-2540000D03*
X-27305000Y-15240000D03*
X-66136184Y-31973185D03*
D32*
X-21336000Y-35560000D03*
D31*
X-32639000Y-13335000D03*
D32*
X-14986000Y-4572000D03*
X-19812000Y-32766000D03*
X-16764000Y-32766000D03*
X-19812000Y-31242000D03*
D31*
X-17907000Y-23368000D03*
X-67310000Y-14732000D03*
X-98679000Y-3556000D03*
X-26161999Y-32766000D03*
X-85471000Y-38481000D03*
X-53467000Y-12192000D03*
X-97409000Y-3556000D03*
X-68834000Y-15494000D03*
X-12573000Y-26162000D03*
X-82042000Y-39624000D03*
X-31877000Y-8255000D03*
D32*
X-11938000Y-9144000D03*
D31*
X-80518000Y-9398000D03*
D32*
X-16764000Y-34290000D03*
D31*
X-68834000Y-14732000D03*
X-72390000Y-28448000D03*
X-38862000Y-33655000D03*
X-67752630Y-32512000D03*
X-94234000Y-27686000D03*
D32*
X-22860000Y-31242000D03*
D31*
X-91186000Y-18796000D03*
X-69596000Y-13208000D03*
X-85930000Y1270000D03*
D32*
X-7366000Y1524000D03*
D31*
X-26161999Y-30480000D03*
X-68834000Y-13208000D03*
X-97790000Y-8636000D03*
X-13335000Y-14986000D03*
X-52578000Y-11303000D03*
D32*
X-16510000Y-7620000D03*
D31*
X-84406000Y2032000D03*
X-68834000Y-12446000D03*
X-67213815Y-31973185D03*
D32*
X-11938000Y-4572000D03*
X-8890000Y-4572000D03*
D31*
X-86233000Y-22098000D03*
D32*
X-10414000Y1524000D03*
X-13462000Y-7620000D03*
D31*
X-31750000Y-13335000D03*
X-50419000Y-28448000D03*
X-82296000Y-5080000D03*
X-30479999Y-28956001D03*
D32*
X-21336000Y-31242000D03*
D31*
X-81026000Y-13716000D03*
X-98552000Y-13716000D03*
X-32766000Y-8255000D03*
X-53467000Y-11303000D03*
X-44704000Y-31434370D03*
X-87454000Y1270000D03*
D32*
X-7366000Y-3048000D03*
X-21336000Y-29972000D03*
X-19812000Y-35560000D03*
D31*
X-80010000Y-8890000D03*
X-80518000Y-38862000D03*
X-102616000Y-1778000D03*
D32*
X-18288000Y-32766000D03*
X-18288000Y-35560000D03*
D31*
X-80010000Y-17780000D03*
D32*
X-18288000Y-31242000D03*
X-13462000Y1524000D03*
D31*
X-98552000Y-18796000D03*
X-77216000Y-17272000D03*
X-27051000Y-20574000D03*
X-81026000Y-16764000D03*
X-66136184Y-33050816D03*
X-82296000Y-5842000D03*
X-66675000Y-33589631D03*
X-91186000Y-7874000D03*
D32*
X-19812000Y-29972000D03*
D31*
X-76708000Y-16764000D03*
D32*
X-21336000Y-34290000D03*
D31*
X-39878000Y-32639000D03*
X-71374000Y-28448000D03*
X-25907999Y-25908001D03*
X-27813000Y-20574000D03*
D32*
X-10414000Y-3048000D03*
X-14986000Y-7620000D03*
D31*
X-69596000Y-23114000D03*
X-69596000Y-14732000D03*
D32*
X-11938000Y1524000D03*
D31*
X-76962000Y-11938000D03*
X-68072000Y-12446000D03*
X-79502000Y-9398000D03*
X-91186000Y-5080000D03*
D32*
X-11938000Y-1524000D03*
D31*
X-29845000Y-17145000D03*
X-39370000Y-33147000D03*
D32*
X-8890000Y1524000D03*
D31*
X-26543000Y-15240000D03*
X-82042000Y-41148000D03*
X-91186000Y-4318000D03*
X-91948000Y-3556000D03*
X-70358000Y-23876000D03*
X-79248000Y-17780000D03*
X-93472000Y-27178000D03*
X-68072000Y-13208000D03*
D32*
X-22860000Y-34290000D03*
X-13462000Y-6096000D03*
D31*
X-26162000Y-31242000D03*
X-29337000Y-20955000D03*
X-85090000Y-39116000D03*
X-103378000Y-1778000D03*
X-68072000Y-14732000D03*
X-78486000Y-17780000D03*
X-91186000Y-3556000D03*
D32*
X-7366000Y0D03*
D31*
X-44165184Y-33050816D03*
X-81026000Y-12192000D03*
X-61341000Y-33020000D03*
X-81280000Y-39624000D03*
X-45242815Y-31973185D03*
X-69596000Y-13970000D03*
X-67310000Y-13208000D03*
X-81280000Y-40386000D03*
X-13335000Y-20574000D03*
X-84709000Y-13589000D03*
X-70358000Y-15494000D03*
X-68072000Y-13970000D03*
X-17907000Y-17780000D03*
X-97790000Y-18796000D03*
X-81026000Y-11430000D03*
X-70358000Y-13970000D03*
D32*
X-8890000Y0D03*
D31*
X-44704000Y-33589631D03*
%TO.N,+3V3*%
X-19812000Y-24892000D03*
X-91186000Y-10922000D03*
X-50164999Y-7111999D03*
X-26162000Y-34417000D03*
X-56007000Y-19177000D03*
X-90424000Y-11684000D03*
X-65659000Y-6858000D03*
X-21336000Y-24892000D03*
X-26669999Y-27685999D03*
X-19812000Y-25654000D03*
X-19050000Y-24892000D03*
X-28575000Y-13335000D03*
X-56007000Y-24511000D03*
X-24765000Y-16764000D03*
X-56007000Y-19939000D03*
X-19050000Y-25654000D03*
X-27813000Y-13335000D03*
X-48514000Y-7112000D03*
X-20574000Y-25654000D03*
X-70358000Y-27686000D03*
X-46228000Y-7112000D03*
X-81231000Y-1524000D03*
X-73279000Y-17780000D03*
X-47752000Y-7112000D03*
X-68834000Y-26924000D03*
X-19050000Y-26416000D03*
X-56007000Y-23749000D03*
X-48387000Y-27686000D03*
X-56007000Y-22987000D03*
X-22860000Y-26416000D03*
X-18288000Y-26416000D03*
X-74168000Y-8636000D03*
X-29210000Y-8255000D03*
X-16764000Y-25654000D03*
X-25907999Y-25019000D03*
X-26161999Y-33655000D03*
X-27431998Y-28448000D03*
X-78945000Y-762000D03*
X-73406000Y-9398000D03*
X-89662000Y-12446000D03*
X-25527000Y-15240000D03*
X-73152000Y-12319000D03*
X-18288000Y-25654000D03*
X-21336000Y-27178000D03*
X-22098000Y-27178000D03*
X-32639000Y-21717000D03*
X-56007000Y-17653000D03*
X-29210000Y-10033000D03*
X-18288000Y-24892000D03*
X-22098000Y-26416000D03*
X-56007000Y-18415000D03*
X-72644000Y-18415000D03*
X-51054000Y-8001000D03*
X-17526000Y-24892000D03*
X-56007000Y-16891000D03*
X-16764000Y-26416000D03*
X-90424000Y-34036000D03*
X-17526000Y-26416000D03*
X-69469000Y-18288000D03*
X-90424000Y-10922000D03*
X-21336000Y-26416000D03*
X-50165001Y-8000998D03*
X-45466000Y-7112000D03*
X-69596000Y-27686000D03*
X-89662000Y-11684000D03*
X-56007000Y-22225000D03*
X-26670000Y-28448000D03*
X-86233000Y-12827000D03*
X-78183000Y-762000D03*
X-22098000Y-25654000D03*
X-79707000Y-762000D03*
X-75692000Y-7112000D03*
X-30099000Y-8255000D03*
X-29210000Y-9144000D03*
X-70358000Y-9652000D03*
X-16764000Y-24892000D03*
X-17526000Y-25654000D03*
X-20574000Y-27178000D03*
X-24765000Y-15240000D03*
X-47625000Y-27686000D03*
X-19812000Y-26416000D03*
X-48387000Y-28448000D03*
X-74930000Y-7874000D03*
X-32639000Y-20955000D03*
X-80469000Y-1524000D03*
X-22860000Y-25654000D03*
X-69596000Y-26924000D03*
X-41910000Y-27813000D03*
X-91186000Y-11684000D03*
X-77421000Y-1524000D03*
X-63754000Y-27813000D03*
X-25908000Y-24257000D03*
X-67691000Y-18288000D03*
X-86233000Y-13589000D03*
X-89662000Y-13208000D03*
X-27431999Y-27686001D03*
X-56007000Y-20701000D03*
X-89662000Y-33655000D03*
X-20574000Y-24892000D03*
X-22860000Y-27178000D03*
X-70358000Y-28448000D03*
X-24765000Y-16002000D03*
X-46990000Y-7112000D03*
X-56007000Y-21463000D03*
%TO.N,/microcontroller/AVDD*%
X-65278000Y-9652000D03*
X-74168000Y-6858000D03*
D33*
%TO.N,+5V*%
X-100076000Y-6477000D03*
D31*
%TO.N,Net-(U18-Q3)*%
X-66167000Y-28829000D03*
%TO.N,Net-(U19-Q3)*%
X-44196000Y-28829000D03*
D30*
%TO.N,/microcontroller/SPI.nCS3*%
X-64516000Y-19939000D03*
X-79883000Y-19685000D03*
%TO.N,/microcontroller/SPI.nCS4*%
X-64643000Y-21463001D03*
X-80518000Y-20447000D03*
%TO.N,/microcontroller/SPI.SCK*%
X-59944000Y-29083000D03*
X-76962000Y-4445000D03*
X-29464000Y-31623000D03*
X-32512000Y-31877000D03*
X-38100000Y-27940000D03*
X-29718000Y-24326999D03*
X-88519000Y-13716000D03*
%TO.N,/microcontroller/SPI.SDI*%
X-38989000Y-27940000D03*
X-87884000Y-14351000D03*
X-33401000Y-32766000D03*
X-29083000Y-25908000D03*
X-77610778Y-6223000D03*
X-29337000Y-32385000D03*
X-60833000Y-29083000D03*
D34*
%TO.N,/power/SHUTTER_in*%
X-96266000Y-13716000D03*
D30*
%TO.N,/microcontroller/SPI.SDO*%
X-61722000Y-29083000D03*
X-78232000Y-7620000D03*
X-39878000Y-27940000D03*
X-29083000Y-24892000D03*
X-87249000Y-14859000D03*
X-31369000Y-33528000D03*
D34*
%TO.N,/power/PPS_in*%
X-96266000Y-8636000D03*
D31*
%TO.N,/microcontroller/nMCLR*%
X-61595000Y-14351000D03*
X-103505000Y-24003000D03*
X-64198500Y-7683500D03*
D32*
%TO.N,/microcontroller/UNLAUNCH*%
X-74881000Y-762000D03*
X-56465631Y-8431369D03*
X-49276000Y-13843000D03*
D34*
%TO.N,/power/PRELAUNCH_in*%
X-96266000Y-18796000D03*
%TO.N,Net-(R7-Pad1)*%
X-90805000Y-1524000D03*
D31*
%TO.N,+5V*%
X-98552000Y-5334000D03*
D34*
%TO.N,Net-(R7-Pad1)*%
X-102870000Y1524000D03*
D31*
%TO.N,/microcontroller/INTRPT2*%
X-56642000Y-14732000D03*
D34*
X-94488000Y-13716000D03*
D31*
%TO.N,/microcontroller/INTRPT0*%
X-20701000Y-9398000D03*
X-20828000Y-20574000D03*
X-20828000Y-14986000D03*
X-15494000Y-17780000D03*
X-15494000Y-12192000D03*
X-24003000Y-19812000D03*
X-15494000Y-23368000D03*
%TO.N,/microcontroller/INTRPT1*%
X-57277000Y-15367000D03*
D34*
X-94488000Y-18796000D03*
D31*
X-30988000Y-11938000D03*
X-28702000Y-18288000D03*
D30*
%TO.N,/microcontroller/SPI.nCS2*%
X-59690000Y-18415000D03*
X-62103000Y-28067000D03*
%TO.N,/microcontroller/SPI.nCS1*%
X-59690000Y-16891000D03*
X-40767000Y-27940000D03*
D31*
%TO.N,/microcontroller/PGD*%
X-75692000Y-12319000D03*
X-103124000Y-25273000D03*
%TO.N,/microcontroller/PGC*%
X-75692000Y-14605000D03*
%TO.N,/microcontroller/TEMP2_READY*%
X-63627000Y-24765000D03*
X-68072000Y-24765000D03*
%TO.N,/sync/Q*%
X-30353000Y-15367000D03*
D30*
%TO.N,/sync/SYNC1-*%
X-17770262Y-9767070D03*
%TO.N,/sync/SYNC1+*%
X-17762544Y-9028468D03*
%TO.N,/sync/SYNC3-*%
X-17780000Y-15355573D03*
%TO.N,/sync/SYNC3+*%
X-17780000Y-14616930D03*
%TO.N,/sync/SYNC5-*%
X-17780000Y-20943070D03*
%TO.N,/sync/SYNC5+*%
X-17763333Y-20204615D03*
%TO.N,/microcontroller/SPI.nCS6*%
X-59563000Y-24511000D03*
%TO.N,/microcontroller/SPI.nCS5*%
X-59563000Y-22987000D03*
D32*
%TO.N,GNDPWR*%
X-78740000Y-52070000D03*
X-102870000Y-31115000D03*
X-40640000Y-50165000D03*
X0Y-13970000D03*
X-3810000Y-10160000D03*
X0Y-31115000D03*
X-88265000Y-44450000D03*
X-110490000Y-29210000D03*
X-3810000Y-33020000D03*
X-63500000Y-50165000D03*
X0Y-33020000D03*
X-48260000Y-52070000D03*
D31*
X-97536000Y-49784000D03*
D32*
X-34925000Y-52070000D03*
X-31115000Y-52070000D03*
X-25400000Y-50165000D03*
X-3810000Y-29210000D03*
X-27305000Y-50165000D03*
X-110490000Y-31115000D03*
X0Y-10160000D03*
X-55880000Y-52070000D03*
X-38735000Y-52070000D03*
D31*
X-106553000Y-32385000D03*
D32*
X-74930000Y-52070000D03*
X-71120000Y-52070000D03*
X-23495000Y-50165000D03*
X0Y-27305000D03*
X-90170000Y-46355000D03*
X-86360000Y-48260000D03*
X-34925000Y-50165000D03*
X0Y-19685000D03*
X-3810000Y-17780000D03*
X-44450000Y-52070000D03*
X-97790000Y-52070000D03*
X-73025000Y-50165000D03*
X-21590000Y-50165000D03*
X-1905000Y-21590000D03*
X-33020000Y-52070000D03*
X-65405000Y-50165000D03*
X-84455000Y-48260000D03*
X-1905000Y-13970000D03*
X0Y-23495000D03*
X-3810000Y-31115000D03*
X-74930000Y-50165000D03*
X-1905000Y-31115000D03*
X-93980000Y-48260000D03*
X-1905000Y-17780000D03*
X-33020000Y-50165000D03*
X-69215000Y-50165000D03*
X-21590000Y-52070000D03*
X-55880000Y-50165000D03*
X-1905000Y-4445000D03*
X-95885000Y-52070000D03*
X0Y-17780000D03*
X-29210000Y-52070000D03*
X-78740000Y-50165000D03*
X-3810000Y-12065000D03*
X-52070000Y-50165000D03*
X-44450000Y-50165000D03*
X-82550000Y-48260000D03*
X-31115000Y-50165000D03*
X-71120000Y-50165000D03*
D31*
X-105664000Y-32004000D03*
D32*
X-102870000Y-29210000D03*
X-59690000Y-52070000D03*
D31*
X-96647000Y-49276000D03*
X-104394000Y-32639000D03*
D32*
X-59690000Y-50165000D03*
X-61595000Y-52070000D03*
X-1905000Y-25400000D03*
X-50165000Y-50165000D03*
X-36830000Y-52070000D03*
X-76835000Y-50165000D03*
X-1905000Y-10160000D03*
X-80645000Y-50165000D03*
X-84455000Y-46355000D03*
X-50165000Y-52070000D03*
X0Y-29210000D03*
X-3810000Y-19685000D03*
X-1905000Y-23495000D03*
X-27305000Y-52070000D03*
X-1905000Y-8255000D03*
X-38735000Y-50165000D03*
X-86360000Y-46355000D03*
X-46355000Y-50165000D03*
X-3810000Y-15875000D03*
X-36830000Y-50165000D03*
X-88265000Y-46355000D03*
X-61595000Y-50165000D03*
X-82550000Y-50165000D03*
X-3810000Y-21590000D03*
X-1905000Y-19685000D03*
X-76835000Y-52070000D03*
X-84455000Y-50165000D03*
X0Y-34925000D03*
X-46355000Y-52070000D03*
X0Y-4445000D03*
X-88265000Y-48260000D03*
X-80645000Y-52070000D03*
X-1905000Y-6350000D03*
X-67310000Y-52070000D03*
X-48260000Y-50165000D03*
X-53975000Y-52070000D03*
X-52070000Y-52070000D03*
X0Y-6350000D03*
X-3810000Y-8255000D03*
X-95885000Y-50165000D03*
X-63500000Y-52070000D03*
X-42545000Y-52070000D03*
X-1905000Y-12065000D03*
X-1905000Y-15875000D03*
D31*
X-98552000Y-49657000D03*
X-107315000Y-32893000D03*
D32*
X-3810000Y-4445000D03*
X-73025000Y-52070000D03*
X-3810000Y-27305000D03*
D31*
X-95758000Y-48768000D03*
D32*
X-93980000Y-52070000D03*
X-3810000Y-34925000D03*
X-3810000Y-13970000D03*
D31*
X-107823000Y-33655000D03*
D32*
X-1905000Y-29210000D03*
X-92075000Y-48260000D03*
X-29210000Y-50165000D03*
D31*
X-95504000Y-48006000D03*
D32*
X-90170000Y-48260000D03*
X-110490000Y-27305000D03*
X-3810000Y-23495000D03*
X-104775000Y-29210000D03*
X-3810000Y-25400000D03*
X-57785000Y-52070000D03*
X-67310000Y-50165000D03*
X-100965000Y-29210000D03*
X-69215000Y-52070000D03*
X-1905000Y-33020000D03*
X0Y-12065000D03*
X-3810000Y-6350000D03*
X-82550000Y-46355000D03*
X-90170000Y-44450000D03*
X-23495000Y-52070000D03*
X-40640000Y-52070000D03*
X-42545000Y-50165000D03*
D31*
X-104775000Y-32004000D03*
D32*
X-1905000Y-27305000D03*
X-53975000Y-50165000D03*
X-106680000Y-29210000D03*
D31*
X-107442000Y-34290000D03*
D32*
X-108585000Y-31115000D03*
X0Y-15875000D03*
X0Y-21590000D03*
X-92075000Y-46355000D03*
X0Y-25400000D03*
X-57785000Y-50165000D03*
X-1905000Y-34925000D03*
X0Y-8255000D03*
X-93980000Y-50165000D03*
X-65405000Y-52070000D03*
X-108585000Y-29210000D03*
X-82550000Y-52070000D03*
D33*
%TO.N,Net-(C49-Pad1)*%
X-88138000Y-28067000D03*
D31*
%TO.N,/rtd/LDO2*%
X-64135000Y-31115000D03*
%TO.N,/rtd/LDO1*%
X-41910000Y-31115000D03*
%TO.N,/rtd/VREF2*%
X-72390000Y-33401000D03*
X-71755000Y-32766000D03*
%TO.N,/rtd/VREF1*%
X-50419000Y-33401000D03*
X-49784000Y-32766000D03*
%TO.N,/microcontroller/RC2*%
X-71501000Y-6096000D03*
X-73152000Y-6858000D03*
D33*
%TO.N,/rtd/TEMP2.RSENSE*%
X-74168000Y-38227000D03*
%TO.N,/rtd/TEMP1.RSENSE*%
X-52324000Y-38227000D03*
D30*
%TO.N,/eth_phy/ETH.LEDB*%
X-67945000Y-6604000D03*
X-85344000Y-25527000D03*
%TO.N,/eth_phy/ETH.LEDA*%
X-68718500Y-7112177D03*
X-83439000Y-39497000D03*
D31*
%TO.N,/rtd/TEMP2.CH4*%
X-71628000Y-37973000D03*
%TO.N,/rtd/TEMP2.CH6*%
X-70104500Y-37973000D03*
%TO.N,/rtd/TEMP2.CH8*%
X-68834000Y-38354000D03*
%TO.N,/rtd/TEMP2.CH10*%
X-65913000Y-38735000D03*
%TO.N,/rtd/TEMP2.CH12*%
X-64135000Y-38227000D03*
%TO.N,/rtd/TEMP2.CH14*%
X-62865000Y-37973000D03*
%TO.N,/rtd/TEMP2.CH16*%
X-61595000Y-37338000D03*
%TO.N,/rtd/TEMP2.CH18*%
X-61087000Y-36068000D03*
%TO.N,/rtd/TEMP2.CH20*%
X-61087000Y-34725706D03*
%TO.N,/rtd/TEMP1.CH4*%
X-48895000Y-37465000D03*
%TO.N,/rtd/TEMP1.CH6*%
X-47879000Y-38227000D03*
%TO.N,/rtd/TEMP1.CH8*%
X-46609000Y-38735000D03*
%TO.N,/rtd/TEMP1.CH10*%
X-43434000Y-39243000D03*
%TO.N,/rtd/TEMP1.CH12*%
X-42164000Y-37846000D03*
%TO.N,/rtd/TEMP1.CH14*%
X-41148000Y-37592000D03*
%TO.N,/rtd/TEMP1.CH16*%
X-39878000Y-37338000D03*
%TO.N,/rtd/TEMP1.CH18*%
X-39116000Y-36068000D03*
%TO.N,/rtd/TEMP1.CH20*%
X-39116000Y-34671000D03*
D32*
%TO.N,/power/PPS*%
X-28575000Y-17145000D03*
D34*
X-94488000Y-8636000D03*
D32*
X-47879000Y-14605000D03*
%TD*%
D35*
%TO.N,Net-(R7-Pad1)*%
X-90805000Y-1524000D02*
X-94170500Y-1524000D01*
X-95186500Y-508000D02*
X-102108000Y-508000D01*
X-102870000Y254000D02*
X-102870000Y1524000D01*
X-94170500Y-1524000D02*
X-95186500Y-508000D01*
X-102108000Y-508000D02*
X-102870000Y254000D01*
D36*
%TO.N,+5V*%
X-90678000Y-2413000D02*
X-90484263Y-2413000D01*
X-90484263Y-2413000D02*
X-89916000Y-1844737D01*
X-89916000Y-1844737D02*
X-89916000Y127000D01*
X-89916000Y127000D02*
X-90170000Y381000D01*
X-90678000Y-2413000D02*
X-89027000Y-2413000D01*
X-94096789Y-2413000D02*
X-90678000Y-2413000D01*
X-100076000Y-6477000D02*
X-99695000Y-6477000D01*
X-99695000Y-6477000D02*
X-98552000Y-5334000D01*
D37*
%TO.N,/microcontroller/UNLAUNCH*%
X-63373000Y-1524000D02*
X-56465631Y-8431369D01*
X-74881000Y-762000D02*
X-74119000Y-1524000D01*
X-74119000Y-1524000D02*
X-63373000Y-1524000D01*
D36*
%TO.N,+5V*%
X-100076000Y-6477000D02*
X-98160789Y-6477000D01*
X-98160789Y-6477000D02*
X-94096789Y-2413000D01*
X-86487000Y127000D02*
X-73025000Y127000D01*
X-89027000Y-2413000D02*
X-86487000Y127000D01*
X-73025000Y127000D02*
X-72136000Y-762000D01*
X-72136000Y-762000D02*
X-62611000Y-762000D01*
X-62611000Y-762000D02*
X-61722000Y-1651000D01*
X-61722000Y-1651000D02*
X-55245000Y-1651000D01*
X-55245000Y-1651000D02*
X-52832000Y762000D01*
D38*
%TO.N,/eth_phy/ETH.LEDB*%
X-67945000Y-6604000D02*
X-67691000Y-6604000D01*
X-65405000Y-8890000D02*
X-64897000Y-8890000D01*
X-63500000Y-10287000D02*
X-63500000Y-18923000D01*
X-63500000Y-18923000D02*
X-63881000Y-19304000D01*
X-63881000Y-19304000D02*
X-63881000Y-21717000D01*
X-67691000Y-6604000D02*
X-65405000Y-8890000D01*
X-64389000Y-22225000D02*
X-65024000Y-22225000D01*
X-63881000Y-21717000D02*
X-64389000Y-22225000D01*
X-66217800Y-21031200D02*
X-79171800Y-21031200D01*
X-64897000Y-8890000D02*
X-63500000Y-10287000D01*
X-65024000Y-22225000D02*
X-66217800Y-21031200D01*
X-79171800Y-21031200D02*
X-79375000Y-20828000D01*
X-80264000Y-21209000D02*
X-81026000Y-21209000D01*
X-79375000Y-20828000D02*
X-79883000Y-20828000D01*
X-79883000Y-20828000D02*
X-80264000Y-21209000D01*
X-81026000Y-21209000D02*
X-85344000Y-25527000D01*
%TO.N,/eth_phy/ETH.LEDA*%
X-83439000Y-39497000D02*
X-81280000Y-37338000D01*
X-81280000Y-37338000D02*
X-80264000Y-37338000D01*
X-80264000Y-37338000D02*
X-78359000Y-35433000D01*
X-78359000Y-35433000D02*
X-78359000Y-33528000D01*
X-78359000Y-33528000D02*
X-67564000Y-22733000D01*
X-67564000Y-22733000D02*
X-64008000Y-22733000D01*
X-64008000Y-22733000D02*
X-63373000Y-22098000D01*
X-63373000Y-22098000D02*
X-63373000Y-19685000D01*
X-63373000Y-19685000D02*
X-62992000Y-19304000D01*
X-62992000Y-19304000D02*
X-62992000Y-10033000D01*
X-62992000Y-10033000D02*
X-65532000Y-7493000D01*
X-65532000Y-7493000D02*
X-66040000Y-7493000D01*
X-66040000Y-7493000D02*
X-67564000Y-5969000D01*
X-67564000Y-5969000D02*
X-68326000Y-5969000D01*
X-68326000Y-5969000D02*
X-68707000Y-6350000D01*
X-68707000Y-6350000D02*
X-68707000Y-7100677D01*
X-68707000Y-7100677D02*
X-68718500Y-7112177D01*
%TO.N,/eth_phy/ETH.TX_P*%
X-72984992Y-23454992D02*
X-72390000Y-22860000D01*
%TO.N,/eth_phy/ETH.TX_N*%
X-74127992Y-22311992D02*
X-73533000Y-21717000D01*
%TO.N,/microcontroller/SPI.nCS3*%
X-79883000Y-19685000D02*
X-79629000Y-19939000D01*
X-79629000Y-19939000D02*
X-64516000Y-19939000D01*
%TO.N,/microcontroller/SPI.nCS4*%
X-65659001Y-20447000D02*
X-64643000Y-21463001D01*
X-80518000Y-20447000D02*
X-65659001Y-20447000D01*
%TO.N,+3V3*%
X-63754000Y-27813000D02*
X-64064344Y-27813000D01*
X-64064344Y-27813000D02*
X-65129972Y-28878628D01*
X-41980657Y-27813000D02*
X-43064219Y-28896562D01*
X-41910000Y-27813000D02*
X-41980657Y-27813000D01*
%TO.N,/microcontroller/AVDD*%
X-65278000Y-9652000D02*
X-66281000Y-9652000D01*
D37*
X-74168000Y-6858000D02*
X-73253423Y-7772577D01*
X-73253423Y-7772577D02*
X-68160423Y-7772577D01*
D38*
X-66281000Y-9652000D02*
X-66294000Y-9639000D01*
D37*
X-68160423Y-7772577D02*
X-66294000Y-9639000D01*
D39*
%TO.N,Net-(U18-Q3)*%
X-66126992Y-27899992D02*
X-66126992Y-28788992D01*
X-66126992Y-28788992D02*
X-66167000Y-28829000D01*
%TO.N,Net-(U19-Q3)*%
X-44196000Y-27873082D02*
X-44132657Y-27809739D01*
X-44196000Y-28829000D02*
X-44196000Y-27873082D01*
D38*
%TO.N,/microcontroller/SPI.SCK*%
X-38100000Y-27940000D02*
X-34163000Y-31877000D01*
X-83058000Y-6604000D02*
X-79121000Y-6604000D01*
X-60248800Y-21894800D02*
X-60248800Y-26035000D01*
X-59944000Y-29083000D02*
X-59817000Y-29210000D01*
X-76962000Y-4445000D02*
X-76454000Y-3937000D01*
X-40894000Y-24765000D02*
X-38100000Y-27559000D01*
X-29718000Y-24326999D02*
X-29718000Y-25019000D01*
X-30269218Y-26441400D02*
X-29921200Y-26441400D01*
X-65405000Y-3937000D02*
X-57912000Y-11430000D01*
X-38100000Y-27559000D02*
X-38100000Y-27940000D01*
X-60045600Y-26238200D02*
X-59916329Y-26238200D01*
X-76454000Y-3937000D02*
X-65405000Y-3937000D01*
X-52832000Y-24765000D02*
X-40894000Y-24765000D01*
X-29083000Y-28448000D02*
X-29083000Y-31242000D01*
X-59916329Y-26644600D02*
X-60045600Y-26644600D01*
X-29921200Y-25222200D02*
X-30269218Y-25222200D01*
X-30269218Y-25628600D02*
X-29921200Y-25628600D01*
X-79121000Y-6604000D02*
X-76962000Y-4445000D01*
X-57277000Y-29210000D02*
X-52832000Y-24765000D01*
X-29718000Y-27813000D02*
X-29083000Y-28448000D01*
X-29718000Y-26644600D02*
X-29718000Y-27813000D01*
X-29083000Y-31242000D02*
X-29464000Y-31623000D01*
X-60248800Y-28778200D02*
X-59944000Y-29083000D01*
X-57912000Y-19558000D02*
X-60248800Y-21894800D01*
X-59817000Y-29210000D02*
X-57277000Y-29210000D01*
X-88519000Y-12065000D02*
X-83058000Y-6604000D01*
X-57912000Y-11430000D02*
X-57912000Y-19558000D01*
X-88519000Y-13716000D02*
X-88519000Y-12065000D01*
X-29921200Y-26035000D02*
X-30269218Y-26035000D01*
X-60248800Y-26847800D02*
X-60248800Y-28778200D01*
X-34163000Y-31877000D02*
X-32512000Y-31877000D01*
X-29718000Y-26644600D02*
G75*
G03*
X-29921200Y-26441400I-203200J0D01*
G01*
X-60248800Y-26035000D02*
G75*
G03*
X-60045600Y-26238200I203200J0D01*
G01*
X-30472400Y-26238200D02*
G75*
G03*
X-30269218Y-26441400I203200J0D01*
G01*
X-30472400Y-25425400D02*
G75*
G03*
X-30269218Y-25628600I203200J0D01*
G01*
X-30269218Y-26034982D02*
G75*
G03*
X-30472418Y-26238200I18J-203218D01*
G01*
X-59916329Y-26644571D02*
G75*
G03*
X-59713129Y-26441400I29J203171D01*
G01*
X-30269218Y-25222182D02*
G75*
G03*
X-30472418Y-25425400I18J-203218D01*
G01*
X-29718000Y-25831800D02*
G75*
G03*
X-29921200Y-25628600I-203200J0D01*
G01*
X-29921200Y-25222200D02*
G75*
G03*
X-29718000Y-25019000I0J203200D01*
G01*
X-29921200Y-26035000D02*
G75*
G03*
X-29718000Y-25831800I0J203200D01*
G01*
X-59713100Y-26441400D02*
G75*
G03*
X-59916329Y-26238200I-203200J0D01*
G01*
X-60045600Y-26644600D02*
G75*
G03*
X-60248800Y-26847800I0J-203200D01*
G01*
%TO.N,/microcontroller/SPI.SDI*%
X-84069409Y-8781535D02*
X-84069410Y-8781535D01*
X-29083000Y-27559000D02*
X-28575000Y-28067000D01*
X-84415157Y-9010525D02*
X-84415157Y-9010526D01*
X-84644157Y-9356262D02*
X-84702525Y-9297893D01*
X-58420000Y-11684000D02*
X-65659000Y-4445000D01*
X-85218894Y-9930999D02*
X-85277262Y-9872630D01*
X-60833000Y-29083000D02*
X-60833000Y-21336000D01*
X-84069410Y-8781535D02*
X-84127788Y-8723156D01*
X-87884000Y-12192000D02*
X-85852000Y-10160000D01*
X-85218893Y-9930999D02*
X-85218894Y-9930999D01*
X-38989000Y-27686000D02*
X-38989000Y-27940000D01*
X-85277262Y-9585262D02*
X-85277263Y-9585263D01*
X-77851000Y-6223000D02*
X-77610778Y-6223000D01*
X-83553052Y-7861052D02*
X-82804000Y-7112000D01*
X-75819000Y-4445000D02*
X-77597000Y-6223000D01*
X-60833000Y-29083000D02*
X-60833000Y-29337000D01*
X-33401000Y-32766000D02*
X-34163000Y-32766000D01*
X-82804000Y-7112000D02*
X-78740000Y-7112000D01*
X-60325000Y-29845000D02*
X-57023000Y-29845000D01*
X-84127788Y-8435788D02*
X-84127789Y-8435789D01*
X-85564631Y-10160000D02*
X-85506262Y-10218368D01*
X-41275000Y-25400000D02*
X-38989000Y-27686000D01*
X-29083000Y-25908000D02*
X-29083000Y-27559000D01*
X-57023000Y-29845000D02*
X-52578000Y-25400000D01*
X-65659000Y-4445000D02*
X-75819000Y-4445000D01*
X-77597000Y-6223000D02*
X-77610778Y-6223000D01*
X-84989894Y-9585263D02*
X-84931525Y-9643631D01*
X-60833000Y-29337000D02*
X-60325000Y-29845000D01*
X-34163000Y-32766000D02*
X-38989000Y-27940000D01*
X-78740000Y-7112000D02*
X-77851000Y-6223000D01*
X-28575000Y-28067000D02*
X-28575000Y-31623000D01*
X-83553051Y-7861051D02*
X-83553052Y-7861052D01*
X-84644156Y-9356262D02*
X-84644157Y-9356262D01*
X-60833000Y-21336000D02*
X-59944000Y-20447000D01*
X-59563000Y-20447000D02*
X-59182000Y-20066000D01*
X-83494672Y-8206798D02*
X-83494673Y-8206798D01*
X-84702525Y-9010525D02*
X-84702526Y-9010526D01*
X-85564631Y-10159999D02*
X-85564631Y-10160000D01*
X-52578000Y-25400000D02*
X-41275000Y-25400000D01*
X-84989894Y-9585262D02*
X-84989894Y-9585263D01*
X-28575000Y-31623000D02*
X-29337000Y-32385000D01*
X-59182000Y-20066000D02*
X-59182000Y-19685000D01*
X-59182000Y-19685000D02*
X-58420000Y-18923000D01*
X-83840420Y-8435789D02*
X-83782041Y-8494167D01*
X-58420000Y-18923000D02*
X-58420000Y-11684000D01*
X-59944000Y-20447000D02*
X-59563000Y-20447000D01*
X-83494673Y-8206798D02*
X-83553051Y-8148419D01*
X-87884000Y-14351000D02*
X-87884000Y-12192000D01*
X-84415157Y-9010526D02*
X-84356778Y-9068904D01*
X-83840420Y-8435788D02*
X-83840420Y-8435789D01*
X-85277307Y-9585217D02*
G75*
G03*
X-85277261Y-9872629I143707J-143683D01*
G01*
X-85506261Y-10218367D02*
G75*
G03*
X-85218895Y-10218367I143683J143683D01*
G01*
X-84127759Y-8435817D02*
G75*
G03*
X-84127787Y-8723155I143659J-143683D01*
G01*
X-83494655Y-8494184D02*
G75*
G03*
X-83494672Y-8206798I-143745J143684D01*
G01*
X-84415116Y-9010484D02*
G75*
G03*
X-84702526Y-9010526I-143684J-143716D01*
G01*
X-84644203Y-9643585D02*
G75*
G03*
X-84644156Y-9356262I-143597J143685D01*
G01*
X-84702534Y-9010516D02*
G75*
G03*
X-84702525Y-9297893I143734J-143684D01*
G01*
X-84931524Y-9643630D02*
G75*
G03*
X-84644158Y-9643630I143683J143683D01*
G01*
X-84989917Y-9585285D02*
G75*
G03*
X-85277262Y-9585264I-143683J-143615D01*
G01*
X-84356777Y-9068903D02*
G75*
G03*
X-84069411Y-9068903I143683J143683D01*
G01*
X-85218877Y-10218385D02*
G75*
G03*
X-85218893Y-9930999I-143723J143685D01*
G01*
X-83840416Y-8435784D02*
G75*
G03*
X-84127789Y-8435789I-143684J-143716D01*
G01*
X-83782040Y-8494166D02*
G75*
G03*
X-83494674Y-8494166I143683J143683D01*
G01*
X-84069429Y-9068885D02*
G75*
G03*
X-84069409Y-8781535I-143671J143685D01*
G01*
X-85564616Y-10159984D02*
G75*
G03*
X-85852000Y-10160000I-143684J-143716D01*
G01*
X-83553086Y-7861016D02*
G75*
G03*
X-83553051Y-8148419I143686J-143684D01*
G01*
D35*
%TO.N,/power/SHUTTER_in*%
X-96266000Y-13716000D02*
X-97282000Y-12700000D01*
X-107151170Y-20320000D02*
X-108458000Y-21626830D01*
X-98806000Y-12700000D02*
X-100076000Y-13970000D01*
X-100076000Y-16764000D02*
X-103632000Y-20320000D01*
X-103632000Y-20320000D02*
X-107151170Y-20320000D01*
X-100076000Y-13970000D02*
X-100076000Y-16764000D01*
X-97282000Y-12700000D02*
X-98806000Y-12700000D01*
D38*
%TO.N,/microcontroller/SPI.SDO*%
X-84221420Y-10086789D02*
X-84044144Y-10264064D01*
X-84796157Y-10661526D02*
X-84618881Y-10838801D01*
X-87249000Y-14859000D02*
X-87249000Y-12827000D01*
X-85370894Y-11236263D02*
X-85193618Y-11413538D01*
X-84508788Y-10086787D02*
X-84508787Y-10086787D01*
X-83182049Y-9401947D02*
X-83182050Y-9401947D01*
X-61722000Y-28829000D02*
X-61722000Y-29083000D01*
X-65913000Y-4953000D02*
X-58928000Y-11938000D01*
X-56769000Y-30480000D02*
X-52324000Y-26035000D01*
X-60642500Y-30480000D02*
X-56769000Y-30480000D01*
X-52324000Y-26035000D02*
X-41529000Y-26035000D01*
X-83934050Y-9512050D02*
X-83934052Y-9512052D01*
X-78232000Y-7620000D02*
X-78105000Y-7620000D01*
X-83756775Y-9976695D02*
X-83934050Y-9799419D01*
X-58928000Y-11938000D02*
X-58928000Y-18669000D01*
X-28067000Y-25908000D02*
X-29083000Y-24892000D01*
X-75438000Y-4953000D02*
X-65913000Y-4953000D01*
X-85480985Y-11700906D02*
X-85480986Y-11700906D01*
X-85480986Y-11988276D02*
X-85480986Y-11988275D01*
X-61468000Y-21209000D02*
X-61468000Y-28575000D01*
X-84906248Y-11126169D02*
X-84906249Y-11126169D01*
X-39878000Y-27686000D02*
X-39878000Y-27940000D01*
X-61468000Y-28575000D02*
X-61722000Y-28829000D01*
X-29464000Y-33528000D02*
X-28067000Y-32131000D01*
X-83646683Y-9512052D02*
X-83469418Y-9689316D01*
X-84331512Y-10838802D02*
X-84331512Y-10838801D01*
X-83359315Y-8937315D02*
X-82042000Y-7620000D01*
X-83182050Y-9401947D02*
X-83359314Y-9224682D01*
X-85658262Y-11236261D02*
X-85658261Y-11236261D01*
X-87249000Y-12827000D02*
X-86233000Y-11811000D01*
X-61722000Y-29400500D02*
X-60642500Y-30480000D01*
X-28067000Y-32131000D02*
X-28067000Y-25908000D01*
X-83756775Y-10264065D02*
X-83756775Y-10264064D01*
X-61722000Y-29083000D02*
X-61722000Y-29400500D01*
X-82042000Y-7620000D02*
X-78232000Y-7620000D01*
X-85083524Y-10661524D02*
X-85083526Y-10661526D01*
X-85658261Y-11236261D02*
X-85658263Y-11236263D01*
X-85945631Y-11811000D02*
X-85768355Y-11988275D01*
X-83934051Y-9512050D02*
X-83934050Y-9512050D01*
X-34290000Y-33528000D02*
X-39878000Y-27940000D01*
X-84331511Y-10551432D02*
X-84331512Y-10551432D01*
X-83359314Y-8937314D02*
X-83359315Y-8937315D01*
X-84796157Y-10661525D02*
X-84796157Y-10661526D01*
X-78105000Y-7620000D02*
X-75438000Y-4953000D01*
X-84906249Y-11413539D02*
X-84906249Y-11413538D01*
X-31369000Y-33528000D02*
X-29464000Y-33528000D01*
X-58928000Y-18669000D02*
X-61468000Y-21209000D01*
X-85083525Y-10661524D02*
X-85083524Y-10661524D01*
X-31369000Y-33528000D02*
X-34290000Y-33528000D01*
X-84331512Y-10551432D02*
X-84508787Y-10374156D01*
X-83646683Y-9512051D02*
X-83646683Y-9512052D01*
X-85480986Y-11700906D02*
X-85658261Y-11523630D01*
X-85370894Y-11236262D02*
X-85370894Y-11236263D01*
X-85945631Y-11810999D02*
X-85945631Y-11811000D01*
X-83756774Y-9976695D02*
X-83756775Y-9976695D01*
X-41529000Y-26035000D02*
X-39878000Y-27686000D01*
X-84221420Y-10086788D02*
X-84221420Y-10086789D01*
X-84906249Y-11126169D02*
X-85083524Y-10948893D01*
X-84508787Y-10086787D02*
X-84508789Y-10086789D01*
X-83359312Y-8937316D02*
G75*
G03*
X-83359314Y-9224682I143712J-143684D01*
G01*
X-85768385Y-11988305D02*
G75*
G03*
X-85480986Y-11988276I143685J143705D01*
G01*
X-83646717Y-9512085D02*
G75*
G03*
X-83934051Y-9512053I-143683J-143615D01*
G01*
X-84618885Y-10838805D02*
G75*
G03*
X-84331512Y-10838802I143685J143705D01*
G01*
X-85370917Y-11236285D02*
G75*
G03*
X-85658262Y-11236264I-143683J-143615D01*
G01*
X-84221416Y-10086784D02*
G75*
G03*
X-84508789Y-10086789I-143684J-143716D01*
G01*
X-84508759Y-10086816D02*
G75*
G03*
X-84508787Y-10374156I143659J-143684D01*
G01*
X-85083533Y-10661516D02*
G75*
G03*
X-85083524Y-10948893I143733J-143684D01*
G01*
X-84906202Y-11413585D02*
G75*
G03*
X-84906248Y-11126169I-143698J143685D01*
G01*
X-85480977Y-11988284D02*
G75*
G03*
X-85480986Y-11700907I-143723J143684D01*
G01*
X-84044185Y-10264105D02*
G75*
G03*
X-83756775Y-10264065I143685J143705D01*
G01*
X-84796116Y-10661484D02*
G75*
G03*
X-85083526Y-10661526I-143684J-143716D01*
G01*
X-85658307Y-11236216D02*
G75*
G03*
X-85658261Y-11523630I143707J-143684D01*
G01*
X-85193584Y-11413505D02*
G75*
G03*
X-84906250Y-11413538I143684J143605D01*
G01*
X-85945616Y-11810984D02*
G75*
G03*
X-86233000Y-11811000I-143684J-143716D01*
G01*
X-83934085Y-9512016D02*
G75*
G03*
X-83934050Y-9799419I143685J-143684D01*
G01*
X-83469417Y-9689315D02*
G75*
G03*
X-83182051Y-9689315I143683J143683D01*
G01*
X-83182081Y-9689285D02*
G75*
G03*
X-83182049Y-9401947I-143619J143685D01*
G01*
X-84331528Y-10838785D02*
G75*
G03*
X-84331511Y-10551432I-143672J143685D01*
G01*
X-83756754Y-10264085D02*
G75*
G03*
X-83756774Y-9976695I-143746J143685D01*
G01*
D35*
%TO.N,/power/PPS_in*%
X-102870000Y-17780000D02*
X-107151170Y-17780000D01*
X-98806000Y-7620000D02*
X-101092000Y-9906000D01*
X-101092000Y-9906000D02*
X-101092000Y-16002000D01*
X-97282000Y-7620000D02*
X-98806000Y-7620000D01*
X-101092000Y-16002000D02*
X-102870000Y-17780000D01*
X-96266000Y-8636000D02*
X-97282000Y-7620000D01*
X-107151170Y-17780000D02*
X-108458000Y-19086830D01*
D39*
%TO.N,/microcontroller/nMCLR*%
X-77851000Y-8255000D02*
X-75057000Y-5461000D01*
X-103505000Y-24003000D02*
X-86614000Y-24003000D01*
X-80899000Y-8255000D02*
X-77851000Y-8255000D01*
X-86614000Y-24003000D02*
X-83185000Y-20574000D01*
X-61595000Y-10287000D02*
X-64198500Y-7683500D01*
X-61595000Y-14351000D02*
X-61595000Y-10287000D01*
X-66040000Y-5461000D02*
X-64770000Y-6731000D01*
X-83185000Y-20574000D02*
X-83185000Y-10541000D01*
X-64770000Y-7112000D02*
X-64198500Y-7683500D01*
X-64770000Y-6731000D02*
X-64770000Y-7112000D01*
X-83185000Y-10541000D02*
X-80899000Y-8255000D01*
X-75057000Y-5461000D02*
X-66040000Y-5461000D01*
D37*
%TO.N,/microcontroller/UNLAUNCH*%
X-49276000Y-13843000D02*
X-52959000Y-13843000D01*
X-55245000Y-9652000D02*
X-56465631Y-8431369D01*
X-55245000Y-11557000D02*
X-55245000Y-9652000D01*
X-52959000Y-13843000D02*
X-55245000Y-11557000D01*
D35*
%TO.N,/power/PRELAUNCH_in*%
X-98806000Y-17780000D02*
X-105192830Y-24166830D01*
X-96266000Y-18796000D02*
X-97282000Y-17780000D01*
X-97282000Y-17780000D02*
X-98806000Y-17780000D01*
X-105192830Y-24166830D02*
X-105918000Y-24166830D01*
D37*
%TO.N,/microcontroller/INTRPT2*%
X-86868000Y-2667000D02*
X-90678000Y-6477000D01*
X-56642000Y-14732000D02*
X-56642000Y-10160000D01*
X-56642000Y-10160000D02*
X-64135000Y-2667000D01*
X-64135000Y-2667000D02*
X-86868000Y-2667000D01*
X-94488000Y-10414000D02*
X-94488000Y-13716000D01*
X-92964000Y-7493000D02*
X-92964000Y-8890000D01*
X-92964000Y-8890000D02*
X-94488000Y-10414000D01*
X-91948000Y-6477000D02*
X-92964000Y-7493000D01*
X-90678000Y-6477000D02*
X-91948000Y-6477000D01*
D39*
%TO.N,/microcontroller/INTRPT0*%
X-16510000Y-23749000D02*
X-15748000Y-23749000D01*
X-15748000Y-12700000D02*
X-15494000Y-12446000D01*
X-19812000Y-22352000D02*
X-19431000Y-22733000D01*
X-20320000Y-9398000D02*
X-19812000Y-9906000D01*
X-19812000Y-15367000D02*
X-19812000Y-16764000D01*
D38*
X-24003000Y-18542000D02*
X-24003000Y-19050000D01*
X-20828000Y-20828000D02*
X-20828000Y-20574000D01*
D39*
X-15494000Y-12446000D02*
X-15494000Y-12192000D01*
D38*
X-20701000Y-10096500D02*
X-20701000Y-9398000D01*
X-22860000Y-20955000D02*
X-20955000Y-20955000D01*
D39*
X-16383000Y-12700000D02*
X-15748000Y-12700000D01*
X-15875000Y-18288000D02*
X-15494000Y-17907000D01*
X-19812000Y-11176000D02*
X-19431000Y-11557000D01*
D38*
X-24003000Y-13398500D02*
X-20701000Y-10096500D01*
D39*
X-20828000Y-14986000D02*
X-20193000Y-14986000D01*
X-17526000Y-22733000D02*
X-16510000Y-23749000D01*
D38*
X-20955000Y-20955000D02*
X-20828000Y-20828000D01*
D39*
X-20701000Y-9398000D02*
X-20320000Y-9398000D01*
X-16383000Y-18288000D02*
X-15875000Y-18288000D01*
D38*
X-24003000Y-19812000D02*
X-24003000Y-19050000D01*
X-24003000Y-19812000D02*
X-22860000Y-20955000D01*
D39*
X-17526000Y-11557000D02*
X-16383000Y-12700000D01*
D38*
X-20828000Y-14986000D02*
X-20828000Y-15367000D01*
X-24003000Y-19050000D02*
X-24003000Y-13398500D01*
D39*
X-19431000Y-22733000D02*
X-17526000Y-22733000D01*
X-15748000Y-23749000D02*
X-15494000Y-23495000D01*
X-19431000Y-17145000D02*
X-17526000Y-17145000D01*
X-20320000Y-20574000D02*
X-19812000Y-21082000D01*
X-15494000Y-23495000D02*
X-15494000Y-23368000D01*
X-19812000Y-21082000D02*
X-19812000Y-22352000D01*
X-19812000Y-16764000D02*
X-19431000Y-17145000D01*
D37*
X-34925000Y-19812000D02*
X-24003000Y-19812000D01*
D39*
X-17526000Y-17145000D02*
X-16383000Y-18288000D01*
X-20828000Y-20574000D02*
X-20320000Y-20574000D01*
X-19812000Y-9906000D02*
X-19812000Y-11176000D01*
X-19431000Y-11557000D02*
X-17526000Y-11557000D01*
X-20193000Y-14986000D02*
X-19812000Y-15367000D01*
X-15494000Y-17907000D02*
X-15494000Y-17780000D01*
D38*
X-20828000Y-15367000D02*
X-24003000Y-18542000D01*
%TO.N,/microcontroller/INTRPT1*%
X-27813000Y-17399000D02*
X-27813000Y-16637000D01*
D37*
X-93345000Y-17653000D02*
X-93345000Y-10922000D01*
D38*
X-27813000Y-16637000D02*
X-30988000Y-13462000D01*
D37*
X-64770000Y-3175000D02*
X-57277000Y-10668000D01*
X-94488000Y-18796000D02*
X-93345000Y-17653000D01*
D38*
X-28702000Y-18288000D02*
X-27813000Y-17399000D01*
X-30988000Y-13462000D02*
X-30988000Y-11938000D01*
D37*
X-92075000Y-7747000D02*
X-91440000Y-7112000D01*
X-93345000Y-10922000D02*
X-92075000Y-9652000D01*
X-90424000Y-7112000D02*
X-86487000Y-3175000D01*
X-86487000Y-3175000D02*
X-64770000Y-3175000D01*
X-92075000Y-9652000D02*
X-92075000Y-7747000D01*
X-57277000Y-10668000D02*
X-57277000Y-15367000D01*
X-91440000Y-7112000D02*
X-90424000Y-7112000D01*
D38*
%TO.N,/microcontroller/SPI.nCS2*%
X-62230000Y-27940000D02*
X-62230000Y-20955000D01*
X-62230000Y-20955000D02*
X-59690000Y-18415000D01*
X-62103000Y-28067000D02*
X-62230000Y-27940000D01*
%TO.N,/microcontroller/SPI.nCS1*%
X-41783000Y-26670000D02*
X-40767000Y-27686000D01*
X-62865000Y-20066000D02*
X-62865000Y-29210000D01*
X-56515000Y-31115000D02*
X-52070000Y-26670000D01*
X-59690000Y-16891000D02*
X-62865000Y-20066000D01*
X-52070000Y-26670000D02*
X-41783000Y-26670000D01*
X-40767000Y-27686000D02*
X-40767000Y-27940000D01*
X-62865000Y-29210000D02*
X-60960000Y-31115000D01*
X-60960000Y-31115000D02*
X-56515000Y-31115000D01*
D39*
%TO.N,/microcontroller/UART.TX*%
X-46228000Y-4509000D02*
X-45403000Y-4509000D01*
X-45403000Y-4509000D02*
X-40132000Y762000D01*
%TO.N,/microcontroller/UART.RX*%
X-47752000Y-4318000D02*
X-42672000Y762000D01*
X-47752000Y-4509000D02*
X-47752000Y-4318000D01*
%TO.N,/microcontroller/PGD*%
X-77343000Y-18923000D02*
X-80010000Y-18923000D01*
X-80010000Y-18923000D02*
X-86233000Y-25146000D01*
X-86233000Y-25146000D02*
X-102997000Y-25146000D01*
X-75184000Y-16764000D02*
X-77343000Y-18923000D01*
X-75692000Y-13589000D02*
X-75184000Y-14097000D01*
X-102997000Y-25146000D02*
X-103124000Y-25273000D01*
X-75692000Y-12319000D02*
X-75692000Y-13589000D01*
X-75184000Y-14097000D02*
X-75184000Y-16764000D01*
%TO.N,/microcontroller/PGC*%
X-75946000Y-14732000D02*
X-75946000Y-16891000D01*
X-80391000Y-18542000D02*
X-86487000Y-24638000D01*
X-75946000Y-16891000D02*
X-77597000Y-18542000D01*
X-77597000Y-18542000D02*
X-80391000Y-18542000D01*
X-75692000Y-14605000D02*
X-75819000Y-14605000D01*
X-86487000Y-24638000D02*
X-103378000Y-24638000D01*
X-103378000Y-24638000D02*
X-104648000Y-25908000D01*
X-109728000Y-24892000D02*
X-109728000Y-7656830D01*
X-104648000Y-25908000D02*
X-108712000Y-25908000D01*
X-75819000Y-14605000D02*
X-75946000Y-14732000D01*
X-109728000Y-7656830D02*
X-108458000Y-6386830D01*
X-108712000Y-25908000D02*
X-109728000Y-24892000D01*
%TO.N,/microcontroller/TEMP2_READY*%
X-68072000Y-24765000D02*
X-63627000Y-24765000D01*
D38*
%TO.N,/sync/Q*%
X-33274000Y-15367000D02*
X-34925000Y-13716000D01*
X-30353000Y-15367000D02*
X-33274000Y-15367000D01*
%TO.N,/sync/SYNC1-*%
X-15065434Y-9589770D02*
X-10683434Y-13971770D01*
X-17592962Y-9589770D02*
X-15065434Y-9589770D01*
X-17770262Y-9767070D02*
X-17592962Y-9589770D01*
X-9428230Y-13971770D02*
X-8620000Y-14780000D01*
X-10683434Y-13971770D02*
X-9428230Y-13971770D01*
%TO.N,/sync/SYNC1+*%
X-10524566Y-13588230D02*
X-9428230Y-13588230D01*
X-17762544Y-9028468D02*
X-17584782Y-9206230D01*
X-17584782Y-9206230D02*
X-14906566Y-9206230D01*
X-9428230Y-13588230D02*
X-8620000Y-12780000D01*
X-14906566Y-9206230D02*
X-10524566Y-13588230D01*
%TO.N,/sync/SYNC3-*%
X-17602197Y-15177770D02*
X-15573434Y-15177770D01*
X-9428230Y-17971770D02*
X-8620000Y-18780000D01*
X-17780000Y-15355573D02*
X-17602197Y-15177770D01*
X-12779434Y-17971770D02*
X-9428230Y-17971770D01*
X-15573434Y-15177770D02*
X-12779434Y-17971770D01*
%TO.N,/sync/SYNC3+*%
X-17602700Y-14794230D02*
X-15414566Y-14794230D01*
X-15414566Y-14794230D02*
X-12620566Y-17588230D01*
X-12620566Y-17588230D02*
X-9428230Y-17588230D01*
X-17780000Y-14616930D02*
X-17602700Y-14794230D01*
X-9428230Y-17588230D02*
X-8620000Y-16780000D01*
%TO.N,/sync/SYNC5-*%
X-9428230Y-21971770D02*
X-8620000Y-22780000D01*
X-15573434Y-20765770D02*
X-14367434Y-21971770D01*
X-17602700Y-20765770D02*
X-15573434Y-20765770D01*
X-14367434Y-21971770D02*
X-9428230Y-21971770D01*
X-17780000Y-20943070D02*
X-17602700Y-20765770D01*
%TO.N,/sync/SYNC5+*%
X-9428230Y-21588230D02*
X-8620000Y-20780000D01*
X-17585718Y-20382230D02*
X-15414566Y-20382230D01*
X-17763333Y-20204615D02*
X-17585718Y-20382230D01*
X-15414566Y-20382230D02*
X-14208566Y-21588230D01*
X-14208566Y-21588230D02*
X-9428230Y-21588230D01*
%TO.N,/microcontroller/SPI.nCS6*%
X-53213000Y-24130000D02*
X-40640000Y-24130000D01*
X-58039000Y-26035000D02*
X-55118000Y-26035000D01*
X-40640000Y-24130000D02*
X-34671000Y-30099000D01*
X-55118000Y-26035000D02*
X-53213000Y-24130000D01*
X-34671000Y-30099000D02*
X-33274000Y-30099000D01*
X-59563000Y-24511000D02*
X-58039000Y-26035000D01*
%TO.N,/microcontroller/SPI.nCS5*%
X-40386000Y-23495000D02*
X-36830000Y-27051000D01*
X-36830000Y-27051000D02*
X-33274000Y-27051000D01*
X-59563000Y-22987000D02*
X-57023000Y-25527000D01*
X-55499000Y-25527000D02*
X-53467000Y-23495000D01*
X-57023000Y-25527000D02*
X-55499000Y-25527000D01*
X-53467000Y-23495000D02*
X-40386000Y-23495000D01*
D36*
%TO.N,Net-(C49-Pad1)*%
X-88138000Y-28067000D02*
X-90551000Y-29464000D01*
X-90551000Y-29464000D02*
X-92956613Y-28726500D01*
D39*
%TO.N,/rtd/LDO2*%
X-64135000Y-31115000D02*
X-64135000Y-30038917D01*
X-64135000Y-30038917D02*
X-64052341Y-29956258D01*
%TO.N,/rtd/LDO1*%
X-41986588Y-29974193D02*
X-41986588Y-31038412D01*
X-41986588Y-31038412D02*
X-41910000Y-31115000D01*
%TO.N,/microcontroller/RC2*%
X-72390000Y-6096000D02*
X-71501000Y-6096000D01*
X-73152000Y-6858000D02*
X-72390000Y-6096000D01*
D40*
%TO.N,/rtd/TEMP2.RSENSE*%
X-65610000Y-43085000D02*
X-67801000Y-40894000D01*
X-71501000Y-40894000D02*
X-74168000Y-38227000D01*
X-67801000Y-40894000D02*
X-71501000Y-40894000D01*
%TO.N,/rtd/TEMP1.RSENSE*%
X-52324000Y-38227000D02*
X-49657000Y-40894000D01*
X-49657000Y-40894000D02*
X-45801000Y-40894000D01*
X-45801000Y-40894000D02*
X-43610000Y-43085000D01*
D37*
%TO.N,/power/PPS*%
X-33274000Y-16129000D02*
X-29591000Y-16129000D01*
X-55880000Y-11811000D02*
X-55880000Y-9969500D01*
X-33909000Y-16764000D02*
X-33274000Y-16129000D01*
X-63690500Y-2159000D02*
X-87249000Y-2159000D01*
X-94488000Y-7747000D02*
X-94488000Y-8636000D01*
X-53086000Y-14605000D02*
X-55880000Y-11811000D01*
X-92583000Y-5842000D02*
X-94488000Y-7747000D01*
X-47879000Y-14605000D02*
X-53086000Y-14605000D01*
X-87249000Y-2159000D02*
X-90932000Y-5842000D01*
X-34925000Y-16764000D02*
X-33909000Y-16764000D01*
X-90932000Y-5842000D02*
X-92583000Y-5842000D01*
X-55880000Y-9969500D02*
X-63690500Y-2159000D01*
X-29591000Y-16129000D02*
X-28575000Y-17145000D01*
%TD*%
%TA.AperFunction,Conductor*%
%TO.N,GNDPWR*%
G36*
X-104952300Y3161022D02*
G01*
X-104915478Y3124200D01*
X-104902000Y3073900D01*
X-104902000Y-1482330D01*
X-104909658Y-1520828D01*
X-104931465Y-1553465D01*
X-107666535Y-4288535D01*
X-107699172Y-4310342D01*
X-107737670Y-4318000D01*
X-109474000Y-4318000D01*
X-110490000Y-5334000D01*
X-110490000Y-25146000D01*
X-109474000Y-26162000D01*
X-107696000Y-27940000D01*
X-95308001Y-27940000D01*
X-95257753Y-27953448D01*
X-95220940Y-27990195D01*
X-86868000Y-42418000D01*
X-85859276Y-42418000D01*
X-85805471Y-42433598D01*
X-85768350Y-42475555D01*
X-85759426Y-42530860D01*
X-85781465Y-42582363D01*
X-85827633Y-42614094D01*
X-85852525Y-42622342D01*
X-86003340Y-42715365D01*
X-86128635Y-42840660D01*
X-86221658Y-42991475D01*
X-86277394Y-43159677D01*
X-86288000Y-43263491D01*
X-86288000Y-43372500D01*
X-82622000Y-43372500D01*
X-82622000Y-43317093D01*
X-79518696Y-43317093D01*
X-78110001Y-44725788D01*
X-76701306Y-43317093D01*
X-76732466Y-43289765D01*
X-76978580Y-43125317D01*
X-77244045Y-42994404D01*
X-77524333Y-42899259D01*
X-77814636Y-42841514D01*
X-78110000Y-42822155D01*
X-78405365Y-42841514D01*
X-78695668Y-42899259D01*
X-78975957Y-42994404D01*
X-79241420Y-43125317D01*
X-79487535Y-43289764D01*
X-79518696Y-43317092D01*
X-79518696Y-43317093D01*
X-82622000Y-43317093D01*
X-82622000Y-43263491D01*
X-82632607Y-43159677D01*
X-82688343Y-42991475D01*
X-82781366Y-42840660D01*
X-82906661Y-42715365D01*
X-83057476Y-42622342D01*
X-83082367Y-42614094D01*
X-83128535Y-42582363D01*
X-83150574Y-42530860D01*
X-83141650Y-42475555D01*
X-83104529Y-42433598D01*
X-83050724Y-42418000D01*
X-76749670Y-42418000D01*
X-76711172Y-42425658D01*
X-76678535Y-42447465D01*
X-75721465Y-43404535D01*
X-75699658Y-43437172D01*
X-75692000Y-43475670D01*
X-75692000Y-44645573D01*
X-75708954Y-44701463D01*
X-75754102Y-44738515D01*
X-75812226Y-44744240D01*
X-75863735Y-44716708D01*
X-75891267Y-44665199D01*
X-75924260Y-44499332D01*
X-76019405Y-44219043D01*
X-76150318Y-43953580D01*
X-76314763Y-43707470D01*
X-76342095Y-43676304D01*
X-77750790Y-45084999D01*
X-76342094Y-46493694D01*
X-76314766Y-46462535D01*
X-76150318Y-46216420D01*
X-76019405Y-45950955D01*
X-75924260Y-45670667D01*
X-75891267Y-45504801D01*
X-75863735Y-45453292D01*
X-75812226Y-45425760D01*
X-75754102Y-45431485D01*
X-75708954Y-45468537D01*
X-75692000Y-45524427D01*
X-75692000Y-48514000D01*
X-74676000Y-49530000D01*
X-34544000Y-49530000D01*
X-34465734Y-49451734D01*
X-18134056Y-49451734D01*
X-15875001Y-51710789D01*
X-13615945Y-49451734D01*
X-13635384Y-49433320D01*
X-13933589Y-49206630D01*
X-14254556Y-49013511D01*
X-14594515Y-48856230D01*
X-14949495Y-48736624D01*
X-15315323Y-48656097D01*
X-15687705Y-48615600D01*
X-16062295Y-48615600D01*
X-16434678Y-48656097D01*
X-16800506Y-48736624D01*
X-17155486Y-48856230D01*
X-17495445Y-49013511D01*
X-17816417Y-49206633D01*
X-18114613Y-49433316D01*
X-18134056Y-49451733D01*
X-18134056Y-49451734D01*
X-34465734Y-49451734D01*
X-33528000Y-48514000D01*
X-33528000Y-46852905D01*
X-32518696Y-46852905D01*
X-32487530Y-46880237D01*
X-32241421Y-47044682D01*
X-31975956Y-47175595D01*
X-31695668Y-47270740D01*
X-31405365Y-47328485D01*
X-31110000Y-47347844D01*
X-30814636Y-47328485D01*
X-30524333Y-47270740D01*
X-30244045Y-47175595D01*
X-29978580Y-47044682D01*
X-29732465Y-46880234D01*
X-29701305Y-46852906D01*
X-31110000Y-45444210D01*
X-32518696Y-46852905D01*
X-33528000Y-46852905D01*
X-33528000Y-45524427D01*
X-33511046Y-45468537D01*
X-33465898Y-45431485D01*
X-33407774Y-45425760D01*
X-33356265Y-45453292D01*
X-33328733Y-45504801D01*
X-33295741Y-45670667D01*
X-33200596Y-45950955D01*
X-33069683Y-46216420D01*
X-32905235Y-46462534D01*
X-32877907Y-46493694D01*
X-31469211Y-45085000D01*
X-31469212Y-45084999D01*
X-30750790Y-45084999D01*
X-29342094Y-46493694D01*
X-29314766Y-46462535D01*
X-29150318Y-46216420D01*
X-29019405Y-45950955D01*
X-28924260Y-45670667D01*
X-28866515Y-45380364D01*
X-28847156Y-45084999D01*
X-28866515Y-44789635D01*
X-28924260Y-44499332D01*
X-29019405Y-44219043D01*
X-29150318Y-43953580D01*
X-29314763Y-43707470D01*
X-29342095Y-43676304D01*
X-30750790Y-45084999D01*
X-31469212Y-45084999D01*
X-32877907Y-43676304D01*
X-32877908Y-43676304D01*
X-32905236Y-43707465D01*
X-33069683Y-43953580D01*
X-33200596Y-44219043D01*
X-33295741Y-44499332D01*
X-33328733Y-44665199D01*
X-33356265Y-44716708D01*
X-33407774Y-44744240D01*
X-33465898Y-44738515D01*
X-33511046Y-44701463D01*
X-33528000Y-44645573D01*
X-33528000Y-43983670D01*
X-33520342Y-43945172D01*
X-33498535Y-43912535D01*
X-32903093Y-43317093D01*
X-32518696Y-43317093D01*
X-31110001Y-44725788D01*
X-29701306Y-43317093D01*
X-29732466Y-43289765D01*
X-29978580Y-43125317D01*
X-30244045Y-42994404D01*
X-30524333Y-42899259D01*
X-30814636Y-42841514D01*
X-31110000Y-42822155D01*
X-31405365Y-42841514D01*
X-31695668Y-42899259D01*
X-31975957Y-42994404D01*
X-32241420Y-43125317D01*
X-32487535Y-43289764D01*
X-32518696Y-43317092D01*
X-32518696Y-43317093D01*
X-32903093Y-43317093D01*
X-32033465Y-42447465D01*
X-32000828Y-42425658D01*
X-31962330Y-42418000D01*
X-30267670Y-42418000D01*
X-30229172Y-42425658D01*
X-30196535Y-42447465D01*
X-28702000Y-43942000D01*
X-24638000Y-48006000D01*
X-18796000Y-48006000D01*
X-17526000Y-48006000D01*
X-12700000Y-48006000D01*
X-5334000Y-35306000D01*
X-5334000Y-31750000D01*
X-8890000Y-28194000D01*
X-9215748Y-27868252D01*
X-8849043Y-27868252D01*
X-8708377Y-27973554D01*
X-8456287Y-28111206D01*
X-8187166Y-28211583D01*
X-7906500Y-28272637D01*
X-7620000Y-28293128D01*
X-7333501Y-28272637D01*
X-7052835Y-28211583D01*
X-6783714Y-28111206D01*
X-6531624Y-27973554D01*
X-6390959Y-27868252D01*
X-6390959Y-27868251D01*
X-7620000Y-26639210D01*
X-8849043Y-27868251D01*
X-8849043Y-27868252D01*
X-9215748Y-27868252D01*
X-9876535Y-27207465D01*
X-9898342Y-27174828D01*
X-9906000Y-27136330D01*
X-9906000Y-26280000D01*
X-9633129Y-26280000D01*
X-9612638Y-26566499D01*
X-9551584Y-26847165D01*
X-9451207Y-27116286D01*
X-9313555Y-27368376D01*
X-9208253Y-27509041D01*
X-7979210Y-26280000D01*
X-7260790Y-26280000D01*
X-6031749Y-27509041D01*
X-6031748Y-27509041D01*
X-5926446Y-27368376D01*
X-5788794Y-27116286D01*
X-5688417Y-26847165D01*
X-5627363Y-26566499D01*
X-5606872Y-26280000D01*
X-5627363Y-25993500D01*
X-5688417Y-25712834D01*
X-5788794Y-25443713D01*
X-5926446Y-25191623D01*
X-6031749Y-25050957D01*
X-7260790Y-26280000D01*
X-7979210Y-26280000D01*
X-9208253Y-25050957D01*
X-9313554Y-25191622D01*
X-9451208Y-25443716D01*
X-9551584Y-25712834D01*
X-9612638Y-25993500D01*
X-9633129Y-26280000D01*
X-9906000Y-26280000D01*
X-9906000Y-25441670D01*
X-9898342Y-25403172D01*
X-9876535Y-25370535D01*
X-9173465Y-24667465D01*
X-9140828Y-24645658D01*
X-9102330Y-24638000D01*
X-8944460Y-24638000D01*
X-8905962Y-24645658D01*
X-8873325Y-24667465D01*
X-7620001Y-25920789D01*
X-6382329Y-24683117D01*
X-6359326Y-24647325D01*
X-6350001Y-24638000D01*
X-6350000Y-24638000D01*
X-4572000Y-22860000D01*
X-4572000Y-12446000D01*
X-6096000Y-10922000D01*
X-6295540Y-10922000D01*
X-6334038Y-10914342D01*
X-6366675Y-10892535D01*
X-7620000Y-9639210D01*
X-8873326Y-10892535D01*
X-8905963Y-10914342D01*
X-8944461Y-10922000D01*
X-9356330Y-10922000D01*
X-9394828Y-10914342D01*
X-9427465Y-10892535D01*
X-9876535Y-10443465D01*
X-9898342Y-10410828D01*
X-9906000Y-10372330D01*
X-9906000Y-9280000D01*
X-9633129Y-9280000D01*
X-9612638Y-9566499D01*
X-9551584Y-9847165D01*
X-9451207Y-10116286D01*
X-9313555Y-10368376D01*
X-9208253Y-10509041D01*
X-7979210Y-9280000D01*
X-7260790Y-9280000D01*
X-6031749Y-10509041D01*
X-6031748Y-10509041D01*
X-5926446Y-10368376D01*
X-5788794Y-10116286D01*
X-5688417Y-9847165D01*
X-5627363Y-9566499D01*
X-5606872Y-9280000D01*
X-5627363Y-8993500D01*
X-5688417Y-8712834D01*
X-5788794Y-8443713D01*
X-5926446Y-8191623D01*
X-6031749Y-8050957D01*
X-7260790Y-9280000D01*
X-7979210Y-9280000D01*
X-9208253Y-8050957D01*
X-9313554Y-8191622D01*
X-9451208Y-8443716D01*
X-9551584Y-8712834D01*
X-9612638Y-8993500D01*
X-9633129Y-9280000D01*
X-9906000Y-9280000D01*
X-9906000Y-8423670D01*
X-9898342Y-8385172D01*
X-9876535Y-8352535D01*
X-9215747Y-7691747D01*
X-8849043Y-7691747D01*
X-7620001Y-8920789D01*
X-6390959Y-7691747D01*
X-6390959Y-7691746D01*
X-6531624Y-7586445D01*
X-6783714Y-7448793D01*
X-7052835Y-7348416D01*
X-7333501Y-7287362D01*
X-7620000Y-7266871D01*
X-7906500Y-7287362D01*
X-8187166Y-7348416D01*
X-8456284Y-7448792D01*
X-8708378Y-7586446D01*
X-8849043Y-7691747D01*
X-9215747Y-7691747D01*
X-5334000Y-3810000D01*
X-5334000Y-2618264D01*
X-2259056Y-2618264D01*
X-2239617Y-2636679D01*
X-1941412Y-2863369D01*
X-1620445Y-3056488D01*
X-1280486Y-3213769D01*
X-925506Y-3333375D01*
X-559678Y-3413902D01*
X-187295Y-3454400D01*
X187295Y-3454400D01*
X559677Y-3413902D01*
X925505Y-3333375D01*
X1280485Y-3213769D01*
X1620444Y-3056488D01*
X1941411Y-2863369D01*
X2239617Y-2636678D01*
X2259054Y-2618264D01*
X0Y-359210D01*
X-2259056Y-2618264D01*
X-5334000Y-2618264D01*
X-5334000Y0D01*
X-3459475Y0D01*
X-3439195Y-374029D01*
X-3378592Y-743689D01*
X-3278383Y-1104613D01*
X-3139734Y-1452596D01*
X-2964277Y-1783542D01*
X-2754065Y-2093582D01*
X-2615696Y-2256483D01*
X-359210Y0D01*
X-2615695Y2256485D01*
X-2754065Y2093583D01*
X-2964277Y1783543D01*
X-3139734Y1452597D01*
X-3278383Y1104614D01*
X-3378592Y743690D01*
X-3439195Y374030D01*
X-3459475Y0D01*
X-5334000Y0D01*
X-5334000Y3073900D01*
X-5320522Y3124200D01*
X-5283700Y3161022D01*
X-5233400Y3174500D01*
X-1786637Y3174500D01*
X-1736652Y3161203D01*
X-1699880Y3124828D01*
X-1686043Y3074990D01*
X-1698797Y3024864D01*
X-1734772Y2987700D01*
X-1941417Y2863367D01*
X-2239613Y2636684D01*
X-2259056Y2618267D01*
X-2259056Y2618266D01*
X2615694Y-2256484D01*
X2615695Y-2256483D01*
X2754060Y-2093588D01*
X2964276Y-1783542D01*
X3139733Y-1452596D01*
X3234445Y-1214889D01*
X3267891Y-1171383D01*
X3319193Y-1151903D01*
X3373085Y-1162244D01*
X3413533Y-1199330D01*
X3428500Y-1252125D01*
X3428500Y-31503145D01*
X3428362Y-31508409D01*
X3413475Y-31792505D01*
X3412375Y-31802977D01*
X3368283Y-32081378D01*
X3366093Y-32091678D01*
X3293147Y-32363925D01*
X3289893Y-32373940D01*
X3188890Y-32637068D01*
X3184607Y-32646688D01*
X3055559Y-32899962D01*
X3053062Y-32904564D01*
X3051338Y-32907549D01*
X3051318Y-32907569D01*
X3051325Y-32907573D01*
X-9330455Y-54353446D01*
X-9333207Y-54357937D01*
X-9488165Y-54596549D01*
X-9494354Y-54605068D01*
X-9671740Y-54824120D01*
X-9678787Y-54831945D01*
X-9878081Y-55031236D01*
X-9885906Y-55038282D01*
X-10104948Y-55215657D01*
X-10113467Y-55221847D01*
X-10349854Y-55375357D01*
X-10358973Y-55380622D01*
X-10610119Y-55508585D01*
X-10619739Y-55512867D01*
X-10882866Y-55613870D01*
X-10892881Y-55617124D01*
X-11165126Y-55690069D01*
X-11175425Y-55692259D01*
X-11453823Y-55736351D01*
X-11464296Y-55737451D01*
X-11748853Y-55752362D01*
X-11754117Y-55752500D01*
X-97466330Y-55752500D01*
X-97471597Y-55752362D01*
X-97755702Y-55737466D01*
X-97766174Y-55736365D01*
X-98044552Y-55692269D01*
X-98054851Y-55690080D01*
X-98327109Y-55617125D01*
X-98337124Y-55613871D01*
X-98600260Y-55512860D01*
X-98609879Y-55508577D01*
X-98723898Y-55450480D01*
X-98861017Y-55380614D01*
X-98870128Y-55375353D01*
X-99011155Y-55283769D01*
X-99106518Y-55221839D01*
X-99115036Y-55215650D01*
X-99225143Y-55126488D01*
X-99334090Y-55038265D01*
X-99341888Y-55031244D01*
X-99541217Y-54831918D01*
X-99548252Y-54824104D01*
X-99658255Y-54688264D01*
X-90524056Y-54688264D01*
X-90504617Y-54706679D01*
X-90206412Y-54933369D01*
X-89885445Y-55126488D01*
X-89545486Y-55283769D01*
X-89190506Y-55403375D01*
X-88824678Y-55483902D01*
X-88452295Y-55524400D01*
X-88077705Y-55524400D01*
X-87705323Y-55483902D01*
X-87339495Y-55403375D01*
X-86984515Y-55283769D01*
X-86644556Y-55126488D01*
X-86323589Y-54933369D01*
X-86025383Y-54706678D01*
X-86005946Y-54688264D01*
X-18134056Y-54688264D01*
X-18114617Y-54706679D01*
X-17816412Y-54933369D01*
X-17495445Y-55126488D01*
X-17155486Y-55283769D01*
X-16800506Y-55403375D01*
X-16434678Y-55483902D01*
X-16062295Y-55524400D01*
X-15687705Y-55524400D01*
X-15315323Y-55483902D01*
X-14949495Y-55403375D01*
X-14594515Y-55283769D01*
X-14254556Y-55126488D01*
X-13933589Y-54933369D01*
X-13635383Y-54706678D01*
X-13615946Y-54688264D01*
X-15875000Y-52429210D01*
X-18134056Y-54688264D01*
X-86005946Y-54688264D01*
X-88265000Y-52429210D01*
X-90524056Y-54688264D01*
X-99658255Y-54688264D01*
X-99725632Y-54605061D01*
X-99731821Y-54596543D01*
X-99886909Y-54357736D01*
X-99889662Y-54353244D01*
X-99999160Y-54163588D01*
X-101207895Y-52070000D01*
X-91724475Y-52070000D01*
X-91704195Y-52444029D01*
X-91643592Y-52813689D01*
X-91543383Y-53174613D01*
X-91404734Y-53522596D01*
X-91229277Y-53853542D01*
X-91019065Y-54163582D01*
X-90880696Y-54326483D01*
X-88624210Y-52070000D01*
X-87905790Y-52070000D01*
X-85649306Y-54326484D01*
X-85649305Y-54326483D01*
X-85510940Y-54163588D01*
X-85300724Y-53853542D01*
X-85125267Y-53522596D01*
X-84986618Y-53174613D01*
X-84886409Y-52813689D01*
X-84825806Y-52444029D01*
X-84805526Y-52070000D01*
X-84805526Y-52069999D01*
X-19334475Y-52069999D01*
X-19314195Y-52444029D01*
X-19253592Y-52813689D01*
X-19153383Y-53174613D01*
X-19014734Y-53522596D01*
X-18839277Y-53853542D01*
X-18629065Y-54163582D01*
X-18490696Y-54326483D01*
X-16234210Y-52070000D01*
X-15515790Y-52070000D01*
X-13259306Y-54326484D01*
X-13259305Y-54326483D01*
X-13120940Y-54163588D01*
X-12910724Y-53853542D01*
X-12735267Y-53522596D01*
X-12596618Y-53174613D01*
X-12496409Y-52813689D01*
X-12435806Y-52444029D01*
X-12415526Y-52069999D01*
X-12435806Y-51695970D01*
X-12496409Y-51326310D01*
X-12596618Y-50965386D01*
X-12735267Y-50617403D01*
X-12910724Y-50286457D01*
X-13120936Y-49976417D01*
X-13259306Y-49813515D01*
X-15515790Y-52070000D01*
X-16234210Y-52070000D01*
X-18490695Y-49813515D01*
X-18629065Y-49976417D01*
X-18839277Y-50286457D01*
X-19014734Y-50617403D01*
X-19153383Y-50965386D01*
X-19253592Y-51326310D01*
X-19314195Y-51695970D01*
X-19334475Y-52069999D01*
X-84805526Y-52069999D01*
X-84825806Y-51695970D01*
X-84886409Y-51326310D01*
X-84986618Y-50965386D01*
X-85125267Y-50617403D01*
X-85300724Y-50286457D01*
X-85510936Y-49976417D01*
X-85649306Y-49813515D01*
X-87905790Y-52070000D01*
X-88624210Y-52070000D01*
X-90880695Y-49813515D01*
X-91019065Y-49976417D01*
X-91229277Y-50286457D01*
X-91404734Y-50617403D01*
X-91543383Y-50965386D01*
X-91643592Y-51326310D01*
X-91704195Y-51695970D01*
X-91724475Y-52070000D01*
X-101207895Y-52070000D01*
X-101506304Y-51553140D01*
X-101506304Y-51553138D01*
X-101531262Y-51509910D01*
X-101535763Y-51501146D01*
X-101601524Y-51356009D01*
X-101607863Y-51337335D01*
X-101608184Y-51335957D01*
X-101642916Y-51187004D01*
X-101645487Y-51167467D01*
X-101650536Y-51013185D01*
X-101649246Y-50993508D01*
X-101644603Y-50965386D01*
X-101624101Y-50841212D01*
X-101619000Y-50822171D01*
X-101564621Y-50677697D01*
X-101555902Y-50660018D01*
X-101474384Y-50528933D01*
X-101462385Y-50513296D01*
X-101356856Y-50400629D01*
X-101342040Y-50387637D01*
X-101212249Y-50294635D01*
X-101203953Y-50289288D01*
X-101202738Y-50288587D01*
X-101161021Y-50264505D01*
X-101161019Y-50264502D01*
X-101144616Y-50255033D01*
X-101144605Y-50255024D01*
X-99753266Y-49451734D01*
X-90524056Y-49451734D01*
X-88265001Y-51710789D01*
X-86005945Y-49451734D01*
X-86025384Y-49433320D01*
X-86323589Y-49206630D01*
X-86644556Y-49013511D01*
X-86984515Y-48856230D01*
X-87339495Y-48736624D01*
X-87705323Y-48656097D01*
X-88077705Y-48615600D01*
X-88452295Y-48615600D01*
X-88824678Y-48656097D01*
X-89190506Y-48736624D01*
X-89545486Y-48856230D01*
X-89885445Y-49013511D01*
X-90206417Y-49206633D01*
X-90504613Y-49433316D01*
X-90524056Y-49451733D01*
X-90524056Y-49451734D01*
X-99753266Y-49451734D01*
X-95251963Y-46852905D01*
X-79518696Y-46852905D01*
X-79487530Y-46880237D01*
X-79241421Y-47044682D01*
X-78975956Y-47175595D01*
X-78695668Y-47270740D01*
X-78405365Y-47328485D01*
X-78110000Y-47347844D01*
X-77814636Y-47328485D01*
X-77524333Y-47270740D01*
X-77244045Y-47175595D01*
X-76978580Y-47044682D01*
X-76732465Y-46880234D01*
X-76701305Y-46852906D01*
X-78110000Y-45444210D01*
X-79518696Y-46852905D01*
X-95251963Y-46852905D01*
X-92470577Y-45247071D01*
X-92470558Y-45247065D01*
X-92457186Y-45239343D01*
X-92457184Y-45239343D01*
X-92445693Y-45232707D01*
X-92445497Y-45232641D01*
X-92409663Y-45211950D01*
X-92409662Y-45211952D01*
X-92307371Y-45152890D01*
X-92221049Y-45085000D01*
X-80372845Y-45085000D01*
X-80353486Y-45380364D01*
X-80295741Y-45670667D01*
X-80200596Y-45950955D01*
X-80069683Y-46216420D01*
X-79905235Y-46462534D01*
X-79877907Y-46493694D01*
X-78469211Y-45085000D01*
X-79877907Y-43676304D01*
X-79877908Y-43676304D01*
X-79905236Y-43707465D01*
X-80069683Y-43953580D01*
X-80200596Y-44219043D01*
X-80295741Y-44499332D01*
X-80353486Y-44789635D01*
X-80372845Y-45085000D01*
X-92221049Y-45085000D01*
X-92121683Y-45006852D01*
X-91958668Y-44835875D01*
X-91821644Y-44643439D01*
X-91713400Y-44433462D01*
X-91636139Y-44210219D01*
X-91629654Y-44176572D01*
X-91591434Y-43978253D01*
X-91589859Y-43945172D01*
X-91586779Y-43880500D01*
X-86288000Y-43880500D01*
X-86288000Y-43989509D01*
X-86277394Y-44093322D01*
X-86221658Y-44261524D01*
X-86128635Y-44412339D01*
X-86003340Y-44537634D01*
X-85852525Y-44630657D01*
X-85684323Y-44686393D01*
X-85580509Y-44697000D01*
X-84709000Y-44697000D01*
X-84709000Y-43880500D01*
X-84201000Y-43880500D01*
X-84201000Y-44697000D01*
X-83329491Y-44697000D01*
X-83225678Y-44686393D01*
X-83057476Y-44630657D01*
X-82906661Y-44537634D01*
X-82781366Y-44412339D01*
X-82688343Y-44261524D01*
X-82632607Y-44093322D01*
X-82622000Y-43989509D01*
X-82622000Y-43880500D01*
X-84201000Y-43880500D01*
X-84709000Y-43880500D01*
X-86288000Y-43880500D01*
X-91586779Y-43880500D01*
X-91580196Y-43742284D01*
X-91602653Y-43507119D01*
X-91658348Y-43277543D01*
X-91746146Y-43058229D01*
X-91782995Y-42994404D01*
X-91805204Y-42955937D01*
X-91805205Y-42955936D01*
X-91839250Y-42896966D01*
X-91839255Y-42896960D01*
X-91882444Y-42822155D01*
X-93719019Y-39641113D01*
X-94078048Y-39019257D01*
X-91910781Y-39019257D01*
X-91870210Y-39210129D01*
X-91790840Y-39388395D01*
X-91676142Y-39546264D01*
X-91570801Y-39641113D01*
X-91531127Y-39676836D01*
X-91362134Y-39774404D01*
X-91176550Y-39834705D01*
X-91031129Y-39849989D01*
X-90933833Y-39849989D01*
X-90788413Y-39834705D01*
X-90650735Y-39789970D01*
X-90602828Y-39774404D01*
X-90433835Y-39676836D01*
X-90288820Y-39546264D01*
X-90174122Y-39388396D01*
X-90094752Y-39210129D01*
X-90054181Y-39019257D01*
X-90054181Y-38824121D01*
X-90094752Y-38633249D01*
X-90174122Y-38454983D01*
X-90288820Y-38297114D01*
X-90433835Y-38166542D01*
X-90433836Y-38166541D01*
X-90602829Y-38068973D01*
X-90788413Y-38008672D01*
X-90933833Y-37993389D01*
X-91031129Y-37993389D01*
X-91176550Y-38008672D01*
X-91362134Y-38068973D01*
X-91531127Y-38166541D01*
X-91632574Y-38257885D01*
X-91671046Y-38292526D01*
X-91676143Y-38297115D01*
X-91790839Y-38454979D01*
X-91852067Y-38592500D01*
X-91870210Y-38633249D01*
X-91910781Y-38824121D01*
X-91910781Y-39019257D01*
X-94078048Y-39019257D01*
X-95105134Y-37240290D01*
X-95105135Y-37240290D01*
X-95105136Y-37240288D01*
X-95113329Y-37226098D01*
X-97578048Y-32957079D01*
X-95410781Y-32957079D01*
X-95370210Y-33147951D01*
X-95309628Y-33284020D01*
X-95290839Y-33326219D01*
X-95236507Y-33401000D01*
X-95176142Y-33484086D01*
X-95072468Y-33577434D01*
X-95031127Y-33614658D01*
X-94862134Y-33712226D01*
X-94676550Y-33772527D01*
X-94531129Y-33787811D01*
X-94433833Y-33787811D01*
X-94288413Y-33772527D01*
X-94195622Y-33742376D01*
X-94102828Y-33712226D01*
X-93933835Y-33614658D01*
X-93788820Y-33484086D01*
X-93674122Y-33326218D01*
X-93594752Y-33147951D01*
X-93554181Y-32957079D01*
X-93554181Y-32761943D01*
X-93594752Y-32571071D01*
X-93674122Y-32392805D01*
X-93788820Y-32234936D01*
X-93933835Y-32104364D01*
X-93933836Y-32104363D01*
X-94102829Y-32006795D01*
X-94288413Y-31946494D01*
X-94433833Y-31931211D01*
X-94531129Y-31931211D01*
X-94676550Y-31946494D01*
X-94862134Y-32006795D01*
X-95031127Y-32104363D01*
X-95176143Y-32234937D01*
X-95290839Y-32392801D01*
X-95350632Y-32527098D01*
X-95370210Y-32571071D01*
X-95410781Y-32761943D01*
X-95410781Y-32957079D01*
X-97578048Y-32957079D01*
X-97980499Y-32260013D01*
X-98323065Y-31666671D01*
X-98323071Y-31666654D01*
X-98339248Y-31638637D01*
X-98339356Y-31638318D01*
X-98360154Y-31602297D01*
X-98360153Y-31602297D01*
X-98419215Y-31500003D01*
X-98565254Y-31314310D01*
X-98668248Y-31216110D01*
X-98736229Y-31151293D01*
X-98790419Y-31112707D01*
X-98928673Y-31014262D01*
X-98928674Y-31014261D01*
X-98928676Y-31014260D01*
X-99028172Y-30962969D01*
X-96322295Y-30962969D01*
X-96099040Y-31349656D01*
X-96037945Y-31434263D01*
X-95905577Y-31552060D01*
X-95749609Y-31636158D01*
X-95578450Y-31682019D01*
X-95401334Y-31687172D01*
X-95227796Y-31651340D01*
X-95132587Y-31608618D01*
X-95027359Y-31547864D01*
X-95027358Y-31547863D01*
X-95604359Y-30548468D01*
X-96322295Y-30962969D01*
X-99028172Y-30962969D01*
X-99138654Y-30906015D01*
X-99361906Y-30828754D01*
X-99593873Y-30784052D01*
X-99820019Y-30773286D01*
X-99829848Y-30772819D01*
X-99829849Y-30772819D01*
X-100065021Y-30795281D01*
X-100294594Y-30850982D01*
X-100513913Y-30938790D01*
X-100608026Y-30993130D01*
X-100608028Y-30993131D01*
X-109410736Y-36075376D01*
X-109419519Y-36079887D01*
X-109564645Y-36145641D01*
X-109583317Y-36151980D01*
X-109733659Y-36187037D01*
X-109753211Y-36189611D01*
X-109907494Y-36194664D01*
X-109927172Y-36193375D01*
X-110079486Y-36168232D01*
X-110098532Y-36163128D01*
X-110243007Y-36108758D01*
X-110260694Y-36100037D01*
X-110391791Y-36018524D01*
X-110407436Y-36006520D01*
X-110520110Y-35901001D01*
X-110533113Y-35886176D01*
X-110540904Y-35875306D01*
X-110625473Y-35757308D01*
X-110630825Y-35749007D01*
X-110710095Y-35611708D01*
X-111221628Y-34725706D01*
X-112248488Y-32947130D01*
X-112248489Y-32947129D01*
X-112272919Y-32904814D01*
X-112275431Y-32900187D01*
X-112404599Y-32646686D01*
X-112408882Y-32637066D01*
X-112509890Y-32373932D01*
X-112513144Y-32363917D01*
X-112533442Y-32288166D01*
X-112586093Y-32091672D01*
X-112588281Y-32081373D01*
X-112632374Y-31802976D01*
X-112633474Y-31792517D01*
X-112646074Y-31552060D01*
X-112648362Y-31508385D01*
X-112648500Y-31503121D01*
X-112648500Y-29867595D01*
X-96878101Y-29867595D01*
X-96842269Y-30041134D01*
X-96799548Y-30136341D01*
X-96576293Y-30523029D01*
X-95858357Y-30108528D01*
X-96435357Y-29109135D01*
X-96540589Y-29169892D01*
X-96625192Y-29230983D01*
X-96742990Y-29363353D01*
X-96827087Y-29519320D01*
X-96872948Y-29690478D01*
X-96878101Y-29867595D01*
X-112648500Y-29867595D01*
X-112648500Y-28855135D01*
X-95995418Y-28855135D01*
X-95193459Y-30244168D01*
X-95193458Y-30244171D01*
X-94587418Y-31293863D01*
X-94587418Y-31293864D01*
X-94482194Y-31233114D01*
X-94397583Y-31172016D01*
X-94279785Y-31039646D01*
X-94195688Y-30883679D01*
X-94149827Y-30712521D01*
X-94144674Y-30535404D01*
X-94180506Y-30361865D01*
X-94223227Y-30266658D01*
X-94923735Y-29053343D01*
X-94984830Y-28968736D01*
X-95117198Y-28850939D01*
X-95273166Y-28766841D01*
X-95444325Y-28720980D01*
X-95621441Y-28715827D01*
X-95794979Y-28751659D01*
X-95890185Y-28794380D01*
X-95995418Y-28855135D01*
X-112648500Y-28855135D01*
X-112648500Y-2618264D01*
X-111479056Y-2618264D01*
X-111459617Y-2636679D01*
X-111161412Y-2863369D01*
X-110840445Y-3056488D01*
X-110500486Y-3213769D01*
X-110145506Y-3333375D01*
X-109779678Y-3413902D01*
X-109407295Y-3454400D01*
X-109032705Y-3454400D01*
X-108660323Y-3413902D01*
X-108294495Y-3333375D01*
X-107939515Y-3213769D01*
X-107599556Y-3056488D01*
X-107278589Y-2863369D01*
X-106980383Y-2636678D01*
X-106960946Y-2618264D01*
X-109220000Y-359210D01*
X-111479056Y-2618264D01*
X-112648500Y-2618264D01*
X-112648500Y-1252125D01*
X-112633533Y-1199330D01*
X-112593085Y-1162244D01*
X-112539193Y-1151903D01*
X-112487891Y-1171383D01*
X-112454445Y-1214889D01*
X-112359734Y-1452596D01*
X-112184277Y-1783542D01*
X-111974065Y-2093582D01*
X-111835696Y-2256483D01*
X-109579210Y0D01*
X-108860790Y0D01*
X-106604306Y-2256484D01*
X-106604305Y-2256483D01*
X-106465940Y-2093588D01*
X-106255724Y-1783542D01*
X-106080267Y-1452596D01*
X-105941618Y-1104613D01*
X-105841409Y-743689D01*
X-105780806Y-374029D01*
X-105760526Y1D01*
X-105780806Y374030D01*
X-105841409Y743690D01*
X-105941618Y1104614D01*
X-106080267Y1452597D01*
X-106255724Y1783543D01*
X-106465936Y2093583D01*
X-106604306Y2256485D01*
X-108860790Y0D01*
X-109579210Y0D01*
X-109220000Y359210D01*
X-106960945Y2618266D01*
X-106980384Y2636680D01*
X-107278589Y2863370D01*
X-107485228Y2987700D01*
X-107521203Y3024864D01*
X-107533957Y3074990D01*
X-107520120Y3124828D01*
X-107483348Y3161203D01*
X-107433363Y3174500D01*
X-105002600Y3174500D01*
X-104952300Y3161022D01*
G37*
%TD.AperFunction*%
%TD*%
%TA.AperFunction,Conductor*%
%TO.N,GND*%
G36*
X-70091094Y-10679459D02*
G01*
X-70055088Y-10711226D01*
X-70037907Y-10756063D01*
X-70043466Y-10803757D01*
X-70064867Y-10861133D01*
X-70071000Y-10918183D01*
X-70071000Y-11062000D01*
X-68613000Y-11062000D01*
X-68613000Y-10918183D01*
X-68619134Y-10861133D01*
X-68640534Y-10803757D01*
X-68646093Y-10756063D01*
X-68628912Y-10711226D01*
X-68592906Y-10679459D01*
X-68546277Y-10668000D01*
X-67089723Y-10668000D01*
X-67043094Y-10679459D01*
X-67007088Y-10711226D01*
X-66989907Y-10756063D01*
X-66995466Y-10803757D01*
X-67016867Y-10861133D01*
X-67023000Y-10918183D01*
X-67023000Y-11062000D01*
X-66267600Y-11062000D01*
X-66217300Y-11075478D01*
X-66180478Y-11112300D01*
X-66167000Y-11162600D01*
X-66167000Y-11893000D01*
X-65998183Y-11893000D01*
X-65941133Y-11886866D01*
X-65812081Y-11838732D01*
X-65692888Y-11749505D01*
X-65641567Y-11729839D01*
X-65587570Y-11740080D01*
X-65547013Y-11777170D01*
X-65532000Y-11830039D01*
X-65532000Y-16468330D01*
X-65539658Y-16506828D01*
X-65561465Y-16539465D01*
X-65915366Y-16893364D01*
X-65960464Y-16919401D01*
X-66012538Y-16919401D01*
X-66057636Y-16893364D01*
X-66073000Y-16878000D01*
X-67531000Y-16878000D01*
X-67531000Y-17021817D01*
X-67524867Y-17078866D01*
X-67503466Y-17136243D01*
X-67497907Y-17183937D01*
X-67515088Y-17228774D01*
X-67551094Y-17260541D01*
X-67597723Y-17272000D01*
X-67784277Y-17272000D01*
X-67830906Y-17260541D01*
X-67866912Y-17228774D01*
X-67884093Y-17183937D01*
X-67878534Y-17136243D01*
X-67857134Y-17078866D01*
X-67851000Y-17021817D01*
X-67851000Y-16878000D01*
X-69309000Y-16878000D01*
X-69309000Y-17021817D01*
X-69302867Y-17078866D01*
X-69281466Y-17136243D01*
X-69275907Y-17183937D01*
X-69293088Y-17228774D01*
X-69329094Y-17260541D01*
X-69375723Y-17272000D01*
X-69562277Y-17272000D01*
X-69608906Y-17260541D01*
X-69644912Y-17228774D01*
X-69662093Y-17183937D01*
X-69656534Y-17136243D01*
X-69635134Y-17078866D01*
X-69629000Y-17021817D01*
X-69629000Y-16878000D01*
X-71087000Y-16878000D01*
X-71102365Y-16893365D01*
X-71147463Y-16919402D01*
X-71199537Y-16919402D01*
X-71244635Y-16893365D01*
X-71757365Y-16380635D01*
X-71783402Y-16335537D01*
X-71783402Y-16283463D01*
X-71757365Y-16238365D01*
X-71742000Y-16223000D01*
X-71742000Y-15621000D01*
X-71488000Y-15621000D01*
X-71488000Y-16223000D01*
X-71344183Y-16223000D01*
X-71287134Y-16216866D01*
X-71164565Y-16171150D01*
X-71108024Y-16167106D01*
X-71058273Y-16194272D01*
X-71031107Y-16244023D01*
X-71035151Y-16300563D01*
X-71080867Y-16423131D01*
X-71087000Y-16480183D01*
X-71087000Y-16624000D01*
X-70485000Y-16624000D01*
X-70485000Y-16047000D01*
X-70231000Y-16047000D01*
X-70231000Y-16624000D01*
X-69629000Y-16624000D01*
X-69309000Y-16624000D01*
X-68707000Y-16624000D01*
X-68707000Y-16047000D01*
X-68453000Y-16047000D01*
X-68453000Y-16624000D01*
X-67851000Y-16624000D01*
X-67531000Y-16624000D01*
X-66929000Y-16624000D01*
X-66929000Y-16047000D01*
X-66675000Y-16047000D01*
X-66675000Y-16624000D01*
X-66073000Y-16624000D01*
X-66073000Y-16480183D01*
X-66079134Y-16423132D01*
X-66127268Y-16294080D01*
X-66209814Y-16183813D01*
X-66320081Y-16101267D01*
X-66449133Y-16053133D01*
X-66506183Y-16047000D01*
X-66675000Y-16047000D01*
X-66929000Y-16047000D01*
X-67097817Y-16047000D01*
X-67154868Y-16053133D01*
X-67283920Y-16101267D01*
X-67394187Y-16183813D01*
X-67476733Y-16294080D01*
X-67524867Y-16423132D01*
X-67531000Y-16480183D01*
X-67531000Y-16624000D01*
X-67851000Y-16624000D01*
X-67851000Y-16480183D01*
X-67857134Y-16423132D01*
X-67905268Y-16294080D01*
X-67987814Y-16183813D01*
X-68098081Y-16101267D01*
X-68227133Y-16053133D01*
X-68284183Y-16047000D01*
X-68453000Y-16047000D01*
X-68707000Y-16047000D01*
X-68875817Y-16047000D01*
X-68932868Y-16053133D01*
X-69061920Y-16101267D01*
X-69172187Y-16183813D01*
X-69254733Y-16294080D01*
X-69302867Y-16423132D01*
X-69309000Y-16480183D01*
X-69309000Y-16624000D01*
X-69629000Y-16624000D01*
X-69629000Y-16480183D01*
X-69635134Y-16423132D01*
X-69683268Y-16294080D01*
X-69765814Y-16183813D01*
X-69876081Y-16101267D01*
X-70005133Y-16053133D01*
X-70062183Y-16047000D01*
X-70231000Y-16047000D01*
X-70485000Y-16047000D01*
X-70653817Y-16047000D01*
X-70710869Y-16053133D01*
X-70833437Y-16098849D01*
X-70889977Y-16102893D01*
X-70939728Y-16075727D01*
X-70966894Y-16025976D01*
X-70962850Y-15969435D01*
X-70917134Y-15846866D01*
X-70911000Y-15789817D01*
X-70911000Y-15621000D01*
X-71488000Y-15621000D01*
X-71742000Y-15621000D01*
X-71742000Y-14765000D01*
X-71488000Y-14765000D01*
X-71488000Y-15367000D01*
X-70911000Y-15367000D01*
X-70911000Y-15198183D01*
X-70917134Y-15141132D01*
X-70965268Y-15012080D01*
X-71047814Y-14901813D01*
X-71158081Y-14819267D01*
X-71287133Y-14771133D01*
X-71344183Y-14765000D01*
X-71488000Y-14765000D01*
X-71742000Y-14765000D01*
X-71885817Y-14765000D01*
X-71942867Y-14771133D01*
X-72000243Y-14792534D01*
X-72047937Y-14798093D01*
X-72092774Y-14780912D01*
X-72124541Y-14744906D01*
X-72136000Y-14698277D01*
X-72136000Y-14003723D01*
X-72124541Y-13957094D01*
X-72092774Y-13921088D01*
X-72047937Y-13903907D01*
X-72000243Y-13909466D01*
X-71942867Y-13930866D01*
X-71885817Y-13937000D01*
X-71742000Y-13937000D01*
X-71742000Y-13335000D01*
X-71488000Y-13335000D01*
X-71488000Y-13937000D01*
X-71344183Y-13937000D01*
X-71287133Y-13930866D01*
X-71158081Y-13882732D01*
X-71047814Y-13800186D01*
X-70965268Y-13689919D01*
X-70917134Y-13560867D01*
X-70911000Y-13503817D01*
X-70911000Y-13335000D01*
X-71488000Y-13335000D01*
X-71742000Y-13335000D01*
X-71742000Y-12479000D01*
X-71488000Y-12479000D01*
X-71488000Y-13081000D01*
X-70911000Y-13081000D01*
X-70911000Y-12912183D01*
X-70917134Y-12855132D01*
X-70965268Y-12726080D01*
X-71047814Y-12615813D01*
X-71158081Y-12533267D01*
X-71287133Y-12485133D01*
X-71344183Y-12479000D01*
X-71488000Y-12479000D01*
X-71742000Y-12479000D01*
X-71885817Y-12479000D01*
X-71942867Y-12485133D01*
X-72000243Y-12506534D01*
X-72047937Y-12512093D01*
X-72092774Y-12494912D01*
X-72124541Y-12458906D01*
X-72136000Y-12412277D01*
X-72136000Y-12225723D01*
X-72124541Y-12179094D01*
X-72092774Y-12143088D01*
X-72047937Y-12125907D01*
X-72000243Y-12131466D01*
X-71942867Y-12152866D01*
X-71885817Y-12159000D01*
X-71742000Y-12159000D01*
X-71742000Y-11557000D01*
X-71488000Y-11557000D01*
X-71488000Y-12159000D01*
X-71344183Y-12159000D01*
X-71287133Y-12152866D01*
X-71158081Y-12104732D01*
X-71047814Y-12022186D01*
X-70965268Y-11911919D01*
X-70917134Y-11782867D01*
X-70911000Y-11725817D01*
X-70911000Y-11557000D01*
X-71488000Y-11557000D01*
X-71742000Y-11557000D01*
X-71742000Y-11403600D01*
X-71728522Y-11353300D01*
X-71691700Y-11316478D01*
X-71689916Y-11316000D01*
X-70071000Y-11316000D01*
X-70071000Y-11459817D01*
X-70064867Y-11516867D01*
X-70016733Y-11645919D01*
X-69934187Y-11756186D01*
X-69823920Y-11838732D01*
X-69694868Y-11886866D01*
X-69637817Y-11893000D01*
X-69469000Y-11893000D01*
X-69469000Y-11316000D01*
X-69215000Y-11316000D01*
X-69215000Y-11893000D01*
X-69046183Y-11893000D01*
X-68989133Y-11886866D01*
X-68860081Y-11838732D01*
X-68749814Y-11756186D01*
X-68667268Y-11645919D01*
X-68619134Y-11516867D01*
X-68613000Y-11459817D01*
X-68613000Y-11316000D01*
X-67023000Y-11316000D01*
X-67023000Y-11459817D01*
X-67016867Y-11516867D01*
X-66968733Y-11645919D01*
X-66886187Y-11756186D01*
X-66775920Y-11838732D01*
X-66646868Y-11886866D01*
X-66589817Y-11893000D01*
X-66421000Y-11893000D01*
X-66421000Y-11316000D01*
X-67023000Y-11316000D01*
X-68613000Y-11316000D01*
X-69215000Y-11316000D01*
X-69469000Y-11316000D01*
X-70071000Y-11316000D01*
X-71689916Y-11316000D01*
X-71641400Y-11303000D01*
X-70911000Y-11303000D01*
X-70911000Y-11134183D01*
X-70917134Y-11077132D01*
X-70965268Y-10948080D01*
X-71054495Y-10828888D01*
X-71074161Y-10777567D01*
X-71063920Y-10723570D01*
X-71026830Y-10683013D01*
X-70973961Y-10668000D01*
X-70137723Y-10668000D01*
X-70091094Y-10679459D01*
G37*
%TD.AperFunction*%
%TD*%
%TA.AperFunction,Conductor*%
%TO.N,/rtd/TEMP1.RSENSE*%
G36*
X-50164904Y-42305825D02*
G01*
X-50127832Y-42345929D01*
X-50126414Y-42353060D01*
X-49610001Y-42869473D01*
X-49093589Y-42353060D01*
X-49092170Y-42345929D01*
X-49055098Y-42305825D01*
X-49002534Y-42291000D01*
X-48217468Y-42291000D01*
X-48164904Y-42305825D01*
X-48127832Y-42345929D01*
X-48126414Y-42353060D01*
X-47610001Y-42869473D01*
X-47093589Y-42353060D01*
X-47092170Y-42345929D01*
X-47055098Y-42305825D01*
X-47002534Y-42291000D01*
X-46217468Y-42291000D01*
X-46164904Y-42305825D01*
X-46127832Y-42345929D01*
X-46126414Y-42353060D01*
X-45610001Y-42869473D01*
X-45093589Y-42353060D01*
X-45092170Y-42345929D01*
X-45055098Y-42305825D01*
X-45002534Y-42291000D01*
X-44217468Y-42291000D01*
X-44164904Y-42305825D01*
X-44127832Y-42345929D01*
X-44126414Y-42353060D01*
X-43610001Y-42869473D01*
X-43093589Y-42353060D01*
X-43092170Y-42345929D01*
X-43055098Y-42305825D01*
X-43002534Y-42291000D01*
X-42217468Y-42291000D01*
X-42164904Y-42305825D01*
X-42127832Y-42345929D01*
X-42126414Y-42353060D01*
X-41610001Y-42869473D01*
X-41093589Y-42353060D01*
X-41092170Y-42345929D01*
X-41055098Y-42305825D01*
X-41002534Y-42291000D01*
X-40217468Y-42291000D01*
X-40164904Y-42305825D01*
X-40127832Y-42345929D01*
X-40126414Y-42353060D01*
X-39610001Y-42869473D01*
X-39093589Y-42353060D01*
X-39092170Y-42345929D01*
X-39055098Y-42305825D01*
X-39002534Y-42291000D01*
X-38217468Y-42291000D01*
X-38164904Y-42305825D01*
X-38127832Y-42345929D01*
X-38126414Y-42353060D01*
X-37610001Y-42869473D01*
X-37093589Y-42353060D01*
X-37092170Y-42345929D01*
X-37055098Y-42305825D01*
X-37002534Y-42291000D01*
X-36501887Y-42291000D01*
X-36449018Y-42306013D01*
X-36411928Y-42346570D01*
X-36401687Y-42400566D01*
X-36421352Y-42451887D01*
X-36431899Y-42465975D01*
X-36482547Y-42601764D01*
X-36489000Y-42661792D01*
X-36489000Y-42932600D01*
X-35558200Y-42932600D01*
X-35507900Y-42946078D01*
X-35471078Y-42982900D01*
X-35457600Y-43033200D01*
X-35457600Y-43136800D01*
X-35471078Y-43187100D01*
X-35507900Y-43223922D01*
X-35558200Y-43237400D01*
X-36488999Y-43237400D01*
X-36488999Y-43508208D01*
X-36482547Y-43568234D01*
X-36431899Y-43704024D01*
X-36374191Y-43781113D01*
X-36354526Y-43832434D01*
X-36364767Y-43886430D01*
X-36401857Y-43926987D01*
X-36454726Y-43942000D01*
X-37007491Y-43942000D01*
X-37060054Y-43927176D01*
X-37097126Y-43887072D01*
X-37107781Y-43833509D01*
X-37105537Y-43804989D01*
X-37610000Y-43300526D01*
X-38114464Y-43804988D01*
X-38112219Y-43833507D01*
X-38122874Y-43887072D01*
X-38159946Y-43927176D01*
X-38212509Y-43942000D01*
X-39007491Y-43942000D01*
X-39060054Y-43927176D01*
X-39097126Y-43887072D01*
X-39107781Y-43833509D01*
X-39105537Y-43804989D01*
X-39610000Y-43300526D01*
X-40114464Y-43804988D01*
X-40112219Y-43833507D01*
X-40122874Y-43887072D01*
X-40159946Y-43927176D01*
X-40212509Y-43942000D01*
X-41007491Y-43942000D01*
X-41060054Y-43927176D01*
X-41097126Y-43887072D01*
X-41107781Y-43833509D01*
X-41105537Y-43804989D01*
X-41610000Y-43300526D01*
X-42114464Y-43804988D01*
X-42112219Y-43833507D01*
X-42122874Y-43887072D01*
X-42159946Y-43927176D01*
X-42212509Y-43942000D01*
X-43007491Y-43942000D01*
X-43060054Y-43927176D01*
X-43097126Y-43887072D01*
X-43107781Y-43833509D01*
X-43105537Y-43804989D01*
X-43610000Y-43300526D01*
X-44114464Y-43804988D01*
X-44112219Y-43833507D01*
X-44122874Y-43887072D01*
X-44159946Y-43927176D01*
X-44212509Y-43942000D01*
X-45007491Y-43942000D01*
X-45060054Y-43927176D01*
X-45097126Y-43887072D01*
X-45107781Y-43833509D01*
X-45105537Y-43804989D01*
X-45610000Y-43300526D01*
X-46114464Y-43804988D01*
X-46112219Y-43833507D01*
X-46122874Y-43887072D01*
X-46159946Y-43927176D01*
X-46212509Y-43942000D01*
X-47007491Y-43942000D01*
X-47060054Y-43927176D01*
X-47097126Y-43887072D01*
X-47107781Y-43833509D01*
X-47105537Y-43804989D01*
X-47610000Y-43300526D01*
X-48114464Y-43804988D01*
X-48112219Y-43833507D01*
X-48122874Y-43887072D01*
X-48159946Y-43927176D01*
X-48212509Y-43942000D01*
X-49007491Y-43942000D01*
X-49060054Y-43927176D01*
X-49097126Y-43887072D01*
X-49107781Y-43833509D01*
X-49105537Y-43804989D01*
X-49610000Y-43300526D01*
X-50114464Y-43804988D01*
X-50112219Y-43833507D01*
X-50122874Y-43887072D01*
X-50159946Y-43927176D01*
X-50212509Y-43942000D01*
X-51007491Y-43942000D01*
X-51060054Y-43927176D01*
X-51097126Y-43887072D01*
X-51107781Y-43833509D01*
X-51105537Y-43804989D01*
X-51754391Y-43156135D01*
X-51780428Y-43111037D01*
X-51780428Y-43085000D01*
X-51394474Y-43085000D01*
X-50887641Y-43591833D01*
X-50802569Y-43444487D01*
X-50745472Y-43268762D01*
X-50726159Y-43085000D01*
X-50493842Y-43085000D01*
X-50474529Y-43268762D01*
X-50417431Y-43444490D01*
X-50332362Y-43591834D01*
X-49825526Y-43085000D01*
X-49394474Y-43085000D01*
X-48887641Y-43591833D01*
X-48802569Y-43444487D01*
X-48745472Y-43268762D01*
X-48726159Y-43085000D01*
X-48493842Y-43085000D01*
X-48474529Y-43268762D01*
X-48417431Y-43444490D01*
X-48332362Y-43591834D01*
X-47825526Y-43085000D01*
X-47394474Y-43085000D01*
X-46887641Y-43591833D01*
X-46802569Y-43444487D01*
X-46745472Y-43268762D01*
X-46726159Y-43085000D01*
X-46493842Y-43085000D01*
X-46474529Y-43268762D01*
X-46417431Y-43444490D01*
X-46332362Y-43591834D01*
X-45825526Y-43085000D01*
X-45394474Y-43085000D01*
X-44887641Y-43591833D01*
X-44802569Y-43444487D01*
X-44745472Y-43268762D01*
X-44726159Y-43085000D01*
X-44493842Y-43085000D01*
X-44474529Y-43268762D01*
X-44417431Y-43444490D01*
X-44332362Y-43591834D01*
X-43825528Y-43085000D01*
X-43394474Y-43085000D01*
X-42887641Y-43591833D01*
X-42802569Y-43444487D01*
X-42745472Y-43268762D01*
X-42726159Y-43085000D01*
X-42493842Y-43085000D01*
X-42474529Y-43268762D01*
X-42417431Y-43444490D01*
X-42332362Y-43591834D01*
X-41825527Y-43084999D01*
X-41394475Y-43084999D01*
X-40887641Y-43591833D01*
X-40802569Y-43444487D01*
X-40745472Y-43268762D01*
X-40726159Y-43085000D01*
X-40493842Y-43085000D01*
X-40474529Y-43268762D01*
X-40417431Y-43444490D01*
X-40332362Y-43591834D01*
X-39825526Y-43085000D01*
X-39394474Y-43085000D01*
X-38887641Y-43591833D01*
X-38802569Y-43444487D01*
X-38745472Y-43268762D01*
X-38726159Y-43085000D01*
X-38493842Y-43085000D01*
X-38474529Y-43268762D01*
X-38417431Y-43444490D01*
X-38332362Y-43591834D01*
X-37825526Y-43085000D01*
X-37394474Y-43085000D01*
X-36887641Y-43591833D01*
X-36802569Y-43444487D01*
X-36745472Y-43268762D01*
X-36726159Y-43085000D01*
X-36745472Y-42901237D01*
X-36802570Y-42725509D01*
X-36887640Y-42578164D01*
X-37394474Y-43085000D01*
X-37825526Y-43085000D01*
X-38332362Y-42578164D01*
X-38417431Y-42725509D01*
X-38474529Y-42901237D01*
X-38493842Y-43085000D01*
X-38726159Y-43085000D01*
X-38745472Y-42901237D01*
X-38802570Y-42725509D01*
X-38887640Y-42578164D01*
X-39394474Y-43085000D01*
X-39825526Y-43085000D01*
X-40332362Y-42578164D01*
X-40417431Y-42725509D01*
X-40474529Y-42901237D01*
X-40493842Y-43085000D01*
X-40726159Y-43085000D01*
X-40745472Y-42901237D01*
X-40802570Y-42725509D01*
X-40887640Y-42578164D01*
X-41394475Y-43084999D01*
X-41825527Y-43084999D01*
X-42332362Y-42578164D01*
X-42417431Y-42725509D01*
X-42474529Y-42901237D01*
X-42493842Y-43085000D01*
X-42726159Y-43085000D01*
X-42745472Y-42901237D01*
X-42802570Y-42725509D01*
X-42887640Y-42578164D01*
X-43394474Y-43085000D01*
X-43825528Y-43085000D01*
X-43825527Y-43084999D01*
X-44332362Y-42578164D01*
X-44417431Y-42725509D01*
X-44474529Y-42901237D01*
X-44493842Y-43085000D01*
X-44726159Y-43085000D01*
X-44745472Y-42901237D01*
X-44802570Y-42725509D01*
X-44887640Y-42578164D01*
X-45394474Y-43085000D01*
X-45825526Y-43085000D01*
X-46332362Y-42578164D01*
X-46417431Y-42725509D01*
X-46474529Y-42901237D01*
X-46493842Y-43085000D01*
X-46726159Y-43085000D01*
X-46745472Y-42901237D01*
X-46802570Y-42725509D01*
X-46887640Y-42578164D01*
X-47394474Y-43085000D01*
X-47825526Y-43085000D01*
X-48332362Y-42578164D01*
X-48417431Y-42725509D01*
X-48474529Y-42901237D01*
X-48493842Y-43085000D01*
X-48726159Y-43085000D01*
X-48745472Y-42901237D01*
X-48802570Y-42725509D01*
X-48887640Y-42578164D01*
X-49394474Y-43085000D01*
X-49825526Y-43085000D01*
X-50332362Y-42578164D01*
X-50417431Y-42725509D01*
X-50474529Y-42901237D01*
X-50493842Y-43085000D01*
X-50726159Y-43085000D01*
X-50745472Y-42901237D01*
X-50802570Y-42725509D01*
X-50887640Y-42578164D01*
X-51394474Y-43085000D01*
X-51780428Y-43085000D01*
X-51780428Y-43058963D01*
X-51754391Y-43013865D01*
X-51610000Y-42869474D01*
X-51093589Y-42353060D01*
X-51092170Y-42345929D01*
X-51055098Y-42305825D01*
X-51002534Y-42291000D01*
X-50217468Y-42291000D01*
X-50164904Y-42305825D01*
G37*
%TD.AperFunction*%
%TD*%
%TA.AperFunction,Conductor*%
%TO.N,GND*%
G36*
X-66934523Y-29068967D02*
G01*
X-66921627Y-29074309D01*
X-66888989Y-29096117D01*
X-65824361Y-30160745D01*
X-65824357Y-30160748D01*
X-64489193Y-31495912D01*
X-64465398Y-31495912D01*
X-64411010Y-31511882D01*
X-64366165Y-31540701D01*
X-64337751Y-31558962D01*
X-64204459Y-31598100D01*
X-64065541Y-31598100D01*
X-63932249Y-31558962D01*
X-63815383Y-31483857D01*
X-63800464Y-31466639D01*
X-63754821Y-31436616D01*
X-63700215Y-31434876D01*
X-63652753Y-31461934D01*
X-63147918Y-31974632D01*
X-63126510Y-32007076D01*
X-63119000Y-32045215D01*
X-63119000Y-32978330D01*
X-63126658Y-33016828D01*
X-63148465Y-33049465D01*
X-66264535Y-36165535D01*
X-66297172Y-36187342D01*
X-66335670Y-36195000D01*
X-67014330Y-36195000D01*
X-67052828Y-36187342D01*
X-67085465Y-36165535D01*
X-69354766Y-33896234D01*
X-69381570Y-33848082D01*
X-69378984Y-33793033D01*
X-69347782Y-33747607D01*
X-69297328Y-33725436D01*
X-69140036Y-33703818D01*
X-69006449Y-33645793D01*
X-68939021Y-33592823D01*
X-68858354Y-33512156D01*
X-69446383Y-32924127D01*
X-69472420Y-32879029D01*
X-69472420Y-32852992D01*
X-69086466Y-32852992D01*
X-68642829Y-33296629D01*
X-68562161Y-33215963D01*
X-68509191Y-33148535D01*
X-68451166Y-33014948D01*
X-68431336Y-32870669D01*
X-68451166Y-32726390D01*
X-68509191Y-32592804D01*
X-68562162Y-32525374D01*
X-68660505Y-32427031D01*
X-69086466Y-32852992D01*
X-69472420Y-32852992D01*
X-69472420Y-32826955D01*
X-69446383Y-32781857D01*
X-68876031Y-32211505D01*
X-68974375Y-32113161D01*
X-69041805Y-32060190D01*
X-69175391Y-32002165D01*
X-69319670Y-31982335D01*
X-69463949Y-32002165D01*
X-69597534Y-32060189D01*
X-69664968Y-32113164D01*
X-70041820Y-32490016D01*
X-70094795Y-32557450D01*
X-70152819Y-32691035D01*
X-70157737Y-32726824D01*
X-70182947Y-32780780D01*
X-70234249Y-32811026D01*
X-70293665Y-32806962D01*
X-70340372Y-32770012D01*
X-70358000Y-32713126D01*
X-70358000Y-32172670D01*
X-70350342Y-32134172D01*
X-70328535Y-32101535D01*
X-69920761Y-31693761D01*
X-65574318Y-31693761D01*
X-65475975Y-31792104D01*
X-65408545Y-31845075D01*
X-65274959Y-31903100D01*
X-65130680Y-31922930D01*
X-64986401Y-31903100D01*
X-64852814Y-31845075D01*
X-64785386Y-31792105D01*
X-64704719Y-31711438D01*
X-65148357Y-31267800D01*
X-65574318Y-31693761D01*
X-69920761Y-31693761D01*
X-68843131Y-30616131D01*
X-66651949Y-30616131D01*
X-66553606Y-30714474D01*
X-66486176Y-30767445D01*
X-66352590Y-30825470D01*
X-66208311Y-30845300D01*
X-66120275Y-30833200D01*
X-66060295Y-30843542D01*
X-66017256Y-30886580D01*
X-66006914Y-30946561D01*
X-66019014Y-31034595D01*
X-65999184Y-31178875D01*
X-65941159Y-31312461D01*
X-65888188Y-31379891D01*
X-65789844Y-31478235D01*
X-65363883Y-31052274D01*
X-65549986Y-30866171D01*
X-65549989Y-30866169D01*
X-66225988Y-30190170D01*
X-66651949Y-30616131D01*
X-68843131Y-30616131D01*
X-68128684Y-29901684D01*
X-67864495Y-29637495D01*
X-67648969Y-29637495D01*
X-67550626Y-29735838D01*
X-67483196Y-29788809D01*
X-67349610Y-29846834D01*
X-67191632Y-29868547D01*
X-67191795Y-29869730D01*
X-67158840Y-29873877D01*
X-67117345Y-29905342D01*
X-67097143Y-29953340D01*
X-67076815Y-30101245D01*
X-67018790Y-30234831D01*
X-66965819Y-30302261D01*
X-66867475Y-30400605D01*
X-66441514Y-29974644D01*
X-66514475Y-29901683D01*
X-66527372Y-29896341D01*
X-66560008Y-29874534D01*
X-67223008Y-29211534D01*
X-67648969Y-29637495D01*
X-67864495Y-29637495D01*
X-67115245Y-28888245D01*
X-66934523Y-29068967D01*
G37*
%TD.AperFunction*%
%TD*%
%TA.AperFunction,Conductor*%
%TO.N,GND*%
G36*
X-44350147Y-29568755D02*
G01*
X-44328340Y-29601392D01*
X-44322998Y-29614289D01*
X-42423441Y-31513846D01*
X-42382079Y-31472485D01*
X-42334661Y-31445856D01*
X-42280312Y-31447797D01*
X-42234917Y-31477741D01*
X-42229617Y-31483857D01*
X-42112751Y-31558962D01*
X-41979459Y-31598100D01*
X-41840541Y-31598100D01*
X-41707249Y-31558962D01*
X-41701862Y-31555499D01*
X-41659162Y-31540210D01*
X-41614082Y-31545232D01*
X-41575794Y-31569543D01*
X-41176916Y-31974633D01*
X-41155510Y-32007076D01*
X-41148000Y-32045215D01*
X-41148000Y-32978330D01*
X-41155658Y-33016828D01*
X-41177465Y-33049465D01*
X-44293535Y-36165535D01*
X-44326172Y-36187342D01*
X-44364670Y-36195000D01*
X-45043330Y-36195000D01*
X-45081828Y-36187342D01*
X-45114465Y-36165535D01*
X-47383766Y-33896234D01*
X-47410570Y-33848082D01*
X-47407984Y-33793033D01*
X-47376782Y-33747607D01*
X-47326328Y-33725436D01*
X-47169036Y-33703818D01*
X-47035449Y-33645793D01*
X-46968021Y-33592823D01*
X-46887354Y-33512156D01*
X-47475383Y-32924127D01*
X-47501420Y-32879029D01*
X-47501420Y-32852992D01*
X-47115466Y-32852992D01*
X-46671829Y-33296629D01*
X-46591161Y-33215963D01*
X-46538191Y-33148535D01*
X-46480166Y-33014948D01*
X-46460336Y-32870669D01*
X-46480166Y-32726390D01*
X-46538191Y-32592804D01*
X-46591162Y-32525374D01*
X-46689505Y-32427031D01*
X-47115466Y-32852992D01*
X-47501420Y-32852992D01*
X-47501420Y-32826955D01*
X-47475383Y-32781857D01*
X-46905031Y-32211505D01*
X-47003375Y-32113161D01*
X-47070805Y-32060190D01*
X-47204391Y-32002165D01*
X-47348670Y-31982335D01*
X-47492949Y-32002165D01*
X-47626534Y-32060189D01*
X-47693968Y-32113164D01*
X-48070820Y-32490016D01*
X-48123795Y-32557450D01*
X-48181819Y-32691035D01*
X-48186737Y-32726824D01*
X-48211947Y-32780780D01*
X-48263249Y-32811026D01*
X-48322665Y-32806962D01*
X-48369372Y-32770012D01*
X-48387000Y-32713126D01*
X-48387000Y-32172670D01*
X-48379342Y-32134172D01*
X-48357535Y-32101535D01*
X-47967696Y-31711696D01*
X-43508565Y-31711696D01*
X-43410222Y-31810039D01*
X-43342792Y-31863010D01*
X-43209206Y-31921035D01*
X-43064927Y-31940865D01*
X-42920648Y-31921035D01*
X-42787061Y-31863010D01*
X-42719633Y-31810040D01*
X-42638966Y-31729373D01*
X-43082604Y-31285735D01*
X-43508565Y-31711696D01*
X-47967696Y-31711696D01*
X-46890065Y-30634065D01*
X-44586196Y-30634065D01*
X-44487853Y-30732408D01*
X-44420423Y-30785379D01*
X-44286837Y-30843404D01*
X-44142558Y-30863234D01*
X-44054522Y-30851134D01*
X-43994542Y-30861476D01*
X-43951503Y-30904514D01*
X-43941161Y-30964494D01*
X-43953261Y-31052530D01*
X-43933431Y-31196810D01*
X-43875406Y-31330396D01*
X-43822435Y-31397826D01*
X-43724091Y-31496170D01*
X-43298130Y-31070209D01*
X-44160235Y-30208104D01*
X-44586196Y-30634065D01*
X-46890065Y-30634065D01*
X-45800073Y-29544073D01*
X-45754975Y-29518036D01*
X-45702901Y-29518036D01*
X-45657803Y-29544073D01*
X-45556291Y-29645585D01*
X-45488861Y-29698556D01*
X-45355275Y-29756581D01*
X-45210996Y-29776411D01*
X-45131042Y-29765422D01*
X-45071062Y-29775764D01*
X-45028023Y-29818802D01*
X-45017681Y-29878783D01*
X-45030892Y-29974899D01*
X-45011062Y-30119179D01*
X-44953037Y-30252765D01*
X-44900066Y-30320195D01*
X-44801722Y-30418539D01*
X-44375761Y-29992578D01*
X-45038762Y-29329577D01*
X-45060570Y-29296938D01*
X-45065912Y-29284042D01*
X-45302977Y-29046977D01*
X-45087451Y-28831451D01*
X-44350147Y-29568755D01*
G37*
%TD.AperFunction*%
%TD*%
%TA.AperFunction,Conductor*%
%TO.N,GND*%
G36*
X-17783172Y-29217658D02*
G01*
X-17750535Y-29239465D01*
X-15523465Y-31466535D01*
X-15501658Y-31499172D01*
X-15494000Y-31537670D01*
X-15494000Y-33994330D01*
X-15501658Y-34032828D01*
X-15523465Y-34065465D01*
X-17750535Y-36292535D01*
X-17783172Y-36314342D01*
X-17821670Y-36322000D01*
X-21802330Y-36322000D01*
X-21840828Y-36314342D01*
X-21873465Y-36292535D01*
X-24100535Y-34065465D01*
X-24122342Y-34032828D01*
X-24130000Y-33994330D01*
X-24130000Y-31537670D01*
X-24122342Y-31499172D01*
X-24100535Y-31466535D01*
X-21873465Y-29239465D01*
X-21840828Y-29217658D01*
X-21802330Y-29210000D01*
X-17821670Y-29210000D01*
X-17783172Y-29217658D01*
G37*
%TD.AperFunction*%
%TD*%
%TA.AperFunction,Conductor*%
%TO.N,/rtd/TEMP2.RSENSE*%
G36*
X-57153172Y-42298658D02*
G01*
X-57120535Y-42320465D01*
X-56925465Y-42515535D01*
X-56903658Y-42548172D01*
X-56896000Y-42586670D01*
X-56896000Y-43646330D01*
X-56903658Y-43684828D01*
X-56925465Y-43717465D01*
X-57120535Y-43912535D01*
X-57153172Y-43934342D01*
X-57191670Y-43942000D01*
X-73999330Y-43942000D01*
X-74037828Y-43934342D01*
X-74070465Y-43912535D01*
X-74392535Y-43590465D01*
X-74414342Y-43557828D01*
X-74422000Y-43519330D01*
X-74422000Y-42713670D01*
X-74414342Y-42675172D01*
X-74392535Y-42642535D01*
X-74070465Y-42320465D01*
X-74037828Y-42298658D01*
X-73999330Y-42291000D01*
X-57191670Y-42291000D01*
X-57153172Y-42298658D01*
G37*
%TD.AperFunction*%
%TD*%
%TA.AperFunction,Conductor*%
%TO.N,/rtd/VREF1*%
G36*
X-49533172Y-32392658D02*
G01*
X-49500535Y-32414465D01*
X-48641000Y-33274000D01*
X-48301670Y-33274000D01*
X-48263172Y-33281658D01*
X-48230535Y-33303465D01*
X-47781465Y-33752535D01*
X-47759658Y-33785172D01*
X-47752000Y-33823670D01*
X-47752000Y-34121330D01*
X-47759658Y-34159828D01*
X-47781465Y-34192465D01*
X-48230535Y-34641535D01*
X-48263172Y-34663342D01*
X-48301670Y-34671000D01*
X-49742330Y-34671000D01*
X-49780828Y-34663342D01*
X-49813465Y-34641535D01*
X-50770535Y-33684465D01*
X-50792342Y-33651828D01*
X-50800000Y-33613330D01*
X-50800000Y-33188670D01*
X-50792342Y-33150172D01*
X-50770535Y-33117535D01*
X-50067465Y-32414465D01*
X-50034828Y-32392658D01*
X-49996330Y-32385000D01*
X-49571670Y-32385000D01*
X-49533172Y-32392658D01*
G37*
%TD.AperFunction*%
%TD*%
%TA.AperFunction,Conductor*%
%TO.N,+3V3*%
G36*
X-75441172Y-6611658D02*
G01*
X-75408535Y-6633465D01*
X-73152000Y-8890000D01*
X-70192031Y-8890000D01*
X-70141503Y-8903610D01*
X-70104647Y-8940757D01*
X-70091434Y-8991390D01*
X-70105440Y-9041810D01*
X-70176077Y-9161248D01*
X-70220583Y-9314443D01*
X-70223400Y-9350239D01*
X-70223400Y-9435800D01*
X-69239400Y-9435800D01*
X-69189100Y-9449278D01*
X-69152278Y-9486100D01*
X-69138800Y-9536400D01*
X-69138800Y-9741600D01*
X-69152278Y-9791900D01*
X-69189100Y-9828722D01*
X-69239400Y-9842200D01*
X-70223399Y-9842200D01*
X-70223399Y-9927765D01*
X-70220584Y-9963559D01*
X-70200893Y-10031333D01*
X-70202494Y-10092484D01*
X-70239222Y-10141402D01*
X-70297498Y-10160000D01*
X-72136000Y-10160000D01*
X-72559604Y-10583602D01*
X-72596662Y-10607120D01*
X-72640206Y-10612621D01*
X-72681948Y-10599058D01*
X-72687247Y-10595924D01*
X-72840444Y-10551417D01*
X-72876239Y-10548600D01*
X-72961800Y-10548600D01*
X-72961800Y-14089399D01*
X-72876235Y-14089399D01*
X-72840441Y-14086583D01*
X-72772667Y-14066893D01*
X-72711516Y-14068494D01*
X-72662598Y-14105222D01*
X-72644000Y-14163498D01*
X-72644000Y-14538502D01*
X-72662598Y-14596778D01*
X-72711516Y-14633506D01*
X-72772666Y-14635108D01*
X-72840444Y-14615417D01*
X-72876239Y-14612600D01*
X-72961800Y-14612600D01*
X-72961800Y-16375399D01*
X-72876235Y-16375399D01*
X-72840441Y-16372583D01*
X-72772667Y-16352893D01*
X-72711516Y-16354494D01*
X-72662598Y-16391222D01*
X-72644000Y-16449498D01*
X-72644000Y-16764000D01*
X-71628000Y-17780000D01*
X-71313498Y-17780000D01*
X-71255222Y-17798598D01*
X-71218494Y-17847516D01*
X-71216892Y-17908666D01*
X-71236583Y-17976443D01*
X-71239400Y-18012239D01*
X-71239400Y-18097800D01*
X-66699400Y-18097800D01*
X-66649100Y-18111278D01*
X-66612278Y-18148100D01*
X-66598800Y-18198400D01*
X-66598800Y-18403600D01*
X-66612278Y-18453900D01*
X-66649100Y-18490722D01*
X-66699400Y-18504200D01*
X-71239399Y-18504200D01*
X-71239399Y-18589765D01*
X-71236584Y-18625554D01*
X-71192076Y-18778752D01*
X-71121440Y-18898190D01*
X-71107434Y-18948610D01*
X-71120647Y-18999243D01*
X-71157503Y-19036390D01*
X-71208031Y-19050000D01*
X-73110330Y-19050000D01*
X-73148828Y-19042342D01*
X-73181465Y-19020535D01*
X-73884535Y-18317465D01*
X-73906342Y-18284828D01*
X-73914000Y-18246330D01*
X-73914000Y-16344031D01*
X-73900390Y-16293503D01*
X-73863243Y-16256647D01*
X-73812610Y-16243434D01*
X-73762190Y-16257440D01*
X-73642752Y-16328076D01*
X-73489557Y-16372582D01*
X-73453761Y-16375400D01*
X-73368200Y-16375400D01*
X-73368200Y-14612601D01*
X-73453765Y-14612601D01*
X-73489555Y-14615416D01*
X-73642753Y-14659924D01*
X-73762190Y-14730560D01*
X-73812610Y-14744566D01*
X-73863243Y-14731353D01*
X-73900390Y-14694497D01*
X-73914000Y-14643969D01*
X-73914000Y-14058031D01*
X-73900390Y-14007503D01*
X-73863243Y-13970647D01*
X-73812610Y-13957434D01*
X-73762190Y-13971440D01*
X-73642752Y-14042076D01*
X-73489557Y-14086582D01*
X-73453761Y-14089400D01*
X-73368200Y-14089400D01*
X-73368200Y-10548601D01*
X-73453765Y-10548601D01*
X-73489555Y-10551416D01*
X-73642753Y-10595924D01*
X-73762190Y-10666560D01*
X-73812610Y-10680566D01*
X-73863243Y-10667353D01*
X-73900390Y-10630497D01*
X-73914000Y-10579969D01*
X-73914000Y-9652000D01*
X-76170535Y-7395465D01*
X-76192342Y-7362828D01*
X-76200000Y-7324330D01*
X-76200000Y-7153670D01*
X-76192342Y-7115172D01*
X-76170535Y-7082535D01*
X-75721465Y-6633465D01*
X-75688828Y-6611658D01*
X-75650330Y-6604000D01*
X-75479670Y-6604000D01*
X-75441172Y-6611658D01*
G37*
%TD.AperFunction*%
%TD*%
%TA.AperFunction,Conductor*%
%TO.N,/rtd/VREF2*%
G36*
X-71504172Y-32392658D02*
G01*
X-71471535Y-32414465D01*
X-70612000Y-33274000D01*
X-70272670Y-33274000D01*
X-70234172Y-33281658D01*
X-70201535Y-33303465D01*
X-69752465Y-33752535D01*
X-69730658Y-33785172D01*
X-69723000Y-33823670D01*
X-69723000Y-34121330D01*
X-69730658Y-34159828D01*
X-69752465Y-34192465D01*
X-70201535Y-34641535D01*
X-70234172Y-34663342D01*
X-70272670Y-34671000D01*
X-71713330Y-34671000D01*
X-71751828Y-34663342D01*
X-71784465Y-34641535D01*
X-72741535Y-33684465D01*
X-72763342Y-33651828D01*
X-72771000Y-33613330D01*
X-72771000Y-33188670D01*
X-72763342Y-33150172D01*
X-72741535Y-33117535D01*
X-72038465Y-32414465D01*
X-72005828Y-32392658D01*
X-71967330Y-32385000D01*
X-71542670Y-32385000D01*
X-71504172Y-32392658D01*
G37*
%TD.AperFunction*%
%TD*%
%TA.AperFunction,Conductor*%
%TO.N,GND*%
G36*
X-77727172Y-38361658D02*
G01*
X-77694535Y-38383465D01*
X-77499465Y-38578535D01*
X-77477658Y-38611172D01*
X-77470000Y-38649670D01*
X-77470000Y-41360330D01*
X-77477658Y-41398828D01*
X-77499465Y-41431465D01*
X-77694535Y-41626535D01*
X-77727172Y-41648342D01*
X-77765670Y-41656000D01*
X-85429330Y-41656000D01*
X-85467828Y-41648342D01*
X-85500465Y-41626535D01*
X-85949535Y-41177465D01*
X-85971342Y-41144828D01*
X-85979000Y-41106330D01*
X-85979000Y-40427670D01*
X-85971342Y-40389172D01*
X-85949535Y-40356535D01*
X-85627465Y-40034465D01*
X-85594828Y-40012658D01*
X-85556330Y-40005000D01*
X-85217000Y-40005000D01*
X-84738465Y-39526465D01*
X-84705828Y-39504658D01*
X-84667330Y-39497000D01*
X-84242670Y-39497000D01*
X-84204172Y-39504658D01*
X-84171536Y-39526464D01*
X-83693000Y-40005000D01*
X-83185000Y-40005000D01*
X-81563465Y-38383465D01*
X-81530828Y-38361658D01*
X-81492330Y-38354000D01*
X-77765670Y-38354000D01*
X-77727172Y-38361658D01*
G37*
%TD.AperFunction*%
%TD*%
%TA.AperFunction,Conductor*%
%TO.N,+3V3*%
G36*
X-48497937Y-6032000D02*
G01*
X-45482063Y-6032000D01*
X-45477037Y-6029098D01*
X-45424963Y-6029098D01*
X-45379865Y-6055135D01*
X-45114465Y-6320535D01*
X-45092658Y-6353172D01*
X-45085000Y-6391670D01*
X-45085000Y-7197330D01*
X-45092658Y-7235828D01*
X-45114465Y-7268465D01*
X-45309535Y-7463535D01*
X-45342172Y-7485342D01*
X-45380670Y-7493000D01*
X-48599330Y-7493000D01*
X-48637828Y-7485342D01*
X-48670465Y-7463535D01*
X-48865535Y-7268465D01*
X-48887342Y-7235828D01*
X-48895000Y-7197330D01*
X-48895000Y-6391670D01*
X-48887342Y-6353172D01*
X-48865535Y-6320535D01*
X-48831000Y-6286000D01*
X-48481000Y-6286000D01*
X-48481000Y-6413680D01*
X-48478124Y-6444357D01*
X-48432922Y-6573536D01*
X-48351654Y-6683653D01*
X-48241537Y-6764921D01*
X-48112358Y-6810123D01*
X-48081680Y-6813000D01*
X-47879000Y-6813000D01*
X-47879000Y-6286000D01*
X-47625000Y-6286000D01*
X-47625000Y-6813000D01*
X-47422320Y-6813000D01*
X-47391643Y-6810123D01*
X-47262464Y-6764921D01*
X-47152347Y-6683653D01*
X-47070943Y-6573353D01*
X-47020849Y-6537338D01*
X-46959151Y-6537338D01*
X-46909057Y-6573353D01*
X-46827654Y-6683653D01*
X-46717537Y-6764921D01*
X-46588358Y-6810123D01*
X-46557680Y-6813000D01*
X-46355000Y-6813000D01*
X-46355000Y-6286000D01*
X-46101000Y-6286000D01*
X-46101000Y-6813000D01*
X-45898320Y-6813000D01*
X-45867643Y-6810123D01*
X-45738464Y-6764921D01*
X-45628347Y-6683653D01*
X-45547079Y-6573536D01*
X-45501877Y-6444357D01*
X-45499000Y-6413680D01*
X-45499000Y-6286000D01*
X-46101000Y-6286000D01*
X-46355000Y-6286000D01*
X-47625000Y-6286000D01*
X-47879000Y-6286000D01*
X-48481000Y-6286000D01*
X-48831000Y-6286000D01*
X-48600135Y-6055135D01*
X-48555037Y-6029098D01*
X-48502963Y-6029098D01*
X-48497937Y-6032000D01*
G37*
%TD.AperFunction*%
%TD*%
%TA.AperFunction,Conductor*%
%TO.N,+3V3*%
G36*
X-77854972Y-25790591D02*
G01*
X-77814095Y-25817905D01*
X-76109905Y-27522095D01*
X-76082591Y-27562972D01*
X-76073000Y-27611190D01*
X-76073000Y-28014810D01*
X-76082591Y-28063028D01*
X-76109905Y-28103905D01*
X-76290095Y-28284095D01*
X-76330972Y-28311409D01*
X-76379190Y-28321000D01*
X-77216000Y-28321000D01*
X-77560098Y-28665097D01*
X-77600972Y-28692409D01*
X-77649190Y-28702000D01*
X-77925810Y-28702000D01*
X-77974028Y-28692409D01*
X-78014905Y-28665095D01*
X-78576095Y-28103905D01*
X-78603409Y-28063028D01*
X-78613000Y-28014810D01*
X-78613000Y-26092526D01*
X-78603409Y-26044308D01*
X-78576095Y-26003431D01*
X-78390569Y-25817905D01*
X-78349692Y-25790591D01*
X-78301474Y-25781000D01*
X-77903190Y-25781000D01*
X-77854972Y-25790591D01*
G37*
%TD.AperFunction*%
%TD*%
%TA.AperFunction,Conductor*%
%TO.N,Net-(C50-Pad1)*%
G36*
X-79433230Y-21217509D02*
G01*
X-79393860Y-21241886D01*
X-79384829Y-21250119D01*
X-79380641Y-21254118D01*
X-79367676Y-21267083D01*
X-79367673Y-21267085D01*
X-79366971Y-21267787D01*
X-79355356Y-21276988D01*
X-79335307Y-21295266D01*
X-79328752Y-21297805D01*
X-79303056Y-21311350D01*
X-79297257Y-21315323D01*
X-79297255Y-21315323D01*
X-79297254Y-21315324D01*
X-79270835Y-21321537D01*
X-79254180Y-21326694D01*
X-79228870Y-21336500D01*
X-79221833Y-21336500D01*
X-79192987Y-21339846D01*
X-79186144Y-21341456D01*
X-79159275Y-21337707D01*
X-79141868Y-21336500D01*
X-79045690Y-21336500D01*
X-78997472Y-21346091D01*
X-78956595Y-21373405D01*
X-77760905Y-22569095D01*
X-77733591Y-22609972D01*
X-77724000Y-22658190D01*
X-77724000Y-23315810D01*
X-77733591Y-23364028D01*
X-77760905Y-23404905D01*
X-77941095Y-23585095D01*
X-77981972Y-23612409D01*
X-78030190Y-23622000D01*
X-79449810Y-23622000D01*
X-79498028Y-23612409D01*
X-79538905Y-23585095D01*
X-80100095Y-23023905D01*
X-80127409Y-22983028D01*
X-80137000Y-22934810D01*
X-80137000Y-21565951D01*
X-80127410Y-21517736D01*
X-80100101Y-21476861D01*
X-80088475Y-21465234D01*
X-80083504Y-21460262D01*
X-80060738Y-21442228D01*
X-80054758Y-21438527D01*
X-80038407Y-21416873D01*
X-80026958Y-21403716D01*
X-79869145Y-21245903D01*
X-79828268Y-21218591D01*
X-79780050Y-21209000D01*
X-79478747Y-21209000D01*
X-79433230Y-21217509D01*
G37*
%TD.AperFunction*%
%TD*%
%TA.AperFunction,Conductor*%
%TO.N,GND*%
G36*
X-75187972Y-22615591D02*
G01*
X-75147095Y-22642905D01*
X-73315905Y-24474095D01*
X-73288591Y-24514972D01*
X-73279000Y-24563190D01*
X-73279000Y-24712810D01*
X-73288591Y-24761028D01*
X-73315905Y-24801905D01*
X-74004095Y-25490095D01*
X-74044972Y-25517409D01*
X-74093190Y-25527000D01*
X-78359002Y-25527000D01*
X-78867000Y-26034998D01*
X-78867000Y-26744810D01*
X-78876591Y-26793028D01*
X-78903905Y-26833905D01*
X-79592095Y-27522095D01*
X-79632972Y-27549409D01*
X-79681190Y-27559000D01*
X-80084810Y-27559000D01*
X-80133028Y-27549409D01*
X-80173905Y-27522095D01*
X-80862095Y-26833905D01*
X-80889409Y-26793028D01*
X-80899000Y-26744810D01*
X-80899000Y-25706190D01*
X-80889409Y-25657972D01*
X-80862095Y-25617095D01*
X-79411905Y-24166905D01*
X-79371028Y-24139591D01*
X-79322810Y-24130000D01*
X-77470000Y-24130000D01*
X-75982905Y-22642905D01*
X-75942028Y-22615591D01*
X-75893810Y-22606000D01*
X-75236190Y-22606000D01*
X-75187972Y-22615591D01*
G37*
%TD.AperFunction*%
%TD*%
M02*
