M48
; DRILL file {KiCad 7.0.1-0} date 2023 July 11, Tuesday 13:22:58
; FORMAT={-:-/ absolute / metric / decimal}
; #@! TF.CreationDate,2023-07-11T13:22:58-05:00
; #@! TF.GenerationSoftware,Kicad,Pcbnew,7.0.1-0
; #@! TF.FileFunction,Plated,1,4,PTH
FMAT,2
METRIC
; #@! TA.AperFunction,Plated,PTH,ViaDrill
T1C0.203
; #@! TA.AperFunction,Plated,PTH,ViaDrill
T2C0.254
; #@! TA.AperFunction,Plated,PTH,ViaDrill
T3C0.305
; #@! TA.AperFunction,Plated,PTH,ViaDrill
T4C0.406
; #@! TA.AperFunction,Plated,PTH,ViaDrill
T5C0.610
; #@! TA.AperFunction,Plated,PTH,ComponentDrill
T6C0.650
; #@! TA.AperFunction,Plated,PTH,ComponentDrill
T7C0.700
; #@! TA.AperFunction,Plated,PTH,ComponentDrill
T8C1.000
; #@! TA.AperFunction,Plated,PTH,ComponentDrill
T9C1.400
; #@! TA.AperFunction,Plated,PTH,ComponentDrill
T10C2.250
; #@! TA.AperFunction,Plated,PTH,ComponentDrill
T11C2.946
%
G90
G05
T1
X-107.823Y-33.655
X-107.442Y-34.29
X-107.315Y-32.893
X-106.553Y-32.385
X-105.664Y-32.004
X-104.775Y-32.004
X-104.394Y-32.639
X-103.505Y-24.003
X-103.378Y-1.778
X-103.378Y-2.54
X-103.124Y-25.273
X-102.616Y-1.778
X-102.616Y-2.54
X-98.679Y-3.556
X-98.552Y-5.334
X-98.552Y-8.636
X-98.552Y-13.716
X-98.552Y-18.796
X-98.552Y-49.657
X-98.048Y-3.556
X-97.79Y-8.636
X-97.79Y-13.716
X-97.79Y-18.796
X-97.536Y-49.784
X-97.409Y-3.556
X-96.647Y-49.276
X-95.758Y-48.768
X-95.504Y-48.006
X-94.234Y-27.686
X-93.472Y-27.178
X-92.583Y-26.67
X-91.948Y-3.556
X-91.948Y-4.318
X-91.948Y-5.08
X-91.186Y-3.556
X-91.186Y-4.318
X-91.186Y-5.08
X-91.186Y-7.874
X-91.186Y-8.636
X-91.186Y-9.398
X-91.186Y-10.922
X-91.186Y-11.684
X-91.186Y-12.954
X-91.186Y-13.716
X-91.186Y-14.478
X-91.186Y-18.034
X-91.186Y-18.796
X-91.186Y-19.558
X-90.424Y-10.922
X-90.424Y-11.684
X-90.424Y-34.036
X-89.662Y-11.684
X-89.662Y-12.446
X-89.662Y-13.208
X-89.662Y-33.655
X-87.454Y2.032
X-87.454Y1.27
X-87.122Y-23.241
X-86.692Y1.27
X-86.614Y-22.733
X-86.233Y-12.827
X-86.233Y-13.589
X-86.233Y-22.098
X-85.93Y1.27
X-85.471Y-38.481
X-85.168Y1.27
X-85.09Y-39.116
X-84.709Y-12.827
X-84.709Y-13.589
X-84.455Y-39.751
X-84.406Y2.032
X-84.406Y1.27
X-83.644Y1.27
X-82.296Y-4.318
X-82.296Y-5.08
X-82.296Y-5.842
X-82.042Y-39.624
X-82.042Y-40.386
X-82.042Y-41.148
X-81.28Y-38.862
X-81.28Y-39.624
X-81.28Y-40.386
X-81.28Y-41.148
X-81.231Y-1.524
X-81.026Y-9.906
X-81.026Y-10.668
X-81.026Y-11.43
X-81.026Y-12.192
X-81.026Y-12.954
X-81.026Y-13.716
X-81.026Y-14.478
X-81.026Y-15.24
X-81.026Y-16.002
X-81.026Y-16.764
X-80.518Y-9.398
X-80.518Y-17.272
X-80.518Y-38.862
X-80.518Y-39.624
X-80.518Y-40.386
X-80.518Y-41.148
X-80.469Y-1.524
X-80.264Y-16.002
X-80.01Y-8.89
X-80.01Y-17.78
X-79.707Y-0.762
X-79.502Y-9.398
X-79.248Y-17.78
X-78.994Y-8.89
X-78.945Y-0.762
X-78.486Y-9.398
X-78.486Y-17.78
X-78.183Y-0.762
X-77.724Y-17.78
X-77.421Y-1.524
X-77.216Y-17.272
X-76.962Y-11.938
X-76.708Y-16.002
X-76.708Y-16.764
X-76.454Y-12.7
X-75.692Y-7.112
X-75.692Y-12.319
X-75.692Y-14.605
X-74.93Y-7.874
X-74.168Y-6.858
X-74.168Y-8.636
X-73.406Y-9.398
X-73.279Y-17.78
X-73.152Y-6.858
X-73.152Y-12.319
X-72.644Y-18.415
X-72.39Y-28.448
X-72.39Y-33.401
X-71.755Y-32.766
X-71.628Y-37.973
X-71.501Y-6.096
X-71.374Y-28.448
X-71.12Y-23.876
X-70.358Y-9.652
X-70.358Y-12.446
X-70.358Y-13.208
X-70.358Y-13.97
X-70.358Y-14.732
X-70.358Y-15.494
X-70.358Y-23.876
X-70.358Y-27.686
X-70.358Y-28.448
X-70.105Y-37.973
X-69.596Y-12.446
X-69.596Y-13.208
X-69.596Y-13.97
X-69.596Y-14.732
X-69.596Y-15.494
X-69.596Y-23.114
X-69.596Y-23.876
X-69.596Y-26.924
X-69.596Y-27.686
X-69.469Y-18.288
X-68.834Y-12.446
X-68.834Y-13.208
X-68.834Y-13.97
X-68.834Y-14.732
X-68.834Y-15.494
X-68.834Y-26.924
X-68.834Y-38.354
X-68.072Y-12.446
X-68.072Y-13.208
X-68.072Y-13.97
X-68.072Y-14.732
X-68.072Y-15.494
X-68.072Y-24.765
X-67.753Y-32.512
X-67.691Y-18.288
X-67.31Y-12.446
X-67.31Y-13.208
X-67.31Y-13.97
X-67.31Y-14.732
X-67.31Y-15.494
X-67.214Y-31.973
X-67.214Y-33.051
X-66.675Y-31.434
X-66.675Y-32.512
X-66.675Y-33.59
X-66.167Y-28.829
X-66.136Y-31.973
X-66.136Y-33.051
X-65.913Y-38.735
X-65.659Y-6.858
X-65.597Y-32.512
X-65.278Y-9.652
X-64.262Y-18.542
X-64.198Y-7.683
X-64.135Y-31.115
X-64.135Y-38.227
X-63.754Y-27.813
X-63.627Y-24.765
X-62.865Y-37.973
X-61.849Y-32.512
X-61.595Y-14.351
X-61.595Y-37.338
X-61.341Y-33.02
X-61.087Y-34.726
X-61.087Y-36.068
X-60.833Y-33.528
X-60.452Y-12.7
X-59.563Y-12.7
X-57.277Y-15.367
X-56.642Y-14.732
X-56.007Y-16.891
X-56.007Y-17.653
X-56.007Y-18.415
X-56.007Y-19.177
X-56.007Y-19.939
X-56.007Y-20.701
X-56.007Y-21.463
X-56.007Y-22.225
X-56.007Y-22.987
X-56.007Y-23.749
X-56.007Y-24.511
X-54.356Y-11.303
X-53.467Y-11.303
X-53.467Y-12.192
X-52.578Y-11.303
X-51.054Y-8.001
X-50.419Y-28.448
X-50.419Y-33.401
X-50.165Y-8.001
X-50.165Y-7.112
X-49.784Y-32.766
X-49.403Y-28.448
X-48.895Y-37.465
X-48.514Y-7.112
X-48.387Y-27.686
X-48.387Y-28.448
X-47.879Y-38.227
X-47.752Y-7.112
X-47.625Y-27.686
X-46.99Y-7.112
X-46.609Y-38.735
X-46.228Y-7.112
X-45.782Y-32.512
X-45.466Y-7.112
X-45.243Y-31.973
X-45.243Y-33.051
X-44.704Y-31.434
X-44.704Y-32.512
X-44.704Y-33.59
X-44.196Y-28.829
X-44.165Y-31.973
X-44.165Y-33.051
X-43.626Y-32.512
X-43.434Y-39.243
X-42.164Y-37.846
X-41.91Y-27.813
X-41.91Y-31.115
X-41.148Y-37.592
X-39.878Y-32.639
X-39.878Y-37.338
X-39.37Y-33.147
X-39.116Y-34.671
X-39.116Y-36.068
X-38.862Y-33.655
X-33.02Y-16.891
X-32.766Y-8.255
X-32.766Y-9.144
X-32.639Y-13.335
X-32.639Y-20.955
X-32.639Y-21.717
X-32.131Y-16.891
X-31.877Y-8.255
X-31.75Y-13.335
X-30.988Y-11.938
X-30.48Y-28.956
X-30.353Y-15.367
X-30.099Y-8.255
X-29.845Y-17.145
X-29.718Y-28.956
X-29.337Y-20.955
X-29.337Y-21.717
X-29.21Y-8.255
X-29.21Y-9.144
X-29.21Y-10.033
X-28.702Y-18.288
X-28.575Y-13.335
X-27.813Y-13.335
X-27.813Y-20.574
X-27.432Y-27.686
X-27.432Y-28.448
X-27.305Y-15.24
X-27.051Y-13.335
X-27.051Y-20.574
X-26.67Y-28.448
X-26.67Y-27.686
X-26.543Y-15.24
X-26.289Y-13.335
X-26.162Y-31.242
X-26.162Y-34.417
X-26.162Y-30.48
X-26.162Y-32.004
X-26.162Y-32.766
X-26.162Y-33.655
X-25.908Y-24.257
X-25.908Y-26.67
X-25.908Y-25.019
X-25.908Y-25.908
X-25.527Y-15.24
X-24.765Y-15.24
X-24.765Y-16.002
X-24.765Y-16.764
X-24.003Y-19.812
X-22.86Y-25.654
X-22.86Y-26.416
X-22.86Y-27.178
X-22.098Y-25.654
X-22.098Y-26.416
X-22.098Y-27.178
X-21.336Y-24.892
X-21.336Y-26.416
X-21.336Y-27.178
X-20.828Y-14.986
X-20.828Y-20.574
X-20.701Y-9.398
X-20.574Y-24.892
X-20.574Y-25.654
X-20.574Y-27.178
X-19.812Y-24.892
X-19.812Y-25.654
X-19.812Y-26.416
X-19.05Y-24.892
X-19.05Y-25.654
X-19.05Y-26.416
X-18.669Y-12.192
X-18.669Y-17.78
X-18.669Y-23.368
X-18.288Y-24.892
X-18.288Y-25.654
X-18.288Y-26.416
X-17.907Y-12.192
X-17.907Y-17.78
X-17.907Y-23.368
X-17.526Y-24.892
X-17.526Y-25.654
X-17.526Y-26.416
X-16.764Y-24.892
X-16.764Y-25.654
X-16.764Y-26.416
X-15.494Y-12.192
X-15.494Y-17.78
X-15.494Y-23.368
X-13.335Y-14.986
X-13.335Y-20.574
X-13.335Y-26.162
X-12.573Y-14.986
X-12.573Y-20.574
X-12.573Y-26.162
T2
X-93.853Y0.127
X-93.853Y-0.762
X-92.964Y0.127
X-92.964Y-0.762
X-91.821Y2.286
X-91.821Y1.397
X-90.932Y2.286
X-90.932Y1.397
X-90.17Y0.381
X-88.519Y-13.716
X-88.392Y-32.639
X-87.884Y-14.351
X-87.63Y-31.75
X-87.249Y-14.859
X-86.741Y-30.861
X-86.614Y-35.306
X-85.979Y-29.972
X-85.852Y-34.417
X-85.344Y-25.527
X-85.217Y-29.083
X-84.963Y-33.528
X-84.328Y-26.035
X-84.328Y-27.051
X-84.328Y-28.194
X-84.328Y-36.83
X-84.201Y-32.639
X-83.439Y-31.75
X-83.439Y-35.941
X-83.439Y-39.497
X-83.185Y-24.892
X-82.677Y-35.052
X-82.55Y-30.861
X-82.169Y-23.876
X-81.915Y-34.163
X-81.788Y-29.972
X-81.153Y-22.86
X-81.026Y-27.94
X-81.026Y-29.083
X-81.026Y-33.274
X-80.518Y-20.447
X-80.518Y-26.543
X-80.264Y-32.385
X-79.883Y-19.685
X-79.883Y-27.178
X-79.756Y-21.59
X-79.502Y-31.496
X-79.248Y-26.543
X-78.613Y-24.511
X-78.613Y-30.607
X-78.232Y-7.62
X-78.232Y-26.162
X-78.105Y-23.241
X-77.611Y-6.223
X-77.597Y-29.591
X-76.962Y-4.445
X-76.454Y-27.94
X-75.819Y-25.146
X-75.068Y-24.395
X-73.533Y-21.717
X-72.39Y-22.86
X-68.718Y-7.112
X-67.945Y-6.604
X-64.643Y-21.463
X-64.516Y-19.939
X-62.103Y-28.067
X-61.722Y-29.083
X-60.833Y-29.083
X-59.944Y-29.083
X-59.69Y-16.891
X-59.69Y-18.415
X-59.563Y-22.987
X-59.563Y-24.511
X-40.767Y-27.94
X-39.878Y-27.94
X-38.989Y-27.94
X-38.1Y-27.94
X-33.401Y-32.766
X-32.512Y-31.877
X-31.369Y-33.528
X-29.718Y-24.327
X-29.464Y-31.623
X-29.337Y-32.385
X-29.083Y-24.892
X-29.083Y-25.908
X-17.78Y-14.617
X-17.78Y-15.356
X-17.78Y-20.943
X-17.77Y-9.767
X-17.763Y-20.205
X-17.763Y-9.028
T3
X-110.49Y-27.305
X-110.49Y-29.21
X-110.49Y-31.115
X-108.585Y-29.21
X-108.585Y-31.115
X-106.68Y-29.21
X-104.775Y-29.21
X-102.87Y-29.21
X-102.87Y-31.115
X-100.965Y-29.21
X-97.79Y-52.07
X-96.266Y-8.636
X-96.266Y-13.716
X-96.266Y-18.796
X-95.885Y-50.165
X-95.885Y-52.07
X-94.488Y-8.636
X-94.488Y-13.716
X-94.488Y-18.796
X-93.98Y-48.26
X-93.98Y-50.165
X-93.98Y-52.07
X-92.075Y-46.355
X-92.075Y-48.26
X-90.17Y-44.45
X-90.17Y-46.355
X-90.17Y-48.26
X-88.265Y-44.45
X-88.265Y-46.355
X-88.265Y-48.26
X-86.36Y-46.355
X-86.36Y-48.26
X-84.455Y-46.355
X-84.455Y-48.26
X-84.455Y-50.165
X-82.55Y-46.355
X-82.55Y-48.26
X-82.55Y-50.165
X-82.55Y-52.07
X-80.645Y-50.165
X-80.645Y-52.07
X-78.74Y-50.165
X-78.74Y-52.07
X-76.835Y-50.165
X-76.835Y-52.07
X-74.93Y-50.165
X-74.93Y-52.07
X-74.881Y-0.762
X-73.025Y-50.165
X-73.025Y-52.07
X-71.12Y-50.165
X-71.12Y-52.07
X-69.215Y-50.165
X-69.215Y-52.07
X-67.31Y-50.165
X-67.31Y-52.07
X-65.405Y-50.165
X-65.405Y-52.07
X-63.5Y-50.165
X-63.5Y-52.07
X-61.595Y-50.165
X-61.595Y-52.07
X-59.69Y-50.165
X-59.69Y-52.07
X-57.785Y-50.165
X-57.785Y-52.07
X-56.466Y-8.431
X-55.88Y-50.165
X-55.88Y-52.07
X-53.975Y-50.165
X-53.975Y-52.07
X-52.07Y-50.165
X-52.07Y-52.07
X-50.165Y-50.165
X-50.165Y-52.07
X-49.276Y-13.843
X-48.26Y-50.165
X-48.26Y-52.07
X-47.879Y-14.605
X-46.355Y-50.165
X-46.355Y-52.07
X-44.45Y-50.165
X-44.45Y-52.07
X-42.545Y-50.165
X-42.545Y-52.07
X-40.64Y-50.165
X-40.64Y-52.07
X-38.735Y-50.165
X-38.735Y-52.07
X-36.83Y-50.165
X-36.83Y-52.07
X-34.925Y-50.165
X-34.925Y-52.07
X-33.02Y-50.165
X-33.02Y-52.07
X-31.115Y-50.165
X-31.115Y-52.07
X-29.21Y-50.165
X-29.21Y-52.07
X-28.575Y-17.145
X-27.305Y-50.165
X-27.305Y-52.07
X-25.4Y-50.165
X-23.495Y-50.165
X-23.495Y-52.07
X-22.86Y-31.242
X-22.86Y-32.766
X-22.86Y-34.29
X-21.59Y-50.165
X-21.59Y-52.07
X-21.336Y-29.972
X-21.336Y-31.242
X-21.336Y-32.766
X-21.336Y-34.29
X-21.336Y-35.56
X-19.812Y-29.972
X-19.812Y-31.242
X-19.812Y-32.766
X-19.812Y-34.29
X-19.812Y-35.56
X-18.288Y-29.972
X-18.288Y-31.242
X-18.288Y-32.766
X-18.288Y-34.29
X-18.288Y-35.56
X-16.764Y-31.242
X-16.764Y-32.766
X-16.764Y-34.29
X-16.51Y-6.096
X-16.51Y-7.62
X-14.986Y-4.572
X-14.986Y-6.096
X-14.986Y-7.62
X-13.462Y1.524
X-13.462Y0.0
X-13.462Y-1.524
X-13.462Y-3.048
X-13.462Y-4.572
X-13.462Y-6.096
X-13.462Y-7.62
X-11.938Y1.524
X-11.938Y0.0
X-11.938Y-1.524
X-11.938Y-3.048
X-11.938Y-4.572
X-11.938Y-6.096
X-11.938Y-7.62
X-11.938Y-9.144
X-10.414Y1.524
X-10.414Y0.0
X-10.414Y-1.524
X-10.414Y-3.048
X-10.414Y-4.572
X-10.414Y-6.096
X-8.89Y1.524
X-8.89Y0.0
X-8.89Y-1.524
X-8.89Y-3.048
X-8.89Y-4.572
X-7.366Y1.524
X-7.366Y0.0
X-7.366Y-1.524
X-7.366Y-3.048
X-3.81Y-4.445
X-3.81Y-6.35
X-3.81Y-8.255
X-3.81Y-10.16
X-3.81Y-12.065
X-3.81Y-13.97
X-3.81Y-15.875
X-3.81Y-17.78
X-3.81Y-19.685
X-3.81Y-21.59
X-3.81Y-23.495
X-3.81Y-25.4
X-3.81Y-27.305
X-3.81Y-29.21
X-3.81Y-31.115
X-3.81Y-33.02
X-3.81Y-34.925
X-1.905Y-4.445
X-1.905Y-6.35
X-1.905Y-8.255
X-1.905Y-10.16
X-1.905Y-12.065
X-1.905Y-13.97
X-1.905Y-15.875
X-1.905Y-17.78
X-1.905Y-19.685
X-1.905Y-21.59
X-1.905Y-23.495
X-1.905Y-25.4
X-1.905Y-27.305
X-1.905Y-29.21
X-1.905Y-31.115
X-1.905Y-33.02
X-1.905Y-34.925
X0.0Y-4.445
X0.0Y-6.35
X0.0Y-8.255
X0.0Y-10.16
X0.0Y-12.065
X0.0Y-13.97
X0.0Y-15.875
X0.0Y-17.78
X0.0Y-19.685
X0.0Y-21.59
X0.0Y-23.495
X0.0Y-25.4
X0.0Y-27.305
X0.0Y-29.21
X0.0Y-31.115
X0.0Y-33.02
X0.0Y-34.925
T4
X-102.87Y1.524
X-90.805Y-1.524
T5
X-100.076Y-6.477
X-88.138Y-28.067
X-74.168Y-38.227
X-52.324Y-38.227
T6
X-73.61Y-43.085
X-73.61Y-45.085
X-73.61Y-47.085
X-71.61Y-43.085
X-71.61Y-45.085
X-71.61Y-47.085
X-69.61Y-43.085
X-69.61Y-45.085
X-69.61Y-47.085
X-67.61Y-43.085
X-67.61Y-45.085
X-67.61Y-47.085
X-65.61Y-43.085
X-65.61Y-45.085
X-65.61Y-47.085
X-63.61Y-43.085
X-63.61Y-45.085
X-63.61Y-47.085
X-61.61Y-43.085
X-61.61Y-45.085
X-61.61Y-47.085
X-59.61Y-43.085
X-59.61Y-45.085
X-59.61Y-47.085
X-57.61Y-43.085
X-57.61Y-45.085
X-57.61Y-47.085
X-55.61Y-43.085
X-55.61Y-45.085
X-55.61Y-47.085
X-53.61Y-43.085
X-53.61Y-45.085
X-53.61Y-47.085
X-51.61Y-43.085
X-51.61Y-45.085
X-51.61Y-47.085
X-49.61Y-43.085
X-49.61Y-45.085
X-49.61Y-47.085
X-47.61Y-43.085
X-47.61Y-45.085
X-47.61Y-47.085
X-45.61Y-43.085
X-45.61Y-45.085
X-45.61Y-47.085
X-43.61Y-43.085
X-43.61Y-45.085
X-43.61Y-47.085
X-41.61Y-43.085
X-41.61Y-45.085
X-41.61Y-47.085
X-39.61Y-43.085
X-39.61Y-45.085
X-39.61Y-47.085
X-37.61Y-43.085
X-37.61Y-45.085
X-37.61Y-47.085
X-35.61Y-43.085
X-35.61Y-45.085
X-35.61Y-47.085
T7
X-8.62Y-12.78
X-8.62Y-14.78
X-8.62Y-16.78
X-8.62Y-18.78
X-8.62Y-20.78
X-8.62Y-22.78
X-6.62Y-12.78
X-6.62Y-14.78
X-6.62Y-16.78
X-6.62Y-18.78
X-6.62Y-20.78
X-6.62Y-22.78
T8
X-108.458Y-6.387
X-108.458Y-8.927
X-108.458Y-11.467
X-108.458Y-14.007
X-108.458Y-16.547
X-108.458Y-19.087
X-108.458Y-21.627
X-108.458Y-24.167
X-105.918Y-6.387
X-105.918Y-8.927
X-105.918Y-11.467
X-105.918Y-14.007
X-105.918Y-16.547
X-105.918Y-19.087
X-105.918Y-21.627
X-105.918Y-24.167
X-76.708Y-37.084
X-70.612Y0.762
X-68.072Y0.762
X-65.532Y0.762
X-58.166Y-27.813
X-58.166Y-32.639
X-55.372Y0.762
X-54.61Y-37.084
X-53.081Y-9.652
X-52.832Y0.762
X-50.541Y-9.652
X-50.292Y0.762
X-47.879Y-21.59
X-47.752Y0.762
X-45.212Y0.762
X-44.831Y-21.59
X-42.672Y0.762
X-41.783Y-21.59
X-40.132Y0.762
X-37.973Y-13.716
X-37.592Y0.762
X-35.052Y0.762
X-34.925Y-13.716
X-34.925Y-16.764
X-34.925Y-19.812
X-33.274Y-27.051
X-33.274Y-30.099
X-32.512Y0.762
X-29.972Y0.762
X-27.432Y0.762
X-24.892Y0.762
X-22.352Y0.762
X-19.812Y0.762
X-17.272Y0.762
T9
X-60.452Y0.762
T10
X-78.11Y-45.085
X-31.11Y-45.085
X-7.62Y-9.28
X-7.62Y-26.28
T11
X-109.22Y0.0
X-88.265Y-52.07
X-15.875Y-52.07
X0.0Y0.0
T0
M30
