%TF.GenerationSoftware,KiCad,Pcbnew,7.0.1-0*%
%TF.CreationDate,2023-07-11T13:22:56-05:00*%
%TF.ProjectId,plenum,706c656e-756d-42e6-9b69-6361645f7063,2*%
%TF.SameCoordinates,PXbe27330PY316a640*%
%TF.FileFunction,Profile,NP*%
%FSLAX46Y46*%
G04 Gerber Fmt 4.6, Leading zero omitted, Abs format (unit mm)*
G04 Created by KiCad (PCBNEW 7.0.1-0) date 2023-07-11 13:22:56*
%MOMM*%
%LPD*%
G01*
G04 APERTURE LIST*
%TA.AperFunction,Profile*%
%ADD10C,0.254000*%
%TD*%
G04 APERTURE END LIST*
D10*
X-100425447Y-31328237D02*
X-109224265Y-36408237D01*
X-95413095Y-37469886D02*
X-92135595Y-43146683D01*
X-98690537Y-31793055D02*
G75*
G03*
X-100425447Y-31328238I-1099863J-635045D01*
G01*
X-9001396Y-54546500D02*
X3384630Y-33093272D01*
X-92600447Y-44881535D02*
X-101399265Y-49961535D01*
X-112604631Y-33093272D02*
X-110959118Y-35943385D01*
X-97468974Y-56134000D02*
X-11751027Y-56134000D01*
X-109855000Y3556000D02*
G75*
G03*
X-113030000Y381000I0J-3175000D01*
G01*
X635000Y3556000D02*
X-109855000Y3556000D01*
X-113029999Y-31505772D02*
G75*
G03*
X-112604630Y-33093272I3174899J-28D01*
G01*
X-92600426Y-44881572D02*
G75*
G03*
X-92135595Y-43146683I-635074J1099872D01*
G01*
X-95413095Y-37469886D02*
X-98690595Y-31793089D01*
X3810000Y381000D02*
G75*
G03*
X635000Y3556000I-3175000J0D01*
G01*
X-101399250Y-49961561D02*
G75*
G03*
X-101864117Y-51696387I634950J-1099839D01*
G01*
X3384643Y-33093279D02*
G75*
G03*
X3810000Y-31505772I-2749643J1587479D01*
G01*
X3810000Y-31505772D02*
X3810000Y381000D01*
X-11751027Y-56133976D02*
G75*
G03*
X-9001397Y-54546500I27J3174976D01*
G01*
X-113030000Y381000D02*
X-113030000Y-31505772D01*
X-101864118Y-51696387D02*
X-100218604Y-54546500D01*
X-110959185Y-35943424D02*
G75*
G03*
X-109224265Y-36408236I1099885J635124D01*
G01*
X-100218592Y-54546493D02*
G75*
G03*
X-97468974Y-56134000I2749692J1587593D01*
G01*
M02*
