%TF.GenerationSoftware,KiCad,Pcbnew,(6.0.2-0)*%
%TF.CreationDate,2022-10-21T16:11:50-05:00*%
%TF.ProjectId,little_switch,6c697474-6c65-45f7-9377-697463682e6b,1*%
%TF.SameCoordinates,PX4221330PY3d0af40*%
%TF.FileFunction,Legend,Bot*%
%TF.FilePolarity,Positive*%
%FSLAX46Y46*%
G04 Gerber Fmt 4.6, Leading zero omitted, Abs format (unit mm)*
G04 Created by KiCad (PCBNEW (6.0.2-0)) date 2022-10-21 16:11:50*
%MOMM*%
%LPD*%
G01*
G04 APERTURE LIST*
%ADD10C,0.152400*%
%ADD11C,0.150000*%
%ADD12C,0.120000*%
%ADD13C,0.254000*%
G04 APERTURE END LIST*
D10*
X4066298Y-11665857D02*
X4114679Y-11714238D01*
X4259821Y-11762619D01*
X4356583Y-11762619D01*
X4501726Y-11714238D01*
X4598488Y-11617476D01*
X4646869Y-11520714D01*
X4695250Y-11327190D01*
X4695250Y-11182047D01*
X4646869Y-10988523D01*
X4598488Y-10891761D01*
X4501726Y-10795000D01*
X4356583Y-10746619D01*
X4259821Y-10746619D01*
X4114679Y-10795000D01*
X4066298Y-10843380D01*
X3776012Y-10746619D02*
X3195440Y-10746619D01*
X3485726Y-11762619D02*
X3485726Y-10746619D01*
X2905155Y-11714238D02*
X2760012Y-11762619D01*
X2518107Y-11762619D01*
X2421345Y-11714238D01*
X2372964Y-11665857D01*
X2324583Y-11569095D01*
X2324583Y-11472333D01*
X2372964Y-11375571D01*
X2421345Y-11327190D01*
X2518107Y-11278809D01*
X2711631Y-11230428D01*
X2808393Y-11182047D01*
X2856774Y-11133666D01*
X2905155Y-11036904D01*
X2905155Y-10940142D01*
X2856774Y-10843380D01*
X2808393Y-10795000D01*
X2711631Y-10746619D01*
X2469726Y-10746619D01*
X2324583Y-10795000D01*
X4066298Y-9730619D02*
X4404964Y-9246809D01*
X4646869Y-9730619D02*
X4646869Y-8714619D01*
X4259821Y-8714619D01*
X4163060Y-8763000D01*
X4114679Y-8811380D01*
X4066298Y-8908142D01*
X4066298Y-9053285D01*
X4114679Y-9150047D01*
X4163060Y-9198428D01*
X4259821Y-9246809D01*
X4646869Y-9246809D01*
X3776012Y-8714619D02*
X3195440Y-8714619D01*
X3485726Y-9730619D02*
X3485726Y-8714619D01*
X2905155Y-9682238D02*
X2760012Y-9730619D01*
X2518107Y-9730619D01*
X2421345Y-9682238D01*
X2372964Y-9633857D01*
X2324583Y-9537095D01*
X2324583Y-9440333D01*
X2372964Y-9343571D01*
X2421345Y-9295190D01*
X2518107Y-9246809D01*
X2711631Y-9198428D01*
X2808393Y-9150047D01*
X2856774Y-9101666D01*
X2905155Y-9004904D01*
X2905155Y-8908142D01*
X2856774Y-8811380D01*
X2808393Y-8763000D01*
X2711631Y-8714619D01*
X2469726Y-8714619D01*
X2324583Y-8763000D01*
X3419202Y-7698619D02*
X3757869Y-7214809D01*
X3999774Y-7698619D02*
X3999774Y-6682619D01*
X3612726Y-6682619D01*
X3515964Y-6731000D01*
X3467583Y-6779380D01*
X3419202Y-6876142D01*
X3419202Y-7021285D01*
X3467583Y-7118047D01*
X3515964Y-7166428D01*
X3612726Y-7214809D01*
X3999774Y-7214809D01*
X3080536Y-6682619D02*
X2403202Y-7698619D01*
X2403202Y-6682619D02*
X3080536Y-7698619D01*
X3903012Y-4650619D02*
X3322440Y-4650619D01*
X3612726Y-5666619D02*
X3612726Y-4650619D01*
X3080536Y-4650619D02*
X2403202Y-5666619D01*
X2403202Y-4650619D02*
X3080536Y-5666619D01*
X-3048000Y-10528904D02*
X-3096381Y-10432142D01*
X-3096381Y-10287000D01*
X-3048000Y-10141857D01*
X-2951239Y-10045095D01*
X-2854477Y-9996714D01*
X-2660953Y-9948333D01*
X-2515810Y-9948333D01*
X-2322286Y-9996714D01*
X-2225524Y-10045095D01*
X-2128762Y-10141857D01*
X-2080381Y-10287000D01*
X-2080381Y-10383761D01*
X-2128762Y-10528904D01*
X-2177143Y-10577285D01*
X-2515810Y-10577285D01*
X-2515810Y-10383761D01*
X-2080381Y-11012714D02*
X-3096381Y-11012714D01*
X-2080381Y-11593285D01*
X-3096381Y-11593285D01*
X-2080381Y-12077095D02*
X-3096381Y-12077095D01*
X-3096381Y-12319000D01*
X-3048000Y-12464142D01*
X-2951239Y-12560904D01*
X-2854477Y-12609285D01*
X-2660953Y-12657666D01*
X-2515810Y-12657666D01*
X-2322286Y-12609285D01*
X-2225524Y-12560904D01*
X-2128762Y-12464142D01*
X-2080381Y-12319000D01*
X-2080381Y-12077095D01*
X-3096381Y-3949095D02*
X-3096381Y-4578047D01*
X-2709334Y-4239380D01*
X-2709334Y-4384523D01*
X-2660953Y-4481285D01*
X-2612572Y-4529666D01*
X-2515810Y-4578047D01*
X-2273905Y-4578047D01*
X-2177143Y-4529666D01*
X-2128762Y-4481285D01*
X-2080381Y-4384523D01*
X-2080381Y-4094238D01*
X-2128762Y-3997476D01*
X-2177143Y-3949095D01*
X-3096381Y-4868333D02*
X-2080381Y-5207000D01*
X-3096381Y-5545666D01*
X-3096381Y-5787571D02*
X-3096381Y-6416523D01*
X-2709334Y-6077857D01*
X-2709334Y-6223000D01*
X-2660953Y-6319761D01*
X-2612572Y-6368142D01*
X-2515810Y-6416523D01*
X-2273905Y-6416523D01*
X-2177143Y-6368142D01*
X-2128762Y-6319761D01*
X-2080381Y-6223000D01*
X-2080381Y-5932714D01*
X-2128762Y-5835952D01*
X-2177143Y-5787571D01*
X56584668Y-16340666D02*
X56584668Y-16002000D01*
X57116859Y-16002000D02*
X56100859Y-16002000D01*
X56100859Y-16485809D01*
X56100859Y-17066380D02*
X56100859Y-17259904D01*
X56149240Y-17356666D01*
X56246001Y-17453428D01*
X56439525Y-17501809D01*
X56778192Y-17501809D01*
X56971716Y-17453428D01*
X57068478Y-17356666D01*
X57116859Y-17259904D01*
X57116859Y-17066380D01*
X57068478Y-16969619D01*
X56971716Y-16872857D01*
X56778192Y-16824476D01*
X56439525Y-16824476D01*
X56246001Y-16872857D01*
X56149240Y-16969619D01*
X56100859Y-17066380D01*
X56100859Y-17840476D02*
X57116859Y-18517809D01*
X56100859Y-18517809D02*
X57116859Y-17840476D01*
X57068478Y-18856476D02*
X57116859Y-19001619D01*
X57116859Y-19243523D01*
X57068478Y-19340285D01*
X57020097Y-19388666D01*
X56923335Y-19437047D01*
X56826573Y-19437047D01*
X56729811Y-19388666D01*
X56681430Y-19340285D01*
X56633049Y-19243523D01*
X56584668Y-19050000D01*
X56536287Y-18953238D01*
X56487906Y-18904857D01*
X56391144Y-18856476D01*
X56294382Y-18856476D01*
X56197620Y-18904857D01*
X56149240Y-18953238D01*
X56100859Y-19050000D01*
X56100859Y-19291904D01*
X56149240Y-19437047D01*
X57116859Y-19872476D02*
X56100859Y-19872476D01*
X56729811Y-20356285D02*
X56729811Y-21130380D01*
X56439525Y-22049619D02*
X57116859Y-22049619D01*
X56052478Y-21807714D02*
X56778192Y-21565809D01*
X56778192Y-22194761D01*
X58075285Y-9204476D02*
X58075285Y-9591523D01*
X58752619Y-9349619D02*
X57881761Y-9349619D01*
X57785000Y-9398000D01*
X57736619Y-9494761D01*
X57736619Y-9591523D01*
X58752619Y-10075333D02*
X58704238Y-9978571D01*
X58655857Y-9930190D01*
X58559095Y-9881809D01*
X58268809Y-9881809D01*
X58172047Y-9930190D01*
X58123666Y-9978571D01*
X58075285Y-10075333D01*
X58075285Y-10220476D01*
X58123666Y-10317238D01*
X58172047Y-10365619D01*
X58268809Y-10414000D01*
X58559095Y-10414000D01*
X58655857Y-10365619D01*
X58704238Y-10317238D01*
X58752619Y-10220476D01*
X58752619Y-10075333D01*
X58752619Y-10849428D02*
X58075285Y-10849428D01*
X58268809Y-10849428D02*
X58172047Y-10897809D01*
X58123666Y-10946190D01*
X58075285Y-11042952D01*
X58075285Y-11139714D01*
X58752619Y-11478380D02*
X58075285Y-11478380D01*
X58172047Y-11478380D02*
X58123666Y-11526761D01*
X58075285Y-11623523D01*
X58075285Y-11768666D01*
X58123666Y-11865428D01*
X58220428Y-11913809D01*
X58752619Y-11913809D01*
X58220428Y-11913809D02*
X58123666Y-11962190D01*
X58075285Y-12058952D01*
X58075285Y-12204095D01*
X58123666Y-12300857D01*
X58220428Y-12349238D01*
X58752619Y-12349238D01*
X58752619Y-13268476D02*
X58220428Y-13268476D01*
X58123666Y-13220095D01*
X58075285Y-13123333D01*
X58075285Y-12929809D01*
X58123666Y-12833047D01*
X58704238Y-13268476D02*
X58752619Y-13171714D01*
X58752619Y-12929809D01*
X58704238Y-12833047D01*
X58607476Y-12784666D01*
X58510714Y-12784666D01*
X58413952Y-12833047D01*
X58365571Y-12929809D01*
X58365571Y-13171714D01*
X58317190Y-13268476D01*
X58075285Y-13607142D02*
X58075285Y-13994190D01*
X57736619Y-13752285D02*
X58607476Y-13752285D01*
X58704238Y-13800666D01*
X58752619Y-13897428D01*
X58752619Y-13994190D01*
X58075285Y-14187714D02*
X58075285Y-14574761D01*
X57736619Y-14332857D02*
X58607476Y-14332857D01*
X58704238Y-14381238D01*
X58752619Y-14478000D01*
X58752619Y-14574761D01*
X58704238Y-15300476D02*
X58752619Y-15203714D01*
X58752619Y-15010190D01*
X58704238Y-14913428D01*
X58607476Y-14865047D01*
X58220428Y-14865047D01*
X58123666Y-14913428D01*
X58075285Y-15010190D01*
X58075285Y-15203714D01*
X58123666Y-15300476D01*
X58220428Y-15348857D01*
X58317190Y-15348857D01*
X58413952Y-14865047D01*
X58752619Y-15784285D02*
X58075285Y-15784285D01*
X58268809Y-15784285D02*
X58172047Y-15832666D01*
X58123666Y-15881047D01*
X58075285Y-15977809D01*
X58075285Y-16074571D01*
X57688238Y-17138952D02*
X58994523Y-16268095D01*
X58704238Y-17864666D02*
X58752619Y-17767904D01*
X58752619Y-17574380D01*
X58704238Y-17477619D01*
X58607476Y-17429238D01*
X58220428Y-17429238D01*
X58123666Y-17477619D01*
X58075285Y-17574380D01*
X58075285Y-17767904D01*
X58123666Y-17864666D01*
X58220428Y-17913047D01*
X58317190Y-17913047D01*
X58413952Y-17429238D01*
X58075285Y-18203333D02*
X58075285Y-18590380D01*
X57736619Y-18348476D02*
X58607476Y-18348476D01*
X58704238Y-18396857D01*
X58752619Y-18493619D01*
X58752619Y-18590380D01*
X58752619Y-18929047D02*
X57736619Y-18929047D01*
X58752619Y-19364476D02*
X58220428Y-19364476D01*
X58123666Y-19316095D01*
X58075285Y-19219333D01*
X58075285Y-19074190D01*
X58123666Y-18977428D01*
X58172047Y-18929047D01*
X58704238Y-20235333D02*
X58752619Y-20138571D01*
X58752619Y-19945047D01*
X58704238Y-19848285D01*
X58607476Y-19799904D01*
X58220428Y-19799904D01*
X58123666Y-19848285D01*
X58075285Y-19945047D01*
X58075285Y-20138571D01*
X58123666Y-20235333D01*
X58220428Y-20283714D01*
X58317190Y-20283714D01*
X58413952Y-19799904D01*
X58752619Y-20719142D02*
X58075285Y-20719142D01*
X58268809Y-20719142D02*
X58172047Y-20767523D01*
X58123666Y-20815904D01*
X58075285Y-20912666D01*
X58075285Y-21009428D01*
X58075285Y-21348095D02*
X58752619Y-21348095D01*
X58172047Y-21348095D02*
X58123666Y-21396476D01*
X58075285Y-21493238D01*
X58075285Y-21638380D01*
X58123666Y-21735142D01*
X58220428Y-21783523D01*
X58752619Y-21783523D01*
X58704238Y-22654380D02*
X58752619Y-22557619D01*
X58752619Y-22364095D01*
X58704238Y-22267333D01*
X58607476Y-22218952D01*
X58220428Y-22218952D01*
X58123666Y-22267333D01*
X58075285Y-22364095D01*
X58075285Y-22557619D01*
X58123666Y-22654380D01*
X58220428Y-22702761D01*
X58317190Y-22702761D01*
X58413952Y-22218952D01*
X58075285Y-22993047D02*
X58075285Y-23380095D01*
X57736619Y-23138190D02*
X58607476Y-23138190D01*
X58704238Y-23186571D01*
X58752619Y-23283333D01*
X58752619Y-23380095D01*
X58704238Y-24444476D02*
X58752619Y-24541238D01*
X58752619Y-24734761D01*
X58704238Y-24831523D01*
X58607476Y-24879904D01*
X58559095Y-24879904D01*
X58462333Y-24831523D01*
X58413952Y-24734761D01*
X58413952Y-24589619D01*
X58365571Y-24492857D01*
X58268809Y-24444476D01*
X58220428Y-24444476D01*
X58123666Y-24492857D01*
X58075285Y-24589619D01*
X58075285Y-24734761D01*
X58123666Y-24831523D01*
X58075285Y-25218571D02*
X58752619Y-25412095D01*
X58268809Y-25605619D01*
X58752619Y-25799142D01*
X58075285Y-25992666D01*
X58752619Y-26379714D02*
X58075285Y-26379714D01*
X57736619Y-26379714D02*
X57785000Y-26331333D01*
X57833380Y-26379714D01*
X57785000Y-26428095D01*
X57736619Y-26379714D01*
X57833380Y-26379714D01*
X58075285Y-26718380D02*
X58075285Y-27105428D01*
X57736619Y-26863523D02*
X58607476Y-26863523D01*
X58704238Y-26911904D01*
X58752619Y-27008666D01*
X58752619Y-27105428D01*
X58704238Y-27879523D02*
X58752619Y-27782761D01*
X58752619Y-27589238D01*
X58704238Y-27492476D01*
X58655857Y-27444095D01*
X58559095Y-27395714D01*
X58268809Y-27395714D01*
X58172047Y-27444095D01*
X58123666Y-27492476D01*
X58075285Y-27589238D01*
X58075285Y-27782761D01*
X58123666Y-27879523D01*
X58752619Y-28314952D02*
X57736619Y-28314952D01*
X58752619Y-28750380D02*
X58220428Y-28750380D01*
X58123666Y-28702000D01*
X58075285Y-28605238D01*
X58075285Y-28460095D01*
X58123666Y-28363333D01*
X58172047Y-28314952D01*
X59711045Y-15614952D02*
X60388379Y-15856857D01*
X59711045Y-16098761D01*
X60339998Y-16872857D02*
X60388379Y-16776095D01*
X60388379Y-16582571D01*
X60339998Y-16485809D01*
X60243236Y-16437428D01*
X59856188Y-16437428D01*
X59759426Y-16485809D01*
X59711045Y-16582571D01*
X59711045Y-16776095D01*
X59759426Y-16872857D01*
X59856188Y-16921238D01*
X59952950Y-16921238D01*
X60049712Y-16437428D01*
X60388379Y-17356666D02*
X59711045Y-17356666D01*
X59904569Y-17356666D02*
X59807807Y-17405047D01*
X59759426Y-17453428D01*
X59711045Y-17550190D01*
X59711045Y-17646952D01*
X60339998Y-17937238D02*
X60388379Y-18034000D01*
X60388379Y-18227523D01*
X60339998Y-18324285D01*
X60243236Y-18372666D01*
X60194855Y-18372666D01*
X60098093Y-18324285D01*
X60049712Y-18227523D01*
X60049712Y-18082380D01*
X60001331Y-17985619D01*
X59904569Y-17937238D01*
X59856188Y-17937238D01*
X59759426Y-17985619D01*
X59711045Y-18082380D01*
X59711045Y-18227523D01*
X59759426Y-18324285D01*
X60388379Y-18808095D02*
X59711045Y-18808095D01*
X59372379Y-18808095D02*
X59420760Y-18759714D01*
X59469140Y-18808095D01*
X59420760Y-18856476D01*
X59372379Y-18808095D01*
X59469140Y-18808095D01*
X60388379Y-19437047D02*
X60339998Y-19340285D01*
X60291617Y-19291904D01*
X60194855Y-19243523D01*
X59904569Y-19243523D01*
X59807807Y-19291904D01*
X59759426Y-19340285D01*
X59711045Y-19437047D01*
X59711045Y-19582190D01*
X59759426Y-19678952D01*
X59807807Y-19727333D01*
X59904569Y-19775714D01*
X60194855Y-19775714D01*
X60291617Y-19727333D01*
X60339998Y-19678952D01*
X60388379Y-19582190D01*
X60388379Y-19437047D01*
X59711045Y-20211142D02*
X60388379Y-20211142D01*
X59807807Y-20211142D02*
X59759426Y-20259523D01*
X59711045Y-20356285D01*
X59711045Y-20501428D01*
X59759426Y-20598190D01*
X59856188Y-20646571D01*
X60388379Y-20646571D01*
X60388379Y-22436666D02*
X60388379Y-21856095D01*
X60388379Y-22146380D02*
X59372379Y-22146380D01*
X59517521Y-22049619D01*
X59614283Y-21952857D01*
X59662664Y-21856095D01*
X39587714Y-9095619D02*
X39926380Y-8611809D01*
X40168285Y-9095619D02*
X40168285Y-8079619D01*
X39781238Y-8079619D01*
X39684476Y-8128000D01*
X39636095Y-8176380D01*
X39587714Y-8273142D01*
X39587714Y-8418285D01*
X39636095Y-8515047D01*
X39684476Y-8563428D01*
X39781238Y-8611809D01*
X40168285Y-8611809D01*
X38620095Y-9095619D02*
X39200666Y-9095619D01*
X38910380Y-9095619D02*
X38910380Y-8079619D01*
X39007142Y-8224761D01*
X39103904Y-8321523D01*
X39200666Y-8369904D01*
X37700857Y-8079619D02*
X38184666Y-8079619D01*
X38233047Y-8563428D01*
X38184666Y-8515047D01*
X38087904Y-8466666D01*
X37846000Y-8466666D01*
X37749238Y-8515047D01*
X37700857Y-8563428D01*
X37652476Y-8660190D01*
X37652476Y-8902095D01*
X37700857Y-8998857D01*
X37749238Y-9047238D01*
X37846000Y-9095619D01*
X38087904Y-9095619D01*
X38184666Y-9047238D01*
X38233047Y-8998857D01*
X37217047Y-8708571D02*
X36442952Y-8708571D01*
X36007523Y-8176380D02*
X35959142Y-8128000D01*
X35862380Y-8079619D01*
X35620476Y-8079619D01*
X35523714Y-8128000D01*
X35475333Y-8176380D01*
X35426952Y-8273142D01*
X35426952Y-8369904D01*
X35475333Y-8515047D01*
X36055904Y-9095619D01*
X35426952Y-9095619D01*
X35039904Y-8176380D02*
X34991523Y-8128000D01*
X34894761Y-8079619D01*
X34652857Y-8079619D01*
X34556095Y-8128000D01*
X34507714Y-8176380D01*
X34459333Y-8273142D01*
X34459333Y-8369904D01*
X34507714Y-8515047D01*
X35088285Y-9095619D01*
X34459333Y-9095619D01*
D11*
X25781000Y-7747000D02*
X40132000Y-7747000D01*
X25781000Y-9652000D02*
X25781000Y-7747000D01*
D10*
%TO.C,Y1*%
X38964809Y-22757190D02*
X39448619Y-22757190D01*
X38432619Y-22418523D02*
X38964809Y-22757190D01*
X38432619Y-23095857D01*
X39448619Y-23966714D02*
X39448619Y-23386142D01*
X39448619Y-23676428D02*
X38432619Y-23676428D01*
X38577761Y-23579666D01*
X38674523Y-23482904D01*
X38722904Y-23386142D01*
%TO.C,FL1*%
X8369904Y-44758428D02*
X8708571Y-44758428D01*
X8708571Y-45290619D02*
X8708571Y-44274619D01*
X8224761Y-44274619D01*
X7353904Y-45290619D02*
X7837714Y-45290619D01*
X7837714Y-44274619D01*
X6483047Y-45290619D02*
X7063619Y-45290619D01*
X6773333Y-45290619D02*
X6773333Y-44274619D01*
X6870095Y-44419761D01*
X6966857Y-44516523D01*
X7063619Y-44564904D01*
%TO.C,TR5*%
X43319095Y-19001619D02*
X42738523Y-19001619D01*
X43028809Y-20017619D02*
X43028809Y-19001619D01*
X41819285Y-20017619D02*
X42157952Y-19533809D01*
X42399857Y-20017619D02*
X42399857Y-19001619D01*
X42012809Y-19001619D01*
X41916047Y-19050000D01*
X41867666Y-19098380D01*
X41819285Y-19195142D01*
X41819285Y-19340285D01*
X41867666Y-19437047D01*
X41916047Y-19485428D01*
X42012809Y-19533809D01*
X42399857Y-19533809D01*
X40900047Y-19001619D02*
X41383857Y-19001619D01*
X41432238Y-19485428D01*
X41383857Y-19437047D01*
X41287095Y-19388666D01*
X41045190Y-19388666D01*
X40948428Y-19437047D01*
X40900047Y-19485428D01*
X40851666Y-19582190D01*
X40851666Y-19824095D01*
X40900047Y-19920857D01*
X40948428Y-19969238D01*
X41045190Y-20017619D01*
X41287095Y-20017619D01*
X41383857Y-19969238D01*
X41432238Y-19920857D01*
%TO.C,C7*%
X14520333Y-36176857D02*
X14568714Y-36225238D01*
X14713857Y-36273619D01*
X14810619Y-36273619D01*
X14955761Y-36225238D01*
X15052523Y-36128476D01*
X15100904Y-36031714D01*
X15149285Y-35838190D01*
X15149285Y-35693047D01*
X15100904Y-35499523D01*
X15052523Y-35402761D01*
X14955761Y-35306000D01*
X14810619Y-35257619D01*
X14713857Y-35257619D01*
X14568714Y-35306000D01*
X14520333Y-35354380D01*
X14181666Y-35257619D02*
X13504333Y-35257619D01*
X13939761Y-36273619D01*
%TO.C,C47*%
X24021142Y-8617857D02*
X24069523Y-8666238D01*
X24214666Y-8714619D01*
X24311428Y-8714619D01*
X24456571Y-8666238D01*
X24553333Y-8569476D01*
X24601714Y-8472714D01*
X24650095Y-8279190D01*
X24650095Y-8134047D01*
X24601714Y-7940523D01*
X24553333Y-7843761D01*
X24456571Y-7747000D01*
X24311428Y-7698619D01*
X24214666Y-7698619D01*
X24069523Y-7747000D01*
X24021142Y-7795380D01*
X23150285Y-8037285D02*
X23150285Y-8714619D01*
X23392190Y-7650238D02*
X23634095Y-8375952D01*
X23005142Y-8375952D01*
X22714857Y-7698619D02*
X22037523Y-7698619D01*
X22472952Y-8714619D01*
%TO.C,FL4*%
X51295904Y-16945428D02*
X51634571Y-16945428D01*
X51634571Y-17477619D02*
X51634571Y-16461619D01*
X51150761Y-16461619D01*
X50279904Y-17477619D02*
X50763714Y-17477619D01*
X50763714Y-16461619D01*
X49505809Y-16800285D02*
X49505809Y-17477619D01*
X49747714Y-16413238D02*
X49989619Y-17138952D01*
X49360666Y-17138952D01*
%TO.C,TR3*%
X43319095Y-8587619D02*
X42738523Y-8587619D01*
X43028809Y-9603619D02*
X43028809Y-8587619D01*
X41819285Y-9603619D02*
X42157952Y-9119809D01*
X42399857Y-9603619D02*
X42399857Y-8587619D01*
X42012809Y-8587619D01*
X41916047Y-8636000D01*
X41867666Y-8684380D01*
X41819285Y-8781142D01*
X41819285Y-8926285D01*
X41867666Y-9023047D01*
X41916047Y-9071428D01*
X42012809Y-9119809D01*
X42399857Y-9119809D01*
X41480619Y-8587619D02*
X40851666Y-8587619D01*
X41190333Y-8974666D01*
X41045190Y-8974666D01*
X40948428Y-9023047D01*
X40900047Y-9071428D01*
X40851666Y-9168190D01*
X40851666Y-9410095D01*
X40900047Y-9506857D01*
X40948428Y-9555238D01*
X41045190Y-9603619D01*
X41335476Y-9603619D01*
X41432238Y-9555238D01*
X41480619Y-9506857D01*
%TO.C,R23*%
X20719142Y-8714619D02*
X21057809Y-8230809D01*
X21299714Y-8714619D02*
X21299714Y-7698619D01*
X20912666Y-7698619D01*
X20815904Y-7747000D01*
X20767523Y-7795380D01*
X20719142Y-7892142D01*
X20719142Y-8037285D01*
X20767523Y-8134047D01*
X20815904Y-8182428D01*
X20912666Y-8230809D01*
X21299714Y-8230809D01*
X20332095Y-7795380D02*
X20283714Y-7747000D01*
X20186952Y-7698619D01*
X19945047Y-7698619D01*
X19848285Y-7747000D01*
X19799904Y-7795380D01*
X19751523Y-7892142D01*
X19751523Y-7988904D01*
X19799904Y-8134047D01*
X20380476Y-8714619D01*
X19751523Y-8714619D01*
X19412857Y-7698619D02*
X18783904Y-7698619D01*
X19122571Y-8085666D01*
X18977428Y-8085666D01*
X18880666Y-8134047D01*
X18832285Y-8182428D01*
X18783904Y-8279190D01*
X18783904Y-8521095D01*
X18832285Y-8617857D01*
X18880666Y-8666238D01*
X18977428Y-8714619D01*
X19267714Y-8714619D01*
X19364476Y-8666238D01*
X19412857Y-8617857D01*
%TO.C,R8*%
X34749619Y-43010666D02*
X34265809Y-42672000D01*
X34749619Y-42430095D02*
X33733619Y-42430095D01*
X33733619Y-42817142D01*
X33782000Y-42913904D01*
X33830380Y-42962285D01*
X33927142Y-43010666D01*
X34072285Y-43010666D01*
X34169047Y-42962285D01*
X34217428Y-42913904D01*
X34265809Y-42817142D01*
X34265809Y-42430095D01*
X34169047Y-43591238D02*
X34120666Y-43494476D01*
X34072285Y-43446095D01*
X33975523Y-43397714D01*
X33927142Y-43397714D01*
X33830380Y-43446095D01*
X33782000Y-43494476D01*
X33733619Y-43591238D01*
X33733619Y-43784761D01*
X33782000Y-43881523D01*
X33830380Y-43929904D01*
X33927142Y-43978285D01*
X33975523Y-43978285D01*
X34072285Y-43929904D01*
X34120666Y-43881523D01*
X34169047Y-43784761D01*
X34169047Y-43591238D01*
X34217428Y-43494476D01*
X34265809Y-43446095D01*
X34362571Y-43397714D01*
X34556095Y-43397714D01*
X34652857Y-43446095D01*
X34701238Y-43494476D01*
X34749619Y-43591238D01*
X34749619Y-43784761D01*
X34701238Y-43881523D01*
X34652857Y-43929904D01*
X34556095Y-43978285D01*
X34362571Y-43978285D01*
X34265809Y-43929904D01*
X34217428Y-43881523D01*
X34169047Y-43784761D01*
%TO.C,U1*%
X34683095Y-26113619D02*
X34683095Y-26936095D01*
X34634714Y-27032857D01*
X34586333Y-27081238D01*
X34489571Y-27129619D01*
X34296047Y-27129619D01*
X34199285Y-27081238D01*
X34150904Y-27032857D01*
X34102523Y-26936095D01*
X34102523Y-26113619D01*
X33086523Y-27129619D02*
X33667095Y-27129619D01*
X33376809Y-27129619D02*
X33376809Y-26113619D01*
X33473571Y-26258761D01*
X33570333Y-26355523D01*
X33667095Y-26403904D01*
%TO.C,R7*%
X17731619Y-44280666D02*
X17247809Y-43942000D01*
X17731619Y-43700095D02*
X16715619Y-43700095D01*
X16715619Y-44087142D01*
X16764000Y-44183904D01*
X16812380Y-44232285D01*
X16909142Y-44280666D01*
X17054285Y-44280666D01*
X17151047Y-44232285D01*
X17199428Y-44183904D01*
X17247809Y-44087142D01*
X17247809Y-43700095D01*
X16715619Y-44619333D02*
X16715619Y-45296666D01*
X17731619Y-44861238D01*
%TO.C,C9*%
X45508333Y-18650857D02*
X45556714Y-18699238D01*
X45701857Y-18747619D01*
X45798619Y-18747619D01*
X45943761Y-18699238D01*
X46040523Y-18602476D01*
X46088904Y-18505714D01*
X46137285Y-18312190D01*
X46137285Y-18167047D01*
X46088904Y-17973523D01*
X46040523Y-17876761D01*
X45943761Y-17780000D01*
X45798619Y-17731619D01*
X45701857Y-17731619D01*
X45556714Y-17780000D01*
X45508333Y-17828380D01*
X45024523Y-18747619D02*
X44831000Y-18747619D01*
X44734238Y-18699238D01*
X44685857Y-18650857D01*
X44589095Y-18505714D01*
X44540714Y-18312190D01*
X44540714Y-17925142D01*
X44589095Y-17828380D01*
X44637476Y-17780000D01*
X44734238Y-17731619D01*
X44927761Y-17731619D01*
X45024523Y-17780000D01*
X45072904Y-17828380D01*
X45121285Y-17925142D01*
X45121285Y-18167047D01*
X45072904Y-18263809D01*
X45024523Y-18312190D01*
X44927761Y-18360571D01*
X44734238Y-18360571D01*
X44637476Y-18312190D01*
X44589095Y-18263809D01*
X44540714Y-18167047D01*
%TO.C,FL2*%
X8369904Y-39678428D02*
X8708571Y-39678428D01*
X8708571Y-40210619D02*
X8708571Y-39194619D01*
X8224761Y-39194619D01*
X7353904Y-40210619D02*
X7837714Y-40210619D01*
X7837714Y-39194619D01*
X7063619Y-39291380D02*
X7015238Y-39243000D01*
X6918476Y-39194619D01*
X6676571Y-39194619D01*
X6579809Y-39243000D01*
X6531428Y-39291380D01*
X6483047Y-39388142D01*
X6483047Y-39484904D01*
X6531428Y-39630047D01*
X7112000Y-40210619D01*
X6483047Y-40210619D01*
%TO.C,C48*%
X37483142Y-28048857D02*
X37531523Y-28097238D01*
X37676666Y-28145619D01*
X37773428Y-28145619D01*
X37918571Y-28097238D01*
X38015333Y-28000476D01*
X38063714Y-27903714D01*
X38112095Y-27710190D01*
X38112095Y-27565047D01*
X38063714Y-27371523D01*
X38015333Y-27274761D01*
X37918571Y-27178000D01*
X37773428Y-27129619D01*
X37676666Y-27129619D01*
X37531523Y-27178000D01*
X37483142Y-27226380D01*
X36612285Y-27468285D02*
X36612285Y-28145619D01*
X36854190Y-27081238D02*
X37096095Y-27806952D01*
X36467142Y-27806952D01*
X35934952Y-27565047D02*
X36031714Y-27516666D01*
X36080095Y-27468285D01*
X36128476Y-27371523D01*
X36128476Y-27323142D01*
X36080095Y-27226380D01*
X36031714Y-27178000D01*
X35934952Y-27129619D01*
X35741428Y-27129619D01*
X35644666Y-27178000D01*
X35596285Y-27226380D01*
X35547904Y-27323142D01*
X35547904Y-27371523D01*
X35596285Y-27468285D01*
X35644666Y-27516666D01*
X35741428Y-27565047D01*
X35934952Y-27565047D01*
X36031714Y-27613428D01*
X36080095Y-27661809D01*
X36128476Y-27758571D01*
X36128476Y-27952095D01*
X36080095Y-28048857D01*
X36031714Y-28097238D01*
X35934952Y-28145619D01*
X35741428Y-28145619D01*
X35644666Y-28097238D01*
X35596285Y-28048857D01*
X35547904Y-27952095D01*
X35547904Y-27758571D01*
X35596285Y-27661809D01*
X35644666Y-27613428D01*
X35741428Y-27565047D01*
%TO.C,FL5*%
X51295904Y-24438428D02*
X51634571Y-24438428D01*
X51634571Y-24970619D02*
X51634571Y-23954619D01*
X51150761Y-23954619D01*
X50279904Y-24970619D02*
X50763714Y-24970619D01*
X50763714Y-23954619D01*
X49457428Y-23954619D02*
X49941238Y-23954619D01*
X49989619Y-24438428D01*
X49941238Y-24390047D01*
X49844476Y-24341666D01*
X49602571Y-24341666D01*
X49505809Y-24390047D01*
X49457428Y-24438428D01*
X49409047Y-24535190D01*
X49409047Y-24777095D01*
X49457428Y-24873857D01*
X49505809Y-24922238D01*
X49602571Y-24970619D01*
X49844476Y-24970619D01*
X49941238Y-24922238D01*
X49989619Y-24873857D01*
%TO.C,TR6*%
X43319095Y-24081619D02*
X42738523Y-24081619D01*
X43028809Y-25097619D02*
X43028809Y-24081619D01*
X41819285Y-25097619D02*
X42157952Y-24613809D01*
X42399857Y-25097619D02*
X42399857Y-24081619D01*
X42012809Y-24081619D01*
X41916047Y-24130000D01*
X41867666Y-24178380D01*
X41819285Y-24275142D01*
X41819285Y-24420285D01*
X41867666Y-24517047D01*
X41916047Y-24565428D01*
X42012809Y-24613809D01*
X42399857Y-24613809D01*
X40948428Y-24081619D02*
X41141952Y-24081619D01*
X41238714Y-24130000D01*
X41287095Y-24178380D01*
X41383857Y-24323523D01*
X41432238Y-24517047D01*
X41432238Y-24904095D01*
X41383857Y-25000857D01*
X41335476Y-25049238D01*
X41238714Y-25097619D01*
X41045190Y-25097619D01*
X40948428Y-25049238D01*
X40900047Y-25000857D01*
X40851666Y-24904095D01*
X40851666Y-24662190D01*
X40900047Y-24565428D01*
X40948428Y-24517047D01*
X41045190Y-24468666D01*
X41238714Y-24468666D01*
X41335476Y-24517047D01*
X41383857Y-24565428D01*
X41432238Y-24662190D01*
%TO.C,TR1*%
X17284095Y-42369619D02*
X16703523Y-42369619D01*
X16993809Y-43385619D02*
X16993809Y-42369619D01*
X15784285Y-43385619D02*
X16122952Y-42901809D01*
X16364857Y-43385619D02*
X16364857Y-42369619D01*
X15977809Y-42369619D01*
X15881047Y-42418000D01*
X15832666Y-42466380D01*
X15784285Y-42563142D01*
X15784285Y-42708285D01*
X15832666Y-42805047D01*
X15881047Y-42853428D01*
X15977809Y-42901809D01*
X16364857Y-42901809D01*
X14816666Y-43385619D02*
X15397238Y-43385619D01*
X15106952Y-43385619D02*
X15106952Y-42369619D01*
X15203714Y-42514761D01*
X15300476Y-42611523D01*
X15397238Y-42659904D01*
%TO.C,C8*%
X45635333Y-8236857D02*
X45683714Y-8285238D01*
X45828857Y-8333619D01*
X45925619Y-8333619D01*
X46070761Y-8285238D01*
X46167523Y-8188476D01*
X46215904Y-8091714D01*
X46264285Y-7898190D01*
X46264285Y-7753047D01*
X46215904Y-7559523D01*
X46167523Y-7462761D01*
X46070761Y-7366000D01*
X45925619Y-7317619D01*
X45828857Y-7317619D01*
X45683714Y-7366000D01*
X45635333Y-7414380D01*
X45054761Y-7753047D02*
X45151523Y-7704666D01*
X45199904Y-7656285D01*
X45248285Y-7559523D01*
X45248285Y-7511142D01*
X45199904Y-7414380D01*
X45151523Y-7366000D01*
X45054761Y-7317619D01*
X44861238Y-7317619D01*
X44764476Y-7366000D01*
X44716095Y-7414380D01*
X44667714Y-7511142D01*
X44667714Y-7559523D01*
X44716095Y-7656285D01*
X44764476Y-7704666D01*
X44861238Y-7753047D01*
X45054761Y-7753047D01*
X45151523Y-7801428D01*
X45199904Y-7849809D01*
X45248285Y-7946571D01*
X45248285Y-8140095D01*
X45199904Y-8236857D01*
X45151523Y-8285238D01*
X45054761Y-8333619D01*
X44861238Y-8333619D01*
X44764476Y-8285238D01*
X44716095Y-8236857D01*
X44667714Y-8140095D01*
X44667714Y-7946571D01*
X44716095Y-7849809D01*
X44764476Y-7801428D01*
X44861238Y-7753047D01*
%TO.C,FL3*%
X51295904Y-11865428D02*
X51634571Y-11865428D01*
X51634571Y-12397619D02*
X51634571Y-11381619D01*
X51150761Y-11381619D01*
X50279904Y-12397619D02*
X50763714Y-12397619D01*
X50763714Y-11381619D01*
X50038000Y-11381619D02*
X49409047Y-11381619D01*
X49747714Y-11768666D01*
X49602571Y-11768666D01*
X49505809Y-11817047D01*
X49457428Y-11865428D01*
X49409047Y-11962190D01*
X49409047Y-12204095D01*
X49457428Y-12300857D01*
X49505809Y-12349238D01*
X49602571Y-12397619D01*
X49892857Y-12397619D01*
X49989619Y-12349238D01*
X50038000Y-12300857D01*
%TO.C,R6*%
X53545619Y-44153666D02*
X53061809Y-43815000D01*
X53545619Y-43573095D02*
X52529619Y-43573095D01*
X52529619Y-43960142D01*
X52578000Y-44056904D01*
X52626380Y-44105285D01*
X52723142Y-44153666D01*
X52868285Y-44153666D01*
X52965047Y-44105285D01*
X53013428Y-44056904D01*
X53061809Y-43960142D01*
X53061809Y-43573095D01*
X52529619Y-45024523D02*
X52529619Y-44831000D01*
X52578000Y-44734238D01*
X52626380Y-44685857D01*
X52771523Y-44589095D01*
X52965047Y-44540714D01*
X53352095Y-44540714D01*
X53448857Y-44589095D01*
X53497238Y-44637476D01*
X53545619Y-44734238D01*
X53545619Y-44927761D01*
X53497238Y-45024523D01*
X53448857Y-45072904D01*
X53352095Y-45121285D01*
X53110190Y-45121285D01*
X53013428Y-45072904D01*
X52965047Y-45024523D01*
X52916666Y-44927761D01*
X52916666Y-44734238D01*
X52965047Y-44637476D01*
X53013428Y-44589095D01*
X53110190Y-44540714D01*
%TO.C,C51*%
X37483142Y-20555857D02*
X37531523Y-20604238D01*
X37676666Y-20652619D01*
X37773428Y-20652619D01*
X37918571Y-20604238D01*
X38015333Y-20507476D01*
X38063714Y-20410714D01*
X38112095Y-20217190D01*
X38112095Y-20072047D01*
X38063714Y-19878523D01*
X38015333Y-19781761D01*
X37918571Y-19685000D01*
X37773428Y-19636619D01*
X37676666Y-19636619D01*
X37531523Y-19685000D01*
X37483142Y-19733380D01*
X36563904Y-19636619D02*
X37047714Y-19636619D01*
X37096095Y-20120428D01*
X37047714Y-20072047D01*
X36950952Y-20023666D01*
X36709047Y-20023666D01*
X36612285Y-20072047D01*
X36563904Y-20120428D01*
X36515523Y-20217190D01*
X36515523Y-20459095D01*
X36563904Y-20555857D01*
X36612285Y-20604238D01*
X36709047Y-20652619D01*
X36950952Y-20652619D01*
X37047714Y-20604238D01*
X37096095Y-20555857D01*
X35547904Y-20652619D02*
X36128476Y-20652619D01*
X35838190Y-20652619D02*
X35838190Y-19636619D01*
X35934952Y-19781761D01*
X36031714Y-19878523D01*
X36128476Y-19926904D01*
%TO.C,FL6*%
X51295904Y-29518428D02*
X51634571Y-29518428D01*
X51634571Y-30050619D02*
X51634571Y-29034619D01*
X51150761Y-29034619D01*
X50279904Y-30050619D02*
X50763714Y-30050619D01*
X50763714Y-29034619D01*
X49505809Y-29034619D02*
X49699333Y-29034619D01*
X49796095Y-29083000D01*
X49844476Y-29131380D01*
X49941238Y-29276523D01*
X49989619Y-29470047D01*
X49989619Y-29857095D01*
X49941238Y-29953857D01*
X49892857Y-30002238D01*
X49796095Y-30050619D01*
X49602571Y-30050619D01*
X49505809Y-30002238D01*
X49457428Y-29953857D01*
X49409047Y-29857095D01*
X49409047Y-29615190D01*
X49457428Y-29518428D01*
X49505809Y-29470047D01*
X49602571Y-29421666D01*
X49796095Y-29421666D01*
X49892857Y-29470047D01*
X49941238Y-29518428D01*
X49989619Y-29615190D01*
%TO.C,TR4*%
X43319095Y-13667619D02*
X42738523Y-13667619D01*
X43028809Y-14683619D02*
X43028809Y-13667619D01*
X41819285Y-14683619D02*
X42157952Y-14199809D01*
X42399857Y-14683619D02*
X42399857Y-13667619D01*
X42012809Y-13667619D01*
X41916047Y-13716000D01*
X41867666Y-13764380D01*
X41819285Y-13861142D01*
X41819285Y-14006285D01*
X41867666Y-14103047D01*
X41916047Y-14151428D01*
X42012809Y-14199809D01*
X42399857Y-14199809D01*
X40948428Y-14006285D02*
X40948428Y-14683619D01*
X41190333Y-13619238D02*
X41432238Y-14344952D01*
X40803285Y-14344952D01*
%TO.C,TR2*%
X17284095Y-37416619D02*
X16703523Y-37416619D01*
X16993809Y-38432619D02*
X16993809Y-37416619D01*
X15784285Y-38432619D02*
X16122952Y-37948809D01*
X16364857Y-38432619D02*
X16364857Y-37416619D01*
X15977809Y-37416619D01*
X15881047Y-37465000D01*
X15832666Y-37513380D01*
X15784285Y-37610142D01*
X15784285Y-37755285D01*
X15832666Y-37852047D01*
X15881047Y-37900428D01*
X15977809Y-37948809D01*
X16364857Y-37948809D01*
X15397238Y-37513380D02*
X15348857Y-37465000D01*
X15252095Y-37416619D01*
X15010190Y-37416619D01*
X14913428Y-37465000D01*
X14865047Y-37513380D01*
X14816666Y-37610142D01*
X14816666Y-37706904D01*
X14865047Y-37852047D01*
X15445619Y-38432619D01*
X14816666Y-38432619D01*
%TO.C,U2*%
X46306619Y-4305904D02*
X47129095Y-4305904D01*
X47225857Y-4354285D01*
X47274238Y-4402666D01*
X47322619Y-4499428D01*
X47322619Y-4692952D01*
X47274238Y-4789714D01*
X47225857Y-4838095D01*
X47129095Y-4886476D01*
X46306619Y-4886476D01*
X46403380Y-5321904D02*
X46355000Y-5370285D01*
X46306619Y-5467047D01*
X46306619Y-5708952D01*
X46355000Y-5805714D01*
X46403380Y-5854095D01*
X46500142Y-5902476D01*
X46596904Y-5902476D01*
X46742047Y-5854095D01*
X47322619Y-5273523D01*
X47322619Y-5902476D01*
%TO.C,R5*%
X36527619Y-43010666D02*
X36043809Y-42672000D01*
X36527619Y-42430095D02*
X35511619Y-42430095D01*
X35511619Y-42817142D01*
X35560000Y-42913904D01*
X35608380Y-42962285D01*
X35705142Y-43010666D01*
X35850285Y-43010666D01*
X35947047Y-42962285D01*
X35995428Y-42913904D01*
X36043809Y-42817142D01*
X36043809Y-42430095D01*
X35511619Y-43929904D02*
X35511619Y-43446095D01*
X35995428Y-43397714D01*
X35947047Y-43446095D01*
X35898666Y-43542857D01*
X35898666Y-43784761D01*
X35947047Y-43881523D01*
X35995428Y-43929904D01*
X36092190Y-43978285D01*
X36334095Y-43978285D01*
X36430857Y-43929904D01*
X36479238Y-43881523D01*
X36527619Y-43784761D01*
X36527619Y-43542857D01*
X36479238Y-43446095D01*
X36430857Y-43397714D01*
D12*
%TO.C,Y1*%
X37980000Y-25226000D02*
X35680000Y-25226000D01*
X35680000Y-25226000D02*
X35680000Y-22526000D01*
%TO.C,FL1*%
X8890000Y-42418000D02*
X8890000Y-42672000D01*
X8636000Y-42418000D02*
X8890000Y-42418000D01*
X6350000Y-43688000D02*
X6350000Y-43942000D01*
X6604000Y-42418000D02*
X6350000Y-42418000D01*
X6350000Y-42418000D02*
X6350000Y-42672000D01*
X6350000Y-43942000D02*
X6604000Y-43942000D01*
X8890000Y-43942000D02*
X8636000Y-43942000D01*
X8890000Y-43688000D02*
X8890000Y-43942000D01*
D11*
X9219000Y-42164000D02*
G75*
G03*
X9219000Y-42164000I-75000J0D01*
G01*
D12*
%TO.C,TR5*%
X48768000Y-22352000D02*
X48768000Y-21844000D01*
X43942000Y-22352000D02*
X44196000Y-22352000D01*
X43688000Y-22352000D02*
X43942000Y-22352000D01*
X48260000Y-22352000D02*
X48768000Y-22352000D01*
X43688000Y-22352000D02*
X43688000Y-21844000D01*
X48768000Y-19304000D02*
X48768000Y-18796000D01*
X43688000Y-18796000D02*
X43688000Y-19304000D01*
X48768000Y-18796000D02*
X48260000Y-18796000D01*
X43688000Y-18796000D02*
X44196000Y-18796000D01*
D13*
X43307000Y-18288000D02*
G75*
G03*
X43307000Y-18288000I-127000J0D01*
G01*
D12*
%TO.C,C7*%
X11791836Y-36174000D02*
X11576164Y-36174000D01*
X11791836Y-35454000D02*
X11576164Y-35454000D01*
%TO.C,R18*%
X29084000Y-8736359D02*
X29084000Y-9043641D01*
X29844000Y-8736359D02*
X29844000Y-9043641D01*
%TO.C,R19*%
X30100000Y-8736359D02*
X30100000Y-9043641D01*
X30860000Y-8736359D02*
X30860000Y-9043641D01*
%TO.C,C47*%
X23475836Y-9758000D02*
X23260164Y-9758000D01*
X23475836Y-9038000D02*
X23260164Y-9038000D01*
%TO.C,FL4*%
X49276000Y-14732000D02*
X49276000Y-14478000D01*
X49530000Y-16002000D02*
X49276000Y-16002000D01*
X51562000Y-16002000D02*
X51816000Y-16002000D01*
X51816000Y-14732000D02*
X51816000Y-14478000D01*
X49276000Y-16002000D02*
X49276000Y-15748000D01*
X51816000Y-14478000D02*
X51562000Y-14478000D01*
X49276000Y-14478000D02*
X49530000Y-14478000D01*
X51816000Y-16002000D02*
X51816000Y-15748000D01*
D11*
X49097000Y-16256000D02*
G75*
G03*
X49097000Y-16256000I-75000J0D01*
G01*
D12*
%TO.C,TR3*%
X43688000Y-11938000D02*
X43688000Y-11430000D01*
X43688000Y-8382000D02*
X44196000Y-8382000D01*
X48768000Y-8382000D02*
X48260000Y-8382000D01*
X43688000Y-11938000D02*
X43942000Y-11938000D01*
X43942000Y-11938000D02*
X44196000Y-11938000D01*
X48768000Y-11938000D02*
X48768000Y-11430000D01*
X48260000Y-11938000D02*
X48768000Y-11938000D01*
X48768000Y-8890000D02*
X48768000Y-8382000D01*
X43688000Y-8382000D02*
X43688000Y-8890000D01*
D13*
X43307000Y-7874000D02*
G75*
G03*
X43307000Y-7874000I-127000J0D01*
G01*
D12*
%TO.C,R23*%
X19912359Y-9018000D02*
X20219641Y-9018000D01*
X19912359Y-9778000D02*
X20219641Y-9778000D01*
%TO.C,R8*%
X33767500Y-46719258D02*
X33767500Y-46244742D01*
X34812500Y-46719258D02*
X34812500Y-46244742D01*
D11*
%TO.C,U1*%
X33287000Y-25667000D02*
X32787000Y-25667000D01*
X33287000Y-11417000D02*
X32702000Y-11417000D01*
X32787000Y-25667000D02*
X32787000Y-26742000D01*
X19037000Y-11417000D02*
X19037000Y-12002000D01*
X19037000Y-25667000D02*
X19037000Y-25082000D01*
X19037000Y-25667000D02*
X19622000Y-25667000D01*
X19037000Y-11417000D02*
X19622000Y-11417000D01*
X33287000Y-25667000D02*
X33287000Y-25082000D01*
X33287000Y-11417000D02*
X33287000Y-12002000D01*
D12*
%TO.C,R7*%
X18273500Y-44179258D02*
X18273500Y-43704742D01*
X19318500Y-44179258D02*
X19318500Y-43704742D01*
%TO.C,R17*%
X28068000Y-8736359D02*
X28068000Y-9043641D01*
X28828000Y-8736359D02*
X28828000Y-9043641D01*
%TO.C,C9*%
X43326164Y-17928000D02*
X43541836Y-17928000D01*
X43326164Y-18648000D02*
X43541836Y-18648000D01*
%TO.C,J8*%
X54391006Y-5099990D02*
X51731006Y-5099990D01*
X53061006Y-2499990D02*
X51731006Y-2499990D01*
X54391006Y-5099990D02*
X54391006Y-7699990D01*
X51731006Y-5099990D02*
X51731006Y-7699990D01*
X54391006Y-7699990D02*
X51731006Y-7699990D01*
X51731006Y-2499990D02*
X51731006Y-3829990D01*
%TO.C,FL2*%
X8890000Y-38608000D02*
X8890000Y-38862000D01*
X6350000Y-38862000D02*
X6604000Y-38862000D01*
X6350000Y-38608000D02*
X6350000Y-38862000D01*
X6350000Y-37338000D02*
X6350000Y-37592000D01*
X6604000Y-37338000D02*
X6350000Y-37338000D01*
X8636000Y-37338000D02*
X8890000Y-37338000D01*
X8890000Y-38862000D02*
X8636000Y-38862000D01*
X8890000Y-37338000D02*
X8890000Y-37592000D01*
D11*
X9219000Y-37084000D02*
G75*
G03*
X9219000Y-37084000I-75000J0D01*
G01*
D12*
%TO.C,C48*%
X36970580Y-26672000D02*
X36689420Y-26672000D01*
X36970580Y-25652000D02*
X36689420Y-25652000D01*
%TO.C,FL5*%
X51816000Y-22098000D02*
X51562000Y-22098000D01*
X49276000Y-22098000D02*
X49530000Y-22098000D01*
X49530000Y-23622000D02*
X49276000Y-23622000D01*
X51816000Y-23622000D02*
X51816000Y-23368000D01*
X51816000Y-22352000D02*
X51816000Y-22098000D01*
X49276000Y-23622000D02*
X49276000Y-23368000D01*
X49276000Y-22352000D02*
X49276000Y-22098000D01*
X51562000Y-23622000D02*
X51816000Y-23622000D01*
D11*
X49097000Y-23876000D02*
G75*
G03*
X49097000Y-23876000I-75000J0D01*
G01*
D12*
%TO.C,R16*%
X27812000Y-8736359D02*
X27812000Y-9043641D01*
X27052000Y-8736359D02*
X27052000Y-9043641D01*
%TO.C,TR6*%
X48768000Y-23876000D02*
X48260000Y-23876000D01*
X48260000Y-27432000D02*
X48768000Y-27432000D01*
X43688000Y-23876000D02*
X44196000Y-23876000D01*
X43942000Y-27432000D02*
X44196000Y-27432000D01*
X43688000Y-27432000D02*
X43942000Y-27432000D01*
X43688000Y-27432000D02*
X43688000Y-26924000D01*
X43688000Y-23876000D02*
X43688000Y-24384000D01*
X48768000Y-24384000D02*
X48768000Y-23876000D01*
X48768000Y-27432000D02*
X48768000Y-26924000D01*
D13*
X43307000Y-23368000D02*
G75*
G03*
X43307000Y-23368000I-127000J0D01*
G01*
D12*
%TO.C,R20*%
X31116000Y-8736359D02*
X31116000Y-9043641D01*
X31876000Y-8736359D02*
X31876000Y-9043641D01*
%TO.C,TR1*%
X9398000Y-45974000D02*
X9906000Y-45974000D01*
X14478000Y-42418000D02*
X14224000Y-42418000D01*
X9398000Y-42418000D02*
X9398000Y-42926000D01*
X9398000Y-45466000D02*
X9398000Y-45974000D01*
X14478000Y-45974000D02*
X14478000Y-45466000D01*
X9906000Y-42418000D02*
X9398000Y-42418000D01*
X14478000Y-45974000D02*
X13970000Y-45974000D01*
X14224000Y-42418000D02*
X13970000Y-42418000D01*
X14478000Y-42418000D02*
X14478000Y-42926000D01*
D13*
X15113000Y-46482000D02*
G75*
G03*
X15113000Y-46482000I-127000J0D01*
G01*
D12*
%TO.C,R15*%
X26796000Y-8736359D02*
X26796000Y-9043641D01*
X26036000Y-8736359D02*
X26036000Y-9043641D01*
%TO.C,C8*%
X43326164Y-7514000D02*
X43541836Y-7514000D01*
X43326164Y-8234000D02*
X43541836Y-8234000D01*
%TO.C,R21*%
X32892000Y-8736359D02*
X32892000Y-9043641D01*
X32132000Y-8736359D02*
X32132000Y-9043641D01*
%TO.C,FL3*%
X51816000Y-10922000D02*
X51816000Y-10668000D01*
X49276000Y-9652000D02*
X49276000Y-9398000D01*
X49276000Y-10922000D02*
X49276000Y-10668000D01*
X49530000Y-10922000D02*
X49276000Y-10922000D01*
X51562000Y-10922000D02*
X51816000Y-10922000D01*
X49276000Y-9398000D02*
X49530000Y-9398000D01*
X51816000Y-9652000D02*
X51816000Y-9398000D01*
X51816000Y-9398000D02*
X51562000Y-9398000D01*
D11*
X49097000Y-11176000D02*
G75*
G03*
X49097000Y-11176000I-75000J0D01*
G01*
D12*
%TO.C,R6*%
X52084500Y-44179258D02*
X52084500Y-43704742D01*
X51039500Y-44179258D02*
X51039500Y-43704742D01*
%TO.C,R22*%
X33148000Y-8736359D02*
X33148000Y-9043641D01*
X33908000Y-8736359D02*
X33908000Y-9043641D01*
%TO.C,C51*%
X36689420Y-22100000D02*
X36970580Y-22100000D01*
X36689420Y-21080000D02*
X36970580Y-21080000D01*
%TO.C,FL6*%
D11*
X49097000Y-28956000D02*
G75*
G03*
X49097000Y-28956000I-75000J0D01*
G01*
D12*
X51816000Y-27178000D02*
X51562000Y-27178000D01*
X49276000Y-27432000D02*
X49276000Y-27178000D01*
X49276000Y-27178000D02*
X49530000Y-27178000D01*
X51816000Y-27432000D02*
X51816000Y-27178000D01*
X49530000Y-28702000D02*
X49276000Y-28702000D01*
X51816000Y-28702000D02*
X51816000Y-28448000D01*
X51562000Y-28702000D02*
X51816000Y-28702000D01*
X49276000Y-28702000D02*
X49276000Y-28448000D01*
%TO.C,TR4*%
X48768000Y-13462000D02*
X48260000Y-13462000D01*
X48768000Y-13970000D02*
X48768000Y-13462000D01*
X43688000Y-17018000D02*
X43688000Y-16510000D01*
X43688000Y-13462000D02*
X44196000Y-13462000D01*
X43688000Y-17018000D02*
X43942000Y-17018000D01*
X43688000Y-13462000D02*
X43688000Y-13970000D01*
X48260000Y-17018000D02*
X48768000Y-17018000D01*
X48768000Y-17018000D02*
X48768000Y-16510000D01*
X43942000Y-17018000D02*
X44196000Y-17018000D01*
D13*
X43307000Y-12954000D02*
G75*
G03*
X43307000Y-12954000I-127000J0D01*
G01*
D12*
%TO.C,TR2*%
X14478000Y-40894000D02*
X13970000Y-40894000D01*
X14478000Y-37338000D02*
X14478000Y-37846000D01*
X9398000Y-37338000D02*
X9398000Y-37846000D01*
X14224000Y-37338000D02*
X13970000Y-37338000D01*
X9398000Y-40894000D02*
X9906000Y-40894000D01*
X14478000Y-40894000D02*
X14478000Y-40386000D01*
X14478000Y-37338000D02*
X14224000Y-37338000D01*
X9906000Y-37338000D02*
X9398000Y-37338000D01*
X9398000Y-40386000D02*
X9398000Y-40894000D01*
D13*
X15113000Y-41402000D02*
G75*
G03*
X15113000Y-41402000I-127000J0D01*
G01*
D12*
%TO.C,U2*%
X48224000Y-5080000D02*
X48224000Y-3280000D01*
X51344000Y-5080000D02*
X51344000Y-4280000D01*
X51344000Y-5080000D02*
X51344000Y-5880000D01*
X48224000Y-5080000D02*
X48224000Y-5880000D01*
%TO.C,R5*%
X36590500Y-46719258D02*
X36590500Y-46244742D01*
X35545500Y-46719258D02*
X35545500Y-46244742D01*
%TD*%
M02*
