%TF.GenerationSoftware,KiCad,Pcbnew,(6.0.2-0)*%
%TF.CreationDate,2022-10-21T16:11:50-05:00*%
%TF.ProjectId,little_switch,6c697474-6c65-45f7-9377-697463682e6b,1*%
%TF.SameCoordinates,PX4221330PY3d0af40*%
%TF.FileFunction,Profile,NP*%
%FSLAX46Y46*%
G04 Gerber Fmt 4.6, Leading zero omitted, Abs format (unit mm)*
G04 Created by KiCad (PCBNEW (6.0.2-0)) date 2022-10-21 16:11:50*
%MOMM*%
%LPD*%
G01*
G04 APERTURE LIST*
%TA.AperFunction,Profile*%
%ADD10C,0.100000*%
%TD*%
G04 APERTURE END LIST*
D10*
X36780000Y-52500000D02*
G75*
G03*
X37280000Y-52000000I-1J500001D01*
G01*
X-500000Y3500000D02*
G75*
G03*
X-3500000Y500000I1J-3000001D01*
G01*
X50285000Y-36460000D02*
G75*
G03*
X49785000Y-35960000I-500001J-1D01*
G01*
X33220000Y-36460000D02*
G75*
G03*
X32720000Y-35960000I-500001J-1D01*
G01*
X33220000Y-36460000D02*
X33220000Y-52000000D01*
X50285000Y-36460000D02*
X50285000Y-52000000D01*
X58500000Y-52500000D02*
G75*
G03*
X61500000Y-49500000I-1J3000001D01*
G01*
X37780000Y-35960000D02*
G75*
G03*
X37280000Y-36460000I1J-500001D01*
G01*
X58500000Y-52500000D02*
X50785000Y-52500000D01*
X-3500000Y-49500000D02*
G75*
G03*
X-500000Y-52500000I3000001J1D01*
G01*
X61500000Y500000D02*
X61500000Y-49500000D01*
X-500000Y-52500000D02*
X19715000Y-52500000D01*
X37780000Y-35960000D02*
X49785000Y-35960000D01*
X-500000Y3500000D02*
X58500000Y3500000D01*
X20215000Y-52000000D02*
X20215000Y-36460000D01*
X-3500000Y500000D02*
X-3500000Y-49500000D01*
X20715000Y-35960000D02*
G75*
G03*
X20215000Y-36460000I1J-500001D01*
G01*
X33220000Y-52000000D02*
G75*
G03*
X33720000Y-52500000I500001J1D01*
G01*
X20715000Y-35960000D02*
X32720000Y-35960000D01*
X61500000Y500000D02*
G75*
G03*
X58500000Y3500000I-3000001J-1D01*
G01*
X50285000Y-52000000D02*
G75*
G03*
X50785000Y-52500000I500001J1D01*
G01*
X19715000Y-52500000D02*
G75*
G03*
X20215000Y-52000000I-1J500001D01*
G01*
X33720000Y-52500000D02*
X36780000Y-52500000D01*
X37280000Y-52000000D02*
X37280000Y-36460000D01*
M02*
