%TF.GenerationSoftware,KiCad,Pcbnew,(6.0.2-0)*%
%TF.CreationDate,2022-10-21T16:11:50-05:00*%
%TF.ProjectId,little_switch,6c697474-6c65-45f7-9377-697463682e6b,1*%
%TF.SameCoordinates,PX4221330PY3d0af40*%
%TF.FileFunction,Legend,Top*%
%TF.FilePolarity,Positive*%
%FSLAX46Y46*%
G04 Gerber Fmt 4.6, Leading zero omitted, Abs format (unit mm)*
G04 Created by KiCad (PCBNEW (6.0.2-0)) date 2022-10-21 16:11:50*
%MOMM*%
%LPD*%
G01*
G04 APERTURE LIST*
%ADD10C,0.152400*%
%ADD11C,0.150000*%
%ADD12C,0.120000*%
G04 APERTURE END LIST*
D10*
X7180821Y-42115619D02*
X7761393Y-42115619D01*
X7471107Y-43131619D02*
X7471107Y-42115619D01*
X8003298Y-42115619D02*
X8680631Y-43131619D01*
X8680631Y-42115619D02*
X8003298Y-43131619D01*
X9067679Y-42744571D02*
X9841774Y-42744571D01*
X7180821Y-43385619D02*
X7761393Y-43385619D01*
X7471107Y-44401619D02*
X7471107Y-43385619D01*
X8003298Y-43385619D02*
X8680631Y-44401619D01*
X8680631Y-43385619D02*
X8003298Y-44401619D01*
X9067679Y-44014571D02*
X9841774Y-44014571D01*
X9454726Y-44401619D02*
X9454726Y-43627523D01*
X48306082Y-21668619D02*
X48886654Y-21668619D01*
X48596368Y-22684619D02*
X48596368Y-21668619D01*
X49128559Y-21668619D02*
X49805892Y-22684619D01*
X49805892Y-21668619D02*
X49128559Y-22684619D01*
X50192940Y-22297571D02*
X50967035Y-22297571D01*
X50579987Y-22684619D02*
X50579987Y-21910523D01*
X7652536Y-39194619D02*
X7313869Y-38710809D01*
X7071964Y-39194619D02*
X7071964Y-38178619D01*
X7459012Y-38178619D01*
X7555774Y-38227000D01*
X7604155Y-38275380D01*
X7652536Y-38372142D01*
X7652536Y-38517285D01*
X7604155Y-38614047D01*
X7555774Y-38662428D01*
X7459012Y-38710809D01*
X7071964Y-38710809D01*
X7991202Y-38178619D02*
X8668536Y-39194619D01*
X8668536Y-38178619D02*
X7991202Y-39194619D01*
X9055583Y-38807571D02*
X9829679Y-38807571D01*
X9442631Y-39194619D02*
X9442631Y-38420523D01*
X7652536Y-37924619D02*
X7313869Y-37440809D01*
X7071964Y-37924619D02*
X7071964Y-36908619D01*
X7459012Y-36908619D01*
X7555774Y-36957000D01*
X7604155Y-37005380D01*
X7652536Y-37102142D01*
X7652536Y-37247285D01*
X7604155Y-37344047D01*
X7555774Y-37392428D01*
X7459012Y-37440809D01*
X7071964Y-37440809D01*
X7991202Y-36908619D02*
X8668536Y-37924619D01*
X8668536Y-36908619D02*
X7991202Y-37924619D01*
X9055583Y-37537571D02*
X9829679Y-37537571D01*
X48789892Y-28018619D02*
X48451225Y-27534809D01*
X48209320Y-28018619D02*
X48209320Y-27002619D01*
X48596368Y-27002619D01*
X48693130Y-27051000D01*
X48741511Y-27099380D01*
X48789892Y-27196142D01*
X48789892Y-27341285D01*
X48741511Y-27438047D01*
X48693130Y-27486428D01*
X48596368Y-27534809D01*
X48209320Y-27534809D01*
X49128559Y-27002619D02*
X49805892Y-28018619D01*
X49805892Y-27002619D02*
X49128559Y-28018619D01*
X50192940Y-27631571D02*
X50967035Y-27631571D01*
X50579987Y-28018619D02*
X50579987Y-27244523D01*
X48789892Y-29288619D02*
X48451225Y-28804809D01*
X48209320Y-29288619D02*
X48209320Y-28272619D01*
X48596368Y-28272619D01*
X48693130Y-28321000D01*
X48741511Y-28369380D01*
X48789892Y-28466142D01*
X48789892Y-28611285D01*
X48741511Y-28708047D01*
X48693130Y-28756428D01*
X48596368Y-28804809D01*
X48209320Y-28804809D01*
X49128559Y-28272619D02*
X49805892Y-29288619D01*
X49805892Y-28272619D02*
X49128559Y-29288619D01*
X50192940Y-28901571D02*
X50967035Y-28901571D01*
X48306082Y-22938619D02*
X48886654Y-22938619D01*
X48596368Y-23954619D02*
X48596368Y-22938619D01*
X49128559Y-22938619D02*
X49805892Y-23954619D01*
X49805892Y-22938619D02*
X49128559Y-23954619D01*
X50192940Y-23567571D02*
X50967035Y-23567571D01*
X48789892Y-16334619D02*
X48451225Y-15850809D01*
X48209320Y-16334619D02*
X48209320Y-15318619D01*
X48596368Y-15318619D01*
X48693130Y-15367000D01*
X48741511Y-15415380D01*
X48789892Y-15512142D01*
X48789892Y-15657285D01*
X48741511Y-15754047D01*
X48693130Y-15802428D01*
X48596368Y-15850809D01*
X48209320Y-15850809D01*
X49128559Y-15318619D02*
X49805892Y-16334619D01*
X49805892Y-15318619D02*
X49128559Y-16334619D01*
X50192940Y-15947571D02*
X50967035Y-15947571D01*
X48789892Y-15064619D02*
X48451225Y-14580809D01*
X48209320Y-15064619D02*
X48209320Y-14048619D01*
X48596368Y-14048619D01*
X48693130Y-14097000D01*
X48741511Y-14145380D01*
X48789892Y-14242142D01*
X48789892Y-14387285D01*
X48741511Y-14484047D01*
X48693130Y-14532428D01*
X48596368Y-14580809D01*
X48209320Y-14580809D01*
X49128559Y-14048619D02*
X49805892Y-15064619D01*
X49805892Y-14048619D02*
X49128559Y-15064619D01*
X50192940Y-14677571D02*
X50967035Y-14677571D01*
X50579987Y-15064619D02*
X50579987Y-14290523D01*
X48306082Y-9984619D02*
X48886654Y-9984619D01*
X48596368Y-11000619D02*
X48596368Y-9984619D01*
X49128559Y-9984619D02*
X49805892Y-11000619D01*
X49805892Y-9984619D02*
X49128559Y-11000619D01*
X50192940Y-10613571D02*
X50967035Y-10613571D01*
X48306082Y-8714619D02*
X48886654Y-8714619D01*
X48596368Y-9730619D02*
X48596368Y-8714619D01*
X49128559Y-8714619D02*
X49805892Y-9730619D01*
X49805892Y-8714619D02*
X49128559Y-9730619D01*
X50192940Y-9343571D02*
X50967035Y-9343571D01*
X50579987Y-9730619D02*
X50579987Y-8956523D01*
X54902583Y-5999238D02*
X55047726Y-6047619D01*
X55289631Y-6047619D01*
X55386393Y-5999238D01*
X55434774Y-5950857D01*
X55483155Y-5854095D01*
X55483155Y-5757333D01*
X55434774Y-5660571D01*
X55386393Y-5612190D01*
X55289631Y-5563809D01*
X55096107Y-5515428D01*
X54999345Y-5467047D01*
X54950964Y-5418666D01*
X54902583Y-5321904D01*
X54902583Y-5225142D01*
X54950964Y-5128380D01*
X54999345Y-5080000D01*
X55096107Y-5031619D01*
X55338012Y-5031619D01*
X55483155Y-5080000D01*
X56112107Y-5563809D02*
X56112107Y-6047619D01*
X55773440Y-5031619D02*
X56112107Y-5563809D01*
X56450774Y-5031619D01*
X56789440Y-6047619D02*
X56789440Y-5031619D01*
X57370012Y-6047619D01*
X57370012Y-5031619D01*
X58434393Y-5950857D02*
X58386012Y-5999238D01*
X58240869Y-6047619D01*
X58144107Y-6047619D01*
X57998964Y-5999238D01*
X57902202Y-5902476D01*
X57853821Y-5805714D01*
X57805440Y-5612190D01*
X57805440Y-5467047D01*
X57853821Y-5273523D01*
X57902202Y-5176761D01*
X57998964Y-5080000D01*
X58144107Y-5031619D01*
X58240869Y-5031619D01*
X58386012Y-5080000D01*
X58434393Y-5128380D01*
X58869821Y-5660571D02*
X59643917Y-5660571D01*
X54902583Y-4729238D02*
X55047726Y-4777619D01*
X55289631Y-4777619D01*
X55386393Y-4729238D01*
X55434774Y-4680857D01*
X55483155Y-4584095D01*
X55483155Y-4487333D01*
X55434774Y-4390571D01*
X55386393Y-4342190D01*
X55289631Y-4293809D01*
X55096107Y-4245428D01*
X54999345Y-4197047D01*
X54950964Y-4148666D01*
X54902583Y-4051904D01*
X54902583Y-3955142D01*
X54950964Y-3858380D01*
X54999345Y-3810000D01*
X55096107Y-3761619D01*
X55338012Y-3761619D01*
X55483155Y-3810000D01*
X56112107Y-4293809D02*
X56112107Y-4777619D01*
X55773440Y-3761619D02*
X56112107Y-4293809D01*
X56450774Y-3761619D01*
X56789440Y-4777619D02*
X56789440Y-3761619D01*
X57370012Y-4777619D01*
X57370012Y-3761619D01*
X58434393Y-4680857D02*
X58386012Y-4729238D01*
X58240869Y-4777619D01*
X58144107Y-4777619D01*
X57998964Y-4729238D01*
X57902202Y-4632476D01*
X57853821Y-4535714D01*
X57805440Y-4342190D01*
X57805440Y-4197047D01*
X57853821Y-4003523D01*
X57902202Y-3906761D01*
X57998964Y-3810000D01*
X58144107Y-3761619D01*
X58240869Y-3761619D01*
X58386012Y-3810000D01*
X58434393Y-3858380D01*
X58869821Y-4390571D02*
X59643917Y-4390571D01*
X59256869Y-4777619D02*
X59256869Y-4003523D01*
X-48381Y-22110095D02*
X-48381Y-22593904D01*
X435428Y-22642285D01*
X387047Y-22593904D01*
X338666Y-22497142D01*
X338666Y-22255238D01*
X387047Y-22158476D01*
X435428Y-22110095D01*
X532190Y-22061714D01*
X774095Y-22061714D01*
X870857Y-22110095D01*
X919238Y-22158476D01*
X967619Y-22255238D01*
X967619Y-22497142D01*
X919238Y-22593904D01*
X870857Y-22642285D01*
X-1572381Y-22690666D02*
X-1572381Y-22061714D01*
X-1185334Y-22400380D01*
X-1185334Y-22255238D01*
X-1136953Y-22158476D01*
X-1088572Y-22110095D01*
X-991810Y-22061714D01*
X-749905Y-22061714D01*
X-653143Y-22110095D01*
X-604762Y-22158476D01*
X-556381Y-22255238D01*
X-556381Y-22545523D01*
X-604762Y-22642285D01*
X-653143Y-22690666D01*
X-3096381Y-22690666D02*
X-3096381Y-22013333D01*
X-2080381Y-22448761D01*
D11*
X2286000Y-12700000D02*
X3048000Y-11938000D01*
X22098000Y-16510000D02*
X22352000Y-16256000D01*
X22098000Y-16510000D02*
X21844000Y-16256000D01*
X22098000Y-14478000D02*
X22098000Y-16510000D01*
X30226000Y-14478000D02*
X22098000Y-14478000D01*
X30226000Y-22606000D02*
X30226000Y-14478000D01*
X22098000Y-22606000D02*
X30226000Y-22606000D01*
X22098000Y-18542000D02*
X22098000Y-22606000D01*
X17018000Y-18542000D02*
X22098000Y-18542000D01*
X9906000Y-24638000D02*
X9398000Y-24130000D01*
X12954000Y-24638000D02*
X9906000Y-24638000D01*
X12954000Y-23622000D02*
X12954000Y-24638000D01*
X7112000Y-14986000D02*
X7112000Y-13208000D01*
X8890000Y-14986000D02*
X7112000Y-14986000D01*
D10*
%TO.C,J5*%
X50080333Y-17223619D02*
X50080333Y-17949333D01*
X50031952Y-18094476D01*
X49935190Y-18191238D01*
X49790047Y-18239619D01*
X49693285Y-18239619D01*
X51047952Y-17223619D02*
X50564142Y-17223619D01*
X50515761Y-17707428D01*
X50564142Y-17659047D01*
X50660904Y-17610666D01*
X50902809Y-17610666D01*
X50999571Y-17659047D01*
X51047952Y-17707428D01*
X51096333Y-17804190D01*
X51096333Y-18046095D01*
X51047952Y-18142857D01*
X50999571Y-18191238D01*
X50902809Y-18239619D01*
X50660904Y-18239619D01*
X50564142Y-18191238D01*
X50515761Y-18142857D01*
%TO.C,J6*%
X50080333Y-29923619D02*
X50080333Y-30649333D01*
X50031952Y-30794476D01*
X49935190Y-30891238D01*
X49790047Y-30939619D01*
X49693285Y-30939619D01*
X50999571Y-29923619D02*
X50806047Y-29923619D01*
X50709285Y-29972000D01*
X50660904Y-30020380D01*
X50564142Y-30165523D01*
X50515761Y-30359047D01*
X50515761Y-30746095D01*
X50564142Y-30842857D01*
X50612523Y-30891238D01*
X50709285Y-30939619D01*
X50902809Y-30939619D01*
X50999571Y-30891238D01*
X51047952Y-30842857D01*
X51096333Y-30746095D01*
X51096333Y-30504190D01*
X51047952Y-30407428D01*
X50999571Y-30359047D01*
X50902809Y-30310666D01*
X50709285Y-30310666D01*
X50612523Y-30359047D01*
X50564142Y-30407428D01*
X50515761Y-30504190D01*
%TO.C,J4*%
X6646333Y-35384619D02*
X6646333Y-36110333D01*
X6597952Y-36255476D01*
X6501190Y-36352238D01*
X6356047Y-36400619D01*
X6259285Y-36400619D01*
X7565571Y-35723285D02*
X7565571Y-36400619D01*
X7323666Y-35336238D02*
X7081761Y-36061952D01*
X7710714Y-36061952D01*
%TO.C,C24*%
X26016857Y-27069142D02*
X26065238Y-27117523D01*
X26113619Y-27262666D01*
X26113619Y-27359428D01*
X26065238Y-27504571D01*
X25968476Y-27601333D01*
X25871714Y-27649714D01*
X25678190Y-27698095D01*
X25533047Y-27698095D01*
X25339523Y-27649714D01*
X25242761Y-27601333D01*
X25146000Y-27504571D01*
X25097619Y-27359428D01*
X25097619Y-27262666D01*
X25146000Y-27117523D01*
X25194380Y-27069142D01*
X25194380Y-26682095D02*
X25146000Y-26633714D01*
X25097619Y-26536952D01*
X25097619Y-26295047D01*
X25146000Y-26198285D01*
X25194380Y-26149904D01*
X25291142Y-26101523D01*
X25387904Y-26101523D01*
X25533047Y-26149904D01*
X26113619Y-26730476D01*
X26113619Y-26101523D01*
X25436285Y-25230666D02*
X26113619Y-25230666D01*
X25049238Y-25472571D02*
X25774952Y-25714476D01*
X25774952Y-25085523D01*
%TO.C,C62*%
X7728857Y-16872857D02*
X7680476Y-16921238D01*
X7535333Y-16969619D01*
X7438571Y-16969619D01*
X7293428Y-16921238D01*
X7196666Y-16824476D01*
X7148285Y-16727714D01*
X7099904Y-16534190D01*
X7099904Y-16389047D01*
X7148285Y-16195523D01*
X7196666Y-16098761D01*
X7293428Y-16002000D01*
X7438571Y-15953619D01*
X7535333Y-15953619D01*
X7680476Y-16002000D01*
X7728857Y-16050380D01*
X8599714Y-15953619D02*
X8406190Y-15953619D01*
X8309428Y-16002000D01*
X8261047Y-16050380D01*
X8164285Y-16195523D01*
X8115904Y-16389047D01*
X8115904Y-16776095D01*
X8164285Y-16872857D01*
X8212666Y-16921238D01*
X8309428Y-16969619D01*
X8502952Y-16969619D01*
X8599714Y-16921238D01*
X8648095Y-16872857D01*
X8696476Y-16776095D01*
X8696476Y-16534190D01*
X8648095Y-16437428D01*
X8599714Y-16389047D01*
X8502952Y-16340666D01*
X8309428Y-16340666D01*
X8212666Y-16389047D01*
X8164285Y-16437428D01*
X8115904Y-16534190D01*
X9083523Y-16050380D02*
X9131904Y-16002000D01*
X9228666Y-15953619D01*
X9470571Y-15953619D01*
X9567333Y-16002000D01*
X9615714Y-16050380D01*
X9664095Y-16147142D01*
X9664095Y-16243904D01*
X9615714Y-16389047D01*
X9035142Y-16969619D01*
X9664095Y-16969619D01*
%TO.C,C64*%
X11538857Y-16872857D02*
X11490476Y-16921238D01*
X11345333Y-16969619D01*
X11248571Y-16969619D01*
X11103428Y-16921238D01*
X11006666Y-16824476D01*
X10958285Y-16727714D01*
X10909904Y-16534190D01*
X10909904Y-16389047D01*
X10958285Y-16195523D01*
X11006666Y-16098761D01*
X11103428Y-16002000D01*
X11248571Y-15953619D01*
X11345333Y-15953619D01*
X11490476Y-16002000D01*
X11538857Y-16050380D01*
X12409714Y-15953619D02*
X12216190Y-15953619D01*
X12119428Y-16002000D01*
X12071047Y-16050380D01*
X11974285Y-16195523D01*
X11925904Y-16389047D01*
X11925904Y-16776095D01*
X11974285Y-16872857D01*
X12022666Y-16921238D01*
X12119428Y-16969619D01*
X12312952Y-16969619D01*
X12409714Y-16921238D01*
X12458095Y-16872857D01*
X12506476Y-16776095D01*
X12506476Y-16534190D01*
X12458095Y-16437428D01*
X12409714Y-16389047D01*
X12312952Y-16340666D01*
X12119428Y-16340666D01*
X12022666Y-16389047D01*
X11974285Y-16437428D01*
X11925904Y-16534190D01*
X13377333Y-16292285D02*
X13377333Y-16969619D01*
X13135428Y-15905238D02*
X12893523Y-16630952D01*
X13522476Y-16630952D01*
%TO.C,SW1*%
X3205238Y-9736666D02*
X3253619Y-9591523D01*
X3253619Y-9349619D01*
X3205238Y-9252857D01*
X3156857Y-9204476D01*
X3060095Y-9156095D01*
X2963333Y-9156095D01*
X2866571Y-9204476D01*
X2818190Y-9252857D01*
X2769809Y-9349619D01*
X2721428Y-9543142D01*
X2673047Y-9639904D01*
X2624666Y-9688285D01*
X2527904Y-9736666D01*
X2431142Y-9736666D01*
X2334380Y-9688285D01*
X2286000Y-9639904D01*
X2237619Y-9543142D01*
X2237619Y-9301238D01*
X2286000Y-9156095D01*
X2237619Y-8817428D02*
X3253619Y-8575523D01*
X2527904Y-8382000D01*
X3253619Y-8188476D01*
X2237619Y-7946571D01*
X3253619Y-7027333D02*
X3253619Y-7607904D01*
X3253619Y-7317619D02*
X2237619Y-7317619D01*
X2382761Y-7414380D01*
X2479523Y-7511142D01*
X2527904Y-7607904D01*
%TO.C,R12*%
X14523619Y-45294142D02*
X14039809Y-45632809D01*
X14523619Y-45874714D02*
X13507619Y-45874714D01*
X13507619Y-45487666D01*
X13556000Y-45390904D01*
X13604380Y-45342523D01*
X13701142Y-45294142D01*
X13846285Y-45294142D01*
X13943047Y-45342523D01*
X13991428Y-45390904D01*
X14039809Y-45487666D01*
X14039809Y-45874714D01*
X14523619Y-44326523D02*
X14523619Y-44907095D01*
X14523619Y-44616809D02*
X13507619Y-44616809D01*
X13652761Y-44713571D01*
X13749523Y-44810333D01*
X13797904Y-44907095D01*
X13604380Y-43939476D02*
X13556000Y-43891095D01*
X13507619Y-43794333D01*
X13507619Y-43552428D01*
X13556000Y-43455666D01*
X13604380Y-43407285D01*
X13701142Y-43358904D01*
X13797904Y-43358904D01*
X13943047Y-43407285D01*
X14523619Y-43987857D01*
X14523619Y-43358904D01*
%TO.C,R10*%
X40591619Y-14877142D02*
X40107809Y-15215809D01*
X40591619Y-15457714D02*
X39575619Y-15457714D01*
X39575619Y-15070666D01*
X39624000Y-14973904D01*
X39672380Y-14925523D01*
X39769142Y-14877142D01*
X39914285Y-14877142D01*
X40011047Y-14925523D01*
X40059428Y-14973904D01*
X40107809Y-15070666D01*
X40107809Y-15457714D01*
X40591619Y-13909523D02*
X40591619Y-14490095D01*
X40591619Y-14199809D02*
X39575619Y-14199809D01*
X39720761Y-14296571D01*
X39817523Y-14393333D01*
X39865904Y-14490095D01*
X39575619Y-13280571D02*
X39575619Y-13183809D01*
X39624000Y-13087047D01*
X39672380Y-13038666D01*
X39769142Y-12990285D01*
X39962666Y-12941904D01*
X40204571Y-12941904D01*
X40398095Y-12990285D01*
X40494857Y-13038666D01*
X40543238Y-13087047D01*
X40591619Y-13183809D01*
X40591619Y-13280571D01*
X40543238Y-13377333D01*
X40494857Y-13425714D01*
X40398095Y-13474095D01*
X40204571Y-13522476D01*
X39962666Y-13522476D01*
X39769142Y-13474095D01*
X39672380Y-13425714D01*
X39624000Y-13377333D01*
X39575619Y-13280571D01*
%TO.C,C46*%
X17634857Y-15856857D02*
X17586476Y-15905238D01*
X17441333Y-15953619D01*
X17344571Y-15953619D01*
X17199428Y-15905238D01*
X17102666Y-15808476D01*
X17054285Y-15711714D01*
X17005904Y-15518190D01*
X17005904Y-15373047D01*
X17054285Y-15179523D01*
X17102666Y-15082761D01*
X17199428Y-14986000D01*
X17344571Y-14937619D01*
X17441333Y-14937619D01*
X17586476Y-14986000D01*
X17634857Y-15034380D01*
X18505714Y-15276285D02*
X18505714Y-15953619D01*
X18263809Y-14889238D02*
X18021904Y-15614952D01*
X18650857Y-15614952D01*
X19473333Y-14937619D02*
X19279809Y-14937619D01*
X19183047Y-14986000D01*
X19134666Y-15034380D01*
X19037904Y-15179523D01*
X18989523Y-15373047D01*
X18989523Y-15760095D01*
X19037904Y-15856857D01*
X19086285Y-15905238D01*
X19183047Y-15953619D01*
X19376571Y-15953619D01*
X19473333Y-15905238D01*
X19521714Y-15856857D01*
X19570095Y-15760095D01*
X19570095Y-15518190D01*
X19521714Y-15421428D01*
X19473333Y-15373047D01*
X19376571Y-15324666D01*
X19183047Y-15324666D01*
X19086285Y-15373047D01*
X19037904Y-15421428D01*
X18989523Y-15518190D01*
%TO.C,U3*%
X13449904Y-23573619D02*
X13449904Y-24396095D01*
X13498285Y-24492857D01*
X13546666Y-24541238D01*
X13643428Y-24589619D01*
X13836952Y-24589619D01*
X13933714Y-24541238D01*
X13982095Y-24492857D01*
X14030476Y-24396095D01*
X14030476Y-23573619D01*
X14417523Y-23573619D02*
X15046476Y-23573619D01*
X14707809Y-23960666D01*
X14852952Y-23960666D01*
X14949714Y-24009047D01*
X14998095Y-24057428D01*
X15046476Y-24154190D01*
X15046476Y-24396095D01*
X14998095Y-24492857D01*
X14949714Y-24541238D01*
X14852952Y-24589619D01*
X14562666Y-24589619D01*
X14465904Y-24541238D01*
X14417523Y-24492857D01*
%TO.C,C14*%
X14840857Y-11890857D02*
X14792476Y-11939238D01*
X14647333Y-11987619D01*
X14550571Y-11987619D01*
X14405428Y-11939238D01*
X14308666Y-11842476D01*
X14260285Y-11745714D01*
X14211904Y-11552190D01*
X14211904Y-11407047D01*
X14260285Y-11213523D01*
X14308666Y-11116761D01*
X14405428Y-11020000D01*
X14550571Y-10971619D01*
X14647333Y-10971619D01*
X14792476Y-11020000D01*
X14840857Y-11068380D01*
X15808476Y-11987619D02*
X15227904Y-11987619D01*
X15518190Y-11987619D02*
X15518190Y-10971619D01*
X15421428Y-11116761D01*
X15324666Y-11213523D01*
X15227904Y-11261904D01*
X16679333Y-11310285D02*
X16679333Y-11987619D01*
X16437428Y-10923238D02*
X16195523Y-11648952D01*
X16824476Y-11648952D01*
%TO.C,U4*%
X9131904Y-14683619D02*
X9131904Y-15506095D01*
X9180285Y-15602857D01*
X9228666Y-15651238D01*
X9325428Y-15699619D01*
X9518952Y-15699619D01*
X9615714Y-15651238D01*
X9664095Y-15602857D01*
X9712476Y-15506095D01*
X9712476Y-14683619D01*
X10631714Y-15022285D02*
X10631714Y-15699619D01*
X10389809Y-14635238D02*
X10147904Y-15360952D01*
X10776857Y-15360952D01*
%TO.C,C63*%
X2394857Y-14877142D02*
X2443238Y-14925523D01*
X2491619Y-15070666D01*
X2491619Y-15167428D01*
X2443238Y-15312571D01*
X2346476Y-15409333D01*
X2249714Y-15457714D01*
X2056190Y-15506095D01*
X1911047Y-15506095D01*
X1717523Y-15457714D01*
X1620761Y-15409333D01*
X1524000Y-15312571D01*
X1475619Y-15167428D01*
X1475619Y-15070666D01*
X1524000Y-14925523D01*
X1572380Y-14877142D01*
X1475619Y-14006285D02*
X1475619Y-14199809D01*
X1524000Y-14296571D01*
X1572380Y-14344952D01*
X1717523Y-14441714D01*
X1911047Y-14490095D01*
X2298095Y-14490095D01*
X2394857Y-14441714D01*
X2443238Y-14393333D01*
X2491619Y-14296571D01*
X2491619Y-14103047D01*
X2443238Y-14006285D01*
X2394857Y-13957904D01*
X2298095Y-13909523D01*
X2056190Y-13909523D01*
X1959428Y-13957904D01*
X1911047Y-14006285D01*
X1862666Y-14103047D01*
X1862666Y-14296571D01*
X1911047Y-14393333D01*
X1959428Y-14441714D01*
X2056190Y-14490095D01*
X1475619Y-13570857D02*
X1475619Y-12941904D01*
X1862666Y-13280571D01*
X1862666Y-13135428D01*
X1911047Y-13038666D01*
X1959428Y-12990285D01*
X2056190Y-12941904D01*
X2298095Y-12941904D01*
X2394857Y-12990285D01*
X2443238Y-13038666D01*
X2491619Y-13135428D01*
X2491619Y-13425714D01*
X2443238Y-13522476D01*
X2394857Y-13570857D01*
%TO.C,R32*%
X-556381Y-30625142D02*
X-1040191Y-30963809D01*
X-556381Y-31205714D02*
X-1572381Y-31205714D01*
X-1572381Y-30818666D01*
X-1524000Y-30721904D01*
X-1475620Y-30673523D01*
X-1378858Y-30625142D01*
X-1233715Y-30625142D01*
X-1136953Y-30673523D01*
X-1088572Y-30721904D01*
X-1040191Y-30818666D01*
X-1040191Y-31205714D01*
X-1572381Y-30286476D02*
X-1572381Y-29657523D01*
X-1185334Y-29996190D01*
X-1185334Y-29851047D01*
X-1136953Y-29754285D01*
X-1088572Y-29705904D01*
X-991810Y-29657523D01*
X-749905Y-29657523D01*
X-653143Y-29705904D01*
X-604762Y-29754285D01*
X-556381Y-29851047D01*
X-556381Y-30141333D01*
X-604762Y-30238095D01*
X-653143Y-30286476D01*
X-1475620Y-29270476D02*
X-1524000Y-29222095D01*
X-1572381Y-29125333D01*
X-1572381Y-28883428D01*
X-1524000Y-28786666D01*
X-1475620Y-28738285D01*
X-1378858Y-28689904D01*
X-1282096Y-28689904D01*
X-1136953Y-28738285D01*
X-556381Y-29318857D01*
X-556381Y-28689904D01*
%TO.C,R4*%
X23827619Y-29633333D02*
X23343809Y-29972000D01*
X23827619Y-30213904D02*
X22811619Y-30213904D01*
X22811619Y-29826857D01*
X22860000Y-29730095D01*
X22908380Y-29681714D01*
X23005142Y-29633333D01*
X23150285Y-29633333D01*
X23247047Y-29681714D01*
X23295428Y-29730095D01*
X23343809Y-29826857D01*
X23343809Y-30213904D01*
X23150285Y-28762476D02*
X23827619Y-28762476D01*
X22763238Y-29004380D02*
X23488952Y-29246285D01*
X23488952Y-28617333D01*
%TO.C,C1*%
X44812857Y-27347333D02*
X44861238Y-27395714D01*
X44909619Y-27540857D01*
X44909619Y-27637619D01*
X44861238Y-27782761D01*
X44764476Y-27879523D01*
X44667714Y-27927904D01*
X44474190Y-27976285D01*
X44329047Y-27976285D01*
X44135523Y-27927904D01*
X44038761Y-27879523D01*
X43942000Y-27782761D01*
X43893619Y-27637619D01*
X43893619Y-27540857D01*
X43942000Y-27395714D01*
X43990380Y-27347333D01*
X44909619Y-26379714D02*
X44909619Y-26960285D01*
X44909619Y-26670000D02*
X43893619Y-26670000D01*
X44038761Y-26766761D01*
X44135523Y-26863523D01*
X44183904Y-26960285D01*
%TO.C,C29*%
X32366857Y-27069142D02*
X32415238Y-27117523D01*
X32463619Y-27262666D01*
X32463619Y-27359428D01*
X32415238Y-27504571D01*
X32318476Y-27601333D01*
X32221714Y-27649714D01*
X32028190Y-27698095D01*
X31883047Y-27698095D01*
X31689523Y-27649714D01*
X31592761Y-27601333D01*
X31496000Y-27504571D01*
X31447619Y-27359428D01*
X31447619Y-27262666D01*
X31496000Y-27117523D01*
X31544380Y-27069142D01*
X31544380Y-26682095D02*
X31496000Y-26633714D01*
X31447619Y-26536952D01*
X31447619Y-26295047D01*
X31496000Y-26198285D01*
X31544380Y-26149904D01*
X31641142Y-26101523D01*
X31737904Y-26101523D01*
X31883047Y-26149904D01*
X32463619Y-26730476D01*
X32463619Y-26101523D01*
X32463619Y-25617714D02*
X32463619Y-25424190D01*
X32415238Y-25327428D01*
X32366857Y-25279047D01*
X32221714Y-25182285D01*
X32028190Y-25133904D01*
X31641142Y-25133904D01*
X31544380Y-25182285D01*
X31496000Y-25230666D01*
X31447619Y-25327428D01*
X31447619Y-25520952D01*
X31496000Y-25617714D01*
X31544380Y-25666095D01*
X31641142Y-25714476D01*
X31883047Y-25714476D01*
X31979809Y-25666095D01*
X32028190Y-25617714D01*
X32076571Y-25520952D01*
X32076571Y-25327428D01*
X32028190Y-25230666D01*
X31979809Y-25182285D01*
X31883047Y-25133904D01*
%TO.C,C42*%
X23730857Y-11067142D02*
X23779238Y-11115523D01*
X23827619Y-11260666D01*
X23827619Y-11357428D01*
X23779238Y-11502571D01*
X23682476Y-11599333D01*
X23585714Y-11647714D01*
X23392190Y-11696095D01*
X23247047Y-11696095D01*
X23053523Y-11647714D01*
X22956761Y-11599333D01*
X22860000Y-11502571D01*
X22811619Y-11357428D01*
X22811619Y-11260666D01*
X22860000Y-11115523D01*
X22908380Y-11067142D01*
X23150285Y-10196285D02*
X23827619Y-10196285D01*
X22763238Y-10438190D02*
X23488952Y-10680095D01*
X23488952Y-10051142D01*
X22908380Y-9712476D02*
X22860000Y-9664095D01*
X22811619Y-9567333D01*
X22811619Y-9325428D01*
X22860000Y-9228666D01*
X22908380Y-9180285D01*
X23005142Y-9131904D01*
X23101904Y-9131904D01*
X23247047Y-9180285D01*
X23827619Y-9760857D01*
X23827619Y-9131904D01*
%TO.C,C11*%
X43034857Y-14912857D02*
X42986476Y-14961238D01*
X42841333Y-15009619D01*
X42744571Y-15009619D01*
X42599428Y-14961238D01*
X42502666Y-14864476D01*
X42454285Y-14767714D01*
X42405904Y-14574190D01*
X42405904Y-14429047D01*
X42454285Y-14235523D01*
X42502666Y-14138761D01*
X42599428Y-14042000D01*
X42744571Y-13993619D01*
X42841333Y-13993619D01*
X42986476Y-14042000D01*
X43034857Y-14090380D01*
X44002476Y-15009619D02*
X43421904Y-15009619D01*
X43712190Y-15009619D02*
X43712190Y-13993619D01*
X43615428Y-14138761D01*
X43518666Y-14235523D01*
X43421904Y-14283904D01*
X44970095Y-15009619D02*
X44389523Y-15009619D01*
X44679809Y-15009619D02*
X44679809Y-13993619D01*
X44583047Y-14138761D01*
X44486285Y-14235523D01*
X44389523Y-14283904D01*
%TO.C,C12*%
X43796857Y-25326857D02*
X43748476Y-25375238D01*
X43603333Y-25423619D01*
X43506571Y-25423619D01*
X43361428Y-25375238D01*
X43264666Y-25278476D01*
X43216285Y-25181714D01*
X43167904Y-24988190D01*
X43167904Y-24843047D01*
X43216285Y-24649523D01*
X43264666Y-24552761D01*
X43361428Y-24456000D01*
X43506571Y-24407619D01*
X43603333Y-24407619D01*
X43748476Y-24456000D01*
X43796857Y-24504380D01*
X44764476Y-25423619D02*
X44183904Y-25423619D01*
X44474190Y-25423619D02*
X44474190Y-24407619D01*
X44377428Y-24552761D01*
X44280666Y-24649523D01*
X44183904Y-24697904D01*
X45151523Y-24504380D02*
X45199904Y-24456000D01*
X45296666Y-24407619D01*
X45538571Y-24407619D01*
X45635333Y-24456000D01*
X45683714Y-24504380D01*
X45732095Y-24601142D01*
X45732095Y-24697904D01*
X45683714Y-24843047D01*
X45103142Y-25423619D01*
X45732095Y-25423619D01*
%TO.C,R24*%
X35765619Y-27085884D02*
X35281809Y-27424551D01*
X35765619Y-27666456D02*
X34749619Y-27666456D01*
X34749619Y-27279408D01*
X34798000Y-27182646D01*
X34846380Y-27134265D01*
X34943142Y-27085884D01*
X35088285Y-27085884D01*
X35185047Y-27134265D01*
X35233428Y-27182646D01*
X35281809Y-27279408D01*
X35281809Y-27666456D01*
X34846380Y-26698837D02*
X34798000Y-26650456D01*
X34749619Y-26553694D01*
X34749619Y-26311789D01*
X34798000Y-26215027D01*
X34846380Y-26166646D01*
X34943142Y-26118265D01*
X35039904Y-26118265D01*
X35185047Y-26166646D01*
X35765619Y-26747218D01*
X35765619Y-26118265D01*
X35088285Y-25247408D02*
X35765619Y-25247408D01*
X34701238Y-25489313D02*
X35426952Y-25731218D01*
X35426952Y-25102265D01*
%TO.C,J2*%
X-2116667Y-2999619D02*
X-2116667Y-3725333D01*
X-2165048Y-3870476D01*
X-2261810Y-3967238D01*
X-2406953Y-4015619D01*
X-2503715Y-4015619D01*
X-1681239Y-3096380D02*
X-1632858Y-3048000D01*
X-1536096Y-2999619D01*
X-1294191Y-2999619D01*
X-1197429Y-3048000D01*
X-1149048Y-3096380D01*
X-1100667Y-3193142D01*
X-1100667Y-3289904D01*
X-1149048Y-3435047D01*
X-1729620Y-4015619D01*
X-1100667Y-4015619D01*
%TO.C,R30*%
X13921619Y-22497142D02*
X13437809Y-22835809D01*
X13921619Y-23077714D02*
X12905619Y-23077714D01*
X12905619Y-22690666D01*
X12954000Y-22593904D01*
X13002380Y-22545523D01*
X13099142Y-22497142D01*
X13244285Y-22497142D01*
X13341047Y-22545523D01*
X13389428Y-22593904D01*
X13437809Y-22690666D01*
X13437809Y-23077714D01*
X12905619Y-22158476D02*
X12905619Y-21529523D01*
X13292666Y-21868190D01*
X13292666Y-21723047D01*
X13341047Y-21626285D01*
X13389428Y-21577904D01*
X13486190Y-21529523D01*
X13728095Y-21529523D01*
X13824857Y-21577904D01*
X13873238Y-21626285D01*
X13921619Y-21723047D01*
X13921619Y-22013333D01*
X13873238Y-22110095D01*
X13824857Y-22158476D01*
X12905619Y-20900571D02*
X12905619Y-20803809D01*
X12954000Y-20707047D01*
X13002380Y-20658666D01*
X13099142Y-20610285D01*
X13292666Y-20561904D01*
X13534571Y-20561904D01*
X13728095Y-20610285D01*
X13824857Y-20658666D01*
X13873238Y-20707047D01*
X13921619Y-20803809D01*
X13921619Y-20900571D01*
X13873238Y-20997333D01*
X13824857Y-21045714D01*
X13728095Y-21094095D01*
X13534571Y-21142476D01*
X13292666Y-21142476D01*
X13099142Y-21094095D01*
X13002380Y-21045714D01*
X12954000Y-20997333D01*
X12905619Y-20900571D01*
%TO.C,C32*%
X33890857Y-20174857D02*
X33842476Y-20223238D01*
X33697333Y-20271619D01*
X33600571Y-20271619D01*
X33455428Y-20223238D01*
X33358666Y-20126476D01*
X33310285Y-20029714D01*
X33261904Y-19836190D01*
X33261904Y-19691047D01*
X33310285Y-19497523D01*
X33358666Y-19400761D01*
X33455428Y-19304000D01*
X33600571Y-19255619D01*
X33697333Y-19255619D01*
X33842476Y-19304000D01*
X33890857Y-19352380D01*
X34229523Y-19255619D02*
X34858476Y-19255619D01*
X34519809Y-19642666D01*
X34664952Y-19642666D01*
X34761714Y-19691047D01*
X34810095Y-19739428D01*
X34858476Y-19836190D01*
X34858476Y-20078095D01*
X34810095Y-20174857D01*
X34761714Y-20223238D01*
X34664952Y-20271619D01*
X34374666Y-20271619D01*
X34277904Y-20223238D01*
X34229523Y-20174857D01*
X35245523Y-19352380D02*
X35293904Y-19304000D01*
X35390666Y-19255619D01*
X35632571Y-19255619D01*
X35729333Y-19304000D01*
X35777714Y-19352380D01*
X35826095Y-19449142D01*
X35826095Y-19545904D01*
X35777714Y-19691047D01*
X35197142Y-20271619D01*
X35826095Y-20271619D01*
%TO.C,C22*%
X23476857Y-27069142D02*
X23525238Y-27117523D01*
X23573619Y-27262666D01*
X23573619Y-27359428D01*
X23525238Y-27504571D01*
X23428476Y-27601333D01*
X23331714Y-27649714D01*
X23138190Y-27698095D01*
X22993047Y-27698095D01*
X22799523Y-27649714D01*
X22702761Y-27601333D01*
X22606000Y-27504571D01*
X22557619Y-27359428D01*
X22557619Y-27262666D01*
X22606000Y-27117523D01*
X22654380Y-27069142D01*
X22654380Y-26682095D02*
X22606000Y-26633714D01*
X22557619Y-26536952D01*
X22557619Y-26295047D01*
X22606000Y-26198285D01*
X22654380Y-26149904D01*
X22751142Y-26101523D01*
X22847904Y-26101523D01*
X22993047Y-26149904D01*
X23573619Y-26730476D01*
X23573619Y-26101523D01*
X22654380Y-25714476D02*
X22606000Y-25666095D01*
X22557619Y-25569333D01*
X22557619Y-25327428D01*
X22606000Y-25230666D01*
X22654380Y-25182285D01*
X22751142Y-25133904D01*
X22847904Y-25133904D01*
X22993047Y-25182285D01*
X23573619Y-25762857D01*
X23573619Y-25133904D01*
%TO.C,C49*%
X5442857Y-4426857D02*
X5394476Y-4475238D01*
X5249333Y-4523619D01*
X5152571Y-4523619D01*
X5007428Y-4475238D01*
X4910666Y-4378476D01*
X4862285Y-4281714D01*
X4813904Y-4088190D01*
X4813904Y-3943047D01*
X4862285Y-3749523D01*
X4910666Y-3652761D01*
X5007428Y-3556000D01*
X5152571Y-3507619D01*
X5249333Y-3507619D01*
X5394476Y-3556000D01*
X5442857Y-3604380D01*
X6313714Y-3846285D02*
X6313714Y-4523619D01*
X6071809Y-3459238D02*
X5829904Y-4184952D01*
X6458857Y-4184952D01*
X6894285Y-4523619D02*
X7087809Y-4523619D01*
X7184571Y-4475238D01*
X7232952Y-4426857D01*
X7329714Y-4281714D01*
X7378095Y-4088190D01*
X7378095Y-3701142D01*
X7329714Y-3604380D01*
X7281333Y-3556000D01*
X7184571Y-3507619D01*
X6991047Y-3507619D01*
X6894285Y-3556000D01*
X6845904Y-3604380D01*
X6797523Y-3701142D01*
X6797523Y-3943047D01*
X6845904Y-4039809D01*
X6894285Y-4088190D01*
X6991047Y-4136571D01*
X7184571Y-4136571D01*
X7281333Y-4088190D01*
X7329714Y-4039809D01*
X7378095Y-3943047D01*
%TO.C,C53*%
X11538857Y-35160857D02*
X11490476Y-35209238D01*
X11345333Y-35257619D01*
X11248571Y-35257619D01*
X11103428Y-35209238D01*
X11006666Y-35112476D01*
X10958285Y-35015714D01*
X10909904Y-34822190D01*
X10909904Y-34677047D01*
X10958285Y-34483523D01*
X11006666Y-34386761D01*
X11103428Y-34290000D01*
X11248571Y-34241619D01*
X11345333Y-34241619D01*
X11490476Y-34290000D01*
X11538857Y-34338380D01*
X12458095Y-34241619D02*
X11974285Y-34241619D01*
X11925904Y-34725428D01*
X11974285Y-34677047D01*
X12071047Y-34628666D01*
X12312952Y-34628666D01*
X12409714Y-34677047D01*
X12458095Y-34725428D01*
X12506476Y-34822190D01*
X12506476Y-35064095D01*
X12458095Y-35160857D01*
X12409714Y-35209238D01*
X12312952Y-35257619D01*
X12071047Y-35257619D01*
X11974285Y-35209238D01*
X11925904Y-35160857D01*
X12845142Y-34241619D02*
X13474095Y-34241619D01*
X13135428Y-34628666D01*
X13280571Y-34628666D01*
X13377333Y-34677047D01*
X13425714Y-34725428D01*
X13474095Y-34822190D01*
X13474095Y-35064095D01*
X13425714Y-35160857D01*
X13377333Y-35209238D01*
X13280571Y-35257619D01*
X12990285Y-35257619D01*
X12893523Y-35209238D01*
X12845142Y-35160857D01*
%TO.C,C16*%
X17634857Y-19920857D02*
X17586476Y-19969238D01*
X17441333Y-20017619D01*
X17344571Y-20017619D01*
X17199428Y-19969238D01*
X17102666Y-19872476D01*
X17054285Y-19775714D01*
X17005904Y-19582190D01*
X17005904Y-19437047D01*
X17054285Y-19243523D01*
X17102666Y-19146761D01*
X17199428Y-19050000D01*
X17344571Y-19001619D01*
X17441333Y-19001619D01*
X17586476Y-19050000D01*
X17634857Y-19098380D01*
X18602476Y-20017619D02*
X18021904Y-20017619D01*
X18312190Y-20017619D02*
X18312190Y-19001619D01*
X18215428Y-19146761D01*
X18118666Y-19243523D01*
X18021904Y-19291904D01*
X19473333Y-19001619D02*
X19279809Y-19001619D01*
X19183047Y-19050000D01*
X19134666Y-19098380D01*
X19037904Y-19243523D01*
X18989523Y-19437047D01*
X18989523Y-19824095D01*
X19037904Y-19920857D01*
X19086285Y-19969238D01*
X19183047Y-20017619D01*
X19376571Y-20017619D01*
X19473333Y-19969238D01*
X19521714Y-19920857D01*
X19570095Y-19824095D01*
X19570095Y-19582190D01*
X19521714Y-19485428D01*
X19473333Y-19437047D01*
X19376571Y-19388666D01*
X19183047Y-19388666D01*
X19086285Y-19437047D01*
X19037904Y-19485428D01*
X18989523Y-19582190D01*
%TO.C,C61*%
X4172857Y-29355142D02*
X4221238Y-29403523D01*
X4269619Y-29548666D01*
X4269619Y-29645428D01*
X4221238Y-29790571D01*
X4124476Y-29887333D01*
X4027714Y-29935714D01*
X3834190Y-29984095D01*
X3689047Y-29984095D01*
X3495523Y-29935714D01*
X3398761Y-29887333D01*
X3302000Y-29790571D01*
X3253619Y-29645428D01*
X3253619Y-29548666D01*
X3302000Y-29403523D01*
X3350380Y-29355142D01*
X3253619Y-28484285D02*
X3253619Y-28677809D01*
X3302000Y-28774571D01*
X3350380Y-28822952D01*
X3495523Y-28919714D01*
X3689047Y-28968095D01*
X4076095Y-28968095D01*
X4172857Y-28919714D01*
X4221238Y-28871333D01*
X4269619Y-28774571D01*
X4269619Y-28581047D01*
X4221238Y-28484285D01*
X4172857Y-28435904D01*
X4076095Y-28387523D01*
X3834190Y-28387523D01*
X3737428Y-28435904D01*
X3689047Y-28484285D01*
X3640666Y-28581047D01*
X3640666Y-28774571D01*
X3689047Y-28871333D01*
X3737428Y-28919714D01*
X3834190Y-28968095D01*
X4269619Y-27419904D02*
X4269619Y-28000476D01*
X4269619Y-27710190D02*
X3253619Y-27710190D01*
X3398761Y-27806952D01*
X3495523Y-27903714D01*
X3543904Y-28000476D01*
%TO.C,C20*%
X17634857Y-25000857D02*
X17586476Y-25049238D01*
X17441333Y-25097619D01*
X17344571Y-25097619D01*
X17199428Y-25049238D01*
X17102666Y-24952476D01*
X17054285Y-24855714D01*
X17005904Y-24662190D01*
X17005904Y-24517047D01*
X17054285Y-24323523D01*
X17102666Y-24226761D01*
X17199428Y-24130000D01*
X17344571Y-24081619D01*
X17441333Y-24081619D01*
X17586476Y-24130000D01*
X17634857Y-24178380D01*
X18021904Y-24178380D02*
X18070285Y-24130000D01*
X18167047Y-24081619D01*
X18408952Y-24081619D01*
X18505714Y-24130000D01*
X18554095Y-24178380D01*
X18602476Y-24275142D01*
X18602476Y-24371904D01*
X18554095Y-24517047D01*
X17973523Y-25097619D01*
X18602476Y-25097619D01*
X19231428Y-24081619D02*
X19328190Y-24081619D01*
X19424952Y-24130000D01*
X19473333Y-24178380D01*
X19521714Y-24275142D01*
X19570095Y-24468666D01*
X19570095Y-24710571D01*
X19521714Y-24904095D01*
X19473333Y-25000857D01*
X19424952Y-25049238D01*
X19328190Y-25097619D01*
X19231428Y-25097619D01*
X19134666Y-25049238D01*
X19086285Y-25000857D01*
X19037904Y-24904095D01*
X18989523Y-24710571D01*
X18989523Y-24468666D01*
X19037904Y-24275142D01*
X19086285Y-24178380D01*
X19134666Y-24130000D01*
X19231428Y-24081619D01*
%TO.C,L3*%
X1608666Y-16969619D02*
X1124857Y-16969619D01*
X1124857Y-15953619D01*
X1850571Y-15953619D02*
X2479523Y-15953619D01*
X2140857Y-16340666D01*
X2286000Y-16340666D01*
X2382761Y-16389047D01*
X2431142Y-16437428D01*
X2479523Y-16534190D01*
X2479523Y-16776095D01*
X2431142Y-16872857D01*
X2382761Y-16921238D01*
X2286000Y-16969619D01*
X1995714Y-16969619D01*
X1898952Y-16921238D01*
X1850571Y-16872857D01*
%TO.C,C27*%
X29826857Y-27069142D02*
X29875238Y-27117523D01*
X29923619Y-27262666D01*
X29923619Y-27359428D01*
X29875238Y-27504571D01*
X29778476Y-27601333D01*
X29681714Y-27649714D01*
X29488190Y-27698095D01*
X29343047Y-27698095D01*
X29149523Y-27649714D01*
X29052761Y-27601333D01*
X28956000Y-27504571D01*
X28907619Y-27359428D01*
X28907619Y-27262666D01*
X28956000Y-27117523D01*
X29004380Y-27069142D01*
X29004380Y-26682095D02*
X28956000Y-26633714D01*
X28907619Y-26536952D01*
X28907619Y-26295047D01*
X28956000Y-26198285D01*
X29004380Y-26149904D01*
X29101142Y-26101523D01*
X29197904Y-26101523D01*
X29343047Y-26149904D01*
X29923619Y-26730476D01*
X29923619Y-26101523D01*
X28907619Y-25762857D02*
X28907619Y-25085523D01*
X29923619Y-25520952D01*
%TO.C,R13*%
X40591619Y-11829142D02*
X40107809Y-12167809D01*
X40591619Y-12409714D02*
X39575619Y-12409714D01*
X39575619Y-12022666D01*
X39624000Y-11925904D01*
X39672380Y-11877523D01*
X39769142Y-11829142D01*
X39914285Y-11829142D01*
X40011047Y-11877523D01*
X40059428Y-11925904D01*
X40107809Y-12022666D01*
X40107809Y-12409714D01*
X40591619Y-10861523D02*
X40591619Y-11442095D01*
X40591619Y-11151809D02*
X39575619Y-11151809D01*
X39720761Y-11248571D01*
X39817523Y-11345333D01*
X39865904Y-11442095D01*
X39575619Y-10522857D02*
X39575619Y-9893904D01*
X39962666Y-10232571D01*
X39962666Y-10087428D01*
X40011047Y-9990666D01*
X40059428Y-9942285D01*
X40156190Y-9893904D01*
X40398095Y-9893904D01*
X40494857Y-9942285D01*
X40543238Y-9990666D01*
X40591619Y-10087428D01*
X40591619Y-10377714D01*
X40543238Y-10474476D01*
X40494857Y-10522857D01*
%TO.C,R27*%
X7982857Y-29161619D02*
X7644190Y-28677809D01*
X7402285Y-29161619D02*
X7402285Y-28145619D01*
X7789333Y-28145619D01*
X7886095Y-28194000D01*
X7934476Y-28242380D01*
X7982857Y-28339142D01*
X7982857Y-28484285D01*
X7934476Y-28581047D01*
X7886095Y-28629428D01*
X7789333Y-28677809D01*
X7402285Y-28677809D01*
X8369904Y-28242380D02*
X8418285Y-28194000D01*
X8515047Y-28145619D01*
X8756952Y-28145619D01*
X8853714Y-28194000D01*
X8902095Y-28242380D01*
X8950476Y-28339142D01*
X8950476Y-28435904D01*
X8902095Y-28581047D01*
X8321523Y-29161619D01*
X8950476Y-29161619D01*
X9289142Y-28145619D02*
X9966476Y-28145619D01*
X9531047Y-29161619D01*
%TO.C,C17*%
X17634857Y-21190857D02*
X17586476Y-21239238D01*
X17441333Y-21287619D01*
X17344571Y-21287619D01*
X17199428Y-21239238D01*
X17102666Y-21142476D01*
X17054285Y-21045714D01*
X17005904Y-20852190D01*
X17005904Y-20707047D01*
X17054285Y-20513523D01*
X17102666Y-20416761D01*
X17199428Y-20320000D01*
X17344571Y-20271619D01*
X17441333Y-20271619D01*
X17586476Y-20320000D01*
X17634857Y-20368380D01*
X18602476Y-21287619D02*
X18021904Y-21287619D01*
X18312190Y-21287619D02*
X18312190Y-20271619D01*
X18215428Y-20416761D01*
X18118666Y-20513523D01*
X18021904Y-20561904D01*
X18941142Y-20271619D02*
X19618476Y-20271619D01*
X19183047Y-21287619D01*
%TO.C,R28*%
X-2080381Y-15131142D02*
X-2564191Y-15469809D01*
X-2080381Y-15711714D02*
X-3096381Y-15711714D01*
X-3096381Y-15324666D01*
X-3048000Y-15227904D01*
X-2999620Y-15179523D01*
X-2902858Y-15131142D01*
X-2757715Y-15131142D01*
X-2660953Y-15179523D01*
X-2612572Y-15227904D01*
X-2564191Y-15324666D01*
X-2564191Y-15711714D01*
X-2999620Y-14744095D02*
X-3048000Y-14695714D01*
X-3096381Y-14598952D01*
X-3096381Y-14357047D01*
X-3048000Y-14260285D01*
X-2999620Y-14211904D01*
X-2902858Y-14163523D01*
X-2806096Y-14163523D01*
X-2660953Y-14211904D01*
X-2080381Y-14792476D01*
X-2080381Y-14163523D01*
X-2660953Y-13582952D02*
X-2709334Y-13679714D01*
X-2757715Y-13728095D01*
X-2854477Y-13776476D01*
X-2902858Y-13776476D01*
X-2999620Y-13728095D01*
X-3048000Y-13679714D01*
X-3096381Y-13582952D01*
X-3096381Y-13389428D01*
X-3048000Y-13292666D01*
X-2999620Y-13244285D01*
X-2902858Y-13195904D01*
X-2854477Y-13195904D01*
X-2757715Y-13244285D01*
X-2709334Y-13292666D01*
X-2660953Y-13389428D01*
X-2660953Y-13582952D01*
X-2612572Y-13679714D01*
X-2564191Y-13728095D01*
X-2467429Y-13776476D01*
X-2273905Y-13776476D01*
X-2177143Y-13728095D01*
X-2128762Y-13679714D01*
X-2080381Y-13582952D01*
X-2080381Y-13389428D01*
X-2128762Y-13292666D01*
X-2177143Y-13244285D01*
X-2273905Y-13195904D01*
X-2467429Y-13195904D01*
X-2564191Y-13244285D01*
X-2612572Y-13292666D01*
X-2660953Y-13389428D01*
%TO.C,C50*%
X48622857Y-7474857D02*
X48574476Y-7523238D01*
X48429333Y-7571619D01*
X48332571Y-7571619D01*
X48187428Y-7523238D01*
X48090666Y-7426476D01*
X48042285Y-7329714D01*
X47993904Y-7136190D01*
X47993904Y-6991047D01*
X48042285Y-6797523D01*
X48090666Y-6700761D01*
X48187428Y-6604000D01*
X48332571Y-6555619D01*
X48429333Y-6555619D01*
X48574476Y-6604000D01*
X48622857Y-6652380D01*
X49542095Y-6555619D02*
X49058285Y-6555619D01*
X49009904Y-7039428D01*
X49058285Y-6991047D01*
X49155047Y-6942666D01*
X49396952Y-6942666D01*
X49493714Y-6991047D01*
X49542095Y-7039428D01*
X49590476Y-7136190D01*
X49590476Y-7378095D01*
X49542095Y-7474857D01*
X49493714Y-7523238D01*
X49396952Y-7571619D01*
X49155047Y-7571619D01*
X49058285Y-7523238D01*
X49009904Y-7474857D01*
X50219428Y-6555619D02*
X50316190Y-6555619D01*
X50412952Y-6604000D01*
X50461333Y-6652380D01*
X50509714Y-6749142D01*
X50558095Y-6942666D01*
X50558095Y-7184571D01*
X50509714Y-7378095D01*
X50461333Y-7474857D01*
X50412952Y-7523238D01*
X50316190Y-7571619D01*
X50219428Y-7571619D01*
X50122666Y-7523238D01*
X50074285Y-7474857D01*
X50025904Y-7378095D01*
X49977523Y-7184571D01*
X49977523Y-6942666D01*
X50025904Y-6749142D01*
X50074285Y-6652380D01*
X50122666Y-6604000D01*
X50219428Y-6555619D01*
%TO.C,C30*%
X33890857Y-22714857D02*
X33842476Y-22763238D01*
X33697333Y-22811619D01*
X33600571Y-22811619D01*
X33455428Y-22763238D01*
X33358666Y-22666476D01*
X33310285Y-22569714D01*
X33261904Y-22376190D01*
X33261904Y-22231047D01*
X33310285Y-22037523D01*
X33358666Y-21940761D01*
X33455428Y-21844000D01*
X33600571Y-21795619D01*
X33697333Y-21795619D01*
X33842476Y-21844000D01*
X33890857Y-21892380D01*
X34229523Y-21795619D02*
X34858476Y-21795619D01*
X34519809Y-22182666D01*
X34664952Y-22182666D01*
X34761714Y-22231047D01*
X34810095Y-22279428D01*
X34858476Y-22376190D01*
X34858476Y-22618095D01*
X34810095Y-22714857D01*
X34761714Y-22763238D01*
X34664952Y-22811619D01*
X34374666Y-22811619D01*
X34277904Y-22763238D01*
X34229523Y-22714857D01*
X35487428Y-21795619D02*
X35584190Y-21795619D01*
X35680952Y-21844000D01*
X35729333Y-21892380D01*
X35777714Y-21989142D01*
X35826095Y-22182666D01*
X35826095Y-22424571D01*
X35777714Y-22618095D01*
X35729333Y-22714857D01*
X35680952Y-22763238D01*
X35584190Y-22811619D01*
X35487428Y-22811619D01*
X35390666Y-22763238D01*
X35342285Y-22714857D01*
X35293904Y-22618095D01*
X35245523Y-22424571D01*
X35245523Y-22182666D01*
X35293904Y-21989142D01*
X35342285Y-21892380D01*
X35390666Y-21844000D01*
X35487428Y-21795619D01*
%TO.C,R31*%
X10365619Y-22751142D02*
X9881809Y-23089809D01*
X10365619Y-23331714D02*
X9349619Y-23331714D01*
X9349619Y-22944666D01*
X9398000Y-22847904D01*
X9446380Y-22799523D01*
X9543142Y-22751142D01*
X9688285Y-22751142D01*
X9785047Y-22799523D01*
X9833428Y-22847904D01*
X9881809Y-22944666D01*
X9881809Y-23331714D01*
X9349619Y-22412476D02*
X9349619Y-21783523D01*
X9736666Y-22122190D01*
X9736666Y-21977047D01*
X9785047Y-21880285D01*
X9833428Y-21831904D01*
X9930190Y-21783523D01*
X10172095Y-21783523D01*
X10268857Y-21831904D01*
X10317238Y-21880285D01*
X10365619Y-21977047D01*
X10365619Y-22267333D01*
X10317238Y-22364095D01*
X10268857Y-22412476D01*
X10365619Y-20815904D02*
X10365619Y-21396476D01*
X10365619Y-21106190D02*
X9349619Y-21106190D01*
X9494761Y-21202952D01*
X9591523Y-21299714D01*
X9639904Y-21396476D01*
%TO.C,C43*%
X22460857Y-11067142D02*
X22509238Y-11115523D01*
X22557619Y-11260666D01*
X22557619Y-11357428D01*
X22509238Y-11502571D01*
X22412476Y-11599333D01*
X22315714Y-11647714D01*
X22122190Y-11696095D01*
X21977047Y-11696095D01*
X21783523Y-11647714D01*
X21686761Y-11599333D01*
X21590000Y-11502571D01*
X21541619Y-11357428D01*
X21541619Y-11260666D01*
X21590000Y-11115523D01*
X21638380Y-11067142D01*
X21880285Y-10196285D02*
X22557619Y-10196285D01*
X21493238Y-10438190D02*
X22218952Y-10680095D01*
X22218952Y-10051142D01*
X21541619Y-9760857D02*
X21541619Y-9131904D01*
X21928666Y-9470571D01*
X21928666Y-9325428D01*
X21977047Y-9228666D01*
X22025428Y-9180285D01*
X22122190Y-9131904D01*
X22364095Y-9131904D01*
X22460857Y-9180285D01*
X22509238Y-9228666D01*
X22557619Y-9325428D01*
X22557619Y-9615714D01*
X22509238Y-9712476D01*
X22460857Y-9760857D01*
%TO.C,C52*%
X8236857Y-35160857D02*
X8188476Y-35209238D01*
X8043333Y-35257619D01*
X7946571Y-35257619D01*
X7801428Y-35209238D01*
X7704666Y-35112476D01*
X7656285Y-35015714D01*
X7607904Y-34822190D01*
X7607904Y-34677047D01*
X7656285Y-34483523D01*
X7704666Y-34386761D01*
X7801428Y-34290000D01*
X7946571Y-34241619D01*
X8043333Y-34241619D01*
X8188476Y-34290000D01*
X8236857Y-34338380D01*
X9156095Y-34241619D02*
X8672285Y-34241619D01*
X8623904Y-34725428D01*
X8672285Y-34677047D01*
X8769047Y-34628666D01*
X9010952Y-34628666D01*
X9107714Y-34677047D01*
X9156095Y-34725428D01*
X9204476Y-34822190D01*
X9204476Y-35064095D01*
X9156095Y-35160857D01*
X9107714Y-35209238D01*
X9010952Y-35257619D01*
X8769047Y-35257619D01*
X8672285Y-35209238D01*
X8623904Y-35160857D01*
X9591523Y-34338380D02*
X9639904Y-34290000D01*
X9736666Y-34241619D01*
X9978571Y-34241619D01*
X10075333Y-34290000D01*
X10123714Y-34338380D01*
X10172095Y-34435142D01*
X10172095Y-34531904D01*
X10123714Y-34677047D01*
X9543142Y-35257619D01*
X10172095Y-35257619D01*
%TO.C,C23*%
X24746857Y-27069142D02*
X24795238Y-27117523D01*
X24843619Y-27262666D01*
X24843619Y-27359428D01*
X24795238Y-27504571D01*
X24698476Y-27601333D01*
X24601714Y-27649714D01*
X24408190Y-27698095D01*
X24263047Y-27698095D01*
X24069523Y-27649714D01*
X23972761Y-27601333D01*
X23876000Y-27504571D01*
X23827619Y-27359428D01*
X23827619Y-27262666D01*
X23876000Y-27117523D01*
X23924380Y-27069142D01*
X23924380Y-26682095D02*
X23876000Y-26633714D01*
X23827619Y-26536952D01*
X23827619Y-26295047D01*
X23876000Y-26198285D01*
X23924380Y-26149904D01*
X24021142Y-26101523D01*
X24117904Y-26101523D01*
X24263047Y-26149904D01*
X24843619Y-26730476D01*
X24843619Y-26101523D01*
X23827619Y-25762857D02*
X23827619Y-25133904D01*
X24214666Y-25472571D01*
X24214666Y-25327428D01*
X24263047Y-25230666D01*
X24311428Y-25182285D01*
X24408190Y-25133904D01*
X24650095Y-25133904D01*
X24746857Y-25182285D01*
X24795238Y-25230666D01*
X24843619Y-25327428D01*
X24843619Y-25617714D01*
X24795238Y-25714476D01*
X24746857Y-25762857D01*
%TO.C,R29*%
X-556381Y-15131142D02*
X-1040191Y-15469809D01*
X-556381Y-15711714D02*
X-1572381Y-15711714D01*
X-1572381Y-15324666D01*
X-1524000Y-15227904D01*
X-1475620Y-15179523D01*
X-1378858Y-15131142D01*
X-1233715Y-15131142D01*
X-1136953Y-15179523D01*
X-1088572Y-15227904D01*
X-1040191Y-15324666D01*
X-1040191Y-15711714D01*
X-1475620Y-14744095D02*
X-1524000Y-14695714D01*
X-1572381Y-14598952D01*
X-1572381Y-14357047D01*
X-1524000Y-14260285D01*
X-1475620Y-14211904D01*
X-1378858Y-14163523D01*
X-1282096Y-14163523D01*
X-1136953Y-14211904D01*
X-556381Y-14792476D01*
X-556381Y-14163523D01*
X-556381Y-13679714D02*
X-556381Y-13486190D01*
X-604762Y-13389428D01*
X-653143Y-13341047D01*
X-798286Y-13244285D01*
X-991810Y-13195904D01*
X-1378858Y-13195904D01*
X-1475620Y-13244285D01*
X-1524000Y-13292666D01*
X-1572381Y-13389428D01*
X-1572381Y-13582952D01*
X-1524000Y-13679714D01*
X-1475620Y-13728095D01*
X-1378858Y-13776476D01*
X-1136953Y-13776476D01*
X-1040191Y-13728095D01*
X-991810Y-13679714D01*
X-943429Y-13582952D01*
X-943429Y-13389428D01*
X-991810Y-13292666D01*
X-1040191Y-13244285D01*
X-1136953Y-13195904D01*
%TO.C,C36*%
X33890857Y-15094857D02*
X33842476Y-15143238D01*
X33697333Y-15191619D01*
X33600571Y-15191619D01*
X33455428Y-15143238D01*
X33358666Y-15046476D01*
X33310285Y-14949714D01*
X33261904Y-14756190D01*
X33261904Y-14611047D01*
X33310285Y-14417523D01*
X33358666Y-14320761D01*
X33455428Y-14224000D01*
X33600571Y-14175619D01*
X33697333Y-14175619D01*
X33842476Y-14224000D01*
X33890857Y-14272380D01*
X34229523Y-14175619D02*
X34858476Y-14175619D01*
X34519809Y-14562666D01*
X34664952Y-14562666D01*
X34761714Y-14611047D01*
X34810095Y-14659428D01*
X34858476Y-14756190D01*
X34858476Y-14998095D01*
X34810095Y-15094857D01*
X34761714Y-15143238D01*
X34664952Y-15191619D01*
X34374666Y-15191619D01*
X34277904Y-15143238D01*
X34229523Y-15094857D01*
X35729333Y-14175619D02*
X35535809Y-14175619D01*
X35439047Y-14224000D01*
X35390666Y-14272380D01*
X35293904Y-14417523D01*
X35245523Y-14611047D01*
X35245523Y-14998095D01*
X35293904Y-15094857D01*
X35342285Y-15143238D01*
X35439047Y-15191619D01*
X35632571Y-15191619D01*
X35729333Y-15143238D01*
X35777714Y-15094857D01*
X35826095Y-14998095D01*
X35826095Y-14756190D01*
X35777714Y-14659428D01*
X35729333Y-14611047D01*
X35632571Y-14562666D01*
X35439047Y-14562666D01*
X35342285Y-14611047D01*
X35293904Y-14659428D01*
X35245523Y-14756190D01*
%TO.C,L2*%
X1608666Y-18493619D02*
X1124857Y-18493619D01*
X1124857Y-17477619D01*
X1898952Y-17574380D02*
X1947333Y-17526000D01*
X2044095Y-17477619D01*
X2286000Y-17477619D01*
X2382761Y-17526000D01*
X2431142Y-17574380D01*
X2479523Y-17671142D01*
X2479523Y-17767904D01*
X2431142Y-17913047D01*
X1850571Y-18493619D01*
X2479523Y-18493619D01*
%TO.C,C34*%
X33890857Y-17634857D02*
X33842476Y-17683238D01*
X33697333Y-17731619D01*
X33600571Y-17731619D01*
X33455428Y-17683238D01*
X33358666Y-17586476D01*
X33310285Y-17489714D01*
X33261904Y-17296190D01*
X33261904Y-17151047D01*
X33310285Y-16957523D01*
X33358666Y-16860761D01*
X33455428Y-16764000D01*
X33600571Y-16715619D01*
X33697333Y-16715619D01*
X33842476Y-16764000D01*
X33890857Y-16812380D01*
X34229523Y-16715619D02*
X34858476Y-16715619D01*
X34519809Y-17102666D01*
X34664952Y-17102666D01*
X34761714Y-17151047D01*
X34810095Y-17199428D01*
X34858476Y-17296190D01*
X34858476Y-17538095D01*
X34810095Y-17634857D01*
X34761714Y-17683238D01*
X34664952Y-17731619D01*
X34374666Y-17731619D01*
X34277904Y-17683238D01*
X34229523Y-17634857D01*
X35729333Y-17054285D02*
X35729333Y-17731619D01*
X35487428Y-16667238D02*
X35245523Y-17392952D01*
X35874476Y-17392952D01*
%TO.C,C15*%
X14332857Y-15856857D02*
X14284476Y-15905238D01*
X14139333Y-15953619D01*
X14042571Y-15953619D01*
X13897428Y-15905238D01*
X13800666Y-15808476D01*
X13752285Y-15711714D01*
X13703904Y-15518190D01*
X13703904Y-15373047D01*
X13752285Y-15179523D01*
X13800666Y-15082761D01*
X13897428Y-14986000D01*
X14042571Y-14937619D01*
X14139333Y-14937619D01*
X14284476Y-14986000D01*
X14332857Y-15034380D01*
X15300476Y-15953619D02*
X14719904Y-15953619D01*
X15010190Y-15953619D02*
X15010190Y-14937619D01*
X14913428Y-15082761D01*
X14816666Y-15179523D01*
X14719904Y-15227904D01*
X16219714Y-14937619D02*
X15735904Y-14937619D01*
X15687523Y-15421428D01*
X15735904Y-15373047D01*
X15832666Y-15324666D01*
X16074571Y-15324666D01*
X16171333Y-15373047D01*
X16219714Y-15421428D01*
X16268095Y-15518190D01*
X16268095Y-15760095D01*
X16219714Y-15856857D01*
X16171333Y-15905238D01*
X16074571Y-15953619D01*
X15832666Y-15953619D01*
X15735904Y-15905238D01*
X15687523Y-15856857D01*
%TO.C,C55*%
X7982857Y-31387142D02*
X8031238Y-31435523D01*
X8079619Y-31580666D01*
X8079619Y-31677428D01*
X8031238Y-31822571D01*
X7934476Y-31919333D01*
X7837714Y-31967714D01*
X7644190Y-32016095D01*
X7499047Y-32016095D01*
X7305523Y-31967714D01*
X7208761Y-31919333D01*
X7112000Y-31822571D01*
X7063619Y-31677428D01*
X7063619Y-31580666D01*
X7112000Y-31435523D01*
X7160380Y-31387142D01*
X7063619Y-30467904D02*
X7063619Y-30951714D01*
X7547428Y-31000095D01*
X7499047Y-30951714D01*
X7450666Y-30854952D01*
X7450666Y-30613047D01*
X7499047Y-30516285D01*
X7547428Y-30467904D01*
X7644190Y-30419523D01*
X7886095Y-30419523D01*
X7982857Y-30467904D01*
X8031238Y-30516285D01*
X8079619Y-30613047D01*
X8079619Y-30854952D01*
X8031238Y-30951714D01*
X7982857Y-31000095D01*
X7063619Y-29500285D02*
X7063619Y-29984095D01*
X7547428Y-30032476D01*
X7499047Y-29984095D01*
X7450666Y-29887333D01*
X7450666Y-29645428D01*
X7499047Y-29548666D01*
X7547428Y-29500285D01*
X7644190Y-29451904D01*
X7886095Y-29451904D01*
X7982857Y-29500285D01*
X8031238Y-29548666D01*
X8079619Y-29645428D01*
X8079619Y-29887333D01*
X8031238Y-29984095D01*
X7982857Y-30032476D01*
%TO.C,R26*%
X14081619Y-28339142D02*
X13597809Y-28677809D01*
X14081619Y-28919714D02*
X13065619Y-28919714D01*
X13065619Y-28532666D01*
X13114000Y-28435904D01*
X13162380Y-28387523D01*
X13259142Y-28339142D01*
X13404285Y-28339142D01*
X13501047Y-28387523D01*
X13549428Y-28435904D01*
X13597809Y-28532666D01*
X13597809Y-28919714D01*
X13162380Y-27952095D02*
X13114000Y-27903714D01*
X13065619Y-27806952D01*
X13065619Y-27565047D01*
X13114000Y-27468285D01*
X13162380Y-27419904D01*
X13259142Y-27371523D01*
X13355904Y-27371523D01*
X13501047Y-27419904D01*
X14081619Y-28000476D01*
X14081619Y-27371523D01*
X13065619Y-26500666D02*
X13065619Y-26694190D01*
X13114000Y-26790952D01*
X13162380Y-26839333D01*
X13307523Y-26936095D01*
X13501047Y-26984476D01*
X13888095Y-26984476D01*
X13984857Y-26936095D01*
X14033238Y-26887714D01*
X14081619Y-26790952D01*
X14081619Y-26597428D01*
X14033238Y-26500666D01*
X13984857Y-26452285D01*
X13888095Y-26403904D01*
X13646190Y-26403904D01*
X13549428Y-26452285D01*
X13501047Y-26500666D01*
X13452666Y-26597428D01*
X13452666Y-26790952D01*
X13501047Y-26887714D01*
X13549428Y-26936095D01*
X13646190Y-26984476D01*
%TO.C,J7*%
X12397619Y-4148666D02*
X13123333Y-4148666D01*
X13268476Y-4197047D01*
X13365238Y-4293809D01*
X13413619Y-4438952D01*
X13413619Y-4535714D01*
X12397619Y-3761619D02*
X12397619Y-3084285D01*
X13413619Y-3519714D01*
%TO.C,R3*%
X39829619Y-27347333D02*
X39345809Y-27686000D01*
X39829619Y-27927904D02*
X38813619Y-27927904D01*
X38813619Y-27540857D01*
X38862000Y-27444095D01*
X38910380Y-27395714D01*
X39007142Y-27347333D01*
X39152285Y-27347333D01*
X39249047Y-27395714D01*
X39297428Y-27444095D01*
X39345809Y-27540857D01*
X39345809Y-27927904D01*
X38813619Y-27008666D02*
X38813619Y-26379714D01*
X39200666Y-26718380D01*
X39200666Y-26573238D01*
X39249047Y-26476476D01*
X39297428Y-26428095D01*
X39394190Y-26379714D01*
X39636095Y-26379714D01*
X39732857Y-26428095D01*
X39781238Y-26476476D01*
X39829619Y-26573238D01*
X39829619Y-26863523D01*
X39781238Y-26960285D01*
X39732857Y-27008666D01*
%TO.C,C56*%
X4172857Y-23259142D02*
X4221238Y-23307523D01*
X4269619Y-23452666D01*
X4269619Y-23549428D01*
X4221238Y-23694571D01*
X4124476Y-23791333D01*
X4027714Y-23839714D01*
X3834190Y-23888095D01*
X3689047Y-23888095D01*
X3495523Y-23839714D01*
X3398761Y-23791333D01*
X3302000Y-23694571D01*
X3253619Y-23549428D01*
X3253619Y-23452666D01*
X3302000Y-23307523D01*
X3350380Y-23259142D01*
X3253619Y-22339904D02*
X3253619Y-22823714D01*
X3737428Y-22872095D01*
X3689047Y-22823714D01*
X3640666Y-22726952D01*
X3640666Y-22485047D01*
X3689047Y-22388285D01*
X3737428Y-22339904D01*
X3834190Y-22291523D01*
X4076095Y-22291523D01*
X4172857Y-22339904D01*
X4221238Y-22388285D01*
X4269619Y-22485047D01*
X4269619Y-22726952D01*
X4221238Y-22823714D01*
X4172857Y-22872095D01*
X3253619Y-21420666D02*
X3253619Y-21614190D01*
X3302000Y-21710952D01*
X3350380Y-21759333D01*
X3495523Y-21856095D01*
X3689047Y-21904476D01*
X4076095Y-21904476D01*
X4172857Y-21856095D01*
X4221238Y-21807714D01*
X4269619Y-21710952D01*
X4269619Y-21517428D01*
X4221238Y-21420666D01*
X4172857Y-21372285D01*
X4076095Y-21323904D01*
X3834190Y-21323904D01*
X3737428Y-21372285D01*
X3689047Y-21420666D01*
X3640666Y-21517428D01*
X3640666Y-21710952D01*
X3689047Y-21807714D01*
X3737428Y-21856095D01*
X3834190Y-21904476D01*
%TO.C,C39*%
X27540857Y-11067142D02*
X27589238Y-11115523D01*
X27637619Y-11260666D01*
X27637619Y-11357428D01*
X27589238Y-11502571D01*
X27492476Y-11599333D01*
X27395714Y-11647714D01*
X27202190Y-11696095D01*
X27057047Y-11696095D01*
X26863523Y-11647714D01*
X26766761Y-11599333D01*
X26670000Y-11502571D01*
X26621619Y-11357428D01*
X26621619Y-11260666D01*
X26670000Y-11115523D01*
X26718380Y-11067142D01*
X26621619Y-10728476D02*
X26621619Y-10099523D01*
X27008666Y-10438190D01*
X27008666Y-10293047D01*
X27057047Y-10196285D01*
X27105428Y-10147904D01*
X27202190Y-10099523D01*
X27444095Y-10099523D01*
X27540857Y-10147904D01*
X27589238Y-10196285D01*
X27637619Y-10293047D01*
X27637619Y-10583333D01*
X27589238Y-10680095D01*
X27540857Y-10728476D01*
X27637619Y-9615714D02*
X27637619Y-9422190D01*
X27589238Y-9325428D01*
X27540857Y-9277047D01*
X27395714Y-9180285D01*
X27202190Y-9131904D01*
X26815142Y-9131904D01*
X26718380Y-9180285D01*
X26670000Y-9228666D01*
X26621619Y-9325428D01*
X26621619Y-9518952D01*
X26670000Y-9615714D01*
X26718380Y-9664095D01*
X26815142Y-9712476D01*
X27057047Y-9712476D01*
X27153809Y-9664095D01*
X27202190Y-9615714D01*
X27250571Y-9518952D01*
X27250571Y-9325428D01*
X27202190Y-9228666D01*
X27153809Y-9180285D01*
X27057047Y-9131904D01*
%TO.C,R14*%
X40591619Y-22243142D02*
X40107809Y-22581809D01*
X40591619Y-22823714D02*
X39575619Y-22823714D01*
X39575619Y-22436666D01*
X39624000Y-22339904D01*
X39672380Y-22291523D01*
X39769142Y-22243142D01*
X39914285Y-22243142D01*
X40011047Y-22291523D01*
X40059428Y-22339904D01*
X40107809Y-22436666D01*
X40107809Y-22823714D01*
X40591619Y-21275523D02*
X40591619Y-21856095D01*
X40591619Y-21565809D02*
X39575619Y-21565809D01*
X39720761Y-21662571D01*
X39817523Y-21759333D01*
X39865904Y-21856095D01*
X39914285Y-20404666D02*
X40591619Y-20404666D01*
X39527238Y-20646571D02*
X40252952Y-20888476D01*
X40252952Y-20259523D01*
%TO.C,C13*%
X14586857Y-20682857D02*
X14538476Y-20731238D01*
X14393333Y-20779619D01*
X14296571Y-20779619D01*
X14151428Y-20731238D01*
X14054666Y-20634476D01*
X14006285Y-20537714D01*
X13957904Y-20344190D01*
X13957904Y-20199047D01*
X14006285Y-20005523D01*
X14054666Y-19908761D01*
X14151428Y-19812000D01*
X14296571Y-19763619D01*
X14393333Y-19763619D01*
X14538476Y-19812000D01*
X14586857Y-19860380D01*
X15554476Y-20779619D02*
X14973904Y-20779619D01*
X15264190Y-20779619D02*
X15264190Y-19763619D01*
X15167428Y-19908761D01*
X15070666Y-20005523D01*
X14973904Y-20053904D01*
X15893142Y-19763619D02*
X16522095Y-19763619D01*
X16183428Y-20150666D01*
X16328571Y-20150666D01*
X16425333Y-20199047D01*
X16473714Y-20247428D01*
X16522095Y-20344190D01*
X16522095Y-20586095D01*
X16473714Y-20682857D01*
X16425333Y-20731238D01*
X16328571Y-20779619D01*
X16038285Y-20779619D01*
X15941523Y-20731238D01*
X15893142Y-20682857D01*
%TO.C,D1*%
X11889619Y-6083904D02*
X10873619Y-6083904D01*
X10873619Y-5842000D01*
X10922000Y-5696857D01*
X11018761Y-5600095D01*
X11115523Y-5551714D01*
X11309047Y-5503333D01*
X11454190Y-5503333D01*
X11647714Y-5551714D01*
X11744476Y-5600095D01*
X11841238Y-5696857D01*
X11889619Y-5842000D01*
X11889619Y-6083904D01*
X11889619Y-4535714D02*
X11889619Y-5116285D01*
X11889619Y-4826000D02*
X10873619Y-4826000D01*
X11018761Y-4922761D01*
X11115523Y-5019523D01*
X11163904Y-5116285D01*
%TO.C,C10*%
X12808857Y-40168857D02*
X12760476Y-40217238D01*
X12615333Y-40265619D01*
X12518571Y-40265619D01*
X12373428Y-40217238D01*
X12276666Y-40120476D01*
X12228285Y-40023714D01*
X12179904Y-39830190D01*
X12179904Y-39685047D01*
X12228285Y-39491523D01*
X12276666Y-39394761D01*
X12373428Y-39298000D01*
X12518571Y-39249619D01*
X12615333Y-39249619D01*
X12760476Y-39298000D01*
X12808857Y-39346380D01*
X13776476Y-40265619D02*
X13195904Y-40265619D01*
X13486190Y-40265619D02*
X13486190Y-39249619D01*
X13389428Y-39394761D01*
X13292666Y-39491523D01*
X13195904Y-39539904D01*
X14405428Y-39249619D02*
X14502190Y-39249619D01*
X14598952Y-39298000D01*
X14647333Y-39346380D01*
X14695714Y-39443142D01*
X14744095Y-39636666D01*
X14744095Y-39878571D01*
X14695714Y-40072095D01*
X14647333Y-40168857D01*
X14598952Y-40217238D01*
X14502190Y-40265619D01*
X14405428Y-40265619D01*
X14308666Y-40217238D01*
X14260285Y-40168857D01*
X14211904Y-40072095D01*
X14163523Y-39878571D01*
X14163523Y-39636666D01*
X14211904Y-39443142D01*
X14260285Y-39346380D01*
X14308666Y-39298000D01*
X14405428Y-39249619D01*
%TO.C,C54*%
X2648857Y-21735142D02*
X2697238Y-21783523D01*
X2745619Y-21928666D01*
X2745619Y-22025428D01*
X2697238Y-22170571D01*
X2600476Y-22267333D01*
X2503714Y-22315714D01*
X2310190Y-22364095D01*
X2165047Y-22364095D01*
X1971523Y-22315714D01*
X1874761Y-22267333D01*
X1778000Y-22170571D01*
X1729619Y-22025428D01*
X1729619Y-21928666D01*
X1778000Y-21783523D01*
X1826380Y-21735142D01*
X1729619Y-20815904D02*
X1729619Y-21299714D01*
X2213428Y-21348095D01*
X2165047Y-21299714D01*
X2116666Y-21202952D01*
X2116666Y-20961047D01*
X2165047Y-20864285D01*
X2213428Y-20815904D01*
X2310190Y-20767523D01*
X2552095Y-20767523D01*
X2648857Y-20815904D01*
X2697238Y-20864285D01*
X2745619Y-20961047D01*
X2745619Y-21202952D01*
X2697238Y-21299714D01*
X2648857Y-21348095D01*
X2068285Y-19896666D02*
X2745619Y-19896666D01*
X1681238Y-20138571D02*
X2406952Y-20380476D01*
X2406952Y-19751523D01*
%TO.C,C28*%
X31096857Y-27069142D02*
X31145238Y-27117523D01*
X31193619Y-27262666D01*
X31193619Y-27359428D01*
X31145238Y-27504571D01*
X31048476Y-27601333D01*
X30951714Y-27649714D01*
X30758190Y-27698095D01*
X30613047Y-27698095D01*
X30419523Y-27649714D01*
X30322761Y-27601333D01*
X30226000Y-27504571D01*
X30177619Y-27359428D01*
X30177619Y-27262666D01*
X30226000Y-27117523D01*
X30274380Y-27069142D01*
X30274380Y-26682095D02*
X30226000Y-26633714D01*
X30177619Y-26536952D01*
X30177619Y-26295047D01*
X30226000Y-26198285D01*
X30274380Y-26149904D01*
X30371142Y-26101523D01*
X30467904Y-26101523D01*
X30613047Y-26149904D01*
X31193619Y-26730476D01*
X31193619Y-26101523D01*
X30613047Y-25520952D02*
X30564666Y-25617714D01*
X30516285Y-25666095D01*
X30419523Y-25714476D01*
X30371142Y-25714476D01*
X30274380Y-25666095D01*
X30226000Y-25617714D01*
X30177619Y-25520952D01*
X30177619Y-25327428D01*
X30226000Y-25230666D01*
X30274380Y-25182285D01*
X30371142Y-25133904D01*
X30419523Y-25133904D01*
X30516285Y-25182285D01*
X30564666Y-25230666D01*
X30613047Y-25327428D01*
X30613047Y-25520952D01*
X30661428Y-25617714D01*
X30709809Y-25666095D01*
X30806571Y-25714476D01*
X31000095Y-25714476D01*
X31096857Y-25666095D01*
X31145238Y-25617714D01*
X31193619Y-25520952D01*
X31193619Y-25327428D01*
X31145238Y-25230666D01*
X31096857Y-25182285D01*
X31000095Y-25133904D01*
X30806571Y-25133904D01*
X30709809Y-25182285D01*
X30661428Y-25230666D01*
X30613047Y-25327428D01*
%TO.C,C44*%
X21190857Y-11067142D02*
X21239238Y-11115523D01*
X21287619Y-11260666D01*
X21287619Y-11357428D01*
X21239238Y-11502571D01*
X21142476Y-11599333D01*
X21045714Y-11647714D01*
X20852190Y-11696095D01*
X20707047Y-11696095D01*
X20513523Y-11647714D01*
X20416761Y-11599333D01*
X20320000Y-11502571D01*
X20271619Y-11357428D01*
X20271619Y-11260666D01*
X20320000Y-11115523D01*
X20368380Y-11067142D01*
X20610285Y-10196285D02*
X21287619Y-10196285D01*
X20223238Y-10438190D02*
X20948952Y-10680095D01*
X20948952Y-10051142D01*
X20610285Y-9228666D02*
X21287619Y-9228666D01*
X20223238Y-9470571D02*
X20948952Y-9712476D01*
X20948952Y-9083523D01*
%TO.C,C38*%
X28810857Y-11067142D02*
X28859238Y-11115523D01*
X28907619Y-11260666D01*
X28907619Y-11357428D01*
X28859238Y-11502571D01*
X28762476Y-11599333D01*
X28665714Y-11647714D01*
X28472190Y-11696095D01*
X28327047Y-11696095D01*
X28133523Y-11647714D01*
X28036761Y-11599333D01*
X27940000Y-11502571D01*
X27891619Y-11357428D01*
X27891619Y-11260666D01*
X27940000Y-11115523D01*
X27988380Y-11067142D01*
X27891619Y-10728476D02*
X27891619Y-10099523D01*
X28278666Y-10438190D01*
X28278666Y-10293047D01*
X28327047Y-10196285D01*
X28375428Y-10147904D01*
X28472190Y-10099523D01*
X28714095Y-10099523D01*
X28810857Y-10147904D01*
X28859238Y-10196285D01*
X28907619Y-10293047D01*
X28907619Y-10583333D01*
X28859238Y-10680095D01*
X28810857Y-10728476D01*
X28327047Y-9518952D02*
X28278666Y-9615714D01*
X28230285Y-9664095D01*
X28133523Y-9712476D01*
X28085142Y-9712476D01*
X27988380Y-9664095D01*
X27940000Y-9615714D01*
X27891619Y-9518952D01*
X27891619Y-9325428D01*
X27940000Y-9228666D01*
X27988380Y-9180285D01*
X28085142Y-9131904D01*
X28133523Y-9131904D01*
X28230285Y-9180285D01*
X28278666Y-9228666D01*
X28327047Y-9325428D01*
X28327047Y-9518952D01*
X28375428Y-9615714D01*
X28423809Y-9664095D01*
X28520571Y-9712476D01*
X28714095Y-9712476D01*
X28810857Y-9664095D01*
X28859238Y-9615714D01*
X28907619Y-9518952D01*
X28907619Y-9325428D01*
X28859238Y-9228666D01*
X28810857Y-9180285D01*
X28714095Y-9131904D01*
X28520571Y-9131904D01*
X28423809Y-9180285D01*
X28375428Y-9228666D01*
X28327047Y-9325428D01*
%TO.C,C45*%
X17634857Y-14586857D02*
X17586476Y-14635238D01*
X17441333Y-14683619D01*
X17344571Y-14683619D01*
X17199428Y-14635238D01*
X17102666Y-14538476D01*
X17054285Y-14441714D01*
X17005904Y-14248190D01*
X17005904Y-14103047D01*
X17054285Y-13909523D01*
X17102666Y-13812761D01*
X17199428Y-13716000D01*
X17344571Y-13667619D01*
X17441333Y-13667619D01*
X17586476Y-13716000D01*
X17634857Y-13764380D01*
X18505714Y-14006285D02*
X18505714Y-14683619D01*
X18263809Y-13619238D02*
X18021904Y-14344952D01*
X18650857Y-14344952D01*
X19521714Y-13667619D02*
X19037904Y-13667619D01*
X18989523Y-14151428D01*
X19037904Y-14103047D01*
X19134666Y-14054666D01*
X19376571Y-14054666D01*
X19473333Y-14103047D01*
X19521714Y-14151428D01*
X19570095Y-14248190D01*
X19570095Y-14490095D01*
X19521714Y-14586857D01*
X19473333Y-14635238D01*
X19376571Y-14683619D01*
X19134666Y-14683619D01*
X19037904Y-14635238D01*
X18989523Y-14586857D01*
%TO.C,C18*%
X17634857Y-22460857D02*
X17586476Y-22509238D01*
X17441333Y-22557619D01*
X17344571Y-22557619D01*
X17199428Y-22509238D01*
X17102666Y-22412476D01*
X17054285Y-22315714D01*
X17005904Y-22122190D01*
X17005904Y-21977047D01*
X17054285Y-21783523D01*
X17102666Y-21686761D01*
X17199428Y-21590000D01*
X17344571Y-21541619D01*
X17441333Y-21541619D01*
X17586476Y-21590000D01*
X17634857Y-21638380D01*
X18602476Y-22557619D02*
X18021904Y-22557619D01*
X18312190Y-22557619D02*
X18312190Y-21541619D01*
X18215428Y-21686761D01*
X18118666Y-21783523D01*
X18021904Y-21831904D01*
X19183047Y-21977047D02*
X19086285Y-21928666D01*
X19037904Y-21880285D01*
X18989523Y-21783523D01*
X18989523Y-21735142D01*
X19037904Y-21638380D01*
X19086285Y-21590000D01*
X19183047Y-21541619D01*
X19376571Y-21541619D01*
X19473333Y-21590000D01*
X19521714Y-21638380D01*
X19570095Y-21735142D01*
X19570095Y-21783523D01*
X19521714Y-21880285D01*
X19473333Y-21928666D01*
X19376571Y-21977047D01*
X19183047Y-21977047D01*
X19086285Y-22025428D01*
X19037904Y-22073809D01*
X18989523Y-22170571D01*
X18989523Y-22364095D01*
X19037904Y-22460857D01*
X19086285Y-22509238D01*
X19183047Y-22557619D01*
X19376571Y-22557619D01*
X19473333Y-22509238D01*
X19521714Y-22460857D01*
X19570095Y-22364095D01*
X19570095Y-22170571D01*
X19521714Y-22073809D01*
X19473333Y-22025428D01*
X19376571Y-21977047D01*
%TO.C,C57*%
X10424857Y-12083142D02*
X10473238Y-12131523D01*
X10521619Y-12276666D01*
X10521619Y-12373428D01*
X10473238Y-12518571D01*
X10376476Y-12615333D01*
X10279714Y-12663714D01*
X10086190Y-12712095D01*
X9941047Y-12712095D01*
X9747523Y-12663714D01*
X9650761Y-12615333D01*
X9554000Y-12518571D01*
X9505619Y-12373428D01*
X9505619Y-12276666D01*
X9554000Y-12131523D01*
X9602380Y-12083142D01*
X9505619Y-11163904D02*
X9505619Y-11647714D01*
X9989428Y-11696095D01*
X9941047Y-11647714D01*
X9892666Y-11550952D01*
X9892666Y-11309047D01*
X9941047Y-11212285D01*
X9989428Y-11163904D01*
X10086190Y-11115523D01*
X10328095Y-11115523D01*
X10424857Y-11163904D01*
X10473238Y-11212285D01*
X10521619Y-11309047D01*
X10521619Y-11550952D01*
X10473238Y-11647714D01*
X10424857Y-11696095D01*
X9505619Y-10776857D02*
X9505619Y-10099523D01*
X10521619Y-10534952D01*
%TO.C,J1*%
X2963333Y-2999619D02*
X2963333Y-3725333D01*
X2914952Y-3870476D01*
X2818190Y-3967238D01*
X2673047Y-4015619D01*
X2576285Y-4015619D01*
X3979333Y-4015619D02*
X3398761Y-4015619D01*
X3689047Y-4015619D02*
X3689047Y-2999619D01*
X3592285Y-3144761D01*
X3495523Y-3241523D01*
X3398761Y-3289904D01*
%TO.C,C58*%
X2394857Y-30879142D02*
X2443238Y-30927523D01*
X2491619Y-31072666D01*
X2491619Y-31169428D01*
X2443238Y-31314571D01*
X2346476Y-31411333D01*
X2249714Y-31459714D01*
X2056190Y-31508095D01*
X1911047Y-31508095D01*
X1717523Y-31459714D01*
X1620761Y-31411333D01*
X1524000Y-31314571D01*
X1475619Y-31169428D01*
X1475619Y-31072666D01*
X1524000Y-30927523D01*
X1572380Y-30879142D01*
X1475619Y-29959904D02*
X1475619Y-30443714D01*
X1959428Y-30492095D01*
X1911047Y-30443714D01*
X1862666Y-30346952D01*
X1862666Y-30105047D01*
X1911047Y-30008285D01*
X1959428Y-29959904D01*
X2056190Y-29911523D01*
X2298095Y-29911523D01*
X2394857Y-29959904D01*
X2443238Y-30008285D01*
X2491619Y-30105047D01*
X2491619Y-30346952D01*
X2443238Y-30443714D01*
X2394857Y-30492095D01*
X1911047Y-29330952D02*
X1862666Y-29427714D01*
X1814285Y-29476095D01*
X1717523Y-29524476D01*
X1669142Y-29524476D01*
X1572380Y-29476095D01*
X1524000Y-29427714D01*
X1475619Y-29330952D01*
X1475619Y-29137428D01*
X1524000Y-29040666D01*
X1572380Y-28992285D01*
X1669142Y-28943904D01*
X1717523Y-28943904D01*
X1814285Y-28992285D01*
X1862666Y-29040666D01*
X1911047Y-29137428D01*
X1911047Y-29330952D01*
X1959428Y-29427714D01*
X2007809Y-29476095D01*
X2104571Y-29524476D01*
X2298095Y-29524476D01*
X2394857Y-29476095D01*
X2443238Y-29427714D01*
X2491619Y-29330952D01*
X2491619Y-29137428D01*
X2443238Y-29040666D01*
X2394857Y-28992285D01*
X2298095Y-28943904D01*
X2104571Y-28943904D01*
X2007809Y-28992285D01*
X1959428Y-29040666D01*
X1911047Y-29137428D01*
%TO.C,C26*%
X28556857Y-27069142D02*
X28605238Y-27117523D01*
X28653619Y-27262666D01*
X28653619Y-27359428D01*
X28605238Y-27504571D01*
X28508476Y-27601333D01*
X28411714Y-27649714D01*
X28218190Y-27698095D01*
X28073047Y-27698095D01*
X27879523Y-27649714D01*
X27782761Y-27601333D01*
X27686000Y-27504571D01*
X27637619Y-27359428D01*
X27637619Y-27262666D01*
X27686000Y-27117523D01*
X27734380Y-27069142D01*
X27734380Y-26682095D02*
X27686000Y-26633714D01*
X27637619Y-26536952D01*
X27637619Y-26295047D01*
X27686000Y-26198285D01*
X27734380Y-26149904D01*
X27831142Y-26101523D01*
X27927904Y-26101523D01*
X28073047Y-26149904D01*
X28653619Y-26730476D01*
X28653619Y-26101523D01*
X27637619Y-25230666D02*
X27637619Y-25424190D01*
X27686000Y-25520952D01*
X27734380Y-25569333D01*
X27879523Y-25666095D01*
X28073047Y-25714476D01*
X28460095Y-25714476D01*
X28556857Y-25666095D01*
X28605238Y-25617714D01*
X28653619Y-25520952D01*
X28653619Y-25327428D01*
X28605238Y-25230666D01*
X28556857Y-25182285D01*
X28460095Y-25133904D01*
X28218190Y-25133904D01*
X28121428Y-25182285D01*
X28073047Y-25230666D01*
X28024666Y-25327428D01*
X28024666Y-25520952D01*
X28073047Y-25617714D01*
X28121428Y-25666095D01*
X28218190Y-25714476D01*
%TO.C,C2*%
X28970857Y-29633333D02*
X29019238Y-29681714D01*
X29067619Y-29826857D01*
X29067619Y-29923619D01*
X29019238Y-30068761D01*
X28922476Y-30165523D01*
X28825714Y-30213904D01*
X28632190Y-30262285D01*
X28487047Y-30262285D01*
X28293523Y-30213904D01*
X28196761Y-30165523D01*
X28100000Y-30068761D01*
X28051619Y-29923619D01*
X28051619Y-29826857D01*
X28100000Y-29681714D01*
X28148380Y-29633333D01*
X28148380Y-29246285D02*
X28100000Y-29197904D01*
X28051619Y-29101142D01*
X28051619Y-28859238D01*
X28100000Y-28762476D01*
X28148380Y-28714095D01*
X28245142Y-28665714D01*
X28341904Y-28665714D01*
X28487047Y-28714095D01*
X29067619Y-29294666D01*
X29067619Y-28665714D01*
%TO.C,C19*%
X17634857Y-23730857D02*
X17586476Y-23779238D01*
X17441333Y-23827619D01*
X17344571Y-23827619D01*
X17199428Y-23779238D01*
X17102666Y-23682476D01*
X17054285Y-23585714D01*
X17005904Y-23392190D01*
X17005904Y-23247047D01*
X17054285Y-23053523D01*
X17102666Y-22956761D01*
X17199428Y-22860000D01*
X17344571Y-22811619D01*
X17441333Y-22811619D01*
X17586476Y-22860000D01*
X17634857Y-22908380D01*
X18602476Y-23827619D02*
X18021904Y-23827619D01*
X18312190Y-23827619D02*
X18312190Y-22811619D01*
X18215428Y-22956761D01*
X18118666Y-23053523D01*
X18021904Y-23101904D01*
X19086285Y-23827619D02*
X19279809Y-23827619D01*
X19376571Y-23779238D01*
X19424952Y-23730857D01*
X19521714Y-23585714D01*
X19570095Y-23392190D01*
X19570095Y-23005142D01*
X19521714Y-22908380D01*
X19473333Y-22860000D01*
X19376571Y-22811619D01*
X19183047Y-22811619D01*
X19086285Y-22860000D01*
X19037904Y-22908380D01*
X18989523Y-23005142D01*
X18989523Y-23247047D01*
X19037904Y-23343809D01*
X19086285Y-23392190D01*
X19183047Y-23440571D01*
X19376571Y-23440571D01*
X19473333Y-23392190D01*
X19521714Y-23343809D01*
X19570095Y-23247047D01*
%TO.C,D5*%
X12095Y-21541619D02*
X12095Y-20525619D01*
X254000Y-20525619D01*
X399142Y-20574000D01*
X495904Y-20670761D01*
X544285Y-20767523D01*
X592666Y-20961047D01*
X592666Y-21106190D01*
X544285Y-21299714D01*
X495904Y-21396476D01*
X399142Y-21493238D01*
X254000Y-21541619D01*
X12095Y-21541619D01*
X1511904Y-20525619D02*
X1028095Y-20525619D01*
X979714Y-21009428D01*
X1028095Y-20961047D01*
X1124857Y-20912666D01*
X1366761Y-20912666D01*
X1463523Y-20961047D01*
X1511904Y-21009428D01*
X1560285Y-21106190D01*
X1560285Y-21348095D01*
X1511904Y-21444857D01*
X1463523Y-21493238D01*
X1366761Y-21541619D01*
X1124857Y-21541619D01*
X1028095Y-21493238D01*
X979714Y-21444857D01*
%TO.C,C31*%
X33890857Y-21444857D02*
X33842476Y-21493238D01*
X33697333Y-21541619D01*
X33600571Y-21541619D01*
X33455428Y-21493238D01*
X33358666Y-21396476D01*
X33310285Y-21299714D01*
X33261904Y-21106190D01*
X33261904Y-20961047D01*
X33310285Y-20767523D01*
X33358666Y-20670761D01*
X33455428Y-20574000D01*
X33600571Y-20525619D01*
X33697333Y-20525619D01*
X33842476Y-20574000D01*
X33890857Y-20622380D01*
X34229523Y-20525619D02*
X34858476Y-20525619D01*
X34519809Y-20912666D01*
X34664952Y-20912666D01*
X34761714Y-20961047D01*
X34810095Y-21009428D01*
X34858476Y-21106190D01*
X34858476Y-21348095D01*
X34810095Y-21444857D01*
X34761714Y-21493238D01*
X34664952Y-21541619D01*
X34374666Y-21541619D01*
X34277904Y-21493238D01*
X34229523Y-21444857D01*
X35826095Y-21541619D02*
X35245523Y-21541619D01*
X35535809Y-21541619D02*
X35535809Y-20525619D01*
X35439047Y-20670761D01*
X35342285Y-20767523D01*
X35245523Y-20815904D01*
%TO.C,C40*%
X26270857Y-11067142D02*
X26319238Y-11115523D01*
X26367619Y-11260666D01*
X26367619Y-11357428D01*
X26319238Y-11502571D01*
X26222476Y-11599333D01*
X26125714Y-11647714D01*
X25932190Y-11696095D01*
X25787047Y-11696095D01*
X25593523Y-11647714D01*
X25496761Y-11599333D01*
X25400000Y-11502571D01*
X25351619Y-11357428D01*
X25351619Y-11260666D01*
X25400000Y-11115523D01*
X25448380Y-11067142D01*
X25690285Y-10196285D02*
X26367619Y-10196285D01*
X25303238Y-10438190D02*
X26028952Y-10680095D01*
X26028952Y-10051142D01*
X25351619Y-9470571D02*
X25351619Y-9373809D01*
X25400000Y-9277047D01*
X25448380Y-9228666D01*
X25545142Y-9180285D01*
X25738666Y-9131904D01*
X25980571Y-9131904D01*
X26174095Y-9180285D01*
X26270857Y-9228666D01*
X26319238Y-9277047D01*
X26367619Y-9373809D01*
X26367619Y-9470571D01*
X26319238Y-9567333D01*
X26270857Y-9615714D01*
X26174095Y-9664095D01*
X25980571Y-9712476D01*
X25738666Y-9712476D01*
X25545142Y-9664095D01*
X25448380Y-9615714D01*
X25400000Y-9567333D01*
X25351619Y-9470571D01*
%TO.C,C5*%
X34374666Y-29064857D02*
X34326285Y-29113238D01*
X34181142Y-29161619D01*
X34084380Y-29161619D01*
X33939238Y-29113238D01*
X33842476Y-29016476D01*
X33794095Y-28919714D01*
X33745714Y-28726190D01*
X33745714Y-28581047D01*
X33794095Y-28387523D01*
X33842476Y-28290761D01*
X33939238Y-28194000D01*
X34084380Y-28145619D01*
X34181142Y-28145619D01*
X34326285Y-28194000D01*
X34374666Y-28242380D01*
X35293904Y-28145619D02*
X34810095Y-28145619D01*
X34761714Y-28629428D01*
X34810095Y-28581047D01*
X34906857Y-28532666D01*
X35148761Y-28532666D01*
X35245523Y-28581047D01*
X35293904Y-28629428D01*
X35342285Y-28726190D01*
X35342285Y-28968095D01*
X35293904Y-29064857D01*
X35245523Y-29113238D01*
X35148761Y-29161619D01*
X34906857Y-29161619D01*
X34810095Y-29113238D01*
X34761714Y-29064857D01*
%TO.C,C21*%
X22206857Y-27069142D02*
X22255238Y-27117523D01*
X22303619Y-27262666D01*
X22303619Y-27359428D01*
X22255238Y-27504571D01*
X22158476Y-27601333D01*
X22061714Y-27649714D01*
X21868190Y-27698095D01*
X21723047Y-27698095D01*
X21529523Y-27649714D01*
X21432761Y-27601333D01*
X21336000Y-27504571D01*
X21287619Y-27359428D01*
X21287619Y-27262666D01*
X21336000Y-27117523D01*
X21384380Y-27069142D01*
X21384380Y-26682095D02*
X21336000Y-26633714D01*
X21287619Y-26536952D01*
X21287619Y-26295047D01*
X21336000Y-26198285D01*
X21384380Y-26149904D01*
X21481142Y-26101523D01*
X21577904Y-26101523D01*
X21723047Y-26149904D01*
X22303619Y-26730476D01*
X22303619Y-26101523D01*
X22303619Y-25133904D02*
X22303619Y-25714476D01*
X22303619Y-25424190D02*
X21287619Y-25424190D01*
X21432761Y-25520952D01*
X21529523Y-25617714D01*
X21577904Y-25714476D01*
%TO.C,R2*%
X26367619Y-29633333D02*
X25883809Y-29972000D01*
X26367619Y-30213904D02*
X25351619Y-30213904D01*
X25351619Y-29826857D01*
X25400000Y-29730095D01*
X25448380Y-29681714D01*
X25545142Y-29633333D01*
X25690285Y-29633333D01*
X25787047Y-29681714D01*
X25835428Y-29730095D01*
X25883809Y-29826857D01*
X25883809Y-30213904D01*
X25448380Y-29246285D02*
X25400000Y-29197904D01*
X25351619Y-29101142D01*
X25351619Y-28859238D01*
X25400000Y-28762476D01*
X25448380Y-28714095D01*
X25545142Y-28665714D01*
X25641904Y-28665714D01*
X25787047Y-28714095D01*
X26367619Y-29294666D01*
X26367619Y-28665714D01*
%TO.C,C35*%
X33890857Y-16364857D02*
X33842476Y-16413238D01*
X33697333Y-16461619D01*
X33600571Y-16461619D01*
X33455428Y-16413238D01*
X33358666Y-16316476D01*
X33310285Y-16219714D01*
X33261904Y-16026190D01*
X33261904Y-15881047D01*
X33310285Y-15687523D01*
X33358666Y-15590761D01*
X33455428Y-15494000D01*
X33600571Y-15445619D01*
X33697333Y-15445619D01*
X33842476Y-15494000D01*
X33890857Y-15542380D01*
X34229523Y-15445619D02*
X34858476Y-15445619D01*
X34519809Y-15832666D01*
X34664952Y-15832666D01*
X34761714Y-15881047D01*
X34810095Y-15929428D01*
X34858476Y-16026190D01*
X34858476Y-16268095D01*
X34810095Y-16364857D01*
X34761714Y-16413238D01*
X34664952Y-16461619D01*
X34374666Y-16461619D01*
X34277904Y-16413238D01*
X34229523Y-16364857D01*
X35777714Y-15445619D02*
X35293904Y-15445619D01*
X35245523Y-15929428D01*
X35293904Y-15881047D01*
X35390666Y-15832666D01*
X35632571Y-15832666D01*
X35729333Y-15881047D01*
X35777714Y-15929428D01*
X35826095Y-16026190D01*
X35826095Y-16268095D01*
X35777714Y-16364857D01*
X35729333Y-16413238D01*
X35632571Y-16461619D01*
X35390666Y-16461619D01*
X35293904Y-16413238D01*
X35245523Y-16364857D01*
%TO.C,C41*%
X25000857Y-11067142D02*
X25049238Y-11115523D01*
X25097619Y-11260666D01*
X25097619Y-11357428D01*
X25049238Y-11502571D01*
X24952476Y-11599333D01*
X24855714Y-11647714D01*
X24662190Y-11696095D01*
X24517047Y-11696095D01*
X24323523Y-11647714D01*
X24226761Y-11599333D01*
X24130000Y-11502571D01*
X24081619Y-11357428D01*
X24081619Y-11260666D01*
X24130000Y-11115523D01*
X24178380Y-11067142D01*
X24420285Y-10196285D02*
X25097619Y-10196285D01*
X24033238Y-10438190D02*
X24758952Y-10680095D01*
X24758952Y-10051142D01*
X25097619Y-9131904D02*
X25097619Y-9712476D01*
X25097619Y-9422190D02*
X24081619Y-9422190D01*
X24226761Y-9518952D01*
X24323523Y-9615714D01*
X24371904Y-9712476D01*
%TO.C,H1*%
X495904Y-4015619D02*
X495904Y-2999619D01*
X495904Y-3483428D02*
X1076476Y-3483428D01*
X1076476Y-4015619D02*
X1076476Y-2999619D01*
X2092476Y-4015619D02*
X1511904Y-4015619D01*
X1802190Y-4015619D02*
X1802190Y-2999619D01*
X1705428Y-3144761D01*
X1608666Y-3241523D01*
X1511904Y-3289904D01*
%TO.C,R36*%
X-2080381Y-30625142D02*
X-2564191Y-30963809D01*
X-2080381Y-31205714D02*
X-3096381Y-31205714D01*
X-3096381Y-30818666D01*
X-3048000Y-30721904D01*
X-2999620Y-30673523D01*
X-2902858Y-30625142D01*
X-2757715Y-30625142D01*
X-2660953Y-30673523D01*
X-2612572Y-30721904D01*
X-2564191Y-30818666D01*
X-2564191Y-31205714D01*
X-3096381Y-30286476D02*
X-3096381Y-29657523D01*
X-2709334Y-29996190D01*
X-2709334Y-29851047D01*
X-2660953Y-29754285D01*
X-2612572Y-29705904D01*
X-2515810Y-29657523D01*
X-2273905Y-29657523D01*
X-2177143Y-29705904D01*
X-2128762Y-29754285D01*
X-2080381Y-29851047D01*
X-2080381Y-30141333D01*
X-2128762Y-30238095D01*
X-2177143Y-30286476D01*
X-3096381Y-28786666D02*
X-3096381Y-28980190D01*
X-3048000Y-29076952D01*
X-2999620Y-29125333D01*
X-2854477Y-29222095D01*
X-2660953Y-29270476D01*
X-2273905Y-29270476D01*
X-2177143Y-29222095D01*
X-2128762Y-29173714D01*
X-2080381Y-29076952D01*
X-2080381Y-28883428D01*
X-2128762Y-28786666D01*
X-2177143Y-28738285D01*
X-2273905Y-28689904D01*
X-2515810Y-28689904D01*
X-2612572Y-28738285D01*
X-2660953Y-28786666D01*
X-2709334Y-28883428D01*
X-2709334Y-29076952D01*
X-2660953Y-29173714D01*
X-2612572Y-29222095D01*
X-2515810Y-29270476D01*
%TO.C,R25*%
X11538857Y-8841619D02*
X11200190Y-8357809D01*
X10958285Y-8841619D02*
X10958285Y-7825619D01*
X11345333Y-7825619D01*
X11442095Y-7874000D01*
X11490476Y-7922380D01*
X11538857Y-8019142D01*
X11538857Y-8164285D01*
X11490476Y-8261047D01*
X11442095Y-8309428D01*
X11345333Y-8357809D01*
X10958285Y-8357809D01*
X11925904Y-7922380D02*
X11974285Y-7874000D01*
X12071047Y-7825619D01*
X12312952Y-7825619D01*
X12409714Y-7874000D01*
X12458095Y-7922380D01*
X12506476Y-8019142D01*
X12506476Y-8115904D01*
X12458095Y-8261047D01*
X11877523Y-8841619D01*
X12506476Y-8841619D01*
X13425714Y-7825619D02*
X12941904Y-7825619D01*
X12893523Y-8309428D01*
X12941904Y-8261047D01*
X13038666Y-8212666D01*
X13280571Y-8212666D01*
X13377333Y-8261047D01*
X13425714Y-8309428D01*
X13474095Y-8406190D01*
X13474095Y-8648095D01*
X13425714Y-8744857D01*
X13377333Y-8793238D01*
X13280571Y-8841619D01*
X13038666Y-8841619D01*
X12941904Y-8793238D01*
X12893523Y-8744857D01*
%TO.C,R1*%
X42369619Y-27347333D02*
X41885809Y-27686000D01*
X42369619Y-27927904D02*
X41353619Y-27927904D01*
X41353619Y-27540857D01*
X41402000Y-27444095D01*
X41450380Y-27395714D01*
X41547142Y-27347333D01*
X41692285Y-27347333D01*
X41789047Y-27395714D01*
X41837428Y-27444095D01*
X41885809Y-27540857D01*
X41885809Y-27927904D01*
X42369619Y-26379714D02*
X42369619Y-26960285D01*
X42369619Y-26670000D02*
X41353619Y-26670000D01*
X41498761Y-26766761D01*
X41595523Y-26863523D01*
X41643904Y-26960285D01*
%TO.C,R9*%
X17350619Y-38777333D02*
X16866809Y-39116000D01*
X17350619Y-39357904D02*
X16334619Y-39357904D01*
X16334619Y-38970857D01*
X16383000Y-38874095D01*
X16431380Y-38825714D01*
X16528142Y-38777333D01*
X16673285Y-38777333D01*
X16770047Y-38825714D01*
X16818428Y-38874095D01*
X16866809Y-38970857D01*
X16866809Y-39357904D01*
X17350619Y-38293523D02*
X17350619Y-38100000D01*
X17302238Y-38003238D01*
X17253857Y-37954857D01*
X17108714Y-37858095D01*
X16915190Y-37809714D01*
X16528142Y-37809714D01*
X16431380Y-37858095D01*
X16383000Y-37906476D01*
X16334619Y-38003238D01*
X16334619Y-38196761D01*
X16383000Y-38293523D01*
X16431380Y-38341904D01*
X16528142Y-38390285D01*
X16770047Y-38390285D01*
X16866809Y-38341904D01*
X16915190Y-38293523D01*
X16963571Y-38196761D01*
X16963571Y-38003238D01*
X16915190Y-37906476D01*
X16866809Y-37858095D01*
X16770047Y-37809714D01*
%TO.C,L1*%
X2435619Y-32681333D02*
X2435619Y-33165142D01*
X1419619Y-33165142D01*
X2435619Y-31810476D02*
X2435619Y-32391047D01*
X2435619Y-32100761D02*
X1419619Y-32100761D01*
X1564761Y-32197523D01*
X1661523Y-32294285D01*
X1709904Y-32391047D01*
%TO.C,H2*%
X59423904Y-3761619D02*
X59423904Y-2745619D01*
X59423904Y-3229428D02*
X60004476Y-3229428D01*
X60004476Y-3761619D02*
X60004476Y-2745619D01*
X60439904Y-2842380D02*
X60488285Y-2794000D01*
X60585047Y-2745619D01*
X60826952Y-2745619D01*
X60923714Y-2794000D01*
X60972095Y-2842380D01*
X61020476Y-2939142D01*
X61020476Y-3035904D01*
X60972095Y-3181047D01*
X60391523Y-3761619D01*
X61020476Y-3761619D01*
%TO.C,D3*%
X12095Y-20017619D02*
X12095Y-19001619D01*
X254000Y-19001619D01*
X399142Y-19050000D01*
X495904Y-19146761D01*
X544285Y-19243523D01*
X592666Y-19437047D01*
X592666Y-19582190D01*
X544285Y-19775714D01*
X495904Y-19872476D01*
X399142Y-19969238D01*
X254000Y-20017619D01*
X12095Y-20017619D01*
X931333Y-19001619D02*
X1560285Y-19001619D01*
X1221619Y-19388666D01*
X1366761Y-19388666D01*
X1463523Y-19437047D01*
X1511904Y-19485428D01*
X1560285Y-19582190D01*
X1560285Y-19824095D01*
X1511904Y-19920857D01*
X1463523Y-19969238D01*
X1366761Y-20017619D01*
X1076476Y-20017619D01*
X979714Y-19969238D01*
X931333Y-19920857D01*
%TO.C,D4*%
X-2527905Y-34241619D02*
X-2527905Y-33225619D01*
X-2286000Y-33225619D01*
X-2140858Y-33274000D01*
X-2044096Y-33370761D01*
X-1995715Y-33467523D01*
X-1947334Y-33661047D01*
X-1947334Y-33806190D01*
X-1995715Y-33999714D01*
X-2044096Y-34096476D01*
X-2140858Y-34193238D01*
X-2286000Y-34241619D01*
X-2527905Y-34241619D01*
X-1076477Y-33564285D02*
X-1076477Y-34241619D01*
X-1318381Y-33177238D02*
X-1560286Y-33902952D01*
X-931334Y-33902952D01*
%TO.C,C33*%
X33890857Y-18904857D02*
X33842476Y-18953238D01*
X33697333Y-19001619D01*
X33600571Y-19001619D01*
X33455428Y-18953238D01*
X33358666Y-18856476D01*
X33310285Y-18759714D01*
X33261904Y-18566190D01*
X33261904Y-18421047D01*
X33310285Y-18227523D01*
X33358666Y-18130761D01*
X33455428Y-18034000D01*
X33600571Y-17985619D01*
X33697333Y-17985619D01*
X33842476Y-18034000D01*
X33890857Y-18082380D01*
X34229523Y-17985619D02*
X34858476Y-17985619D01*
X34519809Y-18372666D01*
X34664952Y-18372666D01*
X34761714Y-18421047D01*
X34810095Y-18469428D01*
X34858476Y-18566190D01*
X34858476Y-18808095D01*
X34810095Y-18904857D01*
X34761714Y-18953238D01*
X34664952Y-19001619D01*
X34374666Y-19001619D01*
X34277904Y-18953238D01*
X34229523Y-18904857D01*
X35197142Y-17985619D02*
X35826095Y-17985619D01*
X35487428Y-18372666D01*
X35632571Y-18372666D01*
X35729333Y-18421047D01*
X35777714Y-18469428D01*
X35826095Y-18566190D01*
X35826095Y-18808095D01*
X35777714Y-18904857D01*
X35729333Y-18953238D01*
X35632571Y-19001619D01*
X35342285Y-19001619D01*
X35245523Y-18953238D01*
X35197142Y-18904857D01*
%TO.C,C37*%
X33890857Y-13824857D02*
X33842476Y-13873238D01*
X33697333Y-13921619D01*
X33600571Y-13921619D01*
X33455428Y-13873238D01*
X33358666Y-13776476D01*
X33310285Y-13679714D01*
X33261904Y-13486190D01*
X33261904Y-13341047D01*
X33310285Y-13147523D01*
X33358666Y-13050761D01*
X33455428Y-12954000D01*
X33600571Y-12905619D01*
X33697333Y-12905619D01*
X33842476Y-12954000D01*
X33890857Y-13002380D01*
X34229523Y-12905619D02*
X34858476Y-12905619D01*
X34519809Y-13292666D01*
X34664952Y-13292666D01*
X34761714Y-13341047D01*
X34810095Y-13389428D01*
X34858476Y-13486190D01*
X34858476Y-13728095D01*
X34810095Y-13824857D01*
X34761714Y-13873238D01*
X34664952Y-13921619D01*
X34374666Y-13921619D01*
X34277904Y-13873238D01*
X34229523Y-13824857D01*
X35197142Y-12905619D02*
X35874476Y-12905619D01*
X35439047Y-13921619D01*
%TO.C,C60*%
X7220857Y-22714857D02*
X7172476Y-22763238D01*
X7027333Y-22811619D01*
X6930571Y-22811619D01*
X6785428Y-22763238D01*
X6688666Y-22666476D01*
X6640285Y-22569714D01*
X6591904Y-22376190D01*
X6591904Y-22231047D01*
X6640285Y-22037523D01*
X6688666Y-21940761D01*
X6785428Y-21844000D01*
X6930571Y-21795619D01*
X7027333Y-21795619D01*
X7172476Y-21844000D01*
X7220857Y-21892380D01*
X8091714Y-21795619D02*
X7898190Y-21795619D01*
X7801428Y-21844000D01*
X7753047Y-21892380D01*
X7656285Y-22037523D01*
X7607904Y-22231047D01*
X7607904Y-22618095D01*
X7656285Y-22714857D01*
X7704666Y-22763238D01*
X7801428Y-22811619D01*
X7994952Y-22811619D01*
X8091714Y-22763238D01*
X8140095Y-22714857D01*
X8188476Y-22618095D01*
X8188476Y-22376190D01*
X8140095Y-22279428D01*
X8091714Y-22231047D01*
X7994952Y-22182666D01*
X7801428Y-22182666D01*
X7704666Y-22231047D01*
X7656285Y-22279428D01*
X7607904Y-22376190D01*
X8817428Y-21795619D02*
X8914190Y-21795619D01*
X9010952Y-21844000D01*
X9059333Y-21892380D01*
X9107714Y-21989142D01*
X9156095Y-22182666D01*
X9156095Y-22424571D01*
X9107714Y-22618095D01*
X9059333Y-22714857D01*
X9010952Y-22763238D01*
X8914190Y-22811619D01*
X8817428Y-22811619D01*
X8720666Y-22763238D01*
X8672285Y-22714857D01*
X8623904Y-22618095D01*
X8575523Y-22424571D01*
X8575523Y-22182666D01*
X8623904Y-21989142D01*
X8672285Y-21892380D01*
X8720666Y-21844000D01*
X8817428Y-21795619D01*
%TO.C,J3*%
X31919333Y-29669619D02*
X31919333Y-30395333D01*
X31870952Y-30540476D01*
X31774190Y-30637238D01*
X31629047Y-30685619D01*
X31532285Y-30685619D01*
X32306380Y-29669619D02*
X32935333Y-29669619D01*
X32596666Y-30056666D01*
X32741809Y-30056666D01*
X32838571Y-30105047D01*
X32886952Y-30153428D01*
X32935333Y-30250190D01*
X32935333Y-30492095D01*
X32886952Y-30588857D01*
X32838571Y-30637238D01*
X32741809Y-30685619D01*
X32451523Y-30685619D01*
X32354761Y-30637238D01*
X32306380Y-30588857D01*
%TO.C,H3*%
X3035904Y-51767619D02*
X3035904Y-50751619D01*
X3035904Y-51235428D02*
X3616476Y-51235428D01*
X3616476Y-51767619D02*
X3616476Y-50751619D01*
X4003523Y-50751619D02*
X4632476Y-50751619D01*
X4293809Y-51138666D01*
X4438952Y-51138666D01*
X4535714Y-51187047D01*
X4584095Y-51235428D01*
X4632476Y-51332190D01*
X4632476Y-51574095D01*
X4584095Y-51670857D01*
X4535714Y-51719238D01*
X4438952Y-51767619D01*
X4148666Y-51767619D01*
X4051904Y-51719238D01*
X4003523Y-51670857D01*
%TO.C,R11*%
X40591619Y-25291142D02*
X40107809Y-25629809D01*
X40591619Y-25871714D02*
X39575619Y-25871714D01*
X39575619Y-25484666D01*
X39624000Y-25387904D01*
X39672380Y-25339523D01*
X39769142Y-25291142D01*
X39914285Y-25291142D01*
X40011047Y-25339523D01*
X40059428Y-25387904D01*
X40107809Y-25484666D01*
X40107809Y-25871714D01*
X40591619Y-24323523D02*
X40591619Y-24904095D01*
X40591619Y-24613809D02*
X39575619Y-24613809D01*
X39720761Y-24710571D01*
X39817523Y-24807333D01*
X39865904Y-24904095D01*
X40591619Y-23355904D02*
X40591619Y-23936476D01*
X40591619Y-23646190D02*
X39575619Y-23646190D01*
X39720761Y-23742952D01*
X39817523Y-23839714D01*
X39865904Y-23936476D01*
%TO.C,H4*%
X53454904Y-51894619D02*
X53454904Y-50878619D01*
X53454904Y-51362428D02*
X54035476Y-51362428D01*
X54035476Y-51894619D02*
X54035476Y-50878619D01*
X54954714Y-51217285D02*
X54954714Y-51894619D01*
X54712809Y-50830238D02*
X54470904Y-51555952D01*
X55099857Y-51555952D01*
%TO.C,C25*%
X27286857Y-27069142D02*
X27335238Y-27117523D01*
X27383619Y-27262666D01*
X27383619Y-27359428D01*
X27335238Y-27504571D01*
X27238476Y-27601333D01*
X27141714Y-27649714D01*
X26948190Y-27698095D01*
X26803047Y-27698095D01*
X26609523Y-27649714D01*
X26512761Y-27601333D01*
X26416000Y-27504571D01*
X26367619Y-27359428D01*
X26367619Y-27262666D01*
X26416000Y-27117523D01*
X26464380Y-27069142D01*
X26464380Y-26682095D02*
X26416000Y-26633714D01*
X26367619Y-26536952D01*
X26367619Y-26295047D01*
X26416000Y-26198285D01*
X26464380Y-26149904D01*
X26561142Y-26101523D01*
X26657904Y-26101523D01*
X26803047Y-26149904D01*
X27383619Y-26730476D01*
X27383619Y-26101523D01*
X26367619Y-25182285D02*
X26367619Y-25666095D01*
X26851428Y-25714476D01*
X26803047Y-25666095D01*
X26754666Y-25569333D01*
X26754666Y-25327428D01*
X26803047Y-25230666D01*
X26851428Y-25182285D01*
X26948190Y-25133904D01*
X27190095Y-25133904D01*
X27286857Y-25182285D01*
X27335238Y-25230666D01*
X27383619Y-25327428D01*
X27383619Y-25569333D01*
X27335238Y-25666095D01*
X27286857Y-25714476D01*
%TO.C,C6*%
X17102666Y-29064857D02*
X17054285Y-29113238D01*
X16909142Y-29161619D01*
X16812380Y-29161619D01*
X16667238Y-29113238D01*
X16570476Y-29016476D01*
X16522095Y-28919714D01*
X16473714Y-28726190D01*
X16473714Y-28581047D01*
X16522095Y-28387523D01*
X16570476Y-28290761D01*
X16667238Y-28194000D01*
X16812380Y-28145619D01*
X16909142Y-28145619D01*
X17054285Y-28194000D01*
X17102666Y-28242380D01*
X17973523Y-28145619D02*
X17780000Y-28145619D01*
X17683238Y-28194000D01*
X17634857Y-28242380D01*
X17538095Y-28387523D01*
X17489714Y-28581047D01*
X17489714Y-28968095D01*
X17538095Y-29064857D01*
X17586476Y-29113238D01*
X17683238Y-29161619D01*
X17876761Y-29161619D01*
X17973523Y-29113238D01*
X18021904Y-29064857D01*
X18070285Y-28968095D01*
X18070285Y-28726190D01*
X18021904Y-28629428D01*
X17973523Y-28581047D01*
X17876761Y-28532666D01*
X17683238Y-28532666D01*
X17586476Y-28581047D01*
X17538095Y-28629428D01*
X17489714Y-28726190D01*
%TO.C,D2*%
X3253619Y-6083904D02*
X2237619Y-6083904D01*
X2237619Y-5842000D01*
X2286000Y-5696857D01*
X2382761Y-5600095D01*
X2479523Y-5551714D01*
X2673047Y-5503333D01*
X2818190Y-5503333D01*
X3011714Y-5551714D01*
X3108476Y-5600095D01*
X3205238Y-5696857D01*
X3253619Y-5842000D01*
X3253619Y-6083904D01*
X2334380Y-5116285D02*
X2286000Y-5067904D01*
X2237619Y-4971142D01*
X2237619Y-4729238D01*
X2286000Y-4632476D01*
X2334380Y-4584095D01*
X2431142Y-4535714D01*
X2527904Y-4535714D01*
X2673047Y-4584095D01*
X3253619Y-5164666D01*
X3253619Y-4535714D01*
%TO.C,C4*%
X17102666Y-30588857D02*
X17054285Y-30637238D01*
X16909142Y-30685619D01*
X16812380Y-30685619D01*
X16667238Y-30637238D01*
X16570476Y-30540476D01*
X16522095Y-30443714D01*
X16473714Y-30250190D01*
X16473714Y-30105047D01*
X16522095Y-29911523D01*
X16570476Y-29814761D01*
X16667238Y-29718000D01*
X16812380Y-29669619D01*
X16909142Y-29669619D01*
X17054285Y-29718000D01*
X17102666Y-29766380D01*
X17973523Y-30008285D02*
X17973523Y-30685619D01*
X17731619Y-29621238D02*
X17489714Y-30346952D01*
X18118666Y-30346952D01*
%TO.C,C3*%
X34374666Y-30588857D02*
X34326285Y-30637238D01*
X34181142Y-30685619D01*
X34084380Y-30685619D01*
X33939238Y-30637238D01*
X33842476Y-30540476D01*
X33794095Y-30443714D01*
X33745714Y-30250190D01*
X33745714Y-30105047D01*
X33794095Y-29911523D01*
X33842476Y-29814761D01*
X33939238Y-29718000D01*
X34084380Y-29669619D01*
X34181142Y-29669619D01*
X34326285Y-29718000D01*
X34374666Y-29766380D01*
X34713333Y-29669619D02*
X35342285Y-29669619D01*
X35003619Y-30056666D01*
X35148761Y-30056666D01*
X35245523Y-30105047D01*
X35293904Y-30153428D01*
X35342285Y-30250190D01*
X35342285Y-30492095D01*
X35293904Y-30588857D01*
X35245523Y-30637238D01*
X35148761Y-30685619D01*
X34858476Y-30685619D01*
X34761714Y-30637238D01*
X34713333Y-30588857D01*
%TO.C,R34*%
X967619Y-30625142D02*
X483809Y-30963809D01*
X967619Y-31205714D02*
X-48381Y-31205714D01*
X-48381Y-30818666D01*
X0Y-30721904D01*
X48380Y-30673523D01*
X145142Y-30625142D01*
X290285Y-30625142D01*
X387047Y-30673523D01*
X435428Y-30721904D01*
X483809Y-30818666D01*
X483809Y-31205714D01*
X-48381Y-30286476D02*
X-48381Y-29657523D01*
X338666Y-29996190D01*
X338666Y-29851047D01*
X387047Y-29754285D01*
X435428Y-29705904D01*
X532190Y-29657523D01*
X774095Y-29657523D01*
X870857Y-29705904D01*
X919238Y-29754285D01*
X967619Y-29851047D01*
X967619Y-30141333D01*
X919238Y-30238095D01*
X870857Y-30286476D01*
X290285Y-28786666D02*
X967619Y-28786666D01*
X-96762Y-29028571D02*
X628952Y-29270476D01*
X628952Y-28641523D01*
%TO.C,C59*%
X13824857Y-25762857D02*
X13776476Y-25811238D01*
X13631333Y-25859619D01*
X13534571Y-25859619D01*
X13389428Y-25811238D01*
X13292666Y-25714476D01*
X13244285Y-25617714D01*
X13195904Y-25424190D01*
X13195904Y-25279047D01*
X13244285Y-25085523D01*
X13292666Y-24988761D01*
X13389428Y-24892000D01*
X13534571Y-24843619D01*
X13631333Y-24843619D01*
X13776476Y-24892000D01*
X13824857Y-24940380D01*
X14744095Y-24843619D02*
X14260285Y-24843619D01*
X14211904Y-25327428D01*
X14260285Y-25279047D01*
X14357047Y-25230666D01*
X14598952Y-25230666D01*
X14695714Y-25279047D01*
X14744095Y-25327428D01*
X14792476Y-25424190D01*
X14792476Y-25666095D01*
X14744095Y-25762857D01*
X14695714Y-25811238D01*
X14598952Y-25859619D01*
X14357047Y-25859619D01*
X14260285Y-25811238D01*
X14211904Y-25762857D01*
X15276285Y-25859619D02*
X15469809Y-25859619D01*
X15566571Y-25811238D01*
X15614952Y-25762857D01*
X15711714Y-25617714D01*
X15760095Y-25424190D01*
X15760095Y-25037142D01*
X15711714Y-24940380D01*
X15663333Y-24892000D01*
X15566571Y-24843619D01*
X15373047Y-24843619D01*
X15276285Y-24892000D01*
X15227904Y-24940380D01*
X15179523Y-25037142D01*
X15179523Y-25279047D01*
X15227904Y-25375809D01*
X15276285Y-25424190D01*
X15373047Y-25472571D01*
X15566571Y-25472571D01*
X15663333Y-25424190D01*
X15711714Y-25375809D01*
X15760095Y-25279047D01*
%TO.C,J8*%
X50080333Y-3253619D02*
X50080333Y-3979333D01*
X50031952Y-4124476D01*
X49935190Y-4221238D01*
X49790047Y-4269619D01*
X49693285Y-4269619D01*
X50709285Y-3689047D02*
X50612523Y-3640666D01*
X50564142Y-3592285D01*
X50515761Y-3495523D01*
X50515761Y-3447142D01*
X50564142Y-3350380D01*
X50612523Y-3302000D01*
X50709285Y-3253619D01*
X50902809Y-3253619D01*
X50999571Y-3302000D01*
X51047952Y-3350380D01*
X51096333Y-3447142D01*
X51096333Y-3495523D01*
X51047952Y-3592285D01*
X50999571Y-3640666D01*
X50902809Y-3689047D01*
X50709285Y-3689047D01*
X50612523Y-3737428D01*
X50564142Y-3785809D01*
X50515761Y-3882571D01*
X50515761Y-4076095D01*
X50564142Y-4172857D01*
X50612523Y-4221238D01*
X50709285Y-4269619D01*
X50902809Y-4269619D01*
X50999571Y-4221238D01*
X51047952Y-4172857D01*
X51096333Y-4076095D01*
X51096333Y-3882571D01*
X51047952Y-3785809D01*
X50999571Y-3737428D01*
X50902809Y-3689047D01*
D12*
%TO.C,J5*%
X53129993Y-17840000D02*
X52019993Y-17840000D01*
X54589993Y-16150000D02*
X54239993Y-16150000D01*
X61511993Y-7560000D02*
X54589993Y-7560000D01*
X61511993Y-15240000D02*
X54589993Y-15240000D01*
X54589993Y-14330000D02*
X54179993Y-14330000D01*
X61511993Y-12700000D02*
X54589993Y-12700000D01*
X54589993Y-13610000D02*
X54179993Y-13610000D01*
X61511993Y-17840000D02*
X54589993Y-17840000D01*
X61511993Y-17840000D02*
X61511993Y-7560000D01*
X54589993Y-11790000D02*
X54179993Y-11790000D01*
X54589993Y-8530000D02*
X54179993Y-8530000D01*
X61511993Y-10160000D02*
X54589993Y-10160000D01*
X54589993Y-17840000D02*
X54589993Y-7560000D01*
X52019993Y-17840000D02*
X52019993Y-16510000D01*
X54589993Y-11070000D02*
X54179993Y-11070000D01*
X54589993Y-9250000D02*
X54179993Y-9250000D01*
X54589993Y-16870000D02*
X54239993Y-16870000D01*
%TO.C,J6*%
X61511993Y-25400000D02*
X54589993Y-25400000D01*
X61511993Y-27940000D02*
X54589993Y-27940000D01*
X54589993Y-21950000D02*
X54179993Y-21950000D01*
X61511993Y-20260000D02*
X54589993Y-20260000D01*
X54589993Y-30540000D02*
X54589993Y-20260000D01*
X61511993Y-30540000D02*
X61511993Y-20260000D01*
X53129993Y-30540000D02*
X52019993Y-30540000D01*
X61511993Y-30540000D02*
X54589993Y-30540000D01*
X54589993Y-23770000D02*
X54179993Y-23770000D01*
X54589993Y-24490000D02*
X54179993Y-24490000D01*
X54589993Y-26310000D02*
X54179993Y-26310000D01*
X52019993Y-30540000D02*
X52019993Y-29210000D01*
X61511993Y-22860000D02*
X54589993Y-22860000D01*
X54589993Y-28850000D02*
X54239993Y-28850000D01*
X54589993Y-27030000D02*
X54179993Y-27030000D01*
X54589993Y-21230000D02*
X54179993Y-21230000D01*
X54589993Y-29570000D02*
X54239993Y-29570000D01*
%TO.C,J4*%
X3409993Y-35500000D02*
X3409993Y-45780000D01*
X-3512007Y-38100000D02*
X3409993Y-38100000D01*
X-3512007Y-45780000D02*
X3409993Y-45780000D01*
X3409993Y-39010000D02*
X3819993Y-39010000D01*
X-3512007Y-35500000D02*
X-3512007Y-45780000D01*
X5979993Y-35500000D02*
X5979993Y-36830000D01*
X3409993Y-41550000D02*
X3819993Y-41550000D01*
X3409993Y-44810000D02*
X3819993Y-44810000D01*
X3409993Y-39730000D02*
X3819993Y-39730000D01*
X3409993Y-37190000D02*
X3759993Y-37190000D01*
X3409993Y-36470000D02*
X3759993Y-36470000D01*
X-3512007Y-35500000D02*
X3409993Y-35500000D01*
X3409993Y-42270000D02*
X3819993Y-42270000D01*
X3409993Y-44090000D02*
X3819993Y-44090000D01*
X-3512007Y-43180000D02*
X3409993Y-43180000D01*
X-3512007Y-40640000D02*
X3409993Y-40640000D01*
X4869993Y-35500000D02*
X5979993Y-35500000D01*
%TO.C,C24*%
X24786000Y-23768164D02*
X24786000Y-23983836D01*
X25506000Y-23768164D02*
X25506000Y-23983836D01*
%TO.C,C62*%
X10054000Y-19761252D02*
X10054000Y-18338748D01*
X8234000Y-19761252D02*
X8234000Y-18338748D01*
%TO.C,C64*%
X10520000Y-19761252D02*
X10520000Y-18338748D01*
X12340000Y-19761252D02*
X12340000Y-18338748D01*
%TO.C,SW1*%
X4352936Y-7472000D02*
X5807064Y-7472000D01*
X4352936Y-9292000D02*
X5807064Y-9292000D01*
%TO.C,R12*%
X16016500Y-44878258D02*
X16016500Y-44403742D01*
X14971500Y-44878258D02*
X14971500Y-44403742D01*
%TO.C,R10*%
X40879500Y-14461258D02*
X40879500Y-13986742D01*
X41924500Y-14461258D02*
X41924500Y-13986742D01*
%TO.C,C46*%
X20935836Y-15854000D02*
X20720164Y-15854000D01*
X20935836Y-15134000D02*
X20720164Y-15134000D01*
%TO.C,U3*%
X5702000Y-27764000D02*
X5002000Y-27764000D01*
X5002000Y-27764000D02*
X5002000Y-27064000D01*
X9222000Y-23544000D02*
X9222000Y-24244000D01*
X8522000Y-27764000D02*
X9222000Y-27764000D01*
X5702000Y-23544000D02*
X5002000Y-23544000D01*
X9222000Y-27764000D02*
X9222000Y-27064000D01*
X8522000Y-23544000D02*
X9222000Y-23544000D01*
%TO.C,C14*%
X15232748Y-13943000D02*
X15755252Y-13943000D01*
X15232748Y-12473000D02*
X15755252Y-12473000D01*
%TO.C,U4*%
X7216000Y-9930000D02*
X7216000Y-11930000D01*
X4976000Y-11930000D02*
X4976000Y-10930000D01*
%TO.C,C63*%
X3075000Y-11168748D02*
X3075000Y-11691252D01*
X4545000Y-11168748D02*
X4545000Y-11691252D01*
%TO.C,R32*%
X-1538500Y-26940742D02*
X-1538500Y-27415258D01*
X-493500Y-26940742D02*
X-493500Y-27415258D01*
%TO.C,R4*%
X22620500Y-29701258D02*
X22620500Y-29226742D01*
X21575500Y-29701258D02*
X21575500Y-29226742D01*
%TO.C,C1*%
X44960000Y-29323420D02*
X44960000Y-29604580D01*
X43940000Y-29323420D02*
X43940000Y-29604580D01*
%TO.C,C29*%
X31602000Y-23768164D02*
X31602000Y-23983836D01*
X30882000Y-23768164D02*
X30882000Y-23983836D01*
%TO.C,C42*%
X23474000Y-13315836D02*
X23474000Y-13100164D01*
X22754000Y-13315836D02*
X22754000Y-13100164D01*
%TO.C,C11*%
X45161252Y-11790000D02*
X43738748Y-11790000D01*
X45161252Y-13610000D02*
X43738748Y-13610000D01*
%TO.C,C12*%
X45161252Y-22204000D02*
X43738748Y-22204000D01*
X45161252Y-24024000D02*
X43738748Y-24024000D01*
%TO.C,R24*%
X33259500Y-26432742D02*
X33259500Y-26907258D01*
X34304500Y-26432742D02*
X34304500Y-26907258D01*
%TO.C,J2*%
X2Y-4190002D02*
X2060002Y-4190002D01*
X2060002Y-4190002D02*
X2060002Y-12310002D01*
X-2059998Y-6250002D02*
X2Y-6250002D01*
X-2059998Y-4190002D02*
X-999998Y-4190002D01*
X-2059998Y-12310002D02*
X2060002Y-12310002D01*
X-2059998Y-6250002D02*
X-2059998Y-12310002D01*
X2Y-6250002D02*
X2Y-4190002D01*
X-2059998Y-5250002D02*
X-2059998Y-4190002D01*
%TO.C,R30*%
X12714500Y-22876742D02*
X12714500Y-23351258D01*
X11669500Y-22876742D02*
X11669500Y-23351258D01*
%TO.C,C32*%
X31388164Y-19198000D02*
X31603836Y-19198000D01*
X31388164Y-19918000D02*
X31603836Y-19918000D01*
%TO.C,C22*%
X22754000Y-23768164D02*
X22754000Y-23983836D01*
X23474000Y-23768164D02*
X23474000Y-23983836D01*
%TO.C,C49*%
X8882748Y-3329000D02*
X9405252Y-3329000D01*
X8882748Y-4799000D02*
X9405252Y-4799000D01*
%TO.C,C53*%
X10520000Y-31038748D02*
X10520000Y-32461252D01*
X12340000Y-31038748D02*
X12340000Y-32461252D01*
%TO.C,C16*%
X20935836Y-19198000D02*
X20720164Y-19198000D01*
X20935836Y-19918000D02*
X20720164Y-19918000D01*
%TO.C,C61*%
X3450000Y-26777836D02*
X3450000Y-26562164D01*
X4170000Y-26777836D02*
X4170000Y-26562164D01*
%TO.C,C20*%
X21442000Y-23768164D02*
X21442000Y-23983836D01*
X20722000Y-23768164D02*
X20722000Y-23983836D01*
%TO.C,L3*%
X5026000Y-13640000D02*
X4626000Y-13640000D01*
X5026000Y-16840000D02*
X4626000Y-16840000D01*
%TO.C,C27*%
X28850000Y-23768164D02*
X28850000Y-23983836D01*
X29570000Y-23768164D02*
X29570000Y-23983836D01*
%TO.C,R13*%
X41924500Y-10938742D02*
X41924500Y-11413258D01*
X40879500Y-10938742D02*
X40879500Y-11413258D01*
%TO.C,R27*%
X11190500Y-27923258D02*
X11190500Y-27448742D01*
X10145500Y-27923258D02*
X10145500Y-27448742D01*
%TO.C,C17*%
X20935836Y-20214000D02*
X20720164Y-20214000D01*
X20935836Y-20934000D02*
X20720164Y-20934000D01*
%TO.C,R28*%
X-2017500Y-17509258D02*
X-2017500Y-17034742D01*
X-3062500Y-17509258D02*
X-3062500Y-17034742D01*
%TO.C,C50*%
X49383836Y-5482000D02*
X49168164Y-5482000D01*
X49383836Y-6202000D02*
X49168164Y-6202000D01*
%TO.C,C30*%
X31388164Y-21205997D02*
X31603836Y-21205997D01*
X31388164Y-21925997D02*
X31603836Y-21925997D01*
%TO.C,R31*%
X10145500Y-23351258D02*
X10145500Y-22876742D01*
X11190500Y-23351258D02*
X11190500Y-22876742D01*
%TO.C,C43*%
X22458000Y-13315836D02*
X22458000Y-13100164D01*
X21738000Y-13315836D02*
X21738000Y-13100164D01*
%TO.C,C52*%
X10090000Y-31038748D02*
X10090000Y-32461252D01*
X8270000Y-31038748D02*
X8270000Y-32461252D01*
%TO.C,C23*%
X24490000Y-23768164D02*
X24490000Y-23983836D01*
X23770000Y-23768164D02*
X23770000Y-23983836D01*
%TO.C,R29*%
X-1538500Y-17034742D02*
X-1538500Y-17509258D01*
X-493500Y-17034742D02*
X-493500Y-17509258D01*
%TO.C,C36*%
X31388164Y-15854000D02*
X31603836Y-15854000D01*
X31388164Y-15134000D02*
X31603836Y-15134000D01*
%TO.C,L2*%
X6926000Y-20053000D02*
X6926000Y-19063000D01*
X2726000Y-20053000D02*
X2726000Y-19063000D01*
%TO.C,C34*%
X31388164Y-17166000D02*
X31603836Y-17166000D01*
X31388164Y-17886000D02*
X31603836Y-17886000D01*
%TO.C,C15*%
X15232748Y-16537000D02*
X15755252Y-16537000D01*
X15232748Y-18007000D02*
X15755252Y-18007000D01*
%TO.C,G\u002A\u002A\u002A*%
G36*
X61262672Y-39267158D02*
G01*
X61260031Y-39278598D01*
X61249844Y-39279987D01*
X61234005Y-39272946D01*
X61237015Y-39267158D01*
X61259852Y-39264855D01*
X61262672Y-39267158D01*
G37*
G36*
X56971611Y-42153522D02*
G01*
X56973914Y-42176358D01*
X56971611Y-42179178D01*
X56960172Y-42176537D01*
X56958783Y-42166350D01*
X56965824Y-42150511D01*
X56971611Y-42153522D01*
G37*
G36*
X56952369Y-42230492D02*
G01*
X56954672Y-42253328D01*
X56952369Y-42256148D01*
X56940929Y-42253507D01*
X56939541Y-42243320D01*
X56946581Y-42227481D01*
X56952369Y-42230492D01*
G37*
G36*
X56939541Y-42349153D02*
G01*
X56929919Y-42358774D01*
X56920298Y-42349153D01*
X56929919Y-42339532D01*
X56939541Y-42349153D01*
G37*
G36*
X56112117Y-35468503D02*
G01*
X56075895Y-35495297D01*
X56029320Y-35526693D01*
X55966811Y-35567566D01*
X55910180Y-35604848D01*
X55881207Y-35624104D01*
X55829931Y-35656651D01*
X55767891Y-35693395D01*
X55702852Y-35730116D01*
X55642576Y-35762593D01*
X55594829Y-35786605D01*
X55567374Y-35797932D01*
X55564081Y-35796502D01*
X55587667Y-35774000D01*
X55635993Y-35738352D01*
X55702482Y-35693558D01*
X55780554Y-35643618D01*
X55863630Y-35592529D01*
X55945132Y-35544290D01*
X56018479Y-35502901D01*
X56077093Y-35472361D01*
X56114395Y-35456668D01*
X56123974Y-35456188D01*
X56112117Y-35468503D01*
G37*
G36*
X56933406Y-33157306D02*
G01*
X56970711Y-33195048D01*
X57015631Y-33247487D01*
X57098999Y-33366638D01*
X57173934Y-33509008D01*
X57233053Y-33659346D01*
X57258163Y-33748321D01*
X57269603Y-33819448D01*
X57277373Y-33913068D01*
X57281495Y-34019674D01*
X57281987Y-34129761D01*
X57278869Y-34233824D01*
X57272161Y-34322357D01*
X57261883Y-34385853D01*
X57256809Y-34402032D01*
X57249498Y-34424749D01*
X57259181Y-34422772D01*
X57290889Y-34395328D01*
X57354418Y-34313639D01*
X57403155Y-34199550D01*
X57436338Y-34056496D01*
X57453204Y-33887915D01*
X57452989Y-33697242D01*
X57451678Y-33671208D01*
X57445642Y-33574908D01*
X57438964Y-33487592D01*
X57432491Y-33419358D01*
X57427457Y-33382183D01*
X57416136Y-33324456D01*
X57464800Y-33372562D01*
X57513198Y-33427445D01*
X57573606Y-33506194D01*
X57639313Y-33599054D01*
X57703609Y-33696267D01*
X57759783Y-33788076D01*
X57795653Y-33853623D01*
X57832713Y-33934393D01*
X57872689Y-34032716D01*
X57907755Y-34129189D01*
X57912093Y-34142259D01*
X57935643Y-34219110D01*
X57951177Y-34285861D01*
X57960313Y-34354667D01*
X57964668Y-34437684D01*
X57965859Y-34546350D01*
X57964185Y-34667793D01*
X57958363Y-34757949D01*
X57947714Y-34823857D01*
X57935267Y-34863850D01*
X57916631Y-34903693D01*
X57904541Y-34917106D01*
X57902346Y-34911956D01*
X57891037Y-34823411D01*
X57870205Y-34719479D01*
X57843515Y-34615158D01*
X57814630Y-34525447D01*
X57798299Y-34485987D01*
X57766326Y-34426873D01*
X57726555Y-34365057D01*
X57684829Y-34308140D01*
X57646990Y-34263723D01*
X57618880Y-34239409D01*
X57608075Y-34238471D01*
X57595855Y-34258803D01*
X57570576Y-34305088D01*
X57536729Y-34369028D01*
X57519547Y-34402032D01*
X57404103Y-34595018D01*
X57265226Y-34777346D01*
X57110214Y-34940777D01*
X56946363Y-35077072D01*
X56884089Y-35119531D01*
X56844007Y-35141464D01*
X56778390Y-35173279D01*
X56694079Y-35212041D01*
X56597919Y-35254815D01*
X56496752Y-35298664D01*
X56397423Y-35340654D01*
X56306774Y-35377847D01*
X56231649Y-35407309D01*
X56178891Y-35426105D01*
X56156849Y-35431502D01*
X56167546Y-35420066D01*
X56202399Y-35388979D01*
X56255872Y-35343074D01*
X56318242Y-35290666D01*
X56533123Y-35090156D01*
X56713426Y-34875651D01*
X56858461Y-34648179D01*
X56967536Y-34408768D01*
X57018598Y-34248093D01*
X57055065Y-34046309D01*
X57063419Y-33830018D01*
X57044496Y-33610073D01*
X56999130Y-33397325D01*
X56940248Y-33229895D01*
X56919111Y-33174949D01*
X56916518Y-33150679D01*
X56933406Y-33157306D01*
G37*
G36*
X57557340Y-35023975D02*
G01*
X57573671Y-35098217D01*
X57573259Y-35177908D01*
X57554724Y-35268871D01*
X57516687Y-35376931D01*
X57457769Y-35507913D01*
X57428968Y-35566199D01*
X57359150Y-35698843D01*
X57297426Y-35802223D01*
X57239283Y-35883431D01*
X57194120Y-35935311D01*
X57090111Y-36044650D01*
X57168774Y-36094307D01*
X57302248Y-36156404D01*
X57460913Y-36190722D01*
X57643487Y-36197418D01*
X57848688Y-36176645D01*
X58075234Y-36128558D01*
X58321843Y-36053312D01*
X58587233Y-35951063D01*
X58677083Y-35912147D01*
X58755016Y-35878831D01*
X58815844Y-35855383D01*
X58853731Y-35843857D01*
X58862842Y-35846308D01*
X58862391Y-35846891D01*
X58826174Y-35879743D01*
X58762029Y-35927027D01*
X58675968Y-35985029D01*
X58574004Y-36050036D01*
X58462148Y-36118336D01*
X58346413Y-36186215D01*
X58232809Y-36249962D01*
X58127350Y-36305862D01*
X58084465Y-36327316D01*
X57773115Y-36465949D01*
X57468364Y-36574656D01*
X57175381Y-36651647D01*
X57108222Y-36665052D01*
X56991628Y-36690385D01*
X56848250Y-36727114D01*
X56687098Y-36772506D01*
X56517183Y-36823826D01*
X56347517Y-36878339D01*
X56187111Y-36933309D01*
X56044976Y-36986003D01*
X56025525Y-36993645D01*
X55763573Y-37104974D01*
X55526534Y-37220998D01*
X55317488Y-37339913D01*
X55139512Y-37459916D01*
X54995682Y-37579206D01*
X54952075Y-37622445D01*
X54860823Y-37730256D01*
X54804614Y-37828721D01*
X54783522Y-37922456D01*
X54797618Y-38016081D01*
X54846973Y-38114213D01*
X54931659Y-38221471D01*
X54961875Y-38253938D01*
X55072072Y-38355150D01*
X55215384Y-38464275D01*
X55387830Y-38578978D01*
X55585428Y-38696926D01*
X55804197Y-38815783D01*
X56040158Y-38933215D01*
X56289329Y-39046887D01*
X56381510Y-39086444D01*
X56480240Y-39128176D01*
X56568747Y-39165716D01*
X56639897Y-39196027D01*
X56686551Y-39216071D01*
X56699010Y-39221542D01*
X56701535Y-39229595D01*
X56669625Y-39234714D01*
X56607228Y-39236822D01*
X56518287Y-39235845D01*
X56406748Y-39231705D01*
X56343025Y-39228385D01*
X56226337Y-39219853D01*
X56083414Y-39206455D01*
X55926004Y-39189550D01*
X55765850Y-39170493D01*
X55614697Y-39150642D01*
X55484292Y-39131353D01*
X55441184Y-39124205D01*
X55099574Y-39055089D01*
X54792461Y-38971588D01*
X54518454Y-38873215D01*
X54276160Y-38759482D01*
X54100119Y-38654386D01*
X53926524Y-38520623D01*
X53789401Y-38374678D01*
X53688746Y-38216646D01*
X53624556Y-38046619D01*
X53596830Y-37864693D01*
X53605562Y-37670962D01*
X53650752Y-37465519D01*
X53732396Y-37248459D01*
X53850490Y-37019876D01*
X54005033Y-36779864D01*
X54165155Y-36566805D01*
X54215888Y-36505666D01*
X54280151Y-36431865D01*
X54353590Y-36350008D01*
X54431854Y-36264703D01*
X54510588Y-36180556D01*
X54585439Y-36102176D01*
X54652055Y-36034168D01*
X54706083Y-35981140D01*
X54743169Y-35947698D01*
X54758911Y-35938398D01*
X54756360Y-35958338D01*
X54744244Y-36006980D01*
X54724668Y-36076353D01*
X54706831Y-36135651D01*
X54655496Y-36307013D01*
X54616947Y-36445988D01*
X54591232Y-36552056D01*
X54578402Y-36624691D01*
X54578504Y-36663371D01*
X54591588Y-36667573D01*
X54617703Y-36636774D01*
X54656898Y-36570449D01*
X54668085Y-36549513D01*
X54758429Y-36403669D01*
X54869439Y-36272346D01*
X55003732Y-36153956D01*
X55163925Y-36046914D01*
X55352635Y-35949633D01*
X55572481Y-35860526D01*
X55826078Y-35778006D01*
X56035543Y-35720626D01*
X56223945Y-35671088D01*
X56382766Y-35626023D01*
X56520204Y-35582565D01*
X56644457Y-35537852D01*
X56763723Y-35489020D01*
X56886201Y-35433206D01*
X56958279Y-35398308D01*
X57065482Y-35344431D01*
X57147020Y-35299779D01*
X57212375Y-35257902D01*
X57271030Y-35212351D01*
X57332470Y-35156678D01*
X57376425Y-35113947D01*
X57535302Y-34957201D01*
X57557340Y-35023975D01*
G37*
G36*
X58203504Y-41043477D02*
G01*
X58199919Y-41050290D01*
X58181789Y-41068666D01*
X58178406Y-41069532D01*
X58177093Y-41057102D01*
X58180677Y-41050290D01*
X58198807Y-41031913D01*
X58202191Y-41031047D01*
X58203504Y-41043477D01*
G37*
G36*
X56875515Y-38144683D02*
G01*
X56979701Y-37851252D01*
X57117333Y-37574962D01*
X57286258Y-37318339D01*
X57484320Y-37083912D01*
X57709364Y-36874207D01*
X57959233Y-36691754D01*
X58231774Y-36539079D01*
X58253436Y-36528725D01*
X58361093Y-36478103D01*
X58437027Y-36444155D01*
X58484382Y-36427258D01*
X58506300Y-36427793D01*
X58505924Y-36446137D01*
X58486397Y-36482669D01*
X58450861Y-36537770D01*
X58441854Y-36551439D01*
X58338785Y-36720948D01*
X58249041Y-36894572D01*
X58175203Y-37065715D01*
X58119850Y-37227780D01*
X58085563Y-37374171D01*
X58074844Y-37489535D01*
X58090155Y-37642148D01*
X58135558Y-37772776D01*
X58210255Y-37879842D01*
X58313447Y-37961768D01*
X58313890Y-37962028D01*
X58369442Y-37991252D01*
X58412702Y-38001434D01*
X58462664Y-37995946D01*
X58481609Y-37991791D01*
X58583439Y-37977020D01*
X58703064Y-37972795D01*
X58824070Y-37978750D01*
X58930047Y-37994517D01*
X58961313Y-38002511D01*
X59098157Y-38052313D01*
X59216853Y-38117824D01*
X59330046Y-38206836D01*
X59396709Y-38270833D01*
X59469339Y-38348753D01*
X59526701Y-38422466D01*
X59578057Y-38505355D01*
X59632669Y-38610802D01*
X59634287Y-38614109D01*
X59692513Y-38726005D01*
X59748360Y-38812897D01*
X59810659Y-38884620D01*
X59888245Y-38951013D01*
X59989952Y-39021911D01*
X60015226Y-39038309D01*
X60218516Y-39151419D01*
X60422599Y-39228658D01*
X60629275Y-39271756D01*
X60688455Y-39281383D01*
X60718668Y-39293927D01*
X60729341Y-39314966D01*
X60730298Y-39331527D01*
X60746729Y-39406892D01*
X60789960Y-39472071D01*
X60844845Y-39510520D01*
X60885085Y-39534757D01*
X60903377Y-39560720D01*
X60903480Y-39562401D01*
X60885675Y-39588005D01*
X60836395Y-39618811D01*
X60761845Y-39652188D01*
X60668230Y-39685503D01*
X60561755Y-39716124D01*
X60513460Y-39727831D01*
X60468360Y-39737651D01*
X60424153Y-39745776D01*
X60376720Y-39752380D01*
X60321942Y-39757636D01*
X60255699Y-39761718D01*
X60173872Y-39764799D01*
X60072341Y-39767053D01*
X59946987Y-39768653D01*
X59793691Y-39769773D01*
X59608333Y-39770586D01*
X59489162Y-39770971D01*
X59265670Y-39771870D01*
X59076387Y-39773386D01*
X58917037Y-39775925D01*
X58783343Y-39779893D01*
X58671030Y-39785695D01*
X58575821Y-39793737D01*
X58493442Y-39804425D01*
X58419617Y-39818164D01*
X58350068Y-39835360D01*
X58280521Y-39856419D01*
X58206700Y-39881746D01*
X58165789Y-39896524D01*
X58026168Y-39953073D01*
X57909672Y-40014182D01*
X57801115Y-40088111D01*
X57771784Y-40110876D01*
X57724551Y-40153715D01*
X57671338Y-40210038D01*
X57619036Y-40271424D01*
X57574532Y-40329451D01*
X57544715Y-40375699D01*
X57536056Y-40399036D01*
X57549505Y-40396892D01*
X57585059Y-40374433D01*
X57635531Y-40336302D01*
X57645058Y-40328611D01*
X57769655Y-40238483D01*
X57882467Y-40180127D01*
X57981564Y-40154268D01*
X58065014Y-40161633D01*
X58077174Y-40166103D01*
X58121502Y-40191140D01*
X58127489Y-40214417D01*
X58095078Y-40237066D01*
X58073245Y-40245548D01*
X58004876Y-40273131D01*
X57915029Y-40314475D01*
X57815318Y-40363696D01*
X57717361Y-40414911D01*
X57632770Y-40462237D01*
X57577938Y-40496454D01*
X57395241Y-40645084D01*
X57233321Y-40825213D01*
X57231417Y-40827682D01*
X57194943Y-40875396D01*
X57173630Y-40905895D01*
X57170280Y-40918325D01*
X57187695Y-40911830D01*
X57228675Y-40885555D01*
X57296023Y-40838643D01*
X57372138Y-40784709D01*
X57520320Y-40686288D01*
X57659506Y-40606882D01*
X57785916Y-40548028D01*
X57895771Y-40511266D01*
X57985290Y-40498135D01*
X58048817Y-40509293D01*
X58082143Y-40531942D01*
X58081771Y-40550756D01*
X58058558Y-40565541D01*
X58007610Y-40593387D01*
X57935858Y-40630641D01*
X57850233Y-40673647D01*
X57826475Y-40685359D01*
X57679105Y-40759706D01*
X57560044Y-40824743D01*
X57461730Y-40885105D01*
X57376602Y-40945430D01*
X57298512Y-41009128D01*
X57135448Y-41174177D01*
X57005612Y-41357425D01*
X56909967Y-41557250D01*
X56851478Y-41761826D01*
X56835397Y-41879825D01*
X56828271Y-42018558D01*
X56829810Y-42164701D01*
X56839723Y-42304926D01*
X56857721Y-42425908D01*
X56866765Y-42464608D01*
X56880015Y-42537873D01*
X56884334Y-42630006D01*
X56880097Y-42749961D01*
X56879281Y-42762865D01*
X56874662Y-42904807D01*
X56876692Y-43074302D01*
X56884794Y-43261103D01*
X56898391Y-43454961D01*
X56916908Y-43645630D01*
X56938356Y-43813282D01*
X56951607Y-43905921D01*
X56962141Y-43983439D01*
X56969022Y-44038649D01*
X56971316Y-44064362D01*
X56971154Y-44065322D01*
X56963776Y-44050233D01*
X56947180Y-44006905D01*
X56924468Y-43943560D01*
X56915668Y-43918239D01*
X56881884Y-43834244D01*
X56834477Y-43734228D01*
X56781244Y-43634141D01*
X56753950Y-43587524D01*
X56576054Y-43267358D01*
X56429996Y-42943801D01*
X56316570Y-42619782D01*
X56236569Y-42298234D01*
X56190790Y-41982087D01*
X56180027Y-41674271D01*
X56189616Y-41506350D01*
X56217049Y-41296121D01*
X56259137Y-41089750D01*
X56312912Y-40900377D01*
X56348722Y-40802424D01*
X56372050Y-40742939D01*
X56387316Y-40700608D01*
X56391211Y-40684683D01*
X56380242Y-40700369D01*
X56352859Y-40743943D01*
X56312266Y-40810184D01*
X56261663Y-40893870D01*
X56208329Y-40982941D01*
X56151086Y-41078228D01*
X56100579Y-41160919D01*
X56060072Y-41225784D01*
X56032827Y-41267592D01*
X56022254Y-41281199D01*
X56019275Y-41262893D01*
X56021797Y-41210805D01*
X56029402Y-41129181D01*
X56041672Y-41022266D01*
X56058188Y-40894306D01*
X56065828Y-40838623D01*
X56122267Y-40529642D01*
X56202851Y-40233126D01*
X56305578Y-39954106D01*
X56428448Y-39697615D01*
X56569460Y-39468684D01*
X56656420Y-39353396D01*
X56740962Y-39249601D01*
X56752712Y-38961726D01*
X56771464Y-38691362D01*
X56805438Y-38445976D01*
X56816628Y-38395047D01*
X57119939Y-38395047D01*
X57125280Y-38477931D01*
X57141710Y-38578293D01*
X57167277Y-38687150D01*
X57200031Y-38795517D01*
X57238020Y-38894412D01*
X57257247Y-38935300D01*
X57287410Y-38987944D01*
X57318785Y-39032476D01*
X57344267Y-39059662D01*
X57355444Y-39062922D01*
X57352144Y-39043503D01*
X57338203Y-38997561D01*
X57316529Y-38934592D01*
X57313854Y-38927188D01*
X57283896Y-38839255D01*
X57272300Y-38801071D01*
X58199919Y-38801071D01*
X58288786Y-38788572D01*
X58387126Y-38790221D01*
X58467539Y-38825812D01*
X58531192Y-38895875D01*
X58533456Y-38899482D01*
X58604377Y-38990865D01*
X58685436Y-39056339D01*
X58748329Y-39084312D01*
X58817467Y-39101360D01*
X58854643Y-39103979D01*
X58863783Y-39095408D01*
X58853046Y-39073885D01*
X58827026Y-39037294D01*
X58825252Y-39035026D01*
X58799263Y-38989650D01*
X58769952Y-38920557D01*
X58742127Y-38841631D01*
X58720598Y-38766757D01*
X58710173Y-38709817D01*
X58709844Y-38701822D01*
X58720213Y-38661989D01*
X58747113Y-38653722D01*
X58784237Y-38677614D01*
X58798338Y-38693508D01*
X58829035Y-38744023D01*
X58860118Y-38814431D01*
X58887724Y-38892959D01*
X58907994Y-38967831D01*
X58917066Y-39027273D01*
X58915489Y-39050781D01*
X58911889Y-39074927D01*
X58923801Y-39084733D01*
X58959936Y-39083232D01*
X58994950Y-39078444D01*
X59054246Y-39065645D01*
X59099187Y-39048567D01*
X59110136Y-39041077D01*
X59123770Y-39015642D01*
X59141551Y-38967433D01*
X59159984Y-38908404D01*
X59175571Y-38850513D01*
X59184816Y-38805715D01*
X59184649Y-38786275D01*
X59163059Y-38776028D01*
X59113580Y-38756778D01*
X59044875Y-38731569D01*
X58965606Y-38703444D01*
X58884436Y-38675445D01*
X58810028Y-38650616D01*
X58751044Y-38632000D01*
X58723424Y-38624258D01*
X58590384Y-38610558D01*
X58459169Y-38634565D01*
X58332584Y-38695510D01*
X58257647Y-38751521D01*
X58199919Y-38801071D01*
X57272300Y-38801071D01*
X57256721Y-38749772D01*
X57234367Y-38666737D01*
X57218872Y-38598144D01*
X57212273Y-38551988D01*
X57214373Y-38536921D01*
X57232195Y-38543641D01*
X57266844Y-38572086D01*
X57295347Y-38600153D01*
X57365854Y-38673850D01*
X57353940Y-38616123D01*
X57335560Y-38512587D01*
X57330183Y-38430913D01*
X57338561Y-38356479D01*
X57361449Y-38274663D01*
X57373274Y-38240896D01*
X57421874Y-38119230D01*
X57487633Y-37976031D01*
X57571737Y-37808961D01*
X57675374Y-37615681D01*
X57799732Y-37393854D01*
X57832567Y-37336502D01*
X58037100Y-36980517D01*
X57921239Y-37105593D01*
X57739982Y-37315956D01*
X57581427Y-37530114D01*
X57448250Y-37743565D01*
X57343124Y-37951808D01*
X57268725Y-38150340D01*
X57243487Y-38246349D01*
X57228740Y-38311315D01*
X57217947Y-38344603D01*
X57206377Y-38352028D01*
X57189303Y-38339402D01*
X57177415Y-38327579D01*
X57151456Y-38305908D01*
X57136920Y-38315871D01*
X57127638Y-38338624D01*
X57119939Y-38395047D01*
X56816628Y-38395047D01*
X56856292Y-38214532D01*
X56875515Y-38144683D01*
G37*
G36*
X59599806Y-40152394D02*
G01*
X59602223Y-40159417D01*
X59575753Y-40162100D01*
X59548436Y-40159076D01*
X59551700Y-40152394D01*
X59591096Y-40149853D01*
X59599806Y-40152394D01*
G37*
G36*
X56913884Y-42461401D02*
G01*
X56916187Y-42484237D01*
X56913884Y-42487057D01*
X56902444Y-42484416D01*
X56901056Y-42474229D01*
X56908096Y-42458390D01*
X56913884Y-42461401D01*
G37*
%TO.C,C55*%
X5480164Y-28596000D02*
X5695836Y-28596000D01*
X5480164Y-29316000D02*
X5695836Y-29316000D01*
%TO.C,R26*%
X11669500Y-27448742D02*
X11669500Y-27923258D01*
X12714500Y-27448742D02*
X12714500Y-27923258D01*
%TO.C,J7*%
X13699993Y-3810000D02*
X13699993Y-2480000D01*
X16299993Y-5080000D02*
X16299993Y-2480000D01*
X13699993Y-2480000D02*
X15029993Y-2480000D01*
X16299993Y-2480000D02*
X41759993Y-2480000D01*
X41759993Y-7680000D02*
X41759993Y-2480000D01*
X13699993Y-7680000D02*
X41759993Y-7680000D01*
X13699993Y-5080000D02*
X16299993Y-5080000D01*
X13699993Y-7680000D02*
X13699993Y-5080000D01*
%TO.C,R3*%
X39892500Y-29701258D02*
X39892500Y-29226742D01*
X38847500Y-29701258D02*
X38847500Y-29226742D01*
%TO.C,C56*%
X4170000Y-24558164D02*
X4170000Y-24773836D01*
X3450000Y-24558164D02*
X3450000Y-24773836D01*
%TO.C,C39*%
X27538000Y-13315836D02*
X27538000Y-13100164D01*
X26818000Y-13315836D02*
X26818000Y-13100164D01*
%TO.C,R14*%
X40879500Y-21352742D02*
X40879500Y-21827258D01*
X41924500Y-21352742D02*
X41924500Y-21827258D01*
%TO.C,C13*%
X15232748Y-22833000D02*
X15755252Y-22833000D01*
X15232748Y-21363000D02*
X15755252Y-21363000D01*
%TO.C,D1*%
X10644000Y-6946000D02*
X10644000Y-5246000D01*
X10644000Y-6946000D02*
X8094000Y-6946000D01*
X10644000Y-5246000D02*
X8094000Y-5246000D01*
%TO.C,C10*%
X13004748Y-40746000D02*
X14427252Y-40746000D01*
X13004748Y-42566000D02*
X14427252Y-42566000D01*
%TO.C,C54*%
X1551000Y-23868748D02*
X1551000Y-24391252D01*
X3021000Y-23868748D02*
X3021000Y-24391252D01*
%TO.C,R35*%
X1030500Y-24367258D02*
X1030500Y-23892742D01*
X-14500Y-24367258D02*
X-14500Y-23892742D01*
%TO.C,R33*%
X-1538500Y-24367258D02*
X-1538500Y-23892742D01*
X-493500Y-24367258D02*
X-493500Y-23892742D01*
%TO.C,C28*%
X30586000Y-23768164D02*
X30586000Y-23983836D01*
X29866000Y-23768164D02*
X29866000Y-23983836D01*
%TO.C,C44*%
X21442000Y-13315836D02*
X21442000Y-13100164D01*
X20722000Y-13315836D02*
X20722000Y-13100164D01*
%TO.C,C38*%
X27834000Y-13315836D02*
X27834000Y-13100164D01*
X28554000Y-13315836D02*
X28554000Y-13100164D01*
%TO.C,C45*%
X20935836Y-14838000D02*
X20720164Y-14838000D01*
X20935836Y-14118000D02*
X20720164Y-14118000D01*
%TO.C,C18*%
X20935836Y-21950000D02*
X20720164Y-21950000D01*
X20935836Y-21230000D02*
X20720164Y-21230000D01*
%TO.C,C57*%
X7647000Y-11168748D02*
X7647000Y-11691252D01*
X9117000Y-11168748D02*
X9117000Y-11691252D01*
%TO.C,J1*%
X6140000Y-2600000D02*
X54460000Y-2600000D01*
X4870000Y-2600000D02*
X3540000Y-2600000D01*
X3540000Y0D02*
X3540000Y2600000D01*
X54460000Y-2600000D02*
X54460000Y2600000D01*
X3540000Y2600000D02*
X54460000Y2600000D01*
X3540000Y-2600000D02*
X3540000Y-1270000D01*
X6140000Y0D02*
X3540000Y0D01*
X6140000Y-2600000D02*
X6140000Y0D01*
%TO.C,C58*%
X3021000Y-27439252D02*
X3021000Y-26916748D01*
X1551000Y-27439252D02*
X1551000Y-26916748D01*
%TO.C,C26*%
X28554000Y-23768164D02*
X28554000Y-23983836D01*
X27834000Y-23768164D02*
X27834000Y-23983836D01*
%TO.C,C2*%
X27688000Y-29323420D02*
X27688000Y-29604580D01*
X26668000Y-29323420D02*
X26668000Y-29604580D01*
%TO.C,C19*%
X20935836Y-22966000D02*
X20720164Y-22966000D01*
X20935836Y-22246000D02*
X20720164Y-22246000D01*
%TO.C,D5*%
X-2578000Y-21817000D02*
X-293000Y-21817000D01*
X-293000Y-20347000D02*
X-2578000Y-20347000D01*
X-293000Y-21817000D02*
X-293000Y-20347000D01*
%TO.C,C31*%
X31388164Y-20214000D02*
X31603836Y-20214000D01*
X31388164Y-20934000D02*
X31603836Y-20934000D01*
%TO.C,C40*%
X25802000Y-13315836D02*
X25802000Y-13100164D01*
X26522000Y-13315836D02*
X26522000Y-13100164D01*
%TO.C,C5*%
X36943420Y-28192000D02*
X37224580Y-28192000D01*
X36943420Y-29212000D02*
X37224580Y-29212000D01*
%TO.C,C21*%
X22458000Y-23768164D02*
X22458000Y-23983836D01*
X21738000Y-23768164D02*
X21738000Y-23983836D01*
%TO.C,R2*%
X25160500Y-29701258D02*
X25160500Y-29226742D01*
X24115500Y-29701258D02*
X24115500Y-29226742D01*
%TO.C,C35*%
X31388164Y-16150000D02*
X31603836Y-16150000D01*
X31388164Y-16870000D02*
X31603836Y-16870000D01*
%TO.C,C41*%
X23770000Y-13315836D02*
X23770000Y-13100164D01*
X24490000Y-13315836D02*
X24490000Y-13100164D01*
%TO.C,R36*%
X-2017500Y-26940742D02*
X-2017500Y-27415258D01*
X-3062500Y-26940742D02*
X-3062500Y-27415258D01*
%TO.C,R25*%
X8906742Y-8904500D02*
X9381258Y-8904500D01*
X8906742Y-7859500D02*
X9381258Y-7859500D01*
%TO.C,R1*%
X41387500Y-29701258D02*
X41387500Y-29226742D01*
X42432500Y-29701258D02*
X42432500Y-29226742D01*
%TO.C,R9*%
X14971500Y-38624742D02*
X14971500Y-39099258D01*
X16016500Y-38624742D02*
X16016500Y-39099258D01*
%TO.C,L1*%
X2726000Y-32245000D02*
X2726000Y-31255000D01*
X6926000Y-32245000D02*
X6926000Y-31255000D01*
%TO.C,D3*%
X-978000Y-18823000D02*
X-3263000Y-18823000D01*
X-3263000Y-20293000D02*
X-978000Y-20293000D01*
X-3263000Y-18823000D02*
X-3263000Y-20293000D01*
%TO.C,D4*%
X-293000Y-31523000D02*
X-2578000Y-31523000D01*
X-293000Y-32993000D02*
X-293000Y-31523000D01*
X-2578000Y-32993000D02*
X-293000Y-32993000D01*
%TO.C,C33*%
X31360173Y-18182000D02*
X31575845Y-18182000D01*
X31360173Y-18902000D02*
X31575845Y-18902000D01*
%TO.C,C37*%
X31388164Y-13102000D02*
X31603836Y-13102000D01*
X31388164Y-13822000D02*
X31603836Y-13822000D01*
%TO.C,C60*%
X5695836Y-22712000D02*
X5480164Y-22712000D01*
X5695836Y-21992000D02*
X5480164Y-21992000D01*
%TO.C,J3*%
X17925000Y-31320000D02*
X17925000Y-32590000D01*
X19195000Y-31320000D02*
X17925000Y-31320000D01*
X52575000Y-31320000D02*
X52575000Y-32590000D01*
X51305000Y-31320000D02*
X52575000Y-31320000D01*
X33980000Y-31320000D02*
X36520000Y-31320000D01*
%TO.C,R11*%
X40879500Y-24875258D02*
X40879500Y-24400742D01*
X41924500Y-24875258D02*
X41924500Y-24400742D01*
%TO.C,C25*%
X27538000Y-23768164D02*
X27538000Y-23983836D01*
X26818000Y-23768164D02*
X26818000Y-23983836D01*
%TO.C,C6*%
X19671420Y-28192000D02*
X19952580Y-28192000D01*
X19671420Y-29212000D02*
X19952580Y-29212000D01*
%TO.C,D2*%
X3580000Y-5246000D02*
X6130000Y-5246000D01*
X3580000Y-5246000D02*
X3580000Y-6946000D01*
X3580000Y-6946000D02*
X6130000Y-6946000D01*
%TO.C,R37*%
X-3062500Y-24367258D02*
X-3062500Y-23892742D01*
X-2017500Y-24367258D02*
X-2017500Y-23892742D01*
%TO.C,C4*%
X19671420Y-30736000D02*
X19952580Y-30736000D01*
X19671420Y-29716000D02*
X19952580Y-29716000D01*
%TO.C,C3*%
X36943420Y-30736000D02*
X37224580Y-30736000D01*
X36943420Y-29716000D02*
X37224580Y-29716000D01*
%TO.C,R34*%
X-14500Y-26940742D02*
X-14500Y-27415258D01*
X1030500Y-26940742D02*
X1030500Y-27415258D01*
%TO.C,C59*%
X11289420Y-24890000D02*
X11570580Y-24890000D01*
X11289420Y-25910000D02*
X11570580Y-25910000D01*
%TD*%
M02*
