0
SECTION
2
HEADER
9
$INSUNITS
70
1
9
$ACADVER
1
AC1014
9
$HANDSEED
5
FFFF
0
ENDSEC
0
SECTION
2
TABLES
0
TABLE
2
VPORT
5
8
100
AcDbSymbolTable
0
ENDTAB
0
TABLE
2
LTYPE
5
5
100
AcDbSymbolTable
0
LTYPE
5
14
100
AcDbSymbolTableRecord
100
AcDbLinetypeTableRecord
2
BYBLOCK
70
0
0
LTYPE
5
15
100
AcDbSymbolTableRecord
100
AcDbLinetypeTableRecord
2
BYLAYER
70
0
0
ENDTAB
0
TABLE
2
LAYER
5
2
100
AcDbSymbolTable
70
2
0
LAYER
5
50
100
AcDbSymbolTableRecord
100
AcDbLayerTableRecord
2
0
70
0
6
CONTINUOUS
0
ENDTAB
0
TABLE
2
STYLE
5
3
100
AcDbSymbolTable
70
1
0
STYLE
5
11
100
AcDbSymbolTableRecord
100
AcDbTextStyleTableRecord
2
STANDARD
70
0
0
ENDTAB
0
TABLE
2
VIEW
5
6
100
AcDbSymbolTable
70
0
0
ENDTAB
0
TABLE
2
UCS
5
7
100
AcDbSymbolTable
70
0
0
ENDTAB
0
TABLE
2
APPID
5
9
100
AcDbSymbolTable
70
2
0
APPID
5
12
100
AcDbSymbolTableRecord
100
AcDbRegAppTableRecord
2
ACAD
70
0
0
ENDTAB
0
TABLE
2
DIMSTYLE
5
A
100
AcDbSymbolTable
70
1
0
ENDTAB
0
TABLE
2
BLOCK_RECORD
5
1
100
AcDbSymbolTable
70
1
0
BLOCK_RECORD
5
1F
100
AcDbSymbolTableRecord
100
AcDbBlockTableRecord
2
*MODEL_SPACE
0
BLOCK_RECORD
5
1B
100
AcDbSymbolTableRecord
100
AcDbBlockTableRecord
2
*PAPER_SPACE
0
ENDTAB
0
ENDSEC
0
SECTION
2
BLOCKS
0
BLOCK
5
20
100
AcDbEntity
100
AcDbBlockBegin
2
*MODEL_SPACE
0
ENDBLK
5
21
100
AcDbEntity
100
AcDbBlockEnd
0
BLOCK
5
1C
100
AcDbEntity
100
AcDbBlockBegin
2
*PAPER_SPACE
0
ENDBLK
5
1D
100
AcDbEntity
100
AcDbBlockEnd
0
ENDSEC
0
SECTION
2
ENTITIES
0
LWPOLYLINE
5
100
100
AcDbEntity
8
0
100
AcDbPolyline
90
12
70
1
43
0.0
10
-1.5642015468983894
20
0.034741006844556312
42
0.26794919243112203
10
-1.6724547223714439
20
-0.027758993155443397
10
-2.1600935598580753
20
-0.8723742354261057
42
0.13165249758739092
10
-2.1768403843850206
20
-0.9348742354261057
10
-2.1768403843850246
20
-2.1902589931554424
42
0.41421356237309509
10
-2.051840384385025
20
-2.3152589931554419
10
2.2981596156149693
20
-2.3152589931554419
42
0.41421356237309753
10
2.4231596156149697
20
-2.1902589931554419
10
2.4231596156149737
20
-0.93487423542610593
42
0.13165249758739339
10
2.406412791088028
20
-0.87237423542610526
10
1.9187739536014017
20
-0.027758993155443352
42
0.2679491924311263
10
1.8105207781283466
20
0.034741006844555986
0
CIRCLE
5
101
100
AcDbEntity
8
0
100
AcDbCircle
10
-1.9768403843850244
20
-2.1152589931554422
30
9.6867334800828822e-10
40
0.074999999999999997
210
0
220
0
230
1
0
CIRCLE
5
102
100
AcDbEntity
8
0
100
AcDbCircle
10
-1.5209002767091677
20
-0.16525899315544368
30
9.6868270185581862e-10
40
0.074999999999999997
210
0
220
0
230
1
0
CIRCLE
5
103
100
AcDbEntity
8
0
100
AcDbCircle
10
1.7672195079391253
20
-0.16525899315544401
30
9.6867675735458443e-10
40
0.074999999999999997
210
0
220
0
230
1
0
CIRCLE
5
104
100
AcDbEntity
8
0
100
AcDbCircle
10
2.2231596156149696
20
-2.1152589931554422
30
9.6867675735458443e-10
40
0.074999999999999997
210
0
220
0
230
1
0
LINE
5
105
100
AcDbEntity
8
0
100
AcDbLine
10
2.1625933723447148
20
-0.45006661429077427
30
9.6867238639779451e-10
11
1.7295806704524952
21
-0.70006661429077388
31
9.6867238639779451e-10
0
LINE
5
106
100
AcDbEntity
8
0
100
AcDbLine
10
1.7295806704524952
20
-0.70006661429077388
30
9.6867238639779451e-10
11
1.6005452373816287
21
-0.47657068823537979
31
9.6867238639779451e-10
0
LINE
5
107
100
AcDbEntity
8
0
100
AcDbLine
10
1.7295806704524952
20
-0.70006661429077388
30
9.6867238639779451e-10
11
1.858616103523361
21
-0.92356254034616692
31
9.6867238639779451e-10
0
LINE
5
108
100
AcDbEntity
8
0
100
AcDbLine
10
1.9269173737125826
20
-0.94186381053538881
30
9.6867238639779451e-10
11
2.273327535226358
21
-0.74186381053538908
31
9.6867238639779472e-10
0
LINE
5
109
100
AcDbEntity
8
0
100
AcDbLine
10
1.6188465075708509
20
-0.40826941804615779
30
9.6867238639779451e-10
11
1.9652566690846269
21
-0.20826941804615798
31
9.6867238639779451e-10
0
ARC
5
110
100
AcDbEntity
8
0
100
AcDbCircle
10
1.643846507570851
20
-0.45157068823537982
30
9.6867238639779451e-10
40
0.050000000000000162
210
0
220
0
230
1
100
AcDbArc
50
120.0000000000001
51
209.99999999999972
0
ARC
5
111
100
AcDbEntity
8
0
100
AcDbCircle
10
1.901917373712583
20
-0.898562540346167
30
9.6867238639779451e-10
40
0.049999999999999933
210
0
220
0
230
1
100
AcDbArc
50
209.99999999999991
51
299.99999999999977
0
LINE
5
112
100
AcDbEntity
8
0
100
AcDbLine
10
1.9835579392738489
20
-0.13996814785693604
30
9.6867421201155401e-10
11
1.9187739536014017
21
-0.027758993155443352
31
9.6867500897186838e-10
0
LINE
5
113
100
AcDbEntity
8
0
100
AcDbLine
10
-2.1768403843850206
20
-0.9348742354261057
30
9.6867990444347299e-10
11
-2.1768403843850246
21
-2.1902589931554424
31
9.6867361026569566e-10
0
LINE
5
114
100
AcDbEntity
8
0
100
AcDbLine
10
-2.051840384385025
20
-2.3152589931554419
30
9.6867264865520196e-10
11
2.2981596156149693
21
-2.3152589931554419
31
9.6866268287372098e-10
0
LINE
5
115
100
AcDbEntity
8
0
100
AcDbLine
10
2.4231596156149697
20
-2.1902589931554419
30
9.686630325502641e-10
11
2.4231596156149737
21
-0.93487423542610593
31
9.6866932672804163e-10
0
LINE
5
116
100
AcDbEntity
8
0
100
AcDbLine
10
2.406412791088028
20
-0.87237423542610526
30
9.6866976382372065e-10
11
2.3416288054155801
21
-0.7601650807246112
31
9.6867056078403502e-10
0
ARC
5
117
100
AcDbEntity
8
0
100
AcDbCircle
10
2.2981596156149746
20
-0.93487423542610559
30
9.6867025031119424e-10
40
0.1249999999999989
210
7.3886652217441867e-15
220
-2.0669143308164051e-29
230
1
100
AcDbArc
50
0
51
30.000000000000465
0
ARC
5
118
100
AcDbEntity
8
0
100
AcDbCircle
10
1.8105207781283481
20
-0.090258993155442599
30
9.6867289594571177e-10
40
0.12499999999999845
210
-1.4639474644452809e-14
220
-8.4521046267695335e-15
230
1
100
AcDbArc
50
29.999999999999979
51
90.000000000000711
0
LINE
5
119
100
AcDbEntity
8
0
100
AcDbLine
10
-1.6724547223714439
20
-0.027758993155443397
30
9.686833137897692e-10
11
-2.1600935598580753
21
-0.8723742354261057
31
9.6868016670088044e-10
0
LINE
5
120
100
AcDbEntity
8
0
100
AcDbLine
10
-1.5642015468983894
20
0.034741006844556326
30
9.686833137897692e-10
11
1.8105207781283466
21
0.034741006844555986
31
9.6867553348668328e-10
0
ARC
5
121
100
AcDbEntity
8
0
100
AcDbCircle
10
-1.5642015468983894
20
-0.090258993155443681
30
9.6868281464202646e-10
40
0.125
210
0
220
-3.9931819412376821e-15
230
1
100
AcDbArc
50
90
51
149.99999999999983
0
ARC
5
122
100
AcDbEntity
8
0
100
AcDbCircle
10
-2.0518403843850228
20
-0.93487423542610504
30
9.6867971453771655e-10
40
0.12499999999999785
210
3.132678293343621e-15
220
-1.8086526559464503e-15
230
1
100
AcDbArc
50
149.99999999999972
51
180
0
ARC
5
123
100
AcDbEntity
8
0
100
AcDbCircle
10
-2.051840384385025
20
-2.1902589931554428
30
9.6867327537320004e-10
40
0.12499999999999925
210
2.6791399655709554e-15
220
-7.494659215043381e-30
230
1
100
AcDbArc
50
180
51
270
0
ARC
5
124
100
AcDbEntity
8
0
100
AcDbCircle
10
2.2981596156149693
20
-2.1902589931554419
30
9.6866331892329534e-10
40
0.12500000000000031
210
0
220
-5.0883965945759615e-15
230
1
100
AcDbArc
50
-90
51
0
0
ARC
5
125
100
AcDbEntity
8
0
100
AcDbCircle
10
2.2983275352263584
20
-0.78516508072461111
30
9.6867056078403502e-10
40
0.049999999999999933
210
7.3024550384062872e-15
220
-1.2648223146507032e-14
230
1
100
AcDbArc
50
30.000000000000046
51
120.0000000000003
0
ARC
5
126
100
AcDbEntity
8
0
100
AcDbCircle
10
1.9402566690846272
20
-0.16496814785693603
30
9.6867421201155422e-10
40
0.04999999999999992
210
1.825613759715367e-14
220
-3.1620557865684114e-14
230
1
100
AcDbArc
50
-60.000000000000341
51
30.000000000000124
0
ENDSEC
0
SECTION
2
OBJECTS
0
DICTIONARY
5
C
100
AcDbDictionary
3
ACAD_GROUP
350
D
3
ACAD_MLINESTYLE
350
17
0
DICTIONARY
5
D
100
AcDbDictionary
0
DICTIONARY
5
1A
330
C
100
AcDbDictionary
0
DICTIONARY
5
17
100
AcDbDictionary
0
ENDSEC
0
EOF
