%TF.GenerationSoftware,KiCad,Pcbnew,7.0.1-0*%
%TF.CreationDate,2023-04-03T11:55:14-05:00*%
%TF.ProjectId,plenum,706c656e-756d-42e6-9b69-6361645f7063,1*%
%TF.SameCoordinates,PXc1c9600PY2e063a0*%
%TF.FileFunction,Copper,L4,Bot*%
%TF.FilePolarity,Positive*%
%FSLAX46Y46*%
G04 Gerber Fmt 4.6, Leading zero omitted, Abs format (unit mm)*
G04 Created by KiCad (PCBNEW 7.0.1-0) date 2023-04-03 11:55:14*
%MOMM*%
%LPD*%
G01*
G04 APERTURE LIST*
G04 Aperture macros list*
%AMRoundRect*
0 Rectangle with rounded corners*
0 $1 Rounding radius*
0 $2 $3 $4 $5 $6 $7 $8 $9 X,Y pos of 4 corners*
0 Add a 4 corners polygon primitive as box body*
4,1,4,$2,$3,$4,$5,$6,$7,$8,$9,$2,$3,0*
0 Add four circle primitives for the rounded corners*
1,1,$1+$1,$2,$3*
1,1,$1+$1,$4,$5*
1,1,$1+$1,$6,$7*
1,1,$1+$1,$8,$9*
0 Add four rect primitives between the rounded corners*
20,1,$1+$1,$2,$3,$4,$5,0*
20,1,$1+$1,$4,$5,$6,$7,0*
20,1,$1+$1,$6,$7,$8,$9,0*
20,1,$1+$1,$8,$9,$2,$3,0*%
%AMFreePoly0*
4,1,21,-0.625000,0.375000,-0.605970,0.470671,-0.551777,0.551777,-0.470671,0.605970,-0.375000,0.625000,0.375000,0.625000,0.470671,0.605970,0.551777,0.551777,0.605970,0.470671,0.625000,0.375000,0.625000,-0.375000,0.605970,-0.470671,0.551777,-0.551777,0.470671,-0.605970,0.375000,-0.625000,-0.375000,-0.625000,-0.470671,-0.605970,-0.551777,-0.551777,-0.605970,-0.470671,-0.625000,-0.375000,
-0.625000,0.375000,-0.625000,0.375000,$1*%
G04 Aperture macros list end*
%TA.AperFunction,ComponentPad*%
%ADD10C,2.000000*%
%TD*%
%TA.AperFunction,ComponentPad*%
%ADD11C,5.400000*%
%TD*%
%TA.AperFunction,ComponentPad*%
%ADD12C,2.800000*%
%TD*%
%TA.AperFunction,ComponentPad*%
%ADD13R,1.700000X1.700000*%
%TD*%
%TA.AperFunction,ComponentPad*%
%ADD14O,1.700000X1.700000*%
%TD*%
%TA.AperFunction,ComponentPad*%
%ADD15C,3.000000*%
%TD*%
%TA.AperFunction,ComponentPad*%
%ADD16RoundRect,0.312500X0.312500X-0.312500X0.312500X0.312500X-0.312500X0.312500X-0.312500X-0.312500X0*%
%TD*%
%TA.AperFunction,ComponentPad*%
%ADD17C,1.250000*%
%TD*%
%TA.AperFunction,ComponentPad*%
%ADD18C,3.500000*%
%TD*%
%TA.AperFunction,ComponentPad*%
%ADD19FreePoly0,90.000000*%
%TD*%
%TA.AperFunction,SMDPad,CuDef*%
%ADD20RoundRect,0.250000X1.075000X-0.312500X1.075000X0.312500X-1.075000X0.312500X-1.075000X-0.312500X0*%
%TD*%
%TA.AperFunction,SMDPad,CuDef*%
%ADD21RoundRect,0.225000X-0.017678X0.335876X-0.335876X0.017678X0.017678X-0.335876X0.335876X-0.017678X0*%
%TD*%
%TA.AperFunction,SMDPad,CuDef*%
%ADD22RoundRect,0.250000X0.043542X-0.725417X0.606458X-0.400417X-0.043542X0.725417X-0.606458X0.400417X0*%
%TD*%
%TA.AperFunction,SMDPad,CuDef*%
%ADD23RoundRect,0.225000X0.017678X-0.335876X0.335876X-0.017678X-0.017678X0.335876X-0.335876X0.017678X0*%
%TD*%
%TA.AperFunction,SMDPad,CuDef*%
%ADD24RoundRect,0.225000X0.250000X-0.225000X0.250000X0.225000X-0.250000X0.225000X-0.250000X-0.225000X0*%
%TD*%
%TA.AperFunction,SMDPad,CuDef*%
%ADD25RoundRect,0.225000X-0.225000X-0.250000X0.225000X-0.250000X0.225000X0.250000X-0.225000X0.250000X0*%
%TD*%
%TA.AperFunction,SMDPad,CuDef*%
%ADD26RoundRect,0.250000X-0.043542X0.725417X-0.606458X0.400417X0.043542X-0.725417X0.606458X-0.400417X0*%
%TD*%
%TA.AperFunction,SMDPad,CuDef*%
%ADD27RoundRect,0.200000X0.035705X0.338157X-0.310705X0.138157X-0.035705X-0.338157X0.310705X-0.138157X0*%
%TD*%
%TA.AperFunction,SMDPad,CuDef*%
%ADD28RoundRect,0.225000X0.225000X0.250000X-0.225000X0.250000X-0.225000X-0.250000X0.225000X-0.250000X0*%
%TD*%
%TA.AperFunction,SMDPad,CuDef*%
%ADD29RoundRect,0.200000X-0.275000X0.200000X-0.275000X-0.200000X0.275000X-0.200000X0.275000X0.200000X0*%
%TD*%
%TA.AperFunction,SMDPad,CuDef*%
%ADD30RoundRect,0.200000X-0.035705X-0.338157X0.310705X-0.138157X0.035705X0.338157X-0.310705X0.138157X0*%
%TD*%
%TA.AperFunction,SMDPad,CuDef*%
%ADD31RoundRect,0.225000X-0.250000X0.225000X-0.250000X-0.225000X0.250000X-0.225000X0.250000X0.225000X0*%
%TD*%
%TA.AperFunction,ViaPad*%
%ADD32C,0.660400*%
%TD*%
%TA.AperFunction,ViaPad*%
%ADD33C,0.558800*%
%TD*%
%TA.AperFunction,ViaPad*%
%ADD34C,0.965200*%
%TD*%
%TA.AperFunction,ViaPad*%
%ADD35C,0.609600*%
%TD*%
%TA.AperFunction,ViaPad*%
%ADD36C,0.762000*%
%TD*%
%TA.AperFunction,Conductor*%
%ADD37C,0.254000*%
%TD*%
%TA.AperFunction,Conductor*%
%ADD38C,0.304800*%
%TD*%
%TA.AperFunction,Conductor*%
%ADD39C,0.609600*%
%TD*%
%TA.AperFunction,Conductor*%
%ADD40C,0.203200*%
%TD*%
%TA.AperFunction,Conductor*%
%ADD41C,0.406400*%
%TD*%
%TA.AperFunction,Conductor*%
%ADD42C,0.914400*%
%TD*%
G04 APERTURE END LIST*
D10*
%TO.P,TP13,1,1*%
%TO.N,/microcontroller/TEMP2_READY*%
X-61976000Y-36195000D03*
%TD*%
D11*
%TO.P,H4,1,1*%
%TO.N,GNDPWR*%
X-92075000Y-55626000D03*
%TD*%
D10*
%TO.P,TP16,1,1*%
%TO.N,Net-(U18-CH1)*%
X-80518000Y-40640000D03*
%TD*%
%TO.P,TP4,1,1*%
%TO.N,/microcontroller/TEMP_nRESET*%
X-48641000Y-25146000D03*
%TD*%
D11*
%TO.P,H3,1,1*%
%TO.N,GNDPWR*%
X-19685000Y-55626000D03*
%TD*%
%TO.P,H2,1,1*%
%TO.N,GNDPWR*%
X-113030000Y-3556000D03*
%TD*%
D10*
%TO.P,TP2,1,1*%
%TO.N,Net-(U19-CH1)*%
X-58420000Y-40640000D03*
%TD*%
D12*
%TO.P,TP1,1,1*%
%TO.N,Net-(J9-Pin_3)*%
X-64262000Y-2794000D03*
%TD*%
D13*
%TO.P,J7,1,Pin_1*%
%TO.N,+3V3*%
X-21082000Y-2794000D03*
D14*
%TO.P,J7,2,Pin_2*%
%TO.N,/microcontroller/INTRPT3*%
X-23622000Y-2794000D03*
%TO.P,J7,3,Pin_3*%
%TO.N,/microcontroller/RA3*%
X-26162000Y-2794000D03*
%TO.P,J7,4,Pin_4*%
%TO.N,/microcontroller/RA2*%
X-28702000Y-2794000D03*
%TO.P,J7,5,Pin_5*%
%TO.N,/microcontroller/RA5*%
X-31242000Y-2794000D03*
%TO.P,J7,6,Pin_6*%
%TO.N,/microcontroller/RA4*%
X-33782000Y-2794000D03*
%TO.P,J7,7,Pin_7*%
%TO.N,/microcontroller/RC1*%
X-36322000Y-2794000D03*
%TO.P,J7,8,Pin_8*%
%TO.N,/microcontroller/RC0*%
X-38862000Y-2794000D03*
%TO.P,J7,9,Pin_9*%
%TO.N,/microcontroller/RC2*%
X-41402000Y-2794000D03*
%TO.P,J7,10,Pin_10*%
%TO.N,/microcontroller/UART.TX*%
X-43942000Y-2794000D03*
%TO.P,J7,11,Pin_11*%
%TO.N,/microcontroller/UART.RX*%
X-46482000Y-2794000D03*
%TO.P,J7,12,Pin_12*%
%TO.N,unconnected-(J7-Pin_12-Pad12)*%
X-49022000Y-2794000D03*
%TO.P,J7,13,Pin_13*%
%TO.N,unconnected-(J7-Pin_13-Pad13)*%
X-51562000Y-2794000D03*
%TO.P,J7,14,Pin_14*%
%TO.N,unconnected-(J7-Pin_14-Pad14)*%
X-54102000Y-2794000D03*
%TO.P,J7,15,Pin_15*%
%TO.N,+5V*%
X-56642000Y-2794000D03*
%TO.P,J7,16,Pin_16*%
%TO.N,GND*%
X-59182000Y-2794000D03*
%TD*%
D13*
%TO.P,J9,1,Pin_1*%
%TO.N,+3V3*%
X-74422000Y-2794000D03*
D14*
%TO.P,J9,2,Pin_2*%
%TO.N,/microcontroller/AVDD*%
X-71882000Y-2794000D03*
%TO.P,J9,3,Pin_3*%
%TO.N,Net-(J9-Pin_3)*%
X-69342000Y-2794000D03*
%TD*%
D11*
%TO.P,H1,1,1*%
%TO.N,GNDPWR*%
X-3810000Y-3556000D03*
%TD*%
D10*
%TO.P,TP5,1,1*%
%TO.N,/microcontroller/INTRPT0*%
X-38735000Y-23368000D03*
%TD*%
%TO.P,TP14,1,1*%
%TO.N,/microcontroller/TEMP1_READY*%
X-51689000Y-25146000D03*
%TD*%
%TO.P,TP6,1,1*%
%TO.N,/power/PPS*%
X-38735000Y-20320000D03*
%TD*%
%TO.P,TP12,1,1*%
%TO.N,/microcontroller/SPI.nCS2*%
X-61976000Y-31369000D03*
%TD*%
%TO.P,TP11,1,1*%
%TO.N,/microcontroller/SPI.nCS1*%
X-45593000Y-25146000D03*
%TD*%
D15*
%TO.P,J4,MP,MountPin*%
%TO.N,GNDPWR*%
X-11430000Y-29836000D03*
X-11430000Y-12836000D03*
D16*
%TO.P,J4,a1,Pin_a1*%
%TO.N,/sync/SYNC1+*%
X-12430000Y-16336000D03*
D17*
%TO.P,J4,a2,Pin_a2*%
%TO.N,/sync/SYNC1-*%
X-12430000Y-18336000D03*
%TO.P,J4,a3,Pin_a3*%
%TO.N,/sync/SYNC3+*%
X-12430000Y-20336000D03*
%TO.P,J4,a4,Pin_a4*%
%TO.N,/sync/SYNC3-*%
X-12430000Y-22336000D03*
%TO.P,J4,a5,Pin_a5*%
%TO.N,/sync/SYNC5+*%
X-12430000Y-24336000D03*
%TO.P,J4,a6,Pin_a6*%
%TO.N,/sync/SYNC5-*%
X-12430000Y-26336000D03*
%TO.P,J4,b1,Pin_b1*%
%TO.N,/sync/SYNC2+*%
X-10430000Y-16336000D03*
%TO.P,J4,b2,Pin_b2*%
%TO.N,/sync/SYNC2-*%
X-10430000Y-18336000D03*
%TO.P,J4,b3,Pin_b3*%
%TO.N,/sync/SYNC4+*%
X-10430000Y-20336000D03*
%TO.P,J4,b4,Pin_b4*%
%TO.N,/sync/SYNC4-*%
X-10430000Y-22336000D03*
%TO.P,J4,b5,Pin_b5*%
%TO.N,/sync/SYNC6+*%
X-10430000Y-24336000D03*
%TO.P,J4,b6,Pin_b6*%
%TO.N,/sync/SYNC6-*%
X-10430000Y-26336000D03*
%TD*%
D13*
%TO.P,J1,1,Pin_1*%
%TO.N,Net-(J1-Pin_1)*%
X-54351000Y-13208000D03*
D14*
%TO.P,J1,2,Pin_2*%
%TO.N,Net-(J1-Pin_2)*%
X-56891000Y-13208000D03*
%TD*%
D10*
%TO.P,TP9,1,1*%
%TO.N,/microcontroller/SPI.nCS5*%
X-37084000Y-30607000D03*
%TD*%
%TO.P,TP8,1,1*%
%TO.N,/sync/nQ*%
X-41783000Y-17272000D03*
%TD*%
%TO.P,TP10,1,1*%
%TO.N,/microcontroller/SPI.nCS6*%
X-37084000Y-33655000D03*
%TD*%
D18*
%TO.P,J3,MP,MountPin*%
%TO.N,GNDPWR*%
X-81920000Y-48641000D03*
X-34920000Y-48641000D03*
D19*
%TO.P,J3,a1*%
%TO.N,/rtd/TEMP1.RSENSE*%
X-39420000Y-46641000D03*
D17*
%TO.P,J3,a2*%
X-41420000Y-46641000D03*
%TO.P,J3,a3*%
X-43420000Y-46641000D03*
%TO.P,J3,a4*%
X-45420000Y-46641000D03*
%TO.P,J3,a5*%
X-47420000Y-46641000D03*
%TO.P,J3,a6*%
X-49420000Y-46641000D03*
%TO.P,J3,a7*%
X-51420000Y-46641000D03*
%TO.P,J3,a8*%
X-53420000Y-46641000D03*
%TO.P,J3,a9*%
X-55420000Y-46641000D03*
%TO.P,J3,a10*%
%TO.N,GND*%
X-57420000Y-46641000D03*
%TO.P,J3,a11*%
X-59420000Y-46641000D03*
%TO.P,J3,a12*%
%TO.N,/rtd/TEMP2.RSENSE*%
X-61420000Y-46641000D03*
%TO.P,J3,a13*%
X-63420000Y-46641000D03*
%TO.P,J3,a14*%
X-65420000Y-46641000D03*
%TO.P,J3,a15*%
X-67420000Y-46641000D03*
%TO.P,J3,a16*%
X-69420000Y-46641000D03*
%TO.P,J3,a17*%
X-71420000Y-46641000D03*
%TO.P,J3,a18*%
X-73420000Y-46641000D03*
%TO.P,J3,a19*%
X-75420000Y-46641000D03*
%TO.P,J3,a20*%
X-77420000Y-46641000D03*
%TO.P,J3,b1*%
%TO.N,/rtd/TEMP1.CH20*%
X-39420000Y-48641000D03*
%TO.P,J3,b2*%
%TO.N,/rtd/TEMP1.CH18*%
X-41420000Y-48641000D03*
%TO.P,J3,b3*%
%TO.N,/rtd/TEMP1.CH16*%
X-43420000Y-48641000D03*
%TO.P,J3,b4*%
%TO.N,/rtd/TEMP1.CH14*%
X-45420000Y-48641000D03*
%TO.P,J3,b5*%
%TO.N,/rtd/TEMP1.CH12*%
X-47420000Y-48641000D03*
%TO.P,J3,b6*%
%TO.N,/rtd/TEMP1.CH10*%
X-49420000Y-48641000D03*
%TO.P,J3,b7*%
%TO.N,/rtd/TEMP1.CH8*%
X-51420000Y-48641000D03*
%TO.P,J3,b8*%
%TO.N,/rtd/TEMP1.CH6*%
X-53420000Y-48641000D03*
%TO.P,J3,b9*%
%TO.N,/rtd/TEMP1.CH4*%
X-55420000Y-48641000D03*
%TO.P,J3,b10*%
%TO.N,GND*%
X-57420000Y-48641000D03*
%TO.P,J3,b11*%
X-59420000Y-48641000D03*
%TO.P,J3,b12*%
%TO.N,/rtd/TEMP2.CH20*%
X-61420000Y-48641000D03*
%TO.P,J3,b13*%
%TO.N,/rtd/TEMP2.CH18*%
X-63420000Y-48641000D03*
%TO.P,J3,b14*%
%TO.N,/rtd/TEMP2.CH16*%
X-65420000Y-48641000D03*
%TO.P,J3,b15*%
%TO.N,/rtd/TEMP2.CH14*%
X-67420000Y-48641000D03*
%TO.P,J3,b16*%
%TO.N,/rtd/TEMP2.CH12*%
X-69420000Y-48641000D03*
%TO.P,J3,b17*%
%TO.N,/rtd/TEMP2.CH10*%
X-71420000Y-48641000D03*
%TO.P,J3,b18*%
%TO.N,/rtd/TEMP2.CH8*%
X-73420000Y-48641000D03*
%TO.P,J3,b19*%
%TO.N,/rtd/TEMP2.CH6*%
X-75420000Y-48641000D03*
%TO.P,J3,b20*%
%TO.N,/rtd/TEMP2.CH4*%
X-77420000Y-48641000D03*
%TO.P,J3,c1*%
%TO.N,/rtd/TEMP1.CH19*%
X-39420000Y-50641000D03*
%TO.P,J3,c2*%
%TO.N,/rtd/TEMP1.CH17*%
X-41420000Y-50641000D03*
%TO.P,J3,c3*%
%TO.N,/rtd/TEMP1.CH15*%
X-43420000Y-50641000D03*
%TO.P,J3,c4*%
%TO.N,/rtd/TEMP1.CH13*%
X-45420000Y-50641000D03*
%TO.P,J3,c5*%
%TO.N,/rtd/TEMP1.CH11*%
X-47420000Y-50641000D03*
%TO.P,J3,c6*%
%TO.N,/rtd/TEMP1.CH9*%
X-49420000Y-50641000D03*
%TO.P,J3,c7*%
%TO.N,/rtd/TEMP1.CH7*%
X-51420000Y-50641000D03*
%TO.P,J3,c8*%
%TO.N,/rtd/TEMP1.CH5*%
X-53420000Y-50641000D03*
%TO.P,J3,c9*%
%TO.N,/rtd/TEMP1.CH3*%
X-55420000Y-50641000D03*
%TO.P,J3,c10*%
%TO.N,GND*%
X-57420000Y-50641000D03*
%TO.P,J3,c11*%
X-59420000Y-50641000D03*
%TO.P,J3,c12*%
%TO.N,/rtd/TEMP2.CH19*%
X-61420000Y-50641000D03*
%TO.P,J3,c13*%
%TO.N,/rtd/TEMP2.CH17*%
X-63420000Y-50641000D03*
%TO.P,J3,c14*%
%TO.N,/rtd/TEMP2.CH15*%
X-65420000Y-50641000D03*
%TO.P,J3,c15*%
%TO.N,/rtd/TEMP2.CH13*%
X-67420000Y-50641000D03*
%TO.P,J3,c16*%
%TO.N,/rtd/TEMP2.CH11*%
X-69420000Y-50641000D03*
%TO.P,J3,c17*%
%TO.N,/rtd/TEMP2.CH9*%
X-71420000Y-50641000D03*
%TO.P,J3,c18*%
%TO.N,/rtd/TEMP2.CH7*%
X-73420000Y-50641000D03*
%TO.P,J3,c19*%
%TO.N,/rtd/TEMP2.CH5*%
X-75420000Y-50641000D03*
%TO.P,J3,c20*%
%TO.N,/rtd/TEMP2.CH3*%
X-77420000Y-50641000D03*
%TD*%
D10*
%TO.P,TP7,1,1*%
%TO.N,/sync/Q*%
X-38735000Y-17272000D03*
%TD*%
D20*
%TO.P,R11,1*%
%TO.N,GNDPWR*%
X-88265000Y-47182500D03*
%TO.P,R11,2*%
%TO.N,GND*%
X-88265000Y-44257500D03*
%TD*%
D21*
%TO.P,C32,1*%
%TO.N,GND*%
X-73111992Y-36408992D03*
%TO.P,C32,2*%
%TO.N,/rtd/VREF2*%
X-74208008Y-37505008D03*
%TD*%
D22*
%TO.P,C50,1*%
%TO.N,Net-(C50-Pad1)*%
X-90102654Y-36587973D03*
%TO.P,C50,2*%
%TO.N,GND*%
X-87547880Y-35112973D03*
%TD*%
D23*
%TO.P,C30,1*%
%TO.N,GND*%
X-68958357Y-34608274D03*
%TO.P,C30,2*%
%TO.N,/rtd/LDO2*%
X-67862341Y-33512258D03*
%TD*%
D21*
%TO.P,C33,1*%
%TO.N,GND*%
X-51140992Y-36408992D03*
%TO.P,C33,2*%
%TO.N,/rtd/VREF1*%
X-52237008Y-37505008D03*
%TD*%
D24*
%TO.P,C6,1*%
%TO.N,+3V3*%
X-70612000Y-21857000D03*
%TO.P,C6,2*%
%TO.N,GND*%
X-70612000Y-20307000D03*
%TD*%
D25*
%TO.P,C10,1*%
%TO.N,+3V3*%
X-76975000Y-19050000D03*
%TO.P,C10,2*%
%TO.N,GND*%
X-75425000Y-19050000D03*
%TD*%
D23*
%TO.P,C36,1*%
%TO.N,GND*%
X-70035988Y-33530644D03*
%TO.P,C36,2*%
%TO.N,+3V3*%
X-68939972Y-32434628D03*
%TD*%
D24*
%TO.P,C9,1*%
%TO.N,+3V3*%
X-74168000Y-21857000D03*
%TO.P,C9,2*%
%TO.N,GND*%
X-74168000Y-20307000D03*
%TD*%
D26*
%TO.P,C49,1*%
%TO.N,Net-(C49-Pad1)*%
X-96766613Y-32282500D03*
%TO.P,C49,2*%
%TO.N,GNDPWR*%
X-99321387Y-33757500D03*
%TD*%
D27*
%TO.P,R8,1*%
%TO.N,+3V3*%
X-88058529Y-40100500D03*
%TO.P,R8,2*%
%TO.N,/eth_phy/ETHTXJ_P*%
X-89487471Y-40925500D03*
%TD*%
D23*
%TO.P,C37,1*%
%TO.N,GND*%
X-47970235Y-33548578D03*
%TO.P,C37,2*%
%TO.N,+3V3*%
X-46874219Y-32452562D03*
%TD*%
%TO.P,C28,1*%
%TO.N,GND*%
X-71033008Y-32552008D03*
%TO.P,C28,2*%
%TO.N,Net-(U18-Q3)*%
X-69936992Y-31455992D03*
%TD*%
D13*
%TO.P,J2,1,Pin_1*%
%TO.N,+5V*%
X-109728000Y-9942830D03*
D14*
%TO.P,J2,2,Pin_2*%
%TO.N,/microcontroller/PGC*%
X-112268000Y-9942830D03*
%TO.P,J2,3,Pin_3*%
%TO.N,+5V*%
X-109728000Y-12482830D03*
%TO.P,J2,4,Pin_4*%
%TO.N,/microcontroller/PGD*%
X-112268000Y-12482830D03*
%TO.P,J2,5,Pin_5*%
%TO.N,/power/SCK*%
X-109728000Y-15022830D03*
%TO.P,J2,6,Pin_6*%
%TO.N,GND*%
X-112268000Y-15022830D03*
%TO.P,J2,7,Pin_7*%
%TO.N,/power/SDI*%
X-109728000Y-17562830D03*
%TO.P,J2,8,Pin_8*%
%TO.N,+3V3*%
X-112268000Y-17562830D03*
%TO.P,J2,9,Pin_9*%
%TO.N,/power/SDO*%
X-109728000Y-20102830D03*
%TO.P,J2,10,Pin_10*%
%TO.N,/microcontroller/nMCLR*%
X-112268000Y-20102830D03*
%TO.P,J2,11,Pin_11*%
%TO.N,/power/nCS3*%
X-109728000Y-22642830D03*
%TO.P,J2,12,Pin_12*%
%TO.N,/power/PPS_in*%
X-112268000Y-22642830D03*
%TO.P,J2,13,Pin_13*%
%TO.N,/power/nCS4*%
X-109728000Y-25182830D03*
%TO.P,J2,14,Pin_14*%
%TO.N,/power/SHUTTER_in*%
X-112268000Y-25182830D03*
%TO.P,J2,15,Pin_15*%
%TO.N,/power/PRELAUNCH_in*%
X-109728000Y-27722830D03*
%TO.P,J2,16,Pin_16*%
%TO.N,GND*%
X-112268000Y-27722830D03*
%TD*%
D25*
%TO.P,C4,1*%
%TO.N,+3V3*%
X-76975000Y-14986000D03*
%TO.P,C4,2*%
%TO.N,GND*%
X-75425000Y-14986000D03*
%TD*%
D28*
%TO.P,C54,1*%
%TO.N,/microcontroller/VDDCORE*%
X-68313000Y-16764000D03*
%TO.P,C54,2*%
%TO.N,GND*%
X-69863000Y-16764000D03*
%TD*%
D25*
%TO.P,C8,1*%
%TO.N,+3V3*%
X-76975000Y-16764000D03*
%TO.P,C8,2*%
%TO.N,GND*%
X-75425000Y-16764000D03*
%TD*%
D23*
%TO.P,C29,1*%
%TO.N,GND*%
X-49038673Y-32461755D03*
%TO.P,C29,2*%
%TO.N,Net-(U19-Q3)*%
X-47942657Y-31365739D03*
%TD*%
D29*
%TO.P,R26,1*%
%TO.N,/microcontroller/UART.RX*%
X-51562000Y-8065000D03*
%TO.P,R26,2*%
%TO.N,+3V3*%
X-51562000Y-9715000D03*
%TD*%
D24*
%TO.P,C5,1*%
%TO.N,+3V3*%
X-72390000Y-21857000D03*
%TO.P,C5,2*%
%TO.N,GND*%
X-72390000Y-20307000D03*
%TD*%
D22*
%TO.P,C51,1*%
%TO.N,+3V3*%
X-87068330Y-38795574D03*
%TO.P,C51,2*%
%TO.N,GND*%
X-84513556Y-37320574D03*
%TD*%
D30*
%TO.P,R9,1*%
%TO.N,/eth_phy/ETHTXJ_N*%
X-90249471Y-39605677D03*
%TO.P,R9,2*%
%TO.N,+3V3*%
X-88820529Y-38780677D03*
%TD*%
D31*
%TO.P,C11,1*%
%TO.N,/microcontroller/AVDD*%
X-70104000Y-13195000D03*
%TO.P,C11,2*%
%TO.N,GND*%
X-70104000Y-14745000D03*
%TD*%
%TO.P,C7,1*%
%TO.N,+3V3*%
X-73152000Y-13195000D03*
%TO.P,C7,2*%
%TO.N,GND*%
X-73152000Y-14745000D03*
%TD*%
D29*
%TO.P,R25,1*%
%TO.N,/microcontroller/UART.TX*%
X-50038000Y-8065000D03*
%TO.P,R25,2*%
%TO.N,+3V3*%
X-50038000Y-9715000D03*
%TD*%
D23*
%TO.P,C31,1*%
%TO.N,GND*%
X-46892604Y-34626209D03*
%TO.P,C31,2*%
%TO.N,/rtd/LDO1*%
X-45796588Y-33530193D03*
%TD*%
D32*
%TO.N,GND*%
X-18796000Y-9652000D03*
D33*
X-80264000Y-16256000D03*
X-89408000Y-2286000D03*
D32*
X-17272000Y-8128000D03*
X-17272000Y-3556000D03*
D33*
X-47975184Y-35529185D03*
X-90170000Y-2286000D03*
X-94996000Y-16510000D03*
X-82804000Y-12446000D03*
D32*
X-22098000Y-33528000D03*
D33*
X-96393000Y-30226000D03*
X-48514000Y-36068000D03*
D32*
X-20320000Y-9652000D03*
D33*
X-92456000Y-2286000D03*
X-95758000Y-7874000D03*
X-85852000Y-43942000D03*
X-73406000Y-16002000D03*
X-73406000Y-27432000D03*
X-95758000Y-8636000D03*
D32*
X-15748000Y-11176000D03*
D33*
X-49591630Y-36068000D03*
D32*
X-17272000Y-6604000D03*
X-11176000Y-5080000D03*
D33*
X-93218000Y-1524000D03*
X-29971999Y-35559999D03*
X-71882000Y-19050000D03*
X-85090000Y-42418000D03*
X-49052815Y-36606816D03*
X-22479000Y-15748000D03*
X-71120000Y-19050000D03*
X-74930000Y-27432000D03*
D32*
X-26670000Y-36322000D03*
X-14224000Y-9652000D03*
X-23622000Y-37846000D03*
D33*
X-84836000Y-18796000D03*
X-71120000Y-17526000D03*
X-84836000Y-16510000D03*
X-102362000Y-12192000D03*
X-73406000Y-19050000D03*
D32*
X-12700000Y-6604000D03*
D33*
X-70485000Y-36068000D03*
X-94996000Y-12192000D03*
X-30099000Y-16891000D03*
X-70485000Y-34990370D03*
X-80518000Y-19558000D03*
X-74168000Y-16002000D03*
X-72644000Y-17526000D03*
X-33147000Y-25273000D03*
X-90932000Y-2286000D03*
X-90424000Y-26289000D03*
X-22479000Y-26924000D03*
X-88265000Y-43307000D03*
D32*
X-12700000Y-5080000D03*
D33*
X-29718000Y-30225999D03*
D32*
X-22098000Y-37846000D03*
D33*
X-71023815Y-36606816D03*
X-65659000Y-36068000D03*
D32*
X-14224000Y-8128000D03*
D33*
X-94996000Y-17272000D03*
X-71120000Y-16002000D03*
D32*
X-17272000Y-5080000D03*
D33*
X-81534000Y-21336000D03*
X-21717000Y-15748000D03*
X-53213000Y-32004000D03*
X-84328000Y-20828000D03*
X-94996000Y-21590000D03*
D32*
X-15748000Y-3556000D03*
D33*
X-16383000Y-24130000D03*
X-33527999Y-32512000D03*
X-84328000Y-43180000D03*
X-84836000Y-18034000D03*
X-22479000Y-21336000D03*
X-47436369Y-36068000D03*
X-86106000Y-7874000D03*
X-94996000Y-12954000D03*
X-16383000Y-18542000D03*
X-17145000Y-29718000D03*
X-68072000Y-22098000D03*
X-101600000Y-17272000D03*
X-36576000Y-12700000D03*
X-90932000Y-26797000D03*
X-84836000Y-19558000D03*
X-74168000Y-18288000D03*
X-85090000Y-44704000D03*
X-30861000Y-16891000D03*
X-94996000Y-18034000D03*
X-84836000Y-14224000D03*
X-94996000Y-23114000D03*
X-84328000Y-43942000D03*
X-106426000Y-6096000D03*
D32*
X-15748000Y-6604000D03*
X-25146000Y-36322000D03*
D33*
X-74168000Y-16764000D03*
X-76454001Y-2667000D03*
X-69407369Y-36068000D03*
X-84836000Y-13462000D03*
X-84328000Y-44704000D03*
D32*
X-20574000Y-34798000D03*
D33*
X-35941000Y-20447000D03*
X-84074000Y-19558000D03*
D32*
X-14224000Y-3556000D03*
D33*
X-36830000Y-20447000D03*
X-101858000Y-7112000D03*
D32*
X-15748000Y-9652000D03*
D33*
X-64643000Y-37084000D03*
D32*
X-14224000Y-5080000D03*
D33*
X-88519000Y-16383000D03*
X-82296000Y-12954000D03*
X-107188000Y-6096000D03*
X-31115000Y-18796000D03*
X-69946184Y-35529185D03*
D32*
X-25146000Y-39116000D03*
D33*
X-36449000Y-16891000D03*
D32*
X-18796000Y-8128000D03*
X-23622000Y-36322000D03*
X-20574000Y-36322000D03*
X-23622000Y-34798000D03*
D33*
X-21717000Y-26924000D03*
X-71120000Y-18288000D03*
X-102489000Y-7112000D03*
X-29971999Y-36322000D03*
X-89281000Y-42037000D03*
X-77216001Y-3429000D03*
X-57277000Y-15748000D03*
X-101219000Y-7112000D03*
X-72644000Y-19050000D03*
X-16383000Y-29718000D03*
X-85852000Y-43180000D03*
X-35687000Y-11811000D03*
D32*
X-15748000Y-12700000D03*
D33*
X-84328000Y-12954000D03*
D32*
X-20574000Y-37846000D03*
D33*
X-72644000Y-18288000D03*
X-76200000Y-32004000D03*
X-42672000Y-37211000D03*
X-71562630Y-36068000D03*
X-98044000Y-31242000D03*
D32*
X-26670000Y-34798000D03*
D33*
X-94996000Y-22352000D03*
X-73406000Y-16764000D03*
X-91694000Y-2286000D03*
D32*
X-11176000Y-2032000D03*
D33*
X-29971999Y-34036000D03*
X-72644000Y-16764000D03*
X-101600000Y-12192000D03*
X-84444988Y-39627338D03*
X-17145000Y-18542000D03*
X-56388000Y-14859000D03*
D32*
X-20320000Y-11176000D03*
D33*
X-77216001Y-2667000D03*
X-90170000Y-1524000D03*
X-72644000Y-16002000D03*
X-71023815Y-35529185D03*
D32*
X-15748000Y-8128000D03*
D33*
X-85296620Y-35866266D03*
D32*
X-12700000Y-8128000D03*
D33*
X-90043000Y-25654000D03*
D32*
X-14224000Y-2032000D03*
D33*
X-83785077Y-39246337D03*
D32*
X-17272000Y-11176000D03*
D33*
X-35560000Y-16891000D03*
X-54229000Y-32004000D03*
X-86106000Y-8636000D03*
X-34289999Y-32512001D03*
D32*
X-25146000Y-34798000D03*
D33*
X-84836000Y-17272000D03*
X-102362000Y-17272000D03*
X-36576000Y-11811000D03*
X-57277000Y-14859000D03*
X-48514000Y-34990370D03*
X-93218000Y-2286000D03*
D32*
X-11176000Y-6604000D03*
X-25146000Y-33528000D03*
X-23622000Y-39116000D03*
D33*
X-83820000Y-12446000D03*
X-84328000Y-42418000D03*
X-106426000Y-5334000D03*
D32*
X-22098000Y-36322000D03*
X-22098000Y-39116000D03*
D33*
X-83820000Y-21336000D03*
D32*
X-22098000Y-34798000D03*
X-17272000Y-2032000D03*
D33*
X-102362000Y-22352000D03*
X-81026000Y-20828000D03*
X-30861000Y-24130000D03*
X-84836000Y-20320000D03*
X-69946184Y-36606816D03*
X-86106000Y-9398000D03*
X-70485000Y-37145631D03*
X-94996000Y-11430000D03*
D32*
X-23622000Y-33528000D03*
D33*
X-80518000Y-20320000D03*
D32*
X-25146000Y-37846000D03*
D33*
X-43688000Y-36195000D03*
X-75184000Y-32004000D03*
X-29717999Y-29464001D03*
X-31623000Y-24130000D03*
D32*
X-14224000Y-6604000D03*
X-18796000Y-11176000D03*
D33*
X-73406000Y-26670000D03*
X-73406000Y-18288000D03*
D32*
X-15748000Y-2032000D03*
D33*
X-80772000Y-15494000D03*
X-71882000Y-16002000D03*
X-83312000Y-12954000D03*
X-94996000Y-8636000D03*
D32*
X-15748000Y-5080000D03*
D33*
X-33655000Y-20701000D03*
X-43180000Y-36703000D03*
D32*
X-12700000Y-2032000D03*
D33*
X-30353000Y-18796000D03*
X-85852000Y-44704000D03*
X-94996000Y-7874000D03*
X-95758000Y-7112000D03*
X-74168000Y-27432000D03*
X-83058000Y-21336000D03*
X-97282000Y-30734000D03*
X-71882000Y-16764000D03*
D32*
X-26670000Y-37846000D03*
X-17272000Y-9652000D03*
D33*
X-29972000Y-34798000D03*
X-33147000Y-24511000D03*
X-88900000Y-42672000D03*
X-107188000Y-5334000D03*
X-71882000Y-18288000D03*
X-82296000Y-21336000D03*
X-94996000Y-7112000D03*
X-76454000Y-3429000D03*
D32*
X-11176000Y-3556000D03*
D33*
X-47975184Y-36606816D03*
X-84836000Y-15748000D03*
X-65151000Y-36576000D03*
X-85090000Y-43180000D03*
X-49052815Y-35529185D03*
X-73406000Y-17526000D03*
X-71120000Y-16764000D03*
X-85090000Y-43942000D03*
X-17145000Y-24130000D03*
X-88519000Y-17145000D03*
X-74168000Y-19050000D03*
X-71882000Y-17526000D03*
X-21717000Y-21336000D03*
X-101600000Y-22352000D03*
X-84836000Y-14986000D03*
X-74168000Y-17526000D03*
D32*
X-12700000Y-3556000D03*
D33*
X-48514000Y-37145631D03*
%TO.N,+3V3*%
X-23622000Y-28448000D03*
X-94996000Y-14478000D03*
X-53974999Y-10667999D03*
X-29972000Y-37973000D03*
X-100330000Y-10160000D03*
X-59817000Y-22733000D03*
X-94234000Y-15240000D03*
X-69469000Y-10414000D03*
X-25146000Y-28448000D03*
X-30479999Y-31241999D03*
X-23622000Y-29210000D03*
X-22860000Y-28448000D03*
X-32385000Y-16891000D03*
X-59817000Y-28067000D03*
X-28575000Y-20320000D03*
X-59817000Y-23495000D03*
X-22860000Y-29210000D03*
X-31623000Y-16891000D03*
X-52324000Y-10668000D03*
X-24384000Y-29210000D03*
X-74168000Y-31242000D03*
X-50038000Y-10668000D03*
X-86868000Y-5080000D03*
X-77089000Y-21336000D03*
X-51562000Y-10668000D03*
X-72644000Y-30480000D03*
X-22860000Y-29972000D03*
X-59817000Y-27305000D03*
X-99568000Y-9398000D03*
X-52197000Y-31242000D03*
X-98806000Y-9398000D03*
X-59817000Y-26543000D03*
X-26670000Y-29972000D03*
X-86314737Y-40706837D03*
X-22098000Y-29972000D03*
X-87634559Y-41468837D03*
X-77978000Y-12192000D03*
X-33020000Y-11811000D03*
X-20574000Y-29210000D03*
X-29717999Y-28575000D03*
X-29971999Y-37211000D03*
X-31241998Y-32004000D03*
X-84582000Y-4318000D03*
X-77216000Y-12954000D03*
X-93472000Y-16002000D03*
X-29337000Y-18796000D03*
X-86974648Y-41087837D03*
X-76962000Y-15875000D03*
X-22098000Y-29210000D03*
X-25146000Y-30734000D03*
X-25908000Y-30734000D03*
X-36449000Y-25273000D03*
X-59817000Y-21209000D03*
X-33020000Y-13589000D03*
X-22098000Y-28448000D03*
X-25908000Y-29972000D03*
X-59817000Y-21971000D03*
X-76454000Y-21971000D03*
X-54864000Y-11557000D03*
X-21336000Y-28448000D03*
X-59817000Y-20447000D03*
X-20574000Y-29972000D03*
X-94234000Y-37592000D03*
X-21336000Y-29972000D03*
X-100330000Y-9398000D03*
X-73279000Y-21844000D03*
X-94234000Y-14478000D03*
X-25146000Y-29972000D03*
X-53975001Y-11556998D03*
X-49276000Y-10668000D03*
X-73406000Y-31242000D03*
X-93472000Y-15240000D03*
X-59817000Y-25781000D03*
X-30480000Y-32004000D03*
X-90043000Y-16383000D03*
X-83820000Y-4318000D03*
X-25908000Y-29210000D03*
X-85344000Y-4318000D03*
X-79502000Y-10668000D03*
X-33909000Y-11811000D03*
X-33020000Y-12700000D03*
X-74168000Y-13208000D03*
X-20574000Y-28448000D03*
X-21336000Y-29210000D03*
X-24384000Y-30734000D03*
X-28575000Y-18796000D03*
X-99568000Y-10160000D03*
X-51435000Y-31242000D03*
X-23622000Y-29972000D03*
X-98806000Y-10160000D03*
X-52197000Y-32004000D03*
X-78740000Y-11430000D03*
X-36449000Y-24511000D03*
X-86106000Y-5080000D03*
X-26670000Y-29210000D03*
X-73406000Y-30480000D03*
X-45720000Y-31369000D03*
X-94996000Y-15240000D03*
X-83058000Y-5080000D03*
X-67564000Y-31369000D03*
X-29718000Y-27813000D03*
X-71501000Y-21844000D03*
X-90043000Y-17145000D03*
X-99568000Y-10922000D03*
X-93472000Y-16764000D03*
X-31241999Y-31242001D03*
X-59817000Y-24257000D03*
X-93472000Y-37211000D03*
X-24384000Y-28448000D03*
X-26670000Y-30734000D03*
X-74168000Y-32004000D03*
X-28575000Y-19558000D03*
X-50800000Y-10668000D03*
X-59817000Y-25019000D03*
%TO.N,/microcontroller/AVDD*%
X-69088000Y-13208000D03*
X-77978000Y-10414000D03*
D34*
%TO.N,+5V*%
X-103886000Y-10033000D03*
D33*
%TO.N,Net-(U18-Q3)*%
X-69977000Y-32385000D03*
%TO.N,Net-(U19-Q3)*%
X-48006000Y-32385000D03*
D35*
%TO.N,/microcontroller/SPI.nCS3*%
X-68326000Y-23495000D03*
X-82296000Y-23114000D03*
%TO.N,/microcontroller/SPI.nCS4*%
X-68453000Y-25019001D03*
X-82296000Y-24003000D03*
%TO.N,/microcontroller/SPI.SCK*%
X-63754000Y-32639000D03*
X-80772000Y-8001000D03*
X-33274000Y-35179000D03*
X-36322000Y-35433000D03*
X-41910000Y-31496000D03*
X-33528000Y-27882999D03*
X-92329000Y-17272000D03*
%TO.N,/microcontroller/SPI.SDI*%
X-42799000Y-31496000D03*
X-91694000Y-17907000D03*
X-37211000Y-36322000D03*
X-32893000Y-29464000D03*
X-81420778Y-9779000D03*
X-33147000Y-35941000D03*
X-64643000Y-32639000D03*
D36*
%TO.N,/power/SHUTTER_in*%
X-100076000Y-17272000D03*
D35*
%TO.N,/microcontroller/SPI.SDO*%
X-65532000Y-32639000D03*
X-82042000Y-11176000D03*
X-43688000Y-31496000D03*
X-32893000Y-28448000D03*
X-91059000Y-18415000D03*
X-35179000Y-37084000D03*
D36*
%TO.N,/power/PPS_in*%
X-100076000Y-12192000D03*
D33*
%TO.N,/microcontroller/nMCLR*%
X-65405000Y-17907000D03*
X-107315000Y-27559000D03*
X-68008500Y-11239500D03*
D32*
%TO.N,/microcontroller/UNLAUNCH*%
X-80518000Y-4318000D03*
X-60275631Y-11987369D03*
X-53086000Y-17399000D03*
D36*
%TO.N,/power/PRELAUNCH_in*%
X-100076000Y-22352000D03*
%TO.N,/power/3V3_EN*%
X-97282000Y-4826000D03*
D33*
X-102362000Y-8890000D03*
D36*
X-106680000Y-2032000D03*
D33*
%TO.N,/microcontroller/INTRPT2*%
X-60452000Y-18288000D03*
D36*
X-98298000Y-17272000D03*
D33*
%TO.N,/microcontroller/INTRPT0*%
X-24511000Y-12954000D03*
X-24638000Y-24130000D03*
X-24638000Y-18542000D03*
X-19304000Y-21336000D03*
X-19304000Y-15748000D03*
X-27813000Y-23368000D03*
X-19304000Y-26924000D03*
%TO.N,/microcontroller/INTRPT1*%
X-61087000Y-18923000D03*
D36*
X-98298000Y-22352000D03*
D33*
X-34798000Y-15494000D03*
X-32512000Y-21844000D03*
D35*
%TO.N,/microcontroller/SPI.nCS2*%
X-63500000Y-21971000D03*
X-65913000Y-31623000D03*
%TO.N,/microcontroller/SPI.nCS1*%
X-63500000Y-20447000D03*
X-44577000Y-31496000D03*
D33*
%TO.N,/microcontroller/PGD*%
X-79502000Y-15875000D03*
X-106934000Y-28829000D03*
%TO.N,/microcontroller/PGC*%
X-79502000Y-18161000D03*
%TO.N,/microcontroller/TEMP2_READY*%
X-67437000Y-28321000D03*
X-71882000Y-28321000D03*
%TO.N,/sync/Q*%
X-34163000Y-18923000D03*
D35*
%TO.N,/sync/SYNC1-*%
X-21580262Y-13323070D03*
%TO.N,/sync/SYNC1+*%
X-21572544Y-12584468D03*
%TO.N,/sync/SYNC3-*%
X-21590000Y-18911573D03*
%TO.N,/sync/SYNC3+*%
X-21590000Y-18172930D03*
%TO.N,/sync/SYNC5-*%
X-21590000Y-24499070D03*
%TO.N,/sync/SYNC5+*%
X-21573333Y-23760615D03*
%TO.N,/microcontroller/SPI.nCS6*%
X-63373000Y-28067000D03*
%TO.N,/microcontroller/SPI.nCS5*%
X-63373000Y-26543000D03*
D32*
%TO.N,GNDPWR*%
X-82550000Y-55626000D03*
X-106680000Y-34671000D03*
X-44450000Y-53721000D03*
X-3810000Y-17526000D03*
X-7620000Y-13716000D03*
X-3810000Y-34671000D03*
X-92075000Y-48006000D03*
X-114300000Y-32766000D03*
X-7620000Y-36576000D03*
X-67310000Y-53721000D03*
X-3810000Y-36576000D03*
X-52070000Y-55626000D03*
D33*
X-101346000Y-53340000D03*
D32*
X-38735000Y-55626000D03*
X-34925000Y-55626000D03*
X-29210000Y-53721000D03*
X-7620000Y-32766000D03*
X-31115000Y-53721000D03*
X-114300000Y-34671000D03*
X-3810000Y-13716000D03*
X-59690000Y-55626000D03*
X-42545000Y-55626000D03*
D33*
X-110363000Y-35941000D03*
D32*
X-78740000Y-55626000D03*
X-74930000Y-55626000D03*
X-27305000Y-53721000D03*
X-3810000Y-30861000D03*
X-93980000Y-49911000D03*
X-90170000Y-51816000D03*
X-38735000Y-53721000D03*
X-3810000Y-23241000D03*
X-7620000Y-21336000D03*
X-48260000Y-55626000D03*
X-101600000Y-55626000D03*
X-76835000Y-53721000D03*
X-25400000Y-53721000D03*
X-5715000Y-25146000D03*
X-36830000Y-55626000D03*
X-69215000Y-53721000D03*
X-88265000Y-51816000D03*
X-5715000Y-17526000D03*
X-3810000Y-27051000D03*
X-7620000Y-34671000D03*
X-78740000Y-53721000D03*
X-5715000Y-34671000D03*
X-97790000Y-51816000D03*
X-5715000Y-21336000D03*
X-36830000Y-53721000D03*
X-73025000Y-53721000D03*
X-25400000Y-55626000D03*
X-59690000Y-53721000D03*
X-5715000Y-8001000D03*
X-99695000Y-55626000D03*
X-3810000Y-21336000D03*
X-33020000Y-55626000D03*
X-82550000Y-53721000D03*
X-7620000Y-15621000D03*
X-55880000Y-53721000D03*
X-48260000Y-53721000D03*
X-86360000Y-51816000D03*
X-34925000Y-53721000D03*
X-74930000Y-53721000D03*
D33*
X-109474000Y-35560000D03*
D32*
X-106680000Y-32766000D03*
X-63500000Y-55626000D03*
D33*
X-100457000Y-52832000D03*
X-108204000Y-36195000D03*
D32*
X-63500000Y-53721000D03*
X-65405000Y-55626000D03*
X-5715000Y-28956000D03*
X-53975000Y-53721000D03*
X-40640000Y-55626000D03*
X-80645000Y-53721000D03*
X-5715000Y-13716000D03*
X-84455000Y-53721000D03*
X-88265000Y-49911000D03*
X-53975000Y-55626000D03*
X-3810000Y-32766000D03*
X-7620000Y-23241000D03*
X-5715000Y-27051000D03*
X-31115000Y-55626000D03*
X-5715000Y-11811000D03*
X-42545000Y-53721000D03*
X-90170000Y-49911000D03*
X-50165000Y-53721000D03*
X-7620000Y-19431000D03*
X-40640000Y-53721000D03*
X-92075000Y-49911000D03*
X-65405000Y-53721000D03*
X-86360000Y-53721000D03*
X-7620000Y-25146000D03*
X-5715000Y-23241000D03*
X-80645000Y-55626000D03*
X-88265000Y-53721000D03*
X-3810000Y-38481000D03*
X-50165000Y-55626000D03*
X-3810000Y-8001000D03*
X-92075000Y-51816000D03*
X-84455000Y-55626000D03*
X-5715000Y-9906000D03*
X-71120000Y-55626000D03*
X-52070000Y-53721000D03*
X-57785000Y-55626000D03*
X-55880000Y-55626000D03*
X-3810000Y-9906000D03*
X-7620000Y-11811000D03*
X-99695000Y-53721000D03*
X-67310000Y-55626000D03*
X-46355000Y-55626000D03*
X-5715000Y-15621000D03*
X-5715000Y-19431000D03*
D33*
X-102362000Y-53213000D03*
X-111125000Y-36449000D03*
D32*
X-7620000Y-8001000D03*
X-76835000Y-55626000D03*
X-7620000Y-30861000D03*
D33*
X-99568000Y-52324000D03*
D32*
X-97790000Y-55626000D03*
X-7620000Y-38481000D03*
X-7620000Y-17526000D03*
D33*
X-111633000Y-37211000D03*
D32*
X-5715000Y-32766000D03*
X-95885000Y-51816000D03*
X-33020000Y-53721000D03*
D33*
X-99314000Y-51562000D03*
D32*
X-93980000Y-51816000D03*
X-114300000Y-30861000D03*
X-7620000Y-27051000D03*
X-108585000Y-32766000D03*
X-7620000Y-28956000D03*
X-61595000Y-55626000D03*
X-71120000Y-53721000D03*
X-104775000Y-32766000D03*
X-73025000Y-55626000D03*
X-5715000Y-36576000D03*
X-3810000Y-15621000D03*
X-7620000Y-9906000D03*
X-86360000Y-49911000D03*
X-93980000Y-48006000D03*
X-27305000Y-55626000D03*
X-44450000Y-55626000D03*
X-46355000Y-53721000D03*
D33*
X-108585000Y-35560000D03*
D32*
X-5715000Y-30861000D03*
X-57785000Y-53721000D03*
X-110490000Y-32766000D03*
D33*
X-111252000Y-37846000D03*
D32*
X-112395000Y-34671000D03*
X-3810000Y-19431000D03*
X-3810000Y-25146000D03*
X-95885000Y-49911000D03*
X-3810000Y-28956000D03*
X-61595000Y-53721000D03*
X-5715000Y-38481000D03*
X-3810000Y-11811000D03*
X-97790000Y-53721000D03*
X-69215000Y-55626000D03*
X-112395000Y-32766000D03*
X-86360000Y-55626000D03*
D34*
%TO.N,Net-(C49-Pad1)*%
X-91948000Y-31623000D03*
D33*
%TO.N,Net-(C50-Pad1)*%
X-88693706Y-37094339D03*
X-89836706Y-35114605D03*
D35*
%TO.N,/eth_phy/ETHTXJ_P*%
X-90297000Y-41021000D03*
D33*
%TO.N,/rtd/LDO2*%
X-67945000Y-34671000D03*
%TO.N,/rtd/LDO1*%
X-45720000Y-34671000D03*
%TO.N,/rtd/VREF2*%
X-76200000Y-36957000D03*
X-75565000Y-36322000D03*
%TO.N,/rtd/VREF1*%
X-54229000Y-36957000D03*
X-53594000Y-36322000D03*
D35*
%TO.N,/eth_phy/ETHTXJ_N*%
X-90805000Y-40132000D03*
D33*
%TO.N,/microcontroller/VDDCORE*%
X-68580000Y-15748000D03*
%TO.N,/microcontroller/RC2*%
X-75311000Y-9652000D03*
X-76962000Y-10414000D03*
D34*
%TO.N,/rtd/TEMP2.RSENSE*%
X-77978000Y-41783000D03*
%TO.N,/rtd/TEMP1.RSENSE*%
X-56134000Y-41783000D03*
D35*
%TO.N,/eth_phy/ETH.LEDB*%
X-71755000Y-10160000D03*
X-89154000Y-29083000D03*
%TO.N,/eth_phy/ETH.LEDA*%
X-72528500Y-10668177D03*
X-87249000Y-43053000D03*
D33*
%TO.N,/rtd/TEMP2.CH4*%
X-75438000Y-41529000D03*
%TO.N,/rtd/TEMP2.CH6*%
X-73914500Y-41529000D03*
%TO.N,/rtd/TEMP2.CH8*%
X-72644000Y-41910000D03*
%TO.N,/rtd/TEMP2.CH10*%
X-69723000Y-42291000D03*
%TO.N,/rtd/TEMP2.CH12*%
X-67945000Y-41783000D03*
%TO.N,/rtd/TEMP2.CH14*%
X-66675000Y-41529000D03*
%TO.N,/rtd/TEMP2.CH16*%
X-65405000Y-40894000D03*
%TO.N,/rtd/TEMP2.CH18*%
X-64897000Y-39624000D03*
%TO.N,/rtd/TEMP2.CH20*%
X-64897000Y-38281706D03*
%TO.N,/rtd/TEMP1.CH4*%
X-52705000Y-41021000D03*
%TO.N,/rtd/TEMP1.CH6*%
X-51689000Y-41783000D03*
%TO.N,/rtd/TEMP1.CH8*%
X-50419000Y-42291000D03*
%TO.N,/rtd/TEMP1.CH10*%
X-47244000Y-42799000D03*
%TO.N,/rtd/TEMP1.CH12*%
X-45974000Y-41402000D03*
%TO.N,/rtd/TEMP1.CH14*%
X-44958000Y-41148000D03*
%TO.N,/rtd/TEMP1.CH16*%
X-43688000Y-40894000D03*
%TO.N,/rtd/TEMP1.CH18*%
X-42926000Y-39624000D03*
%TO.N,/rtd/TEMP1.CH20*%
X-42926000Y-38227000D03*
D32*
%TO.N,/power/PPS*%
X-32385000Y-20701000D03*
D36*
X-98298000Y-12192000D03*
D32*
X-51689000Y-18161000D03*
%TD*%
D37*
%TO.N,+3V3*%
X-67564000Y-31369000D02*
X-67874344Y-31369000D01*
X-67874344Y-31369000D02*
X-68939972Y-32434628D01*
X-45790657Y-31369000D02*
X-46874219Y-32452562D01*
X-45720000Y-31369000D02*
X-45790657Y-31369000D01*
%TO.N,/microcontroller/AVDD*%
X-69088000Y-13208000D02*
X-70091000Y-13208000D01*
D38*
X-77978000Y-10414000D02*
X-77063423Y-11328577D01*
X-77063423Y-11328577D02*
X-71970423Y-11328577D01*
D37*
X-70091000Y-13208000D02*
X-70104000Y-13195000D01*
D38*
X-71970423Y-11328577D02*
X-70104000Y-13195000D01*
D39*
%TO.N,+5V*%
X-97906789Y-5969000D02*
X-92837000Y-5969000D01*
X-79121000Y-3429000D02*
X-78232000Y-4318000D01*
X-92837000Y-5969000D02*
X-90297000Y-3429000D01*
X-101970789Y-10033000D02*
X-97906789Y-5969000D01*
X-65532000Y-5207000D02*
X-59055000Y-5207000D01*
X-66421000Y-4318000D02*
X-65532000Y-5207000D01*
X-103886000Y-10033000D02*
X-101970789Y-10033000D01*
X-78232000Y-4318000D02*
X-66421000Y-4318000D01*
X-90297000Y-3429000D02*
X-79121000Y-3429000D01*
X-59055000Y-5207000D02*
X-56642000Y-2794000D01*
D40*
%TO.N,Net-(U18-Q3)*%
X-69936992Y-31455992D02*
X-69936992Y-32344992D01*
X-69936992Y-32344992D02*
X-69977000Y-32385000D01*
%TO.N,Net-(U19-Q3)*%
X-48006000Y-31429082D02*
X-47942657Y-31365739D01*
X-48006000Y-32385000D02*
X-48006000Y-31429082D01*
D37*
%TO.N,/microcontroller/SPI.nCS3*%
X-81534000Y-23495000D02*
X-68326000Y-23495000D01*
X-82296000Y-23114000D02*
X-81915000Y-23114000D01*
X-81915000Y-23114000D02*
X-81534000Y-23495000D01*
%TO.N,/microcontroller/SPI.nCS4*%
X-69469001Y-24003000D02*
X-68453000Y-25019001D01*
X-82296000Y-24003000D02*
X-69469001Y-24003000D01*
%TO.N,/microcontroller/SPI.SCK*%
X-41910000Y-31496000D02*
X-37973000Y-35433000D01*
X-86868000Y-10160000D02*
X-82931000Y-10160000D01*
X-64058800Y-25450800D02*
X-64058800Y-29591000D01*
X-63754000Y-32639000D02*
X-63627000Y-32766000D01*
X-80772000Y-8001000D02*
X-80264000Y-7493000D01*
X-44704000Y-28321000D02*
X-41910000Y-31115000D01*
X-33528000Y-27882999D02*
X-33528000Y-28575000D01*
X-34079218Y-29997400D02*
X-33731200Y-29997400D01*
X-69215000Y-7493000D02*
X-61722000Y-14986000D01*
X-41910000Y-31115000D02*
X-41910000Y-31496000D01*
X-63855600Y-29794200D02*
X-63726329Y-29794200D01*
X-80264000Y-7493000D02*
X-69215000Y-7493000D01*
X-56642000Y-28321000D02*
X-44704000Y-28321000D01*
X-32893000Y-32004000D02*
X-32893000Y-34798000D01*
X-63726329Y-30200600D02*
X-63855600Y-30200600D01*
X-33731200Y-28778200D02*
X-34079218Y-28778200D01*
X-34079218Y-29184600D02*
X-33731200Y-29184600D01*
X-82931000Y-10160000D02*
X-80772000Y-8001000D01*
X-61087000Y-32766000D02*
X-56642000Y-28321000D01*
X-33528000Y-31369000D02*
X-32893000Y-32004000D01*
X-33528000Y-30200600D02*
X-33528000Y-31369000D01*
X-32893000Y-34798000D02*
X-33274000Y-35179000D01*
X-64058800Y-32334200D02*
X-63754000Y-32639000D01*
X-61722000Y-23114000D02*
X-64058800Y-25450800D01*
X-63627000Y-32766000D02*
X-61087000Y-32766000D01*
X-92329000Y-15621000D02*
X-86868000Y-10160000D01*
X-61722000Y-14986000D02*
X-61722000Y-23114000D01*
X-92329000Y-17272000D02*
X-92329000Y-15621000D01*
X-33731200Y-29591000D02*
X-34079218Y-29591000D01*
X-64058800Y-30403800D02*
X-64058800Y-32334200D01*
X-37973000Y-35433000D02*
X-36322000Y-35433000D01*
X-33528000Y-30200600D02*
G75*
G03*
X-33731200Y-29997400I-203200J0D01*
G01*
X-64058800Y-29591000D02*
G75*
G03*
X-63855600Y-29794200I203200J0D01*
G01*
X-34282400Y-29794200D02*
G75*
G03*
X-34079218Y-29997400I203200J0D01*
G01*
X-34282400Y-28981400D02*
G75*
G03*
X-34079218Y-29184600I203200J0D01*
G01*
X-34079218Y-29590982D02*
G75*
G03*
X-34282418Y-29794200I18J-203218D01*
G01*
X-63726329Y-30200571D02*
G75*
G03*
X-63523129Y-29997400I29J203171D01*
G01*
X-34079218Y-28778182D02*
G75*
G03*
X-34282418Y-28981400I18J-203218D01*
G01*
X-33528000Y-29387800D02*
G75*
G03*
X-33731200Y-29184600I-203200J0D01*
G01*
X-33731200Y-28778200D02*
G75*
G03*
X-33528000Y-28575000I0J203200D01*
G01*
X-33731200Y-29591000D02*
G75*
G03*
X-33528000Y-29387800I0J203200D01*
G01*
X-63523100Y-29997400D02*
G75*
G03*
X-63726329Y-29794200I-203200J0D01*
G01*
X-63855600Y-30200600D02*
G75*
G03*
X-64058800Y-30403800I0J-203200D01*
G01*
%TO.N,/microcontroller/SPI.SDI*%
X-87879409Y-12337535D02*
X-87879410Y-12337535D01*
X-32893000Y-31115000D02*
X-32385000Y-31623000D01*
X-88225157Y-12566525D02*
X-88225157Y-12566526D01*
X-88454157Y-12912262D02*
X-88512525Y-12853893D01*
X-62230000Y-15240000D02*
X-69469000Y-8001000D01*
X-89028894Y-13486999D02*
X-89087262Y-13428630D01*
X-64643000Y-32639000D02*
X-64643000Y-24892000D01*
X-87879410Y-12337535D02*
X-87937788Y-12279156D01*
X-91694000Y-15748000D02*
X-89662000Y-13716000D01*
X-89028893Y-13486999D02*
X-89028894Y-13486999D01*
X-42799000Y-31242000D02*
X-42799000Y-31496000D01*
X-89087262Y-13141262D02*
X-89087263Y-13141263D01*
X-81661000Y-9779000D02*
X-81420778Y-9779000D01*
X-87363052Y-11417052D02*
X-86614000Y-10668000D01*
X-79629000Y-8001000D02*
X-81407000Y-9779000D01*
X-64643000Y-32639000D02*
X-64643000Y-32893000D01*
X-37211000Y-36322000D02*
X-37973000Y-36322000D01*
X-86614000Y-10668000D02*
X-82550000Y-10668000D01*
X-64135000Y-33401000D02*
X-60833000Y-33401000D01*
X-87937788Y-11991788D02*
X-87937789Y-11991789D01*
X-89374631Y-13716000D02*
X-89316262Y-13774368D01*
X-45085000Y-28956000D02*
X-42799000Y-31242000D01*
X-32893000Y-29464000D02*
X-32893000Y-31115000D01*
X-60833000Y-33401000D02*
X-56388000Y-28956000D01*
X-69469000Y-8001000D02*
X-79629000Y-8001000D01*
X-81407000Y-9779000D02*
X-81420778Y-9779000D01*
X-88799894Y-13141263D02*
X-88741525Y-13199631D01*
X-64643000Y-32893000D02*
X-64135000Y-33401000D01*
X-37973000Y-36322000D02*
X-42799000Y-31496000D01*
X-82550000Y-10668000D02*
X-81661000Y-9779000D01*
X-32385000Y-31623000D02*
X-32385000Y-35179000D01*
X-87363051Y-11417051D02*
X-87363052Y-11417052D01*
X-88454156Y-12912262D02*
X-88454157Y-12912262D01*
X-64643000Y-24892000D02*
X-63754000Y-24003000D01*
X-63373000Y-24003000D02*
X-62992000Y-23622000D01*
X-87304672Y-11762798D02*
X-87304673Y-11762798D01*
X-88512525Y-12566525D02*
X-88512526Y-12566526D01*
X-89374631Y-13715999D02*
X-89374631Y-13716000D01*
X-56388000Y-28956000D02*
X-45085000Y-28956000D01*
X-88799894Y-13141262D02*
X-88799894Y-13141263D01*
X-32385000Y-35179000D02*
X-33147000Y-35941000D01*
X-62992000Y-23622000D02*
X-62992000Y-23241000D01*
X-62992000Y-23241000D02*
X-62230000Y-22479000D01*
X-87650420Y-11991789D02*
X-87592041Y-12050167D01*
X-62230000Y-22479000D02*
X-62230000Y-15240000D01*
X-63754000Y-24003000D02*
X-63373000Y-24003000D01*
X-87304673Y-11762798D02*
X-87363051Y-11704419D01*
X-91694000Y-17907000D02*
X-91694000Y-15748000D01*
X-88225157Y-12566526D02*
X-88166778Y-12624904D01*
X-87650420Y-11991788D02*
X-87650420Y-11991789D01*
X-89087307Y-13141217D02*
G75*
G03*
X-89087261Y-13428629I143707J-143683D01*
G01*
X-89316261Y-13774367D02*
G75*
G03*
X-89028895Y-13774367I143683J143683D01*
G01*
X-87937759Y-11991817D02*
G75*
G03*
X-87937787Y-12279155I143659J-143683D01*
G01*
X-87304655Y-12050184D02*
G75*
G03*
X-87304672Y-11762798I-143745J143684D01*
G01*
X-88225116Y-12566484D02*
G75*
G03*
X-88512526Y-12566526I-143684J-143716D01*
G01*
X-88454203Y-13199585D02*
G75*
G03*
X-88454156Y-12912262I-143597J143685D01*
G01*
X-88512534Y-12566516D02*
G75*
G03*
X-88512525Y-12853893I143734J-143684D01*
G01*
X-88741524Y-13199630D02*
G75*
G03*
X-88454158Y-13199630I143683J143683D01*
G01*
X-88799917Y-13141285D02*
G75*
G03*
X-89087262Y-13141264I-143683J-143615D01*
G01*
X-88166777Y-12624903D02*
G75*
G03*
X-87879411Y-12624903I143683J143683D01*
G01*
X-89028877Y-13774385D02*
G75*
G03*
X-89028893Y-13486999I-143723J143685D01*
G01*
X-87650416Y-11991784D02*
G75*
G03*
X-87937789Y-11991789I-143684J-143716D01*
G01*
X-87592040Y-12050166D02*
G75*
G03*
X-87304674Y-12050166I143683J143683D01*
G01*
X-87879429Y-12624885D02*
G75*
G03*
X-87879409Y-12337535I-143671J143685D01*
G01*
X-89374616Y-13715984D02*
G75*
G03*
X-89662000Y-13716000I-143684J-143716D01*
G01*
X-87363086Y-11417016D02*
G75*
G03*
X-87363051Y-11704419I143686J-143684D01*
G01*
D41*
%TO.N,/power/SHUTTER_in*%
X-100076000Y-17272000D02*
X-101092000Y-16256000D01*
X-110961170Y-23876000D02*
X-112268000Y-25182830D01*
X-102616000Y-16256000D02*
X-103886000Y-17526000D01*
X-103886000Y-20320000D02*
X-107442000Y-23876000D01*
X-107442000Y-23876000D02*
X-110961170Y-23876000D01*
X-103886000Y-17526000D02*
X-103886000Y-20320000D01*
X-101092000Y-16256000D02*
X-102616000Y-16256000D01*
D37*
%TO.N,/microcontroller/SPI.SDO*%
X-88031420Y-13642789D02*
X-87854144Y-13820064D01*
X-88606157Y-14217526D02*
X-88428881Y-14394801D01*
X-91059000Y-18415000D02*
X-91059000Y-16383000D01*
X-89180894Y-14792263D02*
X-89003618Y-14969538D01*
X-88318788Y-13642787D02*
X-88318787Y-13642787D01*
X-86992049Y-12957947D02*
X-86992050Y-12957947D01*
X-65532000Y-32385000D02*
X-65532000Y-32639000D01*
X-69723000Y-8509000D02*
X-62738000Y-15494000D01*
X-60579000Y-34036000D02*
X-56134000Y-29591000D01*
X-64452500Y-34036000D02*
X-60579000Y-34036000D01*
X-56134000Y-29591000D02*
X-45339000Y-29591000D01*
X-87744050Y-13068050D02*
X-87744052Y-13068052D01*
X-82042000Y-11176000D02*
X-81915000Y-11176000D01*
X-87566775Y-13532695D02*
X-87744050Y-13355419D01*
X-62738000Y-15494000D02*
X-62738000Y-22225000D01*
X-31877000Y-29464000D02*
X-32893000Y-28448000D01*
X-79248000Y-8509000D02*
X-69723000Y-8509000D01*
X-89290985Y-15256906D02*
X-89290986Y-15256906D01*
X-89290986Y-15544276D02*
X-89290986Y-15544275D01*
X-65278000Y-24765000D02*
X-65278000Y-32131000D01*
X-88716248Y-14682169D02*
X-88716249Y-14682169D01*
X-43688000Y-31242000D02*
X-43688000Y-31496000D01*
X-65278000Y-32131000D02*
X-65532000Y-32385000D01*
X-33274000Y-37084000D02*
X-31877000Y-35687000D01*
X-87456683Y-13068052D02*
X-87279418Y-13245316D01*
X-88141512Y-14394802D02*
X-88141512Y-14394801D01*
X-87169315Y-12493315D02*
X-85852000Y-11176000D01*
X-86992050Y-12957947D02*
X-87169314Y-12780682D01*
X-89468262Y-14792261D02*
X-89468261Y-14792261D01*
X-91059000Y-16383000D02*
X-90043000Y-15367000D01*
X-65532000Y-32956500D02*
X-64452500Y-34036000D01*
X-31877000Y-35687000D02*
X-31877000Y-29464000D01*
X-87566775Y-13820065D02*
X-87566775Y-13820064D01*
X-65532000Y-32639000D02*
X-65532000Y-32956500D01*
X-85852000Y-11176000D02*
X-82042000Y-11176000D01*
X-88893524Y-14217524D02*
X-88893526Y-14217526D01*
X-89468261Y-14792261D02*
X-89468263Y-14792263D01*
X-89755631Y-15367000D02*
X-89578355Y-15544275D01*
X-87744051Y-13068050D02*
X-87744050Y-13068050D01*
X-38100000Y-37084000D02*
X-43688000Y-31496000D01*
X-88141511Y-14107432D02*
X-88141512Y-14107432D01*
X-87169314Y-12493314D02*
X-87169315Y-12493315D01*
X-88606157Y-14217525D02*
X-88606157Y-14217526D01*
X-81915000Y-11176000D02*
X-79248000Y-8509000D01*
X-88716249Y-14969539D02*
X-88716249Y-14969538D01*
X-35179000Y-37084000D02*
X-33274000Y-37084000D01*
X-62738000Y-22225000D02*
X-65278000Y-24765000D01*
X-88893525Y-14217524D02*
X-88893524Y-14217524D01*
X-35179000Y-37084000D02*
X-38100000Y-37084000D01*
X-88141512Y-14107432D02*
X-88318787Y-13930156D01*
X-87456683Y-13068051D02*
X-87456683Y-13068052D01*
X-89290986Y-15256906D02*
X-89468261Y-15079630D01*
X-89180894Y-14792262D02*
X-89180894Y-14792263D01*
X-89755631Y-15366999D02*
X-89755631Y-15367000D01*
X-87566774Y-13532695D02*
X-87566775Y-13532695D01*
X-45339000Y-29591000D02*
X-43688000Y-31242000D01*
X-88031420Y-13642788D02*
X-88031420Y-13642789D01*
X-88716249Y-14682169D02*
X-88893524Y-14504893D01*
X-88318787Y-13642787D02*
X-88318789Y-13642789D01*
X-87169312Y-12493316D02*
G75*
G03*
X-87169314Y-12780682I143712J-143684D01*
G01*
X-89578385Y-15544305D02*
G75*
G03*
X-89290986Y-15544276I143685J143705D01*
G01*
X-87456717Y-13068085D02*
G75*
G03*
X-87744051Y-13068053I-143683J-143615D01*
G01*
X-88428885Y-14394805D02*
G75*
G03*
X-88141512Y-14394802I143685J143705D01*
G01*
X-89180917Y-14792285D02*
G75*
G03*
X-89468262Y-14792264I-143683J-143615D01*
G01*
X-88031416Y-13642784D02*
G75*
G03*
X-88318789Y-13642789I-143684J-143716D01*
G01*
X-88318759Y-13642816D02*
G75*
G03*
X-88318787Y-13930156I143659J-143684D01*
G01*
X-88893533Y-14217516D02*
G75*
G03*
X-88893524Y-14504893I143733J-143684D01*
G01*
X-88716202Y-14969585D02*
G75*
G03*
X-88716248Y-14682169I-143698J143685D01*
G01*
X-89290977Y-15544284D02*
G75*
G03*
X-89290986Y-15256907I-143723J143684D01*
G01*
X-87854185Y-13820105D02*
G75*
G03*
X-87566775Y-13820065I143685J143705D01*
G01*
X-88606116Y-14217484D02*
G75*
G03*
X-88893526Y-14217526I-143684J-143716D01*
G01*
X-89468307Y-14792216D02*
G75*
G03*
X-89468261Y-15079630I143707J-143684D01*
G01*
X-89003584Y-14969505D02*
G75*
G03*
X-88716250Y-14969538I143684J143605D01*
G01*
X-89755616Y-15366984D02*
G75*
G03*
X-90043000Y-15367000I-143684J-143716D01*
G01*
X-87744085Y-13068016D02*
G75*
G03*
X-87744050Y-13355419I143685J-143684D01*
G01*
X-87279417Y-13245315D02*
G75*
G03*
X-86992051Y-13245315I143683J143683D01*
G01*
X-86992081Y-13245285D02*
G75*
G03*
X-86992049Y-12957947I-143619J143685D01*
G01*
X-88141528Y-14394785D02*
G75*
G03*
X-88141511Y-14107432I-143672J143685D01*
G01*
X-87566754Y-13820085D02*
G75*
G03*
X-87566774Y-13532695I-143746J143685D01*
G01*
D41*
%TO.N,/power/PPS_in*%
X-106680000Y-21336000D02*
X-110961170Y-21336000D01*
X-102616000Y-11176000D02*
X-104902000Y-13462000D01*
X-104902000Y-13462000D02*
X-104902000Y-19558000D01*
X-101092000Y-11176000D02*
X-102616000Y-11176000D01*
X-104902000Y-19558000D02*
X-106680000Y-21336000D01*
X-100076000Y-12192000D02*
X-101092000Y-11176000D01*
X-110961170Y-21336000D02*
X-112268000Y-22642830D01*
D40*
%TO.N,/microcontroller/nMCLR*%
X-81661000Y-11811000D02*
X-78867000Y-9017000D01*
X-107315000Y-27559000D02*
X-90424000Y-27559000D01*
X-84709000Y-11811000D02*
X-81661000Y-11811000D01*
X-90424000Y-27559000D02*
X-86995000Y-24130000D01*
X-65405000Y-13843000D02*
X-68008500Y-11239500D01*
X-65405000Y-17907000D02*
X-65405000Y-13843000D01*
X-69850000Y-9017000D02*
X-68580000Y-10287000D01*
X-86995000Y-24130000D02*
X-86995000Y-14097000D01*
X-68580000Y-10668000D02*
X-68008500Y-11239500D01*
X-68580000Y-10287000D02*
X-68580000Y-10668000D01*
X-86995000Y-14097000D02*
X-84709000Y-11811000D01*
X-78867000Y-9017000D02*
X-69850000Y-9017000D01*
D38*
%TO.N,/microcontroller/UNLAUNCH*%
X-79756000Y-5080000D02*
X-67183000Y-5080000D01*
X-53086000Y-17399000D02*
X-56769000Y-17399000D01*
X-59055000Y-13208000D02*
X-60275631Y-11987369D01*
X-59055000Y-15113000D02*
X-59055000Y-13208000D01*
X-67183000Y-5080000D02*
X-60275631Y-11987369D01*
X-56769000Y-17399000D02*
X-59055000Y-15113000D01*
X-80518000Y-4318000D02*
X-79756000Y-5080000D01*
D41*
%TO.N,/power/PRELAUNCH_in*%
X-102616000Y-21336000D02*
X-109002830Y-27722830D01*
X-100076000Y-22352000D02*
X-101092000Y-21336000D01*
X-101092000Y-21336000D02*
X-102616000Y-21336000D01*
X-109002830Y-27722830D02*
X-109728000Y-27722830D01*
%TO.N,/power/3V3_EN*%
X-106934000Y-2540000D02*
X-106934000Y-2286000D01*
X-97536000Y-5080000D02*
X-104394000Y-5080000D01*
D40*
X-103251000Y-8001000D02*
X-103251000Y-6223000D01*
D41*
X-97282000Y-4826000D02*
X-97536000Y-5080000D01*
X-106934000Y-2286000D02*
X-106680000Y-2032000D01*
D40*
X-102362000Y-8890000D02*
X-103251000Y-8001000D01*
D41*
X-104394000Y-5080000D02*
X-106934000Y-2540000D01*
D40*
X-103251000Y-6223000D02*
X-104394000Y-5080000D01*
D38*
%TO.N,/microcontroller/INTRPT2*%
X-90678000Y-6223000D02*
X-94488000Y-10033000D01*
X-60452000Y-18288000D02*
X-60452000Y-13716000D01*
X-60452000Y-13716000D02*
X-67945000Y-6223000D01*
X-67945000Y-6223000D02*
X-90678000Y-6223000D01*
X-98298000Y-13970000D02*
X-98298000Y-17272000D01*
X-96774000Y-11049000D02*
X-96774000Y-12446000D01*
X-96774000Y-12446000D02*
X-98298000Y-13970000D01*
X-95758000Y-10033000D02*
X-96774000Y-11049000D01*
X-94488000Y-10033000D02*
X-95758000Y-10033000D01*
D40*
%TO.N,/microcontroller/INTRPT0*%
X-20320000Y-27305000D02*
X-19558000Y-27305000D01*
X-19558000Y-16256000D02*
X-19304000Y-16002000D01*
X-23622000Y-25908000D02*
X-23241000Y-26289000D01*
X-24130000Y-12954000D02*
X-23622000Y-13462000D01*
X-23622000Y-18923000D02*
X-23622000Y-20320000D01*
D37*
X-27813000Y-22098000D02*
X-27813000Y-22606000D01*
X-24638000Y-24384000D02*
X-24638000Y-24130000D01*
D40*
X-19304000Y-16002000D02*
X-19304000Y-15748000D01*
D37*
X-24511000Y-13652500D02*
X-24511000Y-12954000D01*
X-26670000Y-24511000D02*
X-24765000Y-24511000D01*
D40*
X-20193000Y-16256000D02*
X-19558000Y-16256000D01*
X-19685000Y-21844000D02*
X-19304000Y-21463000D01*
X-23622000Y-14732000D02*
X-23241000Y-15113000D01*
D37*
X-27813000Y-16954500D02*
X-24511000Y-13652500D01*
D40*
X-24638000Y-18542000D02*
X-24003000Y-18542000D01*
X-21336000Y-26289000D02*
X-20320000Y-27305000D01*
D37*
X-24765000Y-24511000D02*
X-24638000Y-24384000D01*
D40*
X-24511000Y-12954000D02*
X-24130000Y-12954000D01*
X-20193000Y-21844000D02*
X-19685000Y-21844000D01*
D37*
X-27813000Y-23368000D02*
X-27813000Y-22606000D01*
X-27813000Y-23368000D02*
X-26670000Y-24511000D01*
D40*
X-21336000Y-15113000D02*
X-20193000Y-16256000D01*
D37*
X-24638000Y-18542000D02*
X-24638000Y-18923000D01*
X-27813000Y-22606000D02*
X-27813000Y-16954500D01*
D40*
X-23241000Y-26289000D02*
X-21336000Y-26289000D01*
X-19558000Y-27305000D02*
X-19304000Y-27051000D01*
X-23241000Y-20701000D02*
X-21336000Y-20701000D01*
X-24130000Y-24130000D02*
X-23622000Y-24638000D01*
X-19304000Y-27051000D02*
X-19304000Y-26924000D01*
X-23622000Y-24638000D02*
X-23622000Y-25908000D01*
X-23622000Y-20320000D02*
X-23241000Y-20701000D01*
D38*
X-38735000Y-23368000D02*
X-27813000Y-23368000D01*
D40*
X-21336000Y-20701000D02*
X-20193000Y-21844000D01*
X-24638000Y-24130000D02*
X-24130000Y-24130000D01*
X-23622000Y-13462000D02*
X-23622000Y-14732000D01*
X-23241000Y-15113000D02*
X-21336000Y-15113000D01*
X-24003000Y-18542000D02*
X-23622000Y-18923000D01*
X-19304000Y-21463000D02*
X-19304000Y-21336000D01*
D37*
X-24638000Y-18923000D02*
X-27813000Y-22098000D01*
%TO.N,/microcontroller/INTRPT1*%
X-31623000Y-20955000D02*
X-31623000Y-20193000D01*
D38*
X-97155000Y-21209000D02*
X-97155000Y-14478000D01*
D37*
X-31623000Y-20193000D02*
X-34798000Y-17018000D01*
D38*
X-68580000Y-6731000D02*
X-61087000Y-14224000D01*
X-98298000Y-22352000D02*
X-97155000Y-21209000D01*
D37*
X-32512000Y-21844000D02*
X-31623000Y-20955000D01*
X-34798000Y-17018000D02*
X-34798000Y-15494000D01*
D38*
X-95885000Y-11303000D02*
X-95250000Y-10668000D01*
X-97155000Y-14478000D02*
X-95885000Y-13208000D01*
X-94234000Y-10668000D02*
X-90297000Y-6731000D01*
X-90297000Y-6731000D02*
X-68580000Y-6731000D01*
X-95885000Y-13208000D02*
X-95885000Y-11303000D01*
X-61087000Y-14224000D02*
X-61087000Y-18923000D01*
X-95250000Y-10668000D02*
X-94234000Y-10668000D01*
D37*
%TO.N,/microcontroller/SPI.nCS2*%
X-66040000Y-31496000D02*
X-66040000Y-24511000D01*
X-66040000Y-24511000D02*
X-63500000Y-21971000D01*
X-65913000Y-31623000D02*
X-66040000Y-31496000D01*
%TO.N,/microcontroller/SPI.nCS1*%
X-45593000Y-30226000D02*
X-44577000Y-31242000D01*
X-66675000Y-23622000D02*
X-66675000Y-32766000D01*
X-60325000Y-34671000D02*
X-55880000Y-30226000D01*
X-63500000Y-20447000D02*
X-66675000Y-23622000D01*
X-55880000Y-30226000D02*
X-45593000Y-30226000D01*
X-44577000Y-31242000D02*
X-44577000Y-31496000D01*
X-66675000Y-32766000D02*
X-64770000Y-34671000D01*
X-64770000Y-34671000D02*
X-60325000Y-34671000D01*
D40*
%TO.N,/microcontroller/UART.TX*%
X-50038000Y-8065000D02*
X-49213000Y-8065000D01*
X-49213000Y-8065000D02*
X-43942000Y-2794000D01*
%TO.N,/microcontroller/UART.RX*%
X-51562000Y-7874000D02*
X-46482000Y-2794000D01*
X-51562000Y-8065000D02*
X-51562000Y-7874000D01*
%TO.N,/microcontroller/PGD*%
X-81153000Y-22479000D02*
X-83820000Y-22479000D01*
X-83820000Y-22479000D02*
X-90043000Y-28702000D01*
X-90043000Y-28702000D02*
X-106807000Y-28702000D01*
X-78994000Y-20320000D02*
X-81153000Y-22479000D01*
X-79502000Y-17145000D02*
X-78994000Y-17653000D01*
X-106807000Y-28702000D02*
X-106934000Y-28829000D01*
X-79502000Y-15875000D02*
X-79502000Y-17145000D01*
X-78994000Y-17653000D02*
X-78994000Y-20320000D01*
%TO.N,/microcontroller/PGC*%
X-79756000Y-18288000D02*
X-79756000Y-20447000D01*
X-84201000Y-22098000D02*
X-90297000Y-28194000D01*
X-79756000Y-20447000D02*
X-81407000Y-22098000D01*
X-81407000Y-22098000D02*
X-84201000Y-22098000D01*
X-79502000Y-18161000D02*
X-79629000Y-18161000D01*
X-90297000Y-28194000D02*
X-107188000Y-28194000D01*
X-107188000Y-28194000D02*
X-108458000Y-29464000D01*
X-113538000Y-28448000D02*
X-113538000Y-11212830D01*
X-108458000Y-29464000D02*
X-112522000Y-29464000D01*
X-79629000Y-18161000D02*
X-79756000Y-18288000D01*
X-113538000Y-11212830D02*
X-112268000Y-9942830D01*
X-112522000Y-29464000D02*
X-113538000Y-28448000D01*
%TO.N,/microcontroller/TEMP2_READY*%
X-71882000Y-28321000D02*
X-67437000Y-28321000D01*
D37*
%TO.N,/sync/Q*%
X-37084000Y-18923000D02*
X-38735000Y-17272000D01*
X-34163000Y-18923000D02*
X-37084000Y-18923000D01*
%TO.N,/sync/SYNC1-*%
X-18875434Y-13145770D02*
X-14493434Y-17527770D01*
X-21402962Y-13145770D02*
X-18875434Y-13145770D01*
X-21580262Y-13323070D02*
X-21402962Y-13145770D01*
X-13238230Y-17527770D02*
X-12430000Y-18336000D01*
X-14493434Y-17527770D02*
X-13238230Y-17527770D01*
%TO.N,/sync/SYNC1+*%
X-14334566Y-17144230D02*
X-13238230Y-17144230D01*
X-21572544Y-12584468D02*
X-21394782Y-12762230D01*
X-21394782Y-12762230D02*
X-18716566Y-12762230D01*
X-13238230Y-17144230D02*
X-12430000Y-16336000D01*
X-18716566Y-12762230D02*
X-14334566Y-17144230D01*
%TO.N,/sync/SYNC3-*%
X-21412197Y-18733770D02*
X-19383434Y-18733770D01*
X-13238230Y-21527770D02*
X-12430000Y-22336000D01*
X-21590000Y-18911573D02*
X-21412197Y-18733770D01*
X-16589434Y-21527770D02*
X-13238230Y-21527770D01*
X-19383434Y-18733770D02*
X-16589434Y-21527770D01*
%TO.N,/sync/SYNC3+*%
X-21412700Y-18350230D02*
X-19224566Y-18350230D01*
X-19224566Y-18350230D02*
X-16430566Y-21144230D01*
X-16430566Y-21144230D02*
X-13238230Y-21144230D01*
X-21590000Y-18172930D02*
X-21412700Y-18350230D01*
X-13238230Y-21144230D02*
X-12430000Y-20336000D01*
%TO.N,/sync/SYNC5-*%
X-13238230Y-25527770D02*
X-12430000Y-26336000D01*
X-19383434Y-24321770D02*
X-18177434Y-25527770D01*
X-21412700Y-24321770D02*
X-19383434Y-24321770D01*
X-18177434Y-25527770D02*
X-13238230Y-25527770D01*
X-21590000Y-24499070D02*
X-21412700Y-24321770D01*
%TO.N,/sync/SYNC5+*%
X-13238230Y-25144230D02*
X-12430000Y-24336000D01*
X-21395718Y-23938230D02*
X-19224566Y-23938230D01*
X-21573333Y-23760615D02*
X-21395718Y-23938230D01*
X-19224566Y-23938230D02*
X-18018566Y-25144230D01*
X-18018566Y-25144230D02*
X-13238230Y-25144230D01*
%TO.N,/microcontroller/SPI.nCS6*%
X-57023000Y-27686000D02*
X-44450000Y-27686000D01*
X-61849000Y-29591000D02*
X-58928000Y-29591000D01*
X-44450000Y-27686000D02*
X-38481000Y-33655000D01*
X-58928000Y-29591000D02*
X-57023000Y-27686000D01*
X-38481000Y-33655000D02*
X-37084000Y-33655000D01*
X-63373000Y-28067000D02*
X-61849000Y-29591000D01*
%TO.N,/microcontroller/SPI.nCS5*%
X-44196000Y-27051000D02*
X-40640000Y-30607000D01*
X-40640000Y-30607000D02*
X-37084000Y-30607000D01*
X-63373000Y-26543000D02*
X-60833000Y-29083000D01*
X-59309000Y-29083000D02*
X-57277000Y-27051000D01*
X-60833000Y-29083000D02*
X-59309000Y-29083000D01*
X-57277000Y-27051000D02*
X-44196000Y-27051000D01*
D39*
%TO.N,Net-(C49-Pad1)*%
X-91948000Y-31623000D02*
X-94361000Y-33020000D01*
X-94361000Y-33020000D02*
X-96766613Y-32282500D01*
D37*
%TO.N,/eth_phy/ETHTXJ_P*%
X-89582971Y-41021000D02*
X-89487471Y-40925500D01*
X-90297000Y-41021000D02*
X-89582971Y-41021000D01*
D40*
%TO.N,/rtd/LDO2*%
X-67945000Y-34671000D02*
X-67945000Y-33594917D01*
X-67945000Y-33594917D02*
X-67862341Y-33512258D01*
%TO.N,/rtd/LDO1*%
X-45796588Y-33530193D02*
X-45796588Y-34594412D01*
X-45796588Y-34594412D02*
X-45720000Y-34671000D01*
D37*
%TO.N,/eth_phy/ETHTXJ_N*%
X-90775794Y-40132000D02*
X-90249471Y-39605677D01*
X-90805000Y-40132000D02*
X-90775794Y-40132000D01*
D40*
%TO.N,/microcontroller/VDDCORE*%
X-68580000Y-15748000D02*
X-68580000Y-16497000D01*
X-68580000Y-16497000D02*
X-68313000Y-16764000D01*
%TO.N,/microcontroller/RC2*%
X-76200000Y-9652000D02*
X-75311000Y-9652000D01*
X-76962000Y-10414000D02*
X-76200000Y-9652000D01*
D42*
%TO.N,/rtd/TEMP2.RSENSE*%
X-69420000Y-46641000D02*
X-71611000Y-44450000D01*
X-75311000Y-44450000D02*
X-77978000Y-41783000D01*
X-71611000Y-44450000D02*
X-75311000Y-44450000D01*
%TO.N,/rtd/TEMP1.RSENSE*%
X-56134000Y-41783000D02*
X-53467000Y-44450000D01*
X-53467000Y-44450000D02*
X-49611000Y-44450000D01*
X-49611000Y-44450000D02*
X-47420000Y-46641000D01*
D37*
%TO.N,/eth_phy/ETH.LEDB*%
X-68316973Y-25781000D02*
X-85852000Y-25781000D01*
X-67310000Y-13843000D02*
X-67310000Y-22479000D01*
X-68707000Y-12446000D02*
X-67310000Y-13843000D01*
X-67818000Y-25282027D02*
X-68316973Y-25781000D01*
X-69215000Y-12446000D02*
X-68707000Y-12446000D01*
X-67818000Y-25273000D02*
X-67818000Y-25282027D01*
X-71501000Y-10160000D02*
X-69215000Y-12446000D01*
X-85852000Y-25781000D02*
X-89154000Y-29083000D01*
X-67691000Y-25146000D02*
X-67818000Y-25273000D01*
X-71755000Y-10160000D02*
X-71501000Y-10160000D01*
X-67310000Y-22479000D02*
X-67691000Y-22860000D01*
X-67691000Y-22860000D02*
X-67691000Y-25146000D01*
%TO.N,/eth_phy/ETH.LEDA*%
X-66802000Y-22860000D02*
X-66802000Y-13589000D01*
X-71374000Y-9525000D02*
X-72136000Y-9525000D01*
X-69850000Y-11049000D02*
X-71374000Y-9525000D01*
X-71374000Y-26289000D02*
X-68061697Y-26289000D01*
X-84074000Y-40894000D02*
X-82169000Y-38989000D01*
X-66802000Y-13589000D02*
X-69342000Y-11049000D01*
X-72136000Y-9525000D02*
X-72517000Y-9906000D01*
X-85090000Y-40894000D02*
X-84074000Y-40894000D01*
X-67183000Y-25410303D02*
X-67183000Y-23241000D01*
X-82169000Y-38989000D02*
X-82169000Y-37084000D01*
X-82169000Y-37084000D02*
X-71374000Y-26289000D01*
X-72517000Y-9906000D02*
X-72517000Y-10656677D01*
X-69342000Y-11049000D02*
X-69850000Y-11049000D01*
X-67183000Y-23241000D02*
X-66802000Y-22860000D01*
X-72517000Y-10656677D02*
X-72528500Y-10668177D01*
X-68061697Y-26289000D02*
X-67183000Y-25410303D01*
X-87249000Y-43053000D02*
X-85090000Y-40894000D01*
D38*
%TO.N,/power/PPS*%
X-37084000Y-19685000D02*
X-33401000Y-19685000D01*
X-59690000Y-15367000D02*
X-59690000Y-13525500D01*
X-37719000Y-20320000D02*
X-37084000Y-19685000D01*
X-67500500Y-5715000D02*
X-91059000Y-5715000D01*
X-98298000Y-11303000D02*
X-98298000Y-12192000D01*
X-56896000Y-18161000D02*
X-59690000Y-15367000D01*
X-96393000Y-9398000D02*
X-98298000Y-11303000D01*
X-51689000Y-18161000D02*
X-56896000Y-18161000D01*
X-91059000Y-5715000D02*
X-94742000Y-9398000D01*
X-38735000Y-20320000D02*
X-37719000Y-20320000D01*
X-94742000Y-9398000D02*
X-96393000Y-9398000D01*
X-59690000Y-13525500D02*
X-67500500Y-5715000D01*
X-33401000Y-19685000D02*
X-32385000Y-20701000D01*
%TD*%
%TA.AperFunction,Conductor*%
%TO.N,GNDPWR*%
G36*
X-108762300Y-394978D02*
G01*
X-108725478Y-431800D01*
X-108712000Y-482100D01*
X-108712000Y-5038330D01*
X-108719658Y-5076828D01*
X-108741465Y-5109465D01*
X-111476535Y-7844535D01*
X-111509172Y-7866342D01*
X-111547670Y-7874000D01*
X-113284000Y-7874000D01*
X-114300000Y-8890000D01*
X-114300000Y-28702000D01*
X-113284000Y-29718000D01*
X-111506000Y-31496000D01*
X-99118001Y-31496000D01*
X-99067753Y-31509448D01*
X-99030940Y-31546195D01*
X-90678000Y-45974000D01*
X-89669276Y-45974000D01*
X-89615471Y-45989598D01*
X-89578350Y-46031555D01*
X-89569426Y-46086860D01*
X-89591465Y-46138363D01*
X-89637633Y-46170094D01*
X-89662525Y-46178342D01*
X-89813340Y-46271365D01*
X-89938635Y-46396660D01*
X-90031658Y-46547475D01*
X-90087394Y-46715677D01*
X-90098000Y-46819491D01*
X-90098000Y-46928500D01*
X-86432000Y-46928500D01*
X-86432000Y-46873093D01*
X-83328696Y-46873093D01*
X-81920001Y-48281788D01*
X-80511306Y-46873093D01*
X-80542466Y-46845765D01*
X-80788580Y-46681317D01*
X-81054045Y-46550404D01*
X-81334333Y-46455259D01*
X-81624636Y-46397514D01*
X-81920000Y-46378155D01*
X-82215365Y-46397514D01*
X-82505668Y-46455259D01*
X-82785957Y-46550404D01*
X-83051420Y-46681317D01*
X-83297535Y-46845764D01*
X-83328696Y-46873092D01*
X-83328696Y-46873093D01*
X-86432000Y-46873093D01*
X-86432000Y-46819491D01*
X-86442607Y-46715677D01*
X-86498343Y-46547475D01*
X-86591366Y-46396660D01*
X-86716661Y-46271365D01*
X-86867476Y-46178342D01*
X-86892367Y-46170094D01*
X-86938535Y-46138363D01*
X-86960574Y-46086860D01*
X-86951650Y-46031555D01*
X-86914529Y-45989598D01*
X-86860724Y-45974000D01*
X-80559670Y-45974000D01*
X-80521172Y-45981658D01*
X-80488535Y-46003465D01*
X-79531465Y-46960535D01*
X-79509658Y-46993172D01*
X-79502000Y-47031670D01*
X-79502000Y-48201573D01*
X-79518954Y-48257463D01*
X-79564102Y-48294515D01*
X-79622226Y-48300240D01*
X-79673735Y-48272708D01*
X-79701267Y-48221199D01*
X-79734260Y-48055332D01*
X-79829405Y-47775043D01*
X-79960318Y-47509580D01*
X-80124763Y-47263470D01*
X-80152095Y-47232304D01*
X-81560790Y-48640999D01*
X-80152094Y-50049694D01*
X-80124766Y-50018535D01*
X-79960318Y-49772420D01*
X-79829405Y-49506955D01*
X-79734260Y-49226667D01*
X-79701267Y-49060801D01*
X-79673735Y-49009292D01*
X-79622226Y-48981760D01*
X-79564102Y-48987485D01*
X-79518954Y-49024537D01*
X-79502000Y-49080427D01*
X-79502000Y-52070000D01*
X-78486000Y-53086000D01*
X-38354000Y-53086000D01*
X-37338000Y-52070000D01*
X-37338000Y-50408905D01*
X-36328696Y-50408905D01*
X-36297530Y-50436237D01*
X-36051421Y-50600682D01*
X-35785956Y-50731595D01*
X-35505668Y-50826740D01*
X-35215365Y-50884485D01*
X-34920000Y-50903844D01*
X-34624636Y-50884485D01*
X-34334333Y-50826740D01*
X-34054045Y-50731595D01*
X-33788580Y-50600682D01*
X-33542465Y-50436234D01*
X-33511305Y-50408906D01*
X-34920000Y-49000210D01*
X-36328696Y-50408905D01*
X-37338000Y-50408905D01*
X-37338000Y-49080427D01*
X-37321046Y-49024537D01*
X-37275898Y-48987485D01*
X-37217774Y-48981760D01*
X-37166265Y-49009292D01*
X-37138733Y-49060801D01*
X-37105741Y-49226667D01*
X-37010596Y-49506955D01*
X-36879683Y-49772420D01*
X-36715235Y-50018534D01*
X-36687907Y-50049694D01*
X-35279211Y-48641000D01*
X-35279212Y-48640999D01*
X-34560790Y-48640999D01*
X-33152094Y-50049694D01*
X-33124766Y-50018535D01*
X-32960318Y-49772420D01*
X-32829405Y-49506955D01*
X-32734260Y-49226667D01*
X-32676515Y-48936364D01*
X-32657156Y-48640999D01*
X-32676515Y-48345635D01*
X-32734260Y-48055332D01*
X-32829405Y-47775043D01*
X-32960318Y-47509580D01*
X-33124763Y-47263470D01*
X-33152095Y-47232304D01*
X-34560790Y-48640999D01*
X-35279212Y-48640999D01*
X-36687907Y-47232304D01*
X-36687908Y-47232304D01*
X-36715236Y-47263465D01*
X-36879683Y-47509580D01*
X-37010596Y-47775043D01*
X-37105741Y-48055332D01*
X-37138733Y-48221199D01*
X-37166265Y-48272708D01*
X-37217774Y-48300240D01*
X-37275898Y-48294515D01*
X-37321046Y-48257463D01*
X-37338000Y-48201573D01*
X-37338000Y-47539670D01*
X-37330342Y-47501172D01*
X-37308535Y-47468535D01*
X-36713093Y-46873093D01*
X-36328696Y-46873093D01*
X-34920001Y-48281788D01*
X-33511306Y-46873093D01*
X-33542466Y-46845765D01*
X-33788580Y-46681317D01*
X-34054045Y-46550404D01*
X-34334333Y-46455259D01*
X-34624636Y-46397514D01*
X-34920000Y-46378155D01*
X-35215365Y-46397514D01*
X-35505668Y-46455259D01*
X-35785957Y-46550404D01*
X-36051420Y-46681317D01*
X-36297535Y-46845764D01*
X-36328696Y-46873092D01*
X-36328696Y-46873093D01*
X-36713093Y-46873093D01*
X-35843465Y-46003465D01*
X-35810828Y-45981658D01*
X-35772330Y-45974000D01*
X-34077670Y-45974000D01*
X-34039172Y-45981658D01*
X-34006535Y-46003465D01*
X-32512000Y-47498000D01*
X-28448000Y-51562000D01*
X-22606000Y-51562000D01*
X-21336000Y-51562000D01*
X-16510000Y-51562000D01*
X-9144000Y-38862000D01*
X-9144000Y-35306000D01*
X-12700000Y-31750000D01*
X-13025748Y-31424252D01*
X-12659043Y-31424252D01*
X-12518377Y-31529554D01*
X-12266287Y-31667206D01*
X-11997166Y-31767583D01*
X-11716500Y-31828637D01*
X-11430000Y-31849128D01*
X-11143501Y-31828637D01*
X-10862835Y-31767583D01*
X-10593714Y-31667206D01*
X-10341624Y-31529554D01*
X-10200959Y-31424252D01*
X-10200959Y-31424251D01*
X-11430000Y-30195210D01*
X-12659043Y-31424251D01*
X-12659043Y-31424252D01*
X-13025748Y-31424252D01*
X-13686535Y-30763465D01*
X-13708342Y-30730828D01*
X-13716000Y-30692330D01*
X-13716000Y-29836000D01*
X-13443129Y-29836000D01*
X-13422638Y-30122499D01*
X-13361584Y-30403165D01*
X-13261207Y-30672286D01*
X-13123555Y-30924376D01*
X-13018253Y-31065041D01*
X-11789210Y-29836000D01*
X-11070790Y-29836000D01*
X-9841749Y-31065041D01*
X-9841748Y-31065041D01*
X-9736446Y-30924376D01*
X-9598794Y-30672286D01*
X-9498417Y-30403165D01*
X-9437363Y-30122499D01*
X-9416872Y-29836000D01*
X-9437363Y-29549500D01*
X-9498417Y-29268834D01*
X-9598794Y-28999713D01*
X-9736446Y-28747623D01*
X-9841749Y-28606957D01*
X-11070790Y-29836000D01*
X-11789210Y-29836000D01*
X-13018253Y-28606957D01*
X-13123554Y-28747622D01*
X-13261208Y-28999716D01*
X-13361584Y-29268834D01*
X-13422638Y-29549500D01*
X-13443129Y-29836000D01*
X-13716000Y-29836000D01*
X-13716000Y-28997670D01*
X-13708342Y-28959172D01*
X-13686535Y-28926535D01*
X-12983465Y-28223465D01*
X-12950828Y-28201658D01*
X-12912330Y-28194000D01*
X-12754460Y-28194000D01*
X-12715962Y-28201658D01*
X-12683325Y-28223465D01*
X-11430001Y-29476789D01*
X-10192329Y-28239117D01*
X-10169326Y-28203325D01*
X-10160001Y-28194000D01*
X-10160000Y-28194000D01*
X-8382000Y-26416000D01*
X-8382000Y-16002000D01*
X-9906000Y-14478000D01*
X-10105540Y-14478000D01*
X-10144038Y-14470342D01*
X-10176675Y-14448535D01*
X-11430000Y-13195210D01*
X-12683326Y-14448535D01*
X-12715963Y-14470342D01*
X-12754461Y-14478000D01*
X-13166330Y-14478000D01*
X-13204828Y-14470342D01*
X-13237465Y-14448535D01*
X-13686535Y-13999465D01*
X-13708342Y-13966828D01*
X-13716000Y-13928330D01*
X-13716000Y-12836000D01*
X-13443129Y-12836000D01*
X-13422638Y-13122499D01*
X-13361584Y-13403165D01*
X-13261207Y-13672286D01*
X-13123555Y-13924376D01*
X-13018253Y-14065041D01*
X-11789210Y-12836000D01*
X-11070790Y-12836000D01*
X-9841749Y-14065041D01*
X-9841748Y-14065041D01*
X-9736446Y-13924376D01*
X-9598794Y-13672286D01*
X-9498417Y-13403165D01*
X-9437363Y-13122499D01*
X-9416872Y-12836000D01*
X-9437363Y-12549500D01*
X-9498417Y-12268834D01*
X-9598794Y-11999713D01*
X-9736446Y-11747623D01*
X-9841749Y-11606957D01*
X-11070790Y-12836000D01*
X-11789210Y-12836000D01*
X-13018253Y-11606957D01*
X-13123554Y-11747622D01*
X-13261208Y-11999716D01*
X-13361584Y-12268834D01*
X-13422638Y-12549500D01*
X-13443129Y-12836000D01*
X-13716000Y-12836000D01*
X-13716000Y-11979670D01*
X-13708342Y-11941172D01*
X-13686535Y-11908535D01*
X-13025747Y-11247747D01*
X-12659043Y-11247747D01*
X-11430001Y-12476789D01*
X-10200959Y-11247747D01*
X-10200959Y-11247746D01*
X-10341624Y-11142445D01*
X-10593714Y-11004793D01*
X-10862835Y-10904416D01*
X-11143501Y-10843362D01*
X-11430000Y-10822871D01*
X-11716500Y-10843362D01*
X-11997166Y-10904416D01*
X-12266284Y-11004792D01*
X-12518378Y-11142446D01*
X-12659043Y-11247747D01*
X-13025747Y-11247747D01*
X-9144000Y-7366000D01*
X-9144000Y-5997491D01*
X-5892283Y-5997491D01*
X-5813305Y-6068070D01*
X-5519449Y-6276571D01*
X-5204095Y-6450862D01*
X-4871206Y-6588748D01*
X-4524977Y-6688495D01*
X-4169747Y-6748851D01*
X-3810000Y-6769055D01*
X-3450254Y-6748851D01*
X-3095024Y-6688495D01*
X-2748795Y-6588748D01*
X-2415906Y-6450862D01*
X-2100552Y-6276571D01*
X-1806697Y-6068070D01*
X-1727720Y-5997490D01*
X-3810000Y-3915210D01*
X-5892283Y-5997491D01*
X-9144000Y-5997491D01*
X-9144000Y-3555999D01*
X-7023056Y-3555999D01*
X-7002852Y-3915746D01*
X-6942496Y-4270976D01*
X-6842749Y-4617205D01*
X-6704863Y-4950094D01*
X-6530572Y-5265448D01*
X-6322071Y-5559304D01*
X-6251492Y-5638280D01*
X-4169210Y-3556000D01*
X-3450790Y-3556000D01*
X-1368510Y-5638280D01*
X-1297930Y-5559303D01*
X-1089429Y-5265448D01*
X-915138Y-4950094D01*
X-777252Y-4617205D01*
X-677505Y-4270976D01*
X-617149Y-3915746D01*
X-596945Y-3555999D01*
X-617149Y-3196253D01*
X-677505Y-2841023D01*
X-777252Y-2494794D01*
X-915138Y-2161905D01*
X-1089429Y-1846551D01*
X-1297930Y-1552695D01*
X-1368510Y-1473718D01*
X-3450790Y-3556000D01*
X-4169210Y-3556000D01*
X-6251492Y-1473718D01*
X-6322071Y-1552696D01*
X-6530572Y-1846551D01*
X-6704863Y-2161905D01*
X-6842749Y-2494794D01*
X-6942496Y-2841023D01*
X-7002852Y-3196253D01*
X-7023056Y-3555999D01*
X-9144000Y-3555999D01*
X-9144000Y-482100D01*
X-9130522Y-431800D01*
X-9093700Y-394978D01*
X-9043400Y-381500D01*
X-5034738Y-381500D01*
X-4982175Y-396324D01*
X-4945103Y-436429D01*
X-4934448Y-489993D01*
X-4953351Y-541231D01*
X-4996240Y-575042D01*
X-5204095Y-661137D01*
X-5519449Y-835428D01*
X-5813304Y-1043929D01*
X-5892282Y-1114508D01*
X-3810001Y-3196789D01*
X-1727719Y-1114507D01*
X-1806696Y-1043929D01*
X-2100548Y-835430D01*
X-2224706Y-766810D01*
X-2266185Y-723425D01*
X-2275575Y-664141D01*
X-2249531Y-610062D01*
X-2197327Y-580440D01*
X-2137548Y-585820D01*
X-1968155Y-655985D01*
X-1958008Y-660872D01*
X-1844827Y-723425D01*
X-1693713Y-806943D01*
X-1684161Y-812945D01*
X-1437893Y-987682D01*
X-1429073Y-994715D01*
X-1203911Y-1195932D01*
X-1195933Y-1203910D01*
X-994716Y-1429072D01*
X-987683Y-1437892D01*
X-812946Y-1684160D01*
X-806944Y-1693712D01*
X-722753Y-1846044D01*
X-663736Y-1952827D01*
X-660877Y-1957999D01*
X-655982Y-1968163D01*
X-540425Y-2247144D01*
X-536699Y-2257792D01*
X-453105Y-2547954D01*
X-450594Y-2558953D01*
X-400012Y-2856658D01*
X-398749Y-2867868D01*
X-381658Y-3172187D01*
X-381500Y-3177828D01*
X-381500Y-35059145D01*
X-381638Y-35064409D01*
X-396525Y-35348505D01*
X-397625Y-35358977D01*
X-441717Y-35637378D01*
X-443907Y-35647678D01*
X-516853Y-35919925D01*
X-520107Y-35929940D01*
X-621110Y-36193068D01*
X-625393Y-36202688D01*
X-754441Y-36455962D01*
X-756938Y-36460564D01*
X-758662Y-36463549D01*
X-758682Y-36463569D01*
X-758675Y-36463573D01*
X-13140455Y-57909446D01*
X-13143207Y-57913937D01*
X-13298165Y-58152549D01*
X-13304354Y-58161068D01*
X-13481740Y-58380120D01*
X-13488787Y-58387945D01*
X-13688081Y-58587236D01*
X-13695906Y-58594282D01*
X-13914948Y-58771657D01*
X-13923467Y-58777847D01*
X-14159854Y-58931357D01*
X-14168973Y-58936622D01*
X-14420119Y-59064585D01*
X-14429739Y-59068867D01*
X-14692866Y-59169870D01*
X-14702881Y-59173124D01*
X-14975126Y-59246069D01*
X-14985425Y-59248259D01*
X-15263823Y-59292351D01*
X-15274296Y-59293451D01*
X-15558853Y-59308362D01*
X-15564117Y-59308500D01*
X-101276330Y-59308500D01*
X-101281597Y-59308362D01*
X-101565702Y-59293466D01*
X-101576174Y-59292365D01*
X-101854552Y-59248269D01*
X-101864851Y-59246080D01*
X-102137109Y-59173125D01*
X-102147124Y-59169871D01*
X-102410260Y-59068860D01*
X-102419879Y-59064577D01*
X-102533898Y-59006480D01*
X-102671017Y-58936614D01*
X-102680128Y-58931353D01*
X-102753656Y-58883604D01*
X-102916518Y-58777839D01*
X-102925036Y-58771650D01*
X-103064460Y-58658748D01*
X-103144090Y-58594265D01*
X-103151888Y-58587244D01*
X-103351217Y-58387918D01*
X-103358252Y-58380104D01*
X-103535632Y-58161061D01*
X-103541821Y-58152543D01*
X-103597056Y-58067491D01*
X-94157283Y-58067491D01*
X-94078305Y-58138070D01*
X-93784449Y-58346571D01*
X-93469095Y-58520862D01*
X-93136206Y-58658748D01*
X-92789977Y-58758495D01*
X-92434747Y-58818851D01*
X-92075000Y-58839055D01*
X-91715254Y-58818851D01*
X-91360024Y-58758495D01*
X-91013795Y-58658748D01*
X-90680906Y-58520862D01*
X-90365552Y-58346571D01*
X-90071697Y-58138070D01*
X-89992721Y-58067491D01*
X-21767283Y-58067491D01*
X-21688305Y-58138070D01*
X-21394449Y-58346571D01*
X-21079095Y-58520862D01*
X-20746206Y-58658748D01*
X-20399977Y-58758495D01*
X-20044747Y-58818851D01*
X-19685000Y-58839055D01*
X-19325254Y-58818851D01*
X-18970024Y-58758495D01*
X-18623795Y-58658748D01*
X-18290906Y-58520862D01*
X-17975552Y-58346571D01*
X-17681697Y-58138070D01*
X-17602720Y-58067490D01*
X-19685000Y-55985210D01*
X-21767283Y-58067491D01*
X-89992721Y-58067491D01*
X-89992720Y-58067490D01*
X-92075000Y-55985210D01*
X-94157283Y-58067491D01*
X-103597056Y-58067491D01*
X-103696909Y-57913736D01*
X-103699662Y-57909244D01*
X-103861286Y-57629303D01*
X-105017895Y-55625999D01*
X-95288056Y-55625999D01*
X-95267852Y-55985746D01*
X-95207496Y-56340976D01*
X-95107749Y-56687205D01*
X-94969863Y-57020094D01*
X-94795572Y-57335448D01*
X-94587071Y-57629304D01*
X-94516492Y-57708280D01*
X-92434210Y-55626000D01*
X-91715790Y-55626000D01*
X-89633510Y-57708280D01*
X-89562930Y-57629303D01*
X-89354429Y-57335448D01*
X-89180138Y-57020094D01*
X-89042252Y-56687205D01*
X-88942505Y-56340976D01*
X-88882149Y-55985746D01*
X-88861945Y-55625999D01*
X-22898056Y-55625999D01*
X-22877852Y-55985746D01*
X-22817496Y-56340976D01*
X-22717749Y-56687205D01*
X-22579863Y-57020094D01*
X-22405572Y-57335448D01*
X-22197071Y-57629304D01*
X-22126492Y-57708280D01*
X-20044210Y-55626000D01*
X-19325790Y-55626000D01*
X-17243510Y-57708280D01*
X-17172930Y-57629303D01*
X-16964429Y-57335448D01*
X-16790138Y-57020094D01*
X-16652252Y-56687205D01*
X-16552505Y-56340976D01*
X-16492149Y-55985746D01*
X-16471945Y-55625999D01*
X-16492149Y-55266253D01*
X-16552505Y-54911023D01*
X-16652252Y-54564794D01*
X-16790138Y-54231905D01*
X-16964429Y-53916551D01*
X-17172930Y-53622695D01*
X-17243510Y-53543718D01*
X-19325790Y-55626000D01*
X-20044210Y-55626000D01*
X-22126492Y-53543718D01*
X-22197071Y-53622696D01*
X-22405572Y-53916551D01*
X-22579863Y-54231905D01*
X-22717749Y-54564794D01*
X-22817496Y-54911023D01*
X-22877852Y-55266253D01*
X-22898056Y-55625999D01*
X-88861945Y-55625999D01*
X-88882149Y-55266253D01*
X-88942505Y-54911023D01*
X-89042252Y-54564794D01*
X-89180138Y-54231905D01*
X-89354429Y-53916551D01*
X-89562930Y-53622695D01*
X-89633510Y-53543718D01*
X-91715790Y-55626000D01*
X-92434210Y-55626000D01*
X-94516492Y-53543718D01*
X-94587071Y-53622696D01*
X-94795572Y-53916551D01*
X-94969863Y-54231905D01*
X-95107749Y-54564794D01*
X-95207496Y-54911023D01*
X-95267852Y-55266253D01*
X-95288056Y-55625999D01*
X-105017895Y-55625999D01*
X-105316304Y-55109140D01*
X-105316304Y-55109138D01*
X-105341262Y-55065910D01*
X-105345763Y-55057146D01*
X-105411524Y-54912009D01*
X-105417863Y-54893335D01*
X-105418184Y-54891957D01*
X-105452916Y-54743004D01*
X-105455487Y-54723467D01*
X-105460536Y-54569185D01*
X-105459246Y-54549508D01*
X-105434101Y-54397212D01*
X-105429000Y-54378171D01*
X-105374621Y-54233697D01*
X-105365902Y-54216018D01*
X-105284384Y-54084933D01*
X-105272385Y-54069296D01*
X-105166856Y-53956629D01*
X-105152040Y-53943637D01*
X-105022249Y-53850635D01*
X-105013953Y-53845288D01*
X-105012738Y-53844587D01*
X-104971021Y-53820505D01*
X-104971019Y-53820502D01*
X-104954616Y-53811033D01*
X-104954605Y-53811024D01*
X-103869448Y-53184508D01*
X-94157282Y-53184508D01*
X-92075001Y-55266789D01*
X-89992720Y-53184508D01*
X-21767282Y-53184508D01*
X-19685001Y-55266789D01*
X-17602719Y-53184507D01*
X-17681696Y-53113929D01*
X-17975552Y-52905428D01*
X-18290906Y-52731137D01*
X-18623795Y-52593251D01*
X-18970024Y-52493504D01*
X-19325254Y-52433148D01*
X-19685000Y-52412944D01*
X-20044747Y-52433148D01*
X-20399977Y-52493504D01*
X-20746206Y-52593251D01*
X-21079095Y-52731137D01*
X-21394449Y-52905428D01*
X-21688304Y-53113929D01*
X-21767282Y-53184508D01*
X-89992720Y-53184508D01*
X-89992719Y-53184507D01*
X-90071696Y-53113929D01*
X-90365552Y-52905428D01*
X-90680906Y-52731137D01*
X-91013795Y-52593251D01*
X-91360024Y-52493504D01*
X-91715254Y-52433148D01*
X-92075000Y-52412944D01*
X-92434747Y-52433148D01*
X-92789977Y-52493504D01*
X-93136206Y-52593251D01*
X-93469095Y-52731137D01*
X-93784449Y-52905428D01*
X-94078304Y-53113929D01*
X-94157282Y-53184508D01*
X-103869448Y-53184508D01*
X-99061963Y-50408905D01*
X-83328696Y-50408905D01*
X-83297530Y-50436237D01*
X-83051421Y-50600682D01*
X-82785956Y-50731595D01*
X-82505668Y-50826740D01*
X-82215365Y-50884485D01*
X-81920000Y-50903844D01*
X-81624636Y-50884485D01*
X-81334333Y-50826740D01*
X-81054045Y-50731595D01*
X-80788580Y-50600682D01*
X-80542465Y-50436234D01*
X-80511305Y-50408906D01*
X-81920000Y-49000210D01*
X-83328696Y-50408905D01*
X-99061963Y-50408905D01*
X-96280577Y-48803071D01*
X-96280558Y-48803065D01*
X-96267186Y-48795343D01*
X-96267184Y-48795343D01*
X-96255693Y-48788707D01*
X-96255497Y-48788641D01*
X-96219663Y-48767950D01*
X-96219662Y-48767952D01*
X-96117371Y-48708890D01*
X-96031049Y-48641000D01*
X-84182845Y-48641000D01*
X-84163486Y-48936364D01*
X-84105741Y-49226667D01*
X-84010596Y-49506955D01*
X-83879683Y-49772420D01*
X-83715235Y-50018534D01*
X-83687907Y-50049694D01*
X-82279211Y-48641000D01*
X-83687907Y-47232304D01*
X-83687908Y-47232304D01*
X-83715236Y-47263465D01*
X-83879683Y-47509580D01*
X-84010596Y-47775043D01*
X-84105741Y-48055332D01*
X-84163486Y-48345635D01*
X-84182845Y-48641000D01*
X-96031049Y-48641000D01*
X-95931683Y-48562852D01*
X-95768668Y-48391875D01*
X-95631644Y-48199439D01*
X-95523400Y-47989462D01*
X-95446139Y-47766219D01*
X-95439654Y-47732572D01*
X-95401434Y-47534253D01*
X-95399859Y-47501172D01*
X-95396779Y-47436500D01*
X-90098000Y-47436500D01*
X-90098000Y-47545509D01*
X-90087394Y-47649322D01*
X-90031658Y-47817524D01*
X-89938635Y-47968339D01*
X-89813340Y-48093634D01*
X-89662525Y-48186657D01*
X-89494323Y-48242393D01*
X-89390509Y-48253000D01*
X-88519000Y-48253000D01*
X-88519000Y-47436500D01*
X-88011000Y-47436500D01*
X-88011000Y-48253000D01*
X-87139491Y-48253000D01*
X-87035678Y-48242393D01*
X-86867476Y-48186657D01*
X-86716661Y-48093634D01*
X-86591366Y-47968339D01*
X-86498343Y-47817524D01*
X-86442607Y-47649322D01*
X-86432000Y-47545509D01*
X-86432000Y-47436500D01*
X-88011000Y-47436500D01*
X-88519000Y-47436500D01*
X-90098000Y-47436500D01*
X-95396779Y-47436500D01*
X-95390196Y-47298284D01*
X-95412653Y-47063119D01*
X-95468348Y-46833543D01*
X-95556146Y-46614229D01*
X-95592995Y-46550404D01*
X-95615204Y-46511937D01*
X-95615205Y-46511936D01*
X-95649250Y-46452966D01*
X-95649255Y-46452960D01*
X-95692444Y-46378155D01*
X-97529019Y-43197113D01*
X-97888048Y-42575257D01*
X-95720781Y-42575257D01*
X-95680210Y-42766129D01*
X-95600840Y-42944395D01*
X-95486142Y-43102264D01*
X-95380801Y-43197113D01*
X-95341127Y-43232836D01*
X-95172134Y-43330404D01*
X-94986550Y-43390705D01*
X-94841129Y-43405989D01*
X-94743833Y-43405989D01*
X-94598413Y-43390705D01*
X-94460735Y-43345970D01*
X-94412828Y-43330404D01*
X-94243835Y-43232836D01*
X-94098820Y-43102264D01*
X-93984122Y-42944396D01*
X-93904752Y-42766129D01*
X-93864181Y-42575257D01*
X-93864181Y-42380121D01*
X-93904752Y-42189249D01*
X-93984122Y-42010983D01*
X-94098820Y-41853114D01*
X-94243835Y-41722542D01*
X-94243836Y-41722541D01*
X-94412829Y-41624973D01*
X-94598413Y-41564672D01*
X-94743833Y-41549389D01*
X-94841129Y-41549389D01*
X-94986550Y-41564672D01*
X-95172134Y-41624973D01*
X-95341127Y-41722541D01*
X-95470962Y-41839446D01*
X-95481046Y-41848526D01*
X-95486143Y-41853115D01*
X-95600839Y-42010979D01*
X-95662067Y-42148500D01*
X-95680210Y-42189249D01*
X-95720781Y-42380121D01*
X-95720781Y-42575257D01*
X-97888048Y-42575257D01*
X-98915134Y-40796290D01*
X-98915135Y-40796290D01*
X-98915136Y-40796288D01*
X-98923329Y-40782098D01*
X-101388048Y-36513079D01*
X-99220781Y-36513079D01*
X-99180210Y-36703951D01*
X-99119628Y-36840020D01*
X-99100839Y-36882219D01*
X-99047077Y-36956216D01*
X-98986142Y-37040086D01*
X-98882468Y-37133434D01*
X-98841127Y-37170658D01*
X-98672134Y-37268226D01*
X-98486550Y-37328527D01*
X-98341129Y-37343811D01*
X-98243833Y-37343811D01*
X-98098413Y-37328527D01*
X-98005622Y-37298376D01*
X-97912828Y-37268226D01*
X-97743835Y-37170658D01*
X-97598820Y-37040086D01*
X-97484122Y-36882218D01*
X-97404752Y-36703951D01*
X-97364181Y-36513079D01*
X-97364181Y-36317943D01*
X-97404752Y-36127071D01*
X-97484122Y-35948805D01*
X-97598820Y-35790936D01*
X-97743835Y-35660364D01*
X-97743836Y-35660363D01*
X-97912829Y-35562795D01*
X-98098413Y-35502494D01*
X-98243833Y-35487211D01*
X-98341129Y-35487211D01*
X-98486550Y-35502494D01*
X-98672134Y-35562795D01*
X-98841127Y-35660363D01*
X-98986143Y-35790937D01*
X-99100839Y-35948801D01*
X-99160632Y-36083098D01*
X-99180210Y-36127071D01*
X-99220781Y-36317943D01*
X-99220781Y-36513079D01*
X-101388048Y-36513079D01*
X-101793414Y-35810964D01*
X-102133065Y-35222671D01*
X-102133071Y-35222654D01*
X-102149248Y-35194637D01*
X-102149356Y-35194318D01*
X-102170154Y-35158297D01*
X-102170153Y-35158297D01*
X-102229215Y-35056003D01*
X-102375254Y-34870310D01*
X-102516395Y-34735739D01*
X-102546229Y-34707293D01*
X-102600419Y-34668707D01*
X-102738673Y-34570262D01*
X-102738674Y-34570261D01*
X-102738676Y-34570260D01*
X-102838172Y-34518969D01*
X-100132295Y-34518969D01*
X-99909040Y-34905656D01*
X-99847945Y-34990263D01*
X-99715577Y-35108060D01*
X-99559609Y-35192158D01*
X-99388450Y-35238019D01*
X-99211334Y-35243172D01*
X-99037796Y-35207340D01*
X-98942587Y-35164618D01*
X-98837359Y-35103864D01*
X-98837358Y-35103863D01*
X-99414359Y-34104468D01*
X-100132295Y-34518969D01*
X-102838172Y-34518969D01*
X-102948654Y-34462015D01*
X-103171906Y-34384754D01*
X-103403873Y-34340052D01*
X-103630019Y-34329286D01*
X-103639848Y-34328819D01*
X-103639849Y-34328819D01*
X-103875021Y-34351281D01*
X-104104594Y-34406982D01*
X-104323913Y-34494790D01*
X-104418026Y-34549130D01*
X-104418028Y-34549131D01*
X-113220736Y-39631376D01*
X-113229519Y-39635887D01*
X-113374645Y-39701641D01*
X-113393317Y-39707980D01*
X-113543659Y-39743037D01*
X-113563211Y-39745611D01*
X-113717494Y-39750664D01*
X-113737172Y-39749375D01*
X-113889486Y-39724232D01*
X-113908532Y-39719128D01*
X-114053007Y-39664758D01*
X-114070694Y-39656037D01*
X-114201791Y-39574524D01*
X-114217436Y-39562520D01*
X-114330110Y-39457001D01*
X-114343113Y-39442176D01*
X-114350904Y-39431306D01*
X-114435473Y-39313308D01*
X-114440825Y-39305007D01*
X-114520095Y-39167708D01*
X-115185267Y-38015595D01*
X-116058488Y-36503130D01*
X-116058489Y-36503129D01*
X-116082919Y-36460814D01*
X-116085431Y-36456187D01*
X-116214599Y-36202686D01*
X-116218882Y-36193066D01*
X-116319890Y-35929932D01*
X-116323144Y-35919917D01*
X-116343442Y-35844166D01*
X-116396093Y-35647672D01*
X-116398281Y-35637373D01*
X-116442374Y-35358976D01*
X-116443474Y-35348517D01*
X-116456074Y-35108060D01*
X-116458362Y-35064385D01*
X-116458500Y-35059121D01*
X-116458500Y-33423595D01*
X-100688101Y-33423595D01*
X-100652269Y-33597134D01*
X-100609548Y-33692341D01*
X-100386293Y-34079029D01*
X-99668357Y-33664528D01*
X-100245357Y-32665135D01*
X-100350589Y-32725892D01*
X-100435192Y-32786983D01*
X-100552990Y-32919353D01*
X-100637087Y-33075320D01*
X-100682948Y-33246478D01*
X-100688101Y-33423595D01*
X-116458500Y-33423595D01*
X-116458500Y-32411135D01*
X-99805418Y-32411135D01*
X-99003459Y-33800168D01*
X-99003458Y-33800171D01*
X-98397418Y-34849863D01*
X-98397418Y-34849864D01*
X-98292194Y-34789114D01*
X-98207583Y-34728016D01*
X-98089785Y-34595646D01*
X-98005688Y-34439679D01*
X-97959827Y-34268521D01*
X-97954674Y-34091404D01*
X-97990506Y-33917865D01*
X-98033227Y-33822658D01*
X-98733735Y-32609343D01*
X-98794830Y-32524736D01*
X-98927198Y-32406939D01*
X-99083166Y-32322841D01*
X-99254325Y-32276980D01*
X-99431441Y-32271827D01*
X-99604979Y-32307659D01*
X-99700185Y-32350380D01*
X-99805418Y-32411135D01*
X-116458500Y-32411135D01*
X-116458500Y-5997491D01*
X-115112283Y-5997491D01*
X-115033305Y-6068070D01*
X-114739449Y-6276571D01*
X-114424095Y-6450862D01*
X-114091206Y-6588748D01*
X-113744977Y-6688495D01*
X-113389747Y-6748851D01*
X-113030000Y-6769055D01*
X-112670254Y-6748851D01*
X-112315024Y-6688495D01*
X-111968795Y-6588748D01*
X-111635906Y-6450862D01*
X-111320552Y-6276571D01*
X-111026697Y-6068070D01*
X-110947720Y-5997490D01*
X-113030000Y-3915210D01*
X-115112283Y-5997491D01*
X-116458500Y-5997491D01*
X-116458500Y-3555999D01*
X-116243056Y-3555999D01*
X-116222852Y-3915746D01*
X-116162496Y-4270976D01*
X-116062749Y-4617205D01*
X-115924863Y-4950094D01*
X-115750572Y-5265448D01*
X-115542071Y-5559304D01*
X-115471492Y-5638280D01*
X-113389210Y-3556000D01*
X-112670790Y-3556000D01*
X-110588510Y-5638280D01*
X-110517930Y-5559303D01*
X-110309429Y-5265448D01*
X-110135138Y-4950094D01*
X-109997252Y-4617205D01*
X-109897505Y-4270976D01*
X-109837149Y-3915746D01*
X-109816945Y-3555999D01*
X-109837149Y-3196253D01*
X-109897505Y-2841023D01*
X-109997252Y-2494794D01*
X-110135138Y-2161905D01*
X-110309429Y-1846551D01*
X-110517930Y-1552695D01*
X-110588510Y-1473718D01*
X-112670790Y-3556000D01*
X-113389210Y-3556000D01*
X-115471492Y-1473718D01*
X-115542071Y-1552696D01*
X-115750572Y-1846551D01*
X-115924863Y-2161905D01*
X-116062749Y-2494794D01*
X-116162496Y-2841023D01*
X-116222852Y-3196253D01*
X-116243056Y-3555999D01*
X-116458500Y-3555999D01*
X-116458500Y-3177828D01*
X-116458342Y-3172187D01*
X-116441252Y-2867868D01*
X-116439989Y-2856658D01*
X-116437742Y-2843434D01*
X-116389406Y-2558945D01*
X-116386898Y-2547962D01*
X-116303300Y-2257783D01*
X-116299580Y-2247153D01*
X-116184012Y-1968147D01*
X-116179132Y-1958014D01*
X-116033053Y-1693704D01*
X-116027060Y-1684166D01*
X-115852316Y-1437888D01*
X-115845285Y-1429072D01*
X-115769607Y-1344389D01*
X-115644068Y-1203909D01*
X-115636090Y-1195932D01*
X-115618240Y-1179980D01*
X-115410925Y-994711D01*
X-115402108Y-987682D01*
X-115360458Y-958130D01*
X-115155834Y-812940D01*
X-115146296Y-806947D01*
X-114881986Y-660868D01*
X-114871853Y-655988D01*
X-114702452Y-585820D01*
X-114642674Y-580440D01*
X-114590470Y-610062D01*
X-114564426Y-664141D01*
X-114573816Y-723425D01*
X-114615295Y-766810D01*
X-114739453Y-835430D01*
X-115033304Y-1043929D01*
X-115112282Y-1114508D01*
X-113030001Y-3196789D01*
X-110947719Y-1114507D01*
X-111026696Y-1043929D01*
X-111320552Y-835428D01*
X-111635906Y-661137D01*
X-111843760Y-575042D01*
X-111886649Y-541231D01*
X-111905552Y-489993D01*
X-111894897Y-436429D01*
X-111857825Y-396324D01*
X-111805262Y-381500D01*
X-108812600Y-381500D01*
X-108762300Y-394978D01*
G37*
%TD.AperFunction*%
%TD*%
%TA.AperFunction,Conductor*%
%TO.N,GND*%
G36*
X-87643243Y-34028874D02*
G01*
X-87203280Y-34146762D01*
X-87168079Y-34164122D01*
X-87142198Y-34193633D01*
X-86591533Y-35147413D01*
X-86591532Y-35147414D01*
X-84549960Y-35694451D01*
X-84514756Y-35711812D01*
X-84488875Y-35741323D01*
X-83133544Y-38088823D01*
X-83120927Y-38125992D01*
X-83123494Y-38165160D01*
X-83473806Y-39472542D01*
X-83491167Y-39507746D01*
X-83520678Y-39533627D01*
X-84328386Y-39999958D01*
X-84365555Y-40012575D01*
X-84404724Y-40010008D01*
X-84425318Y-40004489D01*
X-84497709Y-39985092D01*
X-84532913Y-39967731D01*
X-84558793Y-39938220D01*
X-84672360Y-39741517D01*
X-84898126Y-39350480D01*
X-84910741Y-39313315D01*
X-84908175Y-39274151D01*
X-84686532Y-38446970D01*
X-85512032Y-37017163D01*
X-85639032Y-36797192D01*
X-85639033Y-36797191D01*
X-87680605Y-36250154D01*
X-87715809Y-36232793D01*
X-87741690Y-36203282D01*
X-88035464Y-35694451D01*
X-88525523Y-34845645D01*
X-88538138Y-34808480D01*
X-88535572Y-34769316D01*
X-88464168Y-34502836D01*
X-88446809Y-34467637D01*
X-88417301Y-34441758D01*
X-87719570Y-34038922D01*
X-87682407Y-34026308D01*
X-87643243Y-34028874D01*
G37*
%TD.AperFunction*%
%TD*%
%TA.AperFunction,Conductor*%
%TO.N,GND*%
G36*
X-73901094Y-14235459D02*
G01*
X-73865088Y-14267226D01*
X-73847907Y-14312063D01*
X-73853466Y-14359757D01*
X-73874867Y-14417133D01*
X-73881000Y-14474183D01*
X-73881000Y-14618000D01*
X-72423000Y-14618000D01*
X-72423000Y-14474183D01*
X-72429134Y-14417133D01*
X-72450534Y-14359757D01*
X-72456093Y-14312063D01*
X-72438912Y-14267226D01*
X-72402906Y-14235459D01*
X-72356277Y-14224000D01*
X-70899723Y-14224000D01*
X-70853094Y-14235459D01*
X-70817088Y-14267226D01*
X-70799907Y-14312063D01*
X-70805466Y-14359757D01*
X-70826867Y-14417133D01*
X-70833000Y-14474183D01*
X-70833000Y-14618000D01*
X-70077600Y-14618000D01*
X-70027300Y-14631478D01*
X-69990478Y-14668300D01*
X-69977000Y-14718600D01*
X-69977000Y-15449000D01*
X-69808183Y-15449000D01*
X-69751133Y-15442866D01*
X-69622081Y-15394732D01*
X-69502888Y-15305505D01*
X-69451567Y-15285839D01*
X-69397570Y-15296080D01*
X-69357013Y-15333170D01*
X-69342000Y-15386039D01*
X-69342000Y-15968277D01*
X-69353459Y-16014906D01*
X-69385226Y-16050912D01*
X-69430063Y-16068093D01*
X-69477757Y-16062534D01*
X-69535134Y-16041133D01*
X-69592183Y-16035000D01*
X-69736000Y-16035000D01*
X-69736000Y-17493000D01*
X-69592183Y-17493000D01*
X-69535134Y-17486866D01*
X-69477757Y-17465466D01*
X-69430063Y-17459907D01*
X-69385226Y-17477088D01*
X-69353459Y-17513094D01*
X-69342000Y-17559723D01*
X-69342000Y-20024330D01*
X-69349658Y-20062828D01*
X-69371465Y-20095465D01*
X-69725366Y-20449364D01*
X-69770464Y-20475401D01*
X-69822538Y-20475401D01*
X-69867636Y-20449364D01*
X-69883000Y-20434000D01*
X-71341000Y-20434000D01*
X-71341000Y-20577817D01*
X-71334867Y-20634866D01*
X-71313466Y-20692243D01*
X-71307907Y-20739937D01*
X-71325088Y-20784774D01*
X-71361094Y-20816541D01*
X-71407723Y-20828000D01*
X-71594277Y-20828000D01*
X-71640906Y-20816541D01*
X-71676912Y-20784774D01*
X-71694093Y-20739937D01*
X-71688534Y-20692243D01*
X-71667134Y-20634866D01*
X-71661000Y-20577817D01*
X-71661000Y-20434000D01*
X-73119000Y-20434000D01*
X-73119000Y-20577817D01*
X-73112867Y-20634866D01*
X-73091466Y-20692243D01*
X-73085907Y-20739937D01*
X-73103088Y-20784774D01*
X-73139094Y-20816541D01*
X-73185723Y-20828000D01*
X-73372277Y-20828000D01*
X-73418906Y-20816541D01*
X-73454912Y-20784774D01*
X-73472093Y-20739937D01*
X-73466534Y-20692243D01*
X-73445134Y-20634866D01*
X-73439000Y-20577817D01*
X-73439000Y-20434000D01*
X-74897000Y-20434000D01*
X-74912365Y-20449365D01*
X-74957463Y-20475402D01*
X-75009537Y-20475402D01*
X-75054635Y-20449365D01*
X-75567365Y-19936635D01*
X-75593402Y-19891537D01*
X-75593402Y-19839463D01*
X-75567365Y-19794365D01*
X-75552000Y-19779000D01*
X-75552000Y-19177000D01*
X-75298000Y-19177000D01*
X-75298000Y-19779000D01*
X-75154183Y-19779000D01*
X-75097134Y-19772866D01*
X-74974565Y-19727150D01*
X-74918024Y-19723106D01*
X-74868273Y-19750272D01*
X-74841107Y-19800023D01*
X-74845151Y-19856563D01*
X-74890867Y-19979131D01*
X-74897000Y-20036183D01*
X-74897000Y-20180000D01*
X-74295000Y-20180000D01*
X-74295000Y-19603000D01*
X-74041000Y-19603000D01*
X-74041000Y-20180000D01*
X-73439000Y-20180000D01*
X-73119000Y-20180000D01*
X-72517000Y-20180000D01*
X-72517000Y-19603000D01*
X-72263000Y-19603000D01*
X-72263000Y-20180000D01*
X-71661000Y-20180000D01*
X-71341000Y-20180000D01*
X-70739000Y-20180000D01*
X-70739000Y-19603000D01*
X-70485000Y-19603000D01*
X-70485000Y-20180000D01*
X-69883000Y-20180000D01*
X-69883000Y-20036183D01*
X-69889134Y-19979132D01*
X-69937268Y-19850080D01*
X-70019814Y-19739813D01*
X-70130081Y-19657267D01*
X-70259133Y-19609133D01*
X-70316183Y-19603000D01*
X-70485000Y-19603000D01*
X-70739000Y-19603000D01*
X-70907817Y-19603000D01*
X-70964868Y-19609133D01*
X-71093920Y-19657267D01*
X-71204187Y-19739813D01*
X-71286733Y-19850080D01*
X-71334867Y-19979132D01*
X-71341000Y-20036183D01*
X-71341000Y-20180000D01*
X-71661000Y-20180000D01*
X-71661000Y-20036183D01*
X-71667134Y-19979132D01*
X-71715268Y-19850080D01*
X-71797814Y-19739813D01*
X-71908081Y-19657267D01*
X-72037133Y-19609133D01*
X-72094183Y-19603000D01*
X-72263000Y-19603000D01*
X-72517000Y-19603000D01*
X-72685817Y-19603000D01*
X-72742868Y-19609133D01*
X-72871920Y-19657267D01*
X-72982187Y-19739813D01*
X-73064733Y-19850080D01*
X-73112867Y-19979132D01*
X-73119000Y-20036183D01*
X-73119000Y-20180000D01*
X-73439000Y-20180000D01*
X-73439000Y-20036183D01*
X-73445134Y-19979132D01*
X-73493268Y-19850080D01*
X-73575814Y-19739813D01*
X-73686081Y-19657267D01*
X-73815133Y-19609133D01*
X-73872183Y-19603000D01*
X-74041000Y-19603000D01*
X-74295000Y-19603000D01*
X-74463817Y-19603000D01*
X-74520869Y-19609133D01*
X-74643437Y-19654849D01*
X-74699977Y-19658893D01*
X-74749728Y-19631727D01*
X-74776894Y-19581976D01*
X-74772850Y-19525435D01*
X-74727134Y-19402866D01*
X-74721000Y-19345817D01*
X-74721000Y-19177000D01*
X-75298000Y-19177000D01*
X-75552000Y-19177000D01*
X-75552000Y-18321000D01*
X-75298000Y-18321000D01*
X-75298000Y-18923000D01*
X-74721000Y-18923000D01*
X-74721000Y-18754183D01*
X-74727134Y-18697132D01*
X-74775268Y-18568080D01*
X-74857814Y-18457813D01*
X-74968081Y-18375267D01*
X-75097133Y-18327133D01*
X-75154183Y-18321000D01*
X-75298000Y-18321000D01*
X-75552000Y-18321000D01*
X-75695817Y-18321000D01*
X-75752867Y-18327133D01*
X-75810243Y-18348534D01*
X-75857937Y-18354093D01*
X-75902774Y-18336912D01*
X-75934541Y-18300906D01*
X-75946000Y-18254277D01*
X-75946000Y-17559723D01*
X-75934541Y-17513094D01*
X-75902774Y-17477088D01*
X-75857937Y-17459907D01*
X-75810243Y-17465466D01*
X-75752867Y-17486866D01*
X-75695817Y-17493000D01*
X-75552000Y-17493000D01*
X-75552000Y-16891000D01*
X-75298000Y-16891000D01*
X-75298000Y-17493000D01*
X-75154183Y-17493000D01*
X-75097133Y-17486866D01*
X-74968081Y-17438732D01*
X-74857814Y-17356186D01*
X-74775268Y-17245919D01*
X-74727134Y-17116867D01*
X-74721000Y-17059817D01*
X-74721000Y-16891000D01*
X-70567000Y-16891000D01*
X-70567000Y-17059817D01*
X-70560867Y-17116867D01*
X-70512733Y-17245919D01*
X-70430187Y-17356186D01*
X-70319920Y-17438732D01*
X-70190868Y-17486866D01*
X-70133817Y-17493000D01*
X-69990000Y-17493000D01*
X-69990000Y-16891000D01*
X-70567000Y-16891000D01*
X-74721000Y-16891000D01*
X-75298000Y-16891000D01*
X-75552000Y-16891000D01*
X-75552000Y-16035000D01*
X-75298000Y-16035000D01*
X-75298000Y-16637000D01*
X-74721000Y-16637000D01*
X-70567000Y-16637000D01*
X-69990000Y-16637000D01*
X-69990000Y-16035000D01*
X-70133817Y-16035000D01*
X-70190868Y-16041133D01*
X-70319920Y-16089267D01*
X-70430187Y-16171813D01*
X-70512733Y-16282080D01*
X-70560867Y-16411132D01*
X-70567000Y-16468183D01*
X-70567000Y-16637000D01*
X-74721000Y-16637000D01*
X-74721000Y-16468183D01*
X-74727134Y-16411132D01*
X-74775268Y-16282080D01*
X-74857814Y-16171813D01*
X-74968081Y-16089267D01*
X-75097133Y-16041133D01*
X-75154183Y-16035000D01*
X-75298000Y-16035000D01*
X-75552000Y-16035000D01*
X-75695817Y-16035000D01*
X-75752867Y-16041133D01*
X-75810243Y-16062534D01*
X-75857937Y-16068093D01*
X-75902774Y-16050912D01*
X-75934541Y-16014906D01*
X-75946000Y-15968277D01*
X-75946000Y-15781723D01*
X-75934541Y-15735094D01*
X-75902774Y-15699088D01*
X-75857937Y-15681907D01*
X-75810243Y-15687466D01*
X-75752867Y-15708866D01*
X-75695817Y-15715000D01*
X-75552000Y-15715000D01*
X-75552000Y-15113000D01*
X-75298000Y-15113000D01*
X-75298000Y-15715000D01*
X-75154183Y-15715000D01*
X-75097133Y-15708866D01*
X-74968081Y-15660732D01*
X-74857814Y-15578186D01*
X-74775268Y-15467919D01*
X-74727134Y-15338867D01*
X-74721000Y-15281817D01*
X-74721000Y-15113000D01*
X-75298000Y-15113000D01*
X-75552000Y-15113000D01*
X-75552000Y-14959600D01*
X-75538522Y-14909300D01*
X-75501700Y-14872478D01*
X-75499916Y-14872000D01*
X-73881000Y-14872000D01*
X-73881000Y-15015817D01*
X-73874867Y-15072867D01*
X-73826733Y-15201919D01*
X-73744187Y-15312186D01*
X-73633920Y-15394732D01*
X-73504868Y-15442866D01*
X-73447817Y-15449000D01*
X-73279000Y-15449000D01*
X-73279000Y-14872000D01*
X-73025000Y-14872000D01*
X-73025000Y-15449000D01*
X-72856183Y-15449000D01*
X-72799133Y-15442866D01*
X-72670081Y-15394732D01*
X-72559814Y-15312186D01*
X-72477268Y-15201919D01*
X-72429134Y-15072867D01*
X-72423000Y-15015817D01*
X-72423000Y-14872000D01*
X-70833000Y-14872000D01*
X-70833000Y-15015817D01*
X-70826867Y-15072867D01*
X-70778733Y-15201919D01*
X-70696187Y-15312186D01*
X-70585920Y-15394732D01*
X-70456868Y-15442866D01*
X-70399817Y-15449000D01*
X-70231000Y-15449000D01*
X-70231000Y-14872000D01*
X-70833000Y-14872000D01*
X-72423000Y-14872000D01*
X-73025000Y-14872000D01*
X-73279000Y-14872000D01*
X-73881000Y-14872000D01*
X-75499916Y-14872000D01*
X-75451400Y-14859000D01*
X-74721000Y-14859000D01*
X-74721000Y-14690183D01*
X-74727134Y-14633132D01*
X-74775268Y-14504080D01*
X-74864495Y-14384888D01*
X-74884161Y-14333567D01*
X-74873920Y-14279570D01*
X-74836830Y-14239013D01*
X-74783961Y-14224000D01*
X-73947723Y-14224000D01*
X-73901094Y-14235459D01*
G37*
%TD.AperFunction*%
%TD*%
%TA.AperFunction,Conductor*%
%TO.N,/rtd/TEMP1.RSENSE*%
G36*
X-53974904Y-45861825D02*
G01*
X-53937832Y-45901929D01*
X-53936414Y-45909060D01*
X-53420001Y-46425473D01*
X-52903589Y-45909060D01*
X-52902170Y-45901929D01*
X-52865098Y-45861825D01*
X-52812534Y-45847000D01*
X-52027468Y-45847000D01*
X-51974904Y-45861825D01*
X-51937832Y-45901929D01*
X-51936414Y-45909060D01*
X-51420001Y-46425473D01*
X-50903589Y-45909060D01*
X-50902170Y-45901929D01*
X-50865098Y-45861825D01*
X-50812534Y-45847000D01*
X-50027468Y-45847000D01*
X-49974904Y-45861825D01*
X-49937832Y-45901929D01*
X-49936414Y-45909060D01*
X-49420001Y-46425473D01*
X-48903589Y-45909060D01*
X-48902170Y-45901929D01*
X-48865098Y-45861825D01*
X-48812534Y-45847000D01*
X-48027468Y-45847000D01*
X-47974904Y-45861825D01*
X-47937832Y-45901929D01*
X-47936414Y-45909060D01*
X-47420001Y-46425473D01*
X-46903589Y-45909060D01*
X-46902170Y-45901929D01*
X-46865098Y-45861825D01*
X-46812534Y-45847000D01*
X-46027468Y-45847000D01*
X-45974904Y-45861825D01*
X-45937832Y-45901929D01*
X-45936414Y-45909060D01*
X-45420001Y-46425473D01*
X-44903589Y-45909060D01*
X-44902170Y-45901929D01*
X-44865098Y-45861825D01*
X-44812534Y-45847000D01*
X-44027468Y-45847000D01*
X-43974904Y-45861825D01*
X-43937832Y-45901929D01*
X-43936414Y-45909060D01*
X-43420001Y-46425473D01*
X-42903589Y-45909060D01*
X-42902170Y-45901929D01*
X-42865098Y-45861825D01*
X-42812534Y-45847000D01*
X-42027468Y-45847000D01*
X-41974904Y-45861825D01*
X-41937832Y-45901929D01*
X-41936414Y-45909060D01*
X-41420001Y-46425473D01*
X-40903589Y-45909060D01*
X-40902170Y-45901929D01*
X-40865098Y-45861825D01*
X-40812534Y-45847000D01*
X-40311887Y-45847000D01*
X-40259018Y-45862013D01*
X-40221928Y-45902570D01*
X-40211687Y-45956566D01*
X-40231352Y-46007887D01*
X-40241899Y-46021975D01*
X-40292547Y-46157764D01*
X-40299000Y-46217792D01*
X-40299000Y-46488600D01*
X-39368200Y-46488600D01*
X-39317900Y-46502078D01*
X-39281078Y-46538900D01*
X-39267600Y-46589200D01*
X-39267600Y-46692800D01*
X-39281078Y-46743100D01*
X-39317900Y-46779922D01*
X-39368200Y-46793400D01*
X-40298999Y-46793400D01*
X-40298999Y-47064208D01*
X-40292547Y-47124234D01*
X-40241899Y-47260024D01*
X-40184191Y-47337113D01*
X-40164526Y-47388434D01*
X-40174767Y-47442430D01*
X-40211857Y-47482987D01*
X-40264726Y-47498000D01*
X-40817491Y-47498000D01*
X-40870054Y-47483176D01*
X-40907126Y-47443072D01*
X-40917781Y-47389509D01*
X-40915537Y-47360989D01*
X-41420000Y-46856526D01*
X-41924464Y-47360988D01*
X-41922219Y-47389507D01*
X-41932874Y-47443072D01*
X-41969946Y-47483176D01*
X-42022509Y-47498000D01*
X-42817491Y-47498000D01*
X-42870054Y-47483176D01*
X-42907126Y-47443072D01*
X-42917781Y-47389509D01*
X-42915537Y-47360989D01*
X-43420000Y-46856526D01*
X-43924464Y-47360988D01*
X-43922219Y-47389507D01*
X-43932874Y-47443072D01*
X-43969946Y-47483176D01*
X-44022509Y-47498000D01*
X-44817491Y-47498000D01*
X-44870054Y-47483176D01*
X-44907126Y-47443072D01*
X-44917781Y-47389509D01*
X-44915537Y-47360989D01*
X-45420000Y-46856526D01*
X-45924464Y-47360988D01*
X-45922219Y-47389507D01*
X-45932874Y-47443072D01*
X-45969946Y-47483176D01*
X-46022509Y-47498000D01*
X-46817491Y-47498000D01*
X-46870054Y-47483176D01*
X-46907126Y-47443072D01*
X-46917781Y-47389509D01*
X-46915537Y-47360989D01*
X-47420000Y-46856526D01*
X-47924464Y-47360988D01*
X-47922219Y-47389507D01*
X-47932874Y-47443072D01*
X-47969946Y-47483176D01*
X-48022509Y-47498000D01*
X-48817491Y-47498000D01*
X-48870054Y-47483176D01*
X-48907126Y-47443072D01*
X-48917781Y-47389509D01*
X-48915537Y-47360989D01*
X-49420000Y-46856526D01*
X-49924464Y-47360988D01*
X-49922219Y-47389507D01*
X-49932874Y-47443072D01*
X-49969946Y-47483176D01*
X-50022509Y-47498000D01*
X-50817491Y-47498000D01*
X-50870054Y-47483176D01*
X-50907126Y-47443072D01*
X-50917781Y-47389509D01*
X-50915537Y-47360989D01*
X-51420000Y-46856526D01*
X-51924464Y-47360988D01*
X-51922219Y-47389507D01*
X-51932874Y-47443072D01*
X-51969946Y-47483176D01*
X-52022509Y-47498000D01*
X-52817491Y-47498000D01*
X-52870054Y-47483176D01*
X-52907126Y-47443072D01*
X-52917781Y-47389509D01*
X-52915537Y-47360989D01*
X-53420000Y-46856526D01*
X-53924464Y-47360988D01*
X-53922219Y-47389507D01*
X-53932874Y-47443072D01*
X-53969946Y-47483176D01*
X-54022509Y-47498000D01*
X-54817491Y-47498000D01*
X-54870054Y-47483176D01*
X-54907126Y-47443072D01*
X-54917781Y-47389509D01*
X-54915537Y-47360989D01*
X-55564391Y-46712135D01*
X-55590428Y-46667037D01*
X-55590428Y-46641000D01*
X-55204474Y-46641000D01*
X-54697641Y-47147833D01*
X-54612569Y-47000487D01*
X-54555472Y-46824762D01*
X-54536159Y-46641000D01*
X-54303842Y-46641000D01*
X-54284529Y-46824762D01*
X-54227431Y-47000490D01*
X-54142362Y-47147834D01*
X-53635526Y-46641000D01*
X-53204474Y-46641000D01*
X-52697641Y-47147833D01*
X-52612569Y-47000487D01*
X-52555472Y-46824762D01*
X-52536159Y-46641000D01*
X-52303842Y-46641000D01*
X-52284529Y-46824762D01*
X-52227431Y-47000490D01*
X-52142362Y-47147834D01*
X-51635526Y-46641000D01*
X-51204474Y-46641000D01*
X-50697641Y-47147833D01*
X-50612569Y-47000487D01*
X-50555472Y-46824762D01*
X-50536159Y-46641000D01*
X-50303842Y-46641000D01*
X-50284529Y-46824762D01*
X-50227431Y-47000490D01*
X-50142362Y-47147834D01*
X-49635526Y-46641000D01*
X-49204474Y-46641000D01*
X-48697641Y-47147833D01*
X-48612569Y-47000487D01*
X-48555472Y-46824762D01*
X-48536159Y-46641000D01*
X-48303842Y-46641000D01*
X-48284529Y-46824762D01*
X-48227431Y-47000490D01*
X-48142362Y-47147834D01*
X-47635528Y-46641000D01*
X-47204474Y-46641000D01*
X-46697641Y-47147833D01*
X-46612569Y-47000487D01*
X-46555472Y-46824762D01*
X-46536159Y-46641000D01*
X-46303842Y-46641000D01*
X-46284529Y-46824762D01*
X-46227431Y-47000490D01*
X-46142362Y-47147834D01*
X-45635527Y-46640999D01*
X-45204475Y-46640999D01*
X-44697641Y-47147833D01*
X-44612569Y-47000487D01*
X-44555472Y-46824762D01*
X-44536159Y-46641000D01*
X-44303842Y-46641000D01*
X-44284529Y-46824762D01*
X-44227431Y-47000490D01*
X-44142362Y-47147834D01*
X-43635526Y-46641000D01*
X-43204474Y-46641000D01*
X-42697641Y-47147833D01*
X-42612569Y-47000487D01*
X-42555472Y-46824762D01*
X-42536159Y-46641000D01*
X-42303842Y-46641000D01*
X-42284529Y-46824762D01*
X-42227431Y-47000490D01*
X-42142362Y-47147834D01*
X-41635526Y-46641000D01*
X-41204474Y-46641000D01*
X-40697641Y-47147833D01*
X-40612569Y-47000487D01*
X-40555472Y-46824762D01*
X-40536159Y-46641000D01*
X-40555472Y-46457237D01*
X-40612570Y-46281509D01*
X-40697640Y-46134164D01*
X-41204474Y-46641000D01*
X-41635526Y-46641000D01*
X-42142362Y-46134164D01*
X-42227431Y-46281509D01*
X-42284529Y-46457237D01*
X-42303842Y-46641000D01*
X-42536159Y-46641000D01*
X-42555472Y-46457237D01*
X-42612570Y-46281509D01*
X-42697640Y-46134164D01*
X-43204474Y-46641000D01*
X-43635526Y-46641000D01*
X-44142362Y-46134164D01*
X-44227431Y-46281509D01*
X-44284529Y-46457237D01*
X-44303842Y-46641000D01*
X-44536159Y-46641000D01*
X-44555472Y-46457237D01*
X-44612570Y-46281509D01*
X-44697640Y-46134164D01*
X-45204475Y-46640999D01*
X-45635527Y-46640999D01*
X-46142362Y-46134164D01*
X-46227431Y-46281509D01*
X-46284529Y-46457237D01*
X-46303842Y-46641000D01*
X-46536159Y-46641000D01*
X-46555472Y-46457237D01*
X-46612570Y-46281509D01*
X-46697640Y-46134164D01*
X-47204474Y-46641000D01*
X-47635528Y-46641000D01*
X-47635527Y-46640999D01*
X-48142362Y-46134164D01*
X-48227431Y-46281509D01*
X-48284529Y-46457237D01*
X-48303842Y-46641000D01*
X-48536159Y-46641000D01*
X-48555472Y-46457237D01*
X-48612570Y-46281509D01*
X-48697640Y-46134164D01*
X-49204474Y-46641000D01*
X-49635526Y-46641000D01*
X-50142362Y-46134164D01*
X-50227431Y-46281509D01*
X-50284529Y-46457237D01*
X-50303842Y-46641000D01*
X-50536159Y-46641000D01*
X-50555472Y-46457237D01*
X-50612570Y-46281509D01*
X-50697640Y-46134164D01*
X-51204474Y-46641000D01*
X-51635526Y-46641000D01*
X-52142362Y-46134164D01*
X-52227431Y-46281509D01*
X-52284529Y-46457237D01*
X-52303842Y-46641000D01*
X-52536159Y-46641000D01*
X-52555472Y-46457237D01*
X-52612570Y-46281509D01*
X-52697640Y-46134164D01*
X-53204474Y-46641000D01*
X-53635526Y-46641000D01*
X-54142362Y-46134164D01*
X-54227431Y-46281509D01*
X-54284529Y-46457237D01*
X-54303842Y-46641000D01*
X-54536159Y-46641000D01*
X-54555472Y-46457237D01*
X-54612570Y-46281509D01*
X-54697640Y-46134164D01*
X-55204474Y-46641000D01*
X-55590428Y-46641000D01*
X-55590428Y-46614963D01*
X-55564391Y-46569865D01*
X-55420000Y-46425474D01*
X-54903589Y-45909060D01*
X-54902170Y-45901929D01*
X-54865098Y-45861825D01*
X-54812534Y-45847000D01*
X-54027468Y-45847000D01*
X-53974904Y-45861825D01*
G37*
%TD.AperFunction*%
%TD*%
%TA.AperFunction,Conductor*%
%TO.N,+3V3*%
G36*
X-87722536Y-37447534D02*
G01*
X-86935603Y-37658393D01*
X-86900402Y-37675753D01*
X-86874521Y-37705264D01*
X-85709689Y-39722809D01*
X-85697072Y-39759978D01*
X-85699639Y-39799146D01*
X-86003466Y-40933042D01*
X-86020827Y-40968246D01*
X-86050338Y-40994127D01*
X-87407972Y-41777958D01*
X-87445141Y-41790575D01*
X-87484309Y-41788008D01*
X-87750780Y-41716607D01*
X-87785984Y-41699246D01*
X-87811865Y-41669735D01*
X-89548195Y-38662324D01*
X-89560812Y-38625155D01*
X-89558245Y-38585987D01*
X-89533328Y-38492996D01*
X-89515970Y-38457797D01*
X-89486461Y-38431918D01*
X-87798864Y-37457582D01*
X-87761700Y-37444968D01*
X-87722536Y-37447534D01*
G37*
%TD.AperFunction*%
%TD*%
%TA.AperFunction,Conductor*%
%TO.N,GND*%
G36*
X-70744523Y-32624967D02*
G01*
X-70731627Y-32630309D01*
X-70698989Y-32652117D01*
X-69634361Y-33716745D01*
X-69634357Y-33716748D01*
X-68299193Y-35051912D01*
X-68275398Y-35051912D01*
X-68221010Y-35067882D01*
X-68176165Y-35096701D01*
X-68147751Y-35114962D01*
X-68014459Y-35154100D01*
X-67875541Y-35154100D01*
X-67742249Y-35114962D01*
X-67625383Y-35039857D01*
X-67610464Y-35022639D01*
X-67564821Y-34992616D01*
X-67510215Y-34990876D01*
X-67462753Y-35017934D01*
X-66957918Y-35530632D01*
X-66936510Y-35563076D01*
X-66929000Y-35601215D01*
X-66929000Y-36534330D01*
X-66936658Y-36572828D01*
X-66958465Y-36605465D01*
X-70074535Y-39721535D01*
X-70107172Y-39743342D01*
X-70145670Y-39751000D01*
X-70824330Y-39751000D01*
X-70862828Y-39743342D01*
X-70895465Y-39721535D01*
X-73164766Y-37452234D01*
X-73191570Y-37404082D01*
X-73188984Y-37349033D01*
X-73157782Y-37303607D01*
X-73107328Y-37281436D01*
X-72950036Y-37259818D01*
X-72816449Y-37201793D01*
X-72749021Y-37148823D01*
X-72668354Y-37068156D01*
X-73256383Y-36480127D01*
X-73282420Y-36435029D01*
X-73282420Y-36408992D01*
X-72896466Y-36408992D01*
X-72452829Y-36852629D01*
X-72372161Y-36771963D01*
X-72319191Y-36704535D01*
X-72261166Y-36570948D01*
X-72241336Y-36426669D01*
X-72261166Y-36282390D01*
X-72319191Y-36148804D01*
X-72372162Y-36081374D01*
X-72470505Y-35983031D01*
X-72896466Y-36408992D01*
X-73282420Y-36408992D01*
X-73282420Y-36382955D01*
X-73256383Y-36337857D01*
X-72686031Y-35767505D01*
X-72784375Y-35669161D01*
X-72851805Y-35616190D01*
X-72985391Y-35558165D01*
X-73129670Y-35538335D01*
X-73273949Y-35558165D01*
X-73407534Y-35616189D01*
X-73474968Y-35669164D01*
X-73851820Y-36046016D01*
X-73904795Y-36113450D01*
X-73962819Y-36247035D01*
X-73967737Y-36282824D01*
X-73992947Y-36336780D01*
X-74044249Y-36367026D01*
X-74103665Y-36362962D01*
X-74150372Y-36326012D01*
X-74168000Y-36269126D01*
X-74168000Y-35728670D01*
X-74160342Y-35690172D01*
X-74138535Y-35657535D01*
X-73730761Y-35249761D01*
X-69384318Y-35249761D01*
X-69285975Y-35348104D01*
X-69218545Y-35401075D01*
X-69084959Y-35459100D01*
X-68940680Y-35478930D01*
X-68796401Y-35459100D01*
X-68662814Y-35401075D01*
X-68595386Y-35348105D01*
X-68514719Y-35267438D01*
X-68958357Y-34823800D01*
X-69384318Y-35249761D01*
X-73730761Y-35249761D01*
X-72653131Y-34172131D01*
X-70461949Y-34172131D01*
X-70363606Y-34270474D01*
X-70296176Y-34323445D01*
X-70162590Y-34381470D01*
X-70018311Y-34401300D01*
X-69930275Y-34389200D01*
X-69870295Y-34399542D01*
X-69827256Y-34442580D01*
X-69816914Y-34502561D01*
X-69829014Y-34590595D01*
X-69809184Y-34734875D01*
X-69751159Y-34868461D01*
X-69698188Y-34935891D01*
X-69599844Y-35034235D01*
X-69173883Y-34608274D01*
X-69359986Y-34422171D01*
X-69359989Y-34422169D01*
X-70035988Y-33746170D01*
X-70461949Y-34172131D01*
X-72653131Y-34172131D01*
X-71938684Y-33457684D01*
X-71674495Y-33193495D01*
X-71458969Y-33193495D01*
X-71360626Y-33291838D01*
X-71293196Y-33344809D01*
X-71159610Y-33402834D01*
X-71001632Y-33424547D01*
X-71001795Y-33425730D01*
X-70968840Y-33429877D01*
X-70927345Y-33461342D01*
X-70907143Y-33509340D01*
X-70886815Y-33657245D01*
X-70828790Y-33790831D01*
X-70775819Y-33858261D01*
X-70677475Y-33956605D01*
X-70251514Y-33530644D01*
X-70324475Y-33457683D01*
X-70337372Y-33452341D01*
X-70370008Y-33430534D01*
X-71033008Y-32767534D01*
X-71458969Y-33193495D01*
X-71674495Y-33193495D01*
X-70925245Y-32444245D01*
X-70744523Y-32624967D01*
G37*
%TD.AperFunction*%
%TD*%
%TA.AperFunction,Conductor*%
%TO.N,GND*%
G36*
X-48160147Y-33124755D02*
G01*
X-48138340Y-33157392D01*
X-48132998Y-33170289D01*
X-46233441Y-35069846D01*
X-46192079Y-35028485D01*
X-46144661Y-35001856D01*
X-46090312Y-35003797D01*
X-46044917Y-35033741D01*
X-46039617Y-35039857D01*
X-45922751Y-35114962D01*
X-45789459Y-35154100D01*
X-45650541Y-35154100D01*
X-45517249Y-35114962D01*
X-45511862Y-35111499D01*
X-45469162Y-35096210D01*
X-45424082Y-35101232D01*
X-45385794Y-35125543D01*
X-44986916Y-35530633D01*
X-44965510Y-35563076D01*
X-44958000Y-35601215D01*
X-44958000Y-36534330D01*
X-44965658Y-36572828D01*
X-44987465Y-36605465D01*
X-48103535Y-39721535D01*
X-48136172Y-39743342D01*
X-48174670Y-39751000D01*
X-48853330Y-39751000D01*
X-48891828Y-39743342D01*
X-48924465Y-39721535D01*
X-51193766Y-37452234D01*
X-51220570Y-37404082D01*
X-51217984Y-37349033D01*
X-51186782Y-37303607D01*
X-51136328Y-37281436D01*
X-50979036Y-37259818D01*
X-50845449Y-37201793D01*
X-50778021Y-37148823D01*
X-50697354Y-37068156D01*
X-51285383Y-36480127D01*
X-51311420Y-36435029D01*
X-51311420Y-36408992D01*
X-50925466Y-36408992D01*
X-50481829Y-36852629D01*
X-50401161Y-36771963D01*
X-50348191Y-36704535D01*
X-50290166Y-36570948D01*
X-50270336Y-36426669D01*
X-50290166Y-36282390D01*
X-50348191Y-36148804D01*
X-50401162Y-36081374D01*
X-50499505Y-35983031D01*
X-50925466Y-36408992D01*
X-51311420Y-36408992D01*
X-51311420Y-36382955D01*
X-51285383Y-36337857D01*
X-50715031Y-35767505D01*
X-50813375Y-35669161D01*
X-50880805Y-35616190D01*
X-51014391Y-35558165D01*
X-51158670Y-35538335D01*
X-51302949Y-35558165D01*
X-51436534Y-35616189D01*
X-51503968Y-35669164D01*
X-51880820Y-36046016D01*
X-51933795Y-36113450D01*
X-51991819Y-36247035D01*
X-51996737Y-36282824D01*
X-52021947Y-36336780D01*
X-52073249Y-36367026D01*
X-52132665Y-36362962D01*
X-52179372Y-36326012D01*
X-52197000Y-36269126D01*
X-52197000Y-35728670D01*
X-52189342Y-35690172D01*
X-52167535Y-35657535D01*
X-51777696Y-35267696D01*
X-47318565Y-35267696D01*
X-47220222Y-35366039D01*
X-47152792Y-35419010D01*
X-47019206Y-35477035D01*
X-46874927Y-35496865D01*
X-46730648Y-35477035D01*
X-46597061Y-35419010D01*
X-46529633Y-35366040D01*
X-46448966Y-35285373D01*
X-46892604Y-34841735D01*
X-47318565Y-35267696D01*
X-51777696Y-35267696D01*
X-50700065Y-34190065D01*
X-48396196Y-34190065D01*
X-48297853Y-34288408D01*
X-48230423Y-34341379D01*
X-48096837Y-34399404D01*
X-47952558Y-34419234D01*
X-47864522Y-34407134D01*
X-47804542Y-34417476D01*
X-47761503Y-34460514D01*
X-47751161Y-34520494D01*
X-47763261Y-34608530D01*
X-47743431Y-34752810D01*
X-47685406Y-34886396D01*
X-47632435Y-34953826D01*
X-47534091Y-35052170D01*
X-47108130Y-34626209D01*
X-47970235Y-33764104D01*
X-48396196Y-34190065D01*
X-50700065Y-34190065D01*
X-49610073Y-33100073D01*
X-49564975Y-33074036D01*
X-49512901Y-33074036D01*
X-49467803Y-33100073D01*
X-49366291Y-33201585D01*
X-49298861Y-33254556D01*
X-49165275Y-33312581D01*
X-49020996Y-33332411D01*
X-48941042Y-33321422D01*
X-48881062Y-33331764D01*
X-48838023Y-33374802D01*
X-48827681Y-33434783D01*
X-48840892Y-33530899D01*
X-48821062Y-33675179D01*
X-48763037Y-33808765D01*
X-48710066Y-33876195D01*
X-48611722Y-33974539D01*
X-48185761Y-33548578D01*
X-48848762Y-32885577D01*
X-48870570Y-32852938D01*
X-48875912Y-32840042D01*
X-49112977Y-32602977D01*
X-48897451Y-32387451D01*
X-48160147Y-33124755D01*
G37*
%TD.AperFunction*%
%TD*%
%TA.AperFunction,Conductor*%
%TO.N,GND*%
G36*
X-21593172Y-32773658D02*
G01*
X-21560535Y-32795465D01*
X-19333465Y-35022535D01*
X-19311658Y-35055172D01*
X-19304000Y-35093670D01*
X-19304000Y-37550330D01*
X-19311658Y-37588828D01*
X-19333465Y-37621465D01*
X-21560535Y-39848535D01*
X-21593172Y-39870342D01*
X-21631670Y-39878000D01*
X-25612330Y-39878000D01*
X-25650828Y-39870342D01*
X-25683465Y-39848535D01*
X-27910535Y-37621465D01*
X-27932342Y-37588828D01*
X-27940000Y-37550330D01*
X-27940000Y-35093670D01*
X-27932342Y-35055172D01*
X-27910535Y-35022535D01*
X-25683465Y-32795465D01*
X-25650828Y-32773658D01*
X-25612330Y-32766000D01*
X-21631670Y-32766000D01*
X-21593172Y-32773658D01*
G37*
%TD.AperFunction*%
%TD*%
%TA.AperFunction,Conductor*%
%TO.N,/rtd/TEMP2.RSENSE*%
G36*
X-60963172Y-45854658D02*
G01*
X-60930535Y-45876465D01*
X-60735465Y-46071535D01*
X-60713658Y-46104172D01*
X-60706000Y-46142670D01*
X-60706000Y-47202330D01*
X-60713658Y-47240828D01*
X-60735465Y-47273465D01*
X-60930535Y-47468535D01*
X-60963172Y-47490342D01*
X-61001670Y-47498000D01*
X-77809330Y-47498000D01*
X-77847828Y-47490342D01*
X-77880465Y-47468535D01*
X-78202535Y-47146465D01*
X-78224342Y-47113828D01*
X-78232000Y-47075330D01*
X-78232000Y-46269670D01*
X-78224342Y-46231172D01*
X-78202535Y-46198535D01*
X-77880465Y-45876465D01*
X-77847828Y-45854658D01*
X-77809330Y-45847000D01*
X-61001670Y-45847000D01*
X-60963172Y-45854658D01*
G37*
%TD.AperFunction*%
%TD*%
%TA.AperFunction,Conductor*%
%TO.N,/rtd/VREF1*%
G36*
X-53343172Y-35948658D02*
G01*
X-53310535Y-35970465D01*
X-52451000Y-36830000D01*
X-52111670Y-36830000D01*
X-52073172Y-36837658D01*
X-52040535Y-36859465D01*
X-51591465Y-37308535D01*
X-51569658Y-37341172D01*
X-51562000Y-37379670D01*
X-51562000Y-37677330D01*
X-51569658Y-37715828D01*
X-51591465Y-37748465D01*
X-52040535Y-38197535D01*
X-52073172Y-38219342D01*
X-52111670Y-38227000D01*
X-53552330Y-38227000D01*
X-53590828Y-38219342D01*
X-53623465Y-38197535D01*
X-54580535Y-37240465D01*
X-54602342Y-37207828D01*
X-54610000Y-37169330D01*
X-54610000Y-36744670D01*
X-54602342Y-36706172D01*
X-54580535Y-36673535D01*
X-53877465Y-35970465D01*
X-53844828Y-35948658D01*
X-53806330Y-35941000D01*
X-53381670Y-35941000D01*
X-53343172Y-35948658D01*
G37*
%TD.AperFunction*%
%TD*%
%TA.AperFunction,Conductor*%
%TO.N,+3V3*%
G36*
X-79251172Y-10167658D02*
G01*
X-79218535Y-10189465D01*
X-76962000Y-12446000D01*
X-74002031Y-12446000D01*
X-73951503Y-12459610D01*
X-73914647Y-12496757D01*
X-73901434Y-12547390D01*
X-73915440Y-12597810D01*
X-73986077Y-12717248D01*
X-74030583Y-12870443D01*
X-74033400Y-12906239D01*
X-74033400Y-12991800D01*
X-73049400Y-12991800D01*
X-72999100Y-13005278D01*
X-72962278Y-13042100D01*
X-72948800Y-13092400D01*
X-72948800Y-13297600D01*
X-72962278Y-13347900D01*
X-72999100Y-13384722D01*
X-73049400Y-13398200D01*
X-74033399Y-13398200D01*
X-74033399Y-13483765D01*
X-74030584Y-13519559D01*
X-74010893Y-13587333D01*
X-74012494Y-13648484D01*
X-74049222Y-13697402D01*
X-74107498Y-13716000D01*
X-75946000Y-13716000D01*
X-76369604Y-14139602D01*
X-76406662Y-14163120D01*
X-76450206Y-14168621D01*
X-76491948Y-14155058D01*
X-76497247Y-14151924D01*
X-76650444Y-14107417D01*
X-76686239Y-14104600D01*
X-76771800Y-14104600D01*
X-76771800Y-17645399D01*
X-76686235Y-17645399D01*
X-76650441Y-17642583D01*
X-76582667Y-17622893D01*
X-76521516Y-17624494D01*
X-76472598Y-17661222D01*
X-76454000Y-17719498D01*
X-76454000Y-18094502D01*
X-76472598Y-18152778D01*
X-76521516Y-18189506D01*
X-76582666Y-18191108D01*
X-76650444Y-18171417D01*
X-76686239Y-18168600D01*
X-76771800Y-18168600D01*
X-76771800Y-19931399D01*
X-76686235Y-19931399D01*
X-76650441Y-19928583D01*
X-76582667Y-19908893D01*
X-76521516Y-19910494D01*
X-76472598Y-19947222D01*
X-76454000Y-20005498D01*
X-76454000Y-20320000D01*
X-75438000Y-21336000D01*
X-75123498Y-21336000D01*
X-75065222Y-21354598D01*
X-75028494Y-21403516D01*
X-75026892Y-21464666D01*
X-75046583Y-21532443D01*
X-75049400Y-21568239D01*
X-75049400Y-21653800D01*
X-70509400Y-21653800D01*
X-70459100Y-21667278D01*
X-70422278Y-21704100D01*
X-70408800Y-21754400D01*
X-70408800Y-21959600D01*
X-70422278Y-22009900D01*
X-70459100Y-22046722D01*
X-70509400Y-22060200D01*
X-75049399Y-22060200D01*
X-75049399Y-22145765D01*
X-75046584Y-22181554D01*
X-75002076Y-22334752D01*
X-74931440Y-22454190D01*
X-74917434Y-22504610D01*
X-74930647Y-22555243D01*
X-74967503Y-22592390D01*
X-75018031Y-22606000D01*
X-76920330Y-22606000D01*
X-76958828Y-22598342D01*
X-76991465Y-22576535D01*
X-77694535Y-21873465D01*
X-77716342Y-21840828D01*
X-77724000Y-21802330D01*
X-77724000Y-19900031D01*
X-77710390Y-19849503D01*
X-77673243Y-19812647D01*
X-77622610Y-19799434D01*
X-77572190Y-19813440D01*
X-77452752Y-19884076D01*
X-77299557Y-19928582D01*
X-77263761Y-19931400D01*
X-77178200Y-19931400D01*
X-77178200Y-18168601D01*
X-77263765Y-18168601D01*
X-77299555Y-18171416D01*
X-77452753Y-18215924D01*
X-77572190Y-18286560D01*
X-77622610Y-18300566D01*
X-77673243Y-18287353D01*
X-77710390Y-18250497D01*
X-77724000Y-18199969D01*
X-77724000Y-17614031D01*
X-77710390Y-17563503D01*
X-77673243Y-17526647D01*
X-77622610Y-17513434D01*
X-77572190Y-17527440D01*
X-77452752Y-17598076D01*
X-77299557Y-17642582D01*
X-77263761Y-17645400D01*
X-77178200Y-17645400D01*
X-77178200Y-14104601D01*
X-77263765Y-14104601D01*
X-77299555Y-14107416D01*
X-77452753Y-14151924D01*
X-77572190Y-14222560D01*
X-77622610Y-14236566D01*
X-77673243Y-14223353D01*
X-77710390Y-14186497D01*
X-77724000Y-14135969D01*
X-77724000Y-13208000D01*
X-79980535Y-10951465D01*
X-80002342Y-10918828D01*
X-80010000Y-10880330D01*
X-80010000Y-10709670D01*
X-80002342Y-10671172D01*
X-79980535Y-10638535D01*
X-79531465Y-10189465D01*
X-79498828Y-10167658D01*
X-79460330Y-10160000D01*
X-79289670Y-10160000D01*
X-79251172Y-10167658D01*
G37*
%TD.AperFunction*%
%TD*%
%TA.AperFunction,Conductor*%
%TO.N,/rtd/VREF2*%
G36*
X-75314172Y-35948658D02*
G01*
X-75281535Y-35970465D01*
X-74422000Y-36830000D01*
X-74082670Y-36830000D01*
X-74044172Y-36837658D01*
X-74011535Y-36859465D01*
X-73562465Y-37308535D01*
X-73540658Y-37341172D01*
X-73533000Y-37379670D01*
X-73533000Y-37677330D01*
X-73540658Y-37715828D01*
X-73562465Y-37748465D01*
X-74011535Y-38197535D01*
X-74044172Y-38219342D01*
X-74082670Y-38227000D01*
X-75523330Y-38227000D01*
X-75561828Y-38219342D01*
X-75594465Y-38197535D01*
X-76551535Y-37240465D01*
X-76573342Y-37207828D01*
X-76581000Y-37169330D01*
X-76581000Y-36744670D01*
X-76573342Y-36706172D01*
X-76551535Y-36673535D01*
X-75848465Y-35970465D01*
X-75815828Y-35948658D01*
X-75777330Y-35941000D01*
X-75352670Y-35941000D01*
X-75314172Y-35948658D01*
G37*
%TD.AperFunction*%
%TD*%
%TA.AperFunction,Conductor*%
%TO.N,Net-(C50-Pad1)*%
G36*
X-89813474Y-34841919D02*
G01*
X-89720483Y-34866837D01*
X-89685281Y-34884197D01*
X-89659401Y-34913708D01*
X-88431072Y-37041237D01*
X-88418455Y-37078406D01*
X-88421022Y-37117575D01*
X-88445938Y-37210560D01*
X-88463299Y-37245764D01*
X-88492810Y-37271644D01*
X-88860576Y-37483975D01*
X-88897745Y-37496592D01*
X-88936913Y-37494025D01*
X-89243635Y-37411839D01*
X-89867459Y-37772005D01*
X-89904628Y-37784622D01*
X-89943797Y-37782055D01*
X-90210268Y-37710653D01*
X-90245472Y-37693292D01*
X-90271352Y-37663781D01*
X-90609943Y-37077325D01*
X-90991684Y-36416131D01*
X-91004299Y-36378966D01*
X-91001733Y-36339802D01*
X-90930330Y-36073322D01*
X-90912969Y-36038118D01*
X-90883459Y-36012238D01*
X-90259633Y-35652075D01*
X-90084479Y-34998380D01*
X-90067118Y-34963177D01*
X-90037613Y-34937301D01*
X-89889804Y-34851965D01*
X-89852642Y-34839352D01*
X-89813474Y-34841919D01*
G37*
%TD.AperFunction*%
%TD*%
%TA.AperFunction,Conductor*%
%TO.N,GND*%
G36*
X-81537172Y-41917658D02*
G01*
X-81504535Y-41939465D01*
X-81309465Y-42134535D01*
X-81287658Y-42167172D01*
X-81280000Y-42205670D01*
X-81280000Y-44916330D01*
X-81287658Y-44954828D01*
X-81309465Y-44987465D01*
X-81504535Y-45182535D01*
X-81537172Y-45204342D01*
X-81575670Y-45212000D01*
X-89239330Y-45212000D01*
X-89277828Y-45204342D01*
X-89310465Y-45182535D01*
X-89759535Y-44733465D01*
X-89781342Y-44700828D01*
X-89789000Y-44662330D01*
X-89789000Y-43983670D01*
X-89781342Y-43945172D01*
X-89759535Y-43912535D01*
X-89437465Y-43590465D01*
X-89404828Y-43568658D01*
X-89366330Y-43561000D01*
X-89027000Y-43561000D01*
X-88548465Y-43082465D01*
X-88515828Y-43060658D01*
X-88477330Y-43053000D01*
X-88052670Y-43053000D01*
X-88014172Y-43060658D01*
X-87981536Y-43082464D01*
X-87503000Y-43561000D01*
X-86995000Y-43561000D01*
X-85373465Y-41939465D01*
X-85340828Y-41917658D01*
X-85302330Y-41910000D01*
X-81575670Y-41910000D01*
X-81537172Y-41917658D01*
G37*
%TD.AperFunction*%
%TD*%
%TA.AperFunction,Conductor*%
%TO.N,+3V3*%
G36*
X-52307937Y-9588000D02*
G01*
X-49292063Y-9588000D01*
X-49287037Y-9585098D01*
X-49234963Y-9585098D01*
X-49189865Y-9611135D01*
X-48924465Y-9876535D01*
X-48902658Y-9909172D01*
X-48895000Y-9947670D01*
X-48895000Y-10753330D01*
X-48902658Y-10791828D01*
X-48924465Y-10824465D01*
X-49119535Y-11019535D01*
X-49152172Y-11041342D01*
X-49190670Y-11049000D01*
X-52409330Y-11049000D01*
X-52447828Y-11041342D01*
X-52480465Y-11019535D01*
X-52675535Y-10824465D01*
X-52697342Y-10791828D01*
X-52705000Y-10753330D01*
X-52705000Y-9947670D01*
X-52697342Y-9909172D01*
X-52675535Y-9876535D01*
X-52641000Y-9842000D01*
X-52291000Y-9842000D01*
X-52291000Y-9969680D01*
X-52288124Y-10000357D01*
X-52242922Y-10129536D01*
X-52161654Y-10239653D01*
X-52051537Y-10320921D01*
X-51922358Y-10366123D01*
X-51891680Y-10369000D01*
X-51689000Y-10369000D01*
X-51689000Y-9842000D01*
X-51435000Y-9842000D01*
X-51435000Y-10369000D01*
X-51232320Y-10369000D01*
X-51201643Y-10366123D01*
X-51072464Y-10320921D01*
X-50962347Y-10239653D01*
X-50880943Y-10129353D01*
X-50830849Y-10093338D01*
X-50769151Y-10093338D01*
X-50719057Y-10129353D01*
X-50637654Y-10239653D01*
X-50527537Y-10320921D01*
X-50398358Y-10366123D01*
X-50367680Y-10369000D01*
X-50165000Y-10369000D01*
X-50165000Y-9842000D01*
X-49911000Y-9842000D01*
X-49911000Y-10369000D01*
X-49708320Y-10369000D01*
X-49677643Y-10366123D01*
X-49548464Y-10320921D01*
X-49438347Y-10239653D01*
X-49357079Y-10129536D01*
X-49311877Y-10000357D01*
X-49309000Y-9969680D01*
X-49309000Y-9842000D01*
X-49911000Y-9842000D01*
X-50165000Y-9842000D01*
X-51435000Y-9842000D01*
X-51689000Y-9842000D01*
X-52291000Y-9842000D01*
X-52641000Y-9842000D01*
X-52410135Y-9611135D01*
X-52365037Y-9585098D01*
X-52312963Y-9585098D01*
X-52307937Y-9588000D01*
G37*
%TD.AperFunction*%
%TD*%
M02*
