%TF.GenerationSoftware,KiCad,Pcbnew,(6.0.2-0)*%
%TF.CreationDate,2022-10-21T16:11:50-05:00*%
%TF.ProjectId,little_switch,6c697474-6c65-45f7-9377-697463682e6b,1*%
%TF.SameCoordinates,PX4221330PY3d0af40*%
%TF.FileFunction,Copper,L4,Bot*%
%TF.FilePolarity,Positive*%
%FSLAX46Y46*%
G04 Gerber Fmt 4.6, Leading zero omitted, Abs format (unit mm)*
G04 Created by KiCad (PCBNEW (6.0.2-0)) date 2022-10-21 16:11:50*
%MOMM*%
%LPD*%
G01*
G04 APERTURE LIST*
G04 Aperture macros list*
%AMRoundRect*
0 Rectangle with rounded corners*
0 $1 Rounding radius*
0 $2 $3 $4 $5 $6 $7 $8 $9 X,Y pos of 4 corners*
0 Add a 4 corners polygon primitive as box body*
4,1,4,$2,$3,$4,$5,$6,$7,$8,$9,$2,$3,0*
0 Add four circle primitives for the rounded corners*
1,1,$1+$1,$2,$3*
1,1,$1+$1,$4,$5*
1,1,$1+$1,$6,$7*
1,1,$1+$1,$8,$9*
0 Add four rect primitives between the rounded corners*
20,1,$1+$1,$2,$3,$4,$5,0*
20,1,$1+$1,$4,$5,$6,$7,0*
20,1,$1+$1,$6,$7,$8,$9,0*
20,1,$1+$1,$8,$9,$2,$3,0*%
G04 Aperture macros list end*
%TA.AperFunction,SMDPad,CuDef*%
%ADD10R,0.800000X0.900000*%
%TD*%
%TA.AperFunction,ComponentPad*%
%ADD11R,1.700000X1.700000*%
%TD*%
%TA.AperFunction,ComponentPad*%
%ADD12O,1.700000X1.700000*%
%TD*%
%TA.AperFunction,ComponentPad*%
%ADD13R,1.350000X1.350000*%
%TD*%
%TA.AperFunction,ComponentPad*%
%ADD14O,1.350000X1.350000*%
%TD*%
%TA.AperFunction,ComponentPad*%
%ADD15C,5.400000*%
%TD*%
%TA.AperFunction,ComponentPad*%
%ADD16C,2.630000*%
%TD*%
%TA.AperFunction,ComponentPad*%
%ADD17C,2.120000*%
%TD*%
%TA.AperFunction,ComponentPad*%
%ADD18C,1.620000*%
%TD*%
%TA.AperFunction,ComponentPad*%
%ADD19C,1.510000*%
%TD*%
%TA.AperFunction,SMDPad,CuDef*%
%ADD20R,0.675000X0.475000*%
%TD*%
%TA.AperFunction,SMDPad,CuDef*%
%ADD21R,0.960000X0.270000*%
%TD*%
%TA.AperFunction,SMDPad,CuDef*%
%ADD22R,0.850000X0.280000*%
%TD*%
%TA.AperFunction,SMDPad,CuDef*%
%ADD23R,0.900000X0.385000*%
%TD*%
%TA.AperFunction,SMDPad,CuDef*%
%ADD24R,0.950000X0.500000*%
%TD*%
%TA.AperFunction,SMDPad,CuDef*%
%ADD25R,0.850000X0.340000*%
%TD*%
%TA.AperFunction,SMDPad,CuDef*%
%ADD26R,0.970000X0.330000*%
%TD*%
%TA.AperFunction,SMDPad,CuDef*%
%ADD27RoundRect,0.140000X0.140000X0.170000X-0.140000X0.170000X-0.140000X-0.170000X0.140000X-0.170000X0*%
%TD*%
%TA.AperFunction,SMDPad,CuDef*%
%ADD28RoundRect,0.135000X-0.185000X0.135000X-0.185000X-0.135000X0.185000X-0.135000X0.185000X0.135000X0*%
%TD*%
%TA.AperFunction,SMDPad,CuDef*%
%ADD29RoundRect,0.135000X-0.135000X-0.185000X0.135000X-0.185000X0.135000X0.185000X-0.135000X0.185000X0*%
%TD*%
%TA.AperFunction,SMDPad,CuDef*%
%ADD30RoundRect,0.200000X0.275000X-0.200000X0.275000X0.200000X-0.275000X0.200000X-0.275000X-0.200000X0*%
%TD*%
%TA.AperFunction,SMDPad,CuDef*%
%ADD31R,0.200000X1.540000*%
%TD*%
%TA.AperFunction,SMDPad,CuDef*%
%ADD32R,1.540000X0.200000*%
%TD*%
%TA.AperFunction,SMDPad,CuDef*%
%ADD33R,10.500000X10.500000*%
%TD*%
%TA.AperFunction,SMDPad,CuDef*%
%ADD34RoundRect,0.140000X-0.140000X-0.170000X0.140000X-0.170000X0.140000X0.170000X-0.140000X0.170000X0*%
%TD*%
%TA.AperFunction,SMDPad,CuDef*%
%ADD35RoundRect,0.225000X0.225000X0.250000X-0.225000X0.250000X-0.225000X-0.250000X0.225000X-0.250000X0*%
%TD*%
%TA.AperFunction,SMDPad,CuDef*%
%ADD36RoundRect,0.225000X-0.225000X-0.250000X0.225000X-0.250000X0.225000X0.250000X-0.225000X0.250000X0*%
%TD*%
%TA.AperFunction,SMDPad,CuDef*%
%ADD37RoundRect,0.150000X-0.150000X0.512500X-0.150000X-0.512500X0.150000X-0.512500X0.150000X0.512500X0*%
%TD*%
%TA.AperFunction,ViaPad*%
%ADD38C,0.508000*%
%TD*%
%TA.AperFunction,ViaPad*%
%ADD39C,0.609600*%
%TD*%
%TA.AperFunction,ViaPad*%
%ADD40C,0.711200*%
%TD*%
%TA.AperFunction,Conductor*%
%ADD41C,0.203200*%
%TD*%
%TA.AperFunction,Conductor*%
%ADD42C,0.127000*%
%TD*%
%TA.AperFunction,Conductor*%
%ADD43C,0.304800*%
%TD*%
%TA.AperFunction,Conductor*%
%ADD44C,0.152400*%
%TD*%
G04 APERTURE END LIST*
D10*
%TO.P,Y1,1,1*%
%TO.N,/config/XI*%
X36280000Y-24576000D03*
%TO.P,Y1,2,2*%
%TO.N,GND*%
X36280000Y-23176000D03*
%TO.P,Y1,3,3*%
%TO.N,/config/XO*%
X37380000Y-23176000D03*
%TO.P,Y1,4,4*%
%TO.N,GND*%
X37380000Y-24576000D03*
%TD*%
D11*
%TO.P,J5,1,Pin_1*%
%TO.N,/phy/JRX5_N*%
X53129993Y-16510000D03*
D12*
%TO.P,J5,2,Pin_2*%
%TO.N,/phy/JRX5_P*%
X53129993Y-13970000D03*
%TO.P,J5,3,Pin_3*%
%TO.N,/phy/JTX5_N*%
X53129993Y-11430000D03*
%TO.P,J5,4,Pin_4*%
%TO.N,/phy/JTX5_P*%
X53129993Y-8890000D03*
%TD*%
%TO.P,J6,4,Pin_4*%
%TO.N,/phy/JTX1_P*%
X53129993Y-21590000D03*
%TO.P,J6,3,Pin_3*%
%TO.N,/phy/JTX1_N*%
X53129993Y-24130000D03*
%TO.P,J6,2,Pin_2*%
%TO.N,/phy/JRX1_P*%
X53129993Y-26670000D03*
D11*
%TO.P,J6,1,Pin_1*%
%TO.N,/phy/JRX1_N*%
X53129993Y-29210000D03*
%TD*%
D12*
%TO.P,J4,4,Pin_4*%
%TO.N,/phy/JTX4_P*%
X4869993Y-44450000D03*
%TO.P,J4,3,Pin_3*%
%TO.N,/phy/JTX4_N*%
X4869993Y-41910000D03*
%TO.P,J4,2,Pin_2*%
%TO.N,/phy/JRX4_P*%
X4869993Y-39370000D03*
D11*
%TO.P,J4,1,Pin_1*%
%TO.N,/phy/JRX4_N*%
X4869993Y-36830000D03*
%TD*%
D13*
%TO.P,J2,1,Pin_1*%
%TO.N,+3V3*%
X-999998Y-5250002D03*
D14*
%TO.P,J2,2,Pin_2*%
%TO.N,/phy/TIMEPIX_TX*%
X1000002Y-5250002D03*
%TO.P,J2,3,Pin_3*%
%TO.N,unconnected-(J2-Pad3)*%
X-999998Y-7250002D03*
%TO.P,J2,4,Pin_4*%
%TO.N,/phy/TIMEPIX_RX*%
X1000002Y-7250002D03*
%TO.P,J2,5,Pin_5*%
%TO.N,unconnected-(J2-Pad5)*%
X-999998Y-9250002D03*
%TO.P,J2,6,Pin_6*%
%TO.N,/phy/TIMEPIX_RTS*%
X1000002Y-9250002D03*
%TO.P,J2,7,Pin_7*%
%TO.N,GND*%
X-999998Y-11250002D03*
%TO.P,J2,8,Pin_8*%
%TO.N,/phy/TIMEPIX_CTS*%
X1000002Y-11250002D03*
%TD*%
D11*
%TO.P,J7,1,Pin_1*%
%TO.N,GND*%
X15029993Y-3810000D03*
D12*
%TO.P,J7,2,Pin_2*%
%TO.N,Net-(J7-Pad2)*%
X15029993Y-6350000D03*
%TO.P,J7,3,Pin_3*%
%TO.N,GND*%
X17569993Y-3810000D03*
%TO.P,J7,4,Pin_4*%
%TO.N,Net-(J7-Pad4)*%
X17569993Y-6350000D03*
%TO.P,J7,5,Pin_5*%
%TO.N,GND*%
X20109993Y-3810000D03*
%TO.P,J7,6,Pin_6*%
%TO.N,Net-(J7-Pad6)*%
X20109993Y-6350000D03*
%TO.P,J7,7,Pin_7*%
%TO.N,GND*%
X22649993Y-3810000D03*
%TO.P,J7,8,Pin_8*%
%TO.N,Net-(J7-Pad8)*%
X22649993Y-6350000D03*
%TO.P,J7,9,Pin_9*%
%TO.N,GND*%
X25189993Y-3810000D03*
%TO.P,J7,10,Pin_10*%
%TO.N,Net-(J7-Pad10)*%
X25189993Y-6350000D03*
%TO.P,J7,11,Pin_11*%
%TO.N,GND*%
X27729993Y-3810000D03*
%TO.P,J7,12,Pin_12*%
%TO.N,Net-(J7-Pad12)*%
X27729993Y-6350000D03*
%TO.P,J7,13,Pin_13*%
%TO.N,GND*%
X30269993Y-3810000D03*
%TO.P,J7,14,Pin_14*%
%TO.N,Net-(J7-Pad14)*%
X30269993Y-6350000D03*
%TO.P,J7,15,Pin_15*%
%TO.N,GND*%
X32809993Y-3810000D03*
%TO.P,J7,16,Pin_16*%
%TO.N,Net-(J7-Pad16)*%
X32809993Y-6350000D03*
%TO.P,J7,17,Pin_17*%
%TO.N,+3V3*%
X35349993Y-3810000D03*
%TO.P,J7,18,Pin_18*%
%TO.N,Net-(J7-Pad18)*%
X35349993Y-6350000D03*
%TO.P,J7,19,Pin_19*%
%TO.N,/config/SPI.SDI*%
X37889993Y-3810000D03*
%TO.P,J7,20,Pin_20*%
%TO.N,/config/SPI.nCS3*%
X37889993Y-6350000D03*
%TO.P,J7,21,Pin_21*%
%TO.N,/config/SPI.SDO*%
X40429993Y-3810000D03*
%TO.P,J7,22,Pin_22*%
%TO.N,/config/SPI.SCK*%
X40429993Y-6350000D03*
%TD*%
D11*
%TO.P,J1,1,Pin_1*%
%TO.N,unconnected-(J1-Pad1)*%
X4870000Y-1270000D03*
D12*
%TO.P,J1,2,Pin_2*%
%TO.N,+5V*%
X4870000Y1270000D03*
%TO.P,J1,3,Pin_3*%
%TO.N,unconnected-(J1-Pad3)*%
X7410000Y-1270000D03*
%TO.P,J1,4,Pin_4*%
%TO.N,+5V*%
X7410000Y1270000D03*
%TO.P,J1,5,Pin_5*%
%TO.N,unconnected-(J1-Pad5)*%
X9950000Y-1270000D03*
%TO.P,J1,6,Pin_6*%
%TO.N,GND*%
X9950000Y1270000D03*
%TO.P,J1,7,Pin_7*%
%TO.N,/phy/TIMEPIX_TX*%
X12490000Y-1270000D03*
%TO.P,J1,8,Pin_8*%
%TO.N,unconnected-(J1-Pad8)*%
X12490000Y1270000D03*
%TO.P,J1,9,Pin_9*%
%TO.N,GND*%
X15030000Y-1270000D03*
%TO.P,J1,10,Pin_10*%
%TO.N,unconnected-(J1-Pad10)*%
X15030000Y1270000D03*
%TO.P,J1,11,Pin_11*%
%TO.N,/phy/RTS0{slash}1*%
X17570000Y-1270000D03*
%TO.P,J1,12,Pin_12*%
%TO.N,unconnected-(J1-Pad12)*%
X17570000Y1270000D03*
%TO.P,J1,13,Pin_13*%
%TO.N,unconnected-(J1-Pad13)*%
X20110000Y-1270000D03*
%TO.P,J1,14,Pin_14*%
%TO.N,GND*%
X20110000Y1270000D03*
%TO.P,J1,15,Pin_15*%
%TO.N,unconnected-(J1-Pad15)*%
X22650000Y-1270000D03*
%TO.P,J1,16,Pin_16*%
%TO.N,unconnected-(J1-Pad16)*%
X22650000Y1270000D03*
%TO.P,J1,17,Pin_17*%
%TO.N,unconnected-(J1-Pad17)*%
X25190000Y-1270000D03*
%TO.P,J1,18,Pin_18*%
%TO.N,unconnected-(J1-Pad18)*%
X25190000Y1270000D03*
%TO.P,J1,19,Pin_19*%
%TO.N,unconnected-(J1-Pad19)*%
X27730000Y-1270000D03*
%TO.P,J1,20,Pin_20*%
%TO.N,GND*%
X27730000Y1270000D03*
%TO.P,J1,21,Pin_21*%
%TO.N,unconnected-(J1-Pad21)*%
X30270000Y-1270000D03*
%TO.P,J1,22,Pin_22*%
%TO.N,unconnected-(J1-Pad22)*%
X30270000Y1270000D03*
%TO.P,J1,23,Pin_23*%
%TO.N,unconnected-(J1-Pad23)*%
X32810000Y-1270000D03*
%TO.P,J1,24,Pin_24*%
%TO.N,unconnected-(J1-Pad24)*%
X32810000Y1270000D03*
%TO.P,J1,25,Pin_25*%
%TO.N,GND*%
X35350000Y-1270000D03*
%TO.P,J1,26,Pin_26*%
%TO.N,/phy/TIMEPIX_RTS*%
X35350000Y1270000D03*
%TO.P,J1,27,Pin_27*%
%TO.N,unconnected-(J1-Pad27)*%
X37890000Y-1270000D03*
%TO.P,J1,28,Pin_28*%
%TO.N,unconnected-(J1-Pad28)*%
X37890000Y1270000D03*
%TO.P,J1,29,Pin_29*%
%TO.N,/phy/TIMEPIX_RX*%
X40430000Y-1270000D03*
%TO.P,J1,30,Pin_30*%
%TO.N,GND*%
X40430000Y1270000D03*
%TO.P,J1,31,Pin_31*%
%TO.N,/phy/TIMEPIX_CTS*%
X42970000Y-1270000D03*
%TO.P,J1,32,Pin_32*%
%TO.N,unconnected-(J1-Pad32)*%
X42970000Y1270000D03*
%TO.P,J1,33,Pin_33*%
%TO.N,unconnected-(J1-Pad33)*%
X45510000Y-1270000D03*
%TO.P,J1,34,Pin_34*%
%TO.N,GND*%
X45510000Y1270000D03*
%TO.P,J1,35,Pin_35*%
%TO.N,unconnected-(J1-Pad35)*%
X48050000Y-1270000D03*
%TO.P,J1,36,Pin_36*%
%TO.N,/phy/CTS0{slash}1*%
X48050000Y1270000D03*
%TO.P,J1,37,Pin_37*%
%TO.N,unconnected-(J1-Pad37)*%
X50590000Y-1270000D03*
%TO.P,J1,38,Pin_38*%
%TO.N,unconnected-(J1-Pad38)*%
X50590000Y1270000D03*
%TO.P,J1,39,Pin_39*%
%TO.N,GND*%
X53130000Y-1270000D03*
%TO.P,J1,40,Pin_40*%
%TO.N,unconnected-(J1-Pad40)*%
X53130000Y1270000D03*
%TD*%
D15*
%TO.P,H1,1,1*%
%TO.N,GND*%
X0Y0D03*
%TD*%
%TO.P,H2,1,1*%
%TO.N,GND*%
X58000000Y0D03*
%TD*%
D16*
%TO.P,J3,H1A*%
%TO.N,GNDPWR*%
X52575000Y-47220000D03*
%TO.P,J3,H1B*%
X17925000Y-47220000D03*
D17*
%TO.P,J3,H2A*%
X52575000Y-40460000D03*
%TO.P,J3,H2B*%
X17925000Y-40460000D03*
D18*
%TO.P,J3,L1A*%
%TO.N,Net-(J3-PadL1A)*%
X36265000Y-49450000D03*
%TO.P,J3,L1B*%
%TO.N,Net-(J3-PadL1B)*%
X19195000Y-49450000D03*
%TO.P,J3,L2A*%
%TO.N,+2V5*%
X36265000Y-51230000D03*
%TO.P,J3,L2B*%
X19195000Y-51230000D03*
%TO.P,J3,L3A*%
%TO.N,Net-(J3-PadL3A)*%
X51305000Y-49450000D03*
%TO.P,J3,L3B*%
%TO.N,Net-(J3-PadL3B)*%
X34235000Y-49450000D03*
%TO.P,J3,L4A*%
%TO.N,+2V5*%
X51305000Y-51230000D03*
%TO.P,J3,L4B*%
X34235000Y-51230000D03*
D19*
%TO.P,J3,P1A*%
%TO.N,/phy/TX2_P*%
X50770000Y-33750000D03*
%TO.P,J3,P1B*%
%TO.N,/phy/TX3_P*%
X33700000Y-33750000D03*
%TO.P,J3,P2A*%
%TO.N,/phy/TX2_N*%
X49500000Y-32480000D03*
%TO.P,J3,P2B*%
%TO.N,/phy/TX3_N*%
X32430000Y-32480000D03*
%TO.P,J3,P3A*%
%TO.N,Net-(C1-Pad2)*%
X48230000Y-33750000D03*
%TO.P,J3,P3B*%
%TO.N,Net-(C2-Pad2)*%
X31160000Y-33750000D03*
%TO.P,J3,P4A*%
%TO.N,/phy/RX2_P*%
X46960000Y-32480000D03*
%TO.P,J3,P4B*%
%TO.N,/phy/RX3_P*%
X29890000Y-32480000D03*
%TO.P,J3,P5A*%
%TO.N,/phy/RX2_N*%
X45690000Y-33750000D03*
%TO.P,J3,P5B*%
%TO.N,/phy/RX3_N*%
X28620000Y-33750000D03*
%TO.P,J3,P6A*%
%TO.N,Net-(C1-Pad2)*%
X44420000Y-32480000D03*
%TO.P,J3,P6B*%
%TO.N,Net-(C2-Pad2)*%
X27350000Y-32480000D03*
%TO.P,J3,P7A*%
%TO.N,Net-(J3-PadP7A)*%
X43150000Y-33750000D03*
%TO.P,J3,P7B*%
%TO.N,Net-(J3-PadP7B)*%
X26080000Y-33750000D03*
%TO.P,J3,P8A*%
%TO.N,Net-(J3-PadP7A)*%
X41880000Y-32480000D03*
%TO.P,J3,P8B*%
%TO.N,Net-(J3-PadP7B)*%
X24810000Y-32480000D03*
%TO.P,J3,P9A*%
%TO.N,Net-(C3-Pad2)*%
X40610000Y-33750000D03*
%TO.P,J3,P9B*%
%TO.N,Net-(C4-Pad2)*%
X23540000Y-33750000D03*
%TO.P,J3,P10A*%
%TO.N,Net-(J3-PadP10A)*%
X39340000Y-32480000D03*
%TO.P,J3,P10B*%
%TO.N,Net-(J3-PadP10B)*%
X22270000Y-32480000D03*
%TO.P,J3,P11A*%
%TO.N,Net-(J3-PadP10A)*%
X38070000Y-33750000D03*
%TO.P,J3,P11B*%
%TO.N,Net-(J3-PadP10B)*%
X21000000Y-33750000D03*
%TO.P,J3,P12A*%
%TO.N,Net-(C3-Pad2)*%
X36800000Y-32480000D03*
%TO.P,J3,P12B*%
%TO.N,Net-(C4-Pad2)*%
X19730000Y-32480000D03*
%TD*%
D15*
%TO.P,H3,1,1*%
%TO.N,GNDPWR*%
X0Y-49000000D03*
%TD*%
%TO.P,H4,1,1*%
%TO.N,GNDPWR*%
X58000000Y-49000000D03*
%TD*%
D20*
%TO.P,FL1,1*%
%TO.N,Net-(FL1-Pad1)*%
X8582500Y-42717500D03*
%TO.P,FL1,2*%
%TO.N,/phy/JTX4_N*%
X6657500Y-42717500D03*
%TO.P,FL1,3*%
%TO.N,/phy/JTX4_P*%
X6657500Y-43642500D03*
%TO.P,FL1,4*%
%TO.N,Net-(FL1-Pad4)*%
X8582500Y-43642500D03*
%TD*%
D21*
%TO.P,TR5,1*%
%TO.N,/phy/TX1_P*%
X44208000Y-19094000D03*
D22*
%TO.P,TR5,2*%
%TO.N,/phy/TX1_N*%
X44153000Y-19739000D03*
D23*
%TO.P,TR5,3*%
%TO.N,Net-(R14-Pad1)*%
X44178000Y-21611500D03*
%TO.P,TR5,4*%
X44178000Y-21996500D03*
D24*
%TO.P,TR5,5*%
%TO.N,Net-(C9-Pad2)*%
X48253000Y-19209000D03*
D25*
%TO.P,TR5,6*%
%TO.N,Net-(FL5-Pad4)*%
X48303000Y-21239000D03*
D26*
%TO.P,TR5,7*%
%TO.N,Net-(FL5-Pad1)*%
X48243000Y-22024000D03*
%TD*%
D27*
%TO.P,C7,1*%
%TO.N,GND*%
X12164000Y-35814000D03*
%TO.P,C7,2*%
%TO.N,Net-(C7-Pad2)*%
X11204000Y-35814000D03*
%TD*%
D28*
%TO.P,R18,1*%
%TO.N,Net-(J7-Pad8)*%
X29464000Y-8380000D03*
%TO.P,R18,2*%
%TO.N,/config/LED2_0*%
X29464000Y-9400000D03*
%TD*%
%TO.P,R19,1*%
%TO.N,Net-(J7-Pad10)*%
X30480000Y-8380000D03*
%TO.P,R19,2*%
%TO.N,/config/LED2_1*%
X30480000Y-9400000D03*
%TD*%
D27*
%TO.P,C47,1*%
%TO.N,GND*%
X23848000Y-9398000D03*
%TO.P,C47,2*%
%TO.N,+2V5*%
X22888000Y-9398000D03*
%TD*%
D20*
%TO.P,FL4,1*%
%TO.N,Net-(FL4-Pad1)*%
X49583500Y-15702500D03*
%TO.P,FL4,2*%
%TO.N,/phy/JRX5_N*%
X51508500Y-15702500D03*
%TO.P,FL4,3*%
%TO.N,/phy/JRX5_P*%
X51508500Y-14777500D03*
%TO.P,FL4,4*%
%TO.N,Net-(FL4-Pad4)*%
X49583500Y-14777500D03*
%TD*%
D21*
%TO.P,TR3,1*%
%TO.N,/phy/TX5_P*%
X44208000Y-8680000D03*
D22*
%TO.P,TR3,2*%
%TO.N,/phy/TX5_N*%
X44153000Y-9325000D03*
D23*
%TO.P,TR3,3*%
%TO.N,Net-(R13-Pad1)*%
X44178000Y-11197500D03*
%TO.P,TR3,4*%
X44178000Y-11582500D03*
D24*
%TO.P,TR3,5*%
%TO.N,Net-(C8-Pad2)*%
X48253000Y-8795000D03*
D25*
%TO.P,TR3,6*%
%TO.N,Net-(FL3-Pad4)*%
X48303000Y-10825000D03*
D26*
%TO.P,TR3,7*%
%TO.N,Net-(FL3-Pad1)*%
X48243000Y-11610000D03*
%TD*%
D29*
%TO.P,R23,1*%
%TO.N,Net-(J7-Pad18)*%
X19556000Y-9398000D03*
%TO.P,R23,2*%
%TO.N,/config/IBA*%
X20576000Y-9398000D03*
%TD*%
D30*
%TO.P,R8,1*%
%TO.N,Net-(J3-PadL3B)*%
X34290000Y-47307000D03*
%TO.P,R8,2*%
%TO.N,/config/LED3_1*%
X34290000Y-45657000D03*
%TD*%
D31*
%TO.P,U1,1,TX1_P*%
%TO.N,/phy/TX1_P*%
X32362000Y-26242000D03*
%TO.P,U1,2,TX1_N*%
%TO.N,/phy/TX1_N*%
X31962000Y-26242000D03*
%TO.P,U1,3,AVDDL*%
%TO.N,+1V2*%
X31562000Y-26242000D03*
%TO.P,U1,4,RX1_P*%
%TO.N,/phy/RX1_P*%
X31162000Y-26242000D03*
%TO.P,U1,5,RX1_N*%
%TO.N,/phy/RX1_N*%
X30762000Y-26242000D03*
%TO.P,U1,6*%
%TO.N,N/C*%
X30362000Y-26242000D03*
%TO.P,U1,7*%
X29962000Y-26242000D03*
%TO.P,U1,8*%
X29562000Y-26242000D03*
%TO.P,U1,9*%
X29162000Y-26242000D03*
%TO.P,U1,10,AVDDH*%
%TO.N,+2V5*%
X28762000Y-26242000D03*
%TO.P,U1,11,DVDDL*%
%TO.N,+1V2*%
X28362000Y-26242000D03*
%TO.P,U1,12,TX2_P*%
%TO.N,/phy/TX2_P*%
X27962000Y-26242000D03*
%TO.P,U1,13,TX2_N*%
%TO.N,/phy/TX2_N*%
X27562000Y-26242000D03*
%TO.P,U1,14,AVDDL*%
%TO.N,+1V2*%
X27162000Y-26242000D03*
%TO.P,U1,15,RX2_P*%
%TO.N,/phy/RX2_P*%
X26762000Y-26242000D03*
%TO.P,U1,16,RX2_N*%
%TO.N,/phy/RX2_N*%
X26362000Y-26242000D03*
%TO.P,U1,17*%
%TO.N,N/C*%
X25962000Y-26242000D03*
%TO.P,U1,18*%
X25562000Y-26242000D03*
%TO.P,U1,19,AVDDL*%
%TO.N,+1V2*%
X25162000Y-26242000D03*
%TO.P,U1,20*%
%TO.N,N/C*%
X24762000Y-26242000D03*
%TO.P,U1,21*%
X24362000Y-26242000D03*
%TO.P,U1,22,AVDDH*%
%TO.N,+2V5*%
X23962000Y-26242000D03*
%TO.P,U1,23,DVDDL*%
%TO.N,+1V2*%
X23562000Y-26242000D03*
%TO.P,U1,24,TX3_P*%
%TO.N,/phy/TX3_P*%
X23162000Y-26242000D03*
%TO.P,U1,25,TX3_N*%
%TO.N,/phy/TX3_N*%
X22762000Y-26242000D03*
%TO.P,U1,26,RX3_P*%
%TO.N,/phy/RX3_P*%
X22362000Y-26242000D03*
%TO.P,U1,27,RX3_N*%
%TO.N,/phy/RX3_N*%
X21962000Y-26242000D03*
%TO.P,U1,28*%
%TO.N,N/C*%
X21562000Y-26242000D03*
%TO.P,U1,29*%
X21162000Y-26242000D03*
%TO.P,U1,30,AVDDL*%
%TO.N,+1V2*%
X20762000Y-26242000D03*
%TO.P,U1,31*%
%TO.N,N/C*%
X20362000Y-26242000D03*
%TO.P,U1,32*%
X19962000Y-26242000D03*
D32*
%TO.P,U1,33,AVDDH*%
%TO.N,+2V5*%
X18462000Y-24742000D03*
%TO.P,U1,34,TX4_P*%
%TO.N,/phy/TX4_P*%
X18462000Y-24342000D03*
%TO.P,U1,35,TX4_N*%
%TO.N,/phy/TX4_N*%
X18462000Y-23942000D03*
%TO.P,U1,36,AVDDL*%
%TO.N,+1V2*%
X18462000Y-23542000D03*
%TO.P,U1,37,RX4_P*%
%TO.N,/phy/RX4_P*%
X18462000Y-23142000D03*
%TO.P,U1,38,RX4_N*%
%TO.N,/phy/RX4_N*%
X18462000Y-22742000D03*
%TO.P,U1,39*%
%TO.N,N/C*%
X18462000Y-22342000D03*
%TO.P,U1,40*%
X18462000Y-21942000D03*
%TO.P,U1,41,AVDDL*%
%TO.N,+1V2*%
X18462000Y-21542000D03*
%TO.P,U1,42*%
%TO.N,N/C*%
X18462000Y-21142000D03*
%TO.P,U1,43*%
X18462000Y-20742000D03*
%TO.P,U1,44,AVDDH*%
%TO.N,+2V5*%
X18462000Y-20342000D03*
%TO.P,U1,45,DVDDL*%
%TO.N,+1V2*%
X18462000Y-19942000D03*
%TO.P,U1,46,GND*%
%TO.N,GND*%
X18462000Y-19542000D03*
%TO.P,U1,47,GND*%
X18462000Y-19142000D03*
%TO.P,U1,48,TX6_CLK/REFCLK*%
%TO.N,unconnected-(U1-Pad48)*%
X18462000Y-18742000D03*
%TO.P,U1,49,TX6_EN/CTL*%
%TO.N,unconnected-(U1-Pad49)*%
X18462000Y-18342000D03*
%TO.P,U1,50,TX6_ER*%
%TO.N,unconnected-(U1-Pad50)*%
X18462000Y-17942000D03*
%TO.P,U1,51,TX6_COL*%
%TO.N,unconnected-(U1-Pad51)*%
X18462000Y-17542000D03*
%TO.P,U1,52,TX6_3*%
%TO.N,unconnected-(U1-Pad52)*%
X18462000Y-17142000D03*
%TO.P,U1,53,TX6_2*%
%TO.N,unconnected-(U1-Pad53)*%
X18462000Y-16742000D03*
%TO.P,U1,54,TX6_1*%
%TO.N,unconnected-(U1-Pad54)*%
X18462000Y-16342000D03*
%TO.P,U1,55,TX6_0*%
%TO.N,unconnected-(U1-Pad55)*%
X18462000Y-15942000D03*
%TO.P,U1,56,DVDDL*%
%TO.N,+1V2*%
X18462000Y-15542000D03*
%TO.P,U1,57,RX6_CLK/REFCLK*%
%TO.N,unconnected-(U1-Pad57)*%
X18462000Y-15142000D03*
%TO.P,U1,58,RX6_DV/CRS/CTL*%
%TO.N,unconnected-(U1-Pad58)*%
X18462000Y-14742000D03*
%TO.P,U1,59,RX6_ER*%
%TO.N,unconnected-(U1-Pad59)*%
X18462000Y-14342000D03*
%TO.P,U1,60,RX6_CRS*%
%TO.N,unconnected-(U1-Pad60)*%
X18462000Y-13942000D03*
%TO.P,U1,61,VDDIO*%
%TO.N,+3V3*%
X18462000Y-13542000D03*
%TO.P,U1,62,RX6_3*%
%TO.N,unconnected-(U1-Pad62)*%
X18462000Y-13142000D03*
%TO.P,U1,63,RX6_2*%
%TO.N,unconnected-(U1-Pad63)*%
X18462000Y-12742000D03*
%TO.P,U1,64,RX6_1*%
%TO.N,unconnected-(U1-Pad64)*%
X18462000Y-12342000D03*
D31*
%TO.P,U1,65,RX6_0*%
%TO.N,unconnected-(U1-Pad65)*%
X19962000Y-10842000D03*
%TO.P,U1,66,DVDDL*%
%TO.N,+1V2*%
X20362000Y-10842000D03*
%TO.P,U1,67,IBA*%
%TO.N,/config/IBA*%
X20762000Y-10842000D03*
%TO.P,U1,68,VDDIO*%
%TO.N,+3V3*%
X21162000Y-10842000D03*
%TO.P,U1,69,GND*%
%TO.N,GND*%
X21562000Y-10842000D03*
%TO.P,U1,70,DVDDL*%
%TO.N,+1V2*%
X21962000Y-10842000D03*
%TO.P,U1,71,VDDLS*%
X22362000Y-10842000D03*
%TO.P,U1,72,VDDHS*%
%TO.N,+2V5*%
X22762000Y-10842000D03*
%TO.P,U1,73*%
%TO.N,N/C*%
X23162000Y-10842000D03*
%TO.P,U1,74*%
X23562000Y-10842000D03*
%TO.P,U1,75,GND*%
%TO.N,GND*%
X23962000Y-10842000D03*
%TO.P,U1,76,SREXT*%
%TO.N,unconnected-(U1-Pad76)*%
X24362000Y-10842000D03*
%TO.P,U1,77,GND*%
%TO.N,GND*%
X24762000Y-10842000D03*
%TO.P,U1,78,SIN_N*%
%TO.N,unconnected-(U1-Pad78)*%
X25162000Y-10842000D03*
%TO.P,U1,79,SIN_P*%
%TO.N,unconnected-(U1-Pad79)*%
X25562000Y-10842000D03*
%TO.P,U1,80,GND*%
%TO.N,GND*%
X25962000Y-10842000D03*
%TO.P,U1,81,SOUT_P*%
%TO.N,unconnected-(U1-Pad81)*%
X26362000Y-10842000D03*
%TO.P,U1,82,SOUT_N*%
%TO.N,unconnected-(U1-Pad82)*%
X26762000Y-10842000D03*
%TO.P,U1,83,VDDHS*%
%TO.N,+2V5*%
X27162000Y-10842000D03*
%TO.P,U1,84,VDDLS*%
%TO.N,+1V2*%
X27562000Y-10842000D03*
%TO.P,U1,85,LED4_0*%
%TO.N,/config/LED4_0*%
X27962000Y-10842000D03*
%TO.P,U1,86,LED4_1*%
%TO.N,/config/LED4_1*%
X28362000Y-10842000D03*
%TO.P,U1,87,DVDDL*%
%TO.N,+1V2*%
X28762000Y-10842000D03*
%TO.P,U1,88,LED3_0*%
%TO.N,/config/LED3_0*%
X29162000Y-10842000D03*
%TO.P,U1,89,LED3_1*%
%TO.N,/config/LED3_1*%
X29562000Y-10842000D03*
%TO.P,U1,90,GPIO*%
%TO.N,/config/SYNC*%
X29962000Y-10842000D03*
%TO.P,U1,91,LED2_0*%
%TO.N,/config/LED2_0*%
X30362000Y-10842000D03*
%TO.P,U1,92,LED2_1*%
%TO.N,/config/LED2_1*%
X30762000Y-10842000D03*
%TO.P,U1,93,PME*%
%TO.N,unconnected-(U1-Pad93)*%
X31162000Y-10842000D03*
%TO.P,U1,94,INTRP*%
%TO.N,unconnected-(U1-Pad94)*%
X31562000Y-10842000D03*
%TO.P,U1,95,SYNCLKO*%
%TO.N,unconnected-(U1-Pad95)*%
X31962000Y-10842000D03*
%TO.P,U1,96,RESET*%
%TO.N,/config/nRST_SWITCH*%
X32362000Y-10842000D03*
D32*
%TO.P,U1,97,SDO*%
%TO.N,/config/SPI.SDI*%
X33862000Y-12342000D03*
%TO.P,U1,98,SDI/SDA/MDIO*%
%TO.N,/config/SPI.SDO*%
X33862000Y-12742000D03*
%TO.P,U1,99,VDDIO*%
%TO.N,+3V3*%
X33862000Y-13142000D03*
%TO.P,U1,100,SCS*%
%TO.N,/config/SPI.nCS3*%
X33862000Y-13542000D03*
%TO.P,U1,101,SCL/MDC*%
%TO.N,/config/SPI.SCK*%
X33862000Y-13942000D03*
%TO.P,U1,102,LED5_0*%
%TO.N,/config/LED5_0*%
X33862000Y-14342000D03*
%TO.P,U1,103,LED5_1*%
%TO.N,/config/LED5_1*%
X33862000Y-14742000D03*
%TO.P,U1,104,DVDDL*%
%TO.N,+1V2*%
X33862000Y-15142000D03*
%TO.P,U1,105,LED1_0*%
%TO.N,/config/LED1_0*%
X33862000Y-15542000D03*
%TO.P,U1,106,LED1_1*%
%TO.N,/config/LED1_1*%
X33862000Y-15942000D03*
%TO.P,U1,107,GND*%
%TO.N,GND*%
X33862000Y-16342000D03*
%TO.P,U1,108*%
%TO.N,N/C*%
X33862000Y-16742000D03*
%TO.P,U1,109,GND*%
%TO.N,GND*%
X33862000Y-17142000D03*
%TO.P,U1,110,DVDDL*%
%TO.N,+1V2*%
X33862000Y-17542000D03*
%TO.P,U1,111,AVDDH*%
%TO.N,+2V5*%
X33862000Y-17942000D03*
%TO.P,U1,112,TX5_P*%
%TO.N,/phy/TX5_P*%
X33862000Y-18342000D03*
%TO.P,U1,113,TX5_N*%
%TO.N,/phy/TX5_N*%
X33862000Y-18742000D03*
%TO.P,U1,114,AVDDL*%
%TO.N,+1V2*%
X33862000Y-19142000D03*
%TO.P,U1,115,RX5_P*%
%TO.N,/phy/RX5_P*%
X33862000Y-19542000D03*
%TO.P,U1,116,RX5_N*%
%TO.N,/phy/RX5_N*%
X33862000Y-19942000D03*
%TO.P,U1,117*%
%TO.N,N/C*%
X33862000Y-20342000D03*
%TO.P,U1,118*%
X33862000Y-20742000D03*
%TO.P,U1,119,AVDDL*%
%TO.N,+1V2*%
X33862000Y-21142000D03*
%TO.P,U1,120*%
%TO.N,N/C*%
X33862000Y-21542000D03*
%TO.P,U1,121*%
X33862000Y-21942000D03*
%TO.P,U1,122,AVDDH*%
%TO.N,+2V5*%
X33862000Y-22342000D03*
%TO.P,U1,123,GND*%
%TO.N,GND*%
X33862000Y-22742000D03*
%TO.P,U1,124,AVDDL*%
%TO.N,+1V2*%
X33862000Y-23142000D03*
%TO.P,U1,125,XO*%
%TO.N,/config/XO*%
X33862000Y-23542000D03*
%TO.P,U1,126,XI*%
%TO.N,/config/XI*%
X33862000Y-23942000D03*
%TO.P,U1,127,ISET*%
%TO.N,Net-(R24-Pad1)*%
X33862000Y-24342000D03*
%TO.P,U1,128,AVDDH*%
%TO.N,+2V5*%
X33862000Y-24742000D03*
D33*
%TO.P,U1,EP,GND*%
%TO.N,GND*%
X26162000Y-18542000D03*
%TD*%
D30*
%TO.P,R7,1*%
%TO.N,Net-(J3-PadL1B)*%
X18796000Y-44767000D03*
%TO.P,R7,2*%
%TO.N,/config/LED3_0*%
X18796000Y-43117000D03*
%TD*%
D28*
%TO.P,R17,1*%
%TO.N,Net-(J7-Pad6)*%
X28448000Y-8380000D03*
%TO.P,R17,2*%
%TO.N,/config/LED3_1*%
X28448000Y-9400000D03*
%TD*%
D34*
%TO.P,C9,2*%
%TO.N,Net-(C9-Pad2)*%
X43914000Y-18288000D03*
%TO.P,C9,1*%
%TO.N,GND*%
X42954000Y-18288000D03*
%TD*%
D11*
%TO.P,J8,1,Pin_1*%
%TO.N,/config/SYNC+*%
X53061006Y-3829990D03*
D12*
%TO.P,J8,2,Pin_2*%
%TO.N,/config/SYNC-*%
X53061006Y-6369990D03*
%TD*%
D20*
%TO.P,FL2,1*%
%TO.N,Net-(FL2-Pad1)*%
X8582500Y-37637500D03*
%TO.P,FL2,2*%
%TO.N,/phy/JRX4_N*%
X6657500Y-37637500D03*
%TO.P,FL2,3*%
%TO.N,/phy/JRX4_P*%
X6657500Y-38562500D03*
%TO.P,FL2,4*%
%TO.N,Net-(FL2-Pad4)*%
X8582500Y-38562500D03*
%TD*%
D35*
%TO.P,C48,1*%
%TO.N,GND*%
X37605000Y-26162000D03*
%TO.P,C48,2*%
%TO.N,/config/XI*%
X36055000Y-26162000D03*
%TD*%
D20*
%TO.P,FL5,1*%
%TO.N,Net-(FL5-Pad1)*%
X49583500Y-23322500D03*
%TO.P,FL5,2*%
%TO.N,/phy/JTX1_N*%
X51508500Y-23322500D03*
%TO.P,FL5,3*%
%TO.N,/phy/JTX1_P*%
X51508500Y-22397500D03*
%TO.P,FL5,4*%
%TO.N,Net-(FL5-Pad4)*%
X49583500Y-22397500D03*
%TD*%
D28*
%TO.P,R16,1*%
%TO.N,Net-(J7-Pad4)*%
X27432000Y-8380000D03*
%TO.P,R16,2*%
%TO.N,/config/LED4_1*%
X27432000Y-9400000D03*
%TD*%
D21*
%TO.P,TR6,1*%
%TO.N,/phy/RX1_P*%
X44208000Y-24174000D03*
D22*
%TO.P,TR6,2*%
%TO.N,/phy/RX1_N*%
X44153000Y-24819000D03*
D23*
%TO.P,TR6,3*%
%TO.N,Net-(R11-Pad1)*%
X44178000Y-26691500D03*
%TO.P,TR6,4*%
X44178000Y-27076500D03*
D24*
%TO.P,TR6,5*%
%TO.N,Net-(C9-Pad2)*%
X48253000Y-24289000D03*
D25*
%TO.P,TR6,6*%
%TO.N,Net-(FL6-Pad4)*%
X48303000Y-26319000D03*
D26*
%TO.P,TR6,7*%
%TO.N,Net-(FL6-Pad1)*%
X48243000Y-27104000D03*
%TD*%
D28*
%TO.P,R20,1*%
%TO.N,Net-(J7-Pad12)*%
X31496000Y-8380000D03*
%TO.P,R20,2*%
%TO.N,/config/LED5_1*%
X31496000Y-9400000D03*
%TD*%
D21*
%TO.P,TR1,1*%
%TO.N,/phy/TX4_P*%
X13958000Y-45676000D03*
D22*
%TO.P,TR1,2*%
%TO.N,/phy/TX4_N*%
X14013000Y-45031000D03*
D23*
%TO.P,TR1,3*%
%TO.N,Net-(R12-Pad1)*%
X13988000Y-43158500D03*
%TO.P,TR1,4*%
X13988000Y-42773500D03*
D24*
%TO.P,TR1,5*%
%TO.N,Net-(C7-Pad2)*%
X9913000Y-45561000D03*
D25*
%TO.P,TR1,6*%
%TO.N,Net-(FL1-Pad4)*%
X9863000Y-43531000D03*
D26*
%TO.P,TR1,7*%
%TO.N,Net-(FL1-Pad1)*%
X9923000Y-42746000D03*
%TD*%
D28*
%TO.P,R15,1*%
%TO.N,Net-(J7-Pad2)*%
X26416000Y-8380000D03*
%TO.P,R15,2*%
%TO.N,/config/LED4_0*%
X26416000Y-9400000D03*
%TD*%
D34*
%TO.P,C8,1*%
%TO.N,GND*%
X42954000Y-7874000D03*
%TO.P,C8,2*%
%TO.N,Net-(C8-Pad2)*%
X43914000Y-7874000D03*
%TD*%
D28*
%TO.P,R21,1*%
%TO.N,Net-(J7-Pad14)*%
X32512000Y-8380000D03*
%TO.P,R21,2*%
%TO.N,/config/LED1_0*%
X32512000Y-9400000D03*
%TD*%
D20*
%TO.P,FL3,1*%
%TO.N,Net-(FL3-Pad1)*%
X49583500Y-10622500D03*
%TO.P,FL3,2*%
%TO.N,/phy/JTX5_N*%
X51508500Y-10622500D03*
%TO.P,FL3,3*%
%TO.N,/phy/JTX5_P*%
X51508500Y-9697500D03*
%TO.P,FL3,4*%
%TO.N,Net-(FL3-Pad4)*%
X49583500Y-9697500D03*
%TD*%
D30*
%TO.P,R6,1*%
%TO.N,Net-(J3-PadL3A)*%
X51562000Y-44767000D03*
%TO.P,R6,2*%
%TO.N,/config/LED2_1*%
X51562000Y-43117000D03*
%TD*%
D28*
%TO.P,R22,1*%
%TO.N,Net-(J7-Pad16)*%
X33528000Y-8380000D03*
%TO.P,R22,2*%
%TO.N,/config/LED1_1*%
X33528000Y-9400000D03*
%TD*%
D36*
%TO.P,C51,1*%
%TO.N,GND*%
X36055000Y-21590000D03*
%TO.P,C51,2*%
%TO.N,/config/XO*%
X37605000Y-21590000D03*
%TD*%
D20*
%TO.P,FL6,4*%
%TO.N,Net-(FL6-Pad4)*%
X49583500Y-27477500D03*
%TO.P,FL6,3*%
%TO.N,/phy/JRX1_P*%
X51508500Y-27477500D03*
%TO.P,FL6,2*%
%TO.N,/phy/JRX1_N*%
X51508500Y-28402500D03*
%TO.P,FL6,1*%
%TO.N,Net-(FL6-Pad1)*%
X49583500Y-28402500D03*
%TD*%
D21*
%TO.P,TR4,1*%
%TO.N,/phy/RX5_P*%
X44208000Y-13760000D03*
D22*
%TO.P,TR4,2*%
%TO.N,/phy/RX5_N*%
X44153000Y-14405000D03*
D23*
%TO.P,TR4,3*%
%TO.N,Net-(R10-Pad1)*%
X44178000Y-16277500D03*
%TO.P,TR4,4*%
X44178000Y-16662500D03*
D24*
%TO.P,TR4,5*%
%TO.N,Net-(C8-Pad2)*%
X48253000Y-13875000D03*
D25*
%TO.P,TR4,6*%
%TO.N,Net-(FL4-Pad4)*%
X48303000Y-15905000D03*
D26*
%TO.P,TR4,7*%
%TO.N,Net-(FL4-Pad1)*%
X48243000Y-16690000D03*
%TD*%
D21*
%TO.P,TR2,1*%
%TO.N,/phy/RX4_P*%
X13958000Y-40596000D03*
D22*
%TO.P,TR2,2*%
%TO.N,/phy/RX4_N*%
X14013000Y-39951000D03*
D23*
%TO.P,TR2,3*%
%TO.N,Net-(R9-Pad1)*%
X13988000Y-38078500D03*
%TO.P,TR2,4*%
X13988000Y-37693500D03*
D24*
%TO.P,TR2,5*%
%TO.N,Net-(C7-Pad2)*%
X9913000Y-40481000D03*
D25*
%TO.P,TR2,6*%
%TO.N,Net-(FL2-Pad4)*%
X9863000Y-38451000D03*
D26*
%TO.P,TR2,7*%
%TO.N,Net-(FL2-Pad1)*%
X9923000Y-37666000D03*
%TD*%
D37*
%TO.P,U2,1*%
%TO.N,+3V3*%
X48834000Y-3942500D03*
%TO.P,U2,2*%
%TO.N,GND*%
X49784000Y-3942500D03*
%TO.P,U2,3*%
%TO.N,/config/SYNC+*%
X50734000Y-3942500D03*
%TO.P,U2,4*%
%TO.N,/config/SYNC-*%
X50734000Y-6217500D03*
%TO.P,U2,5*%
%TO.N,/config/SYNC*%
X48834000Y-6217500D03*
%TD*%
D30*
%TO.P,R5,1*%
%TO.N,Net-(J3-PadL1A)*%
X36068000Y-47307000D03*
%TO.P,R5,2*%
%TO.N,/config/LED2_0*%
X36068000Y-45657000D03*
%TD*%
D38*
%TO.N,GND*%
X18288000Y-31496000D03*
X23622000Y-31496000D03*
X31242000Y-31496000D03*
X5080000Y-6858000D03*
X5080000Y-7620000D03*
X5080000Y-9144000D03*
X5080000Y-8382000D03*
X2540000Y-10922000D03*
X39878000Y-17526000D03*
X39878000Y-18288000D03*
X40640000Y-19050000D03*
X40640000Y-18288000D03*
X40640000Y-17526000D03*
X40640000Y-16764000D03*
X41402000Y-16764000D03*
X41402000Y-18288000D03*
X41402000Y-17526000D03*
X48260000Y-31877000D03*
X42164000Y-26670000D03*
X42926000Y-26670000D03*
X43180000Y-27940000D03*
X40640000Y-27940000D03*
X40640000Y-30480000D03*
X43180000Y-30480000D03*
X39116000Y-11811000D03*
X37592000Y-14986000D03*
X37592000Y-13462000D03*
X37592000Y-14224000D03*
X38354000Y-14224000D03*
X39116000Y-13462000D03*
X38354000Y-13462000D03*
X38354000Y-12700000D03*
X39116000Y-12700000D03*
X13970000Y-42037000D03*
X13970000Y-41275000D03*
X-2540000Y-35052000D03*
X-2540000Y-34290000D03*
X-2540000Y-33528000D03*
X-1016000Y-35052000D03*
X-1778000Y-35052000D03*
X-1778000Y-34290000D03*
X-1016000Y-34290000D03*
X-1016000Y-33528000D03*
X-1778000Y-33528000D03*
X-254000Y-34290000D03*
X-254000Y-35052000D03*
X508000Y-35052000D03*
X508000Y-34290000D03*
X508000Y-33528000D03*
X-254000Y-33528000D03*
X9906000Y-19431000D03*
X10668000Y-19431000D03*
X11430000Y-19431000D03*
X9144000Y-19431000D03*
X0Y-18796000D03*
X0Y-18034000D03*
X7620000Y-15748000D03*
X8382000Y-15748000D03*
X7620000Y-16510000D03*
%TO.N,GNDPWR*%
X46482000Y-24384000D03*
X46482000Y-21844000D03*
X45593000Y-21844000D03*
X46990000Y-22987000D03*
X45593000Y-24384000D03*
X46990000Y-23749000D03*
D39*
%TO.N,+3V3*%
X47879000Y-4064000D03*
X47879000Y-4953000D03*
X47879000Y-5842000D03*
%TO.N,GND*%
X50673000Y-5080000D03*
X49784000Y-5080000D03*
D38*
X9652000Y-28448000D03*
X-2286000Y-14224000D03*
X1270000Y-32766000D03*
X6604000Y-34290000D03*
X16002000Y-19558000D03*
X42926000Y-17526000D03*
X8890000Y-22352000D03*
X9652000Y-29210000D03*
X-1524000Y-14224000D03*
D40*
X23114000Y-16510000D03*
D38*
X3810000Y-28702000D03*
X16002000Y-18796000D03*
X3810000Y-21844000D03*
X39116000Y-9271000D03*
D40*
X25146000Y-18542000D03*
X28194000Y-18542000D03*
X28194000Y-16510000D03*
D38*
X0Y-14224000D03*
X3048000Y-21844000D03*
X8128000Y-24638000D03*
X16764000Y-19558000D03*
X16764000Y-20320000D03*
X15240000Y-18796000D03*
X39116000Y-2540000D03*
X34058000Y-2562000D03*
X6096000Y-26670000D03*
D40*
X25146000Y-16510000D03*
D38*
X21336000Y-2540000D03*
D40*
X26162000Y-19558000D03*
D38*
X28956000Y-2540000D03*
D40*
X23114000Y-20574000D03*
D38*
X26416000Y-2540000D03*
X11430000Y-13335000D03*
D40*
X26162000Y-16510000D03*
D38*
X12954000Y-11811000D03*
D40*
X25146000Y-20574000D03*
D38*
X42164000Y-7112000D03*
X35179000Y-20701000D03*
X-1524000Y-14986000D03*
D40*
X24130000Y-15494000D03*
X24130000Y-19558000D03*
D38*
X2794000Y-35052000D03*
D40*
X24130000Y-20574000D03*
D38*
X8890000Y-21590000D03*
X12192000Y-11049000D03*
X-2286000Y-13462000D03*
D40*
X27178000Y-15494000D03*
D38*
X10668000Y-11811000D03*
X35179000Y-22987000D03*
X-762000Y-14986000D03*
X10668000Y-11049000D03*
X12954000Y-12573000D03*
X42164000Y-7874000D03*
D40*
X29210000Y-19558000D03*
X27178000Y-20574000D03*
D38*
X3810000Y-29464000D03*
X12192000Y-13335000D03*
D40*
X27178000Y-19558000D03*
D38*
X12192000Y-35052000D03*
X508000Y-32766000D03*
D40*
X29210000Y-15494000D03*
D38*
X25273000Y-9525000D03*
X38481000Y-24257000D03*
X2286000Y-21844000D03*
X12192000Y-14097000D03*
X6604000Y-35052000D03*
X9652000Y-35052000D03*
X13716000Y-11811000D03*
X11430000Y-14097000D03*
D40*
X27178000Y-17526000D03*
D38*
X11430000Y-12573000D03*
D40*
X27178000Y-16510000D03*
D38*
X42164000Y-18288000D03*
X9652000Y-35814000D03*
X12954000Y-35814000D03*
D40*
X26162000Y-15494000D03*
D38*
X38481000Y-26543000D03*
X11430000Y-11049000D03*
X14478000Y-20320000D03*
D40*
X28194000Y-17526000D03*
X25146000Y-15494000D03*
X28194000Y-15494000D03*
X27178000Y-21590000D03*
X29210000Y-18542000D03*
D38*
X15240000Y-19558000D03*
X12954000Y-14097000D03*
D40*
X25146000Y-19558000D03*
D38*
X4318000Y-35052000D03*
X2032000Y-33528000D03*
X12192000Y-12573000D03*
D40*
X26162000Y-21590000D03*
X23114000Y-21590000D03*
D38*
X2032000Y-35052000D03*
D40*
X28194000Y-20574000D03*
D38*
X8128000Y-35814000D03*
X21336000Y-9398000D03*
X1270000Y-33528000D03*
D40*
X28194000Y-21590000D03*
X26162000Y-18542000D03*
D38*
X7366000Y-35814000D03*
X-2286000Y-14986000D03*
X38481000Y-25781000D03*
X8890000Y-29210000D03*
D40*
X27178000Y-18542000D03*
D38*
X8890000Y-35814000D03*
X35179000Y-21463000D03*
X18796000Y-2540000D03*
D40*
X24130000Y-18542000D03*
D38*
X36576000Y-2562000D03*
X2032000Y-32766000D03*
X3556000Y-34290000D03*
X16764000Y-18796000D03*
D40*
X23114000Y-18542000D03*
X29210000Y-21590000D03*
D38*
X8128000Y-26670000D03*
X8890000Y-28448000D03*
X35052000Y-8509000D03*
D40*
X29210000Y-20574000D03*
D38*
X14478000Y-18796000D03*
X12954000Y-35052000D03*
X3810000Y-27940000D03*
D40*
X23114000Y-19558000D03*
X23114000Y-17526000D03*
D38*
X16002000Y-20320000D03*
X5842000Y-35052000D03*
X35179000Y-22225000D03*
X-762000Y-14224000D03*
X5842000Y-34290000D03*
D40*
X24130000Y-17526000D03*
D38*
X5080000Y-35052000D03*
X13716000Y-12573000D03*
X7112000Y-24638000D03*
X7112000Y-25654000D03*
X31496000Y-2540000D03*
X8128000Y-25654000D03*
X1270000Y-35052000D03*
X13716000Y-14224000D03*
X2032000Y-34290000D03*
X24511000Y-9525000D03*
X3810000Y-22606000D03*
X2286000Y-29464000D03*
X12192000Y-11811000D03*
D40*
X26162000Y-17526000D03*
D38*
X37211000Y-9271000D03*
X3810000Y-23368000D03*
D40*
X24130000Y-16510000D03*
X23114000Y-15494000D03*
D38*
X42926000Y-7112000D03*
X15240000Y-20320000D03*
X38481000Y-9906000D03*
X12954000Y-13335000D03*
D40*
X29210000Y-17526000D03*
D38*
X14478000Y-19558000D03*
X11430000Y-11811000D03*
X13716000Y-13335000D03*
X7112000Y-26670000D03*
X7366000Y-35052000D03*
X1270000Y-34290000D03*
X23876000Y-2540000D03*
X5080000Y-34290000D03*
X6096000Y-24638000D03*
X8890000Y-35052000D03*
X8128000Y-35052000D03*
D40*
X25146000Y-21590000D03*
D38*
X38481000Y-25019000D03*
X6096000Y-25654000D03*
X3556000Y-35052000D03*
X42164000Y-17526000D03*
D40*
X24130000Y-21590000D03*
X25146000Y-17526000D03*
D38*
X9652000Y-21590000D03*
X4318000Y-34290000D03*
X7366000Y-34290000D03*
X9652000Y-22352000D03*
D40*
X26162000Y-20574000D03*
D38*
X16256000Y-2540000D03*
X12954000Y-11049000D03*
X3048000Y-29464000D03*
X2794000Y-34290000D03*
D40*
X29210000Y-16510000D03*
X28194000Y-19558000D03*
D38*
%TO.N,+5V*%
X-1778000Y-25654000D03*
X508000Y-25654000D03*
X1270000Y-25654000D03*
X7620000Y-13462000D03*
X8382000Y-13462000D03*
X1270000Y-26416000D03*
X9906000Y-13462000D03*
X9906000Y-12700000D03*
X-254000Y-24892000D03*
X1270000Y-24892000D03*
X9144000Y-13462000D03*
X-1778000Y-26416000D03*
X7620000Y-14224000D03*
X9144000Y-14224000D03*
X-254000Y-25654000D03*
X-1016000Y-25654000D03*
X8382000Y-14224000D03*
X-2540000Y-25654000D03*
X-254000Y-26416000D03*
X-1778000Y-24892000D03*
%TO.N,+1V2*%
X19685000Y-15494000D03*
X27178000Y-25019000D03*
X27559000Y-12065000D03*
X21976436Y-12059564D03*
X32639000Y-19939000D03*
X25146000Y-25019000D03*
X20447000Y-12065000D03*
X20955000Y-25019000D03*
X23622000Y-12065000D03*
X19685000Y-19558000D03*
X32512000Y-18669000D03*
X28194000Y-25019000D03*
X30226000Y-25019000D03*
X32639000Y-15494000D03*
X32639000Y-16764000D03*
X19685000Y-22606000D03*
X32639000Y-23114000D03*
X23241000Y-25019000D03*
X19685000Y-21590000D03*
X28321000Y-12065000D03*
%TO.N,+2V5*%
X34417000Y-30480000D03*
X19685000Y-17526000D03*
X24130000Y-25019000D03*
X32512000Y-17907000D03*
X26162000Y-12065000D03*
X22098000Y-9398000D03*
X32004000Y-24765000D03*
X19685000Y-24765000D03*
X19685000Y-16510000D03*
X32639000Y-22225000D03*
X29210000Y-25019000D03*
X19685000Y-20574000D03*
%TO.N,GNDPWR*%
X46990000Y-13335000D03*
X45593000Y-13970000D03*
X46990000Y-12573000D03*
X45593000Y-11430000D03*
X46482000Y-11430000D03*
X46482000Y-13970000D03*
X12700000Y-40386000D03*
X11303000Y-41021000D03*
X12700000Y-42926000D03*
X11938000Y-42926000D03*
X11303000Y-41783000D03*
X11938000Y-40386000D03*
%TO.N,+3V3*%
X11430000Y-9271000D03*
X1524000Y-14224000D03*
X9906000Y-9271000D03*
X762000Y-15748000D03*
X12192000Y-8509000D03*
X0Y-16510000D03*
X32639000Y-13462000D03*
X1524000Y-14986000D03*
X12192000Y-9271000D03*
X19685000Y-14478000D03*
X11430000Y-8509000D03*
X11430000Y-7747000D03*
X762000Y-14986000D03*
X10668000Y-6985000D03*
X1524000Y-15748000D03*
X10668000Y-7747000D03*
X10668000Y-8509000D03*
X2286000Y-14986000D03*
X21209000Y-12065000D03*
X2286000Y-13462000D03*
X12192000Y-6985000D03*
X11430000Y-6223000D03*
X10668000Y-10033000D03*
X9906000Y-6985000D03*
X11430000Y-6985000D03*
X10668000Y-9271000D03*
X12192000Y-7747000D03*
X2286000Y-14224000D03*
X11430000Y-10033000D03*
X0Y-15748000D03*
X762000Y-16510000D03*
%TO.N,/config/nRST_SWITCH*%
X35814000Y-8255000D03*
X8382000Y-7366000D03*
D39*
%TO.N,/power/1V2_PG*%
X762000Y-31242000D03*
X7366000Y-29718000D03*
%TO.N,/power/2V5_PG*%
X7366000Y-21082000D03*
X2286000Y-19812000D03*
%TO.N,/power/1V2_EN*%
X762000Y-30226000D03*
X7366000Y-28702000D03*
%TO.N,/power/2V5_EN*%
X7366000Y-22352000D03*
X2286000Y-20828000D03*
D38*
%TO.N,/power/3V3_PG*%
X5842000Y-12954000D03*
D39*
X1270000Y-17526000D03*
D38*
%TO.N,Net-(R24-Pad1)*%
X34798000Y-25781000D03*
%TO.N,/config/LED3_0*%
X29083000Y-12065000D03*
X18796000Y-42164000D03*
%TO.N,/config/LED3_1*%
X28956000Y-8890000D03*
X34290000Y-44704000D03*
%TO.N,/config/SYNC*%
X43942000Y-5842000D03*
X35814000Y-9906000D03*
%TO.N,/config/LED2_0*%
X29972000Y-8890000D03*
X36068000Y-44704000D03*
%TO.N,/config/LED2_1*%
X52578000Y-42926000D03*
X30988000Y-8890000D03*
%TO.N,/config/SPI.nCS3*%
X37084000Y-11176000D03*
%TO.N,/config/LED5_1*%
X33147000Y-10795000D03*
X35306000Y-14224000D03*
%TO.N,/config/LED1_0*%
X33528000Y-10160000D03*
X35814000Y-14859000D03*
%TO.N,/config/LED1_1*%
X34544000Y-9271000D03*
X36322000Y-15494000D03*
D39*
%TO.N,Net-(R13-Pad1)*%
X43180000Y-10668000D03*
%TO.N,Net-(R14-Pad1)*%
X42926000Y-20828000D03*
%TO.N,Net-(R12-Pad1)*%
X14224000Y-43942000D03*
D38*
%TO.N,Net-(J7-Pad4)*%
X26924000Y-8890000D03*
%TO.N,Net-(J7-Pad6)*%
X27940000Y-8890000D03*
%TO.N,Net-(J7-Pad18)*%
X18796000Y-9398000D03*
%TO.N,/phy/TIMEPIX_RTS*%
X4572000Y-4064000D03*
%TO.N,/phy/TIMEPIX_CTS*%
X5334000Y-4064000D03*
D39*
%TO.N,Net-(R10-Pad1)*%
X43180000Y-16256000D03*
%TO.N,Net-(R11-Pad1)*%
X42926000Y-25654000D03*
%TO.N,Net-(R9-Pad1)*%
X14224000Y-38862000D03*
%TD*%
D41*
%TO.N,/config/SPI.SCK*%
X33862000Y-13942000D02*
X34835200Y-13942000D01*
X35315200Y-13462000D02*
X35814000Y-13462000D01*
X34835200Y-13942000D02*
X35315200Y-13462000D01*
X40429993Y-8846007D02*
X40429993Y-6350000D01*
X35814000Y-13462000D02*
X40429993Y-8846007D01*
%TO.N,/config/SPI.SDI*%
X36728400Y-8483600D02*
G75*
G03*
X36576000Y-8636000I0J-152400D01*
G01*
X37490400Y-8331200D02*
G75*
G02*
X37338000Y-8483600I-152400J0D01*
G01*
X37338000Y-8178800D02*
G75*
G02*
X37490400Y-8331200I0J-152400D01*
G01*
X36576000Y-8026400D02*
G75*
G03*
X36728400Y-8178800I152400J0D01*
G01*
X36671639Y-7778361D02*
G75*
G03*
X36576000Y-7874000I0J-95639D01*
G01*
X36767279Y-7682722D02*
G75*
G02*
X36671640Y-7778361I-95639J0D01*
G01*
X36576000Y-5124000D02*
X37890000Y-3810000D01*
X34394000Y-12342000D02*
X36576000Y-10160000D01*
X36671640Y-7473561D02*
G75*
G02*
X36767279Y-7569200I0J-95639D01*
G01*
X33862000Y-12342000D02*
X34394000Y-12342000D01*
X36576000Y-10160000D02*
X36576000Y-8636000D01*
X36576000Y-7377922D02*
G75*
G03*
X36671639Y-7473561I95639J0D01*
G01*
X36728400Y-8483600D02*
X37338000Y-8483600D01*
X37338000Y-8178800D02*
X36728400Y-8178800D01*
X36576000Y-8026400D02*
X36576000Y-7976400D01*
X36576000Y-7976400D02*
X36576000Y-7874000D01*
X36767279Y-7682722D02*
X36767279Y-7569200D01*
X36671639Y-7778361D02*
X36671640Y-7778361D01*
X36671640Y-7473561D02*
X36671639Y-7473561D01*
X36576000Y-7377922D02*
X36576000Y-7264400D01*
X36576000Y-7264400D02*
X36576000Y-5124000D01*
D42*
%TO.N,/phy/RX5_P*%
X43392146Y-13995700D02*
X43840897Y-13995700D01*
X42363446Y-13586316D02*
G75*
G03*
X42020546Y-13243416I-342900J0D01*
G01*
X43972300Y-13995700D02*
X44208000Y-13760000D01*
X42592046Y-14633684D02*
G75*
G02*
X42477746Y-14747984I-114301J1D01*
G01*
X42363446Y-13586316D02*
X42363446Y-13881400D01*
X43277846Y-13586316D02*
G75*
G03*
X42934946Y-13243416I-342900J0D01*
G01*
X42020546Y-13243416D02*
G75*
G03*
X41677646Y-13586316I0J-342900D01*
G01*
X42477746Y-14747984D02*
G75*
G02*
X42363446Y-14633684I1J114301D01*
G01*
X41677646Y-13881400D02*
G75*
G02*
X41563346Y-13995700I-114301J1D01*
G01*
%TO.N,/phy/RX5_N*%
X43392146Y-14224300D02*
G75*
G02*
X43049246Y-13881400I0J342900D01*
G01*
%TO.N,/phy/RX5_P*%
X33862000Y-19542000D02*
X34532000Y-19542000D01*
X43392146Y-13995700D02*
G75*
G02*
X43277846Y-13881400I1J114301D01*
G01*
X34532000Y-19542000D02*
X34617700Y-19627700D01*
X42592046Y-14633684D02*
X42592046Y-14224300D01*
X34617700Y-19627700D02*
X35836654Y-19627700D01*
X42934946Y-13243416D02*
G75*
G03*
X42592046Y-13586316I0J-342900D01*
G01*
%TO.N,/phy/RX5_N*%
X42020546Y-13472016D02*
G75*
G03*
X41906246Y-13586316I1J-114301D01*
G01*
%TO.N,/phy/RX5_P*%
X41468654Y-13995700D02*
X41563346Y-13995700D01*
X35836654Y-19627700D02*
X41468654Y-13995700D01*
X41677646Y-13881400D02*
X41677646Y-13586316D01*
%TO.N,/phy/RX5_N*%
X42820646Y-14633684D02*
G75*
G02*
X42477746Y-14976584I-342900J0D01*
G01*
%TO.N,/phy/RX5_P*%
X42592046Y-14224300D02*
X42592046Y-13586316D01*
X42363446Y-13881400D02*
X42363446Y-14633684D01*
%TO.N,/phy/RX5_N*%
X41906246Y-13881400D02*
G75*
G02*
X41563346Y-14224300I-342900J0D01*
G01*
%TO.N,/phy/RX5_P*%
X43277846Y-13586316D02*
X43277846Y-13881400D01*
X43840897Y-13995700D02*
X43972300Y-13995700D01*
%TO.N,/phy/RX5_N*%
X42134846Y-13586316D02*
G75*
G03*
X42020546Y-13472016I-114301J-1D01*
G01*
X42477746Y-14976584D02*
G75*
G02*
X42134846Y-14633684I0J342900D01*
G01*
X42934946Y-13472016D02*
G75*
G03*
X42820646Y-13586316I1J-114301D01*
G01*
X42820646Y-14633684D02*
X42820646Y-14224300D01*
X43049246Y-13586316D02*
G75*
G03*
X42934946Y-13472016I-114301J-1D01*
G01*
X33862000Y-19942000D02*
X34532000Y-19942000D01*
X43840897Y-14224300D02*
X43972300Y-14224300D01*
X34532000Y-19942000D02*
X34617700Y-19856300D01*
X34617700Y-19856300D02*
X35931346Y-19856300D01*
X35931346Y-19856300D02*
X41563346Y-14224300D01*
X41906246Y-13881400D02*
X41906246Y-13586316D01*
X42820646Y-14224300D02*
X42820646Y-13586316D01*
X42134846Y-13586316D02*
X42134846Y-13881400D01*
X42134846Y-13881400D02*
X42134846Y-14633684D01*
X43049246Y-13586316D02*
X43049246Y-13881400D01*
X43392146Y-14224300D02*
X43840897Y-14224300D01*
X43972300Y-14224300D02*
X44153000Y-14405000D01*
%TO.N,/phy/RX2_P*%
X46439454Y-31241037D02*
G75*
G03*
X46277812Y-31241037I-80821J-80820D01*
G01*
X37096700Y-29603700D02*
G75*
G03*
X36753800Y-29946600I0J-342900D01*
G01*
X45918601Y-31278955D02*
X45918601Y-31438601D01*
%TO.N,/phy/RX2_N*%
X38811200Y-30307451D02*
G75*
G02*
X38468300Y-30650351I-342900J0D01*
G01*
%TO.N,/phy/RX2_P*%
X37439600Y-29946600D02*
G75*
G03*
X37096700Y-29603700I-342900J0D01*
G01*
X38925500Y-29603700D02*
X39743633Y-29603700D01*
X38582600Y-30307451D02*
G75*
G02*
X38468300Y-30421751I-114301J1D01*
G01*
X26762000Y-27397001D02*
X26676300Y-27482701D01*
X36753800Y-30307451D02*
G75*
G02*
X36639500Y-30421751I-114301J1D01*
G01*
%TO.N,/phy/RX2_N*%
X26362000Y-26242000D02*
X26362000Y-27397001D01*
%TO.N,/phy/RX2_P*%
X38354000Y-29946600D02*
G75*
G03*
X38011100Y-29603700I-342900J0D01*
G01*
%TO.N,/phy/RX2_N*%
X38925500Y-29832300D02*
G75*
G03*
X38811200Y-29946600I1J-114301D01*
G01*
%TO.N,/phy/RX2_P*%
X38925500Y-29603700D02*
G75*
G03*
X38582600Y-29946600I0J-342900D01*
G01*
X37668200Y-30307451D02*
X37668200Y-29946600D01*
X38582600Y-30307451D02*
X38582600Y-29946600D01*
X36525200Y-29946600D02*
G75*
G03*
X36182300Y-29603700I-342900J0D01*
G01*
X26676300Y-27530654D02*
X28749346Y-29603700D01*
X36639500Y-30421751D02*
G75*
G02*
X36525200Y-30307451I1J114301D01*
G01*
%TO.N,/phy/RX2_N*%
X36982400Y-30307451D02*
G75*
G02*
X36639500Y-30650351I-342900J0D01*
G01*
%TO.N,/phy/RX2_P*%
X46080245Y-31438599D02*
G75*
G02*
X45918602Y-31438600I-80822J80822D01*
G01*
X46241891Y-31761888D02*
G75*
G02*
X46241891Y-31600246I80820J80821D01*
G01*
X26762000Y-26242000D02*
X26762000Y-27397001D01*
X39743633Y-29603700D02*
X44243346Y-29603700D01*
X46241890Y-31761889D02*
X46960000Y-32480000D01*
%TO.N,/phy/RX2_N*%
X38468300Y-30650351D02*
G75*
G02*
X38125400Y-30307451I0J342900D01*
G01*
%TO.N,/phy/RX2_P*%
X26676300Y-27482701D02*
X26676300Y-27530654D01*
X44243346Y-29603700D02*
X45918601Y-31278955D01*
X36525200Y-29946600D02*
X36525200Y-30307451D01*
X37668200Y-30307451D02*
G75*
G02*
X37553900Y-30421751I-114301J1D01*
G01*
%TO.N,/phy/RX2_N*%
X36639500Y-30650351D02*
G75*
G02*
X36296600Y-30307451I0J342900D01*
G01*
%TO.N,/phy/RX2_P*%
X38468300Y-30421751D02*
G75*
G02*
X38354000Y-30307451I1J114301D01*
G01*
X37439600Y-29946600D02*
X37439600Y-30307451D01*
X38354000Y-29946600D02*
X38354000Y-30307451D01*
X46080246Y-31438600D02*
X46080245Y-31438601D01*
X46439453Y-31402679D02*
G75*
G03*
X46439454Y-31241036I-80822J80822D01*
G01*
%TO.N,/phy/RX2_N*%
X26447700Y-27482701D02*
X26447700Y-27625346D01*
%TO.N,/phy/RX2_P*%
X46080245Y-31438601D02*
X46277811Y-31241036D01*
X46439455Y-31241036D02*
X46439455Y-31241035D01*
%TO.N,/phy/RX2_N*%
X36982400Y-30307451D02*
X36982400Y-29946600D01*
%TO.N,/phy/RX2_P*%
X46439454Y-31402680D02*
X46439455Y-31402679D01*
X46439455Y-31402679D02*
X46241890Y-31600245D01*
%TO.N,/phy/RX2_N*%
X36296600Y-29946600D02*
G75*
G03*
X36182300Y-29832300I-114301J-1D01*
G01*
%TO.N,/phy/RX2_P*%
X38011100Y-29603700D02*
G75*
G03*
X37668200Y-29946600I0J-342900D01*
G01*
%TO.N,/phy/RX2_N*%
X37096700Y-29832300D02*
G75*
G03*
X36982400Y-29946600I1J-114301D01*
G01*
%TO.N,/phy/RX2_P*%
X28749346Y-29603700D02*
X36182300Y-29603700D01*
%TO.N,/phy/RX2_N*%
X37553900Y-30650351D02*
G75*
G02*
X37211000Y-30307451I0J342900D01*
G01*
%TO.N,/phy/RX2_P*%
X37553900Y-30421751D02*
G75*
G02*
X37439600Y-30307451I1J114301D01*
G01*
%TO.N,/phy/RX2_N*%
X36296600Y-29946600D02*
X36296600Y-30307451D01*
X37896800Y-30307451D02*
G75*
G02*
X37553900Y-30650351I-342900J0D01*
G01*
X38011100Y-29832300D02*
G75*
G03*
X37896800Y-29946600I1J-114301D01*
G01*
X38125400Y-29946600D02*
G75*
G03*
X38011100Y-29832300I-114301J-1D01*
G01*
%TO.N,/phy/RX2_P*%
X36753800Y-30307451D02*
X36753800Y-29946600D01*
%TO.N,/phy/RX2_N*%
X37211000Y-29946600D02*
G75*
G03*
X37096700Y-29832300I-114301J-1D01*
G01*
X39743633Y-29832300D02*
X44148654Y-29832300D01*
X26362000Y-27397001D02*
X26447700Y-27482701D01*
X26447700Y-27625346D02*
X28654654Y-29832300D01*
X28654654Y-29832300D02*
X36182300Y-29832300D01*
X37211000Y-29946600D02*
X37211000Y-30307451D01*
X37896800Y-30307451D02*
X37896800Y-29946600D01*
X38125400Y-29946600D02*
X38125400Y-30307451D01*
X38925500Y-29832300D02*
X39743633Y-29832300D01*
X38811200Y-30307451D02*
X38811200Y-29946600D01*
X44148654Y-29832300D02*
X45690000Y-31373646D01*
X45690000Y-31373646D02*
X45690000Y-33750000D01*
%TO.N,/phy/RX3_P*%
X23460397Y-28632754D02*
G75*
G03*
X22975464Y-28632755I-242466J-242468D01*
G01*
%TO.N,/phy/RX3_N*%
X23475836Y-29748828D02*
X23783686Y-29440977D01*
%TO.N,/phy/RX3_P*%
X29201286Y-31481647D02*
X29127287Y-31555643D01*
X29046467Y-31636467D02*
X28962357Y-31720576D01*
X28962358Y-31882219D02*
G75*
G02*
X28962358Y-31720577I80820J80821D01*
G01*
X23799126Y-30233761D02*
G75*
G02*
X23799127Y-30072118I80823J80821D01*
G01*
X25079285Y-30251640D02*
X25955346Y-31127700D01*
X29201287Y-31320004D02*
G75*
G03*
X29039644Y-31320003I-80822J-80822D01*
G01*
%TO.N,/phy/RX3_N*%
X22652175Y-28309465D02*
G75*
G03*
X22652175Y-28147823I-80820J80821D01*
G01*
%TO.N,/phy/RX3_P*%
X23314192Y-29587182D02*
G75*
G02*
X23152549Y-29587183I-80822J80822D01*
G01*
X29127287Y-31555643D02*
X29046465Y-31636465D01*
X22667614Y-28940606D02*
X22975464Y-28632755D01*
X24106975Y-29279332D02*
X24106976Y-29279333D01*
X29288931Y-31878934D02*
G75*
G03*
X29127289Y-31878934I-80821J-80820D01*
G01*
X22505970Y-28940605D02*
G75*
G02*
X22505971Y-28778962I80823J80821D01*
G01*
X24753553Y-29925910D02*
G75*
G03*
X24268620Y-29925911I-242466J-242468D01*
G01*
%TO.N,/phy/RX3_N*%
X23298753Y-28956043D02*
G75*
G03*
X23298753Y-28794401I-80820J80821D01*
G01*
%TO.N,/phy/RX3_P*%
X28965644Y-31394000D02*
X29039643Y-31320002D01*
%TO.N,/phy/RX3_N*%
X24591909Y-30087555D02*
X24591911Y-30087556D01*
%TO.N,/phy/RX3_P*%
X24106977Y-29764267D02*
G75*
G03*
X24106977Y-29279333I-242467J242467D01*
G01*
X22813821Y-28471111D02*
G75*
G03*
X22813821Y-27986177I-242467J242467D01*
G01*
X24106975Y-29279332D02*
G75*
G03*
X23622042Y-29279333I-242466J-242468D01*
G01*
%TO.N,/phy/RX3_N*%
X22344324Y-29102249D02*
G75*
G02*
X22344325Y-28617316I242468J242466D01*
G01*
%TO.N,/phy/RX3_P*%
X22362000Y-26242000D02*
X22362000Y-26912000D01*
X28965644Y-31393998D02*
G75*
G02*
X28804001Y-31393999I-80822J80822D01*
G01*
X24106976Y-29279333D02*
X24106977Y-29279333D01*
X22505969Y-28940606D02*
X22505970Y-28940606D01*
X24753553Y-29925910D02*
X24753554Y-29925911D01*
X29201285Y-31481646D02*
G75*
G03*
X29201286Y-31320003I-80822J80822D01*
G01*
X29124002Y-31882220D02*
X29124001Y-31882221D01*
%TO.N,/phy/RX3_N*%
X24122414Y-30395406D02*
X24430264Y-30087555D01*
%TO.N,/phy/RX3_P*%
X23460399Y-29117689D02*
G75*
G03*
X23460399Y-28632755I-242467J242467D01*
G01*
X22276300Y-26997700D02*
X22276299Y-27448655D01*
X23152548Y-29587183D02*
G75*
G02*
X23152549Y-29425540I80823J80821D01*
G01*
X29124001Y-31882219D02*
G75*
G02*
X28962358Y-31882220I-80822J80822D01*
G01*
X23799125Y-30233762D02*
X23799126Y-30233762D01*
X22362000Y-26912000D02*
X22276300Y-26997700D01*
X24106977Y-29764267D02*
X23799126Y-30072117D01*
X23960770Y-30233760D02*
G75*
G02*
X23799127Y-30233761I-80822J80822D01*
G01*
X23314193Y-29587183D02*
X23314192Y-29587184D01*
%TO.N,/phy/RX3_N*%
X23298752Y-28794399D02*
G75*
G03*
X23137109Y-28794400I-80821J-80823D01*
G01*
%TO.N,/phy/RX3_P*%
X22813821Y-28471111D02*
X22505970Y-28778961D01*
X22276299Y-27448655D02*
X22813821Y-27986177D01*
X23960770Y-30233762D02*
X24268620Y-29925911D01*
X22667615Y-28940605D02*
X22667614Y-28940606D01*
X25955346Y-31127700D02*
X28537700Y-31127700D01*
X23460397Y-28632754D02*
X23460398Y-28632755D01*
%TO.N,/phy/RX3_N*%
X22344324Y-29102249D02*
X22344325Y-29102250D01*
%TO.N,/phy/RX3_P*%
X23460398Y-28632755D02*
X23460399Y-28632755D01*
X23460399Y-29117689D02*
X23152548Y-29425539D01*
%TO.N,/phy/RX3_N*%
X23637480Y-30395405D02*
G75*
G02*
X23637481Y-29910472I242468J242466D01*
G01*
%TO.N,/phy/RX3_P*%
X28965645Y-31393999D02*
X28965644Y-31394000D01*
X22667614Y-28940604D02*
G75*
G02*
X22505971Y-28940605I-80822J80822D01*
G01*
%TO.N,/phy/RX3_N*%
X23945331Y-29440977D02*
X23945332Y-29440978D01*
%TO.N,/phy/RX3_P*%
X23152547Y-29587184D02*
X23152548Y-29587184D01*
%TO.N,/phy/RX3_N*%
X23945331Y-29602621D02*
G75*
G03*
X23945331Y-29440979I-80820J80821D01*
G01*
%TO.N,/phy/RX3_P*%
X23314192Y-29587184D02*
X23622042Y-29279333D01*
X24753554Y-29925911D02*
X25079285Y-30251640D01*
%TO.N,/phy/RX3_N*%
X25860654Y-31356300D02*
X28443010Y-31356300D01*
%TO.N,/phy/RX3_P*%
X23960771Y-30233761D02*
X23960770Y-30233762D01*
X28537700Y-31127700D02*
X28804000Y-31394000D01*
X29201288Y-31320003D02*
X29201287Y-31320002D01*
X29046465Y-31636465D02*
X29046467Y-31636467D01*
X28962357Y-31882220D02*
X28962357Y-31882221D01*
%TO.N,/phy/RX3_N*%
X24591908Y-30087555D02*
G75*
G03*
X24430265Y-30087556I-80821J-80823D01*
G01*
%TO.N,/phy/RX3_P*%
X29124001Y-31882221D02*
X29127288Y-31878933D01*
X29288932Y-31878933D02*
X29890000Y-32480000D01*
%TO.N,/phy/RX3_N*%
X22829258Y-29102249D02*
G75*
G02*
X22344325Y-29102250I-242467J242467D01*
G01*
X22990902Y-29748827D02*
G75*
G02*
X22990903Y-29263894I242468J242466D01*
G01*
X23298753Y-28794399D02*
X23298754Y-28794400D01*
X28620000Y-31533290D02*
X28620000Y-33750000D01*
X23475836Y-29748827D02*
G75*
G02*
X22990903Y-29748828I-242467J242467D01*
G01*
X23945330Y-29440977D02*
G75*
G03*
X23783687Y-29440978I-80821J-80823D01*
G01*
X24122414Y-30395405D02*
G75*
G02*
X23637481Y-30395406I-242467J242467D01*
G01*
X21962000Y-26242000D02*
X21962000Y-26912000D01*
X21962000Y-26912000D02*
X22047700Y-26997700D01*
X24591911Y-30087556D02*
X24917640Y-30413286D01*
X22047700Y-26997700D02*
X22047700Y-27543346D01*
X22047700Y-27543346D02*
X22652176Y-28147822D01*
X22652176Y-28309466D02*
X22344325Y-28617316D01*
X22829258Y-29102249D02*
X22829258Y-29102250D01*
X23945332Y-29602622D02*
X23637481Y-29910472D01*
X22829258Y-29102250D02*
X23137108Y-28794399D01*
X23298753Y-28794398D02*
X23298753Y-28794399D01*
X23298754Y-28956044D02*
X22990903Y-29263894D01*
X22990902Y-29748827D02*
X22990903Y-29748828D01*
X23475836Y-29748827D02*
X23475836Y-29748828D01*
X23945331Y-29440976D02*
X23945331Y-29440977D01*
X23637480Y-30395405D02*
X23637481Y-30395406D01*
X24122414Y-30395405D02*
X24122414Y-30395406D01*
X24591909Y-30087554D02*
X24591909Y-30087555D01*
X24917640Y-30413286D02*
X25860654Y-31356300D01*
X28443010Y-31356300D02*
X28620000Y-31533290D01*
%TO.N,/phy/RX4_P*%
X14465300Y-34518600D02*
G75*
G03*
X14325600Y-34658300I-1J-139699D01*
G01*
%TO.N,/phy/RX4_N*%
X15125700Y-31127700D02*
X15125700Y-24590654D01*
%TO.N,/phy/RX4_P*%
X15354300Y-32708880D02*
X15354300Y-32452753D01*
X17792000Y-23142000D02*
X18462000Y-23142000D01*
X14989224Y-31778624D02*
G75*
G02*
X15354300Y-32143700I1J-365075D01*
G01*
X15354300Y-34150300D02*
G75*
G02*
X14986000Y-34518600I-368301J1D01*
G01*
X14986000Y-34798000D02*
X14465300Y-34798000D01*
X15354300Y-31127700D02*
X15354300Y-24685346D01*
X14986000Y-34798000D02*
G75*
G02*
X15354300Y-35166300I-1J-368301D01*
G01*
%TO.N,/phy/RX4_N*%
X15125700Y-34150300D02*
X15125700Y-33724880D01*
%TO.N,/phy/RX4_P*%
X14465300Y-33077180D02*
G75*
G03*
X14325600Y-33216880I-1J-139699D01*
G01*
X15354300Y-24685346D02*
X16983346Y-23056300D01*
X14874924Y-31499224D02*
G75*
G03*
X14738448Y-31635700I0J-136476D01*
G01*
X14919346Y-40360300D02*
X15354300Y-39925346D01*
X14989224Y-31778624D02*
X14874924Y-31778624D01*
X14193700Y-40360300D02*
X14919346Y-40360300D01*
X15354300Y-31134148D02*
G75*
G02*
X14989224Y-31499224I-365075J-1D01*
G01*
X15354300Y-39925346D02*
X15354300Y-35166300D01*
X15354300Y-32708880D02*
G75*
G02*
X14986000Y-33077180I-368301J1D01*
G01*
%TO.N,/phy/RX4_N*%
X14824654Y-40131700D02*
X15125700Y-39830654D01*
%TO.N,/phy/RX4_P*%
X14465300Y-34518600D02*
X14986000Y-34518600D01*
X14738448Y-31642148D02*
G75*
G03*
X14874924Y-31778624I136476J0D01*
G01*
X15354300Y-34150300D02*
X15354300Y-33724880D01*
%TO.N,/phy/RX4_N*%
X15125700Y-32708880D02*
G75*
G02*
X14986000Y-32848580I-139699J-1D01*
G01*
%TO.N,/phy/RX4_P*%
X14465300Y-33077180D02*
X14986000Y-33077180D01*
X14986000Y-33356580D02*
G75*
G02*
X15354300Y-33724880I-1J-368301D01*
G01*
X14874924Y-31499224D02*
X14989224Y-31499224D01*
X15354300Y-31134148D02*
X15354300Y-31127700D01*
X14738448Y-31642148D02*
X14738448Y-31635700D01*
%TO.N,/phy/RX4_N*%
X17792000Y-22742000D02*
X18462000Y-22742000D01*
%TO.N,/phy/RX4_P*%
X16983346Y-23056300D02*
X17706300Y-23056300D01*
%TO.N,/phy/RX4_N*%
X14986000Y-33585180D02*
G75*
G02*
X15125700Y-33724880I1J-139699D01*
G01*
%TO.N,/phy/RX4_P*%
X17706300Y-23056300D02*
X17792000Y-23142000D01*
%TO.N,/phy/RX4_N*%
X14986000Y-35026600D02*
G75*
G02*
X15125700Y-35166300I1J-139699D01*
G01*
%TO.N,/phy/RX4_P*%
X14325600Y-33216880D02*
G75*
G03*
X14465300Y-33356580I139699J-1D01*
G01*
%TO.N,/phy/RX4_N*%
X14097000Y-34658300D02*
G75*
G03*
X14465300Y-35026600I368301J1D01*
G01*
%TO.N,/phy/RX4_P*%
X15354300Y-32452753D02*
X15354300Y-32143700D01*
%TO.N,/phy/RX4_N*%
X14465300Y-34290000D02*
G75*
G03*
X14097000Y-34658300I1J-368301D01*
G01*
X15125700Y-34150300D02*
G75*
G02*
X14986000Y-34290000I-139699J-1D01*
G01*
X14986000Y-35026600D02*
X14465300Y-35026600D01*
X14097000Y-33216880D02*
G75*
G03*
X14465300Y-33585180I368301J1D01*
G01*
X14465300Y-32848580D02*
G75*
G03*
X14097000Y-33216880I1J-368301D01*
G01*
X14989224Y-32007224D02*
G75*
G02*
X15125700Y-32143700I0J-136476D01*
G01*
X14509848Y-31642148D02*
G75*
G03*
X14874924Y-32007224I365075J-1D01*
G01*
X14013000Y-39951000D02*
X14193700Y-40131700D01*
%TO.N,/phy/RX4_P*%
X13958000Y-40596000D02*
X14193700Y-40360300D01*
%TO.N,/phy/RX4_N*%
X14874924Y-31270624D02*
G75*
G03*
X14509848Y-31635700I-1J-365075D01*
G01*
%TO.N,/phy/RX4_P*%
X14986000Y-33356580D02*
X14465300Y-33356580D01*
%TO.N,/phy/RX4_N*%
X15125700Y-31134148D02*
G75*
G02*
X14989224Y-31270624I-136476J0D01*
G01*
%TO.N,/phy/RX4_P*%
X14325600Y-34658300D02*
G75*
G03*
X14465300Y-34798000I139699J-1D01*
G01*
%TO.N,/phy/RX4_N*%
X14193700Y-40131700D02*
X14824654Y-40131700D01*
X15125700Y-39830654D02*
X15125700Y-35166300D01*
X14465300Y-34290000D02*
X14986000Y-34290000D01*
X14986000Y-33585180D02*
X14465300Y-33585180D01*
X14465300Y-32848580D02*
X14986000Y-32848580D01*
X15125700Y-32708880D02*
X15125700Y-32452753D01*
X15125700Y-32452753D02*
X15125700Y-32143700D01*
X14989224Y-32007224D02*
X14874924Y-32007224D01*
X14509848Y-31642148D02*
X14509848Y-31635700D01*
X14874924Y-31270624D02*
X14989224Y-31270624D01*
X15125700Y-31134148D02*
X15125700Y-31127700D01*
X15125700Y-24590654D02*
X16888654Y-22827700D01*
X16888654Y-22827700D02*
X17706300Y-22827700D01*
X17706300Y-22827700D02*
X17792000Y-22742000D01*
%TO.N,/phy/RX1_P*%
X43548000Y-24295400D02*
G75*
G03*
X43662300Y-24409700I114301J1D01*
G01*
X42024000Y-24136093D02*
G75*
G02*
X42392300Y-23767793I368301J-1D01*
G01*
X41180178Y-24409700D02*
X40960654Y-24409700D01*
%TO.N,/phy/RX1_N*%
X41516000Y-24911907D02*
G75*
G03*
X41884300Y-25280207I368301J1D01*
G01*
%TO.N,/phy/RX1_P*%
X43433700Y-24161094D02*
G75*
G02*
X43548000Y-24275394I-1J-114301D01*
G01*
%TO.N,/phy/RX1_N*%
X42392300Y-23996393D02*
G75*
G02*
X42532000Y-24136093I1J-139699D01*
G01*
%TO.N,/phy/RX1_P*%
X43319400Y-24275394D02*
G75*
G02*
X43433700Y-24161094I114301J-1D01*
G01*
X42760600Y-24270000D02*
G75*
G03*
X42900300Y-24409700I139699J-1D01*
G01*
X42392300Y-23767793D02*
G75*
G02*
X42760600Y-24136093I-1J-368301D01*
G01*
X43972300Y-24409700D02*
X43662300Y-24409700D01*
X43319400Y-24275394D02*
X43319400Y-24295400D01*
X43548000Y-24295400D02*
X43548000Y-24275394D01*
X43205100Y-24409700D02*
G75*
G03*
X43319400Y-24295400I-1J114301D01*
G01*
X41884300Y-25051607D02*
G75*
G03*
X42024000Y-24911907I1J139699D01*
G01*
%TO.N,/phy/RX1_N*%
X30847700Y-26997700D02*
X30762000Y-26912000D01*
%TO.N,/phy/RX1_P*%
X43205100Y-24409700D02*
X43155100Y-24409700D01*
X40017700Y-27003654D02*
X38941654Y-28079700D01*
X42024000Y-24136093D02*
X42024000Y-24270000D01*
X41376300Y-24409700D02*
G75*
G02*
X41744600Y-24778000I-1J-368301D01*
G01*
X42760600Y-24270000D02*
X42760600Y-24136093D01*
X31076300Y-26997700D02*
X31162000Y-26912000D01*
X41376300Y-24409700D02*
X41180178Y-24409700D01*
X40960654Y-24409700D02*
X40017700Y-25352654D01*
%TO.N,/phy/RX1_N*%
X39036346Y-28308300D02*
X31956654Y-28308300D01*
%TO.N,/phy/RX1_P*%
X32051346Y-28079700D02*
X31076300Y-27104654D01*
X40017700Y-25352654D02*
X40017700Y-27003654D01*
%TO.N,/phy/RX1_N*%
X42532000Y-24270000D02*
X42532000Y-24136093D01*
%TO.N,/phy/RX1_P*%
X31076300Y-27104654D02*
X31076300Y-26997700D01*
%TO.N,/phy/RX1_N*%
X42252600Y-24136093D02*
G75*
G02*
X42392300Y-23996393I139699J1D01*
G01*
X30762000Y-26912000D02*
X30762000Y-26242000D01*
X41376300Y-24638300D02*
X41180178Y-24638300D01*
%TO.N,/phy/RX1_P*%
X38941654Y-28079700D02*
X32051346Y-28079700D01*
X43155100Y-24409700D02*
X42900300Y-24409700D01*
X31162000Y-26912000D02*
X31162000Y-26242000D01*
%TO.N,/phy/RX1_N*%
X42532000Y-24270000D02*
G75*
G03*
X42900300Y-24638300I368301J1D01*
G01*
X41884300Y-25280207D02*
G75*
G03*
X42252600Y-24911907I-1J368301D01*
G01*
%TO.N,/phy/RX1_P*%
X41744600Y-24911907D02*
X41744600Y-24778000D01*
%TO.N,/phy/RX1_N*%
X41376300Y-24638300D02*
G75*
G02*
X41516000Y-24778000I1J-139699D01*
G01*
%TO.N,/phy/RX1_P*%
X41744600Y-24911907D02*
G75*
G03*
X41884300Y-25051607I139699J-1D01*
G01*
%TO.N,/phy/RX1_N*%
X44153000Y-24819000D02*
X43972300Y-24638300D01*
X43972300Y-24638300D02*
X42900300Y-24638300D01*
%TO.N,/phy/RX1_P*%
X42024000Y-24270000D02*
X42024000Y-24911907D01*
%TO.N,/phy/RX1_N*%
X42252600Y-24136093D02*
X42252600Y-24270000D01*
X42252600Y-24270000D02*
X42252600Y-24911907D01*
X41180178Y-24638300D02*
X41055346Y-24638300D01*
X41055346Y-24638300D02*
X40246300Y-25447346D01*
X41516000Y-24911907D02*
X41516000Y-24778000D01*
%TO.N,/phy/RX1_P*%
X44208000Y-24174000D02*
X43972300Y-24409700D01*
%TO.N,/phy/RX1_N*%
X40246300Y-25447346D02*
X40246300Y-27098346D01*
X40246300Y-27098346D02*
X39036346Y-28308300D01*
X30847700Y-27199346D02*
X30847700Y-26997700D01*
X31956654Y-28308300D02*
X30847700Y-27199346D01*
%TO.N,/phy/TX1_P*%
X43548000Y-19215400D02*
G75*
G03*
X43662300Y-19329700I114301J1D01*
G01*
X38560654Y-27317700D02*
X32573444Y-27317700D01*
X43319400Y-19195394D02*
G75*
G02*
X43433700Y-19081094I114301J-1D01*
G01*
X32276300Y-27020556D02*
X32276300Y-26997700D01*
X32276300Y-26997700D02*
X32362000Y-26912000D01*
X44208000Y-19094000D02*
X43972300Y-19329700D01*
X41976654Y-19329700D02*
X39128700Y-22177654D01*
X43205100Y-19329700D02*
G75*
G03*
X43319400Y-19215400I-1J114301D01*
G01*
X32362000Y-26912000D02*
X32362000Y-26242000D01*
X43433700Y-19081094D02*
G75*
G02*
X43548000Y-19195394I-1J-114301D01*
G01*
X43972300Y-19329700D02*
X43662300Y-19329700D01*
X43548000Y-19215400D02*
X43548000Y-19195394D01*
X43205100Y-19329700D02*
X43155100Y-19329700D01*
X43155100Y-19329700D02*
X41976654Y-19329700D01*
X43319400Y-19195394D02*
X43319400Y-19215400D01*
X39128700Y-22177654D02*
X39128700Y-26749654D01*
X32573444Y-27317700D02*
X32276300Y-27020556D01*
X39128700Y-26749654D02*
X38560654Y-27317700D01*
%TO.N,/phy/TX2_P*%
X27962000Y-26242000D02*
X27962000Y-27397001D01*
X47545346Y-31127700D02*
X50339346Y-31127700D01*
X27876300Y-27714654D02*
X29003346Y-28841700D01*
X27962000Y-27397001D02*
X27876300Y-27482701D01*
X27876300Y-27482701D02*
X27876300Y-27714654D01*
X29003346Y-28841700D02*
X45259346Y-28841700D01*
X45259346Y-28841700D02*
X47545346Y-31127700D01*
X50914300Y-31702654D02*
X50914300Y-32497345D01*
X50339346Y-31127700D02*
X50914300Y-31702654D01*
X50914300Y-32497345D02*
X50770000Y-32641645D01*
X50770000Y-32641645D02*
X50770000Y-33750000D01*
%TO.N,/phy/TX2_N*%
X50589297Y-31960703D02*
G75*
G03*
X50685700Y-31864300I-1J96404D01*
G01*
X27647700Y-27809346D02*
X28908654Y-29070300D01*
X50492893Y-32057106D02*
G75*
G02*
X50589296Y-31960703I96404J-1D01*
G01*
X28908654Y-29070300D02*
X45164654Y-29070300D01*
X50685700Y-32285706D02*
G75*
G03*
X50589297Y-32189303I-96404J-1D01*
G01*
X27562000Y-26242000D02*
X27562000Y-27397001D01*
X50589297Y-31960703D02*
X50589296Y-31960703D01*
X27647700Y-27482701D02*
X27647700Y-27809346D01*
X47450654Y-31356300D02*
X50244654Y-31356300D01*
X50589296Y-32189303D02*
G75*
G02*
X50492893Y-32092900I1J96404D01*
G01*
X27562000Y-27397001D02*
X27647700Y-27482701D01*
X50685700Y-32402655D02*
X50608355Y-32480000D01*
X45164654Y-29070300D02*
X47450654Y-31356300D01*
X50589296Y-32189303D02*
X50589297Y-32189303D01*
X50244654Y-31356300D02*
X50685700Y-31797346D01*
X50685700Y-31797346D02*
X50685700Y-31864300D01*
X50492893Y-32057106D02*
X50492893Y-32092900D01*
X50685700Y-32285706D02*
X50685700Y-32321500D01*
X50685700Y-32321500D02*
X50685700Y-32402655D01*
X50608355Y-32480000D02*
X49500000Y-32480000D01*
%TO.N,/phy/TX3_N*%
X31610300Y-30832192D02*
G75*
G02*
X31496000Y-30717892I1J114301D01*
G01*
X32639000Y-30717892D02*
G75*
G02*
X32524700Y-30832192I-114301J1D01*
G01*
X31953200Y-30708600D02*
G75*
G03*
X31838900Y-30594300I-114301J-1D01*
G01*
X33471399Y-31438601D02*
X32430000Y-32480000D01*
X32639000Y-30717892D02*
X32639000Y-30708600D01*
X31838900Y-30594300D02*
G75*
G03*
X31724600Y-30708600I1J-114301D01*
G01*
X31953200Y-30708600D02*
X31953200Y-30717892D01*
X31724600Y-30717892D02*
G75*
G02*
X31610300Y-30832192I-114301J1D01*
G01*
X32181800Y-30717892D02*
G75*
G02*
X32067500Y-30832192I-114301J1D01*
G01*
X33471399Y-31093045D02*
X33471399Y-31438601D01*
X22762000Y-26912000D02*
X22847700Y-26997700D01*
X32067500Y-30832192D02*
G75*
G02*
X31953200Y-30717892I1J114301D01*
G01*
X32296100Y-30594300D02*
G75*
G03*
X32181800Y-30708600I1J-114301D01*
G01*
X32410400Y-30708600D02*
G75*
G03*
X32296100Y-30594300I-114301J-1D01*
G01*
X32524700Y-30832192D02*
G75*
G02*
X32410400Y-30717892I1J114301D01*
G01*
X32753300Y-30594300D02*
G75*
G03*
X32639000Y-30708600I1J-114301D01*
G01*
X22762000Y-26242000D02*
X22762000Y-26912000D01*
X32181800Y-30717892D02*
X32181800Y-30708600D01*
X31496000Y-30708600D02*
G75*
G03*
X31381700Y-30594300I-114301J-1D01*
G01*
X31724600Y-30717892D02*
X31724600Y-30708600D01*
X32803300Y-30594300D02*
X32972654Y-30594300D01*
X22847700Y-27327346D02*
X26114654Y-30594300D01*
X26114654Y-30594300D02*
X31381700Y-30594300D01*
X31496000Y-30708600D02*
X31496000Y-30717892D01*
X32410400Y-30708600D02*
X32410400Y-30717892D01*
X22847700Y-26997700D02*
X22847700Y-27327346D01*
X32753300Y-30594300D02*
X32803300Y-30594300D01*
X32972654Y-30594300D02*
X33471399Y-31093045D01*
%TO.N,/phy/TX3_P*%
X23076300Y-26997700D02*
X23076300Y-27232654D01*
X33700000Y-30998354D02*
X33700000Y-33750000D01*
X23162000Y-26912000D02*
X23076300Y-26997700D01*
X23076300Y-27232654D02*
X26209346Y-30365700D01*
X23162000Y-26242000D02*
X23162000Y-26912000D01*
X26209346Y-30365700D02*
X33067346Y-30365700D01*
X33067346Y-30365700D02*
X33700000Y-30998354D01*
D43*
%TO.N,Net-(R10-Pad1)*%
X44178000Y-16277500D02*
X43201500Y-16277500D01*
X43201500Y-16277500D02*
X43180000Y-16256000D01*
X44178000Y-16662500D02*
X44178000Y-16277500D01*
D44*
%TO.N,Net-(J7-Pad2)*%
X26416000Y-8380000D02*
X26291000Y-8255000D01*
X26291000Y-8255000D02*
X16935000Y-8255000D01*
X16935000Y-8255000D02*
X15030000Y-6350000D01*
%TO.N,/config/nRST_SWITCH*%
X35814000Y-8255000D02*
X35814000Y-9144000D01*
X35814000Y-9144000D02*
X33655000Y-11303000D01*
X33655000Y-11303000D02*
X32823000Y-11303000D01*
X32823000Y-11303000D02*
X32362000Y-10842000D01*
D41*
%TO.N,/config/SYNC*%
X29962000Y-10842000D02*
X29962000Y-11801000D01*
X30226000Y-12065000D02*
X32639000Y-12065000D01*
X33909000Y-11811000D02*
X35814000Y-9906000D01*
X29962000Y-11801000D02*
X30226000Y-12065000D01*
X32639000Y-12065000D02*
X32893000Y-11811000D01*
X32893000Y-11811000D02*
X33909000Y-11811000D01*
D43*
%TO.N,GND*%
X49784000Y-3942500D02*
X49784000Y-5080000D01*
D41*
X35179000Y-17018000D02*
X35179000Y-16510000D01*
D43*
X36280000Y-21815000D02*
X36055000Y-21590000D01*
D41*
X33862000Y-17142000D02*
X35055000Y-17142000D01*
X35179000Y-16510000D02*
X35011000Y-16342000D01*
X18462000Y-19142000D02*
X19339000Y-19142000D01*
D43*
X37380000Y-24576000D02*
X37380000Y-25937000D01*
D41*
X33106000Y-16342000D02*
X33020000Y-16256000D01*
X19939000Y-18542000D02*
X21082000Y-18542000D01*
X24762000Y-10842000D02*
X24762000Y-13459000D01*
D43*
X36280000Y-23176000D02*
X36280000Y-21815000D01*
X37380000Y-25937000D02*
X37605000Y-26162000D01*
D41*
X24762000Y-13459000D02*
X24765000Y-13462000D01*
D44*
X21562000Y-10842000D02*
X21562000Y-9624000D01*
D41*
X19339000Y-19142000D02*
X19939000Y-18542000D01*
X33862000Y-16342000D02*
X33106000Y-16342000D01*
X35055000Y-17142000D02*
X35179000Y-17018000D01*
X35011000Y-16342000D02*
X33862000Y-16342000D01*
D44*
X21562000Y-9624000D02*
X21336000Y-9398000D01*
D41*
X33020000Y-16256000D02*
X31242000Y-16256000D01*
%TO.N,+1V2*%
X20362000Y-11980000D02*
X20447000Y-12065000D01*
X21962000Y-12045128D02*
X21976436Y-12059564D01*
X19340422Y-19939000D02*
X18465000Y-19939000D01*
X19685000Y-19594422D02*
X19340422Y-19939000D01*
X27559000Y-12065000D02*
X27559000Y-10845000D01*
X19685000Y-19558000D02*
X19685000Y-19594422D01*
X22743000Y-12065000D02*
X22362000Y-11684000D01*
X28762000Y-11624000D02*
X28762000Y-10842000D01*
X32639000Y-16764000D02*
X32639000Y-17272000D01*
X18462000Y-21542000D02*
X19637000Y-21542000D01*
X32639000Y-17272000D02*
X32909000Y-17542000D01*
X27162000Y-25035000D02*
X27178000Y-25019000D01*
X20362000Y-10842000D02*
X20362000Y-11980000D01*
X19637000Y-21542000D02*
X19685000Y-21590000D01*
X25162000Y-25035000D02*
X25146000Y-25019000D01*
X19384000Y-23542000D02*
X18462000Y-23542000D01*
X27162000Y-26242000D02*
X27162000Y-25035000D01*
X25162000Y-26242000D02*
X25162000Y-25035000D01*
X30226000Y-25019000D02*
X31369000Y-25019000D01*
X33862000Y-23142000D02*
X32667000Y-23142000D01*
X18462000Y-15542000D02*
X19637000Y-15542000D01*
X21962000Y-10842000D02*
X21962000Y-12045128D01*
X28321000Y-12065000D02*
X28762000Y-11624000D01*
X32909000Y-17542000D02*
X33862000Y-17542000D01*
X32639000Y-19939000D02*
X32639000Y-20892200D01*
X32639000Y-15494000D02*
X32991000Y-15142000D01*
X33862000Y-19142000D02*
X32985000Y-19142000D01*
X28194000Y-25019000D02*
X28362000Y-25187000D01*
X32991000Y-15142000D02*
X33862000Y-15142000D01*
X28362000Y-25187000D02*
X28362000Y-26242000D01*
X19685000Y-23241000D02*
X19384000Y-23542000D01*
X19685000Y-22606000D02*
X19685000Y-23241000D01*
X32667000Y-23142000D02*
X32639000Y-23114000D01*
X23562000Y-25340000D02*
X23241000Y-25019000D01*
X32888800Y-21142000D02*
X33862000Y-21142000D01*
X31562000Y-25212000D02*
X31562000Y-26242000D01*
X23622000Y-12065000D02*
X22743000Y-12065000D01*
X19637000Y-15542000D02*
X19685000Y-15494000D01*
X20762000Y-25212000D02*
X20955000Y-25019000D01*
X32639000Y-20892200D02*
X32888800Y-21142000D01*
X18465000Y-19939000D02*
X18462000Y-19942000D01*
X27559000Y-10845000D02*
X27562000Y-10842000D01*
X32985000Y-19142000D02*
X32512000Y-18669000D01*
X23562000Y-26242000D02*
X23562000Y-25340000D01*
X31369000Y-25019000D02*
X31562000Y-25212000D01*
X22362000Y-11684000D02*
X22362000Y-10842000D01*
X20762000Y-26242000D02*
X20762000Y-25212000D01*
%TO.N,+2V5*%
X19453000Y-20342000D02*
X19685000Y-20574000D01*
X35179000Y-44069000D02*
X35179000Y-31242000D01*
X18462000Y-24742000D02*
X19662000Y-24742000D01*
X32756000Y-22342000D02*
X32639000Y-22225000D01*
X35257000Y-51230000D02*
X36265000Y-51230000D01*
X35179000Y-48387000D02*
X35179000Y-44069000D01*
X28762000Y-26242000D02*
X28762000Y-25467000D01*
X28762000Y-25467000D02*
X29210000Y-25019000D01*
X32027000Y-24742000D02*
X33862000Y-24742000D01*
X22888000Y-9398000D02*
X22098000Y-9398000D01*
X35257000Y-51230000D02*
X35252289Y-51225289D01*
X35252289Y-51225289D02*
X35252289Y-48460289D01*
X22762000Y-10842000D02*
X22762000Y-9524000D01*
X32547000Y-17942000D02*
X32512000Y-17907000D01*
X22762000Y-9524000D02*
X22888000Y-9398000D01*
X26924000Y-12065000D02*
X27162000Y-11827000D01*
X23962000Y-26242000D02*
X23962000Y-25187000D01*
X35252289Y-48460289D02*
X35179000Y-48387000D01*
X32004000Y-24765000D02*
X32027000Y-24742000D01*
X26162000Y-12065000D02*
X26924000Y-12065000D01*
X23962000Y-25187000D02*
X24130000Y-25019000D01*
X33862000Y-22342000D02*
X32756000Y-22342000D01*
X33862000Y-17942000D02*
X32547000Y-17942000D01*
X34235000Y-51230000D02*
X35257000Y-51230000D01*
X35179000Y-31242000D02*
X34417000Y-30480000D01*
X18462000Y-20342000D02*
X19453000Y-20342000D01*
X19662000Y-24742000D02*
X19685000Y-24765000D01*
X27162000Y-11827000D02*
X27162000Y-10842000D01*
%TO.N,+3V3*%
X21162000Y-12018000D02*
X21209000Y-12065000D01*
X32959000Y-13142000D02*
X33862000Y-13142000D01*
X19685000Y-13843000D02*
X19384000Y-13542000D01*
X19384000Y-13542000D02*
X18462000Y-13542000D01*
X32639000Y-13462000D02*
X32959000Y-13142000D01*
X21162000Y-10842000D02*
X21162000Y-12018000D01*
X19685000Y-14478000D02*
X19685000Y-13843000D01*
D43*
%TO.N,/config/XI*%
X36280000Y-25937000D02*
X36055000Y-26162000D01*
D41*
X33862000Y-23942000D02*
X35118000Y-23942000D01*
X35752000Y-24576000D02*
X36280000Y-24576000D01*
X35118000Y-23942000D02*
X35752000Y-24576000D01*
D43*
X36280000Y-24576000D02*
X36280000Y-25937000D01*
%TO.N,/config/XO*%
X37380000Y-21815000D02*
X37605000Y-21590000D01*
X37380000Y-23176000D02*
X37380000Y-21815000D01*
D41*
X35750500Y-23876000D02*
X35416500Y-23542000D01*
X37380000Y-23176000D02*
X37380000Y-23326000D01*
X35416500Y-23542000D02*
X33862000Y-23542000D01*
X37380000Y-23326000D02*
X36830000Y-23876000D01*
X36830000Y-23876000D02*
X35750500Y-23876000D01*
D43*
%TO.N,/power/1V2_PG*%
X5842000Y-31242000D02*
X762000Y-31242000D01*
X7366000Y-29718000D02*
X5842000Y-31242000D01*
D42*
%TO.N,/phy/TX1_N*%
X44153000Y-19739000D02*
X43972300Y-19558300D01*
X32478752Y-27546300D02*
X32047700Y-27115248D01*
X39357300Y-22272346D02*
X39357300Y-26844346D01*
X32047700Y-26997700D02*
X31962000Y-26912000D01*
X39357300Y-26844346D02*
X38655346Y-27546300D01*
X43972300Y-19558300D02*
X42071346Y-19558300D01*
X42071346Y-19558300D02*
X39357300Y-22272346D01*
X31962000Y-26912000D02*
X31962000Y-26242000D01*
X38655346Y-27546300D02*
X32478752Y-27546300D01*
X32047700Y-27115248D02*
X32047700Y-26997700D01*
%TO.N,/phy/TX4_P*%
X17706300Y-24256300D02*
X17792000Y-24342000D01*
X14193700Y-45440300D02*
X15173346Y-45440300D01*
X13958000Y-45676000D02*
X14193700Y-45440300D01*
X16370300Y-44243346D02*
X16370300Y-24685346D01*
X16799346Y-24256300D02*
X17706300Y-24256300D01*
X17792000Y-24342000D02*
X18462000Y-24342000D01*
X15173346Y-45440300D02*
X16370300Y-44243346D01*
X16370300Y-24685346D02*
X16799346Y-24256300D01*
%TO.N,/phy/TX4_N*%
X16141700Y-44148654D02*
X16141700Y-24590654D01*
X16141700Y-24590654D02*
X16704654Y-24027700D01*
X14193700Y-45211700D02*
X15078654Y-45211700D01*
X16704654Y-24027700D02*
X17706300Y-24027700D01*
X14013000Y-45031000D02*
X14193700Y-45211700D01*
X17792000Y-23942000D02*
X18462000Y-23942000D01*
X15078654Y-45211700D02*
X16141700Y-44148654D01*
X17706300Y-24027700D02*
X17792000Y-23942000D01*
D43*
%TO.N,/power/2V5_PG*%
X6096000Y-19812000D02*
X2286000Y-19812000D01*
X7366000Y-21082000D02*
X6096000Y-19812000D01*
%TO.N,/power/1V2_EN*%
X5842000Y-30226000D02*
X7366000Y-28702000D01*
X762000Y-30226000D02*
X5842000Y-30226000D01*
%TO.N,/power/2V5_EN*%
X2286000Y-20828000D02*
X5842000Y-20828000D01*
X5842000Y-20828000D02*
X7366000Y-22352000D01*
%TO.N,/power/3V3_PG*%
X1270000Y-17526000D02*
X5842000Y-12954000D01*
D41*
%TO.N,Net-(R24-Pad1)*%
X35179000Y-24765000D02*
X35179000Y-25400000D01*
X33862000Y-24342000D02*
X34756000Y-24342000D01*
X35179000Y-25400000D02*
X34798000Y-25781000D01*
X34756000Y-24342000D02*
X35179000Y-24765000D01*
D42*
%TO.N,/phy/TX5_N*%
X40246300Y-10080346D02*
X41182346Y-9144300D01*
X35353346Y-18656300D02*
X40246300Y-13763346D01*
X41182346Y-9144300D02*
X43972300Y-9144300D01*
X34532000Y-18742000D02*
X34617700Y-18656300D01*
X34617700Y-18656300D02*
X35353346Y-18656300D01*
X33862000Y-18742000D02*
X34532000Y-18742000D01*
X40246300Y-13763346D02*
X40246300Y-10080346D01*
X43972300Y-9144300D02*
X44153000Y-9325000D01*
%TO.N,/phy/TX5_P*%
X35258654Y-18427700D02*
X40017700Y-13668654D01*
X40017700Y-9985654D02*
X41087654Y-8915700D01*
X34532000Y-18342000D02*
X34617700Y-18427700D01*
X40017700Y-13668654D02*
X40017700Y-9985654D01*
X43972300Y-8915700D02*
X44208000Y-8680000D01*
X34617700Y-18427700D02*
X35258654Y-18427700D01*
X33862000Y-18342000D02*
X34532000Y-18342000D01*
X41087654Y-8915700D02*
X43972300Y-8915700D01*
D41*
%TO.N,/config/IBA*%
X20576000Y-9532000D02*
X20576000Y-9398000D01*
X20762000Y-9718000D02*
X20576000Y-9532000D01*
X20762000Y-10842000D02*
X20762000Y-9718000D01*
D42*
%TO.N,/config/LED4_0*%
X26922000Y-9906000D02*
X26416000Y-9400000D01*
X27825222Y-9906000D02*
X26922000Y-9906000D01*
X27962000Y-10842000D02*
X27962000Y-10042778D01*
X27962000Y-10042778D02*
X27825222Y-9906000D01*
%TO.N,/config/LED4_1*%
X27688000Y-9400000D02*
X27432000Y-9400000D01*
X28362000Y-10074000D02*
X27688000Y-9400000D01*
X28362000Y-10842000D02*
X28362000Y-10074000D01*
D44*
%TO.N,/config/LED3_0*%
X29162000Y-11986000D02*
X29162000Y-10842000D01*
X29083000Y-12065000D02*
X29162000Y-11986000D01*
D41*
X18796000Y-43117000D02*
X18796000Y-42164000D01*
%TO.N,/config/LED3_1*%
X34290000Y-45657000D02*
X34290000Y-44704000D01*
D42*
X28954000Y-9906000D02*
X28448000Y-9400000D01*
X28448000Y-9400000D02*
X28448000Y-9398000D01*
X28448000Y-9398000D02*
X28956000Y-8890000D01*
X29523000Y-9906000D02*
X28954000Y-9906000D01*
X29562000Y-10842000D02*
X29562000Y-9945000D01*
X29562000Y-9945000D02*
X29523000Y-9906000D01*
D41*
%TO.N,/config/SYNC*%
X47498000Y-6858000D02*
X46482000Y-5842000D01*
X49008882Y-6217500D02*
X49008882Y-6617118D01*
X48768000Y-6858000D02*
X47498000Y-6858000D01*
X46482000Y-5842000D02*
X43942000Y-5842000D01*
X49008882Y-6617118D02*
X48768000Y-6858000D01*
D42*
%TO.N,/config/LED2_0*%
X30353000Y-10033000D02*
X30226000Y-9906000D01*
X30362000Y-10842000D02*
X30362000Y-10033000D01*
D41*
X36068000Y-45657000D02*
X36068000Y-44704000D01*
D42*
X30362000Y-10033000D02*
X30353000Y-10033000D01*
X30226000Y-9906000D02*
X29970000Y-9906000D01*
X29970000Y-9906000D02*
X29464000Y-9400000D01*
X29464000Y-9398000D02*
X29972000Y-8890000D01*
X29464000Y-9400000D02*
X29464000Y-9398000D01*
%TO.N,/config/LED2_1*%
X30762000Y-9682000D02*
X30480000Y-9400000D01*
X30762000Y-10842000D02*
X30762000Y-9682000D01*
D41*
X52578000Y-42926000D02*
X52387000Y-43117000D01*
D42*
X30480000Y-9398000D02*
X30988000Y-8890000D01*
X30480000Y-9400000D02*
X30480000Y-9398000D01*
D41*
X52387000Y-43117000D02*
X51562000Y-43117000D01*
%TO.N,/config/SPI.SDI*%
X33862000Y-12342000D02*
X34267000Y-12342000D01*
%TO.N,/config/SPI.SDO*%
X39243000Y-4997000D02*
X40430000Y-3810000D01*
X34756000Y-12742000D02*
X39243000Y-8255000D01*
X33862000Y-12742000D02*
X34756000Y-12742000D01*
X39243000Y-8255000D02*
X39243000Y-4997000D01*
%TO.N,/config/SPI.nCS3*%
X34718000Y-13542000D02*
X37084000Y-11176000D01*
X33862000Y-13542000D02*
X34718000Y-13542000D01*
D42*
%TO.N,/config/LED5_1*%
X32625222Y-9906000D02*
X32004000Y-9906000D01*
X31498000Y-9400000D02*
X31496000Y-9400000D01*
X32766000Y-10046778D02*
X32625222Y-9906000D01*
D44*
X34788000Y-14742000D02*
X33862000Y-14742000D01*
D42*
X33147000Y-10795000D02*
X32766000Y-10414000D01*
D44*
X35306000Y-14224000D02*
X34788000Y-14742000D01*
D42*
X32766000Y-10414000D02*
X32766000Y-10046778D01*
X32004000Y-9906000D02*
X31498000Y-9400000D01*
D44*
%TO.N,/config/LED1_0*%
X33862000Y-15542000D02*
X35131000Y-15542000D01*
D42*
X33528000Y-10160000D02*
X33401000Y-10160000D01*
D44*
X35131000Y-15542000D02*
X35814000Y-14859000D01*
D42*
X33401000Y-10160000D02*
X32641000Y-9400000D01*
X32641000Y-9400000D02*
X32512000Y-9400000D01*
%TO.N,/config/LED1_1*%
X34544000Y-9271000D02*
X33657000Y-9271000D01*
D44*
X33862000Y-15942000D02*
X35874000Y-15942000D01*
X35874000Y-15942000D02*
X36322000Y-15494000D01*
D42*
X33657000Y-9271000D02*
X33528000Y-9400000D01*
D43*
%TO.N,Net-(FL3-Pad1)*%
X49583500Y-10622500D02*
X48596000Y-11610000D01*
X48596000Y-11610000D02*
X48243000Y-11610000D01*
%TO.N,/phy/JRX5_P*%
X51508500Y-14777500D02*
X52322500Y-14777500D01*
X52322500Y-14777500D02*
X53130000Y-13970000D01*
%TO.N,Net-(FL4-Pad1)*%
X48596000Y-16690000D02*
X49583500Y-15702500D01*
X48243000Y-16690000D02*
X48596000Y-16690000D01*
%TO.N,Net-(FL6-Pad1)*%
X49230500Y-28402500D02*
X49583500Y-28402500D01*
X48243000Y-27104000D02*
X48243000Y-27415000D01*
X48243000Y-27415000D02*
X49230500Y-28402500D01*
%TO.N,Net-(FL2-Pad1)*%
X9923000Y-37666000D02*
X8611000Y-37666000D01*
X8611000Y-37666000D02*
X8582500Y-37637500D01*
%TO.N,/phy/JRX5_N*%
X52322500Y-15702500D02*
X53130000Y-16510000D01*
X51508500Y-15702500D02*
X52322500Y-15702500D01*
%TO.N,/phy/JTX5_P*%
X51508500Y-9697500D02*
X52322500Y-9697500D01*
X52322500Y-9697500D02*
X53130000Y-8890000D01*
%TO.N,/phy/JTX5_N*%
X51508500Y-10622500D02*
X52322500Y-10622500D01*
X52322500Y-10622500D02*
X53130000Y-11430000D01*
%TO.N,/phy/JRX1_P*%
X52322500Y-27477500D02*
X53130000Y-26670000D01*
X51508500Y-27477500D02*
X52322500Y-27477500D01*
%TO.N,/phy/JRX1_N*%
X51508500Y-28402500D02*
X52322500Y-28402500D01*
X52322500Y-28402500D02*
X53130000Y-29210000D01*
%TO.N,Net-(FL3-Pad4)*%
X49430500Y-9697500D02*
X49583500Y-9697500D01*
X48303000Y-10825000D02*
X49430500Y-9697500D01*
%TO.N,/phy/JTX1_P*%
X52322500Y-22397500D02*
X53130000Y-21590000D01*
X51508500Y-22397500D02*
X52322500Y-22397500D01*
%TO.N,/phy/JTX1_N*%
X51508500Y-23322500D02*
X52322500Y-23322500D01*
X52322500Y-23322500D02*
X53130000Y-24130000D01*
%TO.N,Net-(FL4-Pad4)*%
X48303000Y-15705000D02*
X49276000Y-14732000D01*
X49538000Y-14732000D02*
X49583500Y-14777500D01*
X48303000Y-15905000D02*
X48303000Y-15705000D01*
X49276000Y-14732000D02*
X49538000Y-14732000D01*
%TO.N,Net-(FL5-Pad1)*%
X48243000Y-22335000D02*
X49276000Y-23368000D01*
X49276000Y-23368000D02*
X49538000Y-23368000D01*
X49538000Y-23368000D02*
X49583500Y-23322500D01*
X48243000Y-22024000D02*
X48243000Y-22335000D01*
%TO.N,/phy/JRX4_P*%
X5677493Y-38562500D02*
X4869993Y-39370000D01*
X6657500Y-38562500D02*
X5677493Y-38562500D01*
%TO.N,/phy/JRX4_N*%
X5677493Y-37637500D02*
X4869993Y-36830000D01*
X6657500Y-37637500D02*
X5677493Y-37637500D01*
%TO.N,Net-(FL5-Pad4)*%
X49583500Y-22151500D02*
X48671000Y-21239000D01*
X49583500Y-22397500D02*
X49583500Y-22151500D01*
X48671000Y-21239000D02*
X48303000Y-21239000D01*
%TO.N,/phy/JTX4_P*%
X6657500Y-43642500D02*
X5677493Y-43642500D01*
X5677493Y-43642500D02*
X4869993Y-44450000D01*
%TO.N,/phy/JTX4_N*%
X6657500Y-42717500D02*
X5677493Y-42717500D01*
X5677493Y-42717500D02*
X4869993Y-41910000D01*
%TO.N,/config/SYNC+*%
X51041382Y-3810000D02*
X50908882Y-3942500D01*
X53050882Y-3810000D02*
X51041382Y-3810000D01*
%TO.N,/config/SYNC-*%
X53050882Y-6350000D02*
X51041382Y-6350000D01*
X51041382Y-6350000D02*
X50908882Y-6217500D01*
%TO.N,Net-(C8-Pad2)*%
X47244000Y-11938000D02*
X47244000Y-9804000D01*
X48253000Y-13875000D02*
X48253000Y-12947000D01*
X47332000Y-7874000D02*
X48253000Y-8795000D01*
X48253000Y-12947000D02*
X47244000Y-11938000D01*
X43914000Y-7874000D02*
X47332000Y-7874000D01*
X47244000Y-9804000D02*
X48253000Y-8795000D01*
%TO.N,Net-(C9-Pad2)*%
X47332000Y-18288000D02*
X43914000Y-18288000D01*
X47244000Y-20320000D02*
X47244000Y-22352000D01*
X48253000Y-23361000D02*
X48253000Y-24289000D01*
X47244000Y-22352000D02*
X48253000Y-23361000D01*
X48253000Y-19209000D02*
X48253000Y-19311000D01*
X48253000Y-19209000D02*
X47332000Y-18288000D01*
X48253000Y-19311000D02*
X47244000Y-20320000D01*
%TO.N,Net-(R13-Pad1)*%
X43709500Y-11197500D02*
X43180000Y-10668000D01*
X44178000Y-11197500D02*
X43709500Y-11197500D01*
%TO.N,Net-(R14-Pad1)*%
X44178000Y-21611500D02*
X43709500Y-21611500D01*
X43709500Y-21611500D02*
X42926000Y-20828000D01*
%TO.N,Net-(C7-Pad2)*%
X9913000Y-40481000D02*
X10922000Y-39472000D01*
X9913000Y-45561000D02*
X10319000Y-45561000D01*
X10922000Y-39472000D02*
X10922000Y-36096000D01*
X10922000Y-44958000D02*
X10922000Y-42418000D01*
X9913000Y-41409000D02*
X9913000Y-40481000D01*
X10922000Y-36096000D02*
X11204000Y-35814000D01*
X10922000Y-42418000D02*
X9913000Y-41409000D01*
X10319000Y-45561000D02*
X10922000Y-44958000D01*
%TO.N,Net-(FL1-Pad1)*%
X8611000Y-42746000D02*
X8582500Y-42717500D01*
X9923000Y-42746000D02*
X8611000Y-42746000D01*
%TO.N,Net-(FL1-Pad4)*%
X8694000Y-43531000D02*
X8582500Y-43642500D01*
X9863000Y-43531000D02*
X8694000Y-43531000D01*
%TO.N,Net-(FL2-Pad4)*%
X8694000Y-38451000D02*
X8582500Y-38562500D01*
X9863000Y-38451000D02*
X8694000Y-38451000D01*
%TO.N,Net-(R12-Pad1)*%
X14224000Y-43942000D02*
X14224000Y-43394500D01*
X14224000Y-43394500D02*
X13988000Y-43158500D01*
%TO.N,Net-(FL6-Pad4)*%
X49583500Y-27231500D02*
X48671000Y-26319000D01*
X48671000Y-26319000D02*
X48303000Y-26319000D01*
X49583500Y-27477500D02*
X49583500Y-27231500D01*
D41*
%TO.N,Net-(J3-PadL3B)*%
X34290000Y-47307000D02*
X34235000Y-47362000D01*
X34235000Y-47362000D02*
X34235000Y-49450000D01*
%TO.N,Net-(J3-PadL3A)*%
X51057289Y-45271711D02*
X51562000Y-44767000D01*
X51057289Y-49202289D02*
X51057289Y-45271711D01*
X51305000Y-49450000D02*
X51057289Y-49202289D01*
%TO.N,Net-(J3-PadL1B)*%
X19442711Y-49202289D02*
X19442711Y-45413711D01*
X19195000Y-49450000D02*
X19442711Y-49202289D01*
X19442711Y-45413711D02*
X18796000Y-44767000D01*
%TO.N,Net-(J3-PadL1A)*%
X36265000Y-47504000D02*
X36265000Y-49450000D01*
X36068000Y-47307000D02*
X36265000Y-47504000D01*
D44*
%TO.N,Net-(J7-Pad2)*%
X26416000Y-8380000D02*
X26416000Y-8382000D01*
%TO.N,Net-(J7-Pad4)*%
X27432000Y-8380000D02*
X27432000Y-8382000D01*
X27432000Y-8382000D02*
X26924000Y-8890000D01*
%TO.N,Net-(J7-Pad6)*%
X28448000Y-8382000D02*
X27940000Y-8890000D01*
X28448000Y-8380000D02*
X28448000Y-8382000D01*
%TO.N,Net-(J7-Pad8)*%
X28958000Y-7874000D02*
X24174000Y-7874000D01*
X24174000Y-7874000D02*
X22650000Y-6350000D01*
X29464000Y-8380000D02*
X28958000Y-7874000D01*
%TO.N,Net-(J7-Pad10)*%
X26333000Y-7493000D02*
X25190000Y-6350000D01*
X30099000Y-7874000D02*
X29591000Y-7874000D01*
X29210000Y-7493000D02*
X26333000Y-7493000D01*
X30480000Y-8255000D02*
X30099000Y-7874000D01*
X30480000Y-8380000D02*
X30480000Y-8255000D01*
X29591000Y-7874000D02*
X29210000Y-7493000D01*
%TO.N,Net-(J7-Pad12)*%
X31496000Y-8380000D02*
X31496000Y-8128000D01*
X30861000Y-7493000D02*
X29718000Y-7493000D01*
X29718000Y-7493000D02*
X28575000Y-6350000D01*
X28575000Y-6350000D02*
X27730000Y-6350000D01*
X31496000Y-8128000D02*
X30861000Y-7493000D01*
%TO.N,Net-(J7-Pad14)*%
X30988000Y-6350000D02*
X32512000Y-7874000D01*
X30270000Y-6350000D02*
X30988000Y-6350000D01*
X32512000Y-7874000D02*
X32512000Y-8380000D01*
D41*
%TO.N,Net-(J7-Pad18)*%
X19683000Y-9398000D02*
X18796000Y-9398000D01*
D44*
%TO.N,Net-(J7-Pad16)*%
X33528000Y-7068000D02*
X33528000Y-8380000D01*
X32810000Y-6350000D02*
X33528000Y-7068000D01*
D41*
%TO.N,/phy/TIMEPIX_CTS*%
X12700000Y-3048000D02*
X6540500Y-3048000D01*
X5842000Y-3556000D02*
X5334000Y-4064000D01*
X42970000Y-1270000D02*
X41700000Y0D01*
X41700000Y0D02*
X14732000Y0D01*
X13716000Y-2032000D02*
X12700000Y-3048000D01*
X6350000Y-3048000D02*
X5842000Y-3556000D01*
X14732000Y0D02*
X13716000Y-1016000D01*
X13716000Y-1016000D02*
X13716000Y-2032000D01*
X6540500Y-3048000D02*
X6350000Y-3048000D01*
D43*
%TO.N,Net-(R10-Pad1)*%
X44205500Y-16690000D02*
X44178000Y-16662500D01*
%TO.N,Net-(R11-Pad1)*%
X44178000Y-26691500D02*
X43963500Y-26691500D01*
X43963500Y-26691500D02*
X42926000Y-25654000D01*
%TO.N,Net-(R9-Pad1)*%
X13988000Y-38626000D02*
X14224000Y-38862000D01*
X13988000Y-37693500D02*
X13988000Y-38626000D01*
%TD*%
%TA.AperFunction,Conductor*%
%TO.N,GND*%
G36*
X38625190Y-24020593D02*
G01*
X38630026Y-24025026D01*
X38712974Y-24107974D01*
X38734714Y-24154594D01*
X38735000Y-24161148D01*
X38735000Y-26638852D01*
X38717407Y-26687190D01*
X38712974Y-26692026D01*
X38630026Y-26774974D01*
X38583406Y-26796714D01*
X38576852Y-26797000D01*
X37369148Y-26797000D01*
X37320810Y-26779407D01*
X37315974Y-26774974D01*
X36979026Y-26438026D01*
X36957286Y-26391406D01*
X36957000Y-26384852D01*
X36957000Y-24205200D01*
X36974593Y-24156862D01*
X37019142Y-24131142D01*
X37032200Y-24130000D01*
X38227000Y-24130000D01*
X38331974Y-24025026D01*
X38378594Y-24003286D01*
X38385148Y-24003000D01*
X38576852Y-24003000D01*
X38625190Y-24020593D01*
G37*
%TD.AperFunction*%
%TD*%
%TA.AperFunction,Conductor*%
%TO.N,+5V*%
G36*
X9923190Y-12209593D02*
G01*
X9928026Y-12214026D01*
X10391974Y-12677974D01*
X10413714Y-12724594D01*
X10414000Y-12731148D01*
X10414000Y-13938852D01*
X10396407Y-13987190D01*
X10391974Y-13992026D01*
X9674026Y-14709974D01*
X9627406Y-14731714D01*
X9620852Y-14732000D01*
X6604000Y-14732000D01*
X2029213Y-19306787D01*
X2012209Y-19318148D01*
X2012760Y-19319102D01*
X2008493Y-19321566D01*
X2003937Y-19323453D01*
X1887103Y-19413103D01*
X1797453Y-19529937D01*
X1795566Y-19534493D01*
X1793102Y-19538760D01*
X1792215Y-19538248D01*
X1787377Y-19548623D01*
X1778000Y-19558000D01*
X1778000Y-19568732D01*
X1775645Y-19573782D01*
X1772276Y-19590719D01*
X1741096Y-19665993D01*
X1721874Y-19812000D01*
X1741096Y-19958007D01*
X1742981Y-19962559D01*
X1742982Y-19962561D01*
X1772276Y-20033281D01*
X1778000Y-20062059D01*
X1778000Y-20577941D01*
X1772276Y-20606719D01*
X1741096Y-20681993D01*
X1721874Y-20828000D01*
X1741096Y-20974007D01*
X1742981Y-20978559D01*
X1742982Y-20978561D01*
X1772276Y-21049281D01*
X1778000Y-21078059D01*
X1778000Y-21795353D01*
X1777105Y-21806922D01*
X1772309Y-21837724D01*
X1773003Y-21843032D01*
X1773003Y-21843034D01*
X1777365Y-21876389D01*
X1778000Y-21886139D01*
X1778000Y-26384852D01*
X1760407Y-26433190D01*
X1755974Y-26438026D01*
X1292026Y-26901974D01*
X1245406Y-26923714D01*
X1238852Y-26924000D01*
X-2000852Y-26924000D01*
X-2049190Y-26906407D01*
X-2054026Y-26901974D01*
X-2771974Y-26184026D01*
X-2793714Y-26137406D01*
X-2794000Y-26130852D01*
X-2794000Y-25177148D01*
X-2776407Y-25128810D01*
X-2771974Y-25123974D01*
X0Y-22352000D01*
X0Y-19589148D01*
X17593Y-19540810D01*
X22026Y-19535974D01*
X1526787Y-18031213D01*
X1543791Y-18019852D01*
X1543240Y-18018898D01*
X1547507Y-18016434D01*
X1552063Y-18014547D01*
X1668897Y-17924897D01*
X1758547Y-17808063D01*
X1760434Y-17803507D01*
X1762898Y-17799240D01*
X1763852Y-17799791D01*
X1775213Y-17782787D01*
X7343974Y-12214026D01*
X7390594Y-12192286D01*
X7397148Y-12192000D01*
X9874852Y-12192000D01*
X9923190Y-12209593D01*
G37*
%TD.AperFunction*%
%TD*%
%TA.AperFunction,Conductor*%
%TO.N,GND*%
G36*
X16908190Y-18432593D02*
G01*
X16913026Y-18437026D01*
X17526000Y-19050000D01*
X19228800Y-19050000D01*
X19277138Y-19067593D01*
X19302858Y-19112142D01*
X19304000Y-19125200D01*
X19304000Y-19275675D01*
X19296871Y-19307634D01*
X19242798Y-19422805D01*
X19222628Y-19552351D01*
X19223322Y-19557662D01*
X19223301Y-19559417D01*
X19205120Y-19607536D01*
X19160262Y-19632711D01*
X19148107Y-19633700D01*
X18520440Y-19633700D01*
X18514881Y-19633292D01*
X18510372Y-19631744D01*
X18459685Y-19633647D01*
X18456864Y-19633700D01*
X18436607Y-19633700D01*
X18433203Y-19634334D01*
X18429751Y-19634653D01*
X18429735Y-19634481D01*
X18425617Y-19634926D01*
X18403658Y-19635750D01*
X18403655Y-19635751D01*
X18396718Y-19636011D01*
X18393981Y-19637187D01*
X18383974Y-19638300D01*
X17671936Y-19638300D01*
X17612520Y-19650119D01*
X17579282Y-19672328D01*
X17548034Y-19681806D01*
X17539258Y-19685000D01*
X17526000Y-19685000D01*
X17145000Y-20066000D01*
X17145000Y-20415852D01*
X17127407Y-20464190D01*
X17122974Y-20469026D01*
X16913026Y-20678974D01*
X16866406Y-20700714D01*
X16859852Y-20701000D01*
X14382148Y-20701000D01*
X14333810Y-20683407D01*
X14328974Y-20678974D01*
X14119026Y-20469026D01*
X14097286Y-20422406D01*
X14097000Y-20415852D01*
X14097000Y-18700148D01*
X14114593Y-18651810D01*
X14119026Y-18646974D01*
X14328974Y-18437026D01*
X14375594Y-18415286D01*
X14382148Y-18415000D01*
X16859852Y-18415000D01*
X16908190Y-18432593D01*
G37*
%TD.AperFunction*%
%TD*%
%TA.AperFunction,Conductor*%
%TO.N,GND*%
G36*
X43070190Y-6748593D02*
G01*
X43075026Y-6753026D01*
X43284974Y-6962974D01*
X43306714Y-7009594D01*
X43307000Y-7016148D01*
X43307000Y-8096852D01*
X43289407Y-8145190D01*
X43284974Y-8150026D01*
X43202026Y-8232974D01*
X43155406Y-8254714D01*
X43148852Y-8255000D01*
X42068148Y-8255000D01*
X42019810Y-8237407D01*
X42014974Y-8232974D01*
X41805026Y-8023026D01*
X41783286Y-7976406D01*
X41783000Y-7969852D01*
X41783000Y-7016148D01*
X41800593Y-6967810D01*
X41805026Y-6962974D01*
X42014974Y-6753026D01*
X42061594Y-6731286D01*
X42068148Y-6731000D01*
X43021852Y-6731000D01*
X43070190Y-6748593D01*
G37*
%TD.AperFunction*%
%TD*%
%TA.AperFunction,Conductor*%
%TO.N,GND*%
G36*
X35323190Y-20464593D02*
G01*
X35328026Y-20469026D01*
X35941000Y-21082000D01*
X36417852Y-21082000D01*
X36466190Y-21099593D01*
X36471026Y-21104026D01*
X36680974Y-21313974D01*
X36702714Y-21360594D01*
X36703000Y-21367148D01*
X36703000Y-23495500D01*
X36685407Y-23543838D01*
X36640858Y-23569558D01*
X36627800Y-23570700D01*
X35920848Y-23570700D01*
X35872510Y-23553107D01*
X35867674Y-23548674D01*
X35560000Y-23241000D01*
X35497786Y-23241000D01*
X35480983Y-23238985D01*
X35476827Y-23237327D01*
X35470432Y-23236700D01*
X35461192Y-23236700D01*
X35443830Y-23234668D01*
X35431672Y-23231783D01*
X35424794Y-23232719D01*
X35424793Y-23232719D01*
X35400591Y-23236013D01*
X35390450Y-23236700D01*
X35078848Y-23236700D01*
X35030510Y-23219107D01*
X35025674Y-23214674D01*
X34852517Y-23041517D01*
X34831936Y-23003014D01*
X34825326Y-22969786D01*
X34823881Y-22962520D01*
X34778860Y-22895140D01*
X34711480Y-22850119D01*
X34652064Y-22838300D01*
X33932189Y-22838300D01*
X33922347Y-22837120D01*
X33922327Y-22837327D01*
X33917760Y-22836879D01*
X33917755Y-22836879D01*
X33915932Y-22836700D01*
X33095200Y-22836700D01*
X33046862Y-22819107D01*
X33021142Y-22774558D01*
X33020000Y-22761500D01*
X33020000Y-22722500D01*
X33037593Y-22674162D01*
X33082142Y-22648442D01*
X33095200Y-22647300D01*
X33890393Y-22647300D01*
X33893800Y-22646665D01*
X33897250Y-22646347D01*
X33897264Y-22646500D01*
X33905929Y-22645700D01*
X34652064Y-22645700D01*
X34711480Y-22633881D01*
X34778860Y-22588860D01*
X34823881Y-22521480D01*
X34835700Y-22462064D01*
X34836784Y-22462280D01*
X34856592Y-22420408D01*
X34925000Y-22352000D01*
X34925000Y-20605148D01*
X34942593Y-20556810D01*
X34947026Y-20551974D01*
X35029974Y-20469026D01*
X35076594Y-20447286D01*
X35083148Y-20447000D01*
X35274852Y-20447000D01*
X35323190Y-20464593D01*
G37*
%TD.AperFunction*%
%TD*%
%TA.AperFunction,Conductor*%
%TO.N,+3V3*%
G36*
X11701190Y-5859593D02*
G01*
X11706026Y-5864026D01*
X12677974Y-6835974D01*
X12699714Y-6882594D01*
X12700000Y-6889148D01*
X12700000Y-9493852D01*
X12682407Y-9542190D01*
X12677974Y-9547026D01*
X11633984Y-10591016D01*
X11587364Y-10612756D01*
X11559264Y-10609889D01*
X11523592Y-10599222D01*
X11498348Y-10591672D01*
X11492992Y-10591639D01*
X11492990Y-10591639D01*
X11435452Y-10591288D01*
X11367244Y-10590871D01*
X11241185Y-10626899D01*
X11236657Y-10629756D01*
X11194430Y-10656399D01*
X11154302Y-10668000D01*
X10944002Y-10668000D01*
X10903100Y-10655904D01*
X10866454Y-10632151D01*
X10866453Y-10632151D01*
X10861958Y-10629237D01*
X10736348Y-10591672D01*
X10730992Y-10591639D01*
X10730990Y-10591639D01*
X10673452Y-10591288D01*
X10605244Y-10590871D01*
X10479185Y-10626899D01*
X10474657Y-10629756D01*
X10432430Y-10656399D01*
X10392302Y-10668000D01*
X7239000Y-10668000D01*
X1038026Y-16868974D01*
X991406Y-16890714D01*
X984852Y-16891000D01*
X-95852Y-16891000D01*
X-144190Y-16873407D01*
X-149026Y-16868974D01*
X-358974Y-16659026D01*
X-380714Y-16612406D01*
X-381000Y-16605852D01*
X-381000Y-15398148D01*
X-363407Y-15349810D01*
X-358974Y-15344974D01*
X5819974Y-9166026D01*
X5866594Y-9144286D01*
X5873148Y-9144000D01*
X9017000Y-9144000D01*
X9525000Y-8636000D01*
X9525000Y-6508148D01*
X9542593Y-6459810D01*
X9547026Y-6454974D01*
X10137974Y-5864026D01*
X10184594Y-5842286D01*
X10191148Y-5842000D01*
X11652852Y-5842000D01*
X11701190Y-5859593D01*
G37*
%TD.AperFunction*%
%TD*%
%TA.AperFunction,Conductor*%
%TO.N,GND*%
G36*
X13098190Y-34688593D02*
G01*
X13103026Y-34693026D01*
X13312974Y-34902974D01*
X13334714Y-34949594D01*
X13335000Y-34956148D01*
X13335000Y-35909852D01*
X13317407Y-35958190D01*
X13312974Y-35963026D01*
X13103026Y-36172974D01*
X13056406Y-36194714D01*
X13049852Y-36195000D01*
X11969148Y-36195000D01*
X11920810Y-36177407D01*
X11915974Y-36172974D01*
X11833026Y-36090026D01*
X11811286Y-36043406D01*
X11811000Y-36036852D01*
X11811000Y-34956148D01*
X11828593Y-34907810D01*
X11833026Y-34902974D01*
X12042974Y-34693026D01*
X12089594Y-34671286D01*
X12096148Y-34671000D01*
X13049852Y-34671000D01*
X13098190Y-34688593D01*
G37*
%TD.AperFunction*%
%TD*%
%TA.AperFunction,Conductor*%
%TO.N,GND*%
G36*
X25040369Y-9035995D02*
G01*
X25142536Y-9126810D01*
X25988341Y-9878636D01*
X26044882Y-9928895D01*
X26069322Y-9974158D01*
X26068677Y-9999769D01*
X26058300Y-10051936D01*
X26058300Y-11561854D01*
X26040707Y-11610192D01*
X26003765Y-11634159D01*
X25996262Y-11636304D01*
X25973185Y-11642899D01*
X25970637Y-11644507D01*
X25920299Y-11648115D01*
X25878630Y-11617953D01*
X25865700Y-11575792D01*
X25865700Y-10051936D01*
X25853881Y-9992520D01*
X25808860Y-9925140D01*
X25741480Y-9880119D01*
X25682064Y-9868300D01*
X25441936Y-9868300D01*
X25438312Y-9869021D01*
X25438311Y-9869021D01*
X25414789Y-9873700D01*
X25382520Y-9880119D01*
X25382225Y-9878636D01*
X25341897Y-9880398D01*
X25341480Y-9880119D01*
X25282064Y-9868300D01*
X25041936Y-9868300D01*
X24982520Y-9880119D01*
X24915140Y-9925140D01*
X24870119Y-9992520D01*
X24858300Y-10051936D01*
X24858300Y-11608800D01*
X24840707Y-11657138D01*
X24796158Y-11682858D01*
X24783100Y-11684000D01*
X24740900Y-11684000D01*
X24692562Y-11666407D01*
X24666842Y-11621858D01*
X24665700Y-11608800D01*
X24665700Y-10051936D01*
X24653881Y-9992520D01*
X24608860Y-9925140D01*
X24541480Y-9880119D01*
X24482064Y-9868300D01*
X24241936Y-9868300D01*
X24182520Y-9880119D01*
X24115140Y-9925140D01*
X24070119Y-9992520D01*
X24058300Y-10051936D01*
X24058300Y-11608800D01*
X24040707Y-11657138D01*
X23996158Y-11682858D01*
X23983100Y-11684000D01*
X23951200Y-11684000D01*
X23902862Y-11666407D01*
X23877142Y-11621858D01*
X23876000Y-11608800D01*
X23876000Y-10033000D01*
X23868413Y-10025413D01*
X23862942Y-10010381D01*
X23863195Y-10010289D01*
X23860680Y-10005583D01*
X23858160Y-10006627D01*
X23855326Y-9999786D01*
X23853881Y-9992520D01*
X23808860Y-9925140D01*
X23741480Y-9880119D01*
X23734214Y-9878674D01*
X23727373Y-9875840D01*
X23728417Y-9873320D01*
X23702429Y-9859429D01*
X23517026Y-9674026D01*
X23495286Y-9627406D01*
X23495000Y-9620852D01*
X23495000Y-9175148D01*
X23512593Y-9126810D01*
X23517026Y-9121974D01*
X23599974Y-9039026D01*
X23646594Y-9017286D01*
X23653148Y-9017000D01*
X24990409Y-9017000D01*
X25040369Y-9035995D01*
G37*
%TD.AperFunction*%
%TD*%
%TA.AperFunction,Conductor*%
%TO.N,GND*%
G36*
X43070190Y-17162593D02*
G01*
X43075026Y-17167026D01*
X43284974Y-17376974D01*
X43306714Y-17423594D01*
X43307000Y-17430148D01*
X43307000Y-18510852D01*
X43289407Y-18559190D01*
X43284974Y-18564026D01*
X43202026Y-18646974D01*
X43155406Y-18668714D01*
X43148852Y-18669000D01*
X42068148Y-18669000D01*
X42019810Y-18651407D01*
X42014974Y-18646974D01*
X41805026Y-18437026D01*
X41783286Y-18390406D01*
X41783000Y-18383852D01*
X41783000Y-17430148D01*
X41800593Y-17381810D01*
X41805026Y-17376974D01*
X42014974Y-17167026D01*
X42061594Y-17145286D01*
X42068148Y-17145000D01*
X43021852Y-17145000D01*
X43070190Y-17162593D01*
G37*
%TD.AperFunction*%
%TD*%
%TA.AperFunction,Conductor*%
%TO.N,+3V3*%
G36*
X48910931Y-3195002D02*
G01*
X48931905Y-3211905D01*
X49112095Y-3392095D01*
X49146121Y-3454407D01*
X49149000Y-3481190D01*
X49149000Y-4519810D01*
X49128998Y-4587931D01*
X49112095Y-4608905D01*
X48260000Y-5461000D01*
X48260000Y-5916810D01*
X48239998Y-5984931D01*
X48223095Y-6005905D01*
X48042905Y-6186095D01*
X47980593Y-6220121D01*
X47953810Y-6223000D01*
X47804190Y-6223000D01*
X47736069Y-6202998D01*
X47715095Y-6186095D01*
X47534905Y-6005905D01*
X47500879Y-5943593D01*
X47498000Y-5916810D01*
X47498000Y-3989190D01*
X47518002Y-3921069D01*
X47534905Y-3900095D01*
X48223095Y-3211905D01*
X48285407Y-3177879D01*
X48312190Y-3175000D01*
X48842810Y-3175000D01*
X48910931Y-3195002D01*
G37*
%TD.AperFunction*%
%TD*%
M02*
